%TF.GenerationSoftware,KiCad,Pcbnew,7.0.1*%
%TF.CreationDate,2023-04-16T22:16:48+10:00*%
%TF.ProjectId,XCopy Standalone,58436f70-7920-4537-9461-6e64616c6f6e,rev?*%
%TF.SameCoordinates,Original*%
%TF.FileFunction,Soldermask,Bot*%
%TF.FilePolarity,Negative*%
%FSLAX46Y46*%
G04 Gerber Fmt 4.6, Leading zero omitted, Abs format (unit mm)*
G04 Created by KiCad (PCBNEW 7.0.1) date 2023-04-16 22:16:48*
%MOMM*%
%LPD*%
G01*
G04 APERTURE LIST*
G04 Aperture macros list*
%AMRoundRect*
0 Rectangle with rounded corners*
0 $1 Rounding radius*
0 $2 $3 $4 $5 $6 $7 $8 $9 X,Y pos of 4 corners*
0 Add a 4 corners polygon primitive as box body*
4,1,4,$2,$3,$4,$5,$6,$7,$8,$9,$2,$3,0*
0 Add four circle primitives for the rounded corners*
1,1,$1+$1,$2,$3*
1,1,$1+$1,$4,$5*
1,1,$1+$1,$6,$7*
1,1,$1+$1,$8,$9*
0 Add four rect primitives between the rounded corners*
20,1,$1+$1,$2,$3,$4,$5,0*
20,1,$1+$1,$4,$5,$6,$7,0*
20,1,$1+$1,$6,$7,$8,$9,0*
20,1,$1+$1,$8,$9,$2,$3,0*%
G04 Aperture macros list end*
%ADD10C,0.800000*%
%ADD11C,2.400000*%
%ADD12O,1.700000X1.700000*%
%ADD13R,1.700000X1.700000*%
%ADD14RoundRect,0.425000X0.425000X-0.425000X0.425000X0.425000X-0.425000X0.425000X-0.425000X-0.425000X0*%
%ADD15C,1.700000*%
%ADD16R,1.600000X1.600000*%
%ADD17C,1.600000*%
%ADD18C,3.500000*%
%ADD19C,2.200000*%
%ADD20C,0.750000*%
%ADD21C,1.050000*%
%ADD22C,1.400000*%
%ADD23C,1.200000*%
G04 APERTURE END LIST*
D10*
%TO.C,SW2*%
X142742200Y-91897200D03*
X144542200Y-91897200D03*
%TD*%
D11*
%TO.C,U6*%
X103302300Y-114502000D03*
X103302300Y-84582000D03*
X52382300Y-114502000D03*
X52382300Y-84582000D03*
D12*
X104342300Y-90652000D03*
X104342300Y-93192000D03*
X104342300Y-95732000D03*
X104342300Y-98272000D03*
X104342300Y-100812000D03*
X104342300Y-103352000D03*
X104342300Y-105892000D03*
D13*
X104342300Y-108432000D03*
%TD*%
D10*
%TO.C,SW4*%
X142742200Y-85598000D03*
X144542200Y-85598000D03*
%TD*%
D14*
%TO.C,J1*%
X100939600Y-68969300D03*
D15*
X100939600Y-71509300D03*
X98399600Y-68969300D03*
X98399600Y-71509300D03*
X95859600Y-68969300D03*
X95859600Y-71509300D03*
X93319600Y-68969300D03*
X93319600Y-71509300D03*
X90779600Y-68969300D03*
X90779600Y-71509300D03*
X88239600Y-68969300D03*
X88239600Y-71509300D03*
X85699600Y-68969300D03*
X85699600Y-71509300D03*
X83159600Y-68969300D03*
X83159600Y-71509300D03*
X80619600Y-68969300D03*
X80619600Y-71509300D03*
X78079600Y-68969300D03*
X78079600Y-71509300D03*
X75539600Y-68969300D03*
X75539600Y-71509300D03*
X72999600Y-68969300D03*
X72999600Y-71509300D03*
X70459600Y-68969300D03*
X70459600Y-71509300D03*
X67919600Y-68969300D03*
X67919600Y-71509300D03*
X65379600Y-68969300D03*
X65379600Y-71509300D03*
X62839600Y-68969300D03*
X62839600Y-71509300D03*
X60299600Y-68969300D03*
X60299600Y-71509300D03*
%TD*%
D13*
%TO.C,J3*%
X52374800Y-61518800D03*
D12*
X52374800Y-64058800D03*
%TD*%
D16*
%TO.C,U1*%
X108251600Y-82346800D03*
D17*
X108251600Y-84886800D03*
X108251600Y-87426800D03*
X108251600Y-89966800D03*
X108251600Y-92506800D03*
X108251600Y-95046800D03*
X108251600Y-97586800D03*
X108251600Y-100126800D03*
X108251600Y-102666800D03*
X108251600Y-105206800D03*
X108251600Y-107746800D03*
X108251600Y-110286800D03*
X108251600Y-112826800D03*
X108251600Y-115366800D03*
X110791600Y-115366800D03*
X113331600Y-115366800D03*
X115871600Y-115366800D03*
X118411600Y-115366800D03*
X120951600Y-115366800D03*
X123491600Y-115366800D03*
X123491600Y-112826800D03*
X123491600Y-110286800D03*
X123491600Y-107746800D03*
X123491600Y-105206800D03*
X123491600Y-102666800D03*
X123491600Y-100126800D03*
X123491600Y-97586800D03*
X123491600Y-95046800D03*
X123491600Y-92506800D03*
X123491600Y-89966800D03*
X123491600Y-87426800D03*
X123491600Y-84886800D03*
X123491600Y-82346800D03*
X120951600Y-84886800D03*
X120951600Y-89966800D03*
X120951600Y-92506800D03*
X120951600Y-95046800D03*
X115641600Y-88696800D03*
X115641600Y-83616800D03*
X117771600Y-83616800D03*
X118411600Y-97586800D03*
X118411600Y-100126800D03*
X118411600Y-102666800D03*
X118411600Y-105206800D03*
X118411600Y-107746800D03*
X118411600Y-110286800D03*
X118411600Y-112826800D03*
X115871600Y-112826800D03*
X115871600Y-110286800D03*
X115871600Y-107746800D03*
X115871600Y-105206800D03*
X115871600Y-102666800D03*
X115871600Y-100126800D03*
X115871600Y-97586800D03*
%TD*%
D10*
%TO.C,SW3*%
X142742200Y-98298000D03*
X144542200Y-98298000D03*
%TD*%
D13*
%TO.C,J4*%
X118770400Y-73229800D03*
D15*
X121270400Y-73229800D03*
X121270400Y-71229800D03*
X118770400Y-71229800D03*
D18*
X114000400Y-68519800D03*
X126040400Y-68519800D03*
%TD*%
D19*
%TO.C,H1*%
X142748000Y-60553600D03*
%TD*%
D13*
%TO.C,J2*%
X77771600Y-79908400D03*
D12*
X75231600Y-79908400D03*
X72691600Y-79908400D03*
X70151600Y-79908400D03*
X67611600Y-79908400D03*
X65071600Y-79908400D03*
X62531600Y-79908400D03*
X59991600Y-79908400D03*
X57451600Y-79908400D03*
X54911600Y-79908400D03*
X52371600Y-79908400D03*
%TD*%
D13*
%TO.C,J5*%
X108859400Y-61823600D03*
D12*
X111399400Y-61823600D03*
X108859400Y-64363600D03*
X111399400Y-64363600D03*
%TD*%
D20*
%TO.C,SW1*%
X134213600Y-108234400D03*
D21*
X134213600Y-112034400D03*
%TD*%
D19*
%TO.C,H2*%
X142747800Y-114501800D03*
%TD*%
D22*
%TO.C,BT1*%
X136448800Y-67319200D03*
D23*
X136448800Y-74819200D03*
%TD*%
M02*
