%TF.GenerationSoftware,KiCad,Pcbnew,7.0.1*%
%TF.CreationDate,2023-04-16T22:16:48+10:00*%
%TF.ProjectId,XCopy Standalone,58436f70-7920-4537-9461-6e64616c6f6e,rev?*%
%TF.SameCoordinates,Original*%
%TF.FileFunction,Copper,L1,Top*%
%TF.FilePolarity,Positive*%
%FSLAX46Y46*%
G04 Gerber Fmt 4.6, Leading zero omitted, Abs format (unit mm)*
G04 Created by KiCad (PCBNEW 7.0.1) date 2023-04-16 22:16:48*
%MOMM*%
%LPD*%
G01*
G04 APERTURE LIST*
G04 Aperture macros list*
%AMRoundRect*
0 Rectangle with rounded corners*
0 $1 Rounding radius*
0 $2 $3 $4 $5 $6 $7 $8 $9 X,Y pos of 4 corners*
0 Add a 4 corners polygon primitive as box body*
4,1,4,$2,$3,$4,$5,$6,$7,$8,$9,$2,$3,0*
0 Add four circle primitives for the rounded corners*
1,1,$1+$1,$2,$3*
1,1,$1+$1,$4,$5*
1,1,$1+$1,$6,$7*
1,1,$1+$1,$8,$9*
0 Add four rect primitives between the rounded corners*
20,1,$1+$1,$2,$3,$4,$5,0*
20,1,$1+$1,$4,$5,$6,$7,0*
20,1,$1+$1,$6,$7,$8,$9,0*
20,1,$1+$1,$8,$9,$2,$3,0*%
G04 Aperture macros list end*
%TA.AperFunction,SMDPad,CuDef*%
%ADD10R,1.050000X1.400000*%
%TD*%
%TA.AperFunction,SMDPad,CuDef*%
%ADD11RoundRect,0.237500X0.237500X-0.300000X0.237500X0.300000X-0.237500X0.300000X-0.237500X-0.300000X0*%
%TD*%
%TA.AperFunction,SMDPad,CuDef*%
%ADD12RoundRect,0.237500X-0.250000X-0.237500X0.250000X-0.237500X0.250000X0.237500X-0.250000X0.237500X0*%
%TD*%
%TA.AperFunction,SMDPad,CuDef*%
%ADD13RoundRect,0.237500X0.300000X0.237500X-0.300000X0.237500X-0.300000X-0.237500X0.300000X-0.237500X0*%
%TD*%
%TA.AperFunction,SMDPad,CuDef*%
%ADD14RoundRect,0.237500X-0.287500X-0.237500X0.287500X-0.237500X0.287500X0.237500X-0.287500X0.237500X0*%
%TD*%
%TA.AperFunction,ComponentPad*%
%ADD15O,1.700000X1.700000*%
%TD*%
%TA.AperFunction,ComponentPad*%
%ADD16R,1.700000X1.700000*%
%TD*%
%TA.AperFunction,SMDPad,CuDef*%
%ADD17RoundRect,0.150000X-0.650000X-0.150000X0.650000X-0.150000X0.650000X0.150000X-0.650000X0.150000X0*%
%TD*%
%TA.AperFunction,ComponentPad*%
%ADD18RoundRect,0.425000X0.425000X-0.425000X0.425000X0.425000X-0.425000X0.425000X-0.425000X-0.425000X0*%
%TD*%
%TA.AperFunction,ComponentPad*%
%ADD19C,1.700000*%
%TD*%
%TA.AperFunction,SMDPad,CuDef*%
%ADD20RoundRect,0.237500X-0.237500X0.300000X-0.237500X-0.300000X0.237500X-0.300000X0.237500X0.300000X0*%
%TD*%
%TA.AperFunction,SMDPad,CuDef*%
%ADD21RoundRect,0.237500X-0.300000X-0.237500X0.300000X-0.237500X0.300000X0.237500X-0.300000X0.237500X0*%
%TD*%
%TA.AperFunction,SMDPad,CuDef*%
%ADD22RoundRect,0.237500X0.250000X0.237500X-0.250000X0.237500X-0.250000X-0.237500X0.250000X-0.237500X0*%
%TD*%
%TA.AperFunction,SMDPad,CuDef*%
%ADD23R,2.500000X1.000000*%
%TD*%
%TA.AperFunction,SMDPad,CuDef*%
%ADD24R,1.000000X1.800000*%
%TD*%
%TA.AperFunction,SMDPad,CuDef*%
%ADD25RoundRect,0.250000X-0.337500X-0.475000X0.337500X-0.475000X0.337500X0.475000X-0.337500X0.475000X0*%
%TD*%
%TA.AperFunction,SMDPad,CuDef*%
%ADD26RoundRect,0.237500X0.237500X-0.250000X0.237500X0.250000X-0.237500X0.250000X-0.237500X-0.250000X0*%
%TD*%
%TA.AperFunction,ComponentPad*%
%ADD27R,1.600000X1.600000*%
%TD*%
%TA.AperFunction,ComponentPad*%
%ADD28C,1.600000*%
%TD*%
%TA.AperFunction,SMDPad,CuDef*%
%ADD29RoundRect,0.250000X-0.550000X1.500000X-0.550000X-1.500000X0.550000X-1.500000X0.550000X1.500000X0*%
%TD*%
%TA.AperFunction,ComponentPad*%
%ADD30C,3.500000*%
%TD*%
%TA.AperFunction,SMDPad,CuDef*%
%ADD31RoundRect,0.237500X-0.237500X0.250000X-0.237500X-0.250000X0.237500X-0.250000X0.237500X0.250000X0*%
%TD*%
%TA.AperFunction,SMDPad,CuDef*%
%ADD32RoundRect,0.250000X0.350000X0.450000X-0.350000X0.450000X-0.350000X-0.450000X0.350000X-0.450000X0*%
%TD*%
%TA.AperFunction,SMDPad,CuDef*%
%ADD33R,1.350000X1.000000*%
%TD*%
%TA.AperFunction,SMDPad,CuDef*%
%ADD34R,2.000000X1.800000*%
%TD*%
%TA.AperFunction,SMDPad,CuDef*%
%ADD35RoundRect,0.150000X0.675000X0.150000X-0.675000X0.150000X-0.675000X-0.150000X0.675000X-0.150000X0*%
%TD*%
%TA.AperFunction,SMDPad,CuDef*%
%ADD36R,1.240000X0.800000*%
%TD*%
%TA.AperFunction,SMDPad,CuDef*%
%ADD37R,1.200000X1.160000*%
%TD*%
%TA.AperFunction,SMDPad,CuDef*%
%ADD38R,2.500000X0.950000*%
%TD*%
%TA.AperFunction,SMDPad,CuDef*%
%ADD39R,2.200000X1.150000*%
%TD*%
%TA.AperFunction,SMDPad,CuDef*%
%ADD40R,1.150000X1.500000*%
%TD*%
%TA.AperFunction,SMDPad,CuDef*%
%ADD41R,1.250000X1.160000*%
%TD*%
%TA.AperFunction,SMDPad,CuDef*%
%ADD42R,1.500000X2.000000*%
%TD*%
%TA.AperFunction,SMDPad,CuDef*%
%ADD43R,3.800000X2.000000*%
%TD*%
%TA.AperFunction,SMDPad,CuDef*%
%ADD44R,1.200000X1.200000*%
%TD*%
%TA.AperFunction,SMDPad,CuDef*%
%ADD45R,1.600000X1.500000*%
%TD*%
%TA.AperFunction,SMDPad,CuDef*%
%ADD46R,2.000000X2.500000*%
%TD*%
%TA.AperFunction,SMDPad,CuDef*%
%ADD47R,2.600000X3.600000*%
%TD*%
%TA.AperFunction,ViaPad*%
%ADD48C,0.460000*%
%TD*%
%TA.AperFunction,ViaPad*%
%ADD49C,0.560000*%
%TD*%
%TA.AperFunction,Conductor*%
%ADD50C,0.304800*%
%TD*%
%TA.AperFunction,Conductor*%
%ADD51C,0.152400*%
%TD*%
%TA.AperFunction,Conductor*%
%ADD52C,0.200000*%
%TD*%
%TA.AperFunction,Conductor*%
%ADD53C,0.250000*%
%TD*%
G04 APERTURE END LIST*
D10*
%TO.P,SW2,1,1*%
%TO.N,GND*%
X142922200Y-93697200D03*
X142922200Y-90097200D03*
%TO.P,SW2,2,2*%
%TO.N,ESP_RESET*%
X144362200Y-93697200D03*
X144362200Y-90097200D03*
%TD*%
D11*
%TO.P,C12,1*%
%TO.N,VBUS*%
X90598600Y-96290300D03*
%TO.P,C12,2*%
%TO.N,GND*%
X90598600Y-94565300D03*
%TD*%
D12*
%TO.P,R11,1*%
%TO.N,+3.3V*%
X60145900Y-110134400D03*
%TO.P,R11,2*%
%TO.N,SD_CS*%
X61970900Y-110134400D03*
%TD*%
D13*
%TO.P,C5,1*%
%TO.N,VBUS*%
X118800100Y-76456700D03*
%TO.P,C5,2*%
%TO.N,GND*%
X117075100Y-76456700D03*
%TD*%
D14*
%TO.P,D3,1,K*%
%TO.N,Net-(D3-K)*%
X60228400Y-114096800D03*
%TO.P,D3,2,A*%
%TO.N,SCK*%
X61978400Y-114096800D03*
%TD*%
D13*
%TO.P,C16,1*%
%TO.N,GND*%
X88540100Y-101904800D03*
%TO.P,C16,2*%
%TO.N,/Sound & Video/PAM_SPK+*%
X86815100Y-101904800D03*
%TD*%
D15*
%TO.P,U6,1,GND*%
%TO.N,GND*%
X104342300Y-90652000D03*
%TO.P,U6,2,VCC*%
%TO.N,+3V3*%
X104342300Y-93192000D03*
%TO.P,U6,3,SCL*%
%TO.N,SCK*%
X104342300Y-95732000D03*
%TO.P,U6,4,MOSI*%
%TO.N,MOSI*%
X104342300Y-98272000D03*
%TO.P,U6,5,RESET*%
%TO.N,TFT_RESET*%
X104342300Y-100812000D03*
%TO.P,U6,6,D/~{C}*%
%TO.N,TFT_DC*%
X104342300Y-103352000D03*
%TO.P,U6,7,~{CS}*%
%TO.N,TFT_CS*%
X104342300Y-105892000D03*
D16*
%TO.P,U6,8,BACK_LITE*%
%TO.N,+3V3*%
X104342300Y-108432000D03*
%TD*%
D17*
%TO.P,U4,1,~{CS}*%
%TO.N,FLASH_CS*%
X128893200Y-95046800D03*
%TO.P,U4,2,DO(IO1)*%
%TO.N,MISO*%
X128893200Y-96316800D03*
%TO.P,U4,3,IO2*%
%TO.N,Net-(U4-IO2)*%
X128893200Y-97586800D03*
%TO.P,U4,4,GND*%
%TO.N,GND*%
X128893200Y-98856800D03*
%TO.P,U4,5,DI(IO0)*%
%TO.N,MOSI*%
X136093200Y-98856800D03*
%TO.P,U4,6,CLK*%
%TO.N,SCK*%
X136093200Y-97586800D03*
%TO.P,U4,7,IO3*%
%TO.N,Net-(U4-IO3)*%
X136093200Y-96316800D03*
%TO.P,U4,8,VCC*%
%TO.N,+3.3V*%
X136093200Y-95046800D03*
%TD*%
D13*
%TO.P,C11,1*%
%TO.N,+3.3V*%
X136321250Y-90728800D03*
%TO.P,C11,2*%
%TO.N,GND*%
X134596250Y-90728800D03*
%TD*%
D10*
%TO.P,SW4,1,1*%
%TO.N,GND*%
X142922200Y-87398000D03*
X142922200Y-83798000D03*
%TO.P,SW4,2,2*%
%TO.N,TEENSY_RESET*%
X144362200Y-87398000D03*
X144362200Y-83798000D03*
%TD*%
D12*
%TO.P,R6,1*%
%TO.N,Net-(D1-K)*%
X56081900Y-111912400D03*
%TO.P,R6,2*%
%TO.N,GND*%
X57906900Y-111912400D03*
%TD*%
D18*
%TO.P,J1,1,Pin_1*%
%TO.N,GND*%
X100939600Y-68969300D03*
D19*
%TO.P,J1,2,Pin_2*%
%TO.N,DENSITY*%
X100939600Y-71509300D03*
%TO.P,J1,3,Pin_3*%
%TO.N,GND*%
X98399600Y-68969300D03*
%TO.P,J1,4,Pin_4*%
%TO.N,unconnected-(J1-Pin_4-Pad4)*%
X98399600Y-71509300D03*
%TO.P,J1,5,Pin_5*%
%TO.N,GND*%
X95859600Y-68969300D03*
%TO.P,J1,6,Pin_6*%
%TO.N,unconnected-(J1-Pin_6-Pad6)*%
X95859600Y-71509300D03*
%TO.P,J1,7,Pin_7*%
%TO.N,GND*%
X93319600Y-68969300D03*
%TO.P,J1,8,Pin_8*%
%TO.N,INDEX*%
X93319600Y-71509300D03*
%TO.P,J1,9,Pin_9*%
%TO.N,GND*%
X90779600Y-68969300D03*
%TO.P,J1,10,Pin_10*%
%TO.N,unconnected-(J1-Pin_10-Pad10)*%
X90779600Y-71509300D03*
%TO.P,J1,11,Pin_11*%
%TO.N,GND*%
X88239600Y-68969300D03*
%TO.P,J1,12,Pin_12*%
%TO.N,DRIVE_SELECT*%
X88239600Y-71509300D03*
%TO.P,J1,13,Pin_13*%
%TO.N,GND*%
X85699600Y-68969300D03*
%TO.P,J1,14,Pin_14*%
%TO.N,unconnected-(J1-Pin_14-Pad14)*%
X85699600Y-71509300D03*
%TO.P,J1,15,Pin_15*%
%TO.N,GND*%
X83159600Y-68969300D03*
%TO.P,J1,16,Pin_16*%
%TO.N,MOTOR*%
X83159600Y-71509300D03*
%TO.P,J1,17,Pin_17*%
%TO.N,GND*%
X80619600Y-68969300D03*
%TO.P,J1,18,Pin_18*%
%TO.N,DIRECTION*%
X80619600Y-71509300D03*
%TO.P,J1,19,Pin_19*%
%TO.N,GND*%
X78079600Y-68969300D03*
%TO.P,J1,20,Pin_20*%
%TO.N,STEP*%
X78079600Y-71509300D03*
%TO.P,J1,21,Pin_21*%
%TO.N,GND*%
X75539600Y-68969300D03*
%TO.P,J1,22,Pin_22*%
%TO.N,WRITE_DATA*%
X75539600Y-71509300D03*
%TO.P,J1,23,Pin_23*%
%TO.N,GND*%
X72999600Y-68969300D03*
%TO.P,J1,24,Pin_24*%
%TO.N,WRITE_ENABLE*%
X72999600Y-71509300D03*
%TO.P,J1,25,Pin_25*%
%TO.N,GND*%
X70459600Y-68969300D03*
%TO.P,J1,26,Pin_26*%
%TO.N,TRACK_0*%
X70459600Y-71509300D03*
%TO.P,J1,27,Pin_27*%
%TO.N,GND*%
X67919600Y-68969300D03*
%TO.P,J1,28,Pin_28*%
%TO.N,WRITE_PROTECT*%
X67919600Y-71509300D03*
%TO.P,J1,29,Pin_29*%
%TO.N,GND*%
X65379600Y-68969300D03*
%TO.P,J1,30,Pin_30*%
%TO.N,READ_DATA*%
X65379600Y-71509300D03*
%TO.P,J1,31,Pin_31*%
%TO.N,GND*%
X62839600Y-68969300D03*
%TO.P,J1,32,Pin_32*%
%TO.N,HEAD_SELECT*%
X62839600Y-71509300D03*
%TO.P,J1,33,Pin_33*%
%TO.N,GND*%
X60299600Y-68969300D03*
%TO.P,J1,34,Pin_34*%
%TO.N,DISK_CHANGE*%
X60299600Y-71509300D03*
%TD*%
D11*
%TO.P,C6,1*%
%TO.N,VBUS*%
X112318800Y-75843300D03*
%TO.P,C6,2*%
%TO.N,GND*%
X112318800Y-74118300D03*
%TD*%
D20*
%TO.P,C13,1*%
%TO.N,/Sound & Video/AUDIO_INP_CAP*%
X99361600Y-91008900D03*
%TO.P,C13,2*%
%TO.N,/Sound & Video/AUDIO_INP_CR*%
X99361600Y-92733900D03*
%TD*%
D21*
%TO.P,C7,1*%
%TO.N,+3V3*%
X107544700Y-67005200D03*
%TO.P,C7,2*%
%TO.N,GND*%
X109269700Y-67005200D03*
%TD*%
D22*
%TO.P,R3,1*%
%TO.N,+3V3*%
X76601300Y-90525600D03*
%TO.P,R3,2*%
%TO.N,ESP_PROG*%
X74776300Y-90525600D03*
%TD*%
D23*
%TO.P,U2,1,~{RST}*%
%TO.N,ESP_RESET*%
X84101600Y-108394800D03*
%TO.P,U2,2,ADC*%
%TO.N,/ESP8266/PH1_ADC*%
X84101600Y-106394800D03*
%TO.P,U2,3,EN*%
%TO.N,/ESP8266/ESP_ENABLE*%
X84101600Y-104394800D03*
%TO.P,U2,4,GPIO16*%
%TO.N,/ESP8266/PH11_GPIO16*%
X84101600Y-102394800D03*
%TO.P,U2,5,GPIO14*%
%TO.N,/ESP8266/PH10_GPIO14*%
X84101600Y-100394800D03*
%TO.P,U2,6,GPIO12*%
%TO.N,/ESP8266/PH9_GPIO12*%
X84101600Y-98394800D03*
%TO.P,U2,7,GPIO13*%
%TO.N,JOY_LEFT*%
X84101600Y-96394800D03*
%TO.P,U2,8,VCC*%
%TO.N,+3V3*%
X84101600Y-94394800D03*
D24*
%TO.P,U2,9,CS0*%
%TO.N,/ESP8266/PH2_CS0*%
X81501600Y-92894800D03*
%TO.P,U2,10,MISO*%
%TO.N,/ESP8266/PH3_MISO*%
X79501600Y-92894800D03*
%TO.P,U2,11,GPIO9*%
%TO.N,/ESP8266/PH4_GPIO9*%
X77501600Y-92894800D03*
%TO.P,U2,12,GPIO10*%
%TO.N,/ESP8266/PH5_GPIO10*%
X75501600Y-92894800D03*
%TO.P,U2,13,MOSI*%
%TO.N,/ESP8266/PH6_MOSI*%
X73501600Y-92894800D03*
%TO.P,U2,14,SCLK*%
%TO.N,/ESP8266/PH7_SCLK*%
X71501600Y-92894800D03*
D23*
%TO.P,U2,15,GND*%
%TO.N,GND*%
X68901600Y-94394800D03*
%TO.P,U2,16,GPIO15*%
%TO.N,/ESP8266/GPIO15*%
X68901600Y-96394800D03*
%TO.P,U2,17,GPIO2*%
%TO.N,/ESP8266/GPIO_2*%
X68901600Y-98394800D03*
%TO.P,U2,18,GPIO0*%
%TO.N,ESP_PROG*%
X68901600Y-100394800D03*
%TO.P,U2,19,GPIO4*%
%TO.N,BUSY*%
X68901600Y-102394800D03*
%TO.P,U2,20,GPIO5*%
%TO.N,/ESP8266/PH8_GPIO5*%
X68901600Y-104394800D03*
%TO.P,U2,21,GPIO3/RXD*%
%TO.N,TX*%
X68901600Y-106394800D03*
%TO.P,U2,22,GPIO1/TXD*%
%TO.N,RX*%
X68901600Y-108394800D03*
%TD*%
D25*
%TO.P,C3,1*%
%TO.N,+3V3*%
X86744900Y-94030800D03*
%TO.P,C3,2*%
%TO.N,GND*%
X88819900Y-94030800D03*
%TD*%
D13*
%TO.P,C15,1*%
%TO.N,GND*%
X88540100Y-100253800D03*
%TO.P,C15,2*%
%TO.N,/Sound & Video/PAM_SPK-*%
X86815100Y-100253800D03*
%TD*%
D16*
%TO.P,J3,1,Pin_1*%
%TO.N,VBUS*%
X52374800Y-61518800D03*
D15*
%TO.P,J3,2,Pin_2*%
%TO.N,GND*%
X52374800Y-64058800D03*
%TD*%
D22*
%TO.P,R2,1*%
%TO.N,+3V3*%
X80970100Y-90525600D03*
%TO.P,R2,2*%
%TO.N,ESP_RESET*%
X79145100Y-90525600D03*
%TD*%
D26*
%TO.P,R17,1*%
%TO.N,VBUS*%
X90573200Y-92809700D03*
%TO.P,R17,2*%
%TO.N,/Sound & Video/PAM_SD*%
X90573200Y-90984700D03*
%TD*%
D13*
%TO.P,C1,1*%
%TO.N,GND*%
X128418100Y-82346800D03*
%TO.P,C1,2*%
%TO.N,VBUS*%
X126693100Y-82346800D03*
%TD*%
D11*
%TO.P,C14,1*%
%TO.N,/Sound & Video/AUDIO_INN_CR*%
X97710600Y-92733900D03*
%TO.P,C14,2*%
%TO.N,GND*%
X97710600Y-91008900D03*
%TD*%
D22*
%TO.P,R5,1*%
%TO.N,/ESP8266/GPIO15*%
X69032100Y-90525600D03*
%TO.P,R5,2*%
%TO.N,GND*%
X67207100Y-90525600D03*
%TD*%
D27*
%TO.P,U1,1,GND*%
%TO.N,GND*%
X108251600Y-82346800D03*
D28*
%TO.P,U1,2,0_RX1_Touch*%
%TO.N,RX*%
X108251600Y-84886800D03*
%TO.P,U1,3,1_TX1_Touch*%
%TO.N,TX*%
X108251600Y-87426800D03*
%TO.P,U1,4,2*%
%TO.N,SD_CD*%
X108251600Y-89966800D03*
%TO.P,U1,5,3_TX_PWM*%
%TO.N,DISK_CHANGE*%
X108251600Y-92506800D03*
%TO.P,U1,6,4_RX_PWM*%
%TO.N,HEAD_SELECT*%
X108251600Y-95046800D03*
%TO.P,U1,7,5_TX1_PWM*%
%TO.N,READ_DATA*%
X108251600Y-97586800D03*
%TO.P,U1,8,6_PWM*%
%TO.N,WRITE_PROTECT*%
X108251600Y-100126800D03*
%TO.P,U1,9,7_RX3_DOUT*%
%TO.N,TRACK_0*%
X108251600Y-102666800D03*
%TO.P,U1,10,8_TX3_DIN*%
%TO.N,WRITE_ENABLE*%
X108251600Y-105206800D03*
%TO.P,U1,11,9_RX2_CS_PWM*%
%TO.N,WRITE_DATA*%
X108251600Y-107746800D03*
%TO.P,U1,12,10_TX2_CS_PWM*%
%TO.N,TFT_CS*%
X108251600Y-110286800D03*
%TO.P,U1,13,11_DOUT*%
%TO.N,MOSI*%
X108251600Y-112826800D03*
%TO.P,U1,14,12_DIN*%
%TO.N,MISO*%
X108251600Y-115366800D03*
%TO.P,U1,15,VBat*%
%TO.N,BAT_+*%
X110791600Y-115366800D03*
%TO.P,U1,16,3.3V*%
%TO.N,unconnected-(U1-3.3V-Pad16)*%
X113331600Y-115366800D03*
%TO.P,U1,17,GND*%
%TO.N,BAT_-*%
X115871600Y-115366800D03*
%TO.P,U1,18,Program*%
%TO.N,unconnected-(U1-Program-Pad18)*%
X118411600Y-115366800D03*
%TO.P,U1,19,A14/DAC*%
%TO.N,AUDIO_INP*%
X120951600Y-115366800D03*
%TO.P,U1,20,13_LED_SCK*%
%TO.N,SCK*%
X123491600Y-115366800D03*
%TO.P,U1,21,14_A0_SCK*%
%TO.N,DENSITY*%
X123491600Y-112826800D03*
%TO.P,U1,22,15_A1_CS_Touch*%
%TO.N,INDEX*%
X123491600Y-110286800D03*
%TO.P,U1,23,16_A2_SCL0_Touch*%
%TO.N,DRIVE_SELECT*%
X123491600Y-107746800D03*
%TO.P,U1,24,17_A3_SDA0_Touch*%
%TO.N,MOTOR*%
X123491600Y-105206800D03*
%TO.P,U1,25,18_A4_SDA0_Touch*%
%TO.N,DIRECTION*%
X123491600Y-102666800D03*
%TO.P,U1,26,19_A5_SCL0_Touch*%
%TO.N,STEP*%
X123491600Y-100126800D03*
%TO.P,U1,27,20_A6_CS_PWM*%
%TO.N,TFT_DC*%
X123491600Y-97586800D03*
%TO.P,U1,28,21_A7_RX1_CS_PWM*%
%TO.N,TFT_RESET*%
X123491600Y-95046800D03*
%TO.P,U1,29,22_A8_Touch_PWM*%
%TO.N,SD_CS*%
X123491600Y-92506800D03*
%TO.P,U1,30,23_A9_Touch_PWM*%
%TO.N,FLASH_CS*%
X123491600Y-89966800D03*
%TO.P,U1,31,3.3V*%
%TO.N,+3.3V*%
X123491600Y-87426800D03*
%TO.P,U1,32,AGND*%
%TO.N,unconnected-(U1-AGND-Pad32)*%
X123491600Y-84886800D03*
%TO.P,U1,33,Vin*%
%TO.N,VBUS*%
X123491600Y-82346800D03*
%TO.P,U1,34,VUSB*%
%TO.N,unconnected-(U1-VUSB-Pad34)*%
X120951600Y-84886800D03*
%TO.P,U1,35,AREF*%
%TO.N,unconnected-(U1-AREF-Pad35)*%
X120951600Y-89966800D03*
%TO.P,U1,36,A10*%
%TO.N,unconnected-(U1-A10-Pad36)*%
X120951600Y-92506800D03*
%TO.P,U1,37,A11*%
%TO.N,unconnected-(U1-A11-Pad37)*%
X120951600Y-95046800D03*
%TO.P,U1,38,Reset*%
%TO.N,TEENSY_RESET*%
X115641600Y-88696800D03*
%TO.P,U1,39,D-*%
%TO.N,TEENSYUSB_D-*%
X115641600Y-83616800D03*
%TO.P,U1,40,D+*%
%TO.N,TEENSYUSB_D+*%
X117771600Y-83616800D03*
%TO.P,U1,41,A13*%
%TO.N,unconnected-(U1-A13-Pad41)*%
X118411600Y-97586800D03*
%TO.P,U1,42,3.3V*%
%TO.N,unconnected-(U1-3.3V-Pad42)*%
X118411600Y-100126800D03*
%TO.P,U1,43,33_Touch*%
%TO.N,JOY_PUSH*%
X118411600Y-102666800D03*
%TO.P,U1,44,32_Touch_PWM*%
%TO.N,JOY_RIGHT*%
X118411600Y-105206800D03*
%TO.P,U1,45,31_A20_TX2*%
%TO.N,JOY_LEFT*%
X118411600Y-107746800D03*
%TO.P,U1,46,30_A19_SDA1*%
%TO.N,JOY_DOWN*%
X118411600Y-110286800D03*
%TO.P,U1,47,29_A18_SCL1*%
%TO.N,JOY_UP*%
X118411600Y-112826800D03*
%TO.P,U1,48,28_A17*%
%TO.N,TEENSY_RESET*%
X115871600Y-112826800D03*
%TO.P,U1,49,27_A16*%
%TO.N,SD_WP*%
X115871600Y-110286800D03*
%TO.P,U1,50,26_A15_RX2*%
%TO.N,ESP_PROG*%
X115871600Y-107746800D03*
%TO.P,U1,51,25_Touch_PWM*%
%TO.N,ESP_RESET*%
X115871600Y-105206800D03*
%TO.P,U1,52,24*%
%TO.N,BUSY*%
X115871600Y-102666800D03*
%TO.P,U1,53,GND*%
%TO.N,GND*%
X115871600Y-100126800D03*
%TO.P,U1,54,A12*%
%TO.N,unconnected-(U1-A12-Pad54)*%
X115871600Y-97586800D03*
%TD*%
D26*
%TO.P,R13,1*%
%TO.N,MOSI*%
X138785600Y-98905700D03*
%TO.P,R13,2*%
%TO.N,GND*%
X138785600Y-97080700D03*
%TD*%
D12*
%TO.P,R7,1*%
%TO.N,Net-(D2-K)*%
X64209900Y-111912400D03*
%TO.P,R7,2*%
%TO.N,GND*%
X66034900Y-111912400D03*
%TD*%
D20*
%TO.P,C17,1*%
%TO.N,GND*%
X101647600Y-91441100D03*
%TO.P,C17,2*%
%TO.N,+3V3*%
X101647600Y-93166100D03*
%TD*%
D29*
%TO.P,C4,1*%
%TO.N,VBUS*%
X54000400Y-69385200D03*
%TO.P,C4,2*%
%TO.N,GND*%
X54000400Y-74785200D03*
%TD*%
D10*
%TO.P,SW3,1,1*%
%TO.N,GND*%
X142922200Y-100098000D03*
X142922200Y-96498000D03*
%TO.P,SW3,2,2*%
%TO.N,ESP_PROG*%
X144362200Y-100098000D03*
X144362200Y-96498000D03*
%TD*%
D16*
%TO.P,J4,1,VBUS*%
%TO.N,VBUS*%
X118770400Y-73229800D03*
D19*
%TO.P,J4,2,D-*%
%TO.N,TEENSYUSB_D-*%
X121270400Y-73229800D03*
%TO.P,J4,3,D+*%
%TO.N,TEENSYUSB_D+*%
X121270400Y-71229800D03*
%TO.P,J4,4,GND*%
%TO.N,GND*%
X118770400Y-71229800D03*
D30*
%TO.P,J4,5,Shield*%
%TO.N,unconnected-(J4-Shield-Pad5)*%
X114000400Y-68519800D03*
X126040400Y-68519800D03*
%TD*%
D26*
%TO.P,R16,1*%
%TO.N,MOSI*%
X66443200Y-101598100D03*
%TO.P,R16,2*%
%TO.N,GND*%
X66443200Y-99773100D03*
%TD*%
D13*
%TO.P,C10,1*%
%TO.N,+3.3V*%
X136321250Y-92887800D03*
%TO.P,C10,2*%
%TO.N,GND*%
X134596250Y-92887800D03*
%TD*%
D22*
%TO.P,R1,1*%
%TO.N,+3V3*%
X84780100Y-90525600D03*
%TO.P,R1,2*%
%TO.N,/ESP8266/ESP_ENABLE*%
X82955100Y-90525600D03*
%TD*%
D21*
%TO.P,C9,1*%
%TO.N,+3.3V*%
X52017100Y-89814400D03*
%TO.P,C9,2*%
%TO.N,GND*%
X53742100Y-89814400D03*
%TD*%
%TO.P,C8,1*%
%TO.N,+3.3V*%
X52017100Y-92100400D03*
%TO.P,C8,2*%
%TO.N,GND*%
X53742100Y-92100400D03*
%TD*%
D13*
%TO.P,C2,1*%
%TO.N,GND*%
X128418100Y-87426800D03*
%TO.P,C2,2*%
%TO.N,+3.3V*%
X126693100Y-87426800D03*
%TD*%
D31*
%TO.P,R8,1*%
%TO.N,+3.3V*%
X128794800Y-91060900D03*
%TO.P,R8,2*%
%TO.N,FLASH_CS*%
X128794800Y-92885900D03*
%TD*%
D16*
%TO.P,J2,1,Pin_1*%
%TO.N,/ESP8266/PH1_ADC*%
X77771600Y-79908400D03*
D15*
%TO.P,J2,2,Pin_2*%
%TO.N,/ESP8266/PH2_CS0*%
X75231600Y-79908400D03*
%TO.P,J2,3,Pin_3*%
%TO.N,/ESP8266/PH3_MISO*%
X72691600Y-79908400D03*
%TO.P,J2,4,Pin_4*%
%TO.N,/ESP8266/PH4_GPIO9*%
X70151600Y-79908400D03*
%TO.P,J2,5,Pin_5*%
%TO.N,/ESP8266/PH5_GPIO10*%
X67611600Y-79908400D03*
%TO.P,J2,6,Pin_6*%
%TO.N,/ESP8266/PH6_MOSI*%
X65071600Y-79908400D03*
%TO.P,J2,7,Pin_7*%
%TO.N,/ESP8266/PH7_SCLK*%
X62531600Y-79908400D03*
%TO.P,J2,8,Pin_8*%
%TO.N,/ESP8266/PH8_GPIO5*%
X59991600Y-79908400D03*
%TO.P,J2,9,Pin_9*%
%TO.N,/ESP8266/PH9_GPIO12*%
X57451600Y-79908400D03*
%TO.P,J2,10,Pin_10*%
%TO.N,/ESP8266/PH10_GPIO14*%
X54911600Y-79908400D03*
%TO.P,J2,11,Pin_11*%
%TO.N,/ESP8266/PH11_GPIO16*%
X52371600Y-79908400D03*
%TD*%
D16*
%TO.P,J5,1,Pin_1*%
%TO.N,GND*%
X108859400Y-61823600D03*
D15*
%TO.P,J5,2,Pin_2*%
%TO.N,VBUS*%
X111399400Y-61823600D03*
%TO.P,J5,3,Pin_3*%
%TO.N,+3.3V*%
X108859400Y-64363600D03*
%TO.P,J5,4,Pin_4*%
%TO.N,+3V3*%
X111399400Y-64363600D03*
%TD*%
D12*
%TO.P,R14,1*%
%TO.N,Net-(D3-K)*%
X60145900Y-111912400D03*
%TO.P,R14,2*%
%TO.N,SD_CS*%
X61970900Y-111912400D03*
%TD*%
D32*
%TO.P,FB2,1*%
%TO.N,/Sound & Video/PAM_OUT-*%
X88820600Y-98348800D03*
%TO.P,FB2,2*%
%TO.N,/Sound & Video/PAM_SPK-*%
X86820600Y-98348800D03*
%TD*%
D33*
%TO.P,SW1,1,A*%
%TO.N,JOY_LEFT*%
X130638600Y-108734400D03*
%TO.P,SW1,2,Center*%
%TO.N,JOY_PUSH*%
X130638600Y-110134400D03*
%TO.P,SW1,3,C*%
%TO.N,JOY_DOWN*%
X130638600Y-111534400D03*
%TO.P,SW1,4,B*%
%TO.N,JOY_UP*%
X137788600Y-108734400D03*
%TO.P,SW1,5,COM*%
%TO.N,GND*%
X137788600Y-110134400D03*
%TO.P,SW1,6,D*%
%TO.N,JOY_RIGHT*%
X137788600Y-111534400D03*
D34*
%TO.P,SW1,7,SH2*%
%TO.N,GND*%
X134213600Y-106084400D03*
%TO.P,SW1,8,SH1*%
X134213600Y-114184400D03*
%TD*%
D31*
%TO.P,R10,1*%
%TO.N,+3.3V*%
X138785600Y-93321500D03*
%TO.P,R10,2*%
%TO.N,Net-(U4-IO3)*%
X138785600Y-95146500D03*
%TD*%
D35*
%TO.P,U5,1,~{SD}*%
%TO.N,/Sound & Video/PAM_SD*%
X96144600Y-101879400D03*
%TO.P,U5,2,NC*%
%TO.N,unconnected-(U5-NC-Pad2)*%
X96144600Y-100609400D03*
%TO.P,U5,3,IN+*%
%TO.N,/Sound & Video/PAM_IN+*%
X96144600Y-99339400D03*
%TO.P,U5,4,IN-*%
%TO.N,/Sound & Video/PAM_IN-*%
X96144600Y-98069400D03*
%TO.P,U5,5,OUT+*%
%TO.N,/Sound & Video/PAM_OUT+*%
X90894600Y-98069400D03*
%TO.P,U5,6,VDD*%
%TO.N,VBUS*%
X90894600Y-99339400D03*
%TO.P,U5,7,GND*%
%TO.N,GND*%
X90894600Y-100609400D03*
%TO.P,U5,8,OUT-*%
%TO.N,/Sound & Video/PAM_OUT-*%
X90894600Y-101879400D03*
%TD*%
D12*
%TO.P,R9,1*%
%TO.N,+3.3V*%
X129848600Y-100914200D03*
%TO.P,R9,2*%
%TO.N,Net-(U4-IO2)*%
X131673600Y-100914200D03*
%TD*%
%TO.P,R12,1*%
%TO.N,MISO*%
X133301100Y-100939600D03*
%TO.P,R12,2*%
%TO.N,GND*%
X135126100Y-100939600D03*
%TD*%
D31*
%TO.P,R19,1*%
%TO.N,/Sound & Video/AUDIO_INN_CR*%
X97710600Y-94514900D03*
%TO.P,R19,2*%
%TO.N,/Sound & Video/PAM_IN-*%
X97710600Y-96339900D03*
%TD*%
D22*
%TO.P,R4,1*%
%TO.N,+3V3*%
X72791300Y-90525600D03*
%TO.P,R4,2*%
%TO.N,/ESP8266/GPIO_2*%
X70966300Y-90525600D03*
%TD*%
D32*
%TO.P,FB1,1*%
%TO.N,/Sound & Video/PAM_OUT+*%
X88820600Y-96316800D03*
%TO.P,FB1,2*%
%TO.N,/Sound & Video/PAM_SPK+*%
X86820600Y-96316800D03*
%TD*%
D26*
%TO.P,R15,1*%
%TO.N,MISO*%
X66494000Y-97330900D03*
%TO.P,R15,2*%
%TO.N,GND*%
X66494000Y-95505900D03*
%TD*%
D36*
%TO.P,J6,1,DATA2*%
%TO.N,unconnected-(J6-DATA2-Pad1)*%
X51846600Y-103941200D03*
%TO.P,J6,2,CD/DAT3*%
%TO.N,SD_CS*%
X51846600Y-102841200D03*
%TO.P,J6,3,CMD*%
%TO.N,MOSI*%
X51846600Y-101741200D03*
%TO.P,J6,4,VDD*%
%TO.N,+3.3V*%
X51846600Y-100641200D03*
%TO.P,J6,5,CLK*%
%TO.N,SCK*%
X51846600Y-99541200D03*
%TO.P,J6,6,VSS*%
%TO.N,GND*%
X51846600Y-98441200D03*
%TO.P,J6,7,DAT0*%
%TO.N,MISO*%
X51846600Y-97341200D03*
%TO.P,J6,8,DAT1*%
%TO.N,unconnected-(J6-DAT1-Pad8)*%
X51846600Y-96241200D03*
D37*
%TO.P,J6,DET_T,DETECT_TERM*%
%TO.N,SD_CD*%
X63476600Y-94301200D03*
D38*
%TO.P,J6,SH1,SHIELD*%
%TO.N,GND*%
X52476600Y-108286200D03*
D39*
%TO.P,J6,SH2,SHIELD*%
X52326600Y-93896200D03*
D40*
%TO.P,J6,SH3,SHIELD*%
X64601600Y-96101200D03*
%TO.P,J6,SH4,SHIELD*%
X64601600Y-103881200D03*
D39*
%TO.P,J6,SH5,SHIELD*%
X63806600Y-108186200D03*
D41*
%TO.P,J6,SW_T,SWITCH_TERM*%
%TO.N,SD_WP*%
X54476600Y-94301200D03*
%TD*%
D42*
%TO.P,U3,1,GND*%
%TO.N,GND*%
X105142000Y-75387600D03*
%TO.P,U3,2,VO*%
%TO.N,+3V3*%
X107442000Y-75387600D03*
D43*
X107442000Y-69087600D03*
D42*
%TO.P,U3,3,VI*%
%TO.N,VBUS*%
X109742000Y-75387600D03*
%TD*%
D44*
%TO.P,RV1,1,1*%
%TO.N,GND*%
X93027600Y-96084800D03*
D45*
%TO.P,RV1,2,2*%
%TO.N,/Sound & Video/AUDIO_INP_CAP*%
X94027600Y-92834800D03*
D44*
%TO.P,RV1,3,3*%
%TO.N,AUDIO_INP*%
X95027600Y-96084800D03*
%TD*%
D14*
%TO.P,D1,1,K*%
%TO.N,Net-(D1-K)*%
X56164400Y-114096800D03*
%TO.P,D1,2,A*%
%TO.N,BUSY*%
X57914400Y-114096800D03*
%TD*%
D31*
%TO.P,R18,1*%
%TO.N,/Sound & Video/AUDIO_INP_CR*%
X99361600Y-94514900D03*
%TO.P,R18,2*%
%TO.N,/Sound & Video/PAM_IN+*%
X99361600Y-96339900D03*
%TD*%
D14*
%TO.P,D2,1,K*%
%TO.N,Net-(D2-K)*%
X64292400Y-114096800D03*
%TO.P,D2,2,A*%
%TO.N,+3.3V*%
X66042400Y-114096800D03*
%TD*%
D46*
%TO.P,LS1,1,1*%
%TO.N,unconnected-(LS1-Pad1)*%
X98711600Y-114255800D03*
%TO.P,LS1,4,4*%
%TO.N,unconnected-(LS1-Pad4)*%
X87311600Y-114255800D03*
%TO.P,LS1,IN+,IN+*%
%TO.N,/Sound & Video/PAM_SPK+*%
X98711600Y-105555800D03*
%TO.P,LS1,IN-,IN-*%
%TO.N,/Sound & Video/PAM_SPK-*%
X87311600Y-105555800D03*
%TD*%
D47*
%TO.P,BT1,1,+*%
%TO.N,BAT_+*%
X136448800Y-63119200D03*
%TO.P,BT1,2,-*%
%TO.N,BAT_-*%
X136448800Y-78919200D03*
%TD*%
D48*
%TO.N,BAT_+*%
X136448800Y-63119200D03*
%TO.N,BAT_-*%
X136448800Y-78919200D03*
D49*
%TO.N,GND*%
X129540000Y-87426800D03*
X52476400Y-109372400D03*
X64617600Y-102616000D03*
X110591600Y-67005200D03*
X66127738Y-90488662D03*
X52984400Y-98450400D03*
X117094000Y-75210400D03*
X88544400Y-102819200D03*
X55067200Y-92100400D03*
X54000400Y-72491600D03*
X52324000Y-94948300D03*
X57912000Y-110845600D03*
X133451600Y-90728800D03*
X96672400Y-91033200D03*
X142900400Y-101396800D03*
X112318800Y-72948800D03*
X141376400Y-91846400D03*
X66040000Y-110845600D03*
X135788400Y-106121200D03*
X92075000Y-100253800D03*
X68896338Y-93257262D03*
X55067200Y-89814400D03*
X137668000Y-97078800D03*
X91541600Y-94538800D03*
X66497200Y-94386400D03*
X63500000Y-96113600D03*
X142900400Y-82499200D03*
X65328800Y-99771200D03*
X133451600Y-92862400D03*
X129540000Y-82346800D03*
X105156000Y-73834700D03*
X88819900Y-92731500D03*
X132689600Y-114198400D03*
X63804800Y-107086400D03*
X93014800Y-94945200D03*
X136194800Y-100939600D03*
X136147786Y-110134400D03*
X130022600Y-98856800D03*
%TO.N,VBUS*%
X90573200Y-92809700D03*
X90598600Y-96290300D03*
X113639600Y-59690000D03*
X108762800Y-73202800D03*
%TO.N,+3V3*%
X107442000Y-75222299D03*
X86744900Y-92629900D03*
X76962000Y-89408000D03*
X80960462Y-89422738D03*
X84785200Y-89408000D03*
X73241260Y-89420340D03*
%TO.N,+3.3V*%
X50901600Y-89814400D03*
X52984400Y-100634800D03*
X128778000Y-89966800D03*
X128625600Y-100888800D03*
X59029600Y-110134400D03*
X138785600Y-92202000D03*
X107137200Y-64363600D03*
X137515600Y-95046800D03*
X66192400Y-113030000D03*
D48*
%TO.N,BUSY*%
X70990528Y-105618633D03*
%TO.N,SCK*%
X51846600Y-99541200D03*
X138328400Y-104292400D03*
X105820900Y-102158800D03*
X136093200Y-97586800D03*
%TO.N,TEENSYUSB_D-*%
X120172466Y-80290288D03*
%TO.N,TEENSYUSB_D+*%
X120674512Y-80792334D03*
%TO.N,SD_CS*%
X113280800Y-88595200D03*
%TO.N,MOSI*%
X51846600Y-101741200D03*
X116176400Y-94386400D03*
X101881700Y-100377000D03*
%TO.N,MISO*%
X118716400Y-95300800D03*
X51846600Y-97341200D03*
%TO.N,SD_WP*%
X110996785Y-78382415D03*
%TO.N,ESP_RESET*%
X113131600Y-105206800D03*
X98501200Y-108407200D03*
%TO.N,ESP_PROG*%
X71996582Y-105321383D03*
%TO.N,JOY_LEFT*%
X87972804Y-99261315D03*
X106326600Y-100610550D03*
%TO.N,TEENSY_RESET*%
X124460000Y-88696800D03*
%TO.N,TFT_DC*%
X110998000Y-100888800D03*
%TO.N,/ESP8266/PH1_ADC*%
X81127600Y-94792800D03*
%TO.N,/ESP8266/PH2_CS0*%
X81501600Y-92894800D03*
%TO.N,/ESP8266/PH3_MISO*%
X79501600Y-92894800D03*
%TO.N,/ESP8266/PH4_GPIO9*%
X77501600Y-92894800D03*
%TO.N,/ESP8266/PH5_GPIO10*%
X75501600Y-92894800D03*
%TO.N,/ESP8266/PH6_MOSI*%
X73501600Y-92894800D03*
%TO.N,/ESP8266/PH7_SCLK*%
X71501600Y-92894800D03*
%TO.N,/ESP8266/PH11_GPIO16*%
X85242400Y-99465298D03*
%TO.N,/ESP8266/PH10_GPIO14*%
X84101600Y-100376500D03*
%TO.N,/ESP8266/PH9_GPIO12*%
X84101600Y-98394800D03*
%TO.N,/ESP8266/PH8_GPIO5*%
X75590400Y-95250000D03*
%TD*%
D50*
%TO.N,GND*%
X105142000Y-75387600D02*
X105142000Y-73848700D01*
X142922200Y-90097200D02*
X141804800Y-90097200D01*
X64601600Y-103881200D02*
X64601600Y-102632000D01*
X142922200Y-101375000D02*
X142900400Y-101396800D01*
X142922200Y-83798000D02*
X142109600Y-83798000D01*
X117075100Y-76456700D02*
X117075100Y-75229300D01*
X52326600Y-94945700D02*
X52324000Y-94948300D01*
X128893200Y-98856800D02*
X130022600Y-98856800D01*
X142922200Y-83798000D02*
X142922200Y-82521000D01*
X141906400Y-100098000D02*
X141376400Y-99568000D01*
X66443200Y-99773100D02*
X65330700Y-99773100D01*
X137669900Y-97080700D02*
X137668000Y-97078800D01*
X135751600Y-106084400D02*
X135788400Y-106121200D01*
X66164676Y-90525600D02*
X66127738Y-90488662D01*
X92075000Y-100253800D02*
X91719400Y-100609400D01*
X141376400Y-96977200D02*
X141855600Y-96498000D01*
X141478000Y-93421200D02*
X141376400Y-93319600D01*
X88540100Y-100253800D02*
X88540100Y-101904800D01*
X134596250Y-90728800D02*
X133451600Y-90728800D01*
X141376400Y-84531200D02*
X141376400Y-86563200D01*
X135126100Y-100939600D02*
X136194800Y-100939600D01*
X88819900Y-92731500D02*
X88819900Y-94030800D01*
X52476600Y-108286200D02*
X52476600Y-109372200D01*
X52476600Y-109372200D02*
X52476400Y-109372400D01*
X93027600Y-96084800D02*
X93027600Y-94958000D01*
X97710600Y-91008900D02*
X96696700Y-91008900D01*
X137788600Y-110134400D02*
X136147786Y-110134400D01*
X138785600Y-97080700D02*
X137669900Y-97080700D01*
X142922200Y-82521000D02*
X142900400Y-82499200D01*
X133477000Y-92887800D02*
X133451600Y-92862400D01*
X51846600Y-98441200D02*
X52975200Y-98441200D01*
X93027600Y-95974000D02*
X93014800Y-95961200D01*
X68901600Y-93262524D02*
X68896338Y-93257262D01*
X64601600Y-96101200D02*
X63512400Y-96101200D01*
X57906900Y-110850700D02*
X57912000Y-110845600D01*
X134213600Y-114184400D02*
X132703600Y-114184400D01*
X142922200Y-93697200D02*
X141754000Y-93697200D01*
X142922200Y-100098000D02*
X142922200Y-101375000D01*
X141855600Y-96498000D02*
X142922200Y-96498000D01*
X134213600Y-106084400D02*
X135751600Y-106084400D01*
X141376400Y-90525600D02*
X141376400Y-91846400D01*
X101647600Y-91441100D02*
X103553200Y-91441100D01*
X68901600Y-94394800D02*
X68901600Y-93262524D01*
X66494000Y-94389600D02*
X66497200Y-94386400D01*
X52326600Y-93896200D02*
X52326600Y-94945700D01*
X88540100Y-102814900D02*
X88544400Y-102819200D01*
X117075100Y-75229300D02*
X117094000Y-75210400D01*
X128418100Y-82346800D02*
X129540000Y-82346800D01*
X90598600Y-94565300D02*
X91515100Y-94565300D01*
X63806600Y-107088200D02*
X63804800Y-107086400D01*
X63512400Y-96101200D02*
X63500000Y-96113600D01*
X141804800Y-90097200D02*
X141376400Y-90525600D01*
X53742100Y-92100400D02*
X55067200Y-92100400D01*
X54000400Y-74785200D02*
X54000400Y-72491600D01*
X141754000Y-93697200D02*
X141478000Y-93421200D01*
X128418100Y-87426800D02*
X129540000Y-87426800D01*
X53742100Y-89814400D02*
X55067200Y-89814400D01*
X105142000Y-73848700D02*
X105156000Y-73834700D01*
X142211200Y-87398000D02*
X142922200Y-87398000D01*
X65330700Y-99773100D02*
X65328800Y-99771200D01*
X57906900Y-111963200D02*
X57906900Y-110850700D01*
X66034900Y-111912400D02*
X66034900Y-110850700D01*
X109269700Y-67005200D02*
X110591600Y-67005200D01*
X132703600Y-114184400D02*
X132689600Y-114198400D01*
X134596250Y-92887800D02*
X133477000Y-92887800D01*
X112318800Y-74118300D02*
X112318800Y-72948800D01*
X66494000Y-95505900D02*
X66494000Y-94389600D01*
X141376400Y-86563200D02*
X142211200Y-87398000D01*
X52975200Y-98441200D02*
X52984400Y-98450400D01*
X103553200Y-91441100D02*
X104342300Y-90652000D01*
X142922200Y-100098000D02*
X141906400Y-100098000D01*
X63806600Y-108186200D02*
X63806600Y-107088200D01*
X66034900Y-110850700D02*
X66040000Y-110845600D01*
X141376400Y-99568000D02*
X141376400Y-96977200D01*
X64601600Y-102632000D02*
X64617600Y-102616000D01*
X88540100Y-101904800D02*
X88540100Y-102814900D01*
X142109600Y-83798000D02*
X141376400Y-84531200D01*
X91719400Y-100609400D02*
X90894600Y-100609400D01*
X67207100Y-90525600D02*
X66164676Y-90525600D01*
X141376400Y-93319600D02*
X141376400Y-91846400D01*
%TO.N,VBUS*%
X118770400Y-76427000D02*
X118770400Y-73229800D01*
X123491600Y-82346800D02*
X126518100Y-82346800D01*
X118800100Y-76456700D02*
X118770400Y-76427000D01*
X112318800Y-75843300D02*
X110197700Y-75843300D01*
X92075000Y-99339400D02*
X92405200Y-99009200D01*
X113639600Y-59690000D02*
X113639600Y-61341000D01*
X90894600Y-99339400D02*
X92075000Y-99339400D01*
X108762800Y-73202800D02*
X109474000Y-73202800D01*
X90894600Y-99339400D02*
X90629099Y-99339400D01*
X55227200Y-69385200D02*
X55524400Y-69088000D01*
X109742000Y-73470800D02*
X109742000Y-75387600D01*
X54000400Y-69385200D02*
X55227200Y-69385200D01*
X110197700Y-75843300D02*
X109742000Y-75387600D01*
X92405200Y-99009200D02*
X92405200Y-97332800D01*
X55016400Y-61518800D02*
X52374800Y-61518800D01*
X113639600Y-61341000D02*
X113157000Y-61823600D01*
X113335900Y-75843300D02*
X115949400Y-73229800D01*
X118800100Y-76456700D02*
X118800100Y-80242900D01*
X112318800Y-75843300D02*
X113335900Y-75843300D01*
X55524400Y-62026800D02*
X55016400Y-61518800D01*
X109474000Y-73202800D02*
X109742000Y-73470800D01*
X118800100Y-80242900D02*
X120904000Y-82346800D01*
X120904000Y-82346800D02*
X123491600Y-82346800D01*
X92405200Y-97332800D02*
X91362700Y-96290300D01*
X91362700Y-96290300D02*
X90598600Y-96290300D01*
X113157000Y-61823600D02*
X111399400Y-61823600D01*
X115949400Y-73229800D02*
X118770400Y-73229800D01*
X55524400Y-69088000D02*
X55524400Y-62026800D01*
%TO.N,+3V3*%
X86380900Y-94394800D02*
X86744900Y-94030800D01*
X84780100Y-90525600D02*
X84780100Y-89413100D01*
X108610400Y-65938400D02*
X109824600Y-65938400D01*
X107544700Y-67005200D02*
X108610400Y-65939500D01*
X73088860Y-89420340D02*
X73241260Y-89420340D01*
X84101600Y-94394800D02*
X86380900Y-94394800D01*
X76601300Y-90525600D02*
X76601300Y-89768700D01*
X108610400Y-65939500D02*
X108610400Y-65938400D01*
X109824600Y-65938400D02*
X111399400Y-64363600D01*
X72791300Y-89717900D02*
X73088860Y-89420340D01*
X101673500Y-93192000D02*
X101647600Y-93166100D01*
X107442000Y-75222299D02*
X107442000Y-69087600D01*
X107442000Y-67107900D02*
X107544700Y-67005200D01*
X72791300Y-90525600D02*
X72791300Y-89717900D01*
X107442000Y-69087600D02*
X107442000Y-67107900D01*
X104342300Y-93192000D02*
X101673500Y-93192000D01*
X80970100Y-89432376D02*
X80960462Y-89422738D01*
X84780100Y-89413100D02*
X84785200Y-89408000D01*
X86744900Y-92629900D02*
X86744900Y-94030800D01*
X80970100Y-90525600D02*
X80970100Y-89432376D01*
X76601300Y-89768700D02*
X76962000Y-89408000D01*
%TO.N,+3.3V*%
X123491600Y-87426800D02*
X126518100Y-87426800D01*
X52017100Y-89814400D02*
X50901600Y-89814400D01*
X108859400Y-64363600D02*
X107137200Y-64363600D01*
X136321250Y-92887800D02*
X136321250Y-94818750D01*
X51842100Y-89814400D02*
X51842100Y-92100400D01*
X66198200Y-113035800D02*
X66192400Y-113030000D01*
X138785600Y-93321500D02*
X138785600Y-92202000D01*
X128794800Y-91060900D02*
X128794800Y-89983600D01*
X128794800Y-89983600D02*
X128778000Y-89966800D01*
X136321250Y-90728800D02*
X136321250Y-92887800D01*
X60298300Y-110134400D02*
X59029600Y-110134400D01*
X51846600Y-100641200D02*
X52978000Y-100641200D01*
X136321250Y-94818750D02*
X136093200Y-95046800D01*
X66198200Y-114096800D02*
X66198200Y-113035800D01*
X136093200Y-95046800D02*
X137515600Y-95046800D01*
X128651000Y-100914200D02*
X128625600Y-100888800D01*
X52978000Y-100641200D02*
X52984400Y-100634800D01*
X129848600Y-100914200D02*
X128651000Y-100914200D01*
D51*
%TO.N,Net-(D1-K)*%
X56081900Y-111963200D02*
X56081900Y-114094900D01*
%TO.N,BUSY*%
X66849600Y-115417600D02*
X67256000Y-115011200D01*
X66748000Y-103124000D02*
X67477200Y-102394800D01*
X66748000Y-107188000D02*
X66748000Y-105460800D01*
X57914400Y-114096800D02*
X57914400Y-114912000D01*
X70985095Y-105613200D02*
X70990528Y-105618633D01*
X67477200Y-102394800D02*
X68901600Y-102394800D01*
X57914400Y-114912000D02*
X58420000Y-115417600D01*
X66748000Y-105460800D02*
X66748000Y-103124000D01*
X67256000Y-107696000D02*
X66748000Y-107188000D01*
X66900400Y-105613200D02*
X70985095Y-105613200D01*
X66748000Y-105460800D02*
X66900400Y-105613200D01*
X58420000Y-115417600D02*
X66849600Y-115417600D01*
X67256000Y-115011200D02*
X67256000Y-107696000D01*
%TO.N,Net-(D2-K)*%
X64209900Y-111963200D02*
X64209900Y-114085900D01*
%TO.N,Net-(D3-K)*%
X60228400Y-114096800D02*
X60228400Y-111994900D01*
X60228400Y-111994900D02*
X60145900Y-111912400D01*
%TO.N,SCK*%
X109524800Y-104394000D02*
X109524800Y-113893600D01*
X63676400Y-99541200D02*
X51846600Y-99541200D01*
X67205200Y-102168431D02*
X67205200Y-101041200D01*
X64820800Y-100685600D02*
X63676400Y-99541200D01*
X105820900Y-103433300D02*
X106324400Y-103936800D01*
X109067600Y-103936800D02*
X109524800Y-104394000D01*
X63039600Y-113944400D02*
X63039600Y-111201200D01*
X139341200Y-105305200D02*
X138328400Y-104292400D01*
X104342300Y-95732000D02*
X105536400Y-95732000D01*
X124291599Y-116166799D02*
X138798401Y-116166799D01*
X122415400Y-114290600D02*
X123491600Y-115366800D01*
X62887200Y-114096800D02*
X63039600Y-113944400D01*
X105820900Y-102158800D02*
X105820900Y-103433300D01*
X116319400Y-114290600D02*
X116328800Y-114300000D01*
X63039600Y-111201200D02*
X65579600Y-108661200D01*
X106324400Y-103936800D02*
X109067600Y-103936800D01*
X109921800Y-114290600D02*
X116319400Y-114290600D01*
X116338200Y-114290600D02*
X122415400Y-114290600D01*
X116328800Y-114300000D02*
X116338200Y-114290600D01*
X65579600Y-103794032D02*
X67205200Y-102168431D01*
X138798401Y-116166799D02*
X139341200Y-115624000D01*
X105536400Y-95732000D02*
X105820900Y-96016500D01*
X62185000Y-114096800D02*
X62887200Y-114096800D01*
X123491600Y-115366800D02*
X124291599Y-116166799D01*
X65579600Y-108661200D02*
X65579600Y-103794032D01*
X109524800Y-113893600D02*
X109921800Y-114290600D01*
X67205200Y-101041200D02*
X66849600Y-100685600D01*
X139341200Y-115624000D02*
X139341200Y-105305200D01*
X66849600Y-100685600D02*
X64820800Y-100685600D01*
X105820900Y-96016500D02*
X105820900Y-102158800D01*
D50*
%TO.N,/Sound & Video/PAM_OUT+*%
X88820600Y-96440600D02*
X88820600Y-96316800D01*
X90894600Y-98069400D02*
X90449400Y-98069400D01*
X90449400Y-98069400D02*
X88820600Y-96440600D01*
X90894600Y-97958045D02*
X90894600Y-98069400D01*
%TO.N,/Sound & Video/PAM_OUT-*%
X88820600Y-98348800D02*
X89611200Y-99139400D01*
X89611200Y-99139400D02*
X89611200Y-101600000D01*
X89611200Y-101600000D02*
X89890600Y-101879400D01*
X89890600Y-101879400D02*
X90894600Y-101879400D01*
D52*
%TO.N,TEENSYUSB_D-*%
X122965000Y-77681601D02*
X121456100Y-79190501D01*
X121173256Y-79190501D02*
X121173257Y-79190501D01*
X120356313Y-80290288D02*
X120172466Y-80290288D01*
X120761030Y-79343958D02*
X120890414Y-79473342D01*
X120890413Y-79756185D02*
X120356313Y-80290288D01*
X120761029Y-79061117D02*
X120761030Y-79061116D01*
X121270400Y-73229800D02*
X122634003Y-73229800D01*
X122965000Y-73560797D02*
X122965000Y-77681601D01*
X121173257Y-79190501D02*
X121043872Y-79061116D01*
X122634003Y-73229800D02*
X122965000Y-73560797D01*
X121043920Y-79061068D02*
G75*
G03*
X120761030Y-79061118I-141420J-141432D01*
G01*
X121173257Y-79190500D02*
G75*
G03*
X121456099Y-79190500I141421J141421D01*
G01*
X120890450Y-79756221D02*
G75*
G03*
X120890413Y-79473343I-141450J141421D01*
G01*
X120760993Y-79061079D02*
G75*
G03*
X120761030Y-79343958I141507J-141421D01*
G01*
%TO.N,TEENSYUSB_D+*%
X123415000Y-73374400D02*
X123415000Y-77867999D01*
X123415000Y-77867999D02*
X120674512Y-80608487D01*
X121270400Y-71229800D02*
X123415000Y-73374400D01*
X120674512Y-80608487D02*
X120674512Y-80792334D01*
D51*
%TO.N,SD_CS*%
X109470800Y-77571600D02*
X113280800Y-81381600D01*
X61970900Y-105760500D02*
X61468000Y-105257600D01*
X61970900Y-110134400D02*
X61970900Y-105760500D01*
X58721600Y-78181200D02*
X59331200Y-77571600D01*
X51846600Y-102841200D02*
X50774800Y-102841200D01*
X59331200Y-77571600D02*
X109470800Y-77571600D01*
X61468000Y-105257600D02*
X51104800Y-105257600D01*
X58112000Y-95504000D02*
X58721600Y-94894400D01*
X50746000Y-104898800D02*
X50746000Y-102870000D01*
X58721600Y-94894400D02*
X58721600Y-78181200D01*
X51104800Y-105257600D02*
X50746000Y-104898800D01*
X50774800Y-102841200D02*
X50746000Y-102870000D01*
X51011400Y-95504000D02*
X58112000Y-95504000D01*
X50746000Y-95769400D02*
X51011400Y-95504000D01*
X113280800Y-81381600D02*
X113280800Y-88595200D01*
X61970900Y-111912400D02*
X61970900Y-110134400D01*
X50746000Y-102870000D02*
X50746000Y-95769400D01*
%TO.N,MOSI*%
X101881700Y-100377000D02*
X101881700Y-109654100D01*
X101881700Y-98930700D02*
X102540400Y-98272000D01*
X102540400Y-98272000D02*
X104342300Y-98272000D01*
X66443200Y-101598100D02*
X66300100Y-101741200D01*
X116735200Y-93827600D02*
X121641977Y-93827600D01*
X127887800Y-95623000D02*
X130885000Y-95623000D01*
X122275600Y-94461223D02*
X122275600Y-95567632D01*
X101881700Y-109654100D02*
X102463600Y-110236000D01*
X138785600Y-98905700D02*
X136142100Y-98905700D01*
X134118800Y-98856800D02*
X136093200Y-98856800D01*
X127387800Y-96123000D02*
X127887800Y-95623000D01*
X102463600Y-110236000D02*
X105660800Y-110236000D01*
X122275600Y-95567632D02*
X122830968Y-96123000D01*
X116176400Y-94386400D02*
X116735200Y-93827600D01*
X130885000Y-95623000D02*
X134118800Y-98856800D01*
X121641977Y-93827600D02*
X122275600Y-94461223D01*
X66300100Y-101741200D02*
X51846600Y-101741200D01*
X101881700Y-100377000D02*
X101881700Y-98930700D01*
X122830968Y-96123000D02*
X127387800Y-96123000D01*
X105660800Y-110236000D02*
X108251600Y-112826800D01*
X136142100Y-98905700D02*
X136093200Y-98856800D01*
%TO.N,MISO*%
X133301100Y-99112700D02*
X130505200Y-96316800D01*
X119024400Y-95300800D02*
X118716400Y-95300800D01*
X127870400Y-96316800D02*
X128893200Y-96316800D01*
X66483700Y-97341200D02*
X66494000Y-97330900D01*
X51846600Y-97341200D02*
X66483700Y-97341200D01*
X119024400Y-95300800D02*
X120199000Y-96475400D01*
X133301100Y-100939600D02*
X133301100Y-99112700D01*
X127711800Y-96475400D02*
X127870400Y-96316800D01*
X120199000Y-96475400D02*
X127711800Y-96475400D01*
X130505200Y-96316800D02*
X128893200Y-96316800D01*
%TO.N,SD_WP*%
X109826498Y-77219200D02*
X57448400Y-77219200D01*
X57448400Y-77219200D02*
X56325400Y-78342200D01*
X110989713Y-78382415D02*
X110996785Y-78382415D01*
X109826498Y-77219200D02*
X110989713Y-78382415D01*
X56325400Y-78342200D02*
X56325400Y-92452400D01*
X56325400Y-92452400D02*
X54476600Y-94301200D01*
%TO.N,SD_CD*%
X109880400Y-89966800D02*
X108251600Y-89966800D01*
X110740800Y-79339968D02*
X110740800Y-89106400D01*
X110740800Y-89106400D02*
X109880400Y-89966800D01*
X109324832Y-77924000D02*
X110740800Y-79339968D01*
X65430400Y-77924000D02*
X109324832Y-77924000D01*
X63657800Y-79696600D02*
X65430400Y-77924000D01*
X63657800Y-94120000D02*
X63657800Y-79696600D01*
X63476600Y-94301200D02*
X63657800Y-94120000D01*
%TO.N,/ESP8266/ESP_ENABLE*%
X81788000Y-103733600D02*
X81788000Y-94538800D01*
X84101600Y-104394800D02*
X82449200Y-104394800D01*
X82956400Y-93014800D02*
X82955100Y-93013500D01*
X82449200Y-104394800D02*
X81788000Y-103733600D01*
X82956400Y-93370400D02*
X82956400Y-93014800D01*
X81788000Y-94538800D02*
X82956400Y-93370400D01*
X82955100Y-93013500D02*
X82955100Y-90525600D01*
%TO.N,ESP_RESET*%
X144068800Y-95046800D02*
X140665200Y-95046800D01*
X144362200Y-93697200D02*
X144362200Y-94753400D01*
X80518000Y-91795600D02*
X80518000Y-91440000D01*
X114192000Y-105206800D02*
X113941200Y-104956000D01*
X144362200Y-94753400D02*
X144068800Y-95046800D01*
X97739200Y-108394800D02*
X98488800Y-108394800D01*
X140166200Y-95545800D02*
X140166200Y-102200600D01*
X79145100Y-90525600D02*
X79603600Y-90525600D01*
X139550800Y-102816000D02*
X128876400Y-102816000D01*
X128876400Y-102816000D02*
X124917200Y-98856800D01*
X79603600Y-90525600D02*
X80518000Y-91440000D01*
X140166200Y-102200600D02*
X139550800Y-102816000D01*
X79752800Y-106680000D02*
X81467600Y-108394800D01*
X80518000Y-93976800D02*
X79752800Y-94742000D01*
X84101600Y-108394800D02*
X97739200Y-108394800D01*
X144362200Y-93697200D02*
X143815999Y-93150999D01*
X114703200Y-98856800D02*
X113941200Y-99618800D01*
X143815999Y-93150999D02*
X143815999Y-90643401D01*
X80518000Y-91795600D02*
X80518000Y-93976800D01*
X113690400Y-105206800D02*
X113941200Y-104956000D01*
X113941200Y-104956000D02*
X113941200Y-99618800D01*
X79752800Y-94742000D02*
X79752800Y-106680000D01*
X140665200Y-95046800D02*
X140166200Y-95545800D01*
X124917200Y-98856800D02*
X114703200Y-98856800D01*
X98488800Y-108394800D02*
X98501200Y-108407200D01*
X81467600Y-108394800D02*
X84101600Y-108394800D01*
X115871600Y-105206800D02*
X114192000Y-105206800D01*
X113131600Y-105206800D02*
X113690400Y-105206800D01*
X143815999Y-90643401D02*
X144362200Y-90097200D01*
%TO.N,ESP_PROG*%
X68901600Y-99551200D02*
X68901600Y-100394800D01*
X72945600Y-99364800D02*
X69088000Y-99364800D01*
X119967137Y-101396800D02*
X126082400Y-101396800D01*
X67154400Y-104950000D02*
X67154400Y-103839600D01*
X67465200Y-105260800D02*
X67154400Y-104950000D01*
X115871600Y-107746800D02*
X116947800Y-106670600D01*
X119808537Y-101238200D02*
X119967137Y-101396800D01*
X126082400Y-101396800D02*
X128063600Y-103378000D01*
X71199770Y-105112000D02*
X70781286Y-105112000D01*
X67154400Y-103839600D02*
X67463600Y-103530400D01*
X116941600Y-103886000D02*
X116941600Y-103118777D01*
X70632486Y-105260800D02*
X67465200Y-105260800D01*
X74777600Y-90526900D02*
X74777600Y-91592400D01*
X70608800Y-101799600D02*
X70206000Y-101396800D01*
X128063600Y-103378000D02*
X143916400Y-103378000D01*
X74777600Y-91592400D02*
X74523600Y-91846400D01*
X116947800Y-106670600D02*
X116947800Y-103892200D01*
X74523600Y-97786800D02*
X72945600Y-99364800D01*
X116947800Y-103112577D02*
X116947800Y-102110255D01*
X70206000Y-101396800D02*
X69088000Y-101396800D01*
X116941600Y-103118777D02*
X116947800Y-103112577D01*
X143815999Y-97044201D02*
X144362200Y-96498000D01*
X116947800Y-103892200D02*
X116941600Y-103886000D01*
X74776300Y-90525600D02*
X74777600Y-90526900D01*
X71996582Y-105321383D02*
X71409153Y-105321383D01*
X70781286Y-105112000D02*
X70632486Y-105260800D01*
X74523600Y-91846400D02*
X74523600Y-97786800D01*
X143916400Y-103378000D02*
X144362200Y-102932200D01*
X68901600Y-101210400D02*
X68901600Y-100394800D01*
X116947800Y-102110255D02*
X117819855Y-101238200D01*
X71409153Y-105321383D02*
X71199770Y-105112000D01*
X69088000Y-99364800D02*
X68901600Y-99551200D01*
X144362200Y-100098000D02*
X143815999Y-99551799D01*
X117819855Y-101238200D02*
X119808537Y-101238200D01*
X143815999Y-99551799D02*
X143815999Y-97044201D01*
X70100800Y-103530400D02*
X70608800Y-103022400D01*
X144362200Y-102932200D02*
X144362200Y-100098000D01*
X70608800Y-103022400D02*
X70608800Y-101799600D01*
X69088000Y-101396800D02*
X68901600Y-101210400D01*
X67463600Y-103530400D02*
X70100800Y-103530400D01*
%TO.N,/ESP8266/GPIO_2*%
X70966300Y-91187900D02*
X71269200Y-91490800D01*
X71269200Y-91490800D02*
X71980400Y-91490800D01*
X71980400Y-91490800D02*
X72542400Y-92052800D01*
X72542400Y-92052800D02*
X72542400Y-97482000D01*
X71629600Y-98394800D02*
X68901600Y-98394800D01*
X72542400Y-97482000D02*
X71629600Y-98394800D01*
X70966300Y-90525600D02*
X70966300Y-91187900D01*
%TO.N,/Sound & Video/PAM_SD*%
X92557600Y-93478668D02*
X93903800Y-94824868D01*
X90573200Y-90984700D02*
X92051500Y-90984700D01*
X94767400Y-101879400D02*
X96144600Y-101879400D01*
X92051500Y-90984700D02*
X92557600Y-91490800D01*
X92557600Y-91490800D02*
X92557600Y-93478668D01*
X93903800Y-94824868D02*
X93903800Y-101015800D01*
X93903800Y-101015800D02*
X94767400Y-101879400D01*
D50*
%TO.N,/Sound & Video/PAM_IN+*%
X99361600Y-98094400D02*
X99361600Y-96339900D01*
X98116600Y-99339400D02*
X96144600Y-99339400D01*
X99361600Y-98094400D02*
X98116600Y-99339400D01*
%TO.N,AUDIO_INP*%
X106473600Y-116636800D02*
X119681600Y-116636800D01*
X99796245Y-95452800D02*
X100428400Y-96084955D01*
X100428400Y-110490000D02*
X100936400Y-110998000D01*
X100428400Y-96084955D02*
X100428400Y-110490000D01*
X100936400Y-110998000D02*
X105254400Y-110998000D01*
X105254400Y-110998000D02*
X105994200Y-111737800D01*
X119681600Y-116636800D02*
X120951600Y-115366800D01*
X95659600Y-95452800D02*
X99796245Y-95452800D01*
X95027600Y-96084800D02*
X95659600Y-95452800D01*
X105994200Y-111737800D02*
X105994200Y-116157400D01*
X105994200Y-116157400D02*
X106473600Y-116636800D01*
D51*
%TO.N,JOY_LEFT*%
X87728400Y-99009846D02*
X87728400Y-95680441D01*
X112268000Y-101803200D02*
X112268000Y-108407200D01*
X111861600Y-101396800D02*
X112268000Y-101803200D01*
X107112850Y-101396800D02*
X111861600Y-101396800D01*
X87728400Y-95680441D02*
X87247159Y-95199200D01*
X130638600Y-108734400D02*
X130638600Y-107067400D01*
X117602000Y-107746800D02*
X118411600Y-107746800D01*
X84101600Y-95578000D02*
X84101600Y-96394800D01*
X130638600Y-107067400D02*
X130048000Y-106476800D01*
X106326600Y-100610550D02*
X107112850Y-101396800D01*
X112826800Y-108966000D02*
X116382800Y-108966000D01*
X122986800Y-106476800D02*
X121716800Y-107746800D01*
X116382800Y-108966000D02*
X117602000Y-107746800D01*
X112268000Y-108407200D02*
X112826800Y-108966000D01*
X130048000Y-106476800D02*
X122986800Y-106476800D01*
X84480400Y-95199200D02*
X84101600Y-95578000D01*
X121716800Y-107746800D02*
X118411600Y-107746800D01*
X87247159Y-95199200D02*
X84480400Y-95199200D01*
X87728400Y-99009846D02*
X87972804Y-99254250D01*
X87972804Y-99254250D02*
X87972804Y-99261315D01*
%TO.N,JOY_PUSH*%
X132130800Y-106680000D02*
X132130800Y-109778800D01*
X118411600Y-102666800D02*
X120240400Y-102666800D01*
X120240400Y-102666800D02*
X121704200Y-104130600D01*
X121704200Y-104130600D02*
X129581400Y-104130600D01*
X132130800Y-109778800D02*
X131775200Y-110134400D01*
X131775200Y-110134400D02*
X130638600Y-110134400D01*
X129581400Y-104130600D02*
X132130800Y-106680000D01*
%TO.N,JOY_DOWN*%
X119681600Y-109016800D02*
X118411600Y-110286800D01*
X125422000Y-109016800D02*
X119681600Y-109016800D01*
X130638600Y-111534400D02*
X127939600Y-111534400D01*
X127939600Y-111534400D02*
X125422000Y-109016800D01*
%TO.N,JOY_UP*%
X126336400Y-115814399D02*
X138541201Y-115814399D01*
X138655600Y-108734400D02*
X137788600Y-108734400D01*
X118411600Y-112826800D02*
X118414800Y-112826800D01*
X138988800Y-109067600D02*
X138655600Y-108734400D01*
X119491000Y-113903000D02*
X124425001Y-113903000D01*
X138988800Y-115366800D02*
X138988800Y-109067600D01*
X124425001Y-113903000D02*
X126336400Y-115814399D01*
X118414800Y-112826800D02*
X119491000Y-113903000D01*
X138541201Y-115814399D02*
X138988800Y-115366800D01*
%TO.N,JOY_RIGHT*%
X117300200Y-104095400D02*
X117300200Y-102256223D01*
X137788600Y-111534400D02*
X135867600Y-111534400D01*
X129727368Y-103778200D02*
X121850168Y-103778200D01*
X132486400Y-108153200D02*
X132486400Y-106537232D01*
X135867600Y-111534400D02*
X132486400Y-108153200D01*
X117965823Y-101590600D02*
X117300200Y-102256223D01*
X132486400Y-106537232D02*
X129727368Y-103778200D01*
X119662568Y-101590600D02*
X117965823Y-101590600D01*
X121850168Y-103778200D02*
X119662568Y-101590600D01*
X117300200Y-104095400D02*
X118411600Y-105206800D01*
%TO.N,TEENSY_RESET*%
X144362200Y-87398000D02*
X143815999Y-86851799D01*
X144362200Y-88124000D02*
X144362200Y-87398000D01*
X143815999Y-86851799D02*
X143815999Y-84344201D01*
X143789400Y-88696800D02*
X144362200Y-88124000D01*
X124460000Y-88696800D02*
X143789400Y-88696800D01*
X143815999Y-84344201D02*
X144362200Y-83798000D01*
%TO.N,RX*%
X106422800Y-87779200D02*
X79644768Y-87779200D01*
X78536800Y-101850800D02*
X71992800Y-108394800D01*
X79644768Y-87779200D02*
X77873200Y-89550768D01*
X109677200Y-86312400D02*
X109677200Y-88042832D01*
X77873200Y-89550768D02*
X77873200Y-91081200D01*
X78536800Y-91744800D02*
X78536800Y-101850800D01*
X77873200Y-91081200D02*
X78536800Y-91744800D01*
X108251600Y-84886800D02*
X109677200Y-86312400D01*
X109023232Y-88696800D02*
X107340400Y-88696800D01*
X107340400Y-88696800D02*
X106422800Y-87779200D01*
X71992800Y-108394800D02*
X68901600Y-108394800D01*
X109677200Y-88042832D02*
X109023232Y-88696800D01*
%TO.N,TX*%
X68901600Y-106394800D02*
X72367200Y-106394800D01*
X77520800Y-91084400D02*
X77520800Y-89404800D01*
X76552400Y-102209600D02*
X76552400Y-92052800D01*
X76552400Y-92052800D02*
X77520800Y-91084400D01*
X77520800Y-89404800D02*
X79498800Y-87426800D01*
X72367200Y-106394800D02*
X76552400Y-102209600D01*
X79498800Y-87426800D02*
X108251600Y-87426800D01*
%TO.N,TFT_CS*%
X105384000Y-105892000D02*
X104342300Y-105892000D01*
X106324400Y-110286800D02*
X105867200Y-109829600D01*
X105867200Y-106375200D02*
X105384000Y-105892000D01*
X108251600Y-110286800D02*
X106324400Y-110286800D01*
X105867200Y-109829600D02*
X105867200Y-106375200D01*
%TO.N,TFT_DC*%
X111607600Y-96266000D02*
X118612777Y-96266000D01*
X118612777Y-96266000D02*
X119933577Y-97586800D01*
X119933577Y-97586800D02*
X123491600Y-97586800D01*
X110998000Y-96875600D02*
X111607600Y-96266000D01*
X110998000Y-100888800D02*
X110998000Y-96875600D01*
%TO.N,TFT_RESET*%
X105468500Y-99685800D02*
X104342300Y-100812000D01*
X113777377Y-91430600D02*
X111380377Y-93827600D01*
X106934000Y-94437200D02*
X103225600Y-94437200D01*
X102870000Y-96570800D02*
X103225600Y-96926400D01*
X111380377Y-93827600D02*
X107543600Y-93827600D01*
X123491600Y-95046800D02*
X122275600Y-93830800D01*
X105468500Y-97289700D02*
X105468500Y-99685800D01*
X122275600Y-93830800D02*
X122275600Y-92049600D01*
X103225600Y-94437200D02*
X102870000Y-94792800D01*
X122275600Y-92049600D02*
X121656600Y-91430600D01*
X107543600Y-93827600D02*
X106934000Y-94437200D01*
X102870000Y-94792800D02*
X102870000Y-96570800D01*
X103225600Y-96926400D02*
X105105200Y-96926400D01*
X121656600Y-91430600D02*
X113777377Y-91430600D01*
X105105200Y-96926400D02*
X105468500Y-97289700D01*
%TO.N,FLASH_CS*%
X126410700Y-92885900D02*
X128794800Y-92885900D01*
X128893200Y-95046800D02*
X128794800Y-94948400D01*
X128794800Y-94948400D02*
X128794800Y-92885900D01*
X123491600Y-89966800D02*
X126410700Y-92885900D01*
%TO.N,Net-(U4-IO2)*%
X130302000Y-97586800D02*
X131673600Y-98958400D01*
X128893200Y-97586800D02*
X130302000Y-97586800D01*
X131673600Y-98958400D02*
X131673600Y-100914200D01*
%TO.N,Net-(U4-IO3)*%
X137615300Y-96316800D02*
X138785600Y-95146500D01*
X136093200Y-96316800D02*
X137615300Y-96316800D01*
%TO.N,/ESP8266/GPIO15*%
X70276800Y-96394800D02*
X68901600Y-96394800D01*
X70561200Y-96110400D02*
X70276800Y-96394800D01*
X69032100Y-90474800D02*
X70561200Y-92003900D01*
X70561200Y-92003900D02*
X70561200Y-96110400D01*
%TO.N,/ESP8266/PH1_ADC*%
X84101600Y-106394800D02*
X81753600Y-106394800D01*
X81753600Y-106394800D02*
X81124400Y-105765600D01*
X81124400Y-95148400D02*
X81124400Y-94796000D01*
X81124400Y-94796000D02*
X81127600Y-94792800D01*
X81124400Y-105765600D02*
X81124400Y-95148400D01*
D50*
%TO.N,/Sound & Video/PAM_IN-*%
X96170000Y-98094800D02*
X96144600Y-98069400D01*
X97485200Y-98094800D02*
X96170000Y-98094800D01*
X97710600Y-96339900D02*
X97710600Y-97869400D01*
X97710600Y-97869400D02*
X97485200Y-98094800D01*
D51*
%TO.N,/ESP8266/PH11_GPIO16*%
X82492102Y-99470298D02*
X82140400Y-99822000D01*
X82630400Y-102394800D02*
X84101600Y-102394800D01*
X82492102Y-99470298D02*
X85237400Y-99470298D01*
X85237400Y-99470298D02*
X85242400Y-99465298D01*
X82140400Y-99822000D02*
X82140400Y-101904800D01*
X82140400Y-101904800D02*
X82630400Y-102394800D01*
%TO.N,/ESP8266/PH8_GPIO5*%
X75590400Y-95250000D02*
X75587200Y-95253200D01*
X75587200Y-100431600D02*
X71624000Y-104394800D01*
X71624000Y-104394800D02*
X68901600Y-104394800D01*
X75587200Y-95253200D02*
X75587200Y-100431600D01*
D50*
%TO.N,/Sound & Video/AUDIO_INP_CAP*%
X98726600Y-89585400D02*
X94535600Y-89585400D01*
X99361600Y-91008900D02*
X99361600Y-90220400D01*
X94535600Y-89585400D02*
X94027600Y-90093400D01*
X99361600Y-90220400D02*
X98726600Y-89585400D01*
X94027600Y-90093400D02*
X94027600Y-92834800D01*
%TO.N,/Sound & Video/AUDIO_INP_CR*%
X99361600Y-92733900D02*
X99361600Y-94514900D01*
%TO.N,/Sound & Video/AUDIO_INN_CR*%
X97710600Y-92733900D02*
X97710600Y-94514900D01*
D53*
%TO.N,/Sound & Video/PAM_SPK-*%
X87677600Y-102562000D02*
X87677600Y-101247600D01*
D50*
X86815100Y-98354300D02*
X86820600Y-98348800D01*
X86815100Y-100253800D02*
X86815100Y-98354300D01*
X86815100Y-100385100D02*
X87677600Y-101247600D01*
X86815100Y-100253800D02*
X86815100Y-100385100D01*
X87680800Y-105186600D02*
X87680800Y-102565200D01*
D53*
X87680800Y-102565200D02*
X87677600Y-102562000D01*
D50*
X87311600Y-105555800D02*
X87680800Y-105186600D01*
%TO.N,/Sound & Video/PAM_SPK+*%
X86446200Y-107645200D02*
X85798000Y-106997000D01*
X85798000Y-106997000D02*
X85798000Y-103886000D01*
X88729955Y-107645200D02*
X86446200Y-107645200D01*
X90819355Y-105555800D02*
X88729955Y-107645200D01*
X86820600Y-96316800D02*
X86106000Y-96316800D01*
X85798000Y-103886000D02*
X86815100Y-102868900D01*
X98711600Y-105555800D02*
X90819355Y-105555800D01*
X86106000Y-96316800D02*
X85868200Y-96554600D01*
X85868200Y-101670200D02*
X86102800Y-101904800D01*
X86815100Y-102868900D02*
X86815100Y-101904800D01*
X85868200Y-96554600D02*
X85868200Y-101670200D01*
X86102800Y-101904800D02*
X86815100Y-101904800D01*
%TD*%
M02*
