%TF.GenerationSoftware,KiCad,Pcbnew,7.0.1*%
%TF.CreationDate,2023-04-16T22:16:48+10:00*%
%TF.ProjectId,XCopy Standalone,58436f70-7920-4537-9461-6e64616c6f6e,rev?*%
%TF.SameCoordinates,Original*%
%TF.FileFunction,Legend,Bot*%
%TF.FilePolarity,Positive*%
%FSLAX46Y46*%
G04 Gerber Fmt 4.6, Leading zero omitted, Abs format (unit mm)*
G04 Created by KiCad (PCBNEW 7.0.1) date 2023-04-16 22:16:48*
%MOMM*%
%LPD*%
G01*
G04 APERTURE LIST*
G04 Aperture macros list*
%AMRoundRect*
0 Rectangle with rounded corners*
0 $1 Rounding radius*
0 $2 $3 $4 $5 $6 $7 $8 $9 X,Y pos of 4 corners*
0 Add a 4 corners polygon primitive as box body*
4,1,4,$2,$3,$4,$5,$6,$7,$8,$9,$2,$3,0*
0 Add four circle primitives for the rounded corners*
1,1,$1+$1,$2,$3*
1,1,$1+$1,$4,$5*
1,1,$1+$1,$6,$7*
1,1,$1+$1,$8,$9*
0 Add four rect primitives between the rounded corners*
20,1,$1+$1,$2,$3,$4,$5,0*
20,1,$1+$1,$4,$5,$6,$7,0*
20,1,$1+$1,$6,$7,$8,$9,0*
20,1,$1+$1,$8,$9,$2,$3,0*%
G04 Aperture macros list end*
%ADD10C,0.800000*%
%ADD11C,2.400000*%
%ADD12O,1.700000X1.700000*%
%ADD13R,1.700000X1.700000*%
%ADD14RoundRect,0.425000X0.425000X-0.425000X0.425000X0.425000X-0.425000X0.425000X-0.425000X-0.425000X0*%
%ADD15C,1.700000*%
%ADD16R,1.600000X1.600000*%
%ADD17C,1.600000*%
%ADD18C,3.500000*%
%ADD19C,2.200000*%
%ADD20C,0.750000*%
%ADD21C,1.050000*%
%ADD22C,1.400000*%
%ADD23C,1.200000*%
G04 APERTURE END LIST*
%TO.C,kibuzzard-63E652DF*%
G36*
X71631344Y-94761237D02*
G01*
X70723454Y-94761237D01*
X70723454Y-94527724D01*
X71340664Y-94527724D01*
X71340664Y-93350471D01*
X71631344Y-93350471D01*
X71631344Y-94761237D01*
G37*
G36*
X78307293Y-93585921D02*
G01*
X77880963Y-93585921D01*
X77880963Y-94761237D01*
X77590283Y-94761237D01*
X77590283Y-93585921D01*
X77158138Y-93585921D01*
X77158138Y-93350471D01*
X78307293Y-93350471D01*
X78307293Y-93585921D01*
G37*
G36*
X80674397Y-93986091D02*
G01*
X80966046Y-93350471D01*
X81284825Y-93350471D01*
X80821674Y-94249641D01*
X80821674Y-94761237D01*
X80526150Y-94761237D01*
X80526150Y-94249641D01*
X80063000Y-93350471D01*
X80380810Y-93350471D01*
X80674397Y-93986091D01*
G37*
G36*
X74799755Y-94280646D02*
G01*
X75366581Y-93350471D01*
X75657261Y-93350471D01*
X75657261Y-94761237D01*
X75366581Y-94761237D01*
X75366581Y-93832999D01*
X74800724Y-94761237D01*
X74510044Y-94761237D01*
X74510044Y-93350471D01*
X74799755Y-93350471D01*
X74799755Y-94280646D01*
G37*
G36*
X68329220Y-94280646D02*
G01*
X68896046Y-93350471D01*
X69186726Y-93350471D01*
X69186726Y-94761237D01*
X68896046Y-94761237D01*
X68896046Y-93832999D01*
X68330189Y-94761237D01*
X68039509Y-94761237D01*
X68039509Y-93350471D01*
X68329220Y-93350471D01*
X68329220Y-94280646D01*
G37*
G36*
X85864971Y-93836875D02*
G01*
X86129490Y-93350471D01*
X86463772Y-93350471D01*
X86052944Y-94050040D01*
X86474430Y-94761237D01*
X86136273Y-94761237D01*
X85864971Y-94267081D01*
X85593670Y-94761237D01*
X85255512Y-94761237D01*
X85676998Y-94050040D01*
X85266171Y-93350471D01*
X85600453Y-93350471D01*
X85864971Y-93836875D01*
G37*
G36*
X67785648Y-94761237D02*
G01*
X66839970Y-94761237D01*
X66839970Y-94527724D01*
X67494969Y-94527724D01*
X67494969Y-94149841D01*
X66936863Y-94149841D01*
X66936863Y-93922141D01*
X67494969Y-93922141D01*
X67494969Y-93585921D01*
X66841908Y-93585921D01*
X66841908Y-93350471D01*
X67785648Y-93350471D01*
X67785648Y-94761237D01*
G37*
G36*
X76195988Y-94470557D02*
G01*
X76098126Y-94761237D01*
X75789036Y-94761237D01*
X75985973Y-94235107D01*
X76274471Y-94235107D01*
X76627163Y-94235107D01*
X76451786Y-93707038D01*
X76274471Y-94235107D01*
X75985973Y-94235107D01*
X76317104Y-93350471D01*
X76586468Y-93350471D01*
X77111630Y-94761237D01*
X76802540Y-94761237D01*
X76705647Y-94470557D01*
X76627163Y-94470557D01*
X76195988Y-94470557D01*
G37*
G36*
X72170071Y-94470557D02*
G01*
X72072209Y-94761237D01*
X71763119Y-94761237D01*
X71960056Y-94235107D01*
X72248554Y-94235107D01*
X72601246Y-94235107D01*
X72425869Y-93707038D01*
X72248554Y-94235107D01*
X71960056Y-94235107D01*
X72291187Y-93350471D01*
X72560551Y-93350471D01*
X73085713Y-94761237D01*
X72776623Y-94761237D01*
X72679730Y-94470557D01*
X72601246Y-94470557D01*
X72170071Y-94470557D01*
G37*
G36*
X81895252Y-94264175D02*
G01*
X81740062Y-94250879D01*
X81609094Y-94210991D01*
X81502350Y-94144511D01*
X81423490Y-94054993D01*
X81376173Y-93945988D01*
X81360639Y-93819434D01*
X81653988Y-93819434D01*
X81669128Y-93908576D01*
X81714546Y-93974464D01*
X81788791Y-94015159D01*
X81890408Y-94028724D01*
X82150082Y-94028724D01*
X82150082Y-93585921D01*
X81883625Y-93585921D01*
X81787701Y-93603362D01*
X81715031Y-93651809D01*
X81669249Y-93725690D01*
X81653988Y-93819434D01*
X81360639Y-93819434D01*
X81360401Y-93817496D01*
X81376631Y-93688265D01*
X81425320Y-93573810D01*
X81504167Y-93478975D01*
X81610871Y-93408607D01*
X81741071Y-93365005D01*
X81890408Y-93350471D01*
X82440762Y-93350471D01*
X82440762Y-94761237D01*
X82150082Y-94761237D01*
X82150082Y-94264175D01*
X81895252Y-94264175D01*
G37*
G36*
X73819195Y-94761237D02*
G01*
X73700016Y-94751333D01*
X73589235Y-94722911D01*
X73486851Y-94675971D01*
X73396040Y-94612129D01*
X73319979Y-94533000D01*
X73258667Y-94438583D01*
X73213719Y-94331677D01*
X73186751Y-94215082D01*
X73178382Y-94097518D01*
X73472317Y-94097518D01*
X73483406Y-94225094D01*
X73514089Y-94331354D01*
X73564366Y-94416297D01*
X73674582Y-94499868D01*
X73825009Y-94527724D01*
X73965504Y-94527724D01*
X73965504Y-93585921D01*
X73822102Y-93585921D01*
X73671190Y-93613657D01*
X73561459Y-93696864D01*
X73511935Y-93782400D01*
X73482222Y-93891082D01*
X73472317Y-94022910D01*
X73472317Y-94097518D01*
X73178382Y-94097518D01*
X73177761Y-94088798D01*
X73177761Y-94023879D01*
X73186912Y-93897433D01*
X73214365Y-93780354D01*
X73260121Y-93672641D01*
X73322186Y-93577470D01*
X73398570Y-93498018D01*
X73489273Y-93434283D01*
X73591496Y-93387721D01*
X73702438Y-93359783D01*
X73822102Y-93350471D01*
X74256184Y-93350471D01*
X74256184Y-94761237D01*
X73965504Y-94761237D01*
X73819195Y-94761237D01*
G37*
G36*
X84678405Y-93340297D02*
G01*
X84781596Y-93367911D01*
X84875206Y-93413936D01*
X84993053Y-93514826D01*
X85080135Y-93651809D01*
X85119969Y-93760545D01*
X85143870Y-93880046D01*
X85151837Y-94010314D01*
X85151837Y-94096549D01*
X85142117Y-94247430D01*
X85112958Y-94381294D01*
X85064360Y-94498142D01*
X84996323Y-94597972D01*
X84911329Y-94677879D01*
X84811862Y-94734955D01*
X84697922Y-94769201D01*
X84569508Y-94780616D01*
X84414855Y-94766082D01*
X84281627Y-94722480D01*
X84169823Y-94649810D01*
X84083749Y-94551840D01*
X84027713Y-94432338D01*
X84001713Y-94291305D01*
X84292393Y-94291305D01*
X84316253Y-94403338D01*
X84368454Y-94481700D01*
X84451903Y-94527846D01*
X84569508Y-94543227D01*
X84698739Y-94516824D01*
X84788002Y-94437614D01*
X84826490Y-94353532D01*
X84849583Y-94242104D01*
X84857281Y-94103332D01*
X84857281Y-93996749D01*
X84848184Y-93863521D01*
X84823476Y-93755808D01*
X84783157Y-93673610D01*
X84692683Y-93595490D01*
X84565632Y-93569450D01*
X84448997Y-93584831D01*
X84366516Y-93630977D01*
X84314799Y-93711277D01*
X84290455Y-93829124D01*
X83999775Y-93829124D01*
X84029274Y-93683245D01*
X84086764Y-93560837D01*
X84172245Y-93461898D01*
X84282273Y-93389228D01*
X84413402Y-93345626D01*
X84565632Y-93331092D01*
X84678405Y-93340297D01*
G37*
G36*
X79077958Y-93343688D02*
G01*
X79205979Y-93381477D01*
X79312561Y-93441672D01*
X79391045Y-93521487D01*
X79439370Y-93617291D01*
X79455479Y-93725448D01*
X79428779Y-93862067D01*
X79348681Y-93978662D01*
X79215183Y-94075233D01*
X79111265Y-94123074D01*
X78975857Y-94171642D01*
X78847958Y-94219361D01*
X78766567Y-94264659D01*
X78708431Y-94391105D01*
X78766567Y-94508830D01*
X78836088Y-94540442D01*
X78928379Y-94550979D01*
X79050465Y-94536384D01*
X79137669Y-94492601D01*
X79189991Y-94419628D01*
X79207432Y-94317466D01*
X79499081Y-94317466D01*
X79481519Y-94445850D01*
X79428833Y-94557761D01*
X79342719Y-94650416D01*
X79224873Y-94721027D01*
X79083893Y-94765719D01*
X78928379Y-94780616D01*
X78782716Y-94769043D01*
X78658370Y-94734322D01*
X78555340Y-94676456D01*
X78478364Y-94598241D01*
X78432178Y-94502478D01*
X78416783Y-94389167D01*
X78445124Y-94238013D01*
X78530148Y-94113990D01*
X78620689Y-94044334D01*
X78741160Y-93982646D01*
X78891560Y-93928924D01*
X79009891Y-93886775D01*
X79095520Y-93841720D01*
X79164799Y-93726417D01*
X79105694Y-93607722D01*
X79034720Y-93573931D01*
X78940006Y-93562667D01*
X78841902Y-93576111D01*
X78768505Y-93616443D01*
X78722723Y-93680998D01*
X78707462Y-93767112D01*
X78416783Y-93767112D01*
X78433133Y-93646964D01*
X78482186Y-93540382D01*
X78560790Y-93451845D01*
X78665798Y-93385837D01*
X78792244Y-93344778D01*
X78935162Y-93331092D01*
X79077958Y-93343688D01*
G37*
G36*
X83137048Y-94771142D02*
G01*
X83032242Y-94742720D01*
X82936371Y-94695350D01*
X82852020Y-94630539D01*
X82781772Y-94549795D01*
X82725628Y-94453117D01*
X82684718Y-94342766D01*
X82660171Y-94221003D01*
X82652287Y-94092673D01*
X82946545Y-94092673D01*
X82955803Y-94227624D01*
X82982288Y-94339213D01*
X83025997Y-94427440D01*
X83121437Y-94513554D01*
X83250790Y-94542258D01*
X83382565Y-94512464D01*
X83479458Y-94423080D01*
X83523598Y-94332861D01*
X83550082Y-94221111D01*
X83558911Y-94087829D01*
X83558911Y-94019035D01*
X83549544Y-93884191D01*
X83522737Y-93772926D01*
X83478489Y-93685237D01*
X83382322Y-93599850D01*
X83252728Y-93571387D01*
X83122406Y-93600213D01*
X83025997Y-93686690D01*
X82981857Y-93775402D01*
X82955373Y-93887798D01*
X82946545Y-94023879D01*
X82946545Y-94092673D01*
X82652287Y-94092673D01*
X82651989Y-94087829D01*
X82651989Y-94024848D01*
X82660333Y-93892050D01*
X82685363Y-93770126D01*
X82727081Y-93659076D01*
X82784033Y-93561644D01*
X82854765Y-93480577D01*
X82939278Y-93415874D01*
X83035041Y-93368773D01*
X83139524Y-93340512D01*
X83252728Y-93331092D01*
X83365931Y-93340512D01*
X83470415Y-93368773D01*
X83566178Y-93415874D01*
X83650690Y-93480577D01*
X83721422Y-93561644D01*
X83778374Y-93659076D01*
X83820092Y-93770234D01*
X83845123Y-93892481D01*
X83853466Y-94025817D01*
X83853466Y-94095580D01*
X83844530Y-94226009D01*
X83819015Y-94345996D01*
X83776920Y-94455539D01*
X83719646Y-94551840D01*
X83648591Y-94632100D01*
X83563755Y-94696319D01*
X83467831Y-94743151D01*
X83363509Y-94771250D01*
X83250790Y-94780616D01*
X83137048Y-94771142D01*
G37*
G36*
X69883012Y-94771142D02*
G01*
X69778206Y-94742720D01*
X69682335Y-94695350D01*
X69597984Y-94630539D01*
X69527736Y-94549795D01*
X69471592Y-94453117D01*
X69430682Y-94342766D01*
X69406135Y-94221003D01*
X69398251Y-94092673D01*
X69692509Y-94092673D01*
X69701768Y-94227624D01*
X69728252Y-94339213D01*
X69771961Y-94427440D01*
X69867401Y-94513554D01*
X69996754Y-94542258D01*
X70128529Y-94512464D01*
X70225422Y-94423080D01*
X70269562Y-94332861D01*
X70296047Y-94221111D01*
X70304875Y-94087829D01*
X70304875Y-94019035D01*
X70295508Y-93884191D01*
X70268701Y-93772926D01*
X70224453Y-93685237D01*
X70128287Y-93599850D01*
X69998692Y-93571387D01*
X69868370Y-93600213D01*
X69771961Y-93686690D01*
X69727821Y-93775402D01*
X69701337Y-93887798D01*
X69692509Y-94023879D01*
X69692509Y-94092673D01*
X69398251Y-94092673D01*
X69397953Y-94087829D01*
X69397953Y-94024848D01*
X69406297Y-93892050D01*
X69431328Y-93770126D01*
X69473045Y-93659076D01*
X69529997Y-93561644D01*
X69600729Y-93480577D01*
X69685242Y-93415874D01*
X69781005Y-93368773D01*
X69885488Y-93340512D01*
X69998692Y-93331092D01*
X70111895Y-93340512D01*
X70216379Y-93368773D01*
X70312142Y-93415874D01*
X70396654Y-93480577D01*
X70467386Y-93561644D01*
X70524338Y-93659076D01*
X70566056Y-93770234D01*
X70591087Y-93892481D01*
X70599430Y-94025817D01*
X70599430Y-94095580D01*
X70590495Y-94226009D01*
X70564979Y-94345996D01*
X70522885Y-94455539D01*
X70465610Y-94551840D01*
X70394555Y-94632100D01*
X70309719Y-94696319D01*
X70213795Y-94743151D01*
X70109473Y-94771250D01*
X69996754Y-94780616D01*
X69883012Y-94771142D01*
G37*
%TO.C,#G1*%
G36*
X88822512Y-94212855D02*
G01*
X90117912Y-95508031D01*
X90117912Y-92917849D01*
X90593987Y-92917849D01*
X90593987Y-96362391D01*
X87177449Y-96362391D01*
X87177449Y-95858312D01*
X89767631Y-95858312D01*
X87177281Y-93267512D01*
X87352196Y-93092596D01*
X87527112Y-92917681D01*
X88822512Y-94212855D01*
G37*
G36*
X94178551Y-96978488D02*
G01*
X91240538Y-96978488D01*
X92367121Y-98105665D01*
X92469889Y-98208520D01*
X92689941Y-98428961D01*
X92905763Y-98645428D01*
X93112298Y-98852833D01*
X93304490Y-99046089D01*
X93477281Y-99220110D01*
X93625616Y-99369810D01*
X93744438Y-99490101D01*
X93828689Y-99575897D01*
X94163674Y-99918951D01*
X90734009Y-99918951D01*
X90734009Y-96502413D01*
X94178551Y-96502413D01*
X94178551Y-96978488D01*
G37*
G36*
X94178551Y-95841919D02*
G01*
X94178551Y-96362391D01*
X90734009Y-96362391D01*
X90734009Y-93428929D01*
X91266346Y-93428929D01*
X91266408Y-93429058D01*
X91287785Y-93451618D01*
X91345214Y-93510131D01*
X91435288Y-93601175D01*
X91554601Y-93721327D01*
X91699747Y-93867166D01*
X91867320Y-94035267D01*
X92053913Y-94222209D01*
X92256120Y-94424569D01*
X92470535Y-94638924D01*
X93674472Y-95841919D01*
X93674472Y-93421928D01*
X92470282Y-93421928D01*
X92311415Y-93421989D01*
X92068401Y-93422331D01*
X91847099Y-93422945D01*
X91653227Y-93423798D01*
X91492499Y-93424856D01*
X91370632Y-93426086D01*
X91293343Y-93427455D01*
X91266346Y-93428929D01*
X90734009Y-93428929D01*
X90734009Y-92917849D01*
X94178551Y-92917849D01*
X94178551Y-95841919D01*
G37*
G36*
X90589299Y-99424383D02*
G01*
X90593987Y-99429072D01*
X90593987Y-99918951D01*
X87177449Y-99918951D01*
X87177449Y-99442876D01*
X87681528Y-99442876D01*
X88787703Y-99442876D01*
X88862694Y-99442834D01*
X89100481Y-99442119D01*
X89318051Y-99440597D01*
X89509441Y-99438369D01*
X89668683Y-99435533D01*
X89789814Y-99432191D01*
X89866867Y-99428441D01*
X89893877Y-99424383D01*
X89884994Y-99413159D01*
X89840941Y-99365806D01*
X89763171Y-99284983D01*
X89655242Y-99174307D01*
X89520711Y-99037396D01*
X89363134Y-98877864D01*
X89186069Y-98699329D01*
X88993073Y-98505407D01*
X88787703Y-98299715D01*
X87681528Y-97193541D01*
X87681528Y-99442876D01*
X87177449Y-99442876D01*
X87177449Y-96502413D01*
X87667726Y-96502413D01*
X89130857Y-97965743D01*
X90589299Y-99424383D01*
G37*
%TO.C,kibuzzard-63E65E35*%
G36*
X75794948Y-97306384D02*
G01*
X75598877Y-97306384D01*
X75697451Y-97012816D01*
X75794948Y-97306384D01*
G37*
G36*
X72222304Y-97162563D02*
G01*
X72245937Y-97200538D01*
X72259202Y-97251980D01*
X72042662Y-97251980D01*
X72042662Y-97239591D01*
X72070672Y-97159600D01*
X72147161Y-97131321D01*
X72222304Y-97162563D01*
G37*
G36*
X71008709Y-97162563D02*
G01*
X71032343Y-97200538D01*
X71045607Y-97251980D01*
X70829067Y-97251980D01*
X70829067Y-97239591D01*
X70857077Y-97159600D01*
X70933566Y-97131321D01*
X71008709Y-97162563D01*
G37*
G36*
X61369437Y-97162563D02*
G01*
X61393070Y-97200538D01*
X61406335Y-97251980D01*
X61189795Y-97251980D01*
X61189795Y-97239591D01*
X61217805Y-97159600D01*
X61294294Y-97131321D01*
X61369437Y-97162563D01*
G37*
G36*
X74452674Y-97342834D02*
G01*
X74494151Y-97369766D01*
X74511328Y-97414655D01*
X74511867Y-97423812D01*
X74491398Y-97471752D01*
X74435377Y-97490605D01*
X74371816Y-97475253D01*
X74328723Y-97434046D01*
X74328723Y-97333856D01*
X74386898Y-97333856D01*
X74452674Y-97342834D01*
G37*
G36*
X65309505Y-97342834D02*
G01*
X65350982Y-97369766D01*
X65368159Y-97414655D01*
X65368698Y-97423812D01*
X65348229Y-97471752D01*
X65292208Y-97490605D01*
X65228647Y-97475253D01*
X65185554Y-97434046D01*
X65185554Y-97333856D01*
X65243729Y-97333856D01*
X65309505Y-97342834D01*
G37*
G36*
X63478609Y-97342834D02*
G01*
X63520086Y-97369766D01*
X63537263Y-97414655D01*
X63537802Y-97423812D01*
X63517333Y-97471752D01*
X63461312Y-97490605D01*
X63397751Y-97475253D01*
X63354658Y-97434046D01*
X63354658Y-97333856D01*
X63412833Y-97333856D01*
X63478609Y-97342834D01*
G37*
G36*
X84174705Y-97145865D02*
G01*
X84213623Y-97187880D01*
X84213623Y-97426505D01*
X84173897Y-97469732D01*
X84111817Y-97484141D01*
X84063035Y-97472728D01*
X84028191Y-97438490D01*
X84007284Y-97381426D01*
X84000315Y-97301536D01*
X84007520Y-97229491D01*
X84029133Y-97176029D01*
X84064483Y-97142902D01*
X84112894Y-97131859D01*
X84174705Y-97145865D01*
G37*
G36*
X81842387Y-97143306D02*
G01*
X81880429Y-97177645D01*
X81904467Y-97234743D01*
X81912479Y-97314464D01*
X81904534Y-97385096D01*
X81880699Y-97438625D01*
X81842993Y-97472358D01*
X81793436Y-97483603D01*
X81732433Y-97470271D01*
X81691630Y-97430276D01*
X81691630Y-97185187D01*
X81732433Y-97145191D01*
X81792359Y-97131859D01*
X81842387Y-97143306D01*
G37*
G36*
X79320730Y-97147076D02*
G01*
X79360321Y-97192728D01*
X79360321Y-97422734D01*
X79320191Y-97468790D01*
X79256899Y-97484141D01*
X79194415Y-97465558D01*
X79157786Y-97409807D01*
X79149302Y-97364963D01*
X79146474Y-97301536D01*
X79153477Y-97225114D01*
X79174484Y-97172528D01*
X79209362Y-97142027D01*
X79257976Y-97131859D01*
X79320730Y-97147076D01*
G37*
G36*
X75071229Y-97143272D02*
G01*
X75106410Y-97177511D01*
X75127518Y-97234575D01*
X75134555Y-97314464D01*
X75127417Y-97386779D01*
X75106006Y-97439971D01*
X75070993Y-97472695D01*
X75023053Y-97483603D01*
X74961511Y-97468386D01*
X74921246Y-97422734D01*
X74921246Y-97192728D01*
X74960972Y-97147076D01*
X75021975Y-97131859D01*
X75071229Y-97143272D01*
G37*
G36*
X67532349Y-97145865D02*
G01*
X67571267Y-97187880D01*
X67571267Y-97426505D01*
X67531542Y-97469732D01*
X67469461Y-97484141D01*
X67420679Y-97472728D01*
X67385835Y-97438490D01*
X67364928Y-97381426D01*
X67357959Y-97301536D01*
X67365164Y-97229491D01*
X67386777Y-97176029D01*
X67422127Y-97142902D01*
X67470539Y-97131859D01*
X67532349Y-97145865D01*
G37*
G36*
X64097164Y-97143272D02*
G01*
X64132345Y-97177511D01*
X64153453Y-97234575D01*
X64160489Y-97314464D01*
X64153352Y-97386779D01*
X64131941Y-97439971D01*
X64096928Y-97472695D01*
X64048987Y-97483603D01*
X63987446Y-97468386D01*
X63947181Y-97422734D01*
X63947181Y-97192728D01*
X63986907Y-97147076D01*
X64047910Y-97131859D01*
X64097164Y-97143272D01*
G37*
G36*
X78847255Y-95546142D02*
G01*
X78881846Y-95578495D01*
X78904635Y-95627126D01*
X78912232Y-95686744D01*
X78904839Y-95745549D01*
X78882660Y-95792823D01*
X78847051Y-95823955D01*
X78799370Y-95834332D01*
X78733987Y-95814798D01*
X78692478Y-95767592D01*
X78692478Y-95703022D01*
X78700074Y-95632212D01*
X78722863Y-95579309D01*
X78758404Y-95546346D01*
X78804254Y-95535358D01*
X78847255Y-95546142D01*
G37*
G36*
X77798754Y-97142431D02*
G01*
X77836460Y-97175760D01*
X77859891Y-97232386D01*
X77867702Y-97313387D01*
X77859891Y-97386577D01*
X77836460Y-97440241D01*
X77798484Y-97473166D01*
X77747042Y-97484141D01*
X77696678Y-97473301D01*
X77658703Y-97440779D01*
X77634867Y-97384422D01*
X77626922Y-97302075D01*
X77634867Y-97229895D01*
X77658703Y-97176029D01*
X77696947Y-97142498D01*
X77748120Y-97131321D01*
X77798754Y-97142431D01*
G37*
G36*
X68150324Y-97142431D02*
G01*
X68188030Y-97175760D01*
X68211462Y-97232386D01*
X68219272Y-97313387D01*
X68211462Y-97386577D01*
X68188030Y-97440241D01*
X68150055Y-97473166D01*
X68098613Y-97484141D01*
X68048249Y-97473301D01*
X68010273Y-97440779D01*
X67986438Y-97384422D01*
X67978492Y-97302075D01*
X67986438Y-97229895D01*
X68010273Y-97176029D01*
X68048518Y-97142498D01*
X68099690Y-97131321D01*
X68150324Y-97142431D01*
G37*
G36*
X62585994Y-97142431D02*
G01*
X62623700Y-97175760D01*
X62647132Y-97232386D01*
X62654942Y-97313387D01*
X62647132Y-97386577D01*
X62623700Y-97440241D01*
X62585725Y-97473166D01*
X62534283Y-97484141D01*
X62483919Y-97473301D01*
X62445943Y-97440779D01*
X62422108Y-97384422D01*
X62414163Y-97302075D01*
X62422108Y-97229895D01*
X62445943Y-97176029D01*
X62484188Y-97142498D01*
X62535360Y-97131321D01*
X62585994Y-97142431D01*
G37*
G36*
X85522012Y-95546549D02*
G01*
X85555586Y-95578495D01*
X85575730Y-95633094D01*
X85583530Y-95711704D01*
X85583530Y-95903785D01*
X85576951Y-95987956D01*
X85557214Y-96047303D01*
X85522962Y-96082505D01*
X85472839Y-96094238D01*
X85423326Y-96082979D01*
X85389821Y-96049202D01*
X85370423Y-95992229D01*
X85363233Y-95911381D01*
X85363233Y-95723641D01*
X85369948Y-95638791D01*
X85390092Y-95580665D01*
X85424479Y-95547092D01*
X85473924Y-95535900D01*
X85522012Y-95546549D01*
G37*
G36*
X83194247Y-95546549D02*
G01*
X83227821Y-95578495D01*
X83247965Y-95633094D01*
X83255765Y-95711704D01*
X83255765Y-95903785D01*
X83249186Y-95987956D01*
X83229449Y-96047303D01*
X83195197Y-96082505D01*
X83145074Y-96094238D01*
X83095561Y-96082979D01*
X83062056Y-96049202D01*
X83042658Y-95992229D01*
X83035468Y-95911381D01*
X83035468Y-95723641D01*
X83042183Y-95638791D01*
X83062327Y-95580665D01*
X83096715Y-95547092D01*
X83146159Y-95535900D01*
X83194247Y-95546549D01*
G37*
G36*
X80443252Y-95546549D02*
G01*
X80476826Y-95578495D01*
X80496970Y-95633094D01*
X80504770Y-95711704D01*
X80504770Y-95903785D01*
X80498191Y-95987956D01*
X80478454Y-96047303D01*
X80444202Y-96082505D01*
X80394079Y-96094238D01*
X80344567Y-96082979D01*
X80311061Y-96049202D01*
X80291663Y-95992229D01*
X80284473Y-95911381D01*
X80284473Y-95723641D01*
X80291188Y-95638791D01*
X80311332Y-95580665D01*
X80345720Y-95547092D01*
X80395164Y-95535900D01*
X80443252Y-95546549D01*
G37*
G36*
X83085675Y-96997734D02*
G01*
X83022383Y-97020896D01*
X82997335Y-97081226D01*
X83022113Y-97140747D01*
X83085675Y-97163640D01*
X83085675Y-97431353D01*
X83281208Y-97431353D01*
X83298310Y-97503466D01*
X83349617Y-97560361D01*
X83399652Y-97587743D01*
X83458545Y-97604172D01*
X83506447Y-97608044D01*
X83526297Y-97609648D01*
X83595447Y-97603117D01*
X83656382Y-97583524D01*
X83707083Y-97552551D01*
X83745530Y-97511882D01*
X83769770Y-97464548D01*
X83777850Y-97413577D01*
X83630257Y-97413577D01*
X83599554Y-97477139D01*
X83523065Y-97499224D01*
X83506447Y-97495053D01*
X83455463Y-97482256D01*
X83432570Y-97437817D01*
X83460850Y-97392839D01*
X83497680Y-97377285D01*
X83506447Y-97375041D01*
X83551613Y-97363482D01*
X83642579Y-97336078D01*
X83681702Y-97312848D01*
X83844643Y-97312848D01*
X83851436Y-97396669D01*
X83871815Y-97468580D01*
X83905781Y-97528581D01*
X83951297Y-97573618D01*
X84006330Y-97600641D01*
X84070879Y-97609648D01*
X84150735Y-97594297D01*
X84213623Y-97548242D01*
X84213623Y-97822957D01*
X84369295Y-97822957D01*
X84369295Y-97595643D01*
X84450094Y-97595643D01*
X84496553Y-97606147D01*
X84544359Y-97609648D01*
X84559096Y-97607528D01*
X84616202Y-97599313D01*
X84622331Y-97595643D01*
X84822845Y-97595643D01*
X84869304Y-97606147D01*
X84917110Y-97609648D01*
X84988953Y-97599313D01*
X84989684Y-97598875D01*
X85232224Y-97598875D01*
X85387896Y-97598875D01*
X85387896Y-97229895D01*
X85409442Y-97155830D01*
X85472839Y-97134618D01*
X85481084Y-97131859D01*
X85540067Y-97145057D01*
X85580197Y-97184648D01*
X85580197Y-97598875D01*
X85735869Y-97598875D01*
X85735869Y-96771498D01*
X85580197Y-96771498D01*
X85580197Y-97079610D01*
X85535369Y-97038313D01*
X85483478Y-97013534D01*
X85472839Y-97012044D01*
X85424525Y-97005275D01*
X85356158Y-97014087D01*
X85302745Y-97040525D01*
X85264285Y-97084587D01*
X85240778Y-97146274D01*
X85232224Y-97225586D01*
X85232224Y-97598875D01*
X84989684Y-97598875D01*
X85040732Y-97568307D01*
X85072445Y-97516629D01*
X85084093Y-97444281D01*
X85084093Y-97130243D01*
X85169201Y-97130243D01*
X85169201Y-97016048D01*
X85084093Y-97016048D01*
X85084093Y-96872765D01*
X84928422Y-96872765D01*
X84928422Y-97016048D01*
X84828770Y-97016048D01*
X84828770Y-97130243D01*
X84928422Y-97130243D01*
X84928422Y-97421118D01*
X84916032Y-97467443D01*
X84868631Y-97481448D01*
X84822845Y-97477677D01*
X84822845Y-97595643D01*
X84622331Y-97595643D01*
X84667981Y-97568307D01*
X84699694Y-97516629D01*
X84711343Y-97444281D01*
X84711343Y-97130243D01*
X84796450Y-97130243D01*
X84796450Y-97016048D01*
X84711343Y-97016048D01*
X84711343Y-96872765D01*
X84559096Y-96872765D01*
X84555671Y-96872765D01*
X84555671Y-97016048D01*
X84456019Y-97016048D01*
X84456019Y-97130243D01*
X84555671Y-97130243D01*
X84555671Y-97421118D01*
X84543282Y-97467443D01*
X84495880Y-97481448D01*
X84450094Y-97477677D01*
X84450094Y-97595643D01*
X84369295Y-97595643D01*
X84369295Y-97016048D01*
X84224935Y-97016048D01*
X84219549Y-97073146D01*
X84154371Y-97022243D01*
X84071956Y-97005275D01*
X84005462Y-97014133D01*
X83949621Y-97040707D01*
X83904434Y-97084996D01*
X83871217Y-97144847D01*
X83851286Y-97218104D01*
X83844643Y-97304768D01*
X83844643Y-97312848D01*
X83681702Y-97312848D01*
X83707555Y-97297497D01*
X83746540Y-97247738D01*
X83759535Y-97186802D01*
X83743443Y-97115632D01*
X83695166Y-97057255D01*
X83647854Y-97028377D01*
X83591743Y-97011051D01*
X83526835Y-97005275D01*
X83506447Y-97006989D01*
X83457797Y-97011080D01*
X83398635Y-97028497D01*
X83349348Y-97057525D01*
X83299455Y-97117585D01*
X83282823Y-97193266D01*
X83438495Y-97193266D01*
X83460042Y-97138054D01*
X83506447Y-97123018D01*
X83527374Y-97116238D01*
X83588242Y-97134014D01*
X83609788Y-97179261D01*
X83585280Y-97221007D01*
X83506447Y-97247199D01*
X83502596Y-97248479D01*
X83448999Y-97260801D01*
X83404560Y-97274604D01*
X83336031Y-97312130D01*
X83294913Y-97364380D01*
X83281208Y-97431353D01*
X83085675Y-97431353D01*
X83085675Y-97438894D01*
X83022383Y-97462056D01*
X82997335Y-97522386D01*
X83022113Y-97581908D01*
X83085675Y-97604801D01*
X83085675Y-98065779D01*
X82820656Y-98065779D01*
X82408583Y-98065779D01*
X82231331Y-98065779D01*
X81885693Y-98065779D01*
X81815521Y-98065779D01*
X81329652Y-98065779D01*
X81251547Y-98065779D01*
X80925659Y-98065779D01*
X80919861Y-98065779D01*
X80394079Y-98065779D01*
X80250722Y-98065779D01*
X79943687Y-98065779D01*
X79918759Y-98065779D01*
X79318098Y-98065779D01*
X79217577Y-98065779D01*
X78950756Y-98065779D01*
X78799040Y-98065779D01*
X78329331Y-98065779D01*
X77747042Y-98065779D01*
X76539911Y-98065779D01*
X76371312Y-98065779D01*
X75892445Y-98065779D01*
X75062913Y-98065779D01*
X74469313Y-98065779D01*
X73217473Y-98065779D01*
X72926060Y-98065779D01*
X72129386Y-98065779D01*
X71301469Y-98065779D01*
X70915791Y-98065779D01*
X70432076Y-98065779D01*
X70136354Y-98065779D01*
X69143608Y-98065779D01*
X68762239Y-98065779D01*
X68098613Y-98065779D01*
X67571267Y-98065779D01*
X67033149Y-98065779D01*
X66257482Y-98065779D01*
X65676271Y-98065779D01*
X65326144Y-98065779D01*
X64409888Y-98065779D01*
X64088848Y-98065779D01*
X63495248Y-98065779D01*
X62914575Y-98065779D01*
X62534283Y-98065779D01*
X61662736Y-98065779D01*
X61276518Y-98065779D01*
X61036816Y-98065779D01*
X60805305Y-98065779D01*
X60734443Y-98064039D01*
X60663751Y-98058825D01*
X60593400Y-98050148D01*
X60523560Y-98038029D01*
X60454399Y-98022499D01*
X60386082Y-98003593D01*
X60318776Y-97981358D01*
X60252642Y-97955847D01*
X60187839Y-97927122D01*
X60124524Y-97895252D01*
X60062849Y-97860313D01*
X60002963Y-97822391D01*
X59945009Y-97781575D01*
X59889128Y-97737965D01*
X59835454Y-97691666D01*
X59784117Y-97642789D01*
X59735240Y-97591451D01*
X59688940Y-97537777D01*
X59645330Y-97481896D01*
X59604515Y-97423943D01*
X59566592Y-97364056D01*
X59563215Y-97358095D01*
X61036816Y-97358095D01*
X61407951Y-97358095D01*
X61392801Y-97409537D01*
X61362434Y-97449667D01*
X61319409Y-97475523D01*
X61266284Y-97484141D01*
X61186159Y-97467847D01*
X61125694Y-97418964D01*
X61049205Y-97504610D01*
X61090412Y-97548713D01*
X61144009Y-97581908D01*
X61207032Y-97602713D01*
X61276518Y-97609648D01*
X61356688Y-97600910D01*
X61426265Y-97574696D01*
X61485248Y-97531004D01*
X61529987Y-97472770D01*
X61556830Y-97402924D01*
X61565777Y-97321467D01*
X61565777Y-97306384D01*
X61557293Y-97223229D01*
X61556992Y-97222354D01*
X61662736Y-97222354D01*
X61662736Y-97598875D01*
X61818408Y-97598875D01*
X61818408Y-97226124D01*
X61839954Y-97154214D01*
X61911595Y-97131859D01*
X61969097Y-97145865D01*
X62010170Y-97187880D01*
X62010170Y-97598875D01*
X62165842Y-97598875D01*
X62165842Y-97313387D01*
X62258491Y-97313387D01*
X62266810Y-97396909D01*
X62291768Y-97468640D01*
X62333364Y-97528581D01*
X62388965Y-97573618D01*
X62455938Y-97600641D01*
X62534283Y-97609648D01*
X62612658Y-97600671D01*
X62679721Y-97573738D01*
X62735472Y-97528850D01*
X62777218Y-97468520D01*
X62802265Y-97395263D01*
X62810614Y-97309078D01*
X62810614Y-97302075D01*
X62802265Y-97220065D01*
X62777218Y-97147480D01*
X62736482Y-97087286D01*
X62681067Y-97042442D01*
X62613264Y-97014567D01*
X62535360Y-97005275D01*
X62461534Y-97013295D01*
X62397344Y-97037355D01*
X62342790Y-97077455D01*
X62300386Y-97131321D01*
X62272645Y-97196678D01*
X62259568Y-97273526D01*
X62258491Y-97313387D01*
X62165842Y-97313387D01*
X62165842Y-97016048D01*
X62019327Y-97016048D01*
X62014479Y-97083380D01*
X61968094Y-97039988D01*
X61912254Y-97013953D01*
X61846956Y-97005275D01*
X61766158Y-97018876D01*
X61709060Y-97059679D01*
X61674855Y-97127550D01*
X61662736Y-97222354D01*
X61556992Y-97222354D01*
X61531842Y-97149366D01*
X61490837Y-97088094D01*
X61435692Y-97042712D01*
X61369100Y-97014634D01*
X61293755Y-97005275D01*
X61219690Y-97013654D01*
X61156936Y-97038791D01*
X61105495Y-97080687D01*
X61067340Y-97137964D01*
X61044447Y-97209247D01*
X61036816Y-97294534D01*
X61036816Y-97358095D01*
X59563215Y-97358095D01*
X59531654Y-97302381D01*
X59499783Y-97239066D01*
X59471058Y-97174263D01*
X59445548Y-97108129D01*
X59423313Y-97040823D01*
X59404407Y-96972507D01*
X59388876Y-96903345D01*
X59376758Y-96833505D01*
X59369110Y-96771498D01*
X62914575Y-96771498D01*
X62914575Y-97598875D01*
X63070786Y-97598875D01*
X63175285Y-97598875D01*
X63332573Y-97598875D01*
X63348194Y-97546626D01*
X63413237Y-97593893D01*
X63495248Y-97609648D01*
X63563341Y-97598875D01*
X63790971Y-97598875D01*
X63931560Y-97598875D01*
X63939101Y-97536930D01*
X64005626Y-97591469D01*
X64088848Y-97609648D01*
X64152918Y-97600641D01*
X64207951Y-97573618D01*
X64253947Y-97528581D01*
X64288510Y-97467503D01*
X64309249Y-97392360D01*
X64316161Y-97303152D01*
X64309680Y-97222354D01*
X64409888Y-97222354D01*
X64409888Y-97598875D01*
X64565560Y-97598875D01*
X64565560Y-97226124D01*
X64587106Y-97154214D01*
X64658747Y-97131859D01*
X64716249Y-97145865D01*
X64757322Y-97187880D01*
X64757322Y-97598875D01*
X64912994Y-97598875D01*
X65006181Y-97598875D01*
X65163469Y-97598875D01*
X65179090Y-97546626D01*
X65244133Y-97593893D01*
X65326144Y-97609648D01*
X65404451Y-97597259D01*
X65407218Y-97595643D01*
X65582006Y-97595643D01*
X65628465Y-97606147D01*
X65676271Y-97609648D01*
X65748115Y-97599313D01*
X65799893Y-97568307D01*
X65831606Y-97516629D01*
X65843255Y-97444281D01*
X65843255Y-97392031D01*
X65973071Y-97392031D01*
X65981630Y-97455024D01*
X66007306Y-97508261D01*
X66050099Y-97551743D01*
X66107377Y-97583913D01*
X66176504Y-97603214D01*
X66257482Y-97609648D01*
X66343937Y-97601367D01*
X66422311Y-97576521D01*
X66487826Y-97537266D01*
X66535699Y-97485757D01*
X66564988Y-97423542D01*
X66574751Y-97352170D01*
X66412616Y-97352170D01*
X66402920Y-97408965D01*
X66373832Y-97449533D01*
X66325353Y-97473873D01*
X66257482Y-97481987D01*
X66206175Y-97476129D01*
X66167527Y-97458555D01*
X66135207Y-97393108D01*
X66167527Y-97322813D01*
X66212774Y-97297631D01*
X66283877Y-97271102D01*
X66359154Y-97244102D01*
X66416925Y-97217506D01*
X66491140Y-97163820D01*
X66535669Y-97099001D01*
X66550512Y-97023051D01*
X66549469Y-97016048D01*
X66613535Y-97016048D01*
X66847851Y-97689370D01*
X66860779Y-97720073D01*
X66903153Y-97783515D01*
X66960610Y-97821580D01*
X67033149Y-97834269D01*
X67102097Y-97824034D01*
X67102097Y-97706068D01*
X67078396Y-97706607D01*
X67012411Y-97693140D01*
X66978206Y-97648432D01*
X66959891Y-97600491D01*
X67060368Y-97312848D01*
X67202287Y-97312848D01*
X67209080Y-97396669D01*
X67229460Y-97468580D01*
X67263425Y-97528581D01*
X67308941Y-97573618D01*
X67363974Y-97600641D01*
X67428523Y-97609648D01*
X67508379Y-97594297D01*
X67571267Y-97548242D01*
X67571267Y-97822957D01*
X67726939Y-97822957D01*
X67726939Y-97313387D01*
X67822820Y-97313387D01*
X67831140Y-97396909D01*
X67856097Y-97468640D01*
X67897694Y-97528581D01*
X67953295Y-97573618D01*
X68020268Y-97600641D01*
X68098613Y-97609648D01*
X68176988Y-97600671D01*
X68244050Y-97573738D01*
X68299801Y-97528850D01*
X68341547Y-97468520D01*
X68366595Y-97395263D01*
X68374944Y-97309078D01*
X68374944Y-97302075D01*
X68366595Y-97220065D01*
X68341547Y-97147480D01*
X68300811Y-97087286D01*
X68292657Y-97080687D01*
X68445508Y-97080687D01*
X68607105Y-97080687D01*
X68620639Y-97015173D01*
X68649390Y-96970532D01*
X68695243Y-96944878D01*
X68760084Y-96936327D01*
X68830716Y-96950803D01*
X68881013Y-96994232D01*
X68903427Y-97039929D01*
X68917163Y-97099809D01*
X68922220Y-97173875D01*
X68922220Y-97233127D01*
X68917941Y-97310275D01*
X68905103Y-97372220D01*
X68883706Y-97418964D01*
X68834082Y-97462999D01*
X68762239Y-97477677D01*
X68696859Y-97469126D01*
X68650467Y-97443473D01*
X68621447Y-97399909D01*
X68608183Y-97337627D01*
X68446586Y-97337627D01*
X68461040Y-97416031D01*
X68492192Y-97482465D01*
X68540043Y-97536930D01*
X68602198Y-97577329D01*
X68676263Y-97601569D01*
X68762239Y-97609648D01*
X68833628Y-97603302D01*
X68848357Y-97598875D01*
X69143608Y-97598875D01*
X69331600Y-97598875D01*
X69482424Y-97324160D01*
X69633248Y-97598875D01*
X69821239Y-97598875D01*
X69586923Y-97203501D01*
X69815314Y-96814590D01*
X69847633Y-96814590D01*
X70136354Y-97666207D01*
X70252165Y-97666207D01*
X70030466Y-97012278D01*
X70258090Y-97012278D01*
X70260245Y-97162024D01*
X70316265Y-97157715D01*
X70389388Y-97172663D01*
X70432076Y-97217506D01*
X70432076Y-97598875D01*
X70587748Y-97598875D01*
X70587748Y-97358095D01*
X70676088Y-97358095D01*
X71047223Y-97358095D01*
X71032073Y-97409537D01*
X71001706Y-97449667D01*
X70958681Y-97475523D01*
X70905556Y-97484141D01*
X70825431Y-97467847D01*
X70764967Y-97418964D01*
X70688477Y-97504610D01*
X70729685Y-97548713D01*
X70783281Y-97581908D01*
X70846304Y-97602713D01*
X70915791Y-97609648D01*
X70995961Y-97600910D01*
X71065537Y-97574696D01*
X71124520Y-97531004D01*
X71169259Y-97472770D01*
X71196102Y-97402924D01*
X71205050Y-97321467D01*
X71205050Y-97306384D01*
X71196806Y-97225586D01*
X71301469Y-97225586D01*
X71301469Y-97598875D01*
X71457141Y-97598875D01*
X71457141Y-97229895D01*
X71478688Y-97155830D01*
X71550329Y-97131859D01*
X71609312Y-97145057D01*
X71649442Y-97184648D01*
X71649442Y-97598875D01*
X71805114Y-97598875D01*
X71805114Y-97358095D01*
X71889683Y-97358095D01*
X72260818Y-97358095D01*
X72245668Y-97409537D01*
X72215301Y-97449667D01*
X72172276Y-97475523D01*
X72119151Y-97484141D01*
X72039026Y-97467847D01*
X71978561Y-97418964D01*
X71902072Y-97504610D01*
X71943279Y-97548713D01*
X71996876Y-97581908D01*
X72059899Y-97602713D01*
X72129386Y-97609648D01*
X72209556Y-97600910D01*
X72214957Y-97598875D01*
X72448271Y-97598875D01*
X72640571Y-97598875D01*
X72842029Y-97284299D01*
X72926060Y-97374794D01*
X72926060Y-97598875D01*
X73087657Y-97598875D01*
X73087657Y-97226663D01*
X73217473Y-97226663D01*
X73217473Y-97598875D01*
X73373684Y-97598875D01*
X73373684Y-97227202D01*
X73393076Y-97154752D01*
X73461485Y-97131859D01*
X73520737Y-97148558D01*
X73558443Y-97198653D01*
X73557905Y-97598875D01*
X73713577Y-97598875D01*
X73713577Y-97227740D01*
X73733507Y-97154483D01*
X73801378Y-97131859D01*
X73858475Y-97145595D01*
X73897259Y-97186802D01*
X73897259Y-97598875D01*
X74052931Y-97598875D01*
X74149350Y-97598875D01*
X74306638Y-97598875D01*
X74322259Y-97546626D01*
X74387302Y-97593893D01*
X74469313Y-97609648D01*
X74537406Y-97598875D01*
X74765036Y-97598875D01*
X74905625Y-97598875D01*
X74913166Y-97536930D01*
X74979691Y-97591469D01*
X75062913Y-97609648D01*
X75126983Y-97600641D01*
X75130580Y-97598875D01*
X75329010Y-97598875D01*
X75500842Y-97598875D01*
X75555246Y-97437278D01*
X75838580Y-97437278D01*
X75892445Y-97598875D01*
X76064277Y-97598875D01*
X75772325Y-96814590D01*
X76082591Y-96814590D01*
X76371312Y-97666207D01*
X76487123Y-97666207D01*
X76338106Y-97226663D01*
X76539911Y-97226663D01*
X76539911Y-97598875D01*
X76696122Y-97598875D01*
X76696122Y-97227202D01*
X76715514Y-97154752D01*
X76783923Y-97131859D01*
X76843176Y-97148558D01*
X76880882Y-97198653D01*
X76880343Y-97598875D01*
X77036015Y-97598875D01*
X77036015Y-97227740D01*
X77055945Y-97154483D01*
X77123816Y-97131859D01*
X77180914Y-97145595D01*
X77219697Y-97186802D01*
X77219697Y-97598875D01*
X77375369Y-97598875D01*
X77375369Y-97313387D01*
X77471250Y-97313387D01*
X77479569Y-97396909D01*
X77504527Y-97468640D01*
X77546123Y-97528581D01*
X77601725Y-97573618D01*
X77668698Y-97600641D01*
X77747042Y-97609648D01*
X77825417Y-97600671D01*
X77892480Y-97573738D01*
X77948231Y-97528850D01*
X77989977Y-97468520D01*
X78014288Y-97397417D01*
X78088013Y-97397417D01*
X78096362Y-97454178D01*
X78120332Y-97505957D01*
X78157971Y-97549723D01*
X78207325Y-97582446D01*
X78265433Y-97602848D01*
X78329331Y-97609648D01*
X78406778Y-97600820D01*
X78472494Y-97574336D01*
X78526480Y-97530196D01*
X78531726Y-97522386D01*
X78710700Y-97522386D01*
X78735479Y-97581908D01*
X78799040Y-97604801D01*
X78862063Y-97581908D01*
X78886841Y-97522386D01*
X78861794Y-97462056D01*
X78799040Y-97438894D01*
X78735748Y-97462056D01*
X78710700Y-97522386D01*
X78531726Y-97522386D01*
X78566580Y-97470495D01*
X78590640Y-97397328D01*
X78598461Y-97312848D01*
X78990802Y-97312848D01*
X78997446Y-97399363D01*
X79017376Y-97472171D01*
X79050593Y-97531274D01*
X79095721Y-97574815D01*
X79151382Y-97600940D01*
X79217577Y-97609648D01*
X79276530Y-97601569D01*
X79318098Y-97581598D01*
X79326984Y-97577329D01*
X79368940Y-97536930D01*
X79375942Y-97598875D01*
X79515993Y-97598875D01*
X79633420Y-97598875D01*
X79779935Y-97598875D01*
X79784244Y-97539623D01*
X79827576Y-97578526D01*
X79880724Y-97601868D01*
X79918759Y-97606568D01*
X79943687Y-97609648D01*
X80009781Y-97598875D01*
X80250722Y-97598875D01*
X80394079Y-97598875D01*
X80406394Y-97598875D01*
X80406394Y-97229895D01*
X80427940Y-97155830D01*
X80499581Y-97131859D01*
X80558564Y-97145057D01*
X80598694Y-97184648D01*
X80598694Y-97598875D01*
X80754366Y-97598875D01*
X80754366Y-97595643D01*
X80831394Y-97595643D01*
X80877853Y-97606147D01*
X80919861Y-97609223D01*
X80925659Y-97609648D01*
X80997503Y-97599313D01*
X80998234Y-97598875D01*
X81251547Y-97598875D01*
X81329652Y-97598875D01*
X81407757Y-97598875D01*
X81407757Y-97579484D01*
X81535419Y-97579484D01*
X81544105Y-97650990D01*
X81570163Y-97712532D01*
X81611976Y-97762358D01*
X81667929Y-97798717D01*
X81736338Y-97820937D01*
X81815521Y-97828343D01*
X81878813Y-97821947D01*
X81885693Y-97819806D01*
X81940489Y-97802757D01*
X81993951Y-97773468D01*
X82032600Y-97736772D01*
X81963652Y-97641968D01*
X81899282Y-97690851D01*
X81885693Y-97693736D01*
X81822524Y-97707145D01*
X81767446Y-97698864D01*
X81726104Y-97674018D01*
X81700248Y-97633955D01*
X81691630Y-97580022D01*
X81691630Y-97548780D01*
X81753979Y-97594431D01*
X81833297Y-97609648D01*
X81885693Y-97602354D01*
X81898863Y-97600521D01*
X81955512Y-97573139D01*
X82003243Y-97527503D01*
X82039303Y-97466785D01*
X82060939Y-97394156D01*
X82068151Y-97309616D01*
X82068151Y-97303152D01*
X82061059Y-97219541D01*
X82039782Y-97147540D01*
X82004320Y-97087151D01*
X81956829Y-97041664D01*
X81899462Y-97014372D01*
X81885693Y-97012509D01*
X81832219Y-97005275D01*
X81746977Y-97021704D01*
X81683011Y-97070991D01*
X81676547Y-97016048D01*
X81535419Y-97016048D01*
X81535419Y-97579484D01*
X81407757Y-97579484D01*
X81407757Y-97016048D01*
X81329652Y-97016048D01*
X81251547Y-97016048D01*
X81251547Y-97598875D01*
X80998234Y-97598875D01*
X81049281Y-97568307D01*
X81080994Y-97516629D01*
X81092643Y-97444281D01*
X81092643Y-97130243D01*
X81177751Y-97130243D01*
X81177751Y-97016048D01*
X81092643Y-97016048D01*
X81092643Y-96872765D01*
X80936971Y-96872765D01*
X80936971Y-97016048D01*
X80919861Y-97016048D01*
X80837319Y-97016048D01*
X80837319Y-97130243D01*
X80919861Y-97130243D01*
X80936971Y-97130243D01*
X80936971Y-97421118D01*
X80924582Y-97467443D01*
X80919861Y-97468838D01*
X80877180Y-97481448D01*
X80831394Y-97477677D01*
X80831394Y-97595643D01*
X80754366Y-97595643D01*
X80754366Y-96865224D01*
X81242390Y-96865224D01*
X81266360Y-96923399D01*
X81329652Y-96946023D01*
X81392944Y-96923399D01*
X81416915Y-96865224D01*
X81396330Y-96814590D01*
X82119862Y-96814590D01*
X82231331Y-97143381D01*
X82408583Y-97666207D01*
X82524394Y-97666207D01*
X82235674Y-96814590D01*
X82531935Y-96814590D01*
X82820656Y-97666207D01*
X82936467Y-97666207D01*
X82647747Y-96814590D01*
X82531935Y-96814590D01*
X82235674Y-96814590D01*
X82231331Y-96814590D01*
X82119862Y-96814590D01*
X81396330Y-96814590D01*
X81393483Y-96807588D01*
X81329652Y-96784964D01*
X81266091Y-96807588D01*
X81242390Y-96865224D01*
X80754366Y-96865224D01*
X80754366Y-96771498D01*
X80598694Y-96771498D01*
X80598694Y-97079610D01*
X80553866Y-97038313D01*
X80501975Y-97013534D01*
X80443022Y-97005275D01*
X80394079Y-97011583D01*
X80374656Y-97014087D01*
X80321243Y-97040525D01*
X80282782Y-97084587D01*
X80259275Y-97146274D01*
X80250722Y-97225586D01*
X80250722Y-97598875D01*
X80009781Y-97598875D01*
X80026303Y-97596182D01*
X80086700Y-97555783D01*
X80123935Y-97489393D01*
X80137065Y-97397956D01*
X80137065Y-97016048D01*
X79981393Y-97016048D01*
X79981393Y-97392570D01*
X79960655Y-97460844D01*
X79918759Y-97476170D01*
X79898440Y-97483603D01*
X79831646Y-97469867D01*
X79789631Y-97428660D01*
X79789631Y-97016048D01*
X79633420Y-97016048D01*
X79633420Y-97598875D01*
X79515993Y-97598875D01*
X79515993Y-96771498D01*
X79360321Y-96771498D01*
X79360321Y-97068298D01*
X79318098Y-97036289D01*
X79297971Y-97021031D01*
X79218654Y-97005275D01*
X79152669Y-97013983D01*
X79096918Y-97040108D01*
X79051401Y-97083650D01*
X79017735Y-97142992D01*
X78997535Y-97216518D01*
X78990802Y-97304230D01*
X78990802Y-97312848D01*
X78598461Y-97312848D01*
X78598660Y-97310694D01*
X78598660Y-97300459D01*
X78590699Y-97216728D01*
X78566819Y-97145086D01*
X78527018Y-97085535D01*
X78473332Y-97040946D01*
X78407795Y-97014193D01*
X78330408Y-97005275D01*
X78262328Y-97012188D01*
X78203884Y-97032926D01*
X78155075Y-97067490D01*
X78118297Y-97113545D01*
X78095943Y-97168757D01*
X78088013Y-97233127D01*
X78233989Y-97233127D01*
X78261999Y-97159600D01*
X78333102Y-97131321D01*
X78380840Y-97141219D01*
X78415247Y-97170912D01*
X78436052Y-97222825D01*
X78442988Y-97299382D01*
X78442988Y-97315542D01*
X78436120Y-97392839D01*
X78415516Y-97444819D01*
X78380907Y-97474311D01*
X78332024Y-97484141D01*
X78261999Y-97460440D01*
X78233989Y-97397417D01*
X78088013Y-97397417D01*
X78014288Y-97397417D01*
X78015024Y-97395263D01*
X78023374Y-97309078D01*
X78023374Y-97302075D01*
X78015024Y-97220065D01*
X77989977Y-97147480D01*
X77949241Y-97087286D01*
X77893827Y-97042442D01*
X77826023Y-97014567D01*
X77748120Y-97005275D01*
X77674294Y-97013295D01*
X77610104Y-97037355D01*
X77555550Y-97077455D01*
X77513145Y-97131321D01*
X77485405Y-97196678D01*
X77472327Y-97273526D01*
X77471250Y-97313387D01*
X77375369Y-97313387D01*
X77375369Y-97016048D01*
X77229393Y-97016048D01*
X77224545Y-97081226D01*
X77178400Y-97039031D01*
X77122559Y-97013714D01*
X77057022Y-97005275D01*
X76989810Y-97015150D01*
X76938278Y-97044777D01*
X76902428Y-97094153D01*
X76855684Y-97044777D01*
X76797330Y-97015150D01*
X76727364Y-97005275D01*
X76644680Y-97019078D01*
X76586236Y-97060487D01*
X76551493Y-97129637D01*
X76539911Y-97226663D01*
X76338106Y-97226663D01*
X76198403Y-96814590D01*
X76082591Y-96814590D01*
X75772325Y-96814590D01*
X75622578Y-96814590D01*
X75329010Y-97598875D01*
X75130580Y-97598875D01*
X75182016Y-97573618D01*
X75228012Y-97528581D01*
X75262575Y-97467503D01*
X75283314Y-97392360D01*
X75290227Y-97303152D01*
X75283433Y-97218464D01*
X75263054Y-97146104D01*
X75229089Y-97086074D01*
X75183333Y-97041185D01*
X75127582Y-97014253D01*
X75061836Y-97005275D01*
X74984135Y-97021165D01*
X74921246Y-97068837D01*
X74921246Y-96771498D01*
X74765036Y-96771498D01*
X74765036Y-97598875D01*
X74537406Y-97598875D01*
X74547620Y-97597259D01*
X74611249Y-97560092D01*
X74653466Y-97504072D01*
X74667539Y-97435123D01*
X74650369Y-97353248D01*
X74598860Y-97292918D01*
X74546281Y-97265327D01*
X74480116Y-97248628D01*
X74400365Y-97242823D01*
X74328723Y-97242823D01*
X74328723Y-97209426D01*
X74349462Y-97144787D01*
X74414908Y-97120548D01*
X74476585Y-97139401D01*
X74498939Y-97191112D01*
X74654611Y-97191112D01*
X74646800Y-97142363D01*
X74623369Y-97097385D01*
X74585663Y-97058939D01*
X74535029Y-97029784D01*
X74474430Y-97011402D01*
X74406829Y-97005275D01*
X74339945Y-97011290D01*
X74282937Y-97029335D01*
X74235805Y-97059410D01*
X74188336Y-97124520D01*
X74172513Y-97211581D01*
X74172513Y-97464211D01*
X74166453Y-97537064D01*
X74149350Y-97589718D01*
X74149350Y-97598875D01*
X74052931Y-97598875D01*
X74052931Y-97016048D01*
X73906955Y-97016048D01*
X73902107Y-97081226D01*
X73855962Y-97039031D01*
X73800121Y-97013714D01*
X73734584Y-97005275D01*
X73667372Y-97015150D01*
X73615840Y-97044777D01*
X73579990Y-97094153D01*
X73533246Y-97044777D01*
X73474892Y-97015150D01*
X73404926Y-97005275D01*
X73322242Y-97019078D01*
X73263798Y-97060487D01*
X73229054Y-97129637D01*
X73217473Y-97226663D01*
X73087657Y-97226663D01*
X73087657Y-96814590D01*
X72926060Y-96814590D01*
X72926060Y-97170104D01*
X72854957Y-97072607D01*
X72655115Y-96814590D01*
X72456350Y-96814590D01*
X72734836Y-97163102D01*
X72448271Y-97598875D01*
X72214957Y-97598875D01*
X72279132Y-97574696D01*
X72338115Y-97531004D01*
X72382854Y-97472770D01*
X72409697Y-97402924D01*
X72418644Y-97321467D01*
X72418644Y-97306384D01*
X72410161Y-97223229D01*
X72384709Y-97149366D01*
X72343704Y-97088094D01*
X72288559Y-97042712D01*
X72221967Y-97014634D01*
X72146623Y-97005275D01*
X72072557Y-97013654D01*
X72009804Y-97038791D01*
X71958362Y-97080687D01*
X71920207Y-97137964D01*
X71897314Y-97209247D01*
X71889683Y-97294534D01*
X71889683Y-97358095D01*
X71805114Y-97358095D01*
X71805114Y-96771498D01*
X71649442Y-96771498D01*
X71649442Y-97079610D01*
X71604614Y-97038313D01*
X71552723Y-97013534D01*
X71493770Y-97005275D01*
X71425404Y-97014087D01*
X71371990Y-97040525D01*
X71333530Y-97084587D01*
X71310023Y-97146274D01*
X71301469Y-97225586D01*
X71196806Y-97225586D01*
X71196566Y-97223229D01*
X71171114Y-97149366D01*
X71130109Y-97088094D01*
X71074964Y-97042712D01*
X71008372Y-97014634D01*
X70933028Y-97005275D01*
X70858962Y-97013654D01*
X70796209Y-97038791D01*
X70744767Y-97080687D01*
X70706612Y-97137964D01*
X70683719Y-97209247D01*
X70676088Y-97294534D01*
X70676088Y-97358095D01*
X70587748Y-97358095D01*
X70587748Y-97016048D01*
X70440695Y-97016048D01*
X70436386Y-97085535D01*
X70380500Y-97025340D01*
X70306569Y-97005275D01*
X70258090Y-97012278D01*
X70030466Y-97012278D01*
X69963445Y-96814590D01*
X69847633Y-96814590D01*
X69815314Y-96814590D01*
X69629477Y-96814590D01*
X69482424Y-97084996D01*
X69335370Y-96814590D01*
X69149533Y-96814590D01*
X69377924Y-97203501D01*
X69143608Y-97598875D01*
X68848357Y-97598875D01*
X68896970Y-97584264D01*
X68952267Y-97552534D01*
X68999517Y-97508112D01*
X69037341Y-97452613D01*
X69064358Y-97387654D01*
X69080568Y-97313235D01*
X69085972Y-97229356D01*
X69085972Y-97181416D01*
X69081543Y-97108996D01*
X69068256Y-97042562D01*
X69046111Y-96982113D01*
X68997699Y-96905960D01*
X68932185Y-96849872D01*
X68880145Y-96824286D01*
X68822778Y-96808934D01*
X68760084Y-96803817D01*
X68675455Y-96811897D01*
X68602557Y-96836137D01*
X68541389Y-96876536D01*
X68493868Y-96931539D01*
X68461907Y-96999589D01*
X68445508Y-97080687D01*
X68292657Y-97080687D01*
X68245397Y-97042442D01*
X68177594Y-97014567D01*
X68099690Y-97005275D01*
X68025864Y-97013295D01*
X67961674Y-97037355D01*
X67907120Y-97077455D01*
X67864716Y-97131321D01*
X67836975Y-97196678D01*
X67823898Y-97273526D01*
X67822820Y-97313387D01*
X67726939Y-97313387D01*
X67726939Y-97016048D01*
X67582579Y-97016048D01*
X67577193Y-97073146D01*
X67512015Y-97022243D01*
X67429601Y-97005275D01*
X67363106Y-97014133D01*
X67307266Y-97040707D01*
X67262078Y-97084996D01*
X67228861Y-97144847D01*
X67208931Y-97218104D01*
X67202287Y-97304768D01*
X67202287Y-97312848D01*
X67060368Y-97312848D01*
X67164043Y-97016048D01*
X66996520Y-97016048D01*
X66888250Y-97378564D01*
X66780519Y-97016048D01*
X66613535Y-97016048D01*
X66549469Y-97016048D01*
X66541557Y-96962923D01*
X66514691Y-96909663D01*
X66471060Y-96865291D01*
X66411808Y-96831827D01*
X66340638Y-96810820D01*
X66261253Y-96803817D01*
X66181801Y-96811426D01*
X66111506Y-96834251D01*
X66053129Y-96870947D01*
X66009431Y-96920167D01*
X65982161Y-96979419D01*
X65973071Y-97046213D01*
X66134668Y-97046213D01*
X66143152Y-96998340D01*
X66168604Y-96962452D01*
X66209407Y-96940030D01*
X66263946Y-96932556D01*
X66316600Y-96938818D01*
X66356057Y-96957604D01*
X66388915Y-97023589D01*
X66350401Y-97087690D01*
X66302797Y-97112737D01*
X66237013Y-97136169D01*
X66153402Y-97166034D01*
X66086429Y-97200329D01*
X66036094Y-97239052D01*
X65988827Y-97308000D01*
X65973071Y-97392031D01*
X65843255Y-97392031D01*
X65843255Y-97130243D01*
X65928363Y-97130243D01*
X65928363Y-97016048D01*
X65843255Y-97016048D01*
X65843255Y-96872765D01*
X65687583Y-96872765D01*
X65687583Y-97016048D01*
X65587931Y-97016048D01*
X65587931Y-97130243D01*
X65687583Y-97130243D01*
X65687583Y-97421118D01*
X65675194Y-97467443D01*
X65627792Y-97481448D01*
X65582006Y-97477677D01*
X65582006Y-97595643D01*
X65407218Y-97595643D01*
X65468080Y-97560092D01*
X65510297Y-97504072D01*
X65524370Y-97435123D01*
X65507200Y-97353248D01*
X65455691Y-97292918D01*
X65403112Y-97265327D01*
X65336947Y-97248628D01*
X65257196Y-97242823D01*
X65185554Y-97242823D01*
X65185554Y-97209426D01*
X65206293Y-97144787D01*
X65271739Y-97120548D01*
X65333416Y-97139401D01*
X65355770Y-97191112D01*
X65511442Y-97191112D01*
X65503631Y-97142363D01*
X65480200Y-97097385D01*
X65442494Y-97058939D01*
X65391860Y-97029784D01*
X65331261Y-97011402D01*
X65263660Y-97005275D01*
X65196776Y-97011290D01*
X65139768Y-97029335D01*
X65092636Y-97059410D01*
X65045167Y-97124520D01*
X65029344Y-97211581D01*
X65029344Y-97464211D01*
X65023284Y-97537064D01*
X65006181Y-97589718D01*
X65006181Y-97598875D01*
X64912994Y-97598875D01*
X64912994Y-97016048D01*
X64766479Y-97016048D01*
X64761631Y-97083380D01*
X64715247Y-97039988D01*
X64659406Y-97013953D01*
X64594109Y-97005275D01*
X64513310Y-97018876D01*
X64456212Y-97059679D01*
X64422008Y-97127550D01*
X64409888Y-97222354D01*
X64309680Y-97222354D01*
X64309368Y-97218464D01*
X64288989Y-97146104D01*
X64255024Y-97086074D01*
X64209268Y-97041185D01*
X64153517Y-97014253D01*
X64087771Y-97005275D01*
X64010069Y-97021165D01*
X63947181Y-97068837D01*
X63947181Y-96771498D01*
X63790971Y-96771498D01*
X63790971Y-97598875D01*
X63563341Y-97598875D01*
X63573555Y-97597259D01*
X63637184Y-97560092D01*
X63679401Y-97504072D01*
X63693474Y-97435123D01*
X63676304Y-97353248D01*
X63624795Y-97292918D01*
X63572216Y-97265327D01*
X63506051Y-97248628D01*
X63426300Y-97242823D01*
X63354658Y-97242823D01*
X63354658Y-97209426D01*
X63375396Y-97144787D01*
X63440843Y-97120548D01*
X63502520Y-97139401D01*
X63524874Y-97191112D01*
X63680546Y-97191112D01*
X63672735Y-97142363D01*
X63649304Y-97097385D01*
X63611598Y-97058939D01*
X63560964Y-97029784D01*
X63500365Y-97011402D01*
X63432763Y-97005275D01*
X63365880Y-97011290D01*
X63308872Y-97029335D01*
X63261740Y-97059410D01*
X63214271Y-97124520D01*
X63198448Y-97211581D01*
X63198448Y-97464211D01*
X63192388Y-97537064D01*
X63175285Y-97589718D01*
X63175285Y-97598875D01*
X63070786Y-97598875D01*
X63070786Y-96771498D01*
X62914575Y-96771498D01*
X59369110Y-96771498D01*
X59368081Y-96763154D01*
X59362866Y-96692462D01*
X59361127Y-96621600D01*
X59362866Y-96550738D01*
X59368081Y-96480046D01*
X59376758Y-96409695D01*
X59388876Y-96339855D01*
X59404407Y-96270693D01*
X59423313Y-96202377D01*
X59445548Y-96135071D01*
X59471058Y-96068937D01*
X59499783Y-96004134D01*
X59531654Y-95940819D01*
X59566592Y-95879144D01*
X59604515Y-95819257D01*
X59627909Y-95786040D01*
X78535665Y-95786040D01*
X78541804Y-95879504D01*
X78560218Y-95962386D01*
X78590909Y-96034688D01*
X78633876Y-96096409D01*
X78688103Y-96146260D01*
X78752571Y-96182954D01*
X78827280Y-96206489D01*
X78912232Y-96216867D01*
X78950756Y-96217409D01*
X78950756Y-96086642D01*
X78916030Y-96086099D01*
X78841715Y-96075464D01*
X78782419Y-96050939D01*
X78738143Y-96012523D01*
X78708886Y-95960216D01*
X78694648Y-95894018D01*
X78761117Y-95939190D01*
X78837895Y-95954247D01*
X78903068Y-95946259D01*
X78958956Y-95922294D01*
X79005559Y-95882352D01*
X79040527Y-95828846D01*
X79061508Y-95764185D01*
X79068501Y-95688372D01*
X79060023Y-95613967D01*
X79034588Y-95545939D01*
X78993961Y-95488287D01*
X78939904Y-95445015D01*
X78877115Y-95418698D01*
X79318098Y-95418698D01*
X79318098Y-96209813D01*
X79474910Y-96209813D01*
X79474910Y-96132763D01*
X79829772Y-96132763D01*
X79854732Y-96192721D01*
X79918759Y-96215781D01*
X79982244Y-96192721D01*
X80007203Y-96132763D01*
X79981972Y-96071992D01*
X79918759Y-96048660D01*
X79855003Y-96071992D01*
X79829772Y-96132763D01*
X79474910Y-96132763D01*
X79474910Y-95883166D01*
X80127661Y-95883166D01*
X80135197Y-95983849D01*
X80157806Y-96067410D01*
X80195487Y-96133848D01*
X80247697Y-96182080D01*
X80313894Y-96211019D01*
X80394079Y-96220665D01*
X80473420Y-96211199D01*
X80539255Y-96182803D01*
X80591586Y-96135476D01*
X80629749Y-96070485D01*
X80653081Y-95989094D01*
X80661582Y-95891305D01*
X80661582Y-95745888D01*
X80653956Y-95644421D01*
X80648026Y-95622717D01*
X80721811Y-95622717D01*
X80919861Y-96209813D01*
X81069619Y-96209813D01*
X81144300Y-95988431D01*
X81605711Y-95988431D01*
X81614241Y-96053965D01*
X81639834Y-96110215D01*
X81682489Y-96157180D01*
X81739191Y-96192450D01*
X81806926Y-96213611D01*
X81885693Y-96220665D01*
X81959759Y-96213732D01*
X82024238Y-96192932D01*
X82079131Y-96158266D01*
X82120882Y-96112205D01*
X82134012Y-96083386D01*
X82231331Y-96083386D01*
X82231331Y-96209813D01*
X82772849Y-96209813D01*
X82772849Y-96102378D01*
X82567174Y-95883166D01*
X82878656Y-95883166D01*
X82886192Y-95983849D01*
X82908801Y-96067410D01*
X82946481Y-96133848D01*
X82998692Y-96182080D01*
X83064889Y-96211019D01*
X83145074Y-96220665D01*
X83224415Y-96211199D01*
X83290250Y-96182803D01*
X83342581Y-96135476D01*
X83373168Y-96083386D01*
X83506447Y-96083386D01*
X83506447Y-96209813D01*
X84047965Y-96209813D01*
X84047965Y-96102378D01*
X83792399Y-95829991D01*
X83746617Y-95776138D01*
X83714535Y-95729610D01*
X83689304Y-95648219D01*
X83695951Y-95601216D01*
X83715892Y-95565472D01*
X83791856Y-95535358D01*
X83839402Y-95544514D01*
X83875688Y-95571984D01*
X83898681Y-95614374D01*
X83906345Y-95668295D01*
X84063700Y-95668295D01*
X84055086Y-95599249D01*
X84029245Y-95536443D01*
X83987668Y-95483200D01*
X83931848Y-95442844D01*
X83870968Y-95419784D01*
X84116333Y-95419784D01*
X84407167Y-96277638D01*
X84523827Y-96277638D01*
X84457970Y-96083386D01*
X84559096Y-96083386D01*
X84559096Y-96209813D01*
X85100614Y-96209813D01*
X85100614Y-96102378D01*
X84894939Y-95883166D01*
X85206421Y-95883166D01*
X85213957Y-95983849D01*
X85236566Y-96067410D01*
X85274246Y-96133848D01*
X85326457Y-96182080D01*
X85392654Y-96211019D01*
X85472839Y-96220665D01*
X85552179Y-96211199D01*
X85618015Y-96182803D01*
X85670346Y-96135476D01*
X85708509Y-96070485D01*
X85731841Y-95989094D01*
X85740342Y-95891305D01*
X85740342Y-95745888D01*
X85732715Y-95644421D01*
X85709836Y-95560679D01*
X85671703Y-95494663D01*
X85619221Y-95447034D01*
X85553295Y-95418457D01*
X85473924Y-95408931D01*
X85394584Y-95418367D01*
X85328748Y-95446672D01*
X85276417Y-95493849D01*
X85238254Y-95558690D01*
X85214922Y-95639990D01*
X85206421Y-95737749D01*
X85206421Y-95883166D01*
X84894939Y-95883166D01*
X84845048Y-95829991D01*
X84799266Y-95776138D01*
X84767184Y-95729610D01*
X84741953Y-95648219D01*
X84748600Y-95601216D01*
X84768541Y-95565472D01*
X84844505Y-95535358D01*
X84892051Y-95544514D01*
X84928337Y-95571984D01*
X84951330Y-95614374D01*
X84958994Y-95668295D01*
X85116349Y-95668295D01*
X85107735Y-95599249D01*
X85081894Y-95536443D01*
X85040317Y-95483200D01*
X84984497Y-95442844D01*
X84917350Y-95417410D01*
X84841792Y-95408931D01*
X84766461Y-95415443D01*
X84703248Y-95434976D01*
X84652153Y-95467533D01*
X84614623Y-95511966D01*
X84592105Y-95567130D01*
X84584599Y-95633026D01*
X84592195Y-95692170D01*
X84614984Y-95752399D01*
X84656222Y-95818189D01*
X84719164Y-95894018D01*
X84898765Y-96083386D01*
X84559096Y-96083386D01*
X84457970Y-96083386D01*
X84232992Y-95419784D01*
X84116333Y-95419784D01*
X83870968Y-95419784D01*
X83864701Y-95417410D01*
X83789143Y-95408931D01*
X83713812Y-95415443D01*
X83650599Y-95434976D01*
X83599504Y-95467533D01*
X83561974Y-95511966D01*
X83539456Y-95567130D01*
X83531950Y-95633026D01*
X83539546Y-95692170D01*
X83562335Y-95752399D01*
X83603573Y-95818189D01*
X83666515Y-95894018D01*
X83846116Y-96083386D01*
X83506447Y-96083386D01*
X83373168Y-96083386D01*
X83380744Y-96070485D01*
X83404076Y-95989094D01*
X83412577Y-95891305D01*
X83412577Y-95745888D01*
X83404950Y-95644421D01*
X83382071Y-95560679D01*
X83343938Y-95494663D01*
X83291456Y-95447034D01*
X83225530Y-95418457D01*
X83146159Y-95408931D01*
X83066819Y-95418367D01*
X83000983Y-95446672D01*
X82948652Y-95493849D01*
X82910489Y-95558690D01*
X82887157Y-95639990D01*
X82878656Y-95737749D01*
X82878656Y-95883166D01*
X82567174Y-95883166D01*
X82517283Y-95829991D01*
X82471501Y-95776138D01*
X82439419Y-95729610D01*
X82414188Y-95648219D01*
X82420835Y-95601216D01*
X82440776Y-95565472D01*
X82516740Y-95535358D01*
X82564286Y-95544514D01*
X82600572Y-95571984D01*
X82623565Y-95614374D01*
X82631229Y-95668295D01*
X82788584Y-95668295D01*
X82779970Y-95599249D01*
X82754129Y-95536443D01*
X82712552Y-95483200D01*
X82656732Y-95442844D01*
X82589585Y-95417410D01*
X82514027Y-95408931D01*
X82438696Y-95415443D01*
X82375483Y-95434976D01*
X82324388Y-95467533D01*
X82286858Y-95511966D01*
X82264340Y-95567130D01*
X82256834Y-95633026D01*
X82264430Y-95692170D01*
X82287219Y-95752399D01*
X82328457Y-95818189D01*
X82391399Y-95894018D01*
X82571000Y-96083386D01*
X82231331Y-96083386D01*
X82134012Y-96083386D01*
X82145932Y-96057221D01*
X82154282Y-95993314D01*
X81997470Y-95993314D01*
X81964100Y-96066023D01*
X81881895Y-96094238D01*
X81832044Y-96086846D01*
X81794265Y-96064667D01*
X81762523Y-95986261D01*
X81776992Y-95920545D01*
X81820400Y-95881116D01*
X81892747Y-95867973D01*
X81975765Y-95867973D01*
X81975765Y-95745345D01*
X81892205Y-95745345D01*
X81840251Y-95737884D01*
X81803760Y-95715502D01*
X81775003Y-95636282D01*
X81803489Y-95561945D01*
X81881895Y-95535358D01*
X81957317Y-95560046D01*
X81987703Y-95624345D01*
X82144515Y-95624345D01*
X82136172Y-95565676D01*
X82111145Y-95513382D01*
X82071128Y-95469635D01*
X82017817Y-95436604D01*
X81954807Y-95415850D01*
X81885693Y-95408931D01*
X81808162Y-95415593D01*
X81742688Y-95435579D01*
X81689271Y-95468889D01*
X81649782Y-95513895D01*
X81626088Y-95568969D01*
X81618190Y-95634112D01*
X81626465Y-95686201D01*
X81651289Y-95733950D01*
X81689543Y-95774239D01*
X81738106Y-95803946D01*
X81679844Y-95833789D01*
X81638538Y-95875570D01*
X81613917Y-95927659D01*
X81605711Y-95988431D01*
X81144300Y-95988431D01*
X81267669Y-95622717D01*
X81103803Y-95622717D01*
X80994740Y-96018274D01*
X80885677Y-95622717D01*
X80721811Y-95622717D01*
X80648026Y-95622717D01*
X80631076Y-95560679D01*
X80592943Y-95494663D01*
X80540461Y-95447034D01*
X80474535Y-95418457D01*
X80395164Y-95408931D01*
X80315824Y-95418367D01*
X80249988Y-95446672D01*
X80197657Y-95493849D01*
X80159494Y-95558690D01*
X80136162Y-95639990D01*
X80127661Y-95737749D01*
X80127661Y-95883166D01*
X79474910Y-95883166D01*
X79474910Y-95605354D01*
X79662108Y-95663412D01*
X79662108Y-95535900D01*
X79334919Y-95418698D01*
X79318098Y-95418698D01*
X78877115Y-95418698D01*
X78875335Y-95417952D01*
X78803168Y-95408931D01*
X78729375Y-95418698D01*
X78664262Y-95447999D01*
X78610273Y-95495612D01*
X78569849Y-95560318D01*
X78544483Y-95638859D01*
X78535665Y-95727982D01*
X78535665Y-95786040D01*
X59627909Y-95786040D01*
X59645330Y-95761304D01*
X59688940Y-95705423D01*
X59735240Y-95651749D01*
X59784117Y-95600411D01*
X59835454Y-95551534D01*
X59889128Y-95505235D01*
X59945009Y-95461625D01*
X60002963Y-95420809D01*
X60062849Y-95382887D01*
X60124524Y-95347948D01*
X60187839Y-95316078D01*
X60252642Y-95287353D01*
X60318776Y-95261842D01*
X60386082Y-95239607D01*
X60454399Y-95220701D01*
X60523560Y-95205171D01*
X60593400Y-95193052D01*
X60663751Y-95184375D01*
X60734443Y-95179161D01*
X60805305Y-95177421D01*
X61036816Y-95177421D01*
X85740342Y-95177421D01*
X86434873Y-95177421D01*
X86434873Y-98065779D01*
X85740342Y-98065779D01*
X85472839Y-98065779D01*
X85232224Y-98065779D01*
X84917110Y-98065779D01*
X84559096Y-98065779D01*
X84544359Y-98065779D01*
X84407167Y-98065779D01*
X84213623Y-98065779D01*
X83526297Y-98065779D01*
X83506447Y-98065779D01*
X83145074Y-98065779D01*
X83085675Y-98065779D01*
X83085675Y-97604801D01*
X83145074Y-97583224D01*
X83148698Y-97581908D01*
X83173476Y-97522386D01*
X83148428Y-97462056D01*
X83145074Y-97460818D01*
X83085675Y-97438894D01*
X83085675Y-97163640D01*
X83145074Y-97142063D01*
X83148698Y-97140747D01*
X83173476Y-97081226D01*
X83148428Y-97020896D01*
X83145074Y-97019658D01*
X83085675Y-96997734D01*
G37*
%TD*%
%LPC*%
D10*
%TO.C,SW2*%
X142742200Y-91897200D03*
X144542200Y-91897200D03*
%TD*%
D11*
%TO.C,U6*%
X103302300Y-114502000D03*
X103302300Y-84582000D03*
X52382300Y-114502000D03*
X52382300Y-84582000D03*
D12*
X104342300Y-90652000D03*
X104342300Y-93192000D03*
X104342300Y-95732000D03*
X104342300Y-98272000D03*
X104342300Y-100812000D03*
X104342300Y-103352000D03*
X104342300Y-105892000D03*
D13*
X104342300Y-108432000D03*
%TD*%
D10*
%TO.C,SW4*%
X142742200Y-85598000D03*
X144542200Y-85598000D03*
%TD*%
D14*
%TO.C,J1*%
X100939600Y-68969300D03*
D15*
X100939600Y-71509300D03*
X98399600Y-68969300D03*
X98399600Y-71509300D03*
X95859600Y-68969300D03*
X95859600Y-71509300D03*
X93319600Y-68969300D03*
X93319600Y-71509300D03*
X90779600Y-68969300D03*
X90779600Y-71509300D03*
X88239600Y-68969300D03*
X88239600Y-71509300D03*
X85699600Y-68969300D03*
X85699600Y-71509300D03*
X83159600Y-68969300D03*
X83159600Y-71509300D03*
X80619600Y-68969300D03*
X80619600Y-71509300D03*
X78079600Y-68969300D03*
X78079600Y-71509300D03*
X75539600Y-68969300D03*
X75539600Y-71509300D03*
X72999600Y-68969300D03*
X72999600Y-71509300D03*
X70459600Y-68969300D03*
X70459600Y-71509300D03*
X67919600Y-68969300D03*
X67919600Y-71509300D03*
X65379600Y-68969300D03*
X65379600Y-71509300D03*
X62839600Y-68969300D03*
X62839600Y-71509300D03*
X60299600Y-68969300D03*
X60299600Y-71509300D03*
%TD*%
D13*
%TO.C,J3*%
X52374800Y-61518800D03*
D12*
X52374800Y-64058800D03*
%TD*%
D16*
%TO.C,U1*%
X108251600Y-82346800D03*
D17*
X108251600Y-84886800D03*
X108251600Y-87426800D03*
X108251600Y-89966800D03*
X108251600Y-92506800D03*
X108251600Y-95046800D03*
X108251600Y-97586800D03*
X108251600Y-100126800D03*
X108251600Y-102666800D03*
X108251600Y-105206800D03*
X108251600Y-107746800D03*
X108251600Y-110286800D03*
X108251600Y-112826800D03*
X108251600Y-115366800D03*
X110791600Y-115366800D03*
X113331600Y-115366800D03*
X115871600Y-115366800D03*
X118411600Y-115366800D03*
X120951600Y-115366800D03*
X123491600Y-115366800D03*
X123491600Y-112826800D03*
X123491600Y-110286800D03*
X123491600Y-107746800D03*
X123491600Y-105206800D03*
X123491600Y-102666800D03*
X123491600Y-100126800D03*
X123491600Y-97586800D03*
X123491600Y-95046800D03*
X123491600Y-92506800D03*
X123491600Y-89966800D03*
X123491600Y-87426800D03*
X123491600Y-84886800D03*
X123491600Y-82346800D03*
X120951600Y-84886800D03*
X120951600Y-89966800D03*
X120951600Y-92506800D03*
X120951600Y-95046800D03*
X115641600Y-88696800D03*
X115641600Y-83616800D03*
X117771600Y-83616800D03*
X118411600Y-97586800D03*
X118411600Y-100126800D03*
X118411600Y-102666800D03*
X118411600Y-105206800D03*
X118411600Y-107746800D03*
X118411600Y-110286800D03*
X118411600Y-112826800D03*
X115871600Y-112826800D03*
X115871600Y-110286800D03*
X115871600Y-107746800D03*
X115871600Y-105206800D03*
X115871600Y-102666800D03*
X115871600Y-100126800D03*
X115871600Y-97586800D03*
%TD*%
D10*
%TO.C,SW3*%
X142742200Y-98298000D03*
X144542200Y-98298000D03*
%TD*%
D13*
%TO.C,J4*%
X118770400Y-73229800D03*
D15*
X121270400Y-73229800D03*
X121270400Y-71229800D03*
X118770400Y-71229800D03*
D18*
X114000400Y-68519800D03*
X126040400Y-68519800D03*
%TD*%
D19*
%TO.C,H1*%
X142748000Y-60553600D03*
%TD*%
D13*
%TO.C,J2*%
X77771600Y-79908400D03*
D12*
X75231600Y-79908400D03*
X72691600Y-79908400D03*
X70151600Y-79908400D03*
X67611600Y-79908400D03*
X65071600Y-79908400D03*
X62531600Y-79908400D03*
X59991600Y-79908400D03*
X57451600Y-79908400D03*
X54911600Y-79908400D03*
X52371600Y-79908400D03*
%TD*%
D13*
%TO.C,J5*%
X108859400Y-61823600D03*
D12*
X111399400Y-61823600D03*
X108859400Y-64363600D03*
X111399400Y-64363600D03*
%TD*%
D20*
%TO.C,SW1*%
X134213600Y-108234400D03*
D21*
X134213600Y-112034400D03*
%TD*%
D19*
%TO.C,H2*%
X142747800Y-114501800D03*
%TD*%
D22*
%TO.C,BT1*%
X136448800Y-67319200D03*
D23*
X136448800Y-74819200D03*
%TD*%
M02*
