%TF.GenerationSoftware,KiCad,Pcbnew,7.0.1*%
%TF.CreationDate,2023-04-16T22:16:48+10:00*%
%TF.ProjectId,XCopy Standalone,58436f70-7920-4537-9461-6e64616c6f6e,rev?*%
%TF.SameCoordinates,Original*%
%TF.FileFunction,Other,Comment*%
%FSLAX46Y46*%
G04 Gerber Fmt 4.6, Leading zero omitted, Abs format (unit mm)*
G04 Created by KiCad (PCBNEW 7.0.1) date 2023-04-16 22:16:48*
%MOMM*%
%LPD*%
G01*
G04 APERTURE LIST*
%ADD10C,0.150000*%
G04 APERTURE END LIST*
D10*
%TO.C,SW2*%
X141557200Y-93230532D02*
X141604819Y-93087675D01*
X141604819Y-93087675D02*
X141604819Y-92849580D01*
X141604819Y-92849580D02*
X141557200Y-92754342D01*
X141557200Y-92754342D02*
X141509580Y-92706723D01*
X141509580Y-92706723D02*
X141414342Y-92659104D01*
X141414342Y-92659104D02*
X141319104Y-92659104D01*
X141319104Y-92659104D02*
X141223866Y-92706723D01*
X141223866Y-92706723D02*
X141176247Y-92754342D01*
X141176247Y-92754342D02*
X141128628Y-92849580D01*
X141128628Y-92849580D02*
X141081009Y-93040056D01*
X141081009Y-93040056D02*
X141033390Y-93135294D01*
X141033390Y-93135294D02*
X140985771Y-93182913D01*
X140985771Y-93182913D02*
X140890533Y-93230532D01*
X140890533Y-93230532D02*
X140795295Y-93230532D01*
X140795295Y-93230532D02*
X140700057Y-93182913D01*
X140700057Y-93182913D02*
X140652438Y-93135294D01*
X140652438Y-93135294D02*
X140604819Y-93040056D01*
X140604819Y-93040056D02*
X140604819Y-92801961D01*
X140604819Y-92801961D02*
X140652438Y-92659104D01*
X140604819Y-92325770D02*
X141604819Y-92087675D01*
X141604819Y-92087675D02*
X140890533Y-91897199D01*
X140890533Y-91897199D02*
X141604819Y-91706723D01*
X141604819Y-91706723D02*
X140604819Y-91468628D01*
X140700057Y-91135294D02*
X140652438Y-91087675D01*
X140652438Y-91087675D02*
X140604819Y-90992437D01*
X140604819Y-90992437D02*
X140604819Y-90754342D01*
X140604819Y-90754342D02*
X140652438Y-90659104D01*
X140652438Y-90659104D02*
X140700057Y-90611485D01*
X140700057Y-90611485D02*
X140795295Y-90563866D01*
X140795295Y-90563866D02*
X140890533Y-90563866D01*
X140890533Y-90563866D02*
X141033390Y-90611485D01*
X141033390Y-90611485D02*
X141604819Y-91182913D01*
X141604819Y-91182913D02*
X141604819Y-90563866D01*
%TO.C,C12*%
X92464580Y-95994457D02*
X92512200Y-96042076D01*
X92512200Y-96042076D02*
X92559819Y-96184933D01*
X92559819Y-96184933D02*
X92559819Y-96280171D01*
X92559819Y-96280171D02*
X92512200Y-96423028D01*
X92512200Y-96423028D02*
X92416961Y-96518266D01*
X92416961Y-96518266D02*
X92321723Y-96565885D01*
X92321723Y-96565885D02*
X92131247Y-96613504D01*
X92131247Y-96613504D02*
X91988390Y-96613504D01*
X91988390Y-96613504D02*
X91797914Y-96565885D01*
X91797914Y-96565885D02*
X91702676Y-96518266D01*
X91702676Y-96518266D02*
X91607438Y-96423028D01*
X91607438Y-96423028D02*
X91559819Y-96280171D01*
X91559819Y-96280171D02*
X91559819Y-96184933D01*
X91559819Y-96184933D02*
X91607438Y-96042076D01*
X91607438Y-96042076D02*
X91655057Y-95994457D01*
X92559819Y-95042076D02*
X92559819Y-95613504D01*
X92559819Y-95327790D02*
X91559819Y-95327790D01*
X91559819Y-95327790D02*
X91702676Y-95423028D01*
X91702676Y-95423028D02*
X91797914Y-95518266D01*
X91797914Y-95518266D02*
X91845533Y-95613504D01*
X91655057Y-94661123D02*
X91607438Y-94613504D01*
X91607438Y-94613504D02*
X91559819Y-94518266D01*
X91559819Y-94518266D02*
X91559819Y-94280171D01*
X91559819Y-94280171D02*
X91607438Y-94184933D01*
X91607438Y-94184933D02*
X91655057Y-94137314D01*
X91655057Y-94137314D02*
X91750295Y-94089695D01*
X91750295Y-94089695D02*
X91845533Y-94089695D01*
X91845533Y-94089695D02*
X91988390Y-94137314D01*
X91988390Y-94137314D02*
X92559819Y-94708742D01*
X92559819Y-94708742D02*
X92559819Y-94089695D01*
%TO.C,R11*%
X60009142Y-107955419D02*
X59675809Y-107479228D01*
X59437714Y-107955419D02*
X59437714Y-106955419D01*
X59437714Y-106955419D02*
X59818666Y-106955419D01*
X59818666Y-106955419D02*
X59913904Y-107003038D01*
X59913904Y-107003038D02*
X59961523Y-107050657D01*
X59961523Y-107050657D02*
X60009142Y-107145895D01*
X60009142Y-107145895D02*
X60009142Y-107288752D01*
X60009142Y-107288752D02*
X59961523Y-107383990D01*
X59961523Y-107383990D02*
X59913904Y-107431609D01*
X59913904Y-107431609D02*
X59818666Y-107479228D01*
X59818666Y-107479228D02*
X59437714Y-107479228D01*
X60961523Y-107955419D02*
X60390095Y-107955419D01*
X60675809Y-107955419D02*
X60675809Y-106955419D01*
X60675809Y-106955419D02*
X60580571Y-107098276D01*
X60580571Y-107098276D02*
X60485333Y-107193514D01*
X60485333Y-107193514D02*
X60390095Y-107241133D01*
X61913904Y-107955419D02*
X61342476Y-107955419D01*
X61628190Y-107955419D02*
X61628190Y-106955419D01*
X61628190Y-106955419D02*
X61532952Y-107098276D01*
X61532952Y-107098276D02*
X61437714Y-107193514D01*
X61437714Y-107193514D02*
X61342476Y-107241133D01*
%TO.C,C5*%
X117770933Y-78254080D02*
X117723314Y-78301700D01*
X117723314Y-78301700D02*
X117580457Y-78349319D01*
X117580457Y-78349319D02*
X117485219Y-78349319D01*
X117485219Y-78349319D02*
X117342362Y-78301700D01*
X117342362Y-78301700D02*
X117247124Y-78206461D01*
X117247124Y-78206461D02*
X117199505Y-78111223D01*
X117199505Y-78111223D02*
X117151886Y-77920747D01*
X117151886Y-77920747D02*
X117151886Y-77777890D01*
X117151886Y-77777890D02*
X117199505Y-77587414D01*
X117199505Y-77587414D02*
X117247124Y-77492176D01*
X117247124Y-77492176D02*
X117342362Y-77396938D01*
X117342362Y-77396938D02*
X117485219Y-77349319D01*
X117485219Y-77349319D02*
X117580457Y-77349319D01*
X117580457Y-77349319D02*
X117723314Y-77396938D01*
X117723314Y-77396938D02*
X117770933Y-77444557D01*
X118675695Y-77349319D02*
X118199505Y-77349319D01*
X118199505Y-77349319D02*
X118151886Y-77825509D01*
X118151886Y-77825509D02*
X118199505Y-77777890D01*
X118199505Y-77777890D02*
X118294743Y-77730271D01*
X118294743Y-77730271D02*
X118532838Y-77730271D01*
X118532838Y-77730271D02*
X118628076Y-77777890D01*
X118628076Y-77777890D02*
X118675695Y-77825509D01*
X118675695Y-77825509D02*
X118723314Y-77920747D01*
X118723314Y-77920747D02*
X118723314Y-78158842D01*
X118723314Y-78158842D02*
X118675695Y-78254080D01*
X118675695Y-78254080D02*
X118628076Y-78301700D01*
X118628076Y-78301700D02*
X118532838Y-78349319D01*
X118532838Y-78349319D02*
X118294743Y-78349319D01*
X118294743Y-78349319D02*
X118199505Y-78301700D01*
X118199505Y-78301700D02*
X118151886Y-78254080D01*
%TO.C,D3*%
X60365305Y-113129419D02*
X60365305Y-112129419D01*
X60365305Y-112129419D02*
X60603400Y-112129419D01*
X60603400Y-112129419D02*
X60746257Y-112177038D01*
X60746257Y-112177038D02*
X60841495Y-112272276D01*
X60841495Y-112272276D02*
X60889114Y-112367514D01*
X60889114Y-112367514D02*
X60936733Y-112557990D01*
X60936733Y-112557990D02*
X60936733Y-112700847D01*
X60936733Y-112700847D02*
X60889114Y-112891323D01*
X60889114Y-112891323D02*
X60841495Y-112986561D01*
X60841495Y-112986561D02*
X60746257Y-113081800D01*
X60746257Y-113081800D02*
X60603400Y-113129419D01*
X60603400Y-113129419D02*
X60365305Y-113129419D01*
X61270067Y-112129419D02*
X61889114Y-112129419D01*
X61889114Y-112129419D02*
X61555781Y-112510371D01*
X61555781Y-112510371D02*
X61698638Y-112510371D01*
X61698638Y-112510371D02*
X61793876Y-112557990D01*
X61793876Y-112557990D02*
X61841495Y-112605609D01*
X61841495Y-112605609D02*
X61889114Y-112700847D01*
X61889114Y-112700847D02*
X61889114Y-112938942D01*
X61889114Y-112938942D02*
X61841495Y-113034180D01*
X61841495Y-113034180D02*
X61793876Y-113081800D01*
X61793876Y-113081800D02*
X61698638Y-113129419D01*
X61698638Y-113129419D02*
X61412924Y-113129419D01*
X61412924Y-113129419D02*
X61317686Y-113081800D01*
X61317686Y-113081800D02*
X61270067Y-113034180D01*
%TO.C,C16*%
X86882342Y-102272180D02*
X86834723Y-102319800D01*
X86834723Y-102319800D02*
X86691866Y-102367419D01*
X86691866Y-102367419D02*
X86596628Y-102367419D01*
X86596628Y-102367419D02*
X86453771Y-102319800D01*
X86453771Y-102319800D02*
X86358533Y-102224561D01*
X86358533Y-102224561D02*
X86310914Y-102129323D01*
X86310914Y-102129323D02*
X86263295Y-101938847D01*
X86263295Y-101938847D02*
X86263295Y-101795990D01*
X86263295Y-101795990D02*
X86310914Y-101605514D01*
X86310914Y-101605514D02*
X86358533Y-101510276D01*
X86358533Y-101510276D02*
X86453771Y-101415038D01*
X86453771Y-101415038D02*
X86596628Y-101367419D01*
X86596628Y-101367419D02*
X86691866Y-101367419D01*
X86691866Y-101367419D02*
X86834723Y-101415038D01*
X86834723Y-101415038D02*
X86882342Y-101462657D01*
X87834723Y-102367419D02*
X87263295Y-102367419D01*
X87549009Y-102367419D02*
X87549009Y-101367419D01*
X87549009Y-101367419D02*
X87453771Y-101510276D01*
X87453771Y-101510276D02*
X87358533Y-101605514D01*
X87358533Y-101605514D02*
X87263295Y-101653133D01*
X88691866Y-101367419D02*
X88501390Y-101367419D01*
X88501390Y-101367419D02*
X88406152Y-101415038D01*
X88406152Y-101415038D02*
X88358533Y-101462657D01*
X88358533Y-101462657D02*
X88263295Y-101605514D01*
X88263295Y-101605514D02*
X88215676Y-101795990D01*
X88215676Y-101795990D02*
X88215676Y-102176942D01*
X88215676Y-102176942D02*
X88263295Y-102272180D01*
X88263295Y-102272180D02*
X88310914Y-102319800D01*
X88310914Y-102319800D02*
X88406152Y-102367419D01*
X88406152Y-102367419D02*
X88596628Y-102367419D01*
X88596628Y-102367419D02*
X88691866Y-102319800D01*
X88691866Y-102319800D02*
X88739485Y-102272180D01*
X88739485Y-102272180D02*
X88787104Y-102176942D01*
X88787104Y-102176942D02*
X88787104Y-101938847D01*
X88787104Y-101938847D02*
X88739485Y-101843609D01*
X88739485Y-101843609D02*
X88691866Y-101795990D01*
X88691866Y-101795990D02*
X88596628Y-101748371D01*
X88596628Y-101748371D02*
X88406152Y-101748371D01*
X88406152Y-101748371D02*
X88310914Y-101795990D01*
X88310914Y-101795990D02*
X88263295Y-101843609D01*
X88263295Y-101843609D02*
X88215676Y-101938847D01*
%TO.C,U6*%
X99179819Y-84124704D02*
X99989342Y-84124704D01*
X99989342Y-84124704D02*
X100084580Y-84077085D01*
X100084580Y-84077085D02*
X100132200Y-84029466D01*
X100132200Y-84029466D02*
X100179819Y-83934228D01*
X100179819Y-83934228D02*
X100179819Y-83743752D01*
X100179819Y-83743752D02*
X100132200Y-83648514D01*
X100132200Y-83648514D02*
X100084580Y-83600895D01*
X100084580Y-83600895D02*
X99989342Y-83553276D01*
X99989342Y-83553276D02*
X99179819Y-83553276D01*
X99179819Y-82648514D02*
X99179819Y-82838990D01*
X99179819Y-82838990D02*
X99227438Y-82934228D01*
X99227438Y-82934228D02*
X99275057Y-82981847D01*
X99275057Y-82981847D02*
X99417914Y-83077085D01*
X99417914Y-83077085D02*
X99608390Y-83124704D01*
X99608390Y-83124704D02*
X99989342Y-83124704D01*
X99989342Y-83124704D02*
X100084580Y-83077085D01*
X100084580Y-83077085D02*
X100132200Y-83029466D01*
X100132200Y-83029466D02*
X100179819Y-82934228D01*
X100179819Y-82934228D02*
X100179819Y-82743752D01*
X100179819Y-82743752D02*
X100132200Y-82648514D01*
X100132200Y-82648514D02*
X100084580Y-82600895D01*
X100084580Y-82600895D02*
X99989342Y-82553276D01*
X99989342Y-82553276D02*
X99751247Y-82553276D01*
X99751247Y-82553276D02*
X99656009Y-82600895D01*
X99656009Y-82600895D02*
X99608390Y-82648514D01*
X99608390Y-82648514D02*
X99560771Y-82743752D01*
X99560771Y-82743752D02*
X99560771Y-82934228D01*
X99560771Y-82934228D02*
X99608390Y-83029466D01*
X99608390Y-83029466D02*
X99656009Y-83077085D01*
X99656009Y-83077085D02*
X99751247Y-83124704D01*
%TO.C,U4*%
X131401095Y-96262019D02*
X131401095Y-97071542D01*
X131401095Y-97071542D02*
X131448714Y-97166780D01*
X131448714Y-97166780D02*
X131496333Y-97214400D01*
X131496333Y-97214400D02*
X131591571Y-97262019D01*
X131591571Y-97262019D02*
X131782047Y-97262019D01*
X131782047Y-97262019D02*
X131877285Y-97214400D01*
X131877285Y-97214400D02*
X131924904Y-97166780D01*
X131924904Y-97166780D02*
X131972523Y-97071542D01*
X131972523Y-97071542D02*
X131972523Y-96262019D01*
X132877285Y-96595352D02*
X132877285Y-97262019D01*
X132639190Y-96214400D02*
X132401095Y-96928685D01*
X132401095Y-96928685D02*
X133020142Y-96928685D01*
%TO.C,C11*%
X140754392Y-83526980D02*
X140706773Y-83574600D01*
X140706773Y-83574600D02*
X140563916Y-83622219D01*
X140563916Y-83622219D02*
X140468678Y-83622219D01*
X140468678Y-83622219D02*
X140325821Y-83574600D01*
X140325821Y-83574600D02*
X140230583Y-83479361D01*
X140230583Y-83479361D02*
X140182964Y-83384123D01*
X140182964Y-83384123D02*
X140135345Y-83193647D01*
X140135345Y-83193647D02*
X140135345Y-83050790D01*
X140135345Y-83050790D02*
X140182964Y-82860314D01*
X140182964Y-82860314D02*
X140230583Y-82765076D01*
X140230583Y-82765076D02*
X140325821Y-82669838D01*
X140325821Y-82669838D02*
X140468678Y-82622219D01*
X140468678Y-82622219D02*
X140563916Y-82622219D01*
X140563916Y-82622219D02*
X140706773Y-82669838D01*
X140706773Y-82669838D02*
X140754392Y-82717457D01*
X141706773Y-83622219D02*
X141135345Y-83622219D01*
X141421059Y-83622219D02*
X141421059Y-82622219D01*
X141421059Y-82622219D02*
X141325821Y-82765076D01*
X141325821Y-82765076D02*
X141230583Y-82860314D01*
X141230583Y-82860314D02*
X141135345Y-82907933D01*
X142659154Y-83622219D02*
X142087726Y-83622219D01*
X142373440Y-83622219D02*
X142373440Y-82622219D01*
X142373440Y-82622219D02*
X142278202Y-82765076D01*
X142278202Y-82765076D02*
X142182964Y-82860314D01*
X142182964Y-82860314D02*
X142087726Y-82907933D01*
%TO.C,SW4*%
X141557200Y-86931332D02*
X141604819Y-86788475D01*
X141604819Y-86788475D02*
X141604819Y-86550380D01*
X141604819Y-86550380D02*
X141557200Y-86455142D01*
X141557200Y-86455142D02*
X141509580Y-86407523D01*
X141509580Y-86407523D02*
X141414342Y-86359904D01*
X141414342Y-86359904D02*
X141319104Y-86359904D01*
X141319104Y-86359904D02*
X141223866Y-86407523D01*
X141223866Y-86407523D02*
X141176247Y-86455142D01*
X141176247Y-86455142D02*
X141128628Y-86550380D01*
X141128628Y-86550380D02*
X141081009Y-86740856D01*
X141081009Y-86740856D02*
X141033390Y-86836094D01*
X141033390Y-86836094D02*
X140985771Y-86883713D01*
X140985771Y-86883713D02*
X140890533Y-86931332D01*
X140890533Y-86931332D02*
X140795295Y-86931332D01*
X140795295Y-86931332D02*
X140700057Y-86883713D01*
X140700057Y-86883713D02*
X140652438Y-86836094D01*
X140652438Y-86836094D02*
X140604819Y-86740856D01*
X140604819Y-86740856D02*
X140604819Y-86502761D01*
X140604819Y-86502761D02*
X140652438Y-86359904D01*
X140604819Y-86026570D02*
X141604819Y-85788475D01*
X141604819Y-85788475D02*
X140890533Y-85597999D01*
X140890533Y-85597999D02*
X141604819Y-85407523D01*
X141604819Y-85407523D02*
X140604819Y-85169428D01*
X140938152Y-84359904D02*
X141604819Y-84359904D01*
X140557200Y-84597999D02*
X141271485Y-84836094D01*
X141271485Y-84836094D02*
X141271485Y-84217047D01*
%TO.C,R6*%
X55862533Y-110851019D02*
X55529200Y-110374828D01*
X55291105Y-110851019D02*
X55291105Y-109851019D01*
X55291105Y-109851019D02*
X55672057Y-109851019D01*
X55672057Y-109851019D02*
X55767295Y-109898638D01*
X55767295Y-109898638D02*
X55814914Y-109946257D01*
X55814914Y-109946257D02*
X55862533Y-110041495D01*
X55862533Y-110041495D02*
X55862533Y-110184352D01*
X55862533Y-110184352D02*
X55814914Y-110279590D01*
X55814914Y-110279590D02*
X55767295Y-110327209D01*
X55767295Y-110327209D02*
X55672057Y-110374828D01*
X55672057Y-110374828D02*
X55291105Y-110374828D01*
X56719676Y-109851019D02*
X56529200Y-109851019D01*
X56529200Y-109851019D02*
X56433962Y-109898638D01*
X56433962Y-109898638D02*
X56386343Y-109946257D01*
X56386343Y-109946257D02*
X56291105Y-110089114D01*
X56291105Y-110089114D02*
X56243486Y-110279590D01*
X56243486Y-110279590D02*
X56243486Y-110660542D01*
X56243486Y-110660542D02*
X56291105Y-110755780D01*
X56291105Y-110755780D02*
X56338724Y-110803400D01*
X56338724Y-110803400D02*
X56433962Y-110851019D01*
X56433962Y-110851019D02*
X56624438Y-110851019D01*
X56624438Y-110851019D02*
X56719676Y-110803400D01*
X56719676Y-110803400D02*
X56767295Y-110755780D01*
X56767295Y-110755780D02*
X56814914Y-110660542D01*
X56814914Y-110660542D02*
X56814914Y-110422447D01*
X56814914Y-110422447D02*
X56767295Y-110327209D01*
X56767295Y-110327209D02*
X56719676Y-110279590D01*
X56719676Y-110279590D02*
X56624438Y-110231971D01*
X56624438Y-110231971D02*
X56433962Y-110231971D01*
X56433962Y-110231971D02*
X56338724Y-110279590D01*
X56338724Y-110279590D02*
X56291105Y-110327209D01*
X56291105Y-110327209D02*
X56243486Y-110422447D01*
%TO.C,J1*%
X55530619Y-66416191D02*
X56244904Y-66416191D01*
X56244904Y-66416191D02*
X56387761Y-66463810D01*
X56387761Y-66463810D02*
X56483000Y-66559048D01*
X56483000Y-66559048D02*
X56530619Y-66701905D01*
X56530619Y-66701905D02*
X56530619Y-66797143D01*
X56530619Y-65416191D02*
X56530619Y-65987619D01*
X56530619Y-65701905D02*
X55530619Y-65701905D01*
X55530619Y-65701905D02*
X55673476Y-65797143D01*
X55673476Y-65797143D02*
X55768714Y-65892381D01*
X55768714Y-65892381D02*
X55816333Y-65987619D01*
%TO.C,C6*%
X111256180Y-75147466D02*
X111303800Y-75195085D01*
X111303800Y-75195085D02*
X111351419Y-75337942D01*
X111351419Y-75337942D02*
X111351419Y-75433180D01*
X111351419Y-75433180D02*
X111303800Y-75576037D01*
X111303800Y-75576037D02*
X111208561Y-75671275D01*
X111208561Y-75671275D02*
X111113323Y-75718894D01*
X111113323Y-75718894D02*
X110922847Y-75766513D01*
X110922847Y-75766513D02*
X110779990Y-75766513D01*
X110779990Y-75766513D02*
X110589514Y-75718894D01*
X110589514Y-75718894D02*
X110494276Y-75671275D01*
X110494276Y-75671275D02*
X110399038Y-75576037D01*
X110399038Y-75576037D02*
X110351419Y-75433180D01*
X110351419Y-75433180D02*
X110351419Y-75337942D01*
X110351419Y-75337942D02*
X110399038Y-75195085D01*
X110399038Y-75195085D02*
X110446657Y-75147466D01*
X110351419Y-74290323D02*
X110351419Y-74480799D01*
X110351419Y-74480799D02*
X110399038Y-74576037D01*
X110399038Y-74576037D02*
X110446657Y-74623656D01*
X110446657Y-74623656D02*
X110589514Y-74718894D01*
X110589514Y-74718894D02*
X110779990Y-74766513D01*
X110779990Y-74766513D02*
X111160942Y-74766513D01*
X111160942Y-74766513D02*
X111256180Y-74718894D01*
X111256180Y-74718894D02*
X111303800Y-74671275D01*
X111303800Y-74671275D02*
X111351419Y-74576037D01*
X111351419Y-74576037D02*
X111351419Y-74385561D01*
X111351419Y-74385561D02*
X111303800Y-74290323D01*
X111303800Y-74290323D02*
X111256180Y-74242704D01*
X111256180Y-74242704D02*
X111160942Y-74195085D01*
X111160942Y-74195085D02*
X110922847Y-74195085D01*
X110922847Y-74195085D02*
X110827609Y-74242704D01*
X110827609Y-74242704D02*
X110779990Y-74290323D01*
X110779990Y-74290323D02*
X110732371Y-74385561D01*
X110732371Y-74385561D02*
X110732371Y-74576037D01*
X110732371Y-74576037D02*
X110779990Y-74671275D01*
X110779990Y-74671275D02*
X110827609Y-74718894D01*
X110827609Y-74718894D02*
X110922847Y-74766513D01*
%TO.C,C13*%
X102726180Y-92590457D02*
X102773800Y-92638076D01*
X102773800Y-92638076D02*
X102821419Y-92780933D01*
X102821419Y-92780933D02*
X102821419Y-92876171D01*
X102821419Y-92876171D02*
X102773800Y-93019028D01*
X102773800Y-93019028D02*
X102678561Y-93114266D01*
X102678561Y-93114266D02*
X102583323Y-93161885D01*
X102583323Y-93161885D02*
X102392847Y-93209504D01*
X102392847Y-93209504D02*
X102249990Y-93209504D01*
X102249990Y-93209504D02*
X102059514Y-93161885D01*
X102059514Y-93161885D02*
X101964276Y-93114266D01*
X101964276Y-93114266D02*
X101869038Y-93019028D01*
X101869038Y-93019028D02*
X101821419Y-92876171D01*
X101821419Y-92876171D02*
X101821419Y-92780933D01*
X101821419Y-92780933D02*
X101869038Y-92638076D01*
X101869038Y-92638076D02*
X101916657Y-92590457D01*
X102821419Y-91638076D02*
X102821419Y-92209504D01*
X102821419Y-91923790D02*
X101821419Y-91923790D01*
X101821419Y-91923790D02*
X101964276Y-92019028D01*
X101964276Y-92019028D02*
X102059514Y-92114266D01*
X102059514Y-92114266D02*
X102107133Y-92209504D01*
X101821419Y-91304742D02*
X101821419Y-90685695D01*
X101821419Y-90685695D02*
X102202371Y-91019028D01*
X102202371Y-91019028D02*
X102202371Y-90876171D01*
X102202371Y-90876171D02*
X102249990Y-90780933D01*
X102249990Y-90780933D02*
X102297609Y-90733314D01*
X102297609Y-90733314D02*
X102392847Y-90685695D01*
X102392847Y-90685695D02*
X102630942Y-90685695D01*
X102630942Y-90685695D02*
X102726180Y-90733314D01*
X102726180Y-90733314D02*
X102773800Y-90780933D01*
X102773800Y-90780933D02*
X102821419Y-90876171D01*
X102821419Y-90876171D02*
X102821419Y-91161885D01*
X102821419Y-91161885D02*
X102773800Y-91257123D01*
X102773800Y-91257123D02*
X102726180Y-91304742D01*
%TO.C,C7*%
X108240533Y-65942580D02*
X108192914Y-65990200D01*
X108192914Y-65990200D02*
X108050057Y-66037819D01*
X108050057Y-66037819D02*
X107954819Y-66037819D01*
X107954819Y-66037819D02*
X107811962Y-65990200D01*
X107811962Y-65990200D02*
X107716724Y-65894961D01*
X107716724Y-65894961D02*
X107669105Y-65799723D01*
X107669105Y-65799723D02*
X107621486Y-65609247D01*
X107621486Y-65609247D02*
X107621486Y-65466390D01*
X107621486Y-65466390D02*
X107669105Y-65275914D01*
X107669105Y-65275914D02*
X107716724Y-65180676D01*
X107716724Y-65180676D02*
X107811962Y-65085438D01*
X107811962Y-65085438D02*
X107954819Y-65037819D01*
X107954819Y-65037819D02*
X108050057Y-65037819D01*
X108050057Y-65037819D02*
X108192914Y-65085438D01*
X108192914Y-65085438D02*
X108240533Y-65133057D01*
X108573867Y-65037819D02*
X109240533Y-65037819D01*
X109240533Y-65037819D02*
X108811962Y-66037819D01*
%TO.C,R3*%
X75623733Y-89464219D02*
X75290400Y-88988028D01*
X75052305Y-89464219D02*
X75052305Y-88464219D01*
X75052305Y-88464219D02*
X75433257Y-88464219D01*
X75433257Y-88464219D02*
X75528495Y-88511838D01*
X75528495Y-88511838D02*
X75576114Y-88559457D01*
X75576114Y-88559457D02*
X75623733Y-88654695D01*
X75623733Y-88654695D02*
X75623733Y-88797552D01*
X75623733Y-88797552D02*
X75576114Y-88892790D01*
X75576114Y-88892790D02*
X75528495Y-88940409D01*
X75528495Y-88940409D02*
X75433257Y-88988028D01*
X75433257Y-88988028D02*
X75052305Y-88988028D01*
X75957067Y-88464219D02*
X76576114Y-88464219D01*
X76576114Y-88464219D02*
X76242781Y-88845171D01*
X76242781Y-88845171D02*
X76385638Y-88845171D01*
X76385638Y-88845171D02*
X76480876Y-88892790D01*
X76480876Y-88892790D02*
X76528495Y-88940409D01*
X76528495Y-88940409D02*
X76576114Y-89035647D01*
X76576114Y-89035647D02*
X76576114Y-89273742D01*
X76576114Y-89273742D02*
X76528495Y-89368980D01*
X76528495Y-89368980D02*
X76480876Y-89416600D01*
X76480876Y-89416600D02*
X76385638Y-89464219D01*
X76385638Y-89464219D02*
X76099924Y-89464219D01*
X76099924Y-89464219D02*
X76004686Y-89416600D01*
X76004686Y-89416600D02*
X75957067Y-89368980D01*
%TO.C,U2*%
X75841295Y-106701419D02*
X75841295Y-107510942D01*
X75841295Y-107510942D02*
X75888914Y-107606180D01*
X75888914Y-107606180D02*
X75936533Y-107653800D01*
X75936533Y-107653800D02*
X76031771Y-107701419D01*
X76031771Y-107701419D02*
X76222247Y-107701419D01*
X76222247Y-107701419D02*
X76317485Y-107653800D01*
X76317485Y-107653800D02*
X76365104Y-107606180D01*
X76365104Y-107606180D02*
X76412723Y-107510942D01*
X76412723Y-107510942D02*
X76412723Y-106701419D01*
X76841295Y-106796657D02*
X76888914Y-106749038D01*
X76888914Y-106749038D02*
X76984152Y-106701419D01*
X76984152Y-106701419D02*
X77222247Y-106701419D01*
X77222247Y-106701419D02*
X77317485Y-106749038D01*
X77317485Y-106749038D02*
X77365104Y-106796657D01*
X77365104Y-106796657D02*
X77412723Y-106891895D01*
X77412723Y-106891895D02*
X77412723Y-106987133D01*
X77412723Y-106987133D02*
X77365104Y-107129990D01*
X77365104Y-107129990D02*
X76793676Y-107701419D01*
X76793676Y-107701419D02*
X77412723Y-107701419D01*
X70400171Y-114907419D02*
X70400171Y-113907419D01*
X70971599Y-114907419D02*
X70543028Y-114335990D01*
X70971599Y-113907419D02*
X70400171Y-114478847D01*
X71400171Y-114383609D02*
X71733504Y-114383609D01*
X71876361Y-114907419D02*
X71400171Y-114907419D01*
X71400171Y-114907419D02*
X71400171Y-113907419D01*
X71400171Y-113907419D02*
X71876361Y-113907419D01*
X72304933Y-114383609D02*
X72638266Y-114383609D01*
X72781123Y-114907419D02*
X72304933Y-114907419D01*
X72304933Y-114907419D02*
X72304933Y-113907419D01*
X72304933Y-113907419D02*
X72781123Y-113907419D01*
X73209695Y-114907419D02*
X73209695Y-113907419D01*
X73209695Y-113907419D02*
X73590647Y-113907419D01*
X73590647Y-113907419D02*
X73685885Y-113955038D01*
X73685885Y-113955038D02*
X73733504Y-114002657D01*
X73733504Y-114002657D02*
X73781123Y-114097895D01*
X73781123Y-114097895D02*
X73781123Y-114240752D01*
X73781123Y-114240752D02*
X73733504Y-114335990D01*
X73733504Y-114335990D02*
X73685885Y-114383609D01*
X73685885Y-114383609D02*
X73590647Y-114431228D01*
X73590647Y-114431228D02*
X73209695Y-114431228D01*
X74209695Y-114526466D02*
X74971600Y-114526466D01*
X75638266Y-113907419D02*
X75828742Y-113907419D01*
X75828742Y-113907419D02*
X75923980Y-113955038D01*
X75923980Y-113955038D02*
X76019218Y-114050276D01*
X76019218Y-114050276D02*
X76066837Y-114240752D01*
X76066837Y-114240752D02*
X76066837Y-114574085D01*
X76066837Y-114574085D02*
X76019218Y-114764561D01*
X76019218Y-114764561D02*
X75923980Y-114859800D01*
X75923980Y-114859800D02*
X75828742Y-114907419D01*
X75828742Y-114907419D02*
X75638266Y-114907419D01*
X75638266Y-114907419D02*
X75543028Y-114859800D01*
X75543028Y-114859800D02*
X75447790Y-114764561D01*
X75447790Y-114764561D02*
X75400171Y-114574085D01*
X75400171Y-114574085D02*
X75400171Y-114240752D01*
X75400171Y-114240752D02*
X75447790Y-114050276D01*
X75447790Y-114050276D02*
X75543028Y-113955038D01*
X75543028Y-113955038D02*
X75638266Y-113907419D01*
X76495409Y-113907419D02*
X76495409Y-114716942D01*
X76495409Y-114716942D02*
X76543028Y-114812180D01*
X76543028Y-114812180D02*
X76590647Y-114859800D01*
X76590647Y-114859800D02*
X76685885Y-114907419D01*
X76685885Y-114907419D02*
X76876361Y-114907419D01*
X76876361Y-114907419D02*
X76971599Y-114859800D01*
X76971599Y-114859800D02*
X77019218Y-114812180D01*
X77019218Y-114812180D02*
X77066837Y-114716942D01*
X77066837Y-114716942D02*
X77066837Y-113907419D01*
X77400171Y-113907419D02*
X77971599Y-113907419D01*
X77685885Y-114907419D02*
X77685885Y-113907419D01*
X78971600Y-113907419D02*
X79638266Y-113907419D01*
X79638266Y-113907419D02*
X78971600Y-114907419D01*
X78971600Y-114907419D02*
X79638266Y-114907419D01*
X80209695Y-113907419D02*
X80400171Y-113907419D01*
X80400171Y-113907419D02*
X80495409Y-113955038D01*
X80495409Y-113955038D02*
X80590647Y-114050276D01*
X80590647Y-114050276D02*
X80638266Y-114240752D01*
X80638266Y-114240752D02*
X80638266Y-114574085D01*
X80638266Y-114574085D02*
X80590647Y-114764561D01*
X80590647Y-114764561D02*
X80495409Y-114859800D01*
X80495409Y-114859800D02*
X80400171Y-114907419D01*
X80400171Y-114907419D02*
X80209695Y-114907419D01*
X80209695Y-114907419D02*
X80114457Y-114859800D01*
X80114457Y-114859800D02*
X80019219Y-114764561D01*
X80019219Y-114764561D02*
X79971600Y-114574085D01*
X79971600Y-114574085D02*
X79971600Y-114240752D01*
X79971600Y-114240752D02*
X80019219Y-114050276D01*
X80019219Y-114050276D02*
X80114457Y-113955038D01*
X80114457Y-113955038D02*
X80209695Y-113907419D01*
X81066838Y-114907419D02*
X81066838Y-113907419D01*
X81066838Y-113907419D02*
X81638266Y-114907419D01*
X81638266Y-114907419D02*
X81638266Y-113907419D01*
X82114457Y-114383609D02*
X82447790Y-114383609D01*
X82590647Y-114907419D02*
X82114457Y-114907419D01*
X82114457Y-114907419D02*
X82114457Y-113907419D01*
X82114457Y-113907419D02*
X82590647Y-113907419D01*
X73799695Y-112071704D02*
X74275885Y-112071704D01*
X73704457Y-112357419D02*
X74037790Y-111357419D01*
X74037790Y-111357419D02*
X74371123Y-112357419D01*
X74704457Y-111690752D02*
X74704457Y-112357419D01*
X74704457Y-111785990D02*
X74752076Y-111738371D01*
X74752076Y-111738371D02*
X74847314Y-111690752D01*
X74847314Y-111690752D02*
X74990171Y-111690752D01*
X74990171Y-111690752D02*
X75085409Y-111738371D01*
X75085409Y-111738371D02*
X75133028Y-111833609D01*
X75133028Y-111833609D02*
X75133028Y-112357419D01*
X75466362Y-111690752D02*
X75847314Y-111690752D01*
X75609219Y-111357419D02*
X75609219Y-112214561D01*
X75609219Y-112214561D02*
X75656838Y-112309800D01*
X75656838Y-112309800D02*
X75752076Y-112357419D01*
X75752076Y-112357419D02*
X75847314Y-112357419D01*
X76561600Y-112309800D02*
X76466362Y-112357419D01*
X76466362Y-112357419D02*
X76275886Y-112357419D01*
X76275886Y-112357419D02*
X76180648Y-112309800D01*
X76180648Y-112309800D02*
X76133029Y-112214561D01*
X76133029Y-112214561D02*
X76133029Y-111833609D01*
X76133029Y-111833609D02*
X76180648Y-111738371D01*
X76180648Y-111738371D02*
X76275886Y-111690752D01*
X76275886Y-111690752D02*
X76466362Y-111690752D01*
X76466362Y-111690752D02*
X76561600Y-111738371D01*
X76561600Y-111738371D02*
X76609219Y-111833609D01*
X76609219Y-111833609D02*
X76609219Y-111928847D01*
X76609219Y-111928847D02*
X76133029Y-112024085D01*
X77037791Y-111690752D02*
X77037791Y-112357419D01*
X77037791Y-111785990D02*
X77085410Y-111738371D01*
X77085410Y-111738371D02*
X77180648Y-111690752D01*
X77180648Y-111690752D02*
X77323505Y-111690752D01*
X77323505Y-111690752D02*
X77418743Y-111738371D01*
X77418743Y-111738371D02*
X77466362Y-111833609D01*
X77466362Y-111833609D02*
X77466362Y-112357419D01*
X77942553Y-111690752D02*
X77942553Y-112357419D01*
X77942553Y-111785990D02*
X77990172Y-111738371D01*
X77990172Y-111738371D02*
X78085410Y-111690752D01*
X78085410Y-111690752D02*
X78228267Y-111690752D01*
X78228267Y-111690752D02*
X78323505Y-111738371D01*
X78323505Y-111738371D02*
X78371124Y-111833609D01*
X78371124Y-111833609D02*
X78371124Y-112357419D01*
X79275886Y-112357419D02*
X79275886Y-111833609D01*
X79275886Y-111833609D02*
X79228267Y-111738371D01*
X79228267Y-111738371D02*
X79133029Y-111690752D01*
X79133029Y-111690752D02*
X78942553Y-111690752D01*
X78942553Y-111690752D02*
X78847315Y-111738371D01*
X79275886Y-112309800D02*
X79180648Y-112357419D01*
X79180648Y-112357419D02*
X78942553Y-112357419D01*
X78942553Y-112357419D02*
X78847315Y-112309800D01*
X78847315Y-112309800D02*
X78799696Y-112214561D01*
X78799696Y-112214561D02*
X78799696Y-112119323D01*
X78799696Y-112119323D02*
X78847315Y-112024085D01*
X78847315Y-112024085D02*
X78942553Y-111976466D01*
X78942553Y-111976466D02*
X79180648Y-111976466D01*
X79180648Y-111976466D02*
X79275886Y-111928847D01*
%TO.C,C3*%
X87615733Y-92718180D02*
X87568114Y-92765800D01*
X87568114Y-92765800D02*
X87425257Y-92813419D01*
X87425257Y-92813419D02*
X87330019Y-92813419D01*
X87330019Y-92813419D02*
X87187162Y-92765800D01*
X87187162Y-92765800D02*
X87091924Y-92670561D01*
X87091924Y-92670561D02*
X87044305Y-92575323D01*
X87044305Y-92575323D02*
X86996686Y-92384847D01*
X86996686Y-92384847D02*
X86996686Y-92241990D01*
X86996686Y-92241990D02*
X87044305Y-92051514D01*
X87044305Y-92051514D02*
X87091924Y-91956276D01*
X87091924Y-91956276D02*
X87187162Y-91861038D01*
X87187162Y-91861038D02*
X87330019Y-91813419D01*
X87330019Y-91813419D02*
X87425257Y-91813419D01*
X87425257Y-91813419D02*
X87568114Y-91861038D01*
X87568114Y-91861038D02*
X87615733Y-91908657D01*
X87949067Y-91813419D02*
X88568114Y-91813419D01*
X88568114Y-91813419D02*
X88234781Y-92194371D01*
X88234781Y-92194371D02*
X88377638Y-92194371D01*
X88377638Y-92194371D02*
X88472876Y-92241990D01*
X88472876Y-92241990D02*
X88520495Y-92289609D01*
X88520495Y-92289609D02*
X88568114Y-92384847D01*
X88568114Y-92384847D02*
X88568114Y-92622942D01*
X88568114Y-92622942D02*
X88520495Y-92718180D01*
X88520495Y-92718180D02*
X88472876Y-92765800D01*
X88472876Y-92765800D02*
X88377638Y-92813419D01*
X88377638Y-92813419D02*
X88091924Y-92813419D01*
X88091924Y-92813419D02*
X87996686Y-92765800D01*
X87996686Y-92765800D02*
X87949067Y-92718180D01*
%TO.C,C15*%
X87136342Y-100748180D02*
X87088723Y-100795800D01*
X87088723Y-100795800D02*
X86945866Y-100843419D01*
X86945866Y-100843419D02*
X86850628Y-100843419D01*
X86850628Y-100843419D02*
X86707771Y-100795800D01*
X86707771Y-100795800D02*
X86612533Y-100700561D01*
X86612533Y-100700561D02*
X86564914Y-100605323D01*
X86564914Y-100605323D02*
X86517295Y-100414847D01*
X86517295Y-100414847D02*
X86517295Y-100271990D01*
X86517295Y-100271990D02*
X86564914Y-100081514D01*
X86564914Y-100081514D02*
X86612533Y-99986276D01*
X86612533Y-99986276D02*
X86707771Y-99891038D01*
X86707771Y-99891038D02*
X86850628Y-99843419D01*
X86850628Y-99843419D02*
X86945866Y-99843419D01*
X86945866Y-99843419D02*
X87088723Y-99891038D01*
X87088723Y-99891038D02*
X87136342Y-99938657D01*
X88088723Y-100843419D02*
X87517295Y-100843419D01*
X87803009Y-100843419D02*
X87803009Y-99843419D01*
X87803009Y-99843419D02*
X87707771Y-99986276D01*
X87707771Y-99986276D02*
X87612533Y-100081514D01*
X87612533Y-100081514D02*
X87517295Y-100129133D01*
X88993485Y-99843419D02*
X88517295Y-99843419D01*
X88517295Y-99843419D02*
X88469676Y-100319609D01*
X88469676Y-100319609D02*
X88517295Y-100271990D01*
X88517295Y-100271990D02*
X88612533Y-100224371D01*
X88612533Y-100224371D02*
X88850628Y-100224371D01*
X88850628Y-100224371D02*
X88945866Y-100271990D01*
X88945866Y-100271990D02*
X88993485Y-100319609D01*
X88993485Y-100319609D02*
X89041104Y-100414847D01*
X89041104Y-100414847D02*
X89041104Y-100652942D01*
X89041104Y-100652942D02*
X88993485Y-100748180D01*
X88993485Y-100748180D02*
X88945866Y-100795800D01*
X88945866Y-100795800D02*
X88850628Y-100843419D01*
X88850628Y-100843419D02*
X88612533Y-100843419D01*
X88612533Y-100843419D02*
X88517295Y-100795800D01*
X88517295Y-100795800D02*
X88469676Y-100748180D01*
%TO.C,J3*%
X52041466Y-58289019D02*
X52041466Y-59003304D01*
X52041466Y-59003304D02*
X51993847Y-59146161D01*
X51993847Y-59146161D02*
X51898609Y-59241400D01*
X51898609Y-59241400D02*
X51755752Y-59289019D01*
X51755752Y-59289019D02*
X51660514Y-59289019D01*
X52422419Y-58289019D02*
X53041466Y-58289019D01*
X53041466Y-58289019D02*
X52708133Y-58669971D01*
X52708133Y-58669971D02*
X52850990Y-58669971D01*
X52850990Y-58669971D02*
X52946228Y-58717590D01*
X52946228Y-58717590D02*
X52993847Y-58765209D01*
X52993847Y-58765209D02*
X53041466Y-58860447D01*
X53041466Y-58860447D02*
X53041466Y-59098542D01*
X53041466Y-59098542D02*
X52993847Y-59193780D01*
X52993847Y-59193780D02*
X52946228Y-59241400D01*
X52946228Y-59241400D02*
X52850990Y-59289019D01*
X52850990Y-59289019D02*
X52565276Y-59289019D01*
X52565276Y-59289019D02*
X52470038Y-59241400D01*
X52470038Y-59241400D02*
X52422419Y-59193780D01*
%TO.C,R2*%
X79890933Y-89413419D02*
X79557600Y-88937228D01*
X79319505Y-89413419D02*
X79319505Y-88413419D01*
X79319505Y-88413419D02*
X79700457Y-88413419D01*
X79700457Y-88413419D02*
X79795695Y-88461038D01*
X79795695Y-88461038D02*
X79843314Y-88508657D01*
X79843314Y-88508657D02*
X79890933Y-88603895D01*
X79890933Y-88603895D02*
X79890933Y-88746752D01*
X79890933Y-88746752D02*
X79843314Y-88841990D01*
X79843314Y-88841990D02*
X79795695Y-88889609D01*
X79795695Y-88889609D02*
X79700457Y-88937228D01*
X79700457Y-88937228D02*
X79319505Y-88937228D01*
X80271886Y-88508657D02*
X80319505Y-88461038D01*
X80319505Y-88461038D02*
X80414743Y-88413419D01*
X80414743Y-88413419D02*
X80652838Y-88413419D01*
X80652838Y-88413419D02*
X80748076Y-88461038D01*
X80748076Y-88461038D02*
X80795695Y-88508657D01*
X80795695Y-88508657D02*
X80843314Y-88603895D01*
X80843314Y-88603895D02*
X80843314Y-88699133D01*
X80843314Y-88699133D02*
X80795695Y-88841990D01*
X80795695Y-88841990D02*
X80224267Y-89413419D01*
X80224267Y-89413419D02*
X80843314Y-89413419D01*
%TO.C,R17*%
X92610619Y-92540057D02*
X92134428Y-92873390D01*
X92610619Y-93111485D02*
X91610619Y-93111485D01*
X91610619Y-93111485D02*
X91610619Y-92730533D01*
X91610619Y-92730533D02*
X91658238Y-92635295D01*
X91658238Y-92635295D02*
X91705857Y-92587676D01*
X91705857Y-92587676D02*
X91801095Y-92540057D01*
X91801095Y-92540057D02*
X91943952Y-92540057D01*
X91943952Y-92540057D02*
X92039190Y-92587676D01*
X92039190Y-92587676D02*
X92086809Y-92635295D01*
X92086809Y-92635295D02*
X92134428Y-92730533D01*
X92134428Y-92730533D02*
X92134428Y-93111485D01*
X92610619Y-91587676D02*
X92610619Y-92159104D01*
X92610619Y-91873390D02*
X91610619Y-91873390D01*
X91610619Y-91873390D02*
X91753476Y-91968628D01*
X91753476Y-91968628D02*
X91848714Y-92063866D01*
X91848714Y-92063866D02*
X91896333Y-92159104D01*
X91610619Y-91254342D02*
X91610619Y-90587676D01*
X91610619Y-90587676D02*
X92610619Y-91016247D01*
%TO.C,C1*%
X127388933Y-84144180D02*
X127341314Y-84191800D01*
X127341314Y-84191800D02*
X127198457Y-84239419D01*
X127198457Y-84239419D02*
X127103219Y-84239419D01*
X127103219Y-84239419D02*
X126960362Y-84191800D01*
X126960362Y-84191800D02*
X126865124Y-84096561D01*
X126865124Y-84096561D02*
X126817505Y-84001323D01*
X126817505Y-84001323D02*
X126769886Y-83810847D01*
X126769886Y-83810847D02*
X126769886Y-83667990D01*
X126769886Y-83667990D02*
X126817505Y-83477514D01*
X126817505Y-83477514D02*
X126865124Y-83382276D01*
X126865124Y-83382276D02*
X126960362Y-83287038D01*
X126960362Y-83287038D02*
X127103219Y-83239419D01*
X127103219Y-83239419D02*
X127198457Y-83239419D01*
X127198457Y-83239419D02*
X127341314Y-83287038D01*
X127341314Y-83287038D02*
X127388933Y-83334657D01*
X128341314Y-84239419D02*
X127769886Y-84239419D01*
X128055600Y-84239419D02*
X128055600Y-83239419D01*
X128055600Y-83239419D02*
X127960362Y-83382276D01*
X127960362Y-83382276D02*
X127865124Y-83477514D01*
X127865124Y-83477514D02*
X127769886Y-83525133D01*
%TO.C,C14*%
X101252980Y-92514257D02*
X101300600Y-92561876D01*
X101300600Y-92561876D02*
X101348219Y-92704733D01*
X101348219Y-92704733D02*
X101348219Y-92799971D01*
X101348219Y-92799971D02*
X101300600Y-92942828D01*
X101300600Y-92942828D02*
X101205361Y-93038066D01*
X101205361Y-93038066D02*
X101110123Y-93085685D01*
X101110123Y-93085685D02*
X100919647Y-93133304D01*
X100919647Y-93133304D02*
X100776790Y-93133304D01*
X100776790Y-93133304D02*
X100586314Y-93085685D01*
X100586314Y-93085685D02*
X100491076Y-93038066D01*
X100491076Y-93038066D02*
X100395838Y-92942828D01*
X100395838Y-92942828D02*
X100348219Y-92799971D01*
X100348219Y-92799971D02*
X100348219Y-92704733D01*
X100348219Y-92704733D02*
X100395838Y-92561876D01*
X100395838Y-92561876D02*
X100443457Y-92514257D01*
X101348219Y-91561876D02*
X101348219Y-92133304D01*
X101348219Y-91847590D02*
X100348219Y-91847590D01*
X100348219Y-91847590D02*
X100491076Y-91942828D01*
X100491076Y-91942828D02*
X100586314Y-92038066D01*
X100586314Y-92038066D02*
X100633933Y-92133304D01*
X100681552Y-90704733D02*
X101348219Y-90704733D01*
X100300600Y-90942828D02*
X101014885Y-91180923D01*
X101014885Y-91180923D02*
X101014885Y-90561876D01*
%TO.C,R5*%
X68054533Y-89311819D02*
X67721200Y-88835628D01*
X67483105Y-89311819D02*
X67483105Y-88311819D01*
X67483105Y-88311819D02*
X67864057Y-88311819D01*
X67864057Y-88311819D02*
X67959295Y-88359438D01*
X67959295Y-88359438D02*
X68006914Y-88407057D01*
X68006914Y-88407057D02*
X68054533Y-88502295D01*
X68054533Y-88502295D02*
X68054533Y-88645152D01*
X68054533Y-88645152D02*
X68006914Y-88740390D01*
X68006914Y-88740390D02*
X67959295Y-88788009D01*
X67959295Y-88788009D02*
X67864057Y-88835628D01*
X67864057Y-88835628D02*
X67483105Y-88835628D01*
X68959295Y-88311819D02*
X68483105Y-88311819D01*
X68483105Y-88311819D02*
X68435486Y-88788009D01*
X68435486Y-88788009D02*
X68483105Y-88740390D01*
X68483105Y-88740390D02*
X68578343Y-88692771D01*
X68578343Y-88692771D02*
X68816438Y-88692771D01*
X68816438Y-88692771D02*
X68911676Y-88740390D01*
X68911676Y-88740390D02*
X68959295Y-88788009D01*
X68959295Y-88788009D02*
X69006914Y-88883247D01*
X69006914Y-88883247D02*
X69006914Y-89121342D01*
X69006914Y-89121342D02*
X68959295Y-89216580D01*
X68959295Y-89216580D02*
X68911676Y-89264200D01*
X68911676Y-89264200D02*
X68816438Y-89311819D01*
X68816438Y-89311819D02*
X68578343Y-89311819D01*
X68578343Y-89311819D02*
X68483105Y-89264200D01*
X68483105Y-89264200D02*
X68435486Y-89216580D01*
%TO.C,U1*%
X116176495Y-91715419D02*
X116176495Y-92524942D01*
X116176495Y-92524942D02*
X116224114Y-92620180D01*
X116224114Y-92620180D02*
X116271733Y-92667800D01*
X116271733Y-92667800D02*
X116366971Y-92715419D01*
X116366971Y-92715419D02*
X116557447Y-92715419D01*
X116557447Y-92715419D02*
X116652685Y-92667800D01*
X116652685Y-92667800D02*
X116700304Y-92620180D01*
X116700304Y-92620180D02*
X116747923Y-92524942D01*
X116747923Y-92524942D02*
X116747923Y-91715419D01*
X117747923Y-92715419D02*
X117176495Y-92715419D01*
X117462209Y-92715419D02*
X117462209Y-91715419D01*
X117462209Y-91715419D02*
X117366971Y-91858276D01*
X117366971Y-91858276D02*
X117271733Y-91953514D01*
X117271733Y-91953514D02*
X117176495Y-92001133D01*
%TO.C,R13*%
X140873819Y-98686857D02*
X140397628Y-99020190D01*
X140873819Y-99258285D02*
X139873819Y-99258285D01*
X139873819Y-99258285D02*
X139873819Y-98877333D01*
X139873819Y-98877333D02*
X139921438Y-98782095D01*
X139921438Y-98782095D02*
X139969057Y-98734476D01*
X139969057Y-98734476D02*
X140064295Y-98686857D01*
X140064295Y-98686857D02*
X140207152Y-98686857D01*
X140207152Y-98686857D02*
X140302390Y-98734476D01*
X140302390Y-98734476D02*
X140350009Y-98782095D01*
X140350009Y-98782095D02*
X140397628Y-98877333D01*
X140397628Y-98877333D02*
X140397628Y-99258285D01*
X140873819Y-97734476D02*
X140873819Y-98305904D01*
X140873819Y-98020190D02*
X139873819Y-98020190D01*
X139873819Y-98020190D02*
X140016676Y-98115428D01*
X140016676Y-98115428D02*
X140111914Y-98210666D01*
X140111914Y-98210666D02*
X140159533Y-98305904D01*
X139873819Y-97401142D02*
X139873819Y-96782095D01*
X139873819Y-96782095D02*
X140254771Y-97115428D01*
X140254771Y-97115428D02*
X140254771Y-96972571D01*
X140254771Y-96972571D02*
X140302390Y-96877333D01*
X140302390Y-96877333D02*
X140350009Y-96829714D01*
X140350009Y-96829714D02*
X140445247Y-96782095D01*
X140445247Y-96782095D02*
X140683342Y-96782095D01*
X140683342Y-96782095D02*
X140778580Y-96829714D01*
X140778580Y-96829714D02*
X140826200Y-96877333D01*
X140826200Y-96877333D02*
X140873819Y-96972571D01*
X140873819Y-96972571D02*
X140873819Y-97258285D01*
X140873819Y-97258285D02*
X140826200Y-97353523D01*
X140826200Y-97353523D02*
X140778580Y-97401142D01*
%TO.C,R7*%
X64041333Y-110901819D02*
X63708000Y-110425628D01*
X63469905Y-110901819D02*
X63469905Y-109901819D01*
X63469905Y-109901819D02*
X63850857Y-109901819D01*
X63850857Y-109901819D02*
X63946095Y-109949438D01*
X63946095Y-109949438D02*
X63993714Y-109997057D01*
X63993714Y-109997057D02*
X64041333Y-110092295D01*
X64041333Y-110092295D02*
X64041333Y-110235152D01*
X64041333Y-110235152D02*
X63993714Y-110330390D01*
X63993714Y-110330390D02*
X63946095Y-110378009D01*
X63946095Y-110378009D02*
X63850857Y-110425628D01*
X63850857Y-110425628D02*
X63469905Y-110425628D01*
X64374667Y-109901819D02*
X65041333Y-109901819D01*
X65041333Y-109901819D02*
X64612762Y-110901819D01*
%TO.C,C17*%
X102014980Y-96299257D02*
X102062600Y-96346876D01*
X102062600Y-96346876D02*
X102110219Y-96489733D01*
X102110219Y-96489733D02*
X102110219Y-96584971D01*
X102110219Y-96584971D02*
X102062600Y-96727828D01*
X102062600Y-96727828D02*
X101967361Y-96823066D01*
X101967361Y-96823066D02*
X101872123Y-96870685D01*
X101872123Y-96870685D02*
X101681647Y-96918304D01*
X101681647Y-96918304D02*
X101538790Y-96918304D01*
X101538790Y-96918304D02*
X101348314Y-96870685D01*
X101348314Y-96870685D02*
X101253076Y-96823066D01*
X101253076Y-96823066D02*
X101157838Y-96727828D01*
X101157838Y-96727828D02*
X101110219Y-96584971D01*
X101110219Y-96584971D02*
X101110219Y-96489733D01*
X101110219Y-96489733D02*
X101157838Y-96346876D01*
X101157838Y-96346876D02*
X101205457Y-96299257D01*
X102110219Y-95346876D02*
X102110219Y-95918304D01*
X102110219Y-95632590D02*
X101110219Y-95632590D01*
X101110219Y-95632590D02*
X101253076Y-95727828D01*
X101253076Y-95727828D02*
X101348314Y-95823066D01*
X101348314Y-95823066D02*
X101395933Y-95918304D01*
X101110219Y-95013542D02*
X101110219Y-94346876D01*
X101110219Y-94346876D02*
X102110219Y-94775447D01*
%TO.C,C4*%
X56907780Y-74516266D02*
X56955400Y-74563885D01*
X56955400Y-74563885D02*
X57003019Y-74706742D01*
X57003019Y-74706742D02*
X57003019Y-74801980D01*
X57003019Y-74801980D02*
X56955400Y-74944837D01*
X56955400Y-74944837D02*
X56860161Y-75040075D01*
X56860161Y-75040075D02*
X56764923Y-75087694D01*
X56764923Y-75087694D02*
X56574447Y-75135313D01*
X56574447Y-75135313D02*
X56431590Y-75135313D01*
X56431590Y-75135313D02*
X56241114Y-75087694D01*
X56241114Y-75087694D02*
X56145876Y-75040075D01*
X56145876Y-75040075D02*
X56050638Y-74944837D01*
X56050638Y-74944837D02*
X56003019Y-74801980D01*
X56003019Y-74801980D02*
X56003019Y-74706742D01*
X56003019Y-74706742D02*
X56050638Y-74563885D01*
X56050638Y-74563885D02*
X56098257Y-74516266D01*
X56336352Y-73659123D02*
X57003019Y-73659123D01*
X55955400Y-73897218D02*
X56669685Y-74135313D01*
X56669685Y-74135313D02*
X56669685Y-73516266D01*
%TO.C,SW3*%
X141557200Y-99631332D02*
X141604819Y-99488475D01*
X141604819Y-99488475D02*
X141604819Y-99250380D01*
X141604819Y-99250380D02*
X141557200Y-99155142D01*
X141557200Y-99155142D02*
X141509580Y-99107523D01*
X141509580Y-99107523D02*
X141414342Y-99059904D01*
X141414342Y-99059904D02*
X141319104Y-99059904D01*
X141319104Y-99059904D02*
X141223866Y-99107523D01*
X141223866Y-99107523D02*
X141176247Y-99155142D01*
X141176247Y-99155142D02*
X141128628Y-99250380D01*
X141128628Y-99250380D02*
X141081009Y-99440856D01*
X141081009Y-99440856D02*
X141033390Y-99536094D01*
X141033390Y-99536094D02*
X140985771Y-99583713D01*
X140985771Y-99583713D02*
X140890533Y-99631332D01*
X140890533Y-99631332D02*
X140795295Y-99631332D01*
X140795295Y-99631332D02*
X140700057Y-99583713D01*
X140700057Y-99583713D02*
X140652438Y-99536094D01*
X140652438Y-99536094D02*
X140604819Y-99440856D01*
X140604819Y-99440856D02*
X140604819Y-99202761D01*
X140604819Y-99202761D02*
X140652438Y-99059904D01*
X140604819Y-98726570D02*
X141604819Y-98488475D01*
X141604819Y-98488475D02*
X140890533Y-98297999D01*
X140890533Y-98297999D02*
X141604819Y-98107523D01*
X141604819Y-98107523D02*
X140604819Y-97869428D01*
X140604819Y-97583713D02*
X140604819Y-96964666D01*
X140604819Y-96964666D02*
X140985771Y-97297999D01*
X140985771Y-97297999D02*
X140985771Y-97155142D01*
X140985771Y-97155142D02*
X141033390Y-97059904D01*
X141033390Y-97059904D02*
X141081009Y-97012285D01*
X141081009Y-97012285D02*
X141176247Y-96964666D01*
X141176247Y-96964666D02*
X141414342Y-96964666D01*
X141414342Y-96964666D02*
X141509580Y-97012285D01*
X141509580Y-97012285D02*
X141557200Y-97059904D01*
X141557200Y-97059904D02*
X141604819Y-97155142D01*
X141604819Y-97155142D02*
X141604819Y-97440856D01*
X141604819Y-97440856D02*
X141557200Y-97536094D01*
X141557200Y-97536094D02*
X141509580Y-97583713D01*
%TO.C,J4*%
X114708666Y-73277719D02*
X114708666Y-73992004D01*
X114708666Y-73992004D02*
X114661047Y-74134861D01*
X114661047Y-74134861D02*
X114565809Y-74230100D01*
X114565809Y-74230100D02*
X114422952Y-74277719D01*
X114422952Y-74277719D02*
X114327714Y-74277719D01*
X115613428Y-73611052D02*
X115613428Y-74277719D01*
X115375333Y-73230100D02*
X115137238Y-73944385D01*
X115137238Y-73944385D02*
X115756285Y-73944385D01*
%TO.C,R16*%
X65475819Y-101328457D02*
X64999628Y-101661790D01*
X65475819Y-101899885D02*
X64475819Y-101899885D01*
X64475819Y-101899885D02*
X64475819Y-101518933D01*
X64475819Y-101518933D02*
X64523438Y-101423695D01*
X64523438Y-101423695D02*
X64571057Y-101376076D01*
X64571057Y-101376076D02*
X64666295Y-101328457D01*
X64666295Y-101328457D02*
X64809152Y-101328457D01*
X64809152Y-101328457D02*
X64904390Y-101376076D01*
X64904390Y-101376076D02*
X64952009Y-101423695D01*
X64952009Y-101423695D02*
X64999628Y-101518933D01*
X64999628Y-101518933D02*
X64999628Y-101899885D01*
X65475819Y-100376076D02*
X65475819Y-100947504D01*
X65475819Y-100661790D02*
X64475819Y-100661790D01*
X64475819Y-100661790D02*
X64618676Y-100757028D01*
X64618676Y-100757028D02*
X64713914Y-100852266D01*
X64713914Y-100852266D02*
X64761533Y-100947504D01*
X64475819Y-99518933D02*
X64475819Y-99709409D01*
X64475819Y-99709409D02*
X64523438Y-99804647D01*
X64523438Y-99804647D02*
X64571057Y-99852266D01*
X64571057Y-99852266D02*
X64713914Y-99947504D01*
X64713914Y-99947504D02*
X64904390Y-99995123D01*
X64904390Y-99995123D02*
X65285342Y-99995123D01*
X65285342Y-99995123D02*
X65380580Y-99947504D01*
X65380580Y-99947504D02*
X65428200Y-99899885D01*
X65428200Y-99899885D02*
X65475819Y-99804647D01*
X65475819Y-99804647D02*
X65475819Y-99614171D01*
X65475819Y-99614171D02*
X65428200Y-99518933D01*
X65428200Y-99518933D02*
X65380580Y-99471314D01*
X65380580Y-99471314D02*
X65285342Y-99423695D01*
X65285342Y-99423695D02*
X65047247Y-99423695D01*
X65047247Y-99423695D02*
X64952009Y-99471314D01*
X64952009Y-99471314D02*
X64904390Y-99518933D01*
X64904390Y-99518933D02*
X64856771Y-99614171D01*
X64856771Y-99614171D02*
X64856771Y-99804647D01*
X64856771Y-99804647D02*
X64904390Y-99899885D01*
X64904390Y-99899885D02*
X64952009Y-99947504D01*
X64952009Y-99947504D02*
X65047247Y-99995123D01*
%TO.C,C10*%
X144841030Y-92079857D02*
X144888650Y-92127476D01*
X144888650Y-92127476D02*
X144936269Y-92270333D01*
X144936269Y-92270333D02*
X144936269Y-92365571D01*
X144936269Y-92365571D02*
X144888650Y-92508428D01*
X144888650Y-92508428D02*
X144793411Y-92603666D01*
X144793411Y-92603666D02*
X144698173Y-92651285D01*
X144698173Y-92651285D02*
X144507697Y-92698904D01*
X144507697Y-92698904D02*
X144364840Y-92698904D01*
X144364840Y-92698904D02*
X144174364Y-92651285D01*
X144174364Y-92651285D02*
X144079126Y-92603666D01*
X144079126Y-92603666D02*
X143983888Y-92508428D01*
X143983888Y-92508428D02*
X143936269Y-92365571D01*
X143936269Y-92365571D02*
X143936269Y-92270333D01*
X143936269Y-92270333D02*
X143983888Y-92127476D01*
X143983888Y-92127476D02*
X144031507Y-92079857D01*
X144936269Y-91127476D02*
X144936269Y-91698904D01*
X144936269Y-91413190D02*
X143936269Y-91413190D01*
X143936269Y-91413190D02*
X144079126Y-91508428D01*
X144079126Y-91508428D02*
X144174364Y-91603666D01*
X144174364Y-91603666D02*
X144221983Y-91698904D01*
X143936269Y-90508428D02*
X143936269Y-90413190D01*
X143936269Y-90413190D02*
X143983888Y-90317952D01*
X143983888Y-90317952D02*
X144031507Y-90270333D01*
X144031507Y-90270333D02*
X144126745Y-90222714D01*
X144126745Y-90222714D02*
X144317221Y-90175095D01*
X144317221Y-90175095D02*
X144555316Y-90175095D01*
X144555316Y-90175095D02*
X144745792Y-90222714D01*
X144745792Y-90222714D02*
X144841030Y-90270333D01*
X144841030Y-90270333D02*
X144888650Y-90317952D01*
X144888650Y-90317952D02*
X144936269Y-90413190D01*
X144936269Y-90413190D02*
X144936269Y-90508428D01*
X144936269Y-90508428D02*
X144888650Y-90603666D01*
X144888650Y-90603666D02*
X144841030Y-90651285D01*
X144841030Y-90651285D02*
X144745792Y-90698904D01*
X144745792Y-90698904D02*
X144555316Y-90746523D01*
X144555316Y-90746523D02*
X144317221Y-90746523D01*
X144317221Y-90746523D02*
X144126745Y-90698904D01*
X144126745Y-90698904D02*
X144031507Y-90651285D01*
X144031507Y-90651285D02*
X143983888Y-90603666D01*
X143983888Y-90603666D02*
X143936269Y-90508428D01*
%TO.C,R1*%
X83650133Y-89413419D02*
X83316800Y-88937228D01*
X83078705Y-89413419D02*
X83078705Y-88413419D01*
X83078705Y-88413419D02*
X83459657Y-88413419D01*
X83459657Y-88413419D02*
X83554895Y-88461038D01*
X83554895Y-88461038D02*
X83602514Y-88508657D01*
X83602514Y-88508657D02*
X83650133Y-88603895D01*
X83650133Y-88603895D02*
X83650133Y-88746752D01*
X83650133Y-88746752D02*
X83602514Y-88841990D01*
X83602514Y-88841990D02*
X83554895Y-88889609D01*
X83554895Y-88889609D02*
X83459657Y-88937228D01*
X83459657Y-88937228D02*
X83078705Y-88937228D01*
X84602514Y-89413419D02*
X84031086Y-89413419D01*
X84316800Y-89413419D02*
X84316800Y-88413419D01*
X84316800Y-88413419D02*
X84221562Y-88556276D01*
X84221562Y-88556276D02*
X84126324Y-88651514D01*
X84126324Y-88651514D02*
X84031086Y-88699133D01*
%TO.C,C9*%
X47632933Y-90232580D02*
X47585314Y-90280200D01*
X47585314Y-90280200D02*
X47442457Y-90327819D01*
X47442457Y-90327819D02*
X47347219Y-90327819D01*
X47347219Y-90327819D02*
X47204362Y-90280200D01*
X47204362Y-90280200D02*
X47109124Y-90184961D01*
X47109124Y-90184961D02*
X47061505Y-90089723D01*
X47061505Y-90089723D02*
X47013886Y-89899247D01*
X47013886Y-89899247D02*
X47013886Y-89756390D01*
X47013886Y-89756390D02*
X47061505Y-89565914D01*
X47061505Y-89565914D02*
X47109124Y-89470676D01*
X47109124Y-89470676D02*
X47204362Y-89375438D01*
X47204362Y-89375438D02*
X47347219Y-89327819D01*
X47347219Y-89327819D02*
X47442457Y-89327819D01*
X47442457Y-89327819D02*
X47585314Y-89375438D01*
X47585314Y-89375438D02*
X47632933Y-89423057D01*
X48109124Y-90327819D02*
X48299600Y-90327819D01*
X48299600Y-90327819D02*
X48394838Y-90280200D01*
X48394838Y-90280200D02*
X48442457Y-90232580D01*
X48442457Y-90232580D02*
X48537695Y-90089723D01*
X48537695Y-90089723D02*
X48585314Y-89899247D01*
X48585314Y-89899247D02*
X48585314Y-89518295D01*
X48585314Y-89518295D02*
X48537695Y-89423057D01*
X48537695Y-89423057D02*
X48490076Y-89375438D01*
X48490076Y-89375438D02*
X48394838Y-89327819D01*
X48394838Y-89327819D02*
X48204362Y-89327819D01*
X48204362Y-89327819D02*
X48109124Y-89375438D01*
X48109124Y-89375438D02*
X48061505Y-89423057D01*
X48061505Y-89423057D02*
X48013886Y-89518295D01*
X48013886Y-89518295D02*
X48013886Y-89756390D01*
X48013886Y-89756390D02*
X48061505Y-89851628D01*
X48061505Y-89851628D02*
X48109124Y-89899247D01*
X48109124Y-89899247D02*
X48204362Y-89946866D01*
X48204362Y-89946866D02*
X48394838Y-89946866D01*
X48394838Y-89946866D02*
X48490076Y-89899247D01*
X48490076Y-89899247D02*
X48537695Y-89851628D01*
X48537695Y-89851628D02*
X48585314Y-89756390D01*
%TO.C,C8*%
X47429733Y-92569380D02*
X47382114Y-92617000D01*
X47382114Y-92617000D02*
X47239257Y-92664619D01*
X47239257Y-92664619D02*
X47144019Y-92664619D01*
X47144019Y-92664619D02*
X47001162Y-92617000D01*
X47001162Y-92617000D02*
X46905924Y-92521761D01*
X46905924Y-92521761D02*
X46858305Y-92426523D01*
X46858305Y-92426523D02*
X46810686Y-92236047D01*
X46810686Y-92236047D02*
X46810686Y-92093190D01*
X46810686Y-92093190D02*
X46858305Y-91902714D01*
X46858305Y-91902714D02*
X46905924Y-91807476D01*
X46905924Y-91807476D02*
X47001162Y-91712238D01*
X47001162Y-91712238D02*
X47144019Y-91664619D01*
X47144019Y-91664619D02*
X47239257Y-91664619D01*
X47239257Y-91664619D02*
X47382114Y-91712238D01*
X47382114Y-91712238D02*
X47429733Y-91759857D01*
X48001162Y-92093190D02*
X47905924Y-92045571D01*
X47905924Y-92045571D02*
X47858305Y-91997952D01*
X47858305Y-91997952D02*
X47810686Y-91902714D01*
X47810686Y-91902714D02*
X47810686Y-91855095D01*
X47810686Y-91855095D02*
X47858305Y-91759857D01*
X47858305Y-91759857D02*
X47905924Y-91712238D01*
X47905924Y-91712238D02*
X48001162Y-91664619D01*
X48001162Y-91664619D02*
X48191638Y-91664619D01*
X48191638Y-91664619D02*
X48286876Y-91712238D01*
X48286876Y-91712238D02*
X48334495Y-91759857D01*
X48334495Y-91759857D02*
X48382114Y-91855095D01*
X48382114Y-91855095D02*
X48382114Y-91902714D01*
X48382114Y-91902714D02*
X48334495Y-91997952D01*
X48334495Y-91997952D02*
X48286876Y-92045571D01*
X48286876Y-92045571D02*
X48191638Y-92093190D01*
X48191638Y-92093190D02*
X48001162Y-92093190D01*
X48001162Y-92093190D02*
X47905924Y-92140809D01*
X47905924Y-92140809D02*
X47858305Y-92188428D01*
X47858305Y-92188428D02*
X47810686Y-92283666D01*
X47810686Y-92283666D02*
X47810686Y-92474142D01*
X47810686Y-92474142D02*
X47858305Y-92569380D01*
X47858305Y-92569380D02*
X47905924Y-92617000D01*
X47905924Y-92617000D02*
X48001162Y-92664619D01*
X48001162Y-92664619D02*
X48191638Y-92664619D01*
X48191638Y-92664619D02*
X48286876Y-92617000D01*
X48286876Y-92617000D02*
X48334495Y-92569380D01*
X48334495Y-92569380D02*
X48382114Y-92474142D01*
X48382114Y-92474142D02*
X48382114Y-92283666D01*
X48382114Y-92283666D02*
X48334495Y-92188428D01*
X48334495Y-92188428D02*
X48286876Y-92140809D01*
X48286876Y-92140809D02*
X48191638Y-92093190D01*
%TO.C,C2*%
X127388933Y-89224180D02*
X127341314Y-89271800D01*
X127341314Y-89271800D02*
X127198457Y-89319419D01*
X127198457Y-89319419D02*
X127103219Y-89319419D01*
X127103219Y-89319419D02*
X126960362Y-89271800D01*
X126960362Y-89271800D02*
X126865124Y-89176561D01*
X126865124Y-89176561D02*
X126817505Y-89081323D01*
X126817505Y-89081323D02*
X126769886Y-88890847D01*
X126769886Y-88890847D02*
X126769886Y-88747990D01*
X126769886Y-88747990D02*
X126817505Y-88557514D01*
X126817505Y-88557514D02*
X126865124Y-88462276D01*
X126865124Y-88462276D02*
X126960362Y-88367038D01*
X126960362Y-88367038D02*
X127103219Y-88319419D01*
X127103219Y-88319419D02*
X127198457Y-88319419D01*
X127198457Y-88319419D02*
X127341314Y-88367038D01*
X127341314Y-88367038D02*
X127388933Y-88414657D01*
X127769886Y-88414657D02*
X127817505Y-88367038D01*
X127817505Y-88367038D02*
X127912743Y-88319419D01*
X127912743Y-88319419D02*
X128150838Y-88319419D01*
X128150838Y-88319419D02*
X128246076Y-88367038D01*
X128246076Y-88367038D02*
X128293695Y-88414657D01*
X128293695Y-88414657D02*
X128341314Y-88509895D01*
X128341314Y-88509895D02*
X128341314Y-88605133D01*
X128341314Y-88605133D02*
X128293695Y-88747990D01*
X128293695Y-88747990D02*
X127722267Y-89319419D01*
X127722267Y-89319419D02*
X128341314Y-89319419D01*
%TO.C,H1*%
X141986095Y-57816219D02*
X141986095Y-56816219D01*
X141986095Y-57292409D02*
X142557523Y-57292409D01*
X142557523Y-57816219D02*
X142557523Y-56816219D01*
X143557523Y-57816219D02*
X142986095Y-57816219D01*
X143271809Y-57816219D02*
X143271809Y-56816219D01*
X143271809Y-56816219D02*
X143176571Y-56959076D01*
X143176571Y-56959076D02*
X143081333Y-57054314D01*
X143081333Y-57054314D02*
X142986095Y-57101933D01*
%TO.C,R8*%
X129054219Y-89092066D02*
X128578028Y-89425399D01*
X129054219Y-89663494D02*
X128054219Y-89663494D01*
X128054219Y-89663494D02*
X128054219Y-89282542D01*
X128054219Y-89282542D02*
X128101838Y-89187304D01*
X128101838Y-89187304D02*
X128149457Y-89139685D01*
X128149457Y-89139685D02*
X128244695Y-89092066D01*
X128244695Y-89092066D02*
X128387552Y-89092066D01*
X128387552Y-89092066D02*
X128482790Y-89139685D01*
X128482790Y-89139685D02*
X128530409Y-89187304D01*
X128530409Y-89187304D02*
X128578028Y-89282542D01*
X128578028Y-89282542D02*
X128578028Y-89663494D01*
X128482790Y-88520637D02*
X128435171Y-88615875D01*
X128435171Y-88615875D02*
X128387552Y-88663494D01*
X128387552Y-88663494D02*
X128292314Y-88711113D01*
X128292314Y-88711113D02*
X128244695Y-88711113D01*
X128244695Y-88711113D02*
X128149457Y-88663494D01*
X128149457Y-88663494D02*
X128101838Y-88615875D01*
X128101838Y-88615875D02*
X128054219Y-88520637D01*
X128054219Y-88520637D02*
X128054219Y-88330161D01*
X128054219Y-88330161D02*
X128101838Y-88234923D01*
X128101838Y-88234923D02*
X128149457Y-88187304D01*
X128149457Y-88187304D02*
X128244695Y-88139685D01*
X128244695Y-88139685D02*
X128292314Y-88139685D01*
X128292314Y-88139685D02*
X128387552Y-88187304D01*
X128387552Y-88187304D02*
X128435171Y-88234923D01*
X128435171Y-88234923D02*
X128482790Y-88330161D01*
X128482790Y-88330161D02*
X128482790Y-88520637D01*
X128482790Y-88520637D02*
X128530409Y-88615875D01*
X128530409Y-88615875D02*
X128578028Y-88663494D01*
X128578028Y-88663494D02*
X128673266Y-88711113D01*
X128673266Y-88711113D02*
X128863742Y-88711113D01*
X128863742Y-88711113D02*
X128958980Y-88663494D01*
X128958980Y-88663494D02*
X129006600Y-88615875D01*
X129006600Y-88615875D02*
X129054219Y-88520637D01*
X129054219Y-88520637D02*
X129054219Y-88330161D01*
X129054219Y-88330161D02*
X129006600Y-88234923D01*
X129006600Y-88234923D02*
X128958980Y-88187304D01*
X128958980Y-88187304D02*
X128863742Y-88139685D01*
X128863742Y-88139685D02*
X128673266Y-88139685D01*
X128673266Y-88139685D02*
X128578028Y-88187304D01*
X128578028Y-88187304D02*
X128530409Y-88234923D01*
X128530409Y-88234923D02*
X128482790Y-88330161D01*
%TO.C,J2*%
X80028219Y-80241733D02*
X80742504Y-80241733D01*
X80742504Y-80241733D02*
X80885361Y-80289352D01*
X80885361Y-80289352D02*
X80980600Y-80384590D01*
X80980600Y-80384590D02*
X81028219Y-80527447D01*
X81028219Y-80527447D02*
X81028219Y-80622685D01*
X80123457Y-79813161D02*
X80075838Y-79765542D01*
X80075838Y-79765542D02*
X80028219Y-79670304D01*
X80028219Y-79670304D02*
X80028219Y-79432209D01*
X80028219Y-79432209D02*
X80075838Y-79336971D01*
X80075838Y-79336971D02*
X80123457Y-79289352D01*
X80123457Y-79289352D02*
X80218695Y-79241733D01*
X80218695Y-79241733D02*
X80313933Y-79241733D01*
X80313933Y-79241733D02*
X80456790Y-79289352D01*
X80456790Y-79289352D02*
X81028219Y-79860780D01*
X81028219Y-79860780D02*
X81028219Y-79241733D01*
%TO.C,J5*%
X109796066Y-58956219D02*
X109796066Y-59670504D01*
X109796066Y-59670504D02*
X109748447Y-59813361D01*
X109748447Y-59813361D02*
X109653209Y-59908600D01*
X109653209Y-59908600D02*
X109510352Y-59956219D01*
X109510352Y-59956219D02*
X109415114Y-59956219D01*
X110748447Y-58956219D02*
X110272257Y-58956219D01*
X110272257Y-58956219D02*
X110224638Y-59432409D01*
X110224638Y-59432409D02*
X110272257Y-59384790D01*
X110272257Y-59384790D02*
X110367495Y-59337171D01*
X110367495Y-59337171D02*
X110605590Y-59337171D01*
X110605590Y-59337171D02*
X110700828Y-59384790D01*
X110700828Y-59384790D02*
X110748447Y-59432409D01*
X110748447Y-59432409D02*
X110796066Y-59527647D01*
X110796066Y-59527647D02*
X110796066Y-59765742D01*
X110796066Y-59765742D02*
X110748447Y-59860980D01*
X110748447Y-59860980D02*
X110700828Y-59908600D01*
X110700828Y-59908600D02*
X110605590Y-59956219D01*
X110605590Y-59956219D02*
X110367495Y-59956219D01*
X110367495Y-59956219D02*
X110272257Y-59908600D01*
X110272257Y-59908600D02*
X110224638Y-59860980D01*
%TO.C,R14*%
X60212342Y-109174619D02*
X59879009Y-108698428D01*
X59640914Y-109174619D02*
X59640914Y-108174619D01*
X59640914Y-108174619D02*
X60021866Y-108174619D01*
X60021866Y-108174619D02*
X60117104Y-108222238D01*
X60117104Y-108222238D02*
X60164723Y-108269857D01*
X60164723Y-108269857D02*
X60212342Y-108365095D01*
X60212342Y-108365095D02*
X60212342Y-108507952D01*
X60212342Y-108507952D02*
X60164723Y-108603190D01*
X60164723Y-108603190D02*
X60117104Y-108650809D01*
X60117104Y-108650809D02*
X60021866Y-108698428D01*
X60021866Y-108698428D02*
X59640914Y-108698428D01*
X61164723Y-109174619D02*
X60593295Y-109174619D01*
X60879009Y-109174619D02*
X60879009Y-108174619D01*
X60879009Y-108174619D02*
X60783771Y-108317476D01*
X60783771Y-108317476D02*
X60688533Y-108412714D01*
X60688533Y-108412714D02*
X60593295Y-108460333D01*
X62021866Y-108507952D02*
X62021866Y-109174619D01*
X61783771Y-108127000D02*
X61545676Y-108841285D01*
X61545676Y-108841285D02*
X62164723Y-108841285D01*
%TO.C,FB2*%
X86945866Y-98338409D02*
X86612533Y-98338409D01*
X86612533Y-98862219D02*
X86612533Y-97862219D01*
X86612533Y-97862219D02*
X87088723Y-97862219D01*
X87803009Y-98338409D02*
X87945866Y-98386028D01*
X87945866Y-98386028D02*
X87993485Y-98433647D01*
X87993485Y-98433647D02*
X88041104Y-98528885D01*
X88041104Y-98528885D02*
X88041104Y-98671742D01*
X88041104Y-98671742D02*
X87993485Y-98766980D01*
X87993485Y-98766980D02*
X87945866Y-98814600D01*
X87945866Y-98814600D02*
X87850628Y-98862219D01*
X87850628Y-98862219D02*
X87469676Y-98862219D01*
X87469676Y-98862219D02*
X87469676Y-97862219D01*
X87469676Y-97862219D02*
X87803009Y-97862219D01*
X87803009Y-97862219D02*
X87898247Y-97909838D01*
X87898247Y-97909838D02*
X87945866Y-97957457D01*
X87945866Y-97957457D02*
X87993485Y-98052695D01*
X87993485Y-98052695D02*
X87993485Y-98147933D01*
X87993485Y-98147933D02*
X87945866Y-98243171D01*
X87945866Y-98243171D02*
X87898247Y-98290790D01*
X87898247Y-98290790D02*
X87803009Y-98338409D01*
X87803009Y-98338409D02*
X87469676Y-98338409D01*
X88422057Y-97957457D02*
X88469676Y-97909838D01*
X88469676Y-97909838D02*
X88564914Y-97862219D01*
X88564914Y-97862219D02*
X88803009Y-97862219D01*
X88803009Y-97862219D02*
X88898247Y-97909838D01*
X88898247Y-97909838D02*
X88945866Y-97957457D01*
X88945866Y-97957457D02*
X88993485Y-98052695D01*
X88993485Y-98052695D02*
X88993485Y-98147933D01*
X88993485Y-98147933D02*
X88945866Y-98290790D01*
X88945866Y-98290790D02*
X88374438Y-98862219D01*
X88374438Y-98862219D02*
X88993485Y-98862219D01*
%TO.C,SW1*%
X133032667Y-110397000D02*
X133175524Y-110444619D01*
X133175524Y-110444619D02*
X133413619Y-110444619D01*
X133413619Y-110444619D02*
X133508857Y-110397000D01*
X133508857Y-110397000D02*
X133556476Y-110349380D01*
X133556476Y-110349380D02*
X133604095Y-110254142D01*
X133604095Y-110254142D02*
X133604095Y-110158904D01*
X133604095Y-110158904D02*
X133556476Y-110063666D01*
X133556476Y-110063666D02*
X133508857Y-110016047D01*
X133508857Y-110016047D02*
X133413619Y-109968428D01*
X133413619Y-109968428D02*
X133223143Y-109920809D01*
X133223143Y-109920809D02*
X133127905Y-109873190D01*
X133127905Y-109873190D02*
X133080286Y-109825571D01*
X133080286Y-109825571D02*
X133032667Y-109730333D01*
X133032667Y-109730333D02*
X133032667Y-109635095D01*
X133032667Y-109635095D02*
X133080286Y-109539857D01*
X133080286Y-109539857D02*
X133127905Y-109492238D01*
X133127905Y-109492238D02*
X133223143Y-109444619D01*
X133223143Y-109444619D02*
X133461238Y-109444619D01*
X133461238Y-109444619D02*
X133604095Y-109492238D01*
X133937429Y-109444619D02*
X134175524Y-110444619D01*
X134175524Y-110444619D02*
X134366000Y-109730333D01*
X134366000Y-109730333D02*
X134556476Y-110444619D01*
X134556476Y-110444619D02*
X134794572Y-109444619D01*
X135699333Y-110444619D02*
X135127905Y-110444619D01*
X135413619Y-110444619D02*
X135413619Y-109444619D01*
X135413619Y-109444619D02*
X135318381Y-109587476D01*
X135318381Y-109587476D02*
X135223143Y-109682714D01*
X135223143Y-109682714D02*
X135127905Y-109730333D01*
%TO.C,R10*%
X137724219Y-94826057D02*
X137248028Y-95159390D01*
X137724219Y-95397485D02*
X136724219Y-95397485D01*
X136724219Y-95397485D02*
X136724219Y-95016533D01*
X136724219Y-95016533D02*
X136771838Y-94921295D01*
X136771838Y-94921295D02*
X136819457Y-94873676D01*
X136819457Y-94873676D02*
X136914695Y-94826057D01*
X136914695Y-94826057D02*
X137057552Y-94826057D01*
X137057552Y-94826057D02*
X137152790Y-94873676D01*
X137152790Y-94873676D02*
X137200409Y-94921295D01*
X137200409Y-94921295D02*
X137248028Y-95016533D01*
X137248028Y-95016533D02*
X137248028Y-95397485D01*
X137724219Y-93873676D02*
X137724219Y-94445104D01*
X137724219Y-94159390D02*
X136724219Y-94159390D01*
X136724219Y-94159390D02*
X136867076Y-94254628D01*
X136867076Y-94254628D02*
X136962314Y-94349866D01*
X136962314Y-94349866D02*
X137009933Y-94445104D01*
X136724219Y-93254628D02*
X136724219Y-93159390D01*
X136724219Y-93159390D02*
X136771838Y-93064152D01*
X136771838Y-93064152D02*
X136819457Y-93016533D01*
X136819457Y-93016533D02*
X136914695Y-92968914D01*
X136914695Y-92968914D02*
X137105171Y-92921295D01*
X137105171Y-92921295D02*
X137343266Y-92921295D01*
X137343266Y-92921295D02*
X137533742Y-92968914D01*
X137533742Y-92968914D02*
X137628980Y-93016533D01*
X137628980Y-93016533D02*
X137676600Y-93064152D01*
X137676600Y-93064152D02*
X137724219Y-93159390D01*
X137724219Y-93159390D02*
X137724219Y-93254628D01*
X137724219Y-93254628D02*
X137676600Y-93349866D01*
X137676600Y-93349866D02*
X137628980Y-93397485D01*
X137628980Y-93397485D02*
X137533742Y-93445104D01*
X137533742Y-93445104D02*
X137343266Y-93492723D01*
X137343266Y-93492723D02*
X137105171Y-93492723D01*
X137105171Y-93492723D02*
X136914695Y-93445104D01*
X136914695Y-93445104D02*
X136819457Y-93397485D01*
X136819457Y-93397485D02*
X136771838Y-93349866D01*
X136771838Y-93349866D02*
X136724219Y-93254628D01*
%TO.C,R9*%
X127546433Y-99852819D02*
X127213100Y-99376628D01*
X126975005Y-99852819D02*
X126975005Y-98852819D01*
X126975005Y-98852819D02*
X127355957Y-98852819D01*
X127355957Y-98852819D02*
X127451195Y-98900438D01*
X127451195Y-98900438D02*
X127498814Y-98948057D01*
X127498814Y-98948057D02*
X127546433Y-99043295D01*
X127546433Y-99043295D02*
X127546433Y-99186152D01*
X127546433Y-99186152D02*
X127498814Y-99281390D01*
X127498814Y-99281390D02*
X127451195Y-99329009D01*
X127451195Y-99329009D02*
X127355957Y-99376628D01*
X127355957Y-99376628D02*
X126975005Y-99376628D01*
X128022624Y-99852819D02*
X128213100Y-99852819D01*
X128213100Y-99852819D02*
X128308338Y-99805200D01*
X128308338Y-99805200D02*
X128355957Y-99757580D01*
X128355957Y-99757580D02*
X128451195Y-99614723D01*
X128451195Y-99614723D02*
X128498814Y-99424247D01*
X128498814Y-99424247D02*
X128498814Y-99043295D01*
X128498814Y-99043295D02*
X128451195Y-98948057D01*
X128451195Y-98948057D02*
X128403576Y-98900438D01*
X128403576Y-98900438D02*
X128308338Y-98852819D01*
X128308338Y-98852819D02*
X128117862Y-98852819D01*
X128117862Y-98852819D02*
X128022624Y-98900438D01*
X128022624Y-98900438D02*
X127975005Y-98948057D01*
X127975005Y-98948057D02*
X127927386Y-99043295D01*
X127927386Y-99043295D02*
X127927386Y-99281390D01*
X127927386Y-99281390D02*
X127975005Y-99376628D01*
X127975005Y-99376628D02*
X128022624Y-99424247D01*
X128022624Y-99424247D02*
X128117862Y-99471866D01*
X128117862Y-99471866D02*
X128308338Y-99471866D01*
X128308338Y-99471866D02*
X128403576Y-99424247D01*
X128403576Y-99424247D02*
X128451195Y-99376628D01*
X128451195Y-99376628D02*
X128498814Y-99281390D01*
%TO.C,R12*%
X137075942Y-99929019D02*
X136742609Y-99452828D01*
X136504514Y-99929019D02*
X136504514Y-98929019D01*
X136504514Y-98929019D02*
X136885466Y-98929019D01*
X136885466Y-98929019D02*
X136980704Y-98976638D01*
X136980704Y-98976638D02*
X137028323Y-99024257D01*
X137028323Y-99024257D02*
X137075942Y-99119495D01*
X137075942Y-99119495D02*
X137075942Y-99262352D01*
X137075942Y-99262352D02*
X137028323Y-99357590D01*
X137028323Y-99357590D02*
X136980704Y-99405209D01*
X136980704Y-99405209D02*
X136885466Y-99452828D01*
X136885466Y-99452828D02*
X136504514Y-99452828D01*
X138028323Y-99929019D02*
X137456895Y-99929019D01*
X137742609Y-99929019D02*
X137742609Y-98929019D01*
X137742609Y-98929019D02*
X137647371Y-99071876D01*
X137647371Y-99071876D02*
X137552133Y-99167114D01*
X137552133Y-99167114D02*
X137456895Y-99214733D01*
X138409276Y-99024257D02*
X138456895Y-98976638D01*
X138456895Y-98976638D02*
X138552133Y-98929019D01*
X138552133Y-98929019D02*
X138790228Y-98929019D01*
X138790228Y-98929019D02*
X138885466Y-98976638D01*
X138885466Y-98976638D02*
X138933085Y-99024257D01*
X138933085Y-99024257D02*
X138980704Y-99119495D01*
X138980704Y-99119495D02*
X138980704Y-99214733D01*
X138980704Y-99214733D02*
X138933085Y-99357590D01*
X138933085Y-99357590D02*
X138361657Y-99929019D01*
X138361657Y-99929019D02*
X138980704Y-99929019D01*
%TO.C,H2*%
X141985895Y-111764419D02*
X141985895Y-110764419D01*
X141985895Y-111240609D02*
X142557323Y-111240609D01*
X142557323Y-111764419D02*
X142557323Y-110764419D01*
X142985895Y-110859657D02*
X143033514Y-110812038D01*
X143033514Y-110812038D02*
X143128752Y-110764419D01*
X143128752Y-110764419D02*
X143366847Y-110764419D01*
X143366847Y-110764419D02*
X143462085Y-110812038D01*
X143462085Y-110812038D02*
X143509704Y-110859657D01*
X143509704Y-110859657D02*
X143557323Y-110954895D01*
X143557323Y-110954895D02*
X143557323Y-111050133D01*
X143557323Y-111050133D02*
X143509704Y-111192990D01*
X143509704Y-111192990D02*
X142938276Y-111764419D01*
X142938276Y-111764419D02*
X143557323Y-111764419D01*
%TO.C,R19*%
X101449819Y-95892457D02*
X100973628Y-96225790D01*
X101449819Y-96463885D02*
X100449819Y-96463885D01*
X100449819Y-96463885D02*
X100449819Y-96082933D01*
X100449819Y-96082933D02*
X100497438Y-95987695D01*
X100497438Y-95987695D02*
X100545057Y-95940076D01*
X100545057Y-95940076D02*
X100640295Y-95892457D01*
X100640295Y-95892457D02*
X100783152Y-95892457D01*
X100783152Y-95892457D02*
X100878390Y-95940076D01*
X100878390Y-95940076D02*
X100926009Y-95987695D01*
X100926009Y-95987695D02*
X100973628Y-96082933D01*
X100973628Y-96082933D02*
X100973628Y-96463885D01*
X101449819Y-94940076D02*
X101449819Y-95511504D01*
X101449819Y-95225790D02*
X100449819Y-95225790D01*
X100449819Y-95225790D02*
X100592676Y-95321028D01*
X100592676Y-95321028D02*
X100687914Y-95416266D01*
X100687914Y-95416266D02*
X100735533Y-95511504D01*
X101449819Y-94463885D02*
X101449819Y-94273409D01*
X101449819Y-94273409D02*
X101402200Y-94178171D01*
X101402200Y-94178171D02*
X101354580Y-94130552D01*
X101354580Y-94130552D02*
X101211723Y-94035314D01*
X101211723Y-94035314D02*
X101021247Y-93987695D01*
X101021247Y-93987695D02*
X100640295Y-93987695D01*
X100640295Y-93987695D02*
X100545057Y-94035314D01*
X100545057Y-94035314D02*
X100497438Y-94082933D01*
X100497438Y-94082933D02*
X100449819Y-94178171D01*
X100449819Y-94178171D02*
X100449819Y-94368647D01*
X100449819Y-94368647D02*
X100497438Y-94463885D01*
X100497438Y-94463885D02*
X100545057Y-94511504D01*
X100545057Y-94511504D02*
X100640295Y-94559123D01*
X100640295Y-94559123D02*
X100878390Y-94559123D01*
X100878390Y-94559123D02*
X100973628Y-94511504D01*
X100973628Y-94511504D02*
X101021247Y-94463885D01*
X101021247Y-94463885D02*
X101068866Y-94368647D01*
X101068866Y-94368647D02*
X101068866Y-94178171D01*
X101068866Y-94178171D02*
X101021247Y-94082933D01*
X101021247Y-94082933D02*
X100973628Y-94035314D01*
X100973628Y-94035314D02*
X100878390Y-93987695D01*
%TO.C,R4*%
X71762933Y-89413419D02*
X71429600Y-88937228D01*
X71191505Y-89413419D02*
X71191505Y-88413419D01*
X71191505Y-88413419D02*
X71572457Y-88413419D01*
X71572457Y-88413419D02*
X71667695Y-88461038D01*
X71667695Y-88461038D02*
X71715314Y-88508657D01*
X71715314Y-88508657D02*
X71762933Y-88603895D01*
X71762933Y-88603895D02*
X71762933Y-88746752D01*
X71762933Y-88746752D02*
X71715314Y-88841990D01*
X71715314Y-88841990D02*
X71667695Y-88889609D01*
X71667695Y-88889609D02*
X71572457Y-88937228D01*
X71572457Y-88937228D02*
X71191505Y-88937228D01*
X72620076Y-88746752D02*
X72620076Y-89413419D01*
X72381981Y-88365800D02*
X72143886Y-89080085D01*
X72143886Y-89080085D02*
X72762933Y-89080085D01*
%TO.C,FB1*%
X87199866Y-96255609D02*
X86866533Y-96255609D01*
X86866533Y-96779419D02*
X86866533Y-95779419D01*
X86866533Y-95779419D02*
X87342723Y-95779419D01*
X88057009Y-96255609D02*
X88199866Y-96303228D01*
X88199866Y-96303228D02*
X88247485Y-96350847D01*
X88247485Y-96350847D02*
X88295104Y-96446085D01*
X88295104Y-96446085D02*
X88295104Y-96588942D01*
X88295104Y-96588942D02*
X88247485Y-96684180D01*
X88247485Y-96684180D02*
X88199866Y-96731800D01*
X88199866Y-96731800D02*
X88104628Y-96779419D01*
X88104628Y-96779419D02*
X87723676Y-96779419D01*
X87723676Y-96779419D02*
X87723676Y-95779419D01*
X87723676Y-95779419D02*
X88057009Y-95779419D01*
X88057009Y-95779419D02*
X88152247Y-95827038D01*
X88152247Y-95827038D02*
X88199866Y-95874657D01*
X88199866Y-95874657D02*
X88247485Y-95969895D01*
X88247485Y-95969895D02*
X88247485Y-96065133D01*
X88247485Y-96065133D02*
X88199866Y-96160371D01*
X88199866Y-96160371D02*
X88152247Y-96207990D01*
X88152247Y-96207990D02*
X88057009Y-96255609D01*
X88057009Y-96255609D02*
X87723676Y-96255609D01*
X89247485Y-96779419D02*
X88676057Y-96779419D01*
X88961771Y-96779419D02*
X88961771Y-95779419D01*
X88961771Y-95779419D02*
X88866533Y-95922276D01*
X88866533Y-95922276D02*
X88771295Y-96017514D01*
X88771295Y-96017514D02*
X88676057Y-96065133D01*
%TO.C,R15*%
X65526619Y-97061257D02*
X65050428Y-97394590D01*
X65526619Y-97632685D02*
X64526619Y-97632685D01*
X64526619Y-97632685D02*
X64526619Y-97251733D01*
X64526619Y-97251733D02*
X64574238Y-97156495D01*
X64574238Y-97156495D02*
X64621857Y-97108876D01*
X64621857Y-97108876D02*
X64717095Y-97061257D01*
X64717095Y-97061257D02*
X64859952Y-97061257D01*
X64859952Y-97061257D02*
X64955190Y-97108876D01*
X64955190Y-97108876D02*
X65002809Y-97156495D01*
X65002809Y-97156495D02*
X65050428Y-97251733D01*
X65050428Y-97251733D02*
X65050428Y-97632685D01*
X65526619Y-96108876D02*
X65526619Y-96680304D01*
X65526619Y-96394590D02*
X64526619Y-96394590D01*
X64526619Y-96394590D02*
X64669476Y-96489828D01*
X64669476Y-96489828D02*
X64764714Y-96585066D01*
X64764714Y-96585066D02*
X64812333Y-96680304D01*
X64526619Y-95204114D02*
X64526619Y-95680304D01*
X64526619Y-95680304D02*
X65002809Y-95727923D01*
X65002809Y-95727923D02*
X64955190Y-95680304D01*
X64955190Y-95680304D02*
X64907571Y-95585066D01*
X64907571Y-95585066D02*
X64907571Y-95346971D01*
X64907571Y-95346971D02*
X64955190Y-95251733D01*
X64955190Y-95251733D02*
X65002809Y-95204114D01*
X65002809Y-95204114D02*
X65098047Y-95156495D01*
X65098047Y-95156495D02*
X65336142Y-95156495D01*
X65336142Y-95156495D02*
X65431380Y-95204114D01*
X65431380Y-95204114D02*
X65479000Y-95251733D01*
X65479000Y-95251733D02*
X65526619Y-95346971D01*
X65526619Y-95346971D02*
X65526619Y-95585066D01*
X65526619Y-95585066D02*
X65479000Y-95680304D01*
X65479000Y-95680304D02*
X65431380Y-95727923D01*
%TO.C,J6*%
X48500948Y-107022756D02*
X48958108Y-107022756D01*
X48958108Y-107022756D02*
X49049540Y-107053233D01*
X49049540Y-107053233D02*
X49110495Y-107114188D01*
X49110495Y-107114188D02*
X49140972Y-107205620D01*
X49140972Y-107205620D02*
X49140972Y-107266575D01*
X48500948Y-106443687D02*
X48500948Y-106565596D01*
X48500948Y-106565596D02*
X48531425Y-106626551D01*
X48531425Y-106626551D02*
X48561903Y-106657028D01*
X48561903Y-106657028D02*
X48653335Y-106717983D01*
X48653335Y-106717983D02*
X48775244Y-106748460D01*
X48775244Y-106748460D02*
X49019063Y-106748460D01*
X49019063Y-106748460D02*
X49080017Y-106717983D01*
X49080017Y-106717983D02*
X49110495Y-106687506D01*
X49110495Y-106687506D02*
X49140972Y-106626551D01*
X49140972Y-106626551D02*
X49140972Y-106504642D01*
X49140972Y-106504642D02*
X49110495Y-106443687D01*
X49110495Y-106443687D02*
X49080017Y-106413210D01*
X49080017Y-106413210D02*
X49019063Y-106382732D01*
X49019063Y-106382732D02*
X48866676Y-106382732D01*
X48866676Y-106382732D02*
X48805721Y-106413210D01*
X48805721Y-106413210D02*
X48775244Y-106443687D01*
X48775244Y-106443687D02*
X48744767Y-106504642D01*
X48744767Y-106504642D02*
X48744767Y-106626551D01*
X48744767Y-106626551D02*
X48775244Y-106687506D01*
X48775244Y-106687506D02*
X48805721Y-106717983D01*
X48805721Y-106717983D02*
X48866676Y-106748460D01*
%TO.C,U3*%
X105736219Y-73101104D02*
X106545742Y-73101104D01*
X106545742Y-73101104D02*
X106640980Y-73053485D01*
X106640980Y-73053485D02*
X106688600Y-73005866D01*
X106688600Y-73005866D02*
X106736219Y-72910628D01*
X106736219Y-72910628D02*
X106736219Y-72720152D01*
X106736219Y-72720152D02*
X106688600Y-72624914D01*
X106688600Y-72624914D02*
X106640980Y-72577295D01*
X106640980Y-72577295D02*
X106545742Y-72529676D01*
X106545742Y-72529676D02*
X105736219Y-72529676D01*
X105736219Y-72148723D02*
X105736219Y-71529676D01*
X105736219Y-71529676D02*
X106117171Y-71863009D01*
X106117171Y-71863009D02*
X106117171Y-71720152D01*
X106117171Y-71720152D02*
X106164790Y-71624914D01*
X106164790Y-71624914D02*
X106212409Y-71577295D01*
X106212409Y-71577295D02*
X106307647Y-71529676D01*
X106307647Y-71529676D02*
X106545742Y-71529676D01*
X106545742Y-71529676D02*
X106640980Y-71577295D01*
X106640980Y-71577295D02*
X106688600Y-71624914D01*
X106688600Y-71624914D02*
X106736219Y-71720152D01*
X106736219Y-71720152D02*
X106736219Y-72005866D01*
X106736219Y-72005866D02*
X106688600Y-72101104D01*
X106688600Y-72101104D02*
X106640980Y-72148723D01*
%TO.C,RV1*%
X93483161Y-95001419D02*
X93149828Y-94525228D01*
X92911733Y-95001419D02*
X92911733Y-94001419D01*
X92911733Y-94001419D02*
X93292685Y-94001419D01*
X93292685Y-94001419D02*
X93387923Y-94049038D01*
X93387923Y-94049038D02*
X93435542Y-94096657D01*
X93435542Y-94096657D02*
X93483161Y-94191895D01*
X93483161Y-94191895D02*
X93483161Y-94334752D01*
X93483161Y-94334752D02*
X93435542Y-94429990D01*
X93435542Y-94429990D02*
X93387923Y-94477609D01*
X93387923Y-94477609D02*
X93292685Y-94525228D01*
X93292685Y-94525228D02*
X92911733Y-94525228D01*
X93768876Y-94001419D02*
X94102209Y-95001419D01*
X94102209Y-95001419D02*
X94435542Y-94001419D01*
X95292685Y-95001419D02*
X94721257Y-95001419D01*
X95006971Y-95001419D02*
X95006971Y-94001419D01*
X95006971Y-94001419D02*
X94911733Y-94144276D01*
X94911733Y-94144276D02*
X94816495Y-94239514D01*
X94816495Y-94239514D02*
X94721257Y-94287133D01*
%TO.C,D1*%
X56301305Y-113129419D02*
X56301305Y-112129419D01*
X56301305Y-112129419D02*
X56539400Y-112129419D01*
X56539400Y-112129419D02*
X56682257Y-112177038D01*
X56682257Y-112177038D02*
X56777495Y-112272276D01*
X56777495Y-112272276D02*
X56825114Y-112367514D01*
X56825114Y-112367514D02*
X56872733Y-112557990D01*
X56872733Y-112557990D02*
X56872733Y-112700847D01*
X56872733Y-112700847D02*
X56825114Y-112891323D01*
X56825114Y-112891323D02*
X56777495Y-112986561D01*
X56777495Y-112986561D02*
X56682257Y-113081800D01*
X56682257Y-113081800D02*
X56539400Y-113129419D01*
X56539400Y-113129419D02*
X56301305Y-113129419D01*
X57825114Y-113129419D02*
X57253686Y-113129419D01*
X57539400Y-113129419D02*
X57539400Y-112129419D01*
X57539400Y-112129419D02*
X57444162Y-112272276D01*
X57444162Y-112272276D02*
X57348924Y-112367514D01*
X57348924Y-112367514D02*
X57253686Y-112415133D01*
%TO.C,R18*%
X102973819Y-95892457D02*
X102497628Y-96225790D01*
X102973819Y-96463885D02*
X101973819Y-96463885D01*
X101973819Y-96463885D02*
X101973819Y-96082933D01*
X101973819Y-96082933D02*
X102021438Y-95987695D01*
X102021438Y-95987695D02*
X102069057Y-95940076D01*
X102069057Y-95940076D02*
X102164295Y-95892457D01*
X102164295Y-95892457D02*
X102307152Y-95892457D01*
X102307152Y-95892457D02*
X102402390Y-95940076D01*
X102402390Y-95940076D02*
X102450009Y-95987695D01*
X102450009Y-95987695D02*
X102497628Y-96082933D01*
X102497628Y-96082933D02*
X102497628Y-96463885D01*
X102973819Y-94940076D02*
X102973819Y-95511504D01*
X102973819Y-95225790D02*
X101973819Y-95225790D01*
X101973819Y-95225790D02*
X102116676Y-95321028D01*
X102116676Y-95321028D02*
X102211914Y-95416266D01*
X102211914Y-95416266D02*
X102259533Y-95511504D01*
X102402390Y-94368647D02*
X102354771Y-94463885D01*
X102354771Y-94463885D02*
X102307152Y-94511504D01*
X102307152Y-94511504D02*
X102211914Y-94559123D01*
X102211914Y-94559123D02*
X102164295Y-94559123D01*
X102164295Y-94559123D02*
X102069057Y-94511504D01*
X102069057Y-94511504D02*
X102021438Y-94463885D01*
X102021438Y-94463885D02*
X101973819Y-94368647D01*
X101973819Y-94368647D02*
X101973819Y-94178171D01*
X101973819Y-94178171D02*
X102021438Y-94082933D01*
X102021438Y-94082933D02*
X102069057Y-94035314D01*
X102069057Y-94035314D02*
X102164295Y-93987695D01*
X102164295Y-93987695D02*
X102211914Y-93987695D01*
X102211914Y-93987695D02*
X102307152Y-94035314D01*
X102307152Y-94035314D02*
X102354771Y-94082933D01*
X102354771Y-94082933D02*
X102402390Y-94178171D01*
X102402390Y-94178171D02*
X102402390Y-94368647D01*
X102402390Y-94368647D02*
X102450009Y-94463885D01*
X102450009Y-94463885D02*
X102497628Y-94511504D01*
X102497628Y-94511504D02*
X102592866Y-94559123D01*
X102592866Y-94559123D02*
X102783342Y-94559123D01*
X102783342Y-94559123D02*
X102878580Y-94511504D01*
X102878580Y-94511504D02*
X102926200Y-94463885D01*
X102926200Y-94463885D02*
X102973819Y-94368647D01*
X102973819Y-94368647D02*
X102973819Y-94178171D01*
X102973819Y-94178171D02*
X102926200Y-94082933D01*
X102926200Y-94082933D02*
X102878580Y-94035314D01*
X102878580Y-94035314D02*
X102783342Y-93987695D01*
X102783342Y-93987695D02*
X102592866Y-93987695D01*
X102592866Y-93987695D02*
X102497628Y-94035314D01*
X102497628Y-94035314D02*
X102450009Y-94082933D01*
X102450009Y-94082933D02*
X102402390Y-94178171D01*
%TO.C,D2*%
X64429305Y-113129419D02*
X64429305Y-112129419D01*
X64429305Y-112129419D02*
X64667400Y-112129419D01*
X64667400Y-112129419D02*
X64810257Y-112177038D01*
X64810257Y-112177038D02*
X64905495Y-112272276D01*
X64905495Y-112272276D02*
X64953114Y-112367514D01*
X64953114Y-112367514D02*
X65000733Y-112557990D01*
X65000733Y-112557990D02*
X65000733Y-112700847D01*
X65000733Y-112700847D02*
X64953114Y-112891323D01*
X64953114Y-112891323D02*
X64905495Y-112986561D01*
X64905495Y-112986561D02*
X64810257Y-113081800D01*
X64810257Y-113081800D02*
X64667400Y-113129419D01*
X64667400Y-113129419D02*
X64429305Y-113129419D01*
X65381686Y-112224657D02*
X65429305Y-112177038D01*
X65429305Y-112177038D02*
X65524543Y-112129419D01*
X65524543Y-112129419D02*
X65762638Y-112129419D01*
X65762638Y-112129419D02*
X65857876Y-112177038D01*
X65857876Y-112177038D02*
X65905495Y-112224657D01*
X65905495Y-112224657D02*
X65953114Y-112319895D01*
X65953114Y-112319895D02*
X65953114Y-112415133D01*
X65953114Y-112415133D02*
X65905495Y-112557990D01*
X65905495Y-112557990D02*
X65334067Y-113129419D01*
X65334067Y-113129419D02*
X65953114Y-113129419D01*
%TO.C,LS1*%
X92701756Y-108957287D02*
X92396982Y-108957287D01*
X92396982Y-108957287D02*
X92396982Y-108317263D01*
X92884620Y-108926810D02*
X92976052Y-108957287D01*
X92976052Y-108957287D02*
X93128439Y-108957287D01*
X93128439Y-108957287D02*
X93189393Y-108926810D01*
X93189393Y-108926810D02*
X93219871Y-108896332D01*
X93219871Y-108896332D02*
X93250348Y-108835378D01*
X93250348Y-108835378D02*
X93250348Y-108774423D01*
X93250348Y-108774423D02*
X93219871Y-108713468D01*
X93219871Y-108713468D02*
X93189393Y-108682991D01*
X93189393Y-108682991D02*
X93128439Y-108652514D01*
X93128439Y-108652514D02*
X93006529Y-108622036D01*
X93006529Y-108622036D02*
X92945575Y-108591559D01*
X92945575Y-108591559D02*
X92915097Y-108561082D01*
X92915097Y-108561082D02*
X92884620Y-108500127D01*
X92884620Y-108500127D02*
X92884620Y-108439172D01*
X92884620Y-108439172D02*
X92915097Y-108378218D01*
X92915097Y-108378218D02*
X92945575Y-108347740D01*
X92945575Y-108347740D02*
X93006529Y-108317263D01*
X93006529Y-108317263D02*
X93158916Y-108317263D01*
X93158916Y-108317263D02*
X93250348Y-108347740D01*
X93859895Y-108957287D02*
X93494167Y-108957287D01*
X93677031Y-108957287D02*
X93677031Y-108317263D01*
X93677031Y-108317263D02*
X93616076Y-108408695D01*
X93616076Y-108408695D02*
X93555122Y-108469650D01*
X93555122Y-108469650D02*
X93494167Y-108500127D01*
%TO.C,BT1*%
X136438409Y-72108914D02*
X136486028Y-71966057D01*
X136486028Y-71966057D02*
X136533647Y-71918438D01*
X136533647Y-71918438D02*
X136628885Y-71870819D01*
X136628885Y-71870819D02*
X136771742Y-71870819D01*
X136771742Y-71870819D02*
X136866980Y-71918438D01*
X136866980Y-71918438D02*
X136914600Y-71966057D01*
X136914600Y-71966057D02*
X136962219Y-72061295D01*
X136962219Y-72061295D02*
X136962219Y-72442247D01*
X136962219Y-72442247D02*
X135962219Y-72442247D01*
X135962219Y-72442247D02*
X135962219Y-72108914D01*
X135962219Y-72108914D02*
X136009838Y-72013676D01*
X136009838Y-72013676D02*
X136057457Y-71966057D01*
X136057457Y-71966057D02*
X136152695Y-71918438D01*
X136152695Y-71918438D02*
X136247933Y-71918438D01*
X136247933Y-71918438D02*
X136343171Y-71966057D01*
X136343171Y-71966057D02*
X136390790Y-72013676D01*
X136390790Y-72013676D02*
X136438409Y-72108914D01*
X136438409Y-72108914D02*
X136438409Y-72442247D01*
X135962219Y-71585104D02*
X135962219Y-71013676D01*
X136962219Y-71299390D02*
X135962219Y-71299390D01*
X136962219Y-70156533D02*
X136962219Y-70727961D01*
X136962219Y-70442247D02*
X135962219Y-70442247D01*
X135962219Y-70442247D02*
X136105076Y-70537485D01*
X136105076Y-70537485D02*
X136200314Y-70632723D01*
X136200314Y-70632723D02*
X136247933Y-70727961D01*
%TO.C,U6*%
X105502300Y-114502000D02*
G75*
G03*
X105502300Y-114502000I-2200000J0D01*
G01*
X105502300Y-84582000D02*
G75*
G03*
X105502300Y-84582000I-2200000J0D01*
G01*
X54582300Y-114502000D02*
G75*
G03*
X54582300Y-114502000I-2200000J0D01*
G01*
X54582300Y-84582000D02*
G75*
G03*
X54582300Y-84582000I-2200000J0D01*
G01*
%TD*%
M02*
