M48
; DRILL file {KiCad 7.0.1} date Sun Apr 16 22:16:48 2023
; FORMAT={-:-/ absolute / inch / decimal}
; #@! TF.CreationDate,2023-04-16T22:16:48+10:00
; #@! TF.GenerationSoftware,Kicad,Pcbnew,7.0.1
; #@! TF.FileFunction,Plated,1,4,PTH
FMAT,2
INCH
; #@! TA.AperFunction,Plated,PTH,ViaDrill
T1C0.0079
; #@! TA.AperFunction,Plated,PTH,ViaDrill
T2C0.0118
; #@! TA.AperFunction,Plated,PTH,ComponentDrill
T3C0.0362
; #@! TA.AperFunction,Plated,PTH,ComponentDrill
T4C0.0394
; #@! TA.AperFunction,Plated,PTH,ComponentDrill
T5C0.0433
; #@! TA.AperFunction,Plated,PTH,ComponentDrill
T6C0.0917
%
G90
G05
T1
X2.0412Y-3.8323
X2.0412Y-3.9189
X2.0412Y-4.0056
X2.7949Y-4.1582
X2.815Y-3.6573
X2.8345Y-4.1465
X2.8938Y-3.6573
X2.9725Y-3.6573
X2.976Y-3.75
X3.0512Y-3.6573
X3.13Y-3.6573
X3.194Y-3.732
X3.2087Y-3.6573
X3.3111Y-3.8738
X3.3111Y-3.9518
X3.356Y-3.916
X3.4635Y-3.9079
X3.878Y-4.268
X4.0111Y-3.9519
X4.1662Y-4.022
X4.1861Y-3.961
X4.37Y-3.0859
X4.37Y-3.972
X4.454Y-4.142
X4.4599Y-3.488
X4.5739Y-3.716
X4.6739Y-3.752
X4.7312Y-3.161
X4.751Y-3.1808
X4.9Y-3.492
X5.358Y-3.842
X5.372Y-2.485
X5.372Y-3.1071
X5.446Y-4.106
T2
X2.004Y-3.536
X2.06Y-3.7381
X2.066Y-4.306
X2.086Y-3.876
X2.086Y-3.962
X2.126Y-2.854
X2.168Y-3.536
X2.168Y-3.626
X2.28Y-4.364
X2.324Y-4.336
X2.5Y-3.784
X2.512Y-4.216
X2.544Y-4.04
X2.572Y-3.928
X2.6Y-4.364
X2.6035Y-3.5625
X2.606Y-4.45
X2.618Y-3.716
X2.7125Y-3.6715
X2.8835Y-3.5205
X3.03Y-3.52
X3.1874Y-3.5206
X3.338Y-3.52
X3.4152Y-3.6468
X3.486Y-4.048
X3.4968Y-3.6508
X3.5659Y-3.6539
X3.5669Y-3.791
X3.604Y-3.722
X3.625Y-3.947
X3.662Y-3.738
X3.806Y-3.584
X4.14Y-2.9069
X4.218Y-2.534
X4.23Y-2.9615
X4.282Y-2.882
X4.354Y-2.638
X4.422Y-2.872
X4.474Y-2.35
X4.61Y-2.961
X5.064Y-3.972
X5.07Y-3.542
X5.1Y-3.242
X5.1Y-3.442
X5.119Y-3.892
X5.224Y-4.496
X5.254Y-3.572
X5.254Y-3.656
X5.346Y-4.178
X5.3601Y-4.336
X5.362Y-3.974
X5.414Y-3.742
X5.42Y-3.822
X5.464Y-3.63
X5.566Y-3.616
X5.626Y-3.248
X5.626Y-3.992
T3
X4.676Y-2.8043
X4.676Y-2.8831
X4.7744Y-2.8043
X4.7744Y-2.8831
T4
X2.0619Y-3.146
X2.062Y-2.422
X2.062Y-2.522
X2.1619Y-3.146
X2.2619Y-3.146
X2.3619Y-3.146
X2.374Y-2.7153
X2.374Y-2.8153
X2.4619Y-3.146
X2.474Y-2.7153
X2.474Y-2.8153
X2.5619Y-3.146
X2.574Y-2.7153
X2.574Y-2.8153
X2.6619Y-3.146
X2.674Y-2.7153
X2.674Y-2.8153
X2.7619Y-3.146
X2.774Y-2.7153
X2.774Y-2.8153
X2.8619Y-3.146
X2.874Y-2.7153
X2.874Y-2.8153
X2.9619Y-3.146
X2.974Y-2.7153
X2.974Y-2.8153
X3.0619Y-3.146
X3.074Y-2.7153
X3.074Y-2.8153
X3.174Y-2.7153
X3.174Y-2.8153
X3.274Y-2.7153
X3.274Y-2.8153
X3.374Y-2.7153
X3.374Y-2.8153
X3.474Y-2.7153
X3.474Y-2.8153
X3.574Y-2.7153
X3.574Y-2.8153
X3.674Y-2.7153
X3.674Y-2.8153
X3.774Y-2.7153
X3.774Y-2.8153
X3.874Y-2.7153
X3.874Y-2.8153
X3.974Y-2.7153
X3.974Y-2.8153
X4.108Y-3.569
X4.108Y-3.669
X4.108Y-3.769
X4.108Y-3.869
X4.108Y-3.969
X4.108Y-4.069
X4.108Y-4.169
X4.108Y-4.269
X4.2858Y-2.434
X4.2858Y-2.534
X4.3858Y-2.434
X4.3858Y-2.534
T5
X4.2619Y-3.242
X4.2619Y-3.342
X4.2619Y-3.442
X4.2619Y-3.542
X4.2619Y-3.642
X4.2619Y-3.742
X4.2619Y-3.842
X4.2619Y-3.942
X4.2619Y-4.042
X4.2619Y-4.142
X4.2619Y-4.242
X4.2619Y-4.342
X4.2619Y-4.442
X4.2619Y-4.542
X4.3619Y-4.542
X4.4619Y-4.542
X4.5528Y-3.292
X4.5528Y-3.492
X4.5619Y-3.842
X4.5619Y-3.942
X4.5619Y-4.042
X4.5619Y-4.142
X4.5619Y-4.242
X4.5619Y-4.342
X4.5619Y-4.442
X4.5619Y-4.542
X4.6367Y-3.292
X4.6619Y-3.842
X4.6619Y-3.942
X4.6619Y-4.042
X4.6619Y-4.142
X4.6619Y-4.242
X4.6619Y-4.342
X4.6619Y-4.442
X4.6619Y-4.542
X4.7619Y-3.342
X4.7619Y-3.542
X4.7619Y-3.642
X4.7619Y-3.742
X4.7619Y-4.542
X4.8619Y-3.242
X4.8619Y-3.342
X4.8619Y-3.442
X4.8619Y-3.542
X4.8619Y-3.642
X4.8619Y-3.742
X4.8619Y-3.842
X4.8619Y-3.942
X4.8619Y-4.042
X4.8619Y-4.142
X4.8619Y-4.242
X4.8619Y-4.342
X4.8619Y-4.442
X4.8619Y-4.542
T6
X4.4882Y-2.6976
X4.9622Y-2.6976
T0
M30
