%TF.GenerationSoftware,KiCad,Pcbnew,7.0.1*%
%TF.CreationDate,2023-04-16T22:16:48+10:00*%
%TF.ProjectId,XCopy Standalone,58436f70-7920-4537-9461-6e64616c6f6e,rev?*%
%TF.SameCoordinates,Original*%
%TF.FileFunction,Copper,L3,Inr*%
%TF.FilePolarity,Positive*%
%FSLAX46Y46*%
G04 Gerber Fmt 4.6, Leading zero omitted, Abs format (unit mm)*
G04 Created by KiCad (PCBNEW 7.0.1) date 2023-04-16 22:16:48*
%MOMM*%
%LPD*%
G01*
G04 APERTURE LIST*
G04 Aperture macros list*
%AMRoundRect*
0 Rectangle with rounded corners*
0 $1 Rounding radius*
0 $2 $3 $4 $5 $6 $7 $8 $9 X,Y pos of 4 corners*
0 Add a 4 corners polygon primitive as box body*
4,1,4,$2,$3,$4,$5,$6,$7,$8,$9,$2,$3,0*
0 Add four circle primitives for the rounded corners*
1,1,$1+$1,$2,$3*
1,1,$1+$1,$4,$5*
1,1,$1+$1,$6,$7*
1,1,$1+$1,$8,$9*
0 Add four rect primitives between the rounded corners*
20,1,$1+$1,$2,$3,$4,$5,0*
20,1,$1+$1,$4,$5,$6,$7,0*
20,1,$1+$1,$6,$7,$8,$9,0*
20,1,$1+$1,$8,$9,$2,$3,0*%
G04 Aperture macros list end*
%TA.AperFunction,ComponentPad*%
%ADD10O,1.700000X1.700000*%
%TD*%
%TA.AperFunction,ComponentPad*%
%ADD11R,1.700000X1.700000*%
%TD*%
%TA.AperFunction,ComponentPad*%
%ADD12RoundRect,0.425000X0.425000X-0.425000X0.425000X0.425000X-0.425000X0.425000X-0.425000X-0.425000X0*%
%TD*%
%TA.AperFunction,ComponentPad*%
%ADD13C,1.700000*%
%TD*%
%TA.AperFunction,ComponentPad*%
%ADD14R,1.600000X1.600000*%
%TD*%
%TA.AperFunction,ComponentPad*%
%ADD15C,1.600000*%
%TD*%
%TA.AperFunction,ComponentPad*%
%ADD16C,3.500000*%
%TD*%
%TA.AperFunction,ViaPad*%
%ADD17C,0.460000*%
%TD*%
%TA.AperFunction,ViaPad*%
%ADD18C,0.560000*%
%TD*%
%TA.AperFunction,Conductor*%
%ADD19C,0.200000*%
%TD*%
%TA.AperFunction,Conductor*%
%ADD20C,0.304800*%
%TD*%
G04 APERTURE END LIST*
D10*
%TO.N,GND*%
%TO.C,U6*%
X104342300Y-90652000D03*
%TO.N,+3V3*%
X104342300Y-93192000D03*
%TO.N,SCK*%
X104342300Y-95732000D03*
%TO.N,MOSI*%
X104342300Y-98272000D03*
%TO.N,TFT_RESET*%
X104342300Y-100812000D03*
%TO.N,TFT_DC*%
X104342300Y-103352000D03*
%TO.N,TFT_CS*%
X104342300Y-105892000D03*
D11*
%TO.N,+3V3*%
X104342300Y-108432000D03*
%TD*%
D12*
%TO.N,GND*%
%TO.C,J1*%
X100939600Y-68969300D03*
D13*
%TO.N,DENSITY*%
X100939600Y-71509300D03*
%TO.N,GND*%
X98399600Y-68969300D03*
%TO.N,unconnected-(J1-Pin_4-Pad4)*%
X98399600Y-71509300D03*
%TO.N,GND*%
X95859600Y-68969300D03*
%TO.N,unconnected-(J1-Pin_6-Pad6)*%
X95859600Y-71509300D03*
%TO.N,GND*%
X93319600Y-68969300D03*
%TO.N,INDEX*%
X93319600Y-71509300D03*
%TO.N,GND*%
X90779600Y-68969300D03*
%TO.N,unconnected-(J1-Pin_10-Pad10)*%
X90779600Y-71509300D03*
%TO.N,GND*%
X88239600Y-68969300D03*
%TO.N,DRIVE_SELECT*%
X88239600Y-71509300D03*
%TO.N,GND*%
X85699600Y-68969300D03*
%TO.N,unconnected-(J1-Pin_14-Pad14)*%
X85699600Y-71509300D03*
%TO.N,GND*%
X83159600Y-68969300D03*
%TO.N,MOTOR*%
X83159600Y-71509300D03*
%TO.N,GND*%
X80619600Y-68969300D03*
%TO.N,DIRECTION*%
X80619600Y-71509300D03*
%TO.N,GND*%
X78079600Y-68969300D03*
%TO.N,STEP*%
X78079600Y-71509300D03*
%TO.N,GND*%
X75539600Y-68969300D03*
%TO.N,WRITE_DATA*%
X75539600Y-71509300D03*
%TO.N,GND*%
X72999600Y-68969300D03*
%TO.N,WRITE_ENABLE*%
X72999600Y-71509300D03*
%TO.N,GND*%
X70459600Y-68969300D03*
%TO.N,TRACK_0*%
X70459600Y-71509300D03*
%TO.N,GND*%
X67919600Y-68969300D03*
%TO.N,WRITE_PROTECT*%
X67919600Y-71509300D03*
%TO.N,GND*%
X65379600Y-68969300D03*
%TO.N,READ_DATA*%
X65379600Y-71509300D03*
%TO.N,GND*%
X62839600Y-68969300D03*
%TO.N,HEAD_SELECT*%
X62839600Y-71509300D03*
%TO.N,GND*%
X60299600Y-68969300D03*
%TO.N,DISK_CHANGE*%
X60299600Y-71509300D03*
%TD*%
D11*
%TO.N,VBUS*%
%TO.C,J3*%
X52374800Y-61518800D03*
D10*
%TO.N,GND*%
X52374800Y-64058800D03*
%TD*%
D14*
%TO.N,GND*%
%TO.C,U1*%
X108251600Y-82346800D03*
D15*
%TO.N,RX*%
X108251600Y-84886800D03*
%TO.N,TX*%
X108251600Y-87426800D03*
%TO.N,SD_CD*%
X108251600Y-89966800D03*
%TO.N,DISK_CHANGE*%
X108251600Y-92506800D03*
%TO.N,HEAD_SELECT*%
X108251600Y-95046800D03*
%TO.N,READ_DATA*%
X108251600Y-97586800D03*
%TO.N,WRITE_PROTECT*%
X108251600Y-100126800D03*
%TO.N,TRACK_0*%
X108251600Y-102666800D03*
%TO.N,WRITE_ENABLE*%
X108251600Y-105206800D03*
%TO.N,WRITE_DATA*%
X108251600Y-107746800D03*
%TO.N,TFT_CS*%
X108251600Y-110286800D03*
%TO.N,MOSI*%
X108251600Y-112826800D03*
%TO.N,MISO*%
X108251600Y-115366800D03*
%TO.N,BAT_+*%
X110791600Y-115366800D03*
%TO.N,unconnected-(U1-3.3V-Pad16)*%
X113331600Y-115366800D03*
%TO.N,BAT_-*%
X115871600Y-115366800D03*
%TO.N,unconnected-(U1-Program-Pad18)*%
X118411600Y-115366800D03*
%TO.N,AUDIO_INP*%
X120951600Y-115366800D03*
%TO.N,SCK*%
X123491600Y-115366800D03*
%TO.N,DENSITY*%
X123491600Y-112826800D03*
%TO.N,INDEX*%
X123491600Y-110286800D03*
%TO.N,DRIVE_SELECT*%
X123491600Y-107746800D03*
%TO.N,MOTOR*%
X123491600Y-105206800D03*
%TO.N,DIRECTION*%
X123491600Y-102666800D03*
%TO.N,STEP*%
X123491600Y-100126800D03*
%TO.N,TFT_DC*%
X123491600Y-97586800D03*
%TO.N,TFT_RESET*%
X123491600Y-95046800D03*
%TO.N,SD_CS*%
X123491600Y-92506800D03*
%TO.N,FLASH_CS*%
X123491600Y-89966800D03*
%TO.N,+3.3V*%
X123491600Y-87426800D03*
%TO.N,unconnected-(U1-AGND-Pad32)*%
X123491600Y-84886800D03*
%TO.N,VBUS*%
X123491600Y-82346800D03*
%TO.N,unconnected-(U1-VUSB-Pad34)*%
X120951600Y-84886800D03*
%TO.N,unconnected-(U1-AREF-Pad35)*%
X120951600Y-89966800D03*
%TO.N,unconnected-(U1-A10-Pad36)*%
X120951600Y-92506800D03*
%TO.N,unconnected-(U1-A11-Pad37)*%
X120951600Y-95046800D03*
%TO.N,TEENSY_RESET*%
X115641600Y-88696800D03*
%TO.N,TEENSYUSB_D-*%
X115641600Y-83616800D03*
%TO.N,TEENSYUSB_D+*%
X117771600Y-83616800D03*
%TO.N,unconnected-(U1-A13-Pad41)*%
X118411600Y-97586800D03*
%TO.N,unconnected-(U1-3.3V-Pad42)*%
X118411600Y-100126800D03*
%TO.N,JOY_PUSH*%
X118411600Y-102666800D03*
%TO.N,JOY_RIGHT*%
X118411600Y-105206800D03*
%TO.N,JOY_LEFT*%
X118411600Y-107746800D03*
%TO.N,JOY_DOWN*%
X118411600Y-110286800D03*
%TO.N,JOY_UP*%
X118411600Y-112826800D03*
%TO.N,TEENSY_RESET*%
X115871600Y-112826800D03*
%TO.N,SD_WP*%
X115871600Y-110286800D03*
%TO.N,ESP_PROG*%
X115871600Y-107746800D03*
%TO.N,ESP_RESET*%
X115871600Y-105206800D03*
%TO.N,BUSY*%
X115871600Y-102666800D03*
%TO.N,GND*%
X115871600Y-100126800D03*
%TO.N,unconnected-(U1-A12-Pad54)*%
X115871600Y-97586800D03*
%TD*%
D11*
%TO.N,VBUS*%
%TO.C,J4*%
X118770400Y-73229800D03*
D13*
%TO.N,TEENSYUSB_D-*%
X121270400Y-73229800D03*
%TO.N,TEENSYUSB_D+*%
X121270400Y-71229800D03*
%TO.N,GND*%
X118770400Y-71229800D03*
D16*
%TO.N,unconnected-(J4-Shield-Pad5)*%
X114000400Y-68519800D03*
X126040400Y-68519800D03*
%TD*%
D11*
%TO.N,/ESP8266/PH1_ADC*%
%TO.C,J2*%
X77771600Y-79908400D03*
D10*
%TO.N,/ESP8266/PH2_CS0*%
X75231600Y-79908400D03*
%TO.N,/ESP8266/PH3_MISO*%
X72691600Y-79908400D03*
%TO.N,/ESP8266/PH4_GPIO9*%
X70151600Y-79908400D03*
%TO.N,/ESP8266/PH5_GPIO10*%
X67611600Y-79908400D03*
%TO.N,/ESP8266/PH6_MOSI*%
X65071600Y-79908400D03*
%TO.N,/ESP8266/PH7_SCLK*%
X62531600Y-79908400D03*
%TO.N,/ESP8266/PH8_GPIO5*%
X59991600Y-79908400D03*
%TO.N,/ESP8266/PH9_GPIO12*%
X57451600Y-79908400D03*
%TO.N,/ESP8266/PH10_GPIO14*%
X54911600Y-79908400D03*
%TO.N,/ESP8266/PH11_GPIO16*%
X52371600Y-79908400D03*
%TD*%
D11*
%TO.N,GND*%
%TO.C,J5*%
X108859400Y-61823600D03*
D10*
%TO.N,VBUS*%
X111399400Y-61823600D03*
%TO.N,+3.3V*%
X108859400Y-64363600D03*
%TO.N,+3V3*%
X111399400Y-64363600D03*
%TD*%
D17*
%TO.N,BAT_+*%
X136448800Y-63119200D03*
%TO.N,BAT_-*%
X136448800Y-78919200D03*
D18*
%TO.N,GND*%
X129540000Y-87426800D03*
X52476400Y-109372400D03*
X64617600Y-102616000D03*
X110591600Y-67005200D03*
X66127738Y-90488662D03*
X52984400Y-98450400D03*
X117094000Y-75210400D03*
X88544400Y-102819200D03*
X55067200Y-92100400D03*
X54000400Y-72491600D03*
X52324000Y-94948300D03*
X57912000Y-110845600D03*
X133451600Y-90728800D03*
X96672400Y-91033200D03*
X142900400Y-101396800D03*
X112318800Y-72948800D03*
X141376400Y-91846400D03*
X66040000Y-110845600D03*
X135788400Y-106121200D03*
X92075000Y-100253800D03*
X68896338Y-93257262D03*
X55067200Y-89814400D03*
X137668000Y-97078800D03*
X91541600Y-94538800D03*
X66497200Y-94386400D03*
X63500000Y-96113600D03*
X142900400Y-82499200D03*
X65328800Y-99771200D03*
X133451600Y-92862400D03*
X129540000Y-82346800D03*
X105156000Y-73834700D03*
X88819900Y-92731500D03*
X132689600Y-114198400D03*
X63804800Y-107086400D03*
X93014800Y-94945200D03*
X136194800Y-100939600D03*
X136147786Y-110134400D03*
X130022600Y-98856800D03*
%TO.N,VBUS*%
X90573200Y-92809700D03*
X90598600Y-96290300D03*
X113639600Y-59690000D03*
X108762800Y-73202800D03*
%TO.N,+3V3*%
X107442000Y-75222299D03*
X86744900Y-92629900D03*
X76962000Y-89408000D03*
X80960462Y-89422738D03*
X84785200Y-89408000D03*
X73241260Y-89420340D03*
%TO.N,+3.3V*%
X50901600Y-89814400D03*
X52984400Y-100634800D03*
X128778000Y-89966800D03*
X128625600Y-100888800D03*
X59029600Y-110134400D03*
X138785600Y-92202000D03*
X107137200Y-64363600D03*
X137515600Y-95046800D03*
X66192400Y-113030000D03*
D17*
%TO.N,BUSY*%
X70990528Y-105618633D03*
%TO.N,SCK*%
X51846600Y-99541200D03*
X138328400Y-104292400D03*
X105820900Y-102158800D03*
X136093200Y-97586800D03*
%TO.N,TEENSYUSB_D-*%
X120172466Y-80290288D03*
%TO.N,TEENSYUSB_D+*%
X120674512Y-80792334D03*
%TO.N,SD_CS*%
X113280800Y-88595200D03*
%TO.N,MOSI*%
X51846600Y-101741200D03*
X116176400Y-94386400D03*
X101881700Y-100377000D03*
%TO.N,MISO*%
X118716400Y-95300800D03*
X51846600Y-97341200D03*
%TO.N,SD_WP*%
X110996785Y-78382415D03*
%TO.N,ESP_RESET*%
X113131600Y-105206800D03*
X98501200Y-108407200D03*
%TO.N,ESP_PROG*%
X71996582Y-105321383D03*
%TO.N,JOY_LEFT*%
X87972804Y-99261315D03*
X106326600Y-100610550D03*
%TO.N,TEENSY_RESET*%
X124460000Y-88696800D03*
%TO.N,TFT_DC*%
X110998000Y-100888800D03*
%TO.N,/ESP8266/PH1_ADC*%
X81127600Y-94792800D03*
%TO.N,/ESP8266/PH2_CS0*%
X81501600Y-92894800D03*
%TO.N,/ESP8266/PH3_MISO*%
X79501600Y-92894800D03*
%TO.N,/ESP8266/PH4_GPIO9*%
X77501600Y-92894800D03*
%TO.N,/ESP8266/PH5_GPIO10*%
X75501600Y-92894800D03*
%TO.N,/ESP8266/PH6_MOSI*%
X73501600Y-92894800D03*
%TO.N,/ESP8266/PH7_SCLK*%
X71501600Y-92894800D03*
%TO.N,/ESP8266/PH11_GPIO16*%
X85242400Y-99465298D03*
%TO.N,/ESP8266/PH10_GPIO14*%
X84101600Y-100376500D03*
%TO.N,/ESP8266/PH9_GPIO12*%
X84101600Y-98394800D03*
%TO.N,/ESP8266/PH8_GPIO5*%
X75590400Y-95250000D03*
%TD*%
D19*
%TO.N,BAT_+*%
X136448800Y-63119200D02*
X131495600Y-63119200D01*
X124899600Y-113926800D02*
X112231600Y-113926800D01*
X141556400Y-81917200D02*
X141556400Y-91266400D01*
X141122400Y-81483200D02*
X141556400Y-81917200D01*
X130403600Y-80162400D02*
X131724400Y-81483200D01*
X140796400Y-91606156D02*
X140796400Y-92086644D01*
X136543514Y-116027200D02*
X127000000Y-116027200D01*
X141528800Y-111041914D02*
X136543514Y-116027200D01*
X127000000Y-116027200D02*
X124899600Y-113926800D01*
X141535200Y-92426400D02*
X141535200Y-93065600D01*
X141136156Y-92426400D02*
X141535200Y-92426400D01*
X140796400Y-92086644D02*
X141136156Y-92426400D01*
X131724400Y-81483200D02*
X141122400Y-81483200D01*
X112231600Y-113926800D02*
X110791600Y-115366800D01*
X141528800Y-93065600D02*
X141528800Y-111041914D01*
X131495600Y-63119200D02*
X130403600Y-64211200D01*
X141556400Y-91266400D02*
X141136156Y-91266400D01*
X141136156Y-91266400D02*
X140796400Y-91606156D01*
X130403600Y-64211200D02*
X130403600Y-80162400D01*
%TO.N,BAT_-*%
X115871600Y-115366800D02*
X116971600Y-116466800D01*
X116971600Y-116466800D02*
X136669600Y-116466800D01*
X140996800Y-78919200D02*
X136448800Y-78919200D01*
X141956400Y-92086644D02*
X141956400Y-79878800D01*
X141935200Y-111201200D02*
X141935200Y-92107844D01*
X141935200Y-92107844D02*
X141956400Y-92086644D01*
X136669600Y-116466800D02*
X141935200Y-111201200D01*
X141956400Y-79878800D02*
X140996800Y-78919200D01*
D20*
%TO.N,VBUS*%
X91338400Y-91744800D02*
X99009200Y-91744800D01*
X102819200Y-74726800D02*
X104343200Y-73202800D01*
X102819200Y-80822800D02*
X102819200Y-74726800D01*
X104343200Y-73202800D02*
X108762800Y-73202800D01*
X90573200Y-96264900D02*
X90598600Y-96290300D01*
X90573200Y-92809700D02*
X90573200Y-96264900D01*
X100380800Y-90373200D02*
X100380800Y-83261200D01*
X100380800Y-83261200D02*
X102819200Y-80822800D01*
X99009200Y-91744800D02*
X100380800Y-90373200D01*
X90573200Y-92809700D02*
X90573200Y-92510000D01*
X90573200Y-92510000D02*
X91338400Y-91744800D01*
%TO.N,+3V3*%
X107442000Y-75277299D02*
X105610000Y-77109299D01*
X104342300Y-93192000D02*
X102551750Y-94982550D01*
X86744900Y-90300900D02*
X86744900Y-92629900D01*
X102241100Y-100958900D02*
X102463600Y-100736400D01*
X105610000Y-77109299D02*
X105610000Y-91924300D01*
X86744900Y-90300900D02*
X85852000Y-89408000D01*
X90494100Y-100958900D02*
X102241100Y-100958900D01*
X86744900Y-97209700D02*
X90494100Y-100958900D01*
X102463600Y-106553300D02*
X102463600Y-100736400D01*
X80975200Y-89408000D02*
X80960462Y-89422738D01*
X73253600Y-89408000D02*
X73241260Y-89420340D01*
X102463600Y-95070700D02*
X102551750Y-94982550D01*
X76976738Y-89422738D02*
X76962000Y-89408000D01*
X84785200Y-89408000D02*
X80975200Y-89408000D01*
X104342300Y-108432000D02*
X102463600Y-106553300D01*
X76962000Y-89408000D02*
X73253600Y-89408000D01*
X80960462Y-89422738D02*
X76976738Y-89422738D01*
X105610000Y-91924300D02*
X104342300Y-93192000D01*
X86744900Y-92629900D02*
X86744900Y-97209700D01*
X85852000Y-89408000D02*
X84785200Y-89408000D01*
X102463600Y-100736400D02*
X102463600Y-95070700D01*
%TD*%
%TA.AperFunction,Conductor*%
%TO.N,+3.3V*%
G36*
X144405353Y-58164275D02*
G01*
X144532875Y-58180244D01*
X144556944Y-58185696D01*
X144664678Y-58221509D01*
X144675102Y-58224974D01*
X144697663Y-58235024D01*
X144805885Y-58296596D01*
X144826049Y-58310854D01*
X144920178Y-58392356D01*
X144937174Y-58410274D01*
X145013593Y-58508571D01*
X145026769Y-58529464D01*
X145082541Y-58640779D01*
X145091388Y-58663841D01*
X145124372Y-58783896D01*
X145128550Y-58808239D01*
X145137926Y-58938636D01*
X145138206Y-58950999D01*
X145136840Y-59002702D01*
X145138300Y-59010580D01*
X145138300Y-84974250D01*
X145124924Y-85030746D01*
X145087636Y-85075247D01*
X145034354Y-85098305D01*
X144976388Y-85095024D01*
X144941632Y-85075055D01*
X144941542Y-85075220D01*
X144783571Y-84988374D01*
X144783568Y-84988373D01*
X144624377Y-84947500D01*
X144501275Y-84947500D01*
X144501272Y-84947500D01*
X144379144Y-84962928D01*
X144350548Y-84974250D01*
X144226329Y-85023432D01*
X144226327Y-85023433D01*
X144226328Y-85023433D01*
X144093362Y-85120037D01*
X143988599Y-85246674D01*
X143918620Y-85395386D01*
X143887823Y-85556830D01*
X143898143Y-85720859D01*
X143948932Y-85877172D01*
X144036997Y-86015939D01*
X144156808Y-86128449D01*
X144300828Y-86207625D01*
X144300832Y-86207627D01*
X144460023Y-86248500D01*
X144583125Y-86248500D01*
X144583128Y-86248500D01*
X144644191Y-86240785D01*
X144705258Y-86233071D01*
X144858071Y-86172568D01*
X144938241Y-86114321D01*
X145002414Y-86090646D01*
X145069503Y-86103991D01*
X145119733Y-86150423D01*
X145138300Y-86216258D01*
X145138300Y-91273450D01*
X145124924Y-91329946D01*
X145087636Y-91374447D01*
X145034354Y-91397505D01*
X144976388Y-91394224D01*
X144941632Y-91374255D01*
X144941542Y-91374420D01*
X144783571Y-91287574D01*
X144783568Y-91287573D01*
X144624377Y-91246700D01*
X144501275Y-91246700D01*
X144501272Y-91246700D01*
X144379144Y-91262128D01*
X144352907Y-91272516D01*
X144226329Y-91322632D01*
X144216262Y-91329946D01*
X144093362Y-91419237D01*
X143988599Y-91545874D01*
X143918620Y-91694586D01*
X143887823Y-91856030D01*
X143898143Y-92020059D01*
X143948932Y-92176372D01*
X144036997Y-92315139D01*
X144036998Y-92315140D01*
X144041417Y-92319290D01*
X144156808Y-92427649D01*
X144237060Y-92471768D01*
X144300832Y-92506827D01*
X144460023Y-92547700D01*
X144583125Y-92547700D01*
X144583128Y-92547700D01*
X144644191Y-92539985D01*
X144705258Y-92532271D01*
X144858071Y-92471768D01*
X144938241Y-92413521D01*
X145002414Y-92389846D01*
X145069503Y-92403191D01*
X145119733Y-92449623D01*
X145138300Y-92515458D01*
X145138300Y-97674250D01*
X145124924Y-97730746D01*
X145087636Y-97775247D01*
X145034354Y-97798305D01*
X144976388Y-97795024D01*
X144941632Y-97775055D01*
X144941542Y-97775220D01*
X144783571Y-97688374D01*
X144783568Y-97688373D01*
X144624377Y-97647500D01*
X144501275Y-97647500D01*
X144501272Y-97647500D01*
X144379144Y-97662928D01*
X144360626Y-97670260D01*
X144226329Y-97723432D01*
X144226327Y-97723433D01*
X144226328Y-97723433D01*
X144093362Y-97820037D01*
X143988599Y-97946674D01*
X143918620Y-98095386D01*
X143887823Y-98256830D01*
X143898143Y-98420859D01*
X143948932Y-98577172D01*
X144036997Y-98715939D01*
X144156808Y-98828449D01*
X144273345Y-98892516D01*
X144300832Y-98907627D01*
X144460023Y-98948500D01*
X144583125Y-98948500D01*
X144583128Y-98948500D01*
X144644191Y-98940785D01*
X144705258Y-98933071D01*
X144858071Y-98872568D01*
X144938241Y-98814321D01*
X145002414Y-98790646D01*
X145069503Y-98803991D01*
X145119733Y-98850423D01*
X145138300Y-98916258D01*
X145138300Y-116081358D01*
X145138119Y-116082274D01*
X145138283Y-116140144D01*
X145137712Y-116152497D01*
X145124628Y-116289285D01*
X145119877Y-116313525D01*
X145082153Y-116439155D01*
X145072763Y-116462004D01*
X145011250Y-116577863D01*
X144997585Y-116598439D01*
X144930787Y-116680297D01*
X144914657Y-116700063D01*
X144897238Y-116717578D01*
X144796066Y-116801078D01*
X144775566Y-116814858D01*
X144660056Y-116877011D01*
X144637261Y-116886527D01*
X144511845Y-116924949D01*
X144487630Y-116929835D01*
X144351106Y-116943659D01*
X144338413Y-116944300D01*
X137356838Y-116944300D01*
X137299635Y-116930567D01*
X137254902Y-116892361D01*
X137232389Y-116838011D01*
X137237005Y-116779364D01*
X137267743Y-116729205D01*
X138509184Y-115487764D01*
X139495148Y-114501799D01*
X141392141Y-114501799D01*
X141412737Y-114737209D01*
X141473896Y-114965462D01*
X141573765Y-115179629D01*
X141709307Y-115373204D01*
X141876395Y-115540292D01*
X141876398Y-115540294D01*
X141876399Y-115540295D01*
X142069971Y-115675835D01*
X142284137Y-115775703D01*
X142512392Y-115836863D01*
X142688834Y-115852300D01*
X142806760Y-115852300D01*
X142806766Y-115852300D01*
X142983208Y-115836863D01*
X143211463Y-115775703D01*
X143425629Y-115675835D01*
X143619201Y-115540295D01*
X143786295Y-115373201D01*
X143921835Y-115179630D01*
X144021703Y-114965463D01*
X144082863Y-114737208D01*
X144103459Y-114501800D01*
X144082863Y-114266392D01*
X144021703Y-114038137D01*
X143921835Y-113823971D01*
X143786295Y-113630399D01*
X143786294Y-113630398D01*
X143786292Y-113630395D01*
X143619204Y-113463307D01*
X143425629Y-113327765D01*
X143211462Y-113227896D01*
X142983209Y-113166737D01*
X142958001Y-113164531D01*
X142806766Y-113151300D01*
X142688834Y-113151300D01*
X142556502Y-113162877D01*
X142512390Y-113166737D01*
X142284137Y-113227896D01*
X142069970Y-113327765D01*
X141876395Y-113463307D01*
X141709307Y-113630395D01*
X141573765Y-113823969D01*
X141473896Y-114038136D01*
X141412737Y-114266390D01*
X141392141Y-114501799D01*
X139495148Y-114501799D01*
X142331434Y-111665512D01*
X142343810Y-111654658D01*
X142369187Y-111635187D01*
X142426490Y-111560509D01*
X142466724Y-111508076D01*
X142528038Y-111360051D01*
X142531996Y-111329985D01*
X142543700Y-111241085D01*
X142544778Y-111232897D01*
X142544778Y-111232890D01*
X142548950Y-111201200D01*
X142544777Y-111169507D01*
X142543700Y-111153064D01*
X142543700Y-102284944D01*
X142557756Y-102227112D01*
X142596788Y-102182183D01*
X142652087Y-102160181D01*
X142711314Y-102166014D01*
X142723832Y-102170395D01*
X142900400Y-102190289D01*
X143076968Y-102170395D01*
X143244682Y-102111709D01*
X143395132Y-102017175D01*
X143520775Y-101891532D01*
X143615309Y-101741082D01*
X143673995Y-101573368D01*
X143693889Y-101396800D01*
X143673995Y-101220232D01*
X143615309Y-101052518D01*
X143520775Y-100902068D01*
X143520774Y-100902067D01*
X143520773Y-100902065D01*
X143395134Y-100776426D01*
X143244681Y-100681890D01*
X143076970Y-100623205D01*
X142900400Y-100603311D01*
X142723831Y-100623205D01*
X142718268Y-100625151D01*
X142711314Y-100627585D01*
X142652087Y-100633419D01*
X142596788Y-100611417D01*
X142557756Y-100566488D01*
X142543700Y-100508656D01*
X142543700Y-99074500D01*
X142560581Y-99011500D01*
X142606700Y-98965381D01*
X142669700Y-98948500D01*
X142783128Y-98948500D01*
X142844191Y-98940785D01*
X142905258Y-98933071D01*
X143058071Y-98872568D01*
X143191037Y-98775963D01*
X143295800Y-98649326D01*
X143365779Y-98500613D01*
X143396576Y-98339170D01*
X143386256Y-98175140D01*
X143335468Y-98018829D01*
X143330357Y-98010776D01*
X143247402Y-97880060D01*
X143127591Y-97767550D01*
X142983571Y-97688374D01*
X142983568Y-97688373D01*
X142824377Y-97647500D01*
X142701275Y-97647500D01*
X142692874Y-97648561D01*
X142685490Y-97649494D01*
X142616050Y-97638495D01*
X142563314Y-97592001D01*
X142543700Y-97524487D01*
X142543700Y-92673700D01*
X142560581Y-92610700D01*
X142606700Y-92564581D01*
X142669700Y-92547700D01*
X142783128Y-92547700D01*
X142844191Y-92539985D01*
X142905258Y-92532271D01*
X143058071Y-92471768D01*
X143191037Y-92375163D01*
X143295800Y-92248526D01*
X143365779Y-92099813D01*
X143396576Y-91938370D01*
X143394183Y-91900342D01*
X143386256Y-91774340D01*
X143360343Y-91694587D01*
X143335468Y-91618029D01*
X143327932Y-91606155D01*
X143247402Y-91479260D01*
X143127591Y-91366750D01*
X142983571Y-91287574D01*
X142983568Y-91287573D01*
X142824377Y-91246700D01*
X142701275Y-91246700D01*
X142693348Y-91246700D01*
X142693348Y-91243905D01*
X142637244Y-91235014D01*
X142584512Y-91188520D01*
X142564900Y-91121009D01*
X142564900Y-86374500D01*
X142581781Y-86311500D01*
X142627900Y-86265381D01*
X142690900Y-86248500D01*
X142783128Y-86248500D01*
X142844191Y-86240785D01*
X142905258Y-86233071D01*
X143058071Y-86172568D01*
X143191037Y-86075963D01*
X143295800Y-85949326D01*
X143365779Y-85800613D01*
X143396576Y-85639170D01*
X143392083Y-85567764D01*
X143386256Y-85475140D01*
X143378518Y-85451325D01*
X143335468Y-85318829D01*
X143247402Y-85180060D01*
X143127593Y-85067552D01*
X143127591Y-85067550D01*
X142983571Y-84988374D01*
X142983568Y-84988373D01*
X142824377Y-84947500D01*
X142701275Y-84947500D01*
X142693348Y-84947500D01*
X142693348Y-84944705D01*
X142637244Y-84935814D01*
X142584512Y-84889320D01*
X142564900Y-84821809D01*
X142564900Y-83394762D01*
X142578957Y-83336928D01*
X142617992Y-83291998D01*
X142673294Y-83269998D01*
X142709458Y-83273562D01*
X142709724Y-83271205D01*
X142723829Y-83272794D01*
X142723832Y-83272795D01*
X142900400Y-83292689D01*
X143076968Y-83272795D01*
X143244682Y-83214109D01*
X143395132Y-83119575D01*
X143520775Y-82993932D01*
X143615309Y-82843482D01*
X143673995Y-82675768D01*
X143693889Y-82499200D01*
X143673995Y-82322632D01*
X143615309Y-82154918D01*
X143520775Y-82004468D01*
X143520774Y-82004467D01*
X143520773Y-82004465D01*
X143395134Y-81878826D01*
X143244681Y-81784290D01*
X143076970Y-81725605D01*
X142900400Y-81705711D01*
X142723832Y-81725605D01*
X142723830Y-81725605D01*
X142709724Y-81727195D01*
X142709458Y-81724837D01*
X142673294Y-81728402D01*
X142617992Y-81706402D01*
X142578957Y-81661472D01*
X142564900Y-81603638D01*
X142564900Y-79926936D01*
X142565978Y-79910490D01*
X142566519Y-79906379D01*
X142570150Y-79878800D01*
X142565978Y-79847110D01*
X142565978Y-79847103D01*
X142549238Y-79719950D01*
X142487924Y-79571925D01*
X142482307Y-79564605D01*
X142432915Y-79500236D01*
X142414877Y-79476728D01*
X142414874Y-79476725D01*
X142402542Y-79460654D01*
X142390387Y-79444812D01*
X142365018Y-79425346D01*
X142352628Y-79414479D01*
X141461115Y-78522966D01*
X141450248Y-78510575D01*
X141430786Y-78485211D01*
X141398874Y-78460724D01*
X141398874Y-78460725D01*
X141398872Y-78460723D01*
X141303676Y-78387676D01*
X141303675Y-78387675D01*
X141199004Y-78344319D01*
X141155651Y-78326362D01*
X141155650Y-78326361D01*
X141155648Y-78326361D01*
X141136268Y-78323808D01*
X141136256Y-78323808D01*
X141122269Y-78321966D01*
X141028503Y-78309622D01*
X141028491Y-78309622D01*
X140996800Y-78305450D01*
X140965107Y-78309622D01*
X140948664Y-78310700D01*
X136904752Y-78310700D01*
X136837716Y-78291387D01*
X136771250Y-78249623D01*
X136614174Y-78194660D01*
X136448800Y-78176027D01*
X136283425Y-78194660D01*
X136126349Y-78249623D01*
X135985437Y-78338164D01*
X135867764Y-78455837D01*
X135779223Y-78596749D01*
X135724260Y-78753825D01*
X135705627Y-78919200D01*
X135724260Y-79084574D01*
X135779223Y-79241650D01*
X135867764Y-79382562D01*
X135985437Y-79500235D01*
X136126349Y-79588776D01*
X136217614Y-79620711D01*
X136283428Y-79643740D01*
X136448800Y-79662373D01*
X136614172Y-79643740D01*
X136771251Y-79588776D01*
X136827590Y-79553375D01*
X136837716Y-79547013D01*
X136904752Y-79527700D01*
X140692561Y-79527700D01*
X140740779Y-79537291D01*
X140781656Y-79564605D01*
X141310995Y-80093944D01*
X141338309Y-80134821D01*
X141347900Y-80183039D01*
X141347900Y-80755461D01*
X141328167Y-80823161D01*
X141275150Y-80869656D01*
X141205454Y-80880383D01*
X141154103Y-80873622D01*
X141154091Y-80873622D01*
X141122400Y-80869450D01*
X141090707Y-80873622D01*
X141074264Y-80874700D01*
X132028639Y-80874700D01*
X131980421Y-80865109D01*
X131939544Y-80837795D01*
X131049005Y-79947256D01*
X131021691Y-79906379D01*
X131012100Y-79858161D01*
X131012100Y-74772883D01*
X135594539Y-74772883D01*
X135604555Y-74957607D01*
X135654045Y-75135858D01*
X135740699Y-75299303D01*
X135825269Y-75398867D01*
X135860463Y-75440300D01*
X136007736Y-75552254D01*
X136175633Y-75629932D01*
X136311135Y-75659757D01*
X136356302Y-75669700D01*
X136356303Y-75669700D01*
X136494913Y-75669700D01*
X136494916Y-75669700D01*
X136598260Y-75658460D01*
X136632710Y-75654714D01*
X136721795Y-75624697D01*
X136808019Y-75595645D01*
X136808021Y-75595644D01*
X136966536Y-75500270D01*
X137100841Y-75373049D01*
X137204658Y-75219930D01*
X137273131Y-75048075D01*
X137303060Y-74865517D01*
X137293045Y-74680793D01*
X137243554Y-74502541D01*
X137156900Y-74339096D01*
X137108249Y-74281819D01*
X137037138Y-74198101D01*
X137036163Y-74197360D01*
X136889864Y-74086146D01*
X136721967Y-74008468D01*
X136721963Y-74008467D01*
X136541298Y-73968700D01*
X136541297Y-73968700D01*
X136402687Y-73968700D01*
X136402684Y-73968700D01*
X136264890Y-73983685D01*
X136089580Y-74042754D01*
X135931062Y-74138131D01*
X135796759Y-74265350D01*
X135692941Y-74418470D01*
X135624469Y-74590324D01*
X135594539Y-74772883D01*
X131012100Y-74772883D01*
X131012100Y-67367589D01*
X135494624Y-67367589D01*
X135523896Y-67558671D01*
X135591037Y-67739956D01*
X135693288Y-67904004D01*
X135826478Y-68044120D01*
X135985140Y-68154552D01*
X135985141Y-68154552D01*
X135985142Y-68154553D01*
X136162788Y-68230787D01*
X136352144Y-68269700D01*
X136497002Y-68269700D01*
X136497006Y-68269700D01*
X136641121Y-68255045D01*
X136825568Y-68197174D01*
X136994591Y-68103359D01*
X137141268Y-67977440D01*
X137259596Y-67824573D01*
X137344730Y-67651016D01*
X137393185Y-67463874D01*
X137402976Y-67270810D01*
X137373703Y-67079726D01*
X137306564Y-66898447D01*
X137306562Y-66898443D01*
X137204311Y-66734395D01*
X137071121Y-66594279D01*
X136912459Y-66483847D01*
X136734810Y-66407612D01*
X136545456Y-66368700D01*
X136400594Y-66368700D01*
X136285302Y-66380423D01*
X136256478Y-66383355D01*
X136072031Y-66441226D01*
X135995243Y-66483847D01*
X135903009Y-66535041D01*
X135903007Y-66535041D01*
X135903006Y-66535043D01*
X135756335Y-66660957D01*
X135756332Y-66660960D01*
X135707406Y-66724167D01*
X135638001Y-66813830D01*
X135552870Y-66987382D01*
X135504414Y-67174528D01*
X135494624Y-67367589D01*
X131012100Y-67367589D01*
X131012100Y-64515439D01*
X131021691Y-64467221D01*
X131049005Y-64426344D01*
X131710744Y-63764605D01*
X131751621Y-63737291D01*
X131799839Y-63727700D01*
X135992848Y-63727700D01*
X136059884Y-63747013D01*
X136126349Y-63788776D01*
X136283428Y-63843740D01*
X136448800Y-63862373D01*
X136614172Y-63843740D01*
X136771251Y-63788776D01*
X136912161Y-63700236D01*
X137029836Y-63582561D01*
X137118376Y-63441651D01*
X137173340Y-63284572D01*
X137191973Y-63119200D01*
X137173340Y-62953828D01*
X137118376Y-62796749D01*
X137072016Y-62722968D01*
X137029835Y-62655837D01*
X136912162Y-62538164D01*
X136771250Y-62449623D01*
X136614174Y-62394660D01*
X136448800Y-62376027D01*
X136283425Y-62394660D01*
X136126349Y-62449623D01*
X136059884Y-62491387D01*
X135992848Y-62510700D01*
X131543736Y-62510700D01*
X131527290Y-62509622D01*
X131495600Y-62505450D01*
X131463910Y-62509622D01*
X131463896Y-62509622D01*
X131336751Y-62526361D01*
X131250038Y-62562279D01*
X131188721Y-62587676D01*
X131096879Y-62658150D01*
X131096851Y-62658173D01*
X131061610Y-62685214D01*
X131042145Y-62710581D01*
X131031281Y-62722968D01*
X130007367Y-63746882D01*
X129994980Y-63757747D01*
X129969612Y-63777213D01*
X129942573Y-63812451D01*
X129942550Y-63812479D01*
X129872077Y-63904321D01*
X129842471Y-63975796D01*
X129842471Y-63975797D01*
X129810761Y-64052351D01*
X129794022Y-64179503D01*
X129794022Y-64179510D01*
X129789850Y-64211199D01*
X129794022Y-64242890D01*
X129795100Y-64259336D01*
X129795100Y-80114264D01*
X129794022Y-80130707D01*
X129793481Y-80134821D01*
X129789850Y-80162400D01*
X129794022Y-80194090D01*
X129794022Y-80194097D01*
X129801785Y-80253061D01*
X129801785Y-80253062D01*
X129810761Y-80321250D01*
X129872076Y-80469278D01*
X129945121Y-80564472D01*
X129945124Y-80564474D01*
X129969610Y-80596384D01*
X129969611Y-80596385D01*
X129969613Y-80596387D01*
X129994979Y-80615851D01*
X130007369Y-80626718D01*
X131260081Y-81879430D01*
X131270947Y-81891819D01*
X131290413Y-81917187D01*
X131322325Y-81941674D01*
X131322328Y-81941677D01*
X131391718Y-81994921D01*
X131417525Y-82014724D01*
X131565550Y-82076038D01*
X131684515Y-82091700D01*
X131692696Y-82092777D01*
X131692710Y-82092778D01*
X131724400Y-82096950D01*
X131756092Y-82092777D01*
X131772536Y-82091700D01*
X140818161Y-82091700D01*
X140866379Y-82101291D01*
X140907256Y-82128605D01*
X140910995Y-82132344D01*
X140938309Y-82173221D01*
X140947900Y-82221439D01*
X140947900Y-90601551D01*
X140938309Y-90649769D01*
X140910996Y-90690646D01*
X140870118Y-90717960D01*
X140829278Y-90734876D01*
X140734852Y-90807332D01*
X140734632Y-90807502D01*
X140702167Y-90832414D01*
X140682701Y-90857781D01*
X140671837Y-90870168D01*
X140400167Y-91141838D01*
X140387780Y-91152703D01*
X140362412Y-91172169D01*
X140335373Y-91207407D01*
X140335350Y-91207435D01*
X140264877Y-91299277D01*
X140212697Y-91425250D01*
X140212697Y-91425251D01*
X140203562Y-91447306D01*
X140186822Y-91574459D01*
X140186822Y-91574465D01*
X140182650Y-91606156D01*
X140185360Y-91626745D01*
X140186822Y-91637846D01*
X140187900Y-91654292D01*
X140187900Y-92038508D01*
X140186822Y-92054951D01*
X140182650Y-92086644D01*
X140182934Y-92088805D01*
X140186822Y-92118334D01*
X140186822Y-92118341D01*
X140197440Y-92198994D01*
X140203561Y-92245494D01*
X140264876Y-92393522D01*
X140337921Y-92488716D01*
X140337924Y-92488718D01*
X140362410Y-92520628D01*
X140362411Y-92520629D01*
X140362413Y-92520631D01*
X140387779Y-92540095D01*
X140400169Y-92550962D01*
X140671837Y-92822630D01*
X140682703Y-92835019D01*
X140702169Y-92860387D01*
X140727533Y-92879850D01*
X140727549Y-92879864D01*
X140829276Y-92957922D01*
X140829279Y-92957923D01*
X140829280Y-92957924D01*
X140842517Y-92963407D01*
X140883394Y-92990719D01*
X140910709Y-93031597D01*
X140920300Y-93079816D01*
X140920300Y-110737675D01*
X140910709Y-110785893D01*
X140883395Y-110826770D01*
X136328370Y-115381795D01*
X136287493Y-115409109D01*
X136239275Y-115418700D01*
X127304239Y-115418700D01*
X127256021Y-115409109D01*
X127215144Y-115381795D01*
X126031749Y-114198400D01*
X131896111Y-114198400D01*
X131916005Y-114374970D01*
X131974690Y-114542681D01*
X132069226Y-114693134D01*
X132194865Y-114818773D01*
X132194867Y-114818774D01*
X132194868Y-114818775D01*
X132345318Y-114913309D01*
X132513032Y-114971995D01*
X132689600Y-114991889D01*
X132866168Y-114971995D01*
X133033882Y-114913309D01*
X133184332Y-114818775D01*
X133309975Y-114693132D01*
X133404509Y-114542682D01*
X133463195Y-114374968D01*
X133483089Y-114198400D01*
X133463195Y-114021832D01*
X133404509Y-113854118D01*
X133309975Y-113703668D01*
X133309974Y-113703667D01*
X133309973Y-113703665D01*
X133184334Y-113578026D01*
X133033881Y-113483490D01*
X132866170Y-113424805D01*
X132689600Y-113404911D01*
X132513029Y-113424805D01*
X132345318Y-113483490D01*
X132194865Y-113578026D01*
X132069226Y-113703665D01*
X131974690Y-113854118D01*
X131916005Y-114021829D01*
X131896111Y-114198400D01*
X126031749Y-114198400D01*
X125363915Y-113530566D01*
X125353048Y-113518175D01*
X125333588Y-113492814D01*
X125305827Y-113471512D01*
X125301674Y-113468325D01*
X125301672Y-113468323D01*
X125230417Y-113413647D01*
X125206475Y-113395275D01*
X125101804Y-113351919D01*
X125058451Y-113333962D01*
X125058450Y-113333961D01*
X125058448Y-113333961D01*
X125039068Y-113331408D01*
X125039056Y-113331408D01*
X125025069Y-113329566D01*
X124931303Y-113317222D01*
X124931291Y-113317222D01*
X124926050Y-113316532D01*
X124899599Y-113313049D01*
X124896211Y-113313496D01*
X124835381Y-113306498D01*
X124785034Y-113271651D01*
X124757057Y-113217185D01*
X124758060Y-113155962D01*
X124785142Y-113054891D01*
X124785142Y-113054890D01*
X124785143Y-113054887D01*
X124805098Y-112826800D01*
X124785143Y-112598713D01*
X124725884Y-112377557D01*
X124723761Y-112373005D01*
X124629122Y-112170049D01*
X124534139Y-112034400D01*
X133433193Y-112034400D01*
X133452759Y-112208057D01*
X133510478Y-112373006D01*
X133513338Y-112377557D01*
X133603455Y-112520979D01*
X133727020Y-112644544D01*
X133727022Y-112644545D01*
X133727024Y-112644547D01*
X133874994Y-112737522D01*
X134039943Y-112795241D01*
X134170048Y-112809900D01*
X134257150Y-112809900D01*
X134257152Y-112809900D01*
X134387257Y-112795241D01*
X134552206Y-112737522D01*
X134700176Y-112644547D01*
X134823747Y-112520976D01*
X134916722Y-112373006D01*
X134974441Y-112208057D01*
X134994007Y-112034400D01*
X134974441Y-111860743D01*
X134916722Y-111695794D01*
X134823747Y-111547824D01*
X134823745Y-111547822D01*
X134823744Y-111547820D01*
X134700179Y-111424255D01*
X134597998Y-111360051D01*
X134552206Y-111331278D01*
X134387257Y-111273559D01*
X134257152Y-111258900D01*
X134170048Y-111258900D01*
X134083311Y-111268672D01*
X134039942Y-111273559D01*
X133874994Y-111331278D01*
X133727020Y-111424255D01*
X133603455Y-111547820D01*
X133510478Y-111695794D01*
X133452759Y-111860742D01*
X133439040Y-111982500D01*
X133433193Y-112034400D01*
X124534139Y-112034400D01*
X124497795Y-111982496D01*
X124335903Y-111820604D01*
X124148348Y-111689276D01*
X124109143Y-111670995D01*
X124056125Y-111624500D01*
X124036392Y-111556800D01*
X124056125Y-111489100D01*
X124109143Y-111442605D01*
X124113763Y-111440450D01*
X124148349Y-111424323D01*
X124335900Y-111292998D01*
X124497798Y-111131100D01*
X124629123Y-110943549D01*
X124725884Y-110736043D01*
X124785143Y-110514887D01*
X124805098Y-110286800D01*
X124791765Y-110134400D01*
X135354297Y-110134400D01*
X135374191Y-110310970D01*
X135432876Y-110478681D01*
X135527412Y-110629134D01*
X135653051Y-110754773D01*
X135653053Y-110754774D01*
X135653054Y-110754775D01*
X135803504Y-110849309D01*
X135971218Y-110907995D01*
X136147786Y-110927889D01*
X136324354Y-110907995D01*
X136492068Y-110849309D01*
X136642518Y-110754775D01*
X136768161Y-110629132D01*
X136862695Y-110478682D01*
X136921381Y-110310968D01*
X136941275Y-110134400D01*
X136921381Y-109957832D01*
X136862695Y-109790118D01*
X136768161Y-109639668D01*
X136768160Y-109639667D01*
X136768159Y-109639665D01*
X136642520Y-109514026D01*
X136492067Y-109419490D01*
X136324356Y-109360805D01*
X136206642Y-109347542D01*
X136147786Y-109340911D01*
X136147785Y-109340911D01*
X135971215Y-109360805D01*
X135803504Y-109419490D01*
X135653051Y-109514026D01*
X135527412Y-109639665D01*
X135432876Y-109790118D01*
X135374191Y-109957829D01*
X135354297Y-110134400D01*
X124791765Y-110134400D01*
X124785143Y-110058713D01*
X124725884Y-109837557D01*
X124677076Y-109732888D01*
X124629122Y-109630049D01*
X124497795Y-109442496D01*
X124335903Y-109280604D01*
X124148348Y-109149276D01*
X124109143Y-109130995D01*
X124056125Y-109084500D01*
X124036392Y-109016800D01*
X124056125Y-108949100D01*
X124109143Y-108902605D01*
X124113763Y-108900450D01*
X124148349Y-108884323D01*
X124335900Y-108752998D01*
X124497798Y-108591100D01*
X124629123Y-108403549D01*
X124725884Y-108196043D01*
X124726214Y-108194812D01*
X133584372Y-108194812D01*
X133594295Y-108352535D01*
X133643133Y-108502843D01*
X133727812Y-108636275D01*
X133727813Y-108636276D01*
X133727814Y-108636277D01*
X133843018Y-108744462D01*
X133981508Y-108820597D01*
X133981510Y-108820597D01*
X133981511Y-108820598D01*
X134134579Y-108859900D01*
X134134581Y-108859900D01*
X134252947Y-108859900D01*
X134252950Y-108859900D01*
X134370392Y-108845064D01*
X134517332Y-108786886D01*
X134645187Y-108693994D01*
X134745924Y-108572223D01*
X134813214Y-108429226D01*
X134842827Y-108273988D01*
X134832904Y-108116262D01*
X134784067Y-107965959D01*
X134784066Y-107965958D01*
X134784066Y-107965956D01*
X134699387Y-107832524D01*
X134584183Y-107724339D01*
X134584182Y-107724338D01*
X134445692Y-107648203D01*
X134445691Y-107648202D01*
X134445688Y-107648201D01*
X134292621Y-107608900D01*
X134292619Y-107608900D01*
X134174250Y-107608900D01*
X134086168Y-107620026D01*
X134056807Y-107623736D01*
X133909867Y-107681914D01*
X133782012Y-107774805D01*
X133681276Y-107896576D01*
X133613985Y-108039575D01*
X133584372Y-108194812D01*
X124726214Y-108194812D01*
X124785143Y-107974887D01*
X124805098Y-107746800D01*
X124785143Y-107518713D01*
X124725884Y-107297557D01*
X124689130Y-107218738D01*
X124629122Y-107090049D01*
X124527668Y-106945159D01*
X124497798Y-106902500D01*
X124497797Y-106902499D01*
X124497795Y-106902496D01*
X124335903Y-106740604D01*
X124148348Y-106609276D01*
X124109143Y-106590995D01*
X124056125Y-106544500D01*
X124036392Y-106476800D01*
X124056125Y-106409100D01*
X124109143Y-106362605D01*
X124113763Y-106360450D01*
X124148349Y-106344323D01*
X124335900Y-106212998D01*
X124427699Y-106121199D01*
X134994911Y-106121199D01*
X135014805Y-106297770D01*
X135073490Y-106465481D01*
X135168026Y-106615934D01*
X135293665Y-106741573D01*
X135444118Y-106836109D01*
X135520084Y-106862691D01*
X135611832Y-106894795D01*
X135788400Y-106914689D01*
X135964968Y-106894795D01*
X136132682Y-106836109D01*
X136283132Y-106741575D01*
X136408775Y-106615932D01*
X136503309Y-106465482D01*
X136561995Y-106297768D01*
X136581889Y-106121200D01*
X136561995Y-105944632D01*
X136560753Y-105941084D01*
X136503309Y-105776918D01*
X136408773Y-105626465D01*
X136283134Y-105500826D01*
X136132681Y-105406290D01*
X135964970Y-105347605D01*
X135788400Y-105327711D01*
X135611829Y-105347605D01*
X135444118Y-105406290D01*
X135293665Y-105500826D01*
X135168026Y-105626465D01*
X135073490Y-105776918D01*
X135014805Y-105944629D01*
X134994911Y-106121199D01*
X124427699Y-106121199D01*
X124497798Y-106051100D01*
X124629123Y-105863549D01*
X124725884Y-105656043D01*
X124785143Y-105434887D01*
X124805098Y-105206800D01*
X124785143Y-104978713D01*
X124725884Y-104757557D01*
X124722738Y-104750811D01*
X124641340Y-104576251D01*
X124629123Y-104550051D01*
X124620141Y-104537224D01*
X124497795Y-104362496D01*
X124427698Y-104292399D01*
X137585227Y-104292399D01*
X137603860Y-104457774D01*
X137658823Y-104614850D01*
X137747364Y-104755762D01*
X137865037Y-104873435D01*
X137897914Y-104894093D01*
X138005949Y-104961976D01*
X138163028Y-105016940D01*
X138328400Y-105035573D01*
X138493772Y-105016940D01*
X138650851Y-104961976D01*
X138791761Y-104873436D01*
X138909436Y-104755761D01*
X138997976Y-104614851D01*
X139052940Y-104457772D01*
X139071573Y-104292400D01*
X139052940Y-104127028D01*
X138997976Y-103969949D01*
X138909436Y-103829039D01*
X138909435Y-103829037D01*
X138791762Y-103711364D01*
X138650850Y-103622823D01*
X138493774Y-103567860D01*
X138328400Y-103549227D01*
X138163025Y-103567860D01*
X138005949Y-103622823D01*
X137865037Y-103711364D01*
X137747364Y-103829037D01*
X137658823Y-103969949D01*
X137603860Y-104127025D01*
X137585227Y-104292399D01*
X124427698Y-104292399D01*
X124335903Y-104200604D01*
X124148348Y-104069276D01*
X124109143Y-104050995D01*
X124056125Y-104004500D01*
X124036392Y-103936800D01*
X124056125Y-103869100D01*
X124109143Y-103822605D01*
X124113763Y-103820450D01*
X124148349Y-103804323D01*
X124335900Y-103672998D01*
X124497798Y-103511100D01*
X124629123Y-103323549D01*
X124725884Y-103116043D01*
X124785143Y-102894887D01*
X124805098Y-102666800D01*
X124785143Y-102438713D01*
X124725884Y-102217557D01*
X124722738Y-102210811D01*
X124629122Y-102010049D01*
X124497795Y-101822496D01*
X124335903Y-101660604D01*
X124148348Y-101529276D01*
X124109143Y-101510995D01*
X124056125Y-101464500D01*
X124036392Y-101396800D01*
X124056125Y-101329100D01*
X124109143Y-101282605D01*
X124114459Y-101280126D01*
X124148349Y-101264323D01*
X124335900Y-101132998D01*
X124497798Y-100971100D01*
X124519855Y-100939600D01*
X135401311Y-100939600D01*
X135406652Y-100987001D01*
X135421205Y-101116170D01*
X135479890Y-101283881D01*
X135574426Y-101434334D01*
X135700065Y-101559973D01*
X135850518Y-101654509D01*
X135967488Y-101695439D01*
X136018232Y-101713195D01*
X136194800Y-101733089D01*
X136371368Y-101713195D01*
X136539082Y-101654509D01*
X136689532Y-101559975D01*
X136815175Y-101434332D01*
X136909709Y-101283882D01*
X136968395Y-101116168D01*
X136988289Y-100939600D01*
X136968395Y-100763032D01*
X136943303Y-100691325D01*
X136909709Y-100595318D01*
X136815173Y-100444865D01*
X136689534Y-100319226D01*
X136539081Y-100224690D01*
X136371370Y-100166005D01*
X136253655Y-100152742D01*
X136194800Y-100146111D01*
X136194799Y-100146111D01*
X136018229Y-100166005D01*
X135850518Y-100224690D01*
X135700065Y-100319226D01*
X135574426Y-100444865D01*
X135479890Y-100595318D01*
X135421205Y-100763029D01*
X135401311Y-100939599D01*
X135401311Y-100939600D01*
X124519855Y-100939600D01*
X124629123Y-100783549D01*
X124725884Y-100576043D01*
X124785143Y-100354887D01*
X124805098Y-100126800D01*
X124785143Y-99898713D01*
X124733659Y-99706572D01*
X124725884Y-99677556D01*
X124632597Y-99477502D01*
X124629123Y-99470051D01*
X124625794Y-99465297D01*
X124497795Y-99282496D01*
X124335903Y-99120604D01*
X124148348Y-98989276D01*
X124109143Y-98970995D01*
X124056125Y-98924500D01*
X124036392Y-98856800D01*
X129229111Y-98856800D01*
X129249005Y-99033370D01*
X129307690Y-99201081D01*
X129402226Y-99351534D01*
X129527865Y-99477173D01*
X129527867Y-99477174D01*
X129527868Y-99477175D01*
X129678318Y-99571709D01*
X129846032Y-99630395D01*
X130022600Y-99650289D01*
X130199168Y-99630395D01*
X130366882Y-99571709D01*
X130517332Y-99477175D01*
X130642975Y-99351532D01*
X130737509Y-99201082D01*
X130796195Y-99033368D01*
X130816089Y-98856800D01*
X130796195Y-98680232D01*
X130785380Y-98649326D01*
X130737509Y-98512518D01*
X130642973Y-98362065D01*
X130517334Y-98236426D01*
X130366881Y-98141890D01*
X130199170Y-98083205D01*
X130022600Y-98063311D01*
X129846029Y-98083205D01*
X129678318Y-98141890D01*
X129527865Y-98236426D01*
X129402226Y-98362065D01*
X129307690Y-98512518D01*
X129249005Y-98680229D01*
X129229111Y-98856800D01*
X124036392Y-98856800D01*
X124056125Y-98789100D01*
X124109143Y-98742605D01*
X124113763Y-98740450D01*
X124148349Y-98724323D01*
X124335900Y-98592998D01*
X124497798Y-98431100D01*
X124629123Y-98243549D01*
X124725884Y-98036043D01*
X124785143Y-97814887D01*
X124805098Y-97586800D01*
X135350027Y-97586800D01*
X135354129Y-97623209D01*
X135368660Y-97752174D01*
X135423623Y-97909250D01*
X135512164Y-98050162D01*
X135629837Y-98167835D01*
X135770749Y-98256376D01*
X135820638Y-98273833D01*
X135927828Y-98311340D01*
X136093200Y-98329973D01*
X136258572Y-98311340D01*
X136415651Y-98256376D01*
X136556561Y-98167836D01*
X136674236Y-98050161D01*
X136762776Y-97909251D01*
X136817740Y-97752172D01*
X136829814Y-97645008D01*
X136856510Y-97580560D01*
X136913406Y-97540190D01*
X136983058Y-97536278D01*
X137044116Y-97570024D01*
X137173265Y-97699173D01*
X137173267Y-97699174D01*
X137173268Y-97699175D01*
X137282086Y-97767550D01*
X137323718Y-97793709D01*
X137427502Y-97830025D01*
X137491432Y-97852395D01*
X137668000Y-97872289D01*
X137844568Y-97852395D01*
X138012282Y-97793709D01*
X138162732Y-97699175D01*
X138288375Y-97573532D01*
X138382909Y-97423082D01*
X138441595Y-97255368D01*
X138461489Y-97078800D01*
X138441595Y-96902232D01*
X138433059Y-96877839D01*
X138382909Y-96734518D01*
X138288373Y-96584065D01*
X138162734Y-96458426D01*
X138012281Y-96363890D01*
X137844570Y-96305205D01*
X137668000Y-96285311D01*
X137491429Y-96305205D01*
X137323718Y-96363890D01*
X137173265Y-96458426D01*
X137047626Y-96584065D01*
X136953090Y-96734518D01*
X136894405Y-96902229D01*
X136879005Y-97038916D01*
X136852308Y-97103369D01*
X136795412Y-97143738D01*
X136725759Y-97147650D01*
X136664702Y-97113904D01*
X136556562Y-97005764D01*
X136415650Y-96917223D01*
X136258574Y-96862260D01*
X136093200Y-96843627D01*
X135927825Y-96862260D01*
X135770749Y-96917223D01*
X135629837Y-97005764D01*
X135512164Y-97123437D01*
X135423623Y-97264349D01*
X135368660Y-97421425D01*
X135353709Y-97554118D01*
X135350027Y-97586800D01*
X124805098Y-97586800D01*
X124785143Y-97358713D01*
X124736138Y-97175825D01*
X124725884Y-97137556D01*
X124629122Y-96930049D01*
X124527579Y-96785032D01*
X124497798Y-96742500D01*
X124497797Y-96742499D01*
X124497795Y-96742496D01*
X124335903Y-96580604D01*
X124148348Y-96449276D01*
X124109143Y-96430995D01*
X124056125Y-96384500D01*
X124036392Y-96316800D01*
X124056125Y-96249100D01*
X124109143Y-96202605D01*
X124113763Y-96200450D01*
X124148349Y-96184323D01*
X124335900Y-96052998D01*
X124497798Y-95891100D01*
X124629123Y-95703549D01*
X124725884Y-95496043D01*
X124785143Y-95274887D01*
X124805098Y-95046800D01*
X124785143Y-94818713D01*
X124734369Y-94629223D01*
X124725884Y-94597556D01*
X124629122Y-94390049D01*
X124519427Y-94233390D01*
X124497798Y-94202500D01*
X124497797Y-94202499D01*
X124497795Y-94202496D01*
X124335903Y-94040604D01*
X124148348Y-93909276D01*
X124109143Y-93890995D01*
X124056125Y-93844500D01*
X124036392Y-93776800D01*
X124056125Y-93709100D01*
X124109143Y-93662605D01*
X124123545Y-93655889D01*
X124148349Y-93644323D01*
X124335900Y-93512998D01*
X124497798Y-93351100D01*
X124629123Y-93163549D01*
X124725884Y-92956043D01*
X124750976Y-92862400D01*
X132658111Y-92862400D01*
X132678005Y-93038970D01*
X132736690Y-93206681D01*
X132831226Y-93357134D01*
X132956865Y-93482773D01*
X132956867Y-93482774D01*
X132956868Y-93482775D01*
X133107318Y-93577309D01*
X133275032Y-93635995D01*
X133451600Y-93655889D01*
X133628168Y-93635995D01*
X133795882Y-93577309D01*
X133946332Y-93482775D01*
X134071975Y-93357132D01*
X134166509Y-93206682D01*
X134225195Y-93038968D01*
X134245089Y-92862400D01*
X134225195Y-92685832D01*
X134166509Y-92518118D01*
X134071975Y-92367668D01*
X134071974Y-92367667D01*
X134071973Y-92367665D01*
X133946334Y-92242026D01*
X133795881Y-92147490D01*
X133628170Y-92088805D01*
X133451600Y-92068911D01*
X133275029Y-92088805D01*
X133107318Y-92147490D01*
X132956865Y-92242026D01*
X132831226Y-92367665D01*
X132736690Y-92518118D01*
X132678005Y-92685829D01*
X132658111Y-92862400D01*
X124750976Y-92862400D01*
X124785143Y-92734887D01*
X124805098Y-92506800D01*
X124785143Y-92278713D01*
X124732869Y-92083625D01*
X124725884Y-92057556D01*
X124641340Y-91876251D01*
X124629123Y-91850051D01*
X124576109Y-91774340D01*
X124497795Y-91662496D01*
X124335903Y-91500604D01*
X124148348Y-91369276D01*
X124109143Y-91350995D01*
X124056125Y-91304500D01*
X124036392Y-91236800D01*
X124056125Y-91169100D01*
X124109143Y-91122605D01*
X124137909Y-91109191D01*
X124148349Y-91104323D01*
X124335900Y-90972998D01*
X124497798Y-90811100D01*
X124555425Y-90728800D01*
X132658111Y-90728800D01*
X132678005Y-90905370D01*
X132736690Y-91073081D01*
X132831226Y-91223534D01*
X132956865Y-91349173D01*
X132956867Y-91349174D01*
X132956868Y-91349175D01*
X132984842Y-91366752D01*
X133107318Y-91443709D01*
X133211102Y-91480025D01*
X133275032Y-91502395D01*
X133451600Y-91522289D01*
X133628168Y-91502395D01*
X133795882Y-91443709D01*
X133946332Y-91349175D01*
X134071975Y-91223532D01*
X134166509Y-91073082D01*
X134225195Y-90905368D01*
X134245089Y-90728800D01*
X134225195Y-90552232D01*
X134197360Y-90472686D01*
X134166509Y-90384518D01*
X134102564Y-90282750D01*
X134071975Y-90234068D01*
X134071974Y-90234067D01*
X134071973Y-90234065D01*
X133946334Y-90108426D01*
X133795881Y-90013890D01*
X133628170Y-89955205D01*
X133451600Y-89935311D01*
X133275029Y-89955205D01*
X133107318Y-90013890D01*
X132956865Y-90108426D01*
X132831226Y-90234065D01*
X132736690Y-90384518D01*
X132678005Y-90552229D01*
X132658111Y-90728800D01*
X124555425Y-90728800D01*
X124629123Y-90623549D01*
X124725884Y-90416043D01*
X124785143Y-90194887D01*
X124805098Y-89966800D01*
X124785143Y-89738713D01*
X124775572Y-89702995D01*
X124725883Y-89517556D01*
X124725882Y-89517554D01*
X124723432Y-89508408D01*
X124720789Y-89455466D01*
X124740155Y-89406121D01*
X124778102Y-89369109D01*
X124872093Y-89310050D01*
X124923361Y-89277836D01*
X125041036Y-89160161D01*
X125129576Y-89019251D01*
X125184540Y-88862172D01*
X125203173Y-88696800D01*
X125184540Y-88531428D01*
X125129576Y-88374349D01*
X125049907Y-88247557D01*
X125041035Y-88233437D01*
X124923362Y-88115764D01*
X124777659Y-88024213D01*
X124739712Y-87987201D01*
X124720346Y-87937857D01*
X124722989Y-87884914D01*
X124784648Y-87654803D01*
X124804595Y-87426800D01*
X128746511Y-87426800D01*
X128766405Y-87603370D01*
X128825090Y-87771081D01*
X128919626Y-87921534D01*
X129045265Y-88047173D01*
X129045267Y-88047174D01*
X129045268Y-88047175D01*
X129195718Y-88141709D01*
X129363432Y-88200395D01*
X129540000Y-88220289D01*
X129716568Y-88200395D01*
X129884282Y-88141709D01*
X130034732Y-88047175D01*
X130160375Y-87921532D01*
X130254909Y-87771082D01*
X130313595Y-87603368D01*
X130333489Y-87426800D01*
X130313595Y-87250232D01*
X130254909Y-87082518D01*
X130160375Y-86932068D01*
X130160374Y-86932067D01*
X130160373Y-86932065D01*
X130034734Y-86806426D01*
X129884281Y-86711890D01*
X129716570Y-86653205D01*
X129540000Y-86633311D01*
X129363429Y-86653205D01*
X129195718Y-86711890D01*
X129045265Y-86806426D01*
X128919626Y-86932065D01*
X128825090Y-87082518D01*
X128766405Y-87250229D01*
X128746511Y-87426800D01*
X124804595Y-87426800D01*
X124804595Y-87426799D01*
X124784648Y-87198800D01*
X124725413Y-86977729D01*
X124628685Y-86770297D01*
X124578700Y-86698910D01*
X124578698Y-86698910D01*
X123491601Y-87786010D01*
X123491598Y-87786011D01*
X122763710Y-88513898D01*
X122763710Y-88513900D01*
X122835097Y-88563885D01*
X122874649Y-88582329D01*
X122927666Y-88628824D01*
X122947399Y-88696524D01*
X122927666Y-88764224D01*
X122874649Y-88810719D01*
X122834850Y-88829277D01*
X122647296Y-88960604D01*
X122485404Y-89122496D01*
X122354077Y-89310050D01*
X122335795Y-89349257D01*
X122289300Y-89402274D01*
X122221600Y-89422007D01*
X122153900Y-89402274D01*
X122107405Y-89349257D01*
X122098685Y-89330557D01*
X122089123Y-89310051D01*
X121957798Y-89122500D01*
X121957797Y-89122499D01*
X121957795Y-89122496D01*
X121795903Y-88960604D01*
X121608350Y-88829277D01*
X121400843Y-88732515D01*
X121179687Y-88673257D01*
X120951600Y-88653302D01*
X120723512Y-88673257D01*
X120502356Y-88732515D01*
X120294849Y-88829277D01*
X120107296Y-88960604D01*
X119945404Y-89122496D01*
X119814077Y-89310049D01*
X119717315Y-89517556D01*
X119658057Y-89738712D01*
X119638102Y-89966800D01*
X119658057Y-90194887D01*
X119717315Y-90416043D01*
X119814077Y-90623550D01*
X119945404Y-90811103D01*
X120107296Y-90972995D01*
X120107299Y-90972997D01*
X120107300Y-90972998D01*
X120294851Y-91104323D01*
X120305291Y-91109191D01*
X120334057Y-91122605D01*
X120387074Y-91169100D01*
X120406807Y-91236800D01*
X120387074Y-91304500D01*
X120334057Y-91350995D01*
X120294850Y-91369277D01*
X120107296Y-91500604D01*
X119945404Y-91662496D01*
X119814077Y-91850049D01*
X119717315Y-92057556D01*
X119658057Y-92278712D01*
X119638102Y-92506800D01*
X119658057Y-92734887D01*
X119717315Y-92956043D01*
X119814077Y-93163550D01*
X119945404Y-93351103D01*
X120107296Y-93512995D01*
X120107299Y-93512997D01*
X120107300Y-93512998D01*
X120294851Y-93644323D01*
X120319655Y-93655889D01*
X120334057Y-93662605D01*
X120387074Y-93709100D01*
X120406807Y-93776800D01*
X120387074Y-93844500D01*
X120334057Y-93890995D01*
X120294850Y-93909277D01*
X120107296Y-94040604D01*
X119945404Y-94202496D01*
X119814077Y-94390049D01*
X119717315Y-94597556D01*
X119658055Y-94818717D01*
X119643500Y-94985085D01*
X119619731Y-95048418D01*
X119566632Y-95090331D01*
X119499510Y-95098742D01*
X119437712Y-95071227D01*
X119399052Y-95015719D01*
X119385976Y-94978349D01*
X119305179Y-94849762D01*
X119297435Y-94837437D01*
X119179762Y-94719764D01*
X119038850Y-94631223D01*
X118881774Y-94576260D01*
X118716400Y-94557627D01*
X118551025Y-94576260D01*
X118393949Y-94631223D01*
X118253037Y-94719764D01*
X118135364Y-94837437D01*
X118046823Y-94978349D01*
X117991860Y-95135425D01*
X117977083Y-95266580D01*
X117973227Y-95300800D01*
X117974650Y-95313428D01*
X117991860Y-95466174D01*
X118046823Y-95623250D01*
X118135364Y-95764162D01*
X118253037Y-95881835D01*
X118355184Y-95946018D01*
X118393949Y-95970376D01*
X118551028Y-96025340D01*
X118716400Y-96043973D01*
X118881772Y-96025340D01*
X119038851Y-95970376D01*
X119179761Y-95881836D01*
X119297436Y-95764161D01*
X119385976Y-95623251D01*
X119440940Y-95466172D01*
X119445824Y-95422821D01*
X119471934Y-95359111D01*
X119527640Y-95318638D01*
X119596304Y-95313492D01*
X119657420Y-95345209D01*
X119692737Y-95404319D01*
X119717313Y-95496038D01*
X119814077Y-95703550D01*
X119945404Y-95891103D01*
X120107296Y-96052995D01*
X120294849Y-96184322D01*
X120502356Y-96281084D01*
X120536751Y-96290300D01*
X120723513Y-96340343D01*
X120951600Y-96360298D01*
X121179687Y-96340343D01*
X121400843Y-96281084D01*
X121608349Y-96184323D01*
X121795900Y-96052998D01*
X121957798Y-95891100D01*
X122089123Y-95703549D01*
X122107404Y-95664343D01*
X122153900Y-95611325D01*
X122221600Y-95591592D01*
X122289300Y-95611325D01*
X122335795Y-95664343D01*
X122354076Y-95703548D01*
X122485404Y-95891103D01*
X122647296Y-96052995D01*
X122647299Y-96052997D01*
X122647300Y-96052998D01*
X122834851Y-96184323D01*
X122874057Y-96202605D01*
X122927073Y-96249098D01*
X122946807Y-96316797D01*
X122927075Y-96384497D01*
X122874059Y-96430993D01*
X122834851Y-96449276D01*
X122647296Y-96580604D01*
X122485404Y-96742496D01*
X122354077Y-96930049D01*
X122257315Y-97137556D01*
X122198057Y-97358712D01*
X122178102Y-97586800D01*
X122198057Y-97814887D01*
X122257315Y-98036043D01*
X122354077Y-98243550D01*
X122485404Y-98431103D01*
X122647296Y-98592995D01*
X122647299Y-98592997D01*
X122647300Y-98592998D01*
X122834851Y-98724323D01*
X122874057Y-98742605D01*
X122927073Y-98789098D01*
X122946807Y-98856797D01*
X122927075Y-98924497D01*
X122874059Y-98970993D01*
X122834851Y-98989276D01*
X122647296Y-99120604D01*
X122485404Y-99282496D01*
X122354077Y-99470049D01*
X122257315Y-99677556D01*
X122198057Y-99898712D01*
X122178102Y-100126800D01*
X122198057Y-100354887D01*
X122257315Y-100576043D01*
X122354077Y-100783550D01*
X122485404Y-100971103D01*
X122647296Y-101132995D01*
X122647299Y-101132997D01*
X122647300Y-101132998D01*
X122834851Y-101264323D01*
X122868741Y-101280126D01*
X122874057Y-101282605D01*
X122927074Y-101329100D01*
X122946807Y-101396800D01*
X122927074Y-101464500D01*
X122874057Y-101510995D01*
X122834850Y-101529277D01*
X122647296Y-101660604D01*
X122485404Y-101822496D01*
X122354077Y-102010049D01*
X122257315Y-102217556D01*
X122198057Y-102438712D01*
X122178102Y-102666800D01*
X122198057Y-102894887D01*
X122257315Y-103116043D01*
X122354077Y-103323550D01*
X122485404Y-103511103D01*
X122647296Y-103672995D01*
X122647299Y-103672997D01*
X122647300Y-103672998D01*
X122834851Y-103804323D01*
X122869959Y-103820694D01*
X122874057Y-103822605D01*
X122927074Y-103869100D01*
X122946807Y-103936800D01*
X122927074Y-104004500D01*
X122874057Y-104050995D01*
X122834850Y-104069277D01*
X122647296Y-104200604D01*
X122485404Y-104362496D01*
X122354077Y-104550049D01*
X122257315Y-104757556D01*
X122198057Y-104978712D01*
X122178102Y-105206800D01*
X122198057Y-105434887D01*
X122257315Y-105656043D01*
X122354077Y-105863550D01*
X122485404Y-106051103D01*
X122647296Y-106212995D01*
X122647299Y-106212997D01*
X122647300Y-106212998D01*
X122834851Y-106344323D01*
X122869959Y-106360694D01*
X122874057Y-106362605D01*
X122927074Y-106409100D01*
X122946807Y-106476800D01*
X122927074Y-106544500D01*
X122874057Y-106590995D01*
X122834850Y-106609277D01*
X122647296Y-106740604D01*
X122485404Y-106902496D01*
X122354077Y-107090049D01*
X122257315Y-107297556D01*
X122198057Y-107518712D01*
X122178102Y-107746800D01*
X122198057Y-107974887D01*
X122257315Y-108196043D01*
X122354077Y-108403550D01*
X122485404Y-108591103D01*
X122647296Y-108752995D01*
X122647299Y-108752997D01*
X122647300Y-108752998D01*
X122834851Y-108884323D01*
X122869959Y-108900694D01*
X122874057Y-108902605D01*
X122927074Y-108949100D01*
X122946807Y-109016800D01*
X122927074Y-109084500D01*
X122874057Y-109130995D01*
X122834850Y-109149277D01*
X122647296Y-109280604D01*
X122485404Y-109442496D01*
X122354077Y-109630049D01*
X122257315Y-109837556D01*
X122198057Y-110058712D01*
X122178102Y-110286800D01*
X122198057Y-110514887D01*
X122257315Y-110736043D01*
X122354077Y-110943550D01*
X122485404Y-111131103D01*
X122647296Y-111292995D01*
X122647299Y-111292997D01*
X122647300Y-111292998D01*
X122834851Y-111424323D01*
X122874057Y-111442605D01*
X122927073Y-111489098D01*
X122946807Y-111556797D01*
X122927075Y-111624497D01*
X122874059Y-111670993D01*
X122834851Y-111689276D01*
X122647296Y-111820604D01*
X122485404Y-111982496D01*
X122354077Y-112170049D01*
X122257315Y-112377556D01*
X122198057Y-112598712D01*
X122178102Y-112826800D01*
X122198057Y-113054887D01*
X122226139Y-113159689D01*
X122228011Y-113216881D01*
X122204395Y-113269004D01*
X122160160Y-113305306D01*
X122104432Y-113318300D01*
X119798768Y-113318300D01*
X119743040Y-113305306D01*
X119698805Y-113269004D01*
X119675189Y-113216881D01*
X119677061Y-113159689D01*
X119686251Y-113125392D01*
X119705143Y-113054887D01*
X119725098Y-112826800D01*
X119705143Y-112598713D01*
X119645884Y-112377557D01*
X119643761Y-112373005D01*
X119549122Y-112170049D01*
X119417795Y-111982496D01*
X119255903Y-111820604D01*
X119068348Y-111689276D01*
X119029143Y-111670995D01*
X118976125Y-111624500D01*
X118956392Y-111556800D01*
X118976125Y-111489100D01*
X119029143Y-111442605D01*
X119033763Y-111440450D01*
X119068349Y-111424323D01*
X119255900Y-111292998D01*
X119417798Y-111131100D01*
X119549123Y-110943549D01*
X119645884Y-110736043D01*
X119705143Y-110514887D01*
X119725098Y-110286800D01*
X119705143Y-110058713D01*
X119645884Y-109837557D01*
X119597076Y-109732888D01*
X119549122Y-109630049D01*
X119417795Y-109442496D01*
X119255903Y-109280604D01*
X119068348Y-109149276D01*
X119029143Y-109130995D01*
X118976125Y-109084500D01*
X118956392Y-109016800D01*
X118976125Y-108949100D01*
X119029143Y-108902605D01*
X119033763Y-108900450D01*
X119068349Y-108884323D01*
X119255900Y-108752998D01*
X119417798Y-108591100D01*
X119549123Y-108403549D01*
X119645884Y-108196043D01*
X119705143Y-107974887D01*
X119725098Y-107746800D01*
X119705143Y-107518713D01*
X119645884Y-107297557D01*
X119609130Y-107218738D01*
X119549122Y-107090049D01*
X119447668Y-106945159D01*
X119417798Y-106902500D01*
X119417797Y-106902499D01*
X119417795Y-106902496D01*
X119255903Y-106740604D01*
X119068348Y-106609276D01*
X119029143Y-106590995D01*
X118976125Y-106544500D01*
X118956392Y-106476800D01*
X118976125Y-106409100D01*
X119029143Y-106362605D01*
X119033763Y-106360450D01*
X119068349Y-106344323D01*
X119255900Y-106212998D01*
X119417798Y-106051100D01*
X119549123Y-105863549D01*
X119645884Y-105656043D01*
X119705143Y-105434887D01*
X119725098Y-105206800D01*
X119705143Y-104978713D01*
X119645884Y-104757557D01*
X119642738Y-104750811D01*
X119561340Y-104576251D01*
X119549123Y-104550051D01*
X119540141Y-104537224D01*
X119417795Y-104362496D01*
X119255903Y-104200604D01*
X119068348Y-104069276D01*
X119029143Y-104050995D01*
X118976125Y-104004500D01*
X118956392Y-103936800D01*
X118976125Y-103869100D01*
X119029143Y-103822605D01*
X119033763Y-103820450D01*
X119068349Y-103804323D01*
X119255900Y-103672998D01*
X119417798Y-103511100D01*
X119549123Y-103323549D01*
X119645884Y-103116043D01*
X119705143Y-102894887D01*
X119725098Y-102666800D01*
X119705143Y-102438713D01*
X119645884Y-102217557D01*
X119642738Y-102210811D01*
X119549122Y-102010049D01*
X119417795Y-101822496D01*
X119255903Y-101660604D01*
X119068348Y-101529276D01*
X119029143Y-101510995D01*
X118976125Y-101464500D01*
X118956392Y-101396800D01*
X118976125Y-101329100D01*
X119029143Y-101282605D01*
X119034459Y-101280126D01*
X119068349Y-101264323D01*
X119255900Y-101132998D01*
X119417798Y-100971100D01*
X119549123Y-100783549D01*
X119645884Y-100576043D01*
X119705143Y-100354887D01*
X119725098Y-100126800D01*
X119705143Y-99898713D01*
X119653659Y-99706572D01*
X119645884Y-99677556D01*
X119552597Y-99477502D01*
X119549123Y-99470051D01*
X119545794Y-99465297D01*
X119417795Y-99282496D01*
X119255903Y-99120604D01*
X119068348Y-98989276D01*
X119029143Y-98970995D01*
X118976125Y-98924500D01*
X118956392Y-98856800D01*
X118976125Y-98789100D01*
X119029143Y-98742605D01*
X119033763Y-98740450D01*
X119068349Y-98724323D01*
X119255900Y-98592998D01*
X119417798Y-98431100D01*
X119549123Y-98243549D01*
X119645884Y-98036043D01*
X119705143Y-97814887D01*
X119725098Y-97586800D01*
X119705143Y-97358713D01*
X119656138Y-97175825D01*
X119645884Y-97137556D01*
X119549122Y-96930049D01*
X119447579Y-96785032D01*
X119417798Y-96742500D01*
X119417797Y-96742499D01*
X119417795Y-96742496D01*
X119255903Y-96580604D01*
X119068350Y-96449277D01*
X118860843Y-96352515D01*
X118639687Y-96293257D01*
X118411600Y-96273302D01*
X118183512Y-96293257D01*
X117962356Y-96352515D01*
X117754849Y-96449277D01*
X117567296Y-96580604D01*
X117405404Y-96742496D01*
X117274077Y-96930050D01*
X117255795Y-96969257D01*
X117209300Y-97022274D01*
X117141600Y-97042007D01*
X117073900Y-97022274D01*
X117027405Y-96969257D01*
X117025494Y-96965159D01*
X117009123Y-96930051D01*
X116877798Y-96742500D01*
X116877797Y-96742499D01*
X116877795Y-96742496D01*
X116715903Y-96580604D01*
X116528350Y-96449277D01*
X116320843Y-96352515D01*
X116099687Y-96293257D01*
X115871600Y-96273302D01*
X115643512Y-96293257D01*
X115422356Y-96352515D01*
X115214849Y-96449277D01*
X115027296Y-96580604D01*
X114865404Y-96742496D01*
X114734077Y-96930049D01*
X114637315Y-97137556D01*
X114578057Y-97358712D01*
X114558102Y-97586800D01*
X114578057Y-97814887D01*
X114637315Y-98036043D01*
X114734077Y-98243550D01*
X114865404Y-98431103D01*
X115027296Y-98592995D01*
X115027299Y-98592997D01*
X115027300Y-98592998D01*
X115214851Y-98724323D01*
X115254057Y-98742605D01*
X115307073Y-98789098D01*
X115326807Y-98856797D01*
X115307075Y-98924497D01*
X115254059Y-98970993D01*
X115214851Y-98989276D01*
X115027296Y-99120604D01*
X114865404Y-99282496D01*
X114734077Y-99470049D01*
X114637315Y-99677556D01*
X114578057Y-99898712D01*
X114558102Y-100126800D01*
X114578057Y-100354887D01*
X114637315Y-100576043D01*
X114734077Y-100783550D01*
X114865404Y-100971103D01*
X115027296Y-101132995D01*
X115027299Y-101132997D01*
X115027300Y-101132998D01*
X115214851Y-101264323D01*
X115248741Y-101280126D01*
X115254057Y-101282605D01*
X115307074Y-101329100D01*
X115326807Y-101396800D01*
X115307074Y-101464500D01*
X115254057Y-101510995D01*
X115214850Y-101529277D01*
X115027296Y-101660604D01*
X114865404Y-101822496D01*
X114734077Y-102010049D01*
X114637315Y-102217556D01*
X114578057Y-102438712D01*
X114558102Y-102666800D01*
X114578057Y-102894887D01*
X114637315Y-103116043D01*
X114734077Y-103323550D01*
X114865404Y-103511103D01*
X115027296Y-103672995D01*
X115027299Y-103672997D01*
X115027300Y-103672998D01*
X115214851Y-103804323D01*
X115249959Y-103820694D01*
X115254057Y-103822605D01*
X115307074Y-103869100D01*
X115326807Y-103936800D01*
X115307074Y-104004500D01*
X115254057Y-104050995D01*
X115214850Y-104069277D01*
X115027296Y-104200604D01*
X114865404Y-104362496D01*
X114734077Y-104550049D01*
X114637315Y-104757556D01*
X114578057Y-104978712D01*
X114558102Y-105206800D01*
X114578057Y-105434887D01*
X114637315Y-105656043D01*
X114734077Y-105863550D01*
X114865404Y-106051103D01*
X115027296Y-106212995D01*
X115027299Y-106212997D01*
X115027300Y-106212998D01*
X115214851Y-106344323D01*
X115249959Y-106360694D01*
X115254057Y-106362605D01*
X115307074Y-106409100D01*
X115326807Y-106476800D01*
X115307074Y-106544500D01*
X115254057Y-106590995D01*
X115214850Y-106609277D01*
X115027296Y-106740604D01*
X114865404Y-106902496D01*
X114734077Y-107090049D01*
X114637315Y-107297556D01*
X114578057Y-107518712D01*
X114558102Y-107746800D01*
X114578057Y-107974887D01*
X114637315Y-108196043D01*
X114734077Y-108403550D01*
X114865404Y-108591103D01*
X115027296Y-108752995D01*
X115027299Y-108752997D01*
X115027300Y-108752998D01*
X115214851Y-108884323D01*
X115249959Y-108900694D01*
X115254057Y-108902605D01*
X115307074Y-108949100D01*
X115326807Y-109016800D01*
X115307074Y-109084500D01*
X115254057Y-109130995D01*
X115214850Y-109149277D01*
X115027296Y-109280604D01*
X114865404Y-109442496D01*
X114734077Y-109630049D01*
X114637315Y-109837556D01*
X114578057Y-110058712D01*
X114558102Y-110286800D01*
X114578057Y-110514887D01*
X114637315Y-110736043D01*
X114734077Y-110943550D01*
X114865404Y-111131103D01*
X115027296Y-111292995D01*
X115027299Y-111292997D01*
X115027300Y-111292998D01*
X115214851Y-111424323D01*
X115254057Y-111442605D01*
X115307073Y-111489098D01*
X115326807Y-111556797D01*
X115307075Y-111624497D01*
X115254059Y-111670993D01*
X115214851Y-111689276D01*
X115027296Y-111820604D01*
X114865404Y-111982496D01*
X114734077Y-112170049D01*
X114637315Y-112377556D01*
X114578057Y-112598712D01*
X114558102Y-112826800D01*
X114578057Y-113054887D01*
X114606139Y-113159689D01*
X114608011Y-113216881D01*
X114584395Y-113269004D01*
X114540160Y-113305306D01*
X114484432Y-113318300D01*
X112279744Y-113318300D01*
X112263298Y-113317222D01*
X112231600Y-113313049D01*
X112072751Y-113333961D01*
X111924721Y-113395276D01*
X111830296Y-113467732D01*
X111830076Y-113467902D01*
X111797611Y-113492814D01*
X111778145Y-113518181D01*
X111767281Y-113530568D01*
X111232730Y-114065119D01*
X111176246Y-114097731D01*
X111111024Y-114097731D01*
X111019687Y-114073257D01*
X110791600Y-114053302D01*
X110563512Y-114073257D01*
X110342356Y-114132515D01*
X110134849Y-114229277D01*
X109947296Y-114360604D01*
X109785404Y-114522496D01*
X109654077Y-114710050D01*
X109635795Y-114749257D01*
X109589300Y-114802274D01*
X109521600Y-114822007D01*
X109453900Y-114802274D01*
X109407405Y-114749257D01*
X109401786Y-114737208D01*
X109389123Y-114710051D01*
X109257798Y-114522500D01*
X109257797Y-114522499D01*
X109257795Y-114522496D01*
X109095903Y-114360604D01*
X108908348Y-114229276D01*
X108869143Y-114210995D01*
X108816125Y-114164500D01*
X108796392Y-114096800D01*
X108816125Y-114029100D01*
X108869143Y-113982605D01*
X108873763Y-113980450D01*
X108908349Y-113964323D01*
X109095900Y-113832998D01*
X109257798Y-113671100D01*
X109389123Y-113483549D01*
X109485884Y-113276043D01*
X109545143Y-113054887D01*
X109565098Y-112826800D01*
X109545143Y-112598713D01*
X109485884Y-112377557D01*
X109483761Y-112373005D01*
X109389122Y-112170049D01*
X109257795Y-111982496D01*
X109095903Y-111820604D01*
X108908348Y-111689276D01*
X108869143Y-111670995D01*
X108816125Y-111624500D01*
X108796392Y-111556800D01*
X108816125Y-111489100D01*
X108869143Y-111442605D01*
X108873763Y-111440450D01*
X108908349Y-111424323D01*
X109095900Y-111292998D01*
X109257798Y-111131100D01*
X109389123Y-110943549D01*
X109485884Y-110736043D01*
X109545143Y-110514887D01*
X109565098Y-110286800D01*
X109545143Y-110058713D01*
X109485884Y-109837557D01*
X109437076Y-109732888D01*
X109389122Y-109630049D01*
X109257795Y-109442496D01*
X109095903Y-109280604D01*
X108908348Y-109149276D01*
X108869143Y-109130995D01*
X108816125Y-109084500D01*
X108796392Y-109016800D01*
X108816125Y-108949100D01*
X108869143Y-108902605D01*
X108873763Y-108900450D01*
X108908349Y-108884323D01*
X109095900Y-108752998D01*
X109257798Y-108591100D01*
X109389123Y-108403549D01*
X109485884Y-108196043D01*
X109545143Y-107974887D01*
X109565098Y-107746800D01*
X109545143Y-107518713D01*
X109485884Y-107297557D01*
X109449130Y-107218738D01*
X109389122Y-107090049D01*
X109287668Y-106945159D01*
X109257798Y-106902500D01*
X109257797Y-106902499D01*
X109257795Y-106902496D01*
X109095903Y-106740604D01*
X108908348Y-106609276D01*
X108869143Y-106590995D01*
X108816125Y-106544500D01*
X108796392Y-106476800D01*
X108816125Y-106409100D01*
X108869143Y-106362605D01*
X108873763Y-106360450D01*
X108908349Y-106344323D01*
X109095900Y-106212998D01*
X109257798Y-106051100D01*
X109389123Y-105863549D01*
X109485884Y-105656043D01*
X109545143Y-105434887D01*
X109565098Y-105206800D01*
X109565098Y-105206799D01*
X112388427Y-105206799D01*
X112407060Y-105372174D01*
X112462023Y-105529250D01*
X112550564Y-105670162D01*
X112668237Y-105787835D01*
X112668239Y-105787836D01*
X112809149Y-105876376D01*
X112966228Y-105931340D01*
X113131600Y-105949973D01*
X113296972Y-105931340D01*
X113454051Y-105876376D01*
X113594961Y-105787836D01*
X113712636Y-105670161D01*
X113801176Y-105529251D01*
X113856140Y-105372172D01*
X113874773Y-105206800D01*
X113856140Y-105041428D01*
X113854799Y-105037597D01*
X113801176Y-104884349D01*
X113712635Y-104743437D01*
X113594962Y-104625764D01*
X113454050Y-104537223D01*
X113296974Y-104482260D01*
X113131600Y-104463627D01*
X112966225Y-104482260D01*
X112809149Y-104537223D01*
X112668237Y-104625764D01*
X112550564Y-104743437D01*
X112462023Y-104884349D01*
X112407060Y-105041425D01*
X112388427Y-105206799D01*
X109565098Y-105206799D01*
X109545143Y-104978713D01*
X109485884Y-104757557D01*
X109482738Y-104750811D01*
X109401340Y-104576251D01*
X109389123Y-104550051D01*
X109380141Y-104537224D01*
X109257795Y-104362496D01*
X109095903Y-104200604D01*
X108908348Y-104069276D01*
X108869143Y-104050995D01*
X108816125Y-104004500D01*
X108796392Y-103936800D01*
X108816125Y-103869100D01*
X108869143Y-103822605D01*
X108873763Y-103820450D01*
X108908349Y-103804323D01*
X109095900Y-103672998D01*
X109257798Y-103511100D01*
X109389123Y-103323549D01*
X109485884Y-103116043D01*
X109545143Y-102894887D01*
X109565098Y-102666800D01*
X109545143Y-102438713D01*
X109485884Y-102217557D01*
X109482738Y-102210811D01*
X109389122Y-102010049D01*
X109257795Y-101822496D01*
X109095903Y-101660604D01*
X108908348Y-101529276D01*
X108869143Y-101510995D01*
X108816125Y-101464500D01*
X108796392Y-101396800D01*
X108816125Y-101329100D01*
X108869143Y-101282605D01*
X108874459Y-101280126D01*
X108908349Y-101264323D01*
X109095900Y-101132998D01*
X109257798Y-100971100D01*
X109315425Y-100888800D01*
X110254827Y-100888800D01*
X110273460Y-101054174D01*
X110328423Y-101211250D01*
X110416964Y-101352162D01*
X110534637Y-101469835D01*
X110675549Y-101558376D01*
X110789211Y-101598148D01*
X110832628Y-101613340D01*
X110998000Y-101631973D01*
X111163372Y-101613340D01*
X111320451Y-101558376D01*
X111461361Y-101469836D01*
X111579036Y-101352161D01*
X111667576Y-101211251D01*
X111722540Y-101054172D01*
X111741173Y-100888800D01*
X111722540Y-100723428D01*
X111667576Y-100566349D01*
X111579036Y-100425439D01*
X111579035Y-100425437D01*
X111461362Y-100307764D01*
X111320450Y-100219223D01*
X111163374Y-100164260D01*
X110998000Y-100145627D01*
X110832625Y-100164260D01*
X110675549Y-100219223D01*
X110534637Y-100307764D01*
X110416964Y-100425437D01*
X110328423Y-100566349D01*
X110273460Y-100723425D01*
X110254827Y-100888800D01*
X109315425Y-100888800D01*
X109389123Y-100783549D01*
X109485884Y-100576043D01*
X109545143Y-100354887D01*
X109565098Y-100126800D01*
X109545143Y-99898713D01*
X109493659Y-99706572D01*
X109485884Y-99677556D01*
X109392597Y-99477502D01*
X109389123Y-99470051D01*
X109385794Y-99465297D01*
X109257795Y-99282496D01*
X109095903Y-99120604D01*
X108908348Y-98989276D01*
X108869143Y-98970995D01*
X108816125Y-98924500D01*
X108796392Y-98856800D01*
X108816125Y-98789100D01*
X108869143Y-98742605D01*
X108873763Y-98740450D01*
X108908349Y-98724323D01*
X109095900Y-98592998D01*
X109257798Y-98431100D01*
X109389123Y-98243549D01*
X109485884Y-98036043D01*
X109545143Y-97814887D01*
X109565098Y-97586800D01*
X109545143Y-97358713D01*
X109496138Y-97175825D01*
X109485884Y-97137556D01*
X109389122Y-96930049D01*
X109287579Y-96785032D01*
X109257798Y-96742500D01*
X109257797Y-96742499D01*
X109257795Y-96742496D01*
X109095903Y-96580604D01*
X108908348Y-96449276D01*
X108869143Y-96430995D01*
X108816125Y-96384500D01*
X108796392Y-96316800D01*
X108816125Y-96249100D01*
X108869143Y-96202605D01*
X108873763Y-96200450D01*
X108908349Y-96184323D01*
X109095900Y-96052998D01*
X109257798Y-95891100D01*
X109389123Y-95703549D01*
X109485884Y-95496043D01*
X109545143Y-95274887D01*
X109565098Y-95046800D01*
X109545143Y-94818713D01*
X109494369Y-94629223D01*
X109485884Y-94597556D01*
X109389122Y-94390049D01*
X109386566Y-94386399D01*
X115433227Y-94386399D01*
X115451860Y-94551774D01*
X115506823Y-94708850D01*
X115595364Y-94849762D01*
X115713037Y-94967435D01*
X115853949Y-95055976D01*
X115952130Y-95090331D01*
X116011028Y-95110940D01*
X116176400Y-95129573D01*
X116341772Y-95110940D01*
X116498851Y-95055976D01*
X116639761Y-94967436D01*
X116757436Y-94849761D01*
X116845976Y-94708851D01*
X116900940Y-94551772D01*
X116919573Y-94386400D01*
X116900940Y-94221028D01*
X116845976Y-94063949D01*
X116837683Y-94050751D01*
X116757435Y-93923037D01*
X116639762Y-93805364D01*
X116498850Y-93716823D01*
X116341774Y-93661860D01*
X116176400Y-93643227D01*
X116011025Y-93661860D01*
X115853949Y-93716823D01*
X115713037Y-93805364D01*
X115595364Y-93923037D01*
X115506823Y-94063949D01*
X115451860Y-94221025D01*
X115433227Y-94386399D01*
X109386566Y-94386399D01*
X109279427Y-94233390D01*
X109257798Y-94202500D01*
X109257797Y-94202499D01*
X109257795Y-94202496D01*
X109095903Y-94040604D01*
X108908348Y-93909276D01*
X108869143Y-93890995D01*
X108816125Y-93844500D01*
X108796392Y-93776800D01*
X108816125Y-93709100D01*
X108869143Y-93662605D01*
X108883545Y-93655889D01*
X108908349Y-93644323D01*
X109095900Y-93512998D01*
X109257798Y-93351100D01*
X109389123Y-93163549D01*
X109485884Y-92956043D01*
X109545143Y-92734887D01*
X109565098Y-92506800D01*
X109545143Y-92278713D01*
X109492869Y-92083625D01*
X109485884Y-92057556D01*
X109401340Y-91876251D01*
X109389123Y-91850051D01*
X109336109Y-91774340D01*
X109257795Y-91662496D01*
X109095903Y-91500604D01*
X108908348Y-91369276D01*
X108869143Y-91350995D01*
X108816125Y-91304500D01*
X108796392Y-91236800D01*
X108816125Y-91169100D01*
X108869143Y-91122605D01*
X108897909Y-91109191D01*
X108908349Y-91104323D01*
X109095900Y-90972998D01*
X109257798Y-90811100D01*
X109389123Y-90623549D01*
X109485884Y-90416043D01*
X109545143Y-90194887D01*
X109565098Y-89966800D01*
X109545143Y-89738713D01*
X109492193Y-89541103D01*
X109485884Y-89517556D01*
X109389122Y-89310049D01*
X109257795Y-89122496D01*
X109095903Y-88960604D01*
X108908348Y-88829276D01*
X108869143Y-88810995D01*
X108816125Y-88764500D01*
X108796392Y-88696800D01*
X108816125Y-88629100D01*
X108854782Y-88595199D01*
X112537627Y-88595199D01*
X112556260Y-88760574D01*
X112611223Y-88917650D01*
X112699764Y-89058562D01*
X112817437Y-89176235D01*
X112958349Y-89264776D01*
X113087732Y-89310049D01*
X113115428Y-89319740D01*
X113280800Y-89338373D01*
X113446172Y-89319740D01*
X113603251Y-89264776D01*
X113744161Y-89176236D01*
X113861836Y-89058561D01*
X113950376Y-88917651D01*
X114005340Y-88760572D01*
X114012525Y-88696800D01*
X114328102Y-88696800D01*
X114348057Y-88924887D01*
X114407315Y-89146043D01*
X114504077Y-89353550D01*
X114635404Y-89541103D01*
X114797296Y-89702995D01*
X114984849Y-89834322D01*
X115192356Y-89931084D01*
X115208132Y-89935311D01*
X115413513Y-89990343D01*
X115641600Y-90010298D01*
X115869687Y-89990343D01*
X116090843Y-89931084D01*
X116298349Y-89834323D01*
X116485900Y-89702998D01*
X116647798Y-89541100D01*
X116779123Y-89353549D01*
X116875884Y-89146043D01*
X116935143Y-88924887D01*
X116955098Y-88696800D01*
X116935143Y-88468713D01*
X116882193Y-88271103D01*
X116875884Y-88247556D01*
X116779122Y-88040049D01*
X116691417Y-87914795D01*
X116647798Y-87852500D01*
X116647797Y-87852499D01*
X116647795Y-87852496D01*
X116485903Y-87690604D01*
X116298350Y-87559277D01*
X116090843Y-87462515D01*
X115957548Y-87426799D01*
X122178604Y-87426799D01*
X122198551Y-87654799D01*
X122257786Y-87875870D01*
X122354512Y-88083297D01*
X122404500Y-88154687D01*
X123132390Y-87426800D01*
X123132390Y-87426799D01*
X122404500Y-86698909D01*
X122354513Y-86770299D01*
X122257786Y-86977729D01*
X122198551Y-87198800D01*
X122178604Y-87426799D01*
X115957548Y-87426799D01*
X115869687Y-87403257D01*
X115641600Y-87383302D01*
X115413512Y-87403257D01*
X115192356Y-87462515D01*
X114984849Y-87559277D01*
X114797296Y-87690604D01*
X114635404Y-87852496D01*
X114504077Y-88040049D01*
X114407315Y-88247556D01*
X114348057Y-88468712D01*
X114328102Y-88696800D01*
X114012525Y-88696800D01*
X114023973Y-88595200D01*
X114005340Y-88429828D01*
X113950376Y-88272749D01*
X113917413Y-88220289D01*
X113861835Y-88131837D01*
X113744162Y-88014164D01*
X113603250Y-87925623D01*
X113446174Y-87870660D01*
X113280800Y-87852027D01*
X113115425Y-87870660D01*
X112958349Y-87925623D01*
X112817437Y-88014164D01*
X112699764Y-88131837D01*
X112611223Y-88272749D01*
X112556260Y-88429825D01*
X112537627Y-88595199D01*
X108854782Y-88595199D01*
X108869143Y-88582605D01*
X108873763Y-88580450D01*
X108908349Y-88564323D01*
X109095900Y-88432998D01*
X109257798Y-88271100D01*
X109389123Y-88083549D01*
X109485884Y-87876043D01*
X109545143Y-87654887D01*
X109565098Y-87426800D01*
X109545143Y-87198713D01*
X109485884Y-86977557D01*
X109464672Y-86932068D01*
X109389122Y-86770049D01*
X109257795Y-86582496D01*
X109095903Y-86420604D01*
X108908348Y-86289276D01*
X108869143Y-86270995D01*
X108816125Y-86224500D01*
X108796392Y-86156800D01*
X108816125Y-86089100D01*
X108869143Y-86042605D01*
X108890813Y-86032500D01*
X108908349Y-86024323D01*
X109095900Y-85892998D01*
X109257798Y-85731100D01*
X109389123Y-85543549D01*
X109485884Y-85336043D01*
X109545143Y-85114887D01*
X109565098Y-84886800D01*
X109545143Y-84658713D01*
X109492193Y-84461103D01*
X109485884Y-84437556D01*
X109389122Y-84230049D01*
X109257795Y-84042496D01*
X109095903Y-83880604D01*
X109092598Y-83878290D01*
X109052830Y-83832724D01*
X109038875Y-83773877D01*
X109053948Y-83715306D01*
X109094578Y-83670506D01*
X109151400Y-83649799D01*
X109160801Y-83648789D01*
X109246566Y-83616800D01*
X114328102Y-83616800D01*
X114348057Y-83844887D01*
X114407315Y-84066043D01*
X114504077Y-84273550D01*
X114635404Y-84461103D01*
X114797296Y-84622995D01*
X114984849Y-84754322D01*
X115192356Y-84851084D01*
X115251615Y-84866962D01*
X115413513Y-84910343D01*
X115641600Y-84930298D01*
X115869687Y-84910343D01*
X116090843Y-84851084D01*
X116298349Y-84754323D01*
X116485900Y-84622998D01*
X116538049Y-84570849D01*
X116617505Y-84491394D01*
X116673989Y-84458782D01*
X116739211Y-84458782D01*
X116795695Y-84491394D01*
X116927296Y-84622995D01*
X117114849Y-84754322D01*
X117322356Y-84851084D01*
X117381615Y-84866962D01*
X117543513Y-84910343D01*
X117771600Y-84930298D01*
X117999687Y-84910343D01*
X118087550Y-84886800D01*
X119638102Y-84886800D01*
X119658057Y-85114887D01*
X119717315Y-85336043D01*
X119814077Y-85543550D01*
X119945404Y-85731103D01*
X120107296Y-85892995D01*
X120294849Y-86024322D01*
X120502356Y-86121084D01*
X120529843Y-86128449D01*
X120723513Y-86180343D01*
X120951600Y-86200298D01*
X121179687Y-86180343D01*
X121400843Y-86121084D01*
X121608349Y-86024323D01*
X121795900Y-85892998D01*
X121957798Y-85731100D01*
X122089123Y-85543549D01*
X122107404Y-85504343D01*
X122153900Y-85451325D01*
X122221600Y-85431592D01*
X122289300Y-85451325D01*
X122335795Y-85504343D01*
X122354076Y-85543548D01*
X122485404Y-85731103D01*
X122647296Y-85892995D01*
X122647299Y-85892997D01*
X122647300Y-85892998D01*
X122834851Y-86024323D01*
X122852387Y-86032500D01*
X122874649Y-86042881D01*
X122927666Y-86089376D01*
X122947399Y-86157075D01*
X122927667Y-86224775D01*
X122874650Y-86271270D01*
X122835102Y-86289711D01*
X122763709Y-86339700D01*
X123491599Y-87067590D01*
X123491600Y-87067590D01*
X124219488Y-86339699D01*
X124148097Y-86289712D01*
X124108550Y-86271271D01*
X124055533Y-86224775D01*
X124035800Y-86157075D01*
X124055533Y-86089376D01*
X124108551Y-86042881D01*
X124130813Y-86032500D01*
X124148349Y-86024323D01*
X124335900Y-85892998D01*
X124497798Y-85731100D01*
X124629123Y-85543549D01*
X124725884Y-85336043D01*
X124785143Y-85114887D01*
X124805098Y-84886800D01*
X124785143Y-84658713D01*
X124732193Y-84461103D01*
X124725884Y-84437556D01*
X124629122Y-84230049D01*
X124497795Y-84042496D01*
X124335903Y-83880604D01*
X124148348Y-83749276D01*
X124109143Y-83730995D01*
X124056125Y-83684500D01*
X124036392Y-83616800D01*
X124056125Y-83549100D01*
X124109143Y-83502605D01*
X124118915Y-83498048D01*
X124148349Y-83484323D01*
X124335900Y-83352998D01*
X124497798Y-83191100D01*
X124629123Y-83003549D01*
X124725884Y-82796043D01*
X124785143Y-82574887D01*
X124805098Y-82346800D01*
X128746511Y-82346800D01*
X128766405Y-82523370D01*
X128825090Y-82691081D01*
X128919626Y-82841534D01*
X129045265Y-82967173D01*
X129045267Y-82967174D01*
X129045268Y-82967175D01*
X129104861Y-83004620D01*
X129195718Y-83061709D01*
X129361088Y-83119575D01*
X129363432Y-83120395D01*
X129540000Y-83140289D01*
X129716568Y-83120395D01*
X129884282Y-83061709D01*
X130034732Y-82967175D01*
X130160375Y-82841532D01*
X130254909Y-82691082D01*
X130313595Y-82523368D01*
X130333489Y-82346800D01*
X130313595Y-82170232D01*
X130254909Y-82002518D01*
X130160375Y-81852068D01*
X130160374Y-81852067D01*
X130160373Y-81852065D01*
X130034734Y-81726426D01*
X129884281Y-81631890D01*
X129716570Y-81573205D01*
X129540000Y-81553311D01*
X129363429Y-81573205D01*
X129195718Y-81631890D01*
X129045265Y-81726426D01*
X128919626Y-81852065D01*
X128825090Y-82002518D01*
X128766405Y-82170229D01*
X128746511Y-82346800D01*
X124805098Y-82346800D01*
X124785143Y-82118713D01*
X124736359Y-81936649D01*
X124725884Y-81897556D01*
X124629122Y-81690049D01*
X124497795Y-81502496D01*
X124335903Y-81340604D01*
X124148350Y-81209277D01*
X123940843Y-81112515D01*
X123719687Y-81053257D01*
X123491600Y-81033302D01*
X123263512Y-81053257D01*
X123042356Y-81112515D01*
X122834849Y-81209277D01*
X122647296Y-81340604D01*
X122485404Y-81502496D01*
X122354077Y-81690049D01*
X122257315Y-81897556D01*
X122198057Y-82118712D01*
X122178102Y-82346800D01*
X122198057Y-82574887D01*
X122257315Y-82796043D01*
X122354077Y-83003550D01*
X122485404Y-83191103D01*
X122647296Y-83352995D01*
X122647299Y-83352997D01*
X122647300Y-83352998D01*
X122834851Y-83484323D01*
X122864285Y-83498048D01*
X122874057Y-83502605D01*
X122927074Y-83549100D01*
X122946807Y-83616800D01*
X122927074Y-83684500D01*
X122874057Y-83730995D01*
X122834850Y-83749277D01*
X122647296Y-83880604D01*
X122485404Y-84042496D01*
X122354077Y-84230050D01*
X122335795Y-84269257D01*
X122289300Y-84322274D01*
X122221600Y-84342007D01*
X122153900Y-84322274D01*
X122107405Y-84269257D01*
X122100672Y-84254819D01*
X122089123Y-84230051D01*
X121957798Y-84042500D01*
X121957797Y-84042499D01*
X121957795Y-84042496D01*
X121795903Y-83880604D01*
X121608350Y-83749277D01*
X121400843Y-83652515D01*
X121179687Y-83593257D01*
X120951600Y-83573302D01*
X120723512Y-83593257D01*
X120502356Y-83652515D01*
X120294849Y-83749277D01*
X120107296Y-83880604D01*
X119945404Y-84042496D01*
X119814077Y-84230049D01*
X119717315Y-84437556D01*
X119658057Y-84658712D01*
X119638102Y-84886800D01*
X118087550Y-84886800D01*
X118220843Y-84851084D01*
X118428349Y-84754323D01*
X118615900Y-84622998D01*
X118777798Y-84461100D01*
X118909123Y-84273549D01*
X119005884Y-84066043D01*
X119065143Y-83844887D01*
X119085098Y-83616800D01*
X119065143Y-83388713D01*
X119012193Y-83191103D01*
X119005884Y-83167556D01*
X118909122Y-82960049D01*
X118777795Y-82772496D01*
X118615903Y-82610604D01*
X118428350Y-82479277D01*
X118220843Y-82382515D01*
X117999687Y-82323257D01*
X117771600Y-82303302D01*
X117543512Y-82323257D01*
X117322356Y-82382515D01*
X117114849Y-82479277D01*
X116927296Y-82610604D01*
X116795695Y-82742206D01*
X116739211Y-82774818D01*
X116673989Y-82774818D01*
X116617505Y-82742206D01*
X116485903Y-82610604D01*
X116298350Y-82479277D01*
X116090843Y-82382515D01*
X115869687Y-82323257D01*
X115641600Y-82303302D01*
X115413512Y-82323257D01*
X115192356Y-82382515D01*
X114984849Y-82479277D01*
X114797296Y-82610604D01*
X114635404Y-82772496D01*
X114504077Y-82960049D01*
X114407315Y-83167556D01*
X114348057Y-83388712D01*
X114328102Y-83616800D01*
X109246566Y-83616800D01*
X109297804Y-83597689D01*
X109414861Y-83510061D01*
X109502489Y-83393004D01*
X109553589Y-83256001D01*
X109560100Y-83195438D01*
X109560100Y-81498162D01*
X109553589Y-81437599D01*
X109502489Y-81300596D01*
X109502488Y-81300594D01*
X109414861Y-81183538D01*
X109297805Y-81095911D01*
X109183445Y-81053257D01*
X109160801Y-81044811D01*
X109100238Y-81038300D01*
X107402962Y-81038300D01*
X107342399Y-81044811D01*
X107205394Y-81095911D01*
X107088338Y-81183538D01*
X107000711Y-81300594D01*
X106973567Y-81373370D01*
X106949611Y-81437599D01*
X106943100Y-81498162D01*
X106943100Y-83195438D01*
X106949611Y-83256001D01*
X106963295Y-83292688D01*
X107000711Y-83393005D01*
X107088338Y-83510061D01*
X107205394Y-83597688D01*
X107205395Y-83597688D01*
X107205396Y-83597689D01*
X107342399Y-83648789D01*
X107351798Y-83649799D01*
X107408621Y-83670505D01*
X107449250Y-83715304D01*
X107464324Y-83773874D01*
X107450371Y-83832721D01*
X107410605Y-83878287D01*
X107407298Y-83880602D01*
X107245404Y-84042496D01*
X107114077Y-84230049D01*
X107017315Y-84437556D01*
X106958057Y-84658712D01*
X106938102Y-84886800D01*
X106958057Y-85114887D01*
X107017315Y-85336043D01*
X107114077Y-85543550D01*
X107245404Y-85731103D01*
X107407296Y-85892995D01*
X107407299Y-85892997D01*
X107407300Y-85892998D01*
X107594851Y-86024323D01*
X107634057Y-86042605D01*
X107687073Y-86089098D01*
X107706807Y-86156797D01*
X107687075Y-86224497D01*
X107634059Y-86270993D01*
X107594851Y-86289276D01*
X107407296Y-86420604D01*
X107245404Y-86582496D01*
X107114077Y-86770049D01*
X107017315Y-86977556D01*
X106958057Y-87198712D01*
X106938102Y-87426800D01*
X106958057Y-87654887D01*
X107017315Y-87876043D01*
X107114077Y-88083550D01*
X107245404Y-88271103D01*
X107407296Y-88432995D01*
X107407299Y-88432997D01*
X107407300Y-88432998D01*
X107594851Y-88564323D01*
X107629959Y-88580694D01*
X107634057Y-88582605D01*
X107687074Y-88629100D01*
X107706807Y-88696800D01*
X107687074Y-88764500D01*
X107634057Y-88810995D01*
X107594850Y-88829277D01*
X107407296Y-88960604D01*
X107245404Y-89122496D01*
X107114077Y-89310049D01*
X107017315Y-89517556D01*
X106958057Y-89738712D01*
X106938102Y-89966800D01*
X106958057Y-90194887D01*
X107017315Y-90416043D01*
X107114077Y-90623550D01*
X107245404Y-90811103D01*
X107407296Y-90972995D01*
X107407299Y-90972997D01*
X107407300Y-90972998D01*
X107594851Y-91104323D01*
X107605291Y-91109191D01*
X107634057Y-91122605D01*
X107687074Y-91169100D01*
X107706807Y-91236800D01*
X107687074Y-91304500D01*
X107634057Y-91350995D01*
X107594850Y-91369277D01*
X107407296Y-91500604D01*
X107245404Y-91662496D01*
X107114077Y-91850049D01*
X107017315Y-92057556D01*
X106958057Y-92278712D01*
X106938102Y-92506800D01*
X106958057Y-92734887D01*
X107017315Y-92956043D01*
X107114077Y-93163550D01*
X107245404Y-93351103D01*
X107407296Y-93512995D01*
X107407299Y-93512997D01*
X107407300Y-93512998D01*
X107594851Y-93644323D01*
X107619655Y-93655889D01*
X107634057Y-93662605D01*
X107687074Y-93709100D01*
X107706807Y-93776800D01*
X107687074Y-93844500D01*
X107634057Y-93890995D01*
X107594850Y-93909277D01*
X107407296Y-94040604D01*
X107245404Y-94202496D01*
X107114077Y-94390049D01*
X107017315Y-94597556D01*
X106958057Y-94818712D01*
X106938102Y-95046800D01*
X106958057Y-95274887D01*
X107017315Y-95496043D01*
X107114077Y-95703550D01*
X107245404Y-95891103D01*
X107407296Y-96052995D01*
X107407299Y-96052997D01*
X107407300Y-96052998D01*
X107594851Y-96184323D01*
X107634057Y-96202605D01*
X107687073Y-96249098D01*
X107706807Y-96316797D01*
X107687075Y-96384497D01*
X107634059Y-96430993D01*
X107594851Y-96449276D01*
X107407296Y-96580604D01*
X107245404Y-96742496D01*
X107114077Y-96930049D01*
X107017315Y-97137556D01*
X106958057Y-97358712D01*
X106938102Y-97586800D01*
X106958057Y-97814887D01*
X107017315Y-98036043D01*
X107114077Y-98243550D01*
X107245404Y-98431103D01*
X107407296Y-98592995D01*
X107407299Y-98592997D01*
X107407300Y-98592998D01*
X107594851Y-98724323D01*
X107634057Y-98742605D01*
X107687073Y-98789098D01*
X107706807Y-98856797D01*
X107687075Y-98924497D01*
X107634059Y-98970993D01*
X107594851Y-98989276D01*
X107407296Y-99120604D01*
X107245404Y-99282496D01*
X107114077Y-99470049D01*
X107017315Y-99677556D01*
X106958055Y-99898718D01*
X106956420Y-99917412D01*
X106935005Y-99977408D01*
X106886980Y-100019261D01*
X106824619Y-100032272D01*
X106763864Y-100013116D01*
X106649050Y-99940973D01*
X106491974Y-99886010D01*
X106326600Y-99867377D01*
X106161225Y-99886010D01*
X106004149Y-99940973D01*
X105863237Y-100029514D01*
X105745564Y-100147187D01*
X105744841Y-100148339D01*
X105736350Y-100156401D01*
X105735525Y-100157227D01*
X105735503Y-100157205D01*
X105699590Y-100191309D01*
X105639270Y-100207296D01*
X105578677Y-100192379D01*
X105532672Y-100150217D01*
X105484988Y-100077232D01*
X105418022Y-99974732D01*
X105265540Y-99809094D01*
X105265539Y-99809093D01*
X105265537Y-99809091D01*
X105087879Y-99670813D01*
X105087877Y-99670812D01*
X105087876Y-99670811D01*
X105054617Y-99652812D01*
X105006347Y-99606498D01*
X104988588Y-99542000D01*
X105006347Y-99477502D01*
X105054617Y-99431187D01*
X105087876Y-99413189D01*
X105265540Y-99274906D01*
X105418022Y-99109268D01*
X105541160Y-98920791D01*
X105631596Y-98714616D01*
X105686864Y-98496368D01*
X105705456Y-98272000D01*
X105686864Y-98047632D01*
X105631596Y-97829384D01*
X105541160Y-97623209D01*
X105418022Y-97434732D01*
X105265540Y-97269094D01*
X105265539Y-97269093D01*
X105265537Y-97269091D01*
X105087879Y-97130813D01*
X105087877Y-97130812D01*
X105087876Y-97130811D01*
X105054617Y-97112812D01*
X105006347Y-97066498D01*
X104988588Y-97002000D01*
X105006347Y-96937502D01*
X105054617Y-96891187D01*
X105087876Y-96873189D01*
X105265540Y-96734906D01*
X105418022Y-96569268D01*
X105541160Y-96380791D01*
X105631596Y-96174616D01*
X105686864Y-95956368D01*
X105705456Y-95732000D01*
X105686864Y-95507632D01*
X105631596Y-95289384D01*
X105541160Y-95083209D01*
X105418022Y-94894732D01*
X105265540Y-94729094D01*
X105265539Y-94729093D01*
X105265537Y-94729091D01*
X105087879Y-94590813D01*
X105087877Y-94590812D01*
X105087876Y-94590811D01*
X105054617Y-94572812D01*
X105006347Y-94526498D01*
X104988588Y-94462000D01*
X105006347Y-94397502D01*
X105054617Y-94351187D01*
X105087876Y-94333189D01*
X105265540Y-94194906D01*
X105418022Y-94029268D01*
X105541160Y-93840791D01*
X105631596Y-93634616D01*
X105686864Y-93416368D01*
X105705456Y-93192000D01*
X105686864Y-92967632D01*
X105666946Y-92888982D01*
X105667612Y-92824602D01*
X105699994Y-92768958D01*
X106060520Y-92408432D01*
X106066029Y-92403245D01*
X106108324Y-92365777D01*
X106140421Y-92319274D01*
X106144905Y-92313181D01*
X106179740Y-92268719D01*
X106183327Y-92260747D01*
X106194527Y-92240888D01*
X106199496Y-92233691D01*
X106219528Y-92180869D01*
X106222412Y-92173902D01*
X106245609Y-92122364D01*
X106247184Y-92113767D01*
X106253308Y-92091795D01*
X106256408Y-92083625D01*
X106263216Y-92027545D01*
X106264352Y-92020082D01*
X106274540Y-91964497D01*
X106271130Y-91908126D01*
X106270900Y-91900518D01*
X106270900Y-80290288D01*
X119429293Y-80290288D01*
X119447926Y-80455662D01*
X119502889Y-80612738D01*
X119591430Y-80753650D01*
X119709103Y-80871323D01*
X119709105Y-80871324D01*
X119850015Y-80959864D01*
X119907504Y-80979980D01*
X119954984Y-81009813D01*
X119984818Y-81057293D01*
X120004936Y-81114786D01*
X120093476Y-81255696D01*
X120211149Y-81373369D01*
X120211151Y-81373370D01*
X120352061Y-81461910D01*
X120509140Y-81516874D01*
X120674512Y-81535507D01*
X120839884Y-81516874D01*
X120996963Y-81461910D01*
X121137873Y-81373370D01*
X121255548Y-81255695D01*
X121344088Y-81114785D01*
X121399052Y-80957706D01*
X121417685Y-80792334D01*
X121399052Y-80626962D01*
X121344088Y-80469883D01*
X121335151Y-80455660D01*
X121255547Y-80328971D01*
X121137874Y-80211298D01*
X120996964Y-80122758D01*
X120939471Y-80102640D01*
X120891991Y-80072806D01*
X120862158Y-80025326D01*
X120842042Y-79967837D01*
X120766184Y-79847110D01*
X120753501Y-79826925D01*
X120635828Y-79709252D01*
X120494916Y-79620711D01*
X120337840Y-79565748D01*
X120172466Y-79547115D01*
X120007091Y-79565748D01*
X119850015Y-79620711D01*
X119709103Y-79709252D01*
X119591430Y-79826925D01*
X119502889Y-79967837D01*
X119447926Y-80124913D01*
X119429293Y-80290288D01*
X106270900Y-80290288D01*
X106270900Y-78382414D01*
X110253612Y-78382414D01*
X110272245Y-78547789D01*
X110327208Y-78704865D01*
X110415749Y-78845777D01*
X110533422Y-78963450D01*
X110674333Y-79051990D01*
X110674334Y-79051991D01*
X110831413Y-79106955D01*
X110996785Y-79125588D01*
X111162157Y-79106955D01*
X111319236Y-79051991D01*
X111460146Y-78963451D01*
X111577821Y-78845776D01*
X111666361Y-78704866D01*
X111721325Y-78547787D01*
X111739958Y-78382415D01*
X111721325Y-78217043D01*
X111666361Y-78059964D01*
X111577821Y-77919054D01*
X111577820Y-77919052D01*
X111460147Y-77801379D01*
X111319235Y-77712838D01*
X111162159Y-77657875D01*
X110996785Y-77639242D01*
X110831410Y-77657875D01*
X110674334Y-77712838D01*
X110533422Y-77801379D01*
X110415749Y-77919052D01*
X110327208Y-78059964D01*
X110272245Y-78217040D01*
X110253612Y-78382414D01*
X106270900Y-78382414D01*
X106270900Y-77435242D01*
X106280491Y-77387024D01*
X106307802Y-77346149D01*
X107658980Y-75994970D01*
X107706455Y-75965139D01*
X107786282Y-75937208D01*
X107936732Y-75842674D01*
X108062375Y-75717031D01*
X108156909Y-75566581D01*
X108215595Y-75398867D01*
X108235489Y-75222299D01*
X108234148Y-75210400D01*
X116300511Y-75210400D01*
X116320405Y-75386970D01*
X116379090Y-75554681D01*
X116473626Y-75705134D01*
X116599265Y-75830773D01*
X116749718Y-75925309D01*
X116890688Y-75974637D01*
X116917432Y-75983995D01*
X117094000Y-76003889D01*
X117270568Y-75983995D01*
X117438282Y-75925309D01*
X117588732Y-75830775D01*
X117714375Y-75705132D01*
X117808909Y-75554682D01*
X117867595Y-75386968D01*
X117887489Y-75210400D01*
X117867595Y-75033832D01*
X117808909Y-74866118D01*
X117755441Y-74781025D01*
X117736129Y-74714145D01*
X117755277Y-74647217D01*
X117807040Y-74600671D01*
X117865008Y-74590564D01*
X117865008Y-74588300D01*
X119669038Y-74588300D01*
X119729601Y-74581789D01*
X119866604Y-74530689D01*
X119983661Y-74443061D01*
X120071289Y-74326004D01*
X120103865Y-74238663D01*
X120140395Y-74186626D01*
X120197686Y-74159049D01*
X120261149Y-74162959D01*
X120314621Y-74197360D01*
X120347159Y-74232706D01*
X120482355Y-74337934D01*
X120524824Y-74370989D01*
X120722826Y-74478142D01*
X120935765Y-74551244D01*
X121157831Y-74588300D01*
X121382966Y-74588300D01*
X121382969Y-74588300D01*
X121605035Y-74551244D01*
X121817974Y-74478142D01*
X122015976Y-74370989D01*
X122193640Y-74232706D01*
X122346122Y-74067068D01*
X122469260Y-73878591D01*
X122559696Y-73672416D01*
X122614964Y-73454168D01*
X122633556Y-73229800D01*
X122614964Y-73005432D01*
X122559696Y-72787184D01*
X122469260Y-72581009D01*
X122346122Y-72392532D01*
X122274872Y-72315135D01*
X122245431Y-72260731D01*
X122245431Y-72198869D01*
X122274872Y-72144464D01*
X122346122Y-72067068D01*
X122469260Y-71878591D01*
X122559696Y-71672416D01*
X122614964Y-71454168D01*
X122633556Y-71229800D01*
X122614964Y-71005432D01*
X122559696Y-70787184D01*
X122469260Y-70581009D01*
X122346122Y-70392532D01*
X122193640Y-70226894D01*
X122193639Y-70226893D01*
X122193637Y-70226891D01*
X122015978Y-70088612D01*
X121817973Y-69981457D01*
X121673827Y-69931972D01*
X121605035Y-69908356D01*
X121382969Y-69871300D01*
X121157831Y-69871300D01*
X120935765Y-69908356D01*
X120935762Y-69908356D01*
X120935762Y-69908357D01*
X120722826Y-69981457D01*
X120524821Y-70088612D01*
X120347162Y-70226891D01*
X120194678Y-70392531D01*
X120125883Y-70497831D01*
X120080369Y-70539729D01*
X120020400Y-70554915D01*
X119960431Y-70539729D01*
X119914917Y-70497831D01*
X119846121Y-70392531D01*
X119823643Y-70368114D01*
X119693640Y-70226894D01*
X119693639Y-70226893D01*
X119693637Y-70226891D01*
X119515978Y-70088612D01*
X119317973Y-69981457D01*
X119173827Y-69931972D01*
X119105035Y-69908356D01*
X118882969Y-69871300D01*
X118657831Y-69871300D01*
X118435765Y-69908356D01*
X118435762Y-69908356D01*
X118435762Y-69908357D01*
X118222826Y-69981457D01*
X118024821Y-70088612D01*
X117847162Y-70226891D01*
X117694678Y-70392531D01*
X117571539Y-70581009D01*
X117481102Y-70787188D01*
X117461391Y-70865027D01*
X117425836Y-71005432D01*
X117407244Y-71229800D01*
X117425836Y-71454168D01*
X117425836Y-71454171D01*
X117425837Y-71454172D01*
X117481102Y-71672411D01*
X117574854Y-71886147D01*
X117584639Y-71951170D01*
X117560334Y-72012269D01*
X117469511Y-72133594D01*
X117422092Y-72260731D01*
X117418411Y-72270599D01*
X117411900Y-72331162D01*
X117411900Y-74128438D01*
X117418411Y-74189001D01*
X117430692Y-74221928D01*
X117453030Y-74281819D01*
X117458229Y-74352007D01*
X117424973Y-74414034D01*
X117363637Y-74448547D01*
X117293359Y-74444780D01*
X117270568Y-74436805D01*
X117094000Y-74416911D01*
X116917429Y-74436805D01*
X116749718Y-74495490D01*
X116599265Y-74590026D01*
X116473626Y-74715665D01*
X116379090Y-74866118D01*
X116320405Y-75033829D01*
X116300511Y-75210400D01*
X108234148Y-75210400D01*
X108215595Y-75045731D01*
X108156909Y-74878017D01*
X108062375Y-74727567D01*
X108062374Y-74727566D01*
X108062373Y-74727564D01*
X107936734Y-74601925D01*
X107786281Y-74507389D01*
X107618570Y-74448704D01*
X107442000Y-74428810D01*
X107265429Y-74448704D01*
X107097718Y-74507389D01*
X106947265Y-74601925D01*
X106821626Y-74727564D01*
X106727091Y-74878016D01*
X106668404Y-75045733D01*
X106664386Y-75081386D01*
X106652700Y-75121946D01*
X106628274Y-75156370D01*
X105159501Y-76625143D01*
X105153961Y-76630359D01*
X105111676Y-76667820D01*
X105079589Y-76714307D01*
X105075081Y-76720433D01*
X105040259Y-76764881D01*
X105036669Y-76772857D01*
X105025476Y-76792704D01*
X105020504Y-76799907D01*
X105000474Y-76852719D01*
X104997563Y-76859745D01*
X104974390Y-76911234D01*
X104972813Y-76919841D01*
X104966693Y-76941794D01*
X104963592Y-76949971D01*
X104956785Y-77006024D01*
X104955640Y-77013543D01*
X104945459Y-77069099D01*
X104948870Y-77125473D01*
X104949100Y-77133081D01*
X104949100Y-84156681D01*
X104929708Y-84223843D01*
X104877501Y-84270332D01*
X104808549Y-84281838D01*
X104744076Y-84254819D01*
X104703927Y-84197593D01*
X104635183Y-83997347D01*
X104635182Y-83997344D01*
X104520772Y-83785933D01*
X104373125Y-83596236D01*
X104363247Y-83587143D01*
X104196272Y-83433432D01*
X104196269Y-83433429D01*
X103995028Y-83301951D01*
X103995025Y-83301949D01*
X103995024Y-83301949D01*
X103794768Y-83214109D01*
X103774891Y-83205390D01*
X103541863Y-83146380D01*
X103362290Y-83131500D01*
X103242310Y-83131500D01*
X103062737Y-83146380D01*
X102829709Y-83205390D01*
X102829705Y-83205391D01*
X102829704Y-83205392D01*
X102609575Y-83301949D01*
X102609571Y-83301951D01*
X102609572Y-83301951D01*
X102408331Y-83433429D01*
X102408329Y-83433430D01*
X102408327Y-83433432D01*
X102231478Y-83596232D01*
X102083829Y-83785931D01*
X101969416Y-83997347D01*
X101914718Y-84156681D01*
X101891366Y-84224703D01*
X101851800Y-84461808D01*
X101851800Y-84702192D01*
X101891366Y-84939297D01*
X101899479Y-84962929D01*
X101969416Y-85166652D01*
X101969417Y-85166655D01*
X101969418Y-85166656D01*
X102083828Y-85378067D01*
X102231475Y-85567764D01*
X102408331Y-85730571D01*
X102609572Y-85862049D01*
X102829709Y-85958610D01*
X103062737Y-86017620D01*
X103242310Y-86032500D01*
X103362285Y-86032500D01*
X103362290Y-86032500D01*
X103541863Y-86017620D01*
X103774891Y-85958610D01*
X103995028Y-85862049D01*
X104196269Y-85730571D01*
X104373125Y-85567764D01*
X104520772Y-85378067D01*
X104635182Y-85166656D01*
X104703927Y-84966406D01*
X104744076Y-84909181D01*
X104808549Y-84882162D01*
X104877501Y-84893668D01*
X104929708Y-84940157D01*
X104949100Y-85007319D01*
X104949100Y-89247516D01*
X104935129Y-89305182D01*
X104896316Y-89350061D01*
X104841266Y-89372200D01*
X104782188Y-89366689D01*
X104699702Y-89338372D01*
X104676935Y-89330556D01*
X104454869Y-89293500D01*
X104229731Y-89293500D01*
X104007665Y-89330556D01*
X104007662Y-89330556D01*
X104007662Y-89330557D01*
X103794726Y-89403657D01*
X103596721Y-89510812D01*
X103419062Y-89649091D01*
X103266578Y-89814731D01*
X103143439Y-90003209D01*
X103053002Y-90209388D01*
X102997737Y-90427627D01*
X102997736Y-90427632D01*
X102979144Y-90652000D01*
X102997736Y-90876368D01*
X102997736Y-90876371D01*
X102997737Y-90876372D01*
X103053002Y-91094611D01*
X103053003Y-91094614D01*
X103053004Y-91094616D01*
X103058705Y-91107613D01*
X103143439Y-91300790D01*
X103266578Y-91489268D01*
X103419062Y-91654908D01*
X103520911Y-91734181D01*
X103596724Y-91793189D01*
X103629982Y-91811187D01*
X103678251Y-91857500D01*
X103696011Y-91921997D01*
X103678253Y-91986494D01*
X103629983Y-92032811D01*
X103596723Y-92050810D01*
X103419062Y-92189091D01*
X103266578Y-92354731D01*
X103143439Y-92543209D01*
X103053002Y-92749388D01*
X103000195Y-92957922D01*
X102997736Y-92967632D01*
X102979144Y-93192000D01*
X102997736Y-93416368D01*
X103005238Y-93445993D01*
X103017652Y-93495019D01*
X103016986Y-93559398D01*
X102984603Y-93615042D01*
X102112694Y-94486952D01*
X102112690Y-94486956D01*
X102013088Y-94586556D01*
X102007549Y-94591770D01*
X101965277Y-94629221D01*
X101933189Y-94675708D01*
X101928681Y-94681834D01*
X101893859Y-94726282D01*
X101890269Y-94734258D01*
X101879076Y-94754105D01*
X101874104Y-94761308D01*
X101854074Y-94814120D01*
X101851163Y-94821146D01*
X101827990Y-94872635D01*
X101826413Y-94881242D01*
X101820293Y-94903195D01*
X101817192Y-94911372D01*
X101810385Y-94967425D01*
X101809240Y-94974944D01*
X101799059Y-95030500D01*
X101802470Y-95086874D01*
X101802700Y-95094482D01*
X101802700Y-99532836D01*
X101792187Y-99583222D01*
X101762402Y-99625201D01*
X101718315Y-99651765D01*
X101716329Y-99652459D01*
X101716328Y-99652460D01*
X101643350Y-99677996D01*
X101559249Y-99707424D01*
X101418337Y-99795964D01*
X101300664Y-99913637D01*
X101217286Y-100046333D01*
X101212124Y-100054549D01*
X101163896Y-100192379D01*
X101156465Y-100213615D01*
X101129901Y-100257702D01*
X101087922Y-100287487D01*
X101037536Y-100298000D01*
X92986070Y-100298000D01*
X92927194Y-100283399D01*
X92881964Y-100242978D01*
X92860862Y-100186108D01*
X92858282Y-100163209D01*
X92848595Y-100077232D01*
X92812728Y-99974732D01*
X92789909Y-99909518D01*
X92747705Y-99842351D01*
X92695375Y-99759068D01*
X92695374Y-99759067D01*
X92695373Y-99759065D01*
X92569734Y-99633426D01*
X92419281Y-99538890D01*
X92251570Y-99480205D01*
X92119253Y-99465297D01*
X92075000Y-99460311D01*
X92074999Y-99460311D01*
X91898429Y-99480205D01*
X91730718Y-99538890D01*
X91580265Y-99633426D01*
X91454626Y-99759065D01*
X91360090Y-99909518D01*
X91301405Y-100077229D01*
X91289138Y-100186108D01*
X91268036Y-100242978D01*
X91222806Y-100283399D01*
X91163930Y-100298000D01*
X90820044Y-100298000D01*
X90771826Y-100288409D01*
X90730949Y-100261095D01*
X87442705Y-96972852D01*
X87415391Y-96931975D01*
X87405800Y-96883757D01*
X87405800Y-93096436D01*
X87425113Y-93029400D01*
X87459809Y-92974182D01*
X87518495Y-92806468D01*
X87526942Y-92731500D01*
X88026411Y-92731500D01*
X88046305Y-92908070D01*
X88104990Y-93075781D01*
X88199526Y-93226234D01*
X88325165Y-93351873D01*
X88325167Y-93351874D01*
X88325168Y-93351875D01*
X88333538Y-93357134D01*
X88475618Y-93446409D01*
X88614536Y-93495019D01*
X88643332Y-93505095D01*
X88819900Y-93524989D01*
X88996468Y-93505095D01*
X89164182Y-93446409D01*
X89314632Y-93351875D01*
X89440275Y-93226232D01*
X89534809Y-93075782D01*
X89563939Y-92992532D01*
X89597859Y-92941145D01*
X89652081Y-92911967D01*
X89713655Y-92911967D01*
X89767876Y-92941145D01*
X89801796Y-92992531D01*
X89832339Y-93079816D01*
X89858291Y-93153982D01*
X89892987Y-93209200D01*
X89912300Y-93276236D01*
X89912300Y-95864188D01*
X89892987Y-95931224D01*
X89883690Y-95946018D01*
X89825005Y-96113729D01*
X89805111Y-96290299D01*
X89825005Y-96466870D01*
X89883690Y-96634581D01*
X89978226Y-96785034D01*
X90103865Y-96910673D01*
X90254318Y-97005209D01*
X90350646Y-97038916D01*
X90422032Y-97063895D01*
X90598600Y-97083789D01*
X90775168Y-97063895D01*
X90942882Y-97005209D01*
X91093332Y-96910675D01*
X91218975Y-96785032D01*
X91313509Y-96634582D01*
X91372195Y-96466868D01*
X91392089Y-96290300D01*
X91372195Y-96113732D01*
X91313509Y-95946018D01*
X91253412Y-95850375D01*
X91234100Y-95783340D01*
X91234100Y-95438636D01*
X91253413Y-95371600D01*
X91305431Y-95325114D01*
X91374204Y-95313428D01*
X91541600Y-95332289D01*
X91718168Y-95312395D01*
X91885882Y-95253709D01*
X92036332Y-95159175D01*
X92056001Y-95139505D01*
X92110213Y-95107526D01*
X92173132Y-95105760D01*
X92229055Y-95134649D01*
X92264025Y-95186985D01*
X92299891Y-95289482D01*
X92394426Y-95439934D01*
X92520065Y-95565573D01*
X92520067Y-95565574D01*
X92520068Y-95565575D01*
X92531011Y-95572451D01*
X92670518Y-95660109D01*
X92822702Y-95713361D01*
X92838232Y-95718795D01*
X93014800Y-95738689D01*
X93191368Y-95718795D01*
X93359082Y-95660109D01*
X93509532Y-95565575D01*
X93635175Y-95439932D01*
X93729709Y-95289482D01*
X93788395Y-95121768D01*
X93808289Y-94945200D01*
X93788395Y-94768632D01*
X93729709Y-94600918D01*
X93635175Y-94450468D01*
X93635174Y-94450467D01*
X93635173Y-94450465D01*
X93509534Y-94324826D01*
X93359081Y-94230290D01*
X93191370Y-94171605D01*
X93014800Y-94151711D01*
X92838229Y-94171605D01*
X92670518Y-94230290D01*
X92520067Y-94324824D01*
X92500397Y-94344495D01*
X92446183Y-94376474D01*
X92383265Y-94378239D01*
X92327343Y-94349349D01*
X92292374Y-94297014D01*
X92270111Y-94233390D01*
X92256509Y-94194518D01*
X92161975Y-94044068D01*
X92161974Y-94044067D01*
X92161973Y-94044065D01*
X92036334Y-93918426D01*
X91885881Y-93823890D01*
X91718170Y-93765205D01*
X91541600Y-93745311D01*
X91374204Y-93764171D01*
X91305431Y-93752486D01*
X91253413Y-93706000D01*
X91234100Y-93638964D01*
X91234100Y-93276236D01*
X91253413Y-93209200D01*
X91254996Y-93206681D01*
X91288109Y-93153982D01*
X91346795Y-92986268D01*
X91366689Y-92809700D01*
X91357428Y-92727510D01*
X91363707Y-92671791D01*
X91393539Y-92624313D01*
X91575248Y-92442604D01*
X91616126Y-92415291D01*
X91664344Y-92405700D01*
X98985418Y-92405700D01*
X98993026Y-92405930D01*
X99049397Y-92409340D01*
X99104982Y-92399152D01*
X99112445Y-92398016D01*
X99168525Y-92391208D01*
X99176695Y-92388108D01*
X99198667Y-92381984D01*
X99207264Y-92380409D01*
X99258783Y-92357221D01*
X99265771Y-92354327D01*
X99318591Y-92334296D01*
X99325789Y-92329327D01*
X99345648Y-92318126D01*
X99353620Y-92314539D01*
X99398077Y-92279707D01*
X99404181Y-92275217D01*
X99450677Y-92243124D01*
X99488153Y-92200820D01*
X99493340Y-92195311D01*
X100831320Y-90857332D01*
X100836828Y-90852146D01*
X100879124Y-90814677D01*
X100911214Y-90768185D01*
X100915716Y-90762069D01*
X100941781Y-90728799D01*
X100950539Y-90717620D01*
X100954123Y-90709655D01*
X100965328Y-90689787D01*
X100970296Y-90682591D01*
X100990327Y-90629771D01*
X100993221Y-90622783D01*
X101016409Y-90571264D01*
X101017984Y-90562667D01*
X101024108Y-90540695D01*
X101027208Y-90532525D01*
X101030362Y-90506540D01*
X101034015Y-90476463D01*
X101035156Y-90468954D01*
X101045339Y-90413397D01*
X101045304Y-90412826D01*
X101041930Y-90357037D01*
X101041700Y-90349429D01*
X101041700Y-83587143D01*
X101051291Y-83538925D01*
X101078605Y-83498048D01*
X102097376Y-82479277D01*
X103269720Y-81306932D01*
X103275228Y-81301746D01*
X103317524Y-81264277D01*
X103349614Y-81217785D01*
X103354116Y-81211669D01*
X103388937Y-81167222D01*
X103388939Y-81167220D01*
X103392523Y-81159255D01*
X103403728Y-81139387D01*
X103408696Y-81132191D01*
X103428727Y-81079371D01*
X103431621Y-81072383D01*
X103454809Y-81020864D01*
X103456384Y-81012267D01*
X103462508Y-80990295D01*
X103465608Y-80982125D01*
X103468762Y-80956140D01*
X103472415Y-80926063D01*
X103473556Y-80918554D01*
X103483739Y-80862997D01*
X103481329Y-80823161D01*
X103480330Y-80806637D01*
X103480100Y-80799029D01*
X103480100Y-75052743D01*
X103489691Y-75004525D01*
X103517001Y-74963651D01*
X104275573Y-74205079D01*
X104323049Y-74175249D01*
X104378771Y-74168970D01*
X104431700Y-74187491D01*
X104471351Y-74227142D01*
X104535625Y-74329433D01*
X104661265Y-74455073D01*
X104661267Y-74455074D01*
X104661268Y-74455075D01*
X104811718Y-74549609D01*
X104979432Y-74608295D01*
X105156000Y-74628189D01*
X105332568Y-74608295D01*
X105500282Y-74549609D01*
X105650732Y-74455075D01*
X105776375Y-74329432D01*
X105870909Y-74178982D01*
X105929595Y-74011268D01*
X105933614Y-73975590D01*
X105954716Y-73918722D01*
X105999946Y-73878302D01*
X106058822Y-73863700D01*
X108296264Y-73863700D01*
X108363299Y-73883012D01*
X108418518Y-73917709D01*
X108586232Y-73976395D01*
X108762800Y-73996289D01*
X108939368Y-73976395D01*
X109107082Y-73917709D01*
X109257532Y-73823175D01*
X109383175Y-73697532D01*
X109477709Y-73547082D01*
X109536395Y-73379368D01*
X109556289Y-73202800D01*
X109536395Y-73026232D01*
X109509300Y-72948799D01*
X111525311Y-72948799D01*
X111545205Y-73125370D01*
X111603890Y-73293081D01*
X111698426Y-73443534D01*
X111824065Y-73569173D01*
X111824067Y-73569174D01*
X111824068Y-73569175D01*
X111974518Y-73663709D01*
X112142232Y-73722395D01*
X112318800Y-73742289D01*
X112495368Y-73722395D01*
X112663082Y-73663709D01*
X112813532Y-73569175D01*
X112939175Y-73443532D01*
X113033709Y-73293082D01*
X113092395Y-73125368D01*
X113112289Y-72948800D01*
X113092395Y-72772232D01*
X113033709Y-72604518D01*
X112939175Y-72454068D01*
X112939174Y-72454067D01*
X112939173Y-72454065D01*
X112813534Y-72328426D01*
X112663081Y-72233890D01*
X112495370Y-72175205D01*
X112318800Y-72155311D01*
X112142229Y-72175205D01*
X111974518Y-72233890D01*
X111824065Y-72328426D01*
X111698426Y-72454065D01*
X111603890Y-72604518D01*
X111545205Y-72772229D01*
X111525311Y-72948799D01*
X109509300Y-72948799D01*
X109477709Y-72858518D01*
X109383175Y-72708068D01*
X109383174Y-72708067D01*
X109383173Y-72708065D01*
X109257534Y-72582426D01*
X109107081Y-72487890D01*
X108939370Y-72429205D01*
X108762800Y-72409311D01*
X108586229Y-72429205D01*
X108418518Y-72487890D01*
X108363300Y-72522587D01*
X108296264Y-72541900D01*
X104366966Y-72541900D01*
X104359358Y-72541670D01*
X104303001Y-72538260D01*
X104247454Y-72548440D01*
X104239932Y-72549585D01*
X104183872Y-72556392D01*
X104175695Y-72559493D01*
X104153742Y-72565613D01*
X104145135Y-72567190D01*
X104093646Y-72590363D01*
X104086620Y-72593274D01*
X104033808Y-72613304D01*
X104026605Y-72618276D01*
X104006757Y-72629469D01*
X103998781Y-72633059D01*
X103954334Y-72667880D01*
X103948209Y-72672387D01*
X103901723Y-72704475D01*
X103864268Y-72746752D01*
X103859052Y-72752292D01*
X102368701Y-74242644D01*
X102363161Y-74247860D01*
X102320876Y-74285321D01*
X102288789Y-74331808D01*
X102284281Y-74337934D01*
X102249459Y-74382382D01*
X102245869Y-74390358D01*
X102234676Y-74410205D01*
X102229704Y-74417408D01*
X102209674Y-74470220D01*
X102206763Y-74477246D01*
X102183590Y-74528735D01*
X102182013Y-74537342D01*
X102175893Y-74559295D01*
X102172792Y-74567472D01*
X102165985Y-74623525D01*
X102164840Y-74631044D01*
X102154659Y-74686600D01*
X102158070Y-74742974D01*
X102158300Y-74750582D01*
X102158300Y-80496856D01*
X102148709Y-80545074D01*
X102121395Y-80585951D01*
X99930301Y-82777044D01*
X99924761Y-82782260D01*
X99882476Y-82819721D01*
X99850389Y-82866208D01*
X99845881Y-82872334D01*
X99811059Y-82916782D01*
X99807469Y-82924758D01*
X99796276Y-82944605D01*
X99791304Y-82951808D01*
X99771274Y-83004620D01*
X99768363Y-83011646D01*
X99745190Y-83063135D01*
X99743613Y-83071742D01*
X99737493Y-83093695D01*
X99734392Y-83101872D01*
X99727585Y-83157925D01*
X99726440Y-83165444D01*
X99716259Y-83221000D01*
X99719670Y-83277374D01*
X99719900Y-83284982D01*
X99719900Y-90047256D01*
X99710309Y-90095474D01*
X99682997Y-90136348D01*
X98772349Y-91046997D01*
X98731475Y-91074309D01*
X98683257Y-91083900D01*
X97584202Y-91083900D01*
X97525326Y-91069299D01*
X97480096Y-91028878D01*
X97458994Y-90972007D01*
X97448219Y-90876372D01*
X97445995Y-90856632D01*
X97415051Y-90768201D01*
X97387309Y-90688918D01*
X97318007Y-90578625D01*
X97292775Y-90538468D01*
X97292774Y-90538467D01*
X97292773Y-90538465D01*
X97167134Y-90412826D01*
X97016681Y-90318290D01*
X96848970Y-90259605D01*
X96672400Y-90239711D01*
X96495829Y-90259605D01*
X96328118Y-90318290D01*
X96177665Y-90412826D01*
X96052026Y-90538465D01*
X95957490Y-90688918D01*
X95898805Y-90856629D01*
X95885806Y-90972007D01*
X95864704Y-91028878D01*
X95819474Y-91069299D01*
X95760598Y-91083900D01*
X91362182Y-91083900D01*
X91354574Y-91083670D01*
X91298200Y-91080259D01*
X91242644Y-91090440D01*
X91235125Y-91091585D01*
X91179072Y-91098392D01*
X91170895Y-91101493D01*
X91148942Y-91107613D01*
X91140335Y-91109190D01*
X91088846Y-91132363D01*
X91081820Y-91135274D01*
X91029008Y-91155304D01*
X91021805Y-91160276D01*
X91001958Y-91171469D01*
X90993982Y-91175059D01*
X90949534Y-91209881D01*
X90943408Y-91214389D01*
X90896921Y-91246476D01*
X90859460Y-91288761D01*
X90854244Y-91294301D01*
X90122701Y-92025844D01*
X90117161Y-92031060D01*
X90074876Y-92068521D01*
X90042789Y-92115008D01*
X90038281Y-92121134D01*
X90003459Y-92165582D01*
X89999869Y-92173558D01*
X89988676Y-92193405D01*
X89983704Y-92200608D01*
X89963674Y-92253420D01*
X89960763Y-92260446D01*
X89937590Y-92311935D01*
X89936013Y-92320542D01*
X89929893Y-92342495D01*
X89925769Y-92353371D01*
X89914642Y-92375732D01*
X89858292Y-92465414D01*
X89829160Y-92548668D01*
X89795239Y-92600055D01*
X89741017Y-92629232D01*
X89679443Y-92629232D01*
X89625222Y-92600054D01*
X89591302Y-92548666D01*
X89585565Y-92532271D01*
X89534809Y-92387218D01*
X89440275Y-92236768D01*
X89440274Y-92236767D01*
X89440273Y-92236765D01*
X89314634Y-92111126D01*
X89164181Y-92016590D01*
X88996470Y-91957905D01*
X88819900Y-91938011D01*
X88643329Y-91957905D01*
X88475618Y-92016590D01*
X88325165Y-92111126D01*
X88199526Y-92236765D01*
X88104990Y-92387218D01*
X88046305Y-92554929D01*
X88026411Y-92731500D01*
X87526942Y-92731500D01*
X87538389Y-92629900D01*
X87518495Y-92453332D01*
X87459809Y-92285618D01*
X87425112Y-92230399D01*
X87405800Y-92163364D01*
X87405800Y-90324671D01*
X87406030Y-90317063D01*
X87409439Y-90260704D01*
X87405592Y-90239711D01*
X87399254Y-90205131D01*
X87398117Y-90197663D01*
X87391308Y-90141575D01*
X87388208Y-90133403D01*
X87382083Y-90111429D01*
X87381533Y-90108426D01*
X87380509Y-90102836D01*
X87357329Y-90051334D01*
X87354422Y-90044314D01*
X87334396Y-89991509D01*
X87329429Y-89984313D01*
X87318225Y-89964447D01*
X87314639Y-89956481D01*
X87314639Y-89956480D01*
X87279811Y-89912025D01*
X87275321Y-89905924D01*
X87243224Y-89859423D01*
X87200937Y-89821960D01*
X87195396Y-89816743D01*
X86336155Y-88957502D01*
X86330938Y-88951961D01*
X86307591Y-88925608D01*
X86293477Y-88909676D01*
X86246973Y-88877576D01*
X86240870Y-88873085D01*
X86213478Y-88851625D01*
X86196418Y-88838259D01*
X86188447Y-88834672D01*
X86168587Y-88823471D01*
X86161390Y-88818503D01*
X86108591Y-88798479D01*
X86101562Y-88795567D01*
X86050063Y-88772390D01*
X86041458Y-88770813D01*
X86019498Y-88764691D01*
X86011326Y-88761592D01*
X85955274Y-88754785D01*
X85947753Y-88753640D01*
X85892198Y-88743459D01*
X85835826Y-88746870D01*
X85828218Y-88747100D01*
X85251736Y-88747100D01*
X85184700Y-88727787D01*
X85129481Y-88693090D01*
X84961770Y-88634405D01*
X84785200Y-88614511D01*
X84608629Y-88634405D01*
X84440918Y-88693090D01*
X84385700Y-88727787D01*
X84318664Y-88747100D01*
X81403543Y-88747100D01*
X81336507Y-88727787D01*
X81304744Y-88707829D01*
X81304741Y-88707827D01*
X81137032Y-88649143D01*
X80960462Y-88629249D01*
X80783891Y-88649143D01*
X80616180Y-88707828D01*
X80560962Y-88742525D01*
X80493926Y-88761838D01*
X77451991Y-88761838D01*
X77384956Y-88742525D01*
X77345355Y-88717642D01*
X77306281Y-88693090D01*
X77138570Y-88634405D01*
X76962000Y-88614511D01*
X76785429Y-88634405D01*
X76617718Y-88693090D01*
X76562500Y-88727787D01*
X76495464Y-88747100D01*
X73688157Y-88747100D01*
X73621121Y-88727787D01*
X73585541Y-88705430D01*
X73417830Y-88646745D01*
X73241260Y-88626851D01*
X73064689Y-88646745D01*
X72896978Y-88705430D01*
X72746525Y-88799966D01*
X72620886Y-88925605D01*
X72526350Y-89076058D01*
X72467665Y-89243769D01*
X72447771Y-89420340D01*
X72467665Y-89596910D01*
X72526350Y-89764621D01*
X72620886Y-89915074D01*
X72746525Y-90040713D01*
X72746527Y-90040714D01*
X72746528Y-90040715D01*
X72839998Y-90099446D01*
X72896978Y-90135249D01*
X73029426Y-90181595D01*
X73064692Y-90193935D01*
X73241260Y-90213829D01*
X73417828Y-90193935D01*
X73585542Y-90135249D01*
X73660399Y-90088212D01*
X73727435Y-90068900D01*
X76495464Y-90068900D01*
X76562499Y-90088212D01*
X76617718Y-90122909D01*
X76785432Y-90181595D01*
X76962000Y-90201489D01*
X77138568Y-90181595D01*
X77306282Y-90122909D01*
X77338045Y-90102950D01*
X77405081Y-90083638D01*
X80493926Y-90083638D01*
X80560961Y-90102950D01*
X80592387Y-90122697D01*
X80616180Y-90137647D01*
X80779761Y-90194887D01*
X80783894Y-90196333D01*
X80960462Y-90216227D01*
X81137030Y-90196333D01*
X81304744Y-90137647D01*
X81383418Y-90088212D01*
X81450453Y-90068900D01*
X84318664Y-90068900D01*
X84385699Y-90088212D01*
X84440918Y-90122909D01*
X84608632Y-90181595D01*
X84785200Y-90201489D01*
X84961768Y-90181595D01*
X85129482Y-90122909D01*
X85184700Y-90088212D01*
X85251736Y-90068900D01*
X85526057Y-90068900D01*
X85574275Y-90078491D01*
X85615152Y-90105805D01*
X86047095Y-90537748D01*
X86074409Y-90578625D01*
X86084000Y-90626843D01*
X86084000Y-92163364D01*
X86064687Y-92230399D01*
X86058100Y-92240883D01*
X86029990Y-92285618D01*
X85971305Y-92453329D01*
X85951411Y-92629900D01*
X85971305Y-92806470D01*
X86029990Y-92974181D01*
X86029991Y-92974182D01*
X86062371Y-93025715D01*
X86064687Y-93029400D01*
X86084000Y-93096436D01*
X86084000Y-97185918D01*
X86083770Y-97193526D01*
X86080359Y-97249898D01*
X86090540Y-97305453D01*
X86091685Y-97312974D01*
X86098492Y-97369026D01*
X86101591Y-97377198D01*
X86107713Y-97399158D01*
X86109290Y-97407763D01*
X86132467Y-97459262D01*
X86135379Y-97466291D01*
X86155403Y-97519090D01*
X86160371Y-97526287D01*
X86171572Y-97546147D01*
X86175159Y-97554118D01*
X86175161Y-97554120D01*
X86209985Y-97598570D01*
X86214476Y-97604673D01*
X86246576Y-97651177D01*
X86288562Y-97688373D01*
X86288861Y-97688638D01*
X86294402Y-97693855D01*
X87323314Y-98722767D01*
X87353148Y-98770246D01*
X87359427Y-98825968D01*
X87340907Y-98878897D01*
X87303227Y-98938865D01*
X87248264Y-99095940D01*
X87229631Y-99261315D01*
X87248264Y-99426689D01*
X87303227Y-99583765D01*
X87391768Y-99724677D01*
X87509441Y-99842350D01*
X87622897Y-99913639D01*
X87650353Y-99930891D01*
X87807432Y-99985855D01*
X87972804Y-100004488D01*
X88138176Y-99985855D01*
X88295255Y-99930891D01*
X88355221Y-99893211D01*
X88408148Y-99874691D01*
X88463871Y-99880970D01*
X88511350Y-99910803D01*
X89272138Y-100671592D01*
X90009951Y-101409405D01*
X90015168Y-101414946D01*
X90052623Y-101457224D01*
X90083122Y-101478276D01*
X90099105Y-101489309D01*
X90105233Y-101493817D01*
X90149680Y-101528639D01*
X90151098Y-101529277D01*
X90157646Y-101532224D01*
X90177513Y-101543429D01*
X90184709Y-101548396D01*
X90235676Y-101567725D01*
X90237514Y-101568422D01*
X90244534Y-101571329D01*
X90296036Y-101594509D01*
X90304633Y-101596084D01*
X90326603Y-101602208D01*
X90334775Y-101605308D01*
X90390863Y-101612117D01*
X90398331Y-101613254D01*
X90453903Y-101623439D01*
X90453903Y-101623438D01*
X90453904Y-101623439D01*
X90510258Y-101620030D01*
X90517866Y-101619800D01*
X101676700Y-101619800D01*
X101739700Y-101636681D01*
X101785819Y-101682800D01*
X101802700Y-101745800D01*
X101802700Y-106529518D01*
X101802470Y-106537126D01*
X101799059Y-106593498D01*
X101809240Y-106649053D01*
X101810385Y-106656574D01*
X101817192Y-106712626D01*
X101820291Y-106720798D01*
X101826413Y-106742758D01*
X101827990Y-106751363D01*
X101851167Y-106802862D01*
X101854079Y-106809891D01*
X101874103Y-106862690D01*
X101879071Y-106869887D01*
X101890272Y-106889747D01*
X101893859Y-106897718D01*
X101897606Y-106902500D01*
X101928685Y-106942170D01*
X101933176Y-106948273D01*
X101965276Y-106994777D01*
X101970585Y-106999480D01*
X102007561Y-107032238D01*
X102013102Y-107037455D01*
X102946895Y-107971248D01*
X102974209Y-108012125D01*
X102983800Y-108060343D01*
X102983800Y-109330638D01*
X102990311Y-109391201D01*
X103000863Y-109419491D01*
X103041411Y-109528205D01*
X103129038Y-109645261D01*
X103246094Y-109732888D01*
X103246095Y-109732888D01*
X103246096Y-109732889D01*
X103383099Y-109783989D01*
X103443662Y-109790500D01*
X105240938Y-109790500D01*
X105301501Y-109783989D01*
X105438504Y-109732889D01*
X105555561Y-109645261D01*
X105643189Y-109528204D01*
X105694289Y-109391201D01*
X105700800Y-109330638D01*
X105700800Y-107533362D01*
X105694289Y-107472799D01*
X105643189Y-107335796D01*
X105614563Y-107297556D01*
X105555561Y-107218738D01*
X105438505Y-107131111D01*
X105376970Y-107108159D01*
X105323491Y-107088213D01*
X105273158Y-107053650D01*
X105244984Y-106999480D01*
X105245587Y-106938424D01*
X105274822Y-106884822D01*
X105418022Y-106729268D01*
X105541160Y-106540791D01*
X105631596Y-106334616D01*
X105686864Y-106116368D01*
X105705456Y-105892000D01*
X105686864Y-105667632D01*
X105631596Y-105449384D01*
X105541160Y-105243209D01*
X105418022Y-105054732D01*
X105265540Y-104889094D01*
X105265539Y-104889093D01*
X105265537Y-104889091D01*
X105087878Y-104750812D01*
X105054617Y-104732812D01*
X105006346Y-104686495D01*
X104988588Y-104621997D01*
X105006349Y-104557499D01*
X105054617Y-104511187D01*
X105087876Y-104493189D01*
X105265540Y-104354906D01*
X105418022Y-104189268D01*
X105541160Y-104000791D01*
X105631596Y-103794616D01*
X105686864Y-103576368D01*
X105705456Y-103352000D01*
X105686864Y-103127632D01*
X105668807Y-103056326D01*
X105668407Y-102996089D01*
X105696016Y-102942550D01*
X105745324Y-102907946D01*
X105805059Y-102900188D01*
X105820900Y-102901973D01*
X105986272Y-102883340D01*
X106143351Y-102828376D01*
X106284261Y-102739836D01*
X106401936Y-102622161D01*
X106490476Y-102481251D01*
X106545440Y-102324172D01*
X106564073Y-102158800D01*
X106545440Y-101993428D01*
X106490476Y-101836349D01*
X106425593Y-101733088D01*
X106401935Y-101695437D01*
X106274223Y-101567725D01*
X106276282Y-101565665D01*
X106250695Y-101538901D01*
X106234317Y-101479547D01*
X106248020Y-101419518D01*
X106288531Y-101373151D01*
X106346173Y-101351517D01*
X106491972Y-101335090D01*
X106649051Y-101280126D01*
X106789961Y-101191586D01*
X106907636Y-101073911D01*
X106996176Y-100933001D01*
X106996177Y-100932997D01*
X107000424Y-100926239D01*
X107044792Y-100883765D01*
X107103969Y-100867314D01*
X107163893Y-100880795D01*
X107210324Y-100921004D01*
X107245404Y-100971103D01*
X107407296Y-101132995D01*
X107407299Y-101132997D01*
X107407300Y-101132998D01*
X107594851Y-101264323D01*
X107628741Y-101280126D01*
X107634057Y-101282605D01*
X107687074Y-101329100D01*
X107706807Y-101396800D01*
X107687074Y-101464500D01*
X107634057Y-101510995D01*
X107594850Y-101529277D01*
X107407296Y-101660604D01*
X107245404Y-101822496D01*
X107114077Y-102010049D01*
X107017315Y-102217556D01*
X106958057Y-102438712D01*
X106938102Y-102666800D01*
X106958057Y-102894887D01*
X107017315Y-103116043D01*
X107114077Y-103323550D01*
X107245404Y-103511103D01*
X107407296Y-103672995D01*
X107407299Y-103672997D01*
X107407300Y-103672998D01*
X107594851Y-103804323D01*
X107629959Y-103820694D01*
X107634057Y-103822605D01*
X107687074Y-103869100D01*
X107706807Y-103936800D01*
X107687074Y-104004500D01*
X107634057Y-104050995D01*
X107594850Y-104069277D01*
X107407296Y-104200604D01*
X107245404Y-104362496D01*
X107114077Y-104550049D01*
X107017315Y-104757556D01*
X106958057Y-104978712D01*
X106938102Y-105206800D01*
X106958057Y-105434887D01*
X107017315Y-105656043D01*
X107114077Y-105863550D01*
X107245404Y-106051103D01*
X107407296Y-106212995D01*
X107407299Y-106212997D01*
X107407300Y-106212998D01*
X107594851Y-106344323D01*
X107629959Y-106360694D01*
X107634057Y-106362605D01*
X107687074Y-106409100D01*
X107706807Y-106476800D01*
X107687074Y-106544500D01*
X107634057Y-106590995D01*
X107594850Y-106609277D01*
X107407296Y-106740604D01*
X107245404Y-106902496D01*
X107114077Y-107090049D01*
X107017315Y-107297556D01*
X106958057Y-107518712D01*
X106938102Y-107746800D01*
X106958057Y-107974887D01*
X107017315Y-108196043D01*
X107114077Y-108403550D01*
X107245404Y-108591103D01*
X107407296Y-108752995D01*
X107407299Y-108752997D01*
X107407300Y-108752998D01*
X107594851Y-108884323D01*
X107629959Y-108900694D01*
X107634057Y-108902605D01*
X107687074Y-108949100D01*
X107706807Y-109016800D01*
X107687074Y-109084500D01*
X107634057Y-109130995D01*
X107594850Y-109149277D01*
X107407296Y-109280604D01*
X107245404Y-109442496D01*
X107114077Y-109630049D01*
X107017315Y-109837556D01*
X106958057Y-110058712D01*
X106938102Y-110286800D01*
X106958057Y-110514887D01*
X107017315Y-110736043D01*
X107114077Y-110943550D01*
X107245404Y-111131103D01*
X107407296Y-111292995D01*
X107407299Y-111292997D01*
X107407300Y-111292998D01*
X107594851Y-111424323D01*
X107634057Y-111442605D01*
X107687073Y-111489098D01*
X107706807Y-111556797D01*
X107687075Y-111624497D01*
X107634059Y-111670993D01*
X107594851Y-111689276D01*
X107407296Y-111820604D01*
X107245404Y-111982496D01*
X107114077Y-112170049D01*
X107017315Y-112377556D01*
X106958057Y-112598712D01*
X106938102Y-112826800D01*
X106958057Y-113054887D01*
X107017315Y-113276043D01*
X107114077Y-113483550D01*
X107245404Y-113671103D01*
X107407296Y-113832995D01*
X107407299Y-113832997D01*
X107407300Y-113832998D01*
X107594851Y-113964323D01*
X107629959Y-113980694D01*
X107634057Y-113982605D01*
X107687074Y-114029100D01*
X107706807Y-114096800D01*
X107687074Y-114164500D01*
X107634057Y-114210995D01*
X107594850Y-114229277D01*
X107407296Y-114360604D01*
X107245404Y-114522496D01*
X107114077Y-114710049D01*
X107017315Y-114917556D01*
X106958057Y-115138712D01*
X106938102Y-115366800D01*
X106958057Y-115594887D01*
X107017315Y-115816043D01*
X107114077Y-116023550D01*
X107245404Y-116211103D01*
X107407296Y-116372995D01*
X107594849Y-116504322D01*
X107802356Y-116601084D01*
X107830877Y-116608726D01*
X108023513Y-116660343D01*
X108251600Y-116680298D01*
X108479687Y-116660343D01*
X108700843Y-116601084D01*
X108908349Y-116504323D01*
X109095900Y-116372998D01*
X109257798Y-116211100D01*
X109389123Y-116023549D01*
X109407404Y-115984343D01*
X109453900Y-115931325D01*
X109521600Y-115911592D01*
X109589300Y-115931325D01*
X109635795Y-115984343D01*
X109654076Y-116023548D01*
X109785404Y-116211103D01*
X109947296Y-116372995D01*
X110134849Y-116504322D01*
X110342356Y-116601084D01*
X110370877Y-116608726D01*
X110563513Y-116660343D01*
X110791600Y-116680298D01*
X111019687Y-116660343D01*
X111240843Y-116601084D01*
X111448349Y-116504323D01*
X111635900Y-116372998D01*
X111797798Y-116211100D01*
X111929123Y-116023549D01*
X111947404Y-115984343D01*
X111993900Y-115931325D01*
X112061600Y-115911592D01*
X112129300Y-115931325D01*
X112175795Y-115984343D01*
X112194076Y-116023548D01*
X112325404Y-116211103D01*
X112487296Y-116372995D01*
X112674849Y-116504322D01*
X112882356Y-116601084D01*
X112910877Y-116608726D01*
X113103513Y-116660343D01*
X113331600Y-116680298D01*
X113559687Y-116660343D01*
X113780843Y-116601084D01*
X113988349Y-116504323D01*
X114175900Y-116372998D01*
X114337798Y-116211100D01*
X114469123Y-116023549D01*
X114487404Y-115984343D01*
X114533900Y-115931325D01*
X114601600Y-115911592D01*
X114669300Y-115931325D01*
X114715795Y-115984343D01*
X114734076Y-116023548D01*
X114865404Y-116211103D01*
X115027296Y-116372995D01*
X115214849Y-116504322D01*
X115422356Y-116601084D01*
X115450877Y-116608726D01*
X115643513Y-116660343D01*
X115871600Y-116680298D01*
X116099687Y-116660343D01*
X116191026Y-116635867D01*
X116256246Y-116635867D01*
X116312731Y-116668479D01*
X116373457Y-116729205D01*
X116404195Y-116779364D01*
X116408811Y-116838011D01*
X116386298Y-116892361D01*
X116341565Y-116930567D01*
X116284362Y-116944300D01*
X84747600Y-116944300D01*
X84684600Y-116927419D01*
X84638481Y-116881300D01*
X84621600Y-116818300D01*
X84621600Y-114622192D01*
X101851800Y-114622192D01*
X101891366Y-114859297D01*
X101909908Y-114913309D01*
X101969416Y-115086652D01*
X101969417Y-115086655D01*
X101969418Y-115086656D01*
X102083828Y-115298067D01*
X102231475Y-115487764D01*
X102408331Y-115650571D01*
X102609572Y-115782049D01*
X102829709Y-115878610D01*
X103062737Y-115937620D01*
X103242310Y-115952500D01*
X103362285Y-115952500D01*
X103362290Y-115952500D01*
X103541863Y-115937620D01*
X103774891Y-115878610D01*
X103995028Y-115782049D01*
X104196269Y-115650571D01*
X104373125Y-115487764D01*
X104520772Y-115298067D01*
X104635182Y-115086656D01*
X104713234Y-114859297D01*
X104752800Y-114622192D01*
X104752800Y-114381808D01*
X104713234Y-114144703D01*
X104635182Y-113917344D01*
X104520772Y-113705933D01*
X104373125Y-113516236D01*
X104337618Y-113483550D01*
X104272064Y-113423203D01*
X104196269Y-113353429D01*
X103995028Y-113221951D01*
X103995025Y-113221949D01*
X103995024Y-113221949D01*
X103833960Y-113151300D01*
X103774891Y-113125390D01*
X103541863Y-113066380D01*
X103362290Y-113051500D01*
X103242310Y-113051500D01*
X103062737Y-113066380D01*
X102829709Y-113125390D01*
X102829705Y-113125391D01*
X102829704Y-113125392D01*
X102609575Y-113221949D01*
X102609571Y-113221951D01*
X102609572Y-113221951D01*
X102408331Y-113353429D01*
X102408329Y-113353430D01*
X102408327Y-113353432D01*
X102231478Y-113516232D01*
X102083829Y-113705931D01*
X101969416Y-113917347D01*
X101920072Y-114061084D01*
X101891366Y-114144703D01*
X101851800Y-114381808D01*
X101851800Y-114622192D01*
X84621600Y-114622192D01*
X84621600Y-109694800D01*
X68381600Y-109694800D01*
X68381600Y-116818300D01*
X68364719Y-116881300D01*
X68318600Y-116927419D01*
X68255600Y-116944300D01*
X50808645Y-116944300D01*
X50795089Y-116943569D01*
X50662753Y-116929248D01*
X50638574Y-116924196D01*
X50516855Y-116885989D01*
X50494125Y-116876316D01*
X50382200Y-116815096D01*
X50361795Y-116801175D01*
X50361679Y-116801078D01*
X50263961Y-116719291D01*
X50246669Y-116701661D01*
X50166692Y-116602263D01*
X50153172Y-116581601D01*
X50094118Y-116468499D01*
X50084889Y-116445590D01*
X50080842Y-116431769D01*
X50049042Y-116323156D01*
X50044460Y-116298892D01*
X50032636Y-116165585D01*
X50032150Y-116153268D01*
X50032478Y-116119569D01*
X50032477Y-116119566D01*
X50032694Y-116097247D01*
X50032103Y-116094199D01*
X50032110Y-115984343D01*
X50032186Y-114622192D01*
X50931800Y-114622192D01*
X50971366Y-114859297D01*
X50989908Y-114913309D01*
X51049416Y-115086652D01*
X51049417Y-115086655D01*
X51049418Y-115086656D01*
X51163828Y-115298067D01*
X51311475Y-115487764D01*
X51488331Y-115650571D01*
X51689572Y-115782049D01*
X51909709Y-115878610D01*
X52142737Y-115937620D01*
X52322310Y-115952500D01*
X52442285Y-115952500D01*
X52442290Y-115952500D01*
X52621863Y-115937620D01*
X52854891Y-115878610D01*
X53075028Y-115782049D01*
X53276269Y-115650571D01*
X53453125Y-115487764D01*
X53600772Y-115298067D01*
X53715182Y-115086656D01*
X53793234Y-114859297D01*
X53832800Y-114622192D01*
X53832800Y-114381808D01*
X53793234Y-114144703D01*
X53715182Y-113917344D01*
X53600772Y-113705933D01*
X53453125Y-113516236D01*
X53417618Y-113483550D01*
X53352064Y-113423203D01*
X53276269Y-113353429D01*
X53075028Y-113221951D01*
X53075025Y-113221949D01*
X53075024Y-113221949D01*
X52913960Y-113151300D01*
X52854891Y-113125390D01*
X52621863Y-113066380D01*
X52442290Y-113051500D01*
X52322310Y-113051500D01*
X52142737Y-113066380D01*
X51909709Y-113125390D01*
X51909705Y-113125391D01*
X51909704Y-113125392D01*
X51689575Y-113221949D01*
X51689571Y-113221951D01*
X51689572Y-113221951D01*
X51488331Y-113353429D01*
X51488329Y-113353430D01*
X51488327Y-113353432D01*
X51311478Y-113516232D01*
X51163829Y-113705931D01*
X51049416Y-113917347D01*
X51000072Y-114061084D01*
X50971366Y-114144703D01*
X50931800Y-114381808D01*
X50931800Y-114622192D01*
X50032186Y-114622192D01*
X50032397Y-110845599D01*
X57118511Y-110845599D01*
X57138405Y-111022170D01*
X57197090Y-111189881D01*
X57291626Y-111340334D01*
X57417265Y-111465973D01*
X57417267Y-111465974D01*
X57417268Y-111465975D01*
X57567718Y-111560509D01*
X57735432Y-111619195D01*
X57912000Y-111639089D01*
X58088568Y-111619195D01*
X58256282Y-111560509D01*
X58406732Y-111465975D01*
X58532375Y-111340332D01*
X58626909Y-111189882D01*
X58685595Y-111022168D01*
X58705489Y-110845600D01*
X58705489Y-110845599D01*
X65246511Y-110845599D01*
X65266405Y-111022170D01*
X65325090Y-111189881D01*
X65419626Y-111340334D01*
X65545265Y-111465973D01*
X65545267Y-111465974D01*
X65545268Y-111465975D01*
X65695718Y-111560509D01*
X65863432Y-111619195D01*
X66040000Y-111639089D01*
X66216568Y-111619195D01*
X66384282Y-111560509D01*
X66534732Y-111465975D01*
X66660375Y-111340332D01*
X66754909Y-111189882D01*
X66813595Y-111022168D01*
X66833489Y-110845600D01*
X66813595Y-110669032D01*
X66754909Y-110501318D01*
X66660375Y-110350868D01*
X66660374Y-110350867D01*
X66660373Y-110350865D01*
X66534734Y-110225226D01*
X66384281Y-110130690D01*
X66216570Y-110072005D01*
X66098587Y-110058712D01*
X66040000Y-110052111D01*
X66039999Y-110052111D01*
X65863429Y-110072005D01*
X65695718Y-110130690D01*
X65545265Y-110225226D01*
X65419626Y-110350865D01*
X65325090Y-110501318D01*
X65266405Y-110669029D01*
X65246511Y-110845599D01*
X58705489Y-110845599D01*
X58685595Y-110669032D01*
X58626909Y-110501318D01*
X58532375Y-110350868D01*
X58532374Y-110350867D01*
X58532373Y-110350865D01*
X58406734Y-110225226D01*
X58256281Y-110130690D01*
X58088570Y-110072005D01*
X57970587Y-110058712D01*
X57912000Y-110052111D01*
X57911999Y-110052111D01*
X57735429Y-110072005D01*
X57567718Y-110130690D01*
X57417265Y-110225226D01*
X57291626Y-110350865D01*
X57197090Y-110501318D01*
X57138405Y-110669029D01*
X57118511Y-110845599D01*
X50032397Y-110845599D01*
X50032479Y-109372399D01*
X51682911Y-109372399D01*
X51702805Y-109548970D01*
X51761490Y-109716681D01*
X51856026Y-109867134D01*
X51981665Y-109992773D01*
X52132118Y-110087309D01*
X52266695Y-110134400D01*
X52299832Y-110145995D01*
X52476400Y-110165889D01*
X52652968Y-110145995D01*
X52820682Y-110087309D01*
X52971132Y-109992775D01*
X53096775Y-109867132D01*
X53191309Y-109716682D01*
X53249995Y-109548968D01*
X53269889Y-109372400D01*
X53249995Y-109195832D01*
X53191309Y-109028118D01*
X53096775Y-108877668D01*
X53096774Y-108877667D01*
X53096773Y-108877665D01*
X52971134Y-108752026D01*
X52820681Y-108657490D01*
X52652970Y-108598805D01*
X52476400Y-108578911D01*
X52299829Y-108598805D01*
X52132118Y-108657490D01*
X51981665Y-108752026D01*
X51856026Y-108877665D01*
X51761490Y-109028118D01*
X51702805Y-109195829D01*
X51682911Y-109372399D01*
X50032479Y-109372399D01*
X50032533Y-108407200D01*
X97758027Y-108407200D01*
X97776660Y-108572574D01*
X97831623Y-108729650D01*
X97920164Y-108870562D01*
X98037837Y-108988235D01*
X98178748Y-109076775D01*
X98178749Y-109076776D01*
X98335828Y-109131740D01*
X98501200Y-109150373D01*
X98666572Y-109131740D01*
X98823651Y-109076776D01*
X98964561Y-108988236D01*
X99082236Y-108870561D01*
X99170776Y-108729651D01*
X99225740Y-108572572D01*
X99244373Y-108407200D01*
X99225740Y-108241828D01*
X99209288Y-108194812D01*
X99170776Y-108084749D01*
X99082235Y-107943837D01*
X98964562Y-107826164D01*
X98823650Y-107737623D01*
X98666574Y-107682660D01*
X98501200Y-107664027D01*
X98335825Y-107682660D01*
X98178749Y-107737623D01*
X98037837Y-107826164D01*
X97920164Y-107943837D01*
X97831623Y-108084749D01*
X97776660Y-108241825D01*
X97758027Y-108407200D01*
X50032533Y-108407200D01*
X50032607Y-107086400D01*
X63011311Y-107086400D01*
X63031205Y-107262970D01*
X63089890Y-107430681D01*
X63184426Y-107581134D01*
X63310065Y-107706773D01*
X63310067Y-107706774D01*
X63310068Y-107706775D01*
X63460518Y-107801309D01*
X63628232Y-107859995D01*
X63804800Y-107879889D01*
X63981368Y-107859995D01*
X64149082Y-107801309D01*
X64299532Y-107706775D01*
X64425175Y-107581132D01*
X64519709Y-107430682D01*
X64578395Y-107262968D01*
X64598289Y-107086400D01*
X64578395Y-106909832D01*
X64519709Y-106742118D01*
X64425175Y-106591668D01*
X64425174Y-106591667D01*
X64425173Y-106591665D01*
X64299534Y-106466026D01*
X64149081Y-106371490D01*
X63981370Y-106312805D01*
X63804800Y-106292911D01*
X63628229Y-106312805D01*
X63460518Y-106371490D01*
X63310065Y-106466026D01*
X63184426Y-106591665D01*
X63089890Y-106742118D01*
X63031205Y-106909829D01*
X63011311Y-107086400D01*
X50032607Y-107086400D01*
X50032689Y-105618633D01*
X70247355Y-105618633D01*
X70251570Y-105656043D01*
X70265988Y-105784007D01*
X70320951Y-105941083D01*
X70409492Y-106081995D01*
X70527165Y-106199668D01*
X70527167Y-106199669D01*
X70668077Y-106288209D01*
X70825156Y-106343173D01*
X70990528Y-106361806D01*
X71155900Y-106343173D01*
X71312979Y-106288209D01*
X71453889Y-106199669D01*
X71571564Y-106081994D01*
X71583482Y-106063025D01*
X71623131Y-106023375D01*
X71676061Y-106004853D01*
X71731781Y-106011131D01*
X71831210Y-106045923D01*
X71996582Y-106064556D01*
X72161954Y-106045923D01*
X72319033Y-105990959D01*
X72459943Y-105902419D01*
X72577618Y-105784744D01*
X72666158Y-105643834D01*
X72721122Y-105486755D01*
X72739755Y-105321383D01*
X72721122Y-105156011D01*
X72666158Y-104998932D01*
X72595299Y-104886161D01*
X72577617Y-104858020D01*
X72459944Y-104740347D01*
X72319032Y-104651806D01*
X72161956Y-104596843D01*
X71996582Y-104578210D01*
X71831207Y-104596843D01*
X71674131Y-104651806D01*
X71533219Y-104740347D01*
X71415546Y-104858020D01*
X71403626Y-104876991D01*
X71363975Y-104916641D01*
X71311047Y-104935161D01*
X71255326Y-104928883D01*
X71155900Y-104894093D01*
X70990528Y-104875460D01*
X70825153Y-104894093D01*
X70668077Y-104949056D01*
X70527165Y-105037597D01*
X70409492Y-105155270D01*
X70320951Y-105296182D01*
X70265988Y-105453258D01*
X70258158Y-105522750D01*
X70247355Y-105618633D01*
X50032689Y-105618633D01*
X50032857Y-102616000D01*
X63824111Y-102616000D01*
X63844005Y-102792570D01*
X63902690Y-102960281D01*
X63997226Y-103110734D01*
X64122865Y-103236373D01*
X64122867Y-103236374D01*
X64122868Y-103236375D01*
X64273318Y-103330909D01*
X64441032Y-103389595D01*
X64617600Y-103409489D01*
X64794168Y-103389595D01*
X64961882Y-103330909D01*
X65112332Y-103236375D01*
X65237975Y-103110732D01*
X65332509Y-102960282D01*
X65381876Y-102819199D01*
X87750911Y-102819199D01*
X87770805Y-102995770D01*
X87829490Y-103163481D01*
X87924026Y-103313934D01*
X88049665Y-103439573D01*
X88200118Y-103534109D01*
X88320886Y-103576368D01*
X88367832Y-103592795D01*
X88544400Y-103612689D01*
X88720968Y-103592795D01*
X88888682Y-103534109D01*
X89039132Y-103439575D01*
X89164775Y-103313932D01*
X89259309Y-103163482D01*
X89317995Y-102995768D01*
X89337889Y-102819200D01*
X89317995Y-102642632D01*
X89259309Y-102474918D01*
X89164775Y-102324468D01*
X89164774Y-102324467D01*
X89164773Y-102324465D01*
X89039134Y-102198826D01*
X88888681Y-102104290D01*
X88720970Y-102045605D01*
X88544400Y-102025711D01*
X88367829Y-102045605D01*
X88200118Y-102104290D01*
X88049665Y-102198826D01*
X87924026Y-102324465D01*
X87829490Y-102474918D01*
X87770805Y-102642629D01*
X87750911Y-102819199D01*
X65381876Y-102819199D01*
X65391195Y-102792568D01*
X65411089Y-102616000D01*
X65391195Y-102439432D01*
X65332509Y-102271718D01*
X65237975Y-102121268D01*
X65237974Y-102121267D01*
X65237973Y-102121265D01*
X65112334Y-101995626D01*
X64961881Y-101901090D01*
X64794170Y-101842405D01*
X64617600Y-101822511D01*
X64441029Y-101842405D01*
X64273318Y-101901090D01*
X64122865Y-101995626D01*
X63997226Y-102121265D01*
X63902690Y-102271718D01*
X63844005Y-102439429D01*
X63824111Y-102616000D01*
X50032857Y-102616000D01*
X50032906Y-101741200D01*
X51103427Y-101741200D01*
X51122060Y-101906574D01*
X51177023Y-102063650D01*
X51265564Y-102204562D01*
X51383237Y-102322235D01*
X51383239Y-102322236D01*
X51524149Y-102410776D01*
X51681228Y-102465740D01*
X51846600Y-102484373D01*
X52011972Y-102465740D01*
X52169051Y-102410776D01*
X52309961Y-102322236D01*
X52427636Y-102204561D01*
X52516176Y-102063651D01*
X52571140Y-101906572D01*
X52589773Y-101741200D01*
X52571140Y-101575828D01*
X52516176Y-101418749D01*
X52510305Y-101409405D01*
X52427635Y-101277837D01*
X52309962Y-101160164D01*
X52169050Y-101071623D01*
X52011974Y-101016660D01*
X51846600Y-100998027D01*
X51681225Y-101016660D01*
X51524149Y-101071623D01*
X51383237Y-101160164D01*
X51265564Y-101277837D01*
X51177023Y-101418749D01*
X51122060Y-101575825D01*
X51103427Y-101741200D01*
X50032906Y-101741200D01*
X50033029Y-99541200D01*
X51103427Y-99541200D01*
X51122060Y-99706574D01*
X51177023Y-99863650D01*
X51265564Y-100004562D01*
X51383237Y-100122235D01*
X51524149Y-100210776D01*
X51658256Y-100257702D01*
X51681228Y-100265740D01*
X51846600Y-100284373D01*
X52011972Y-100265740D01*
X52169051Y-100210776D01*
X52309961Y-100122236D01*
X52427636Y-100004561D01*
X52516176Y-99863651D01*
X52548526Y-99771200D01*
X64535311Y-99771200D01*
X64537176Y-99787749D01*
X64555205Y-99947770D01*
X64613890Y-100115481D01*
X64708426Y-100265934D01*
X64834065Y-100391573D01*
X64984518Y-100486109D01*
X65143878Y-100541872D01*
X65152232Y-100544795D01*
X65328800Y-100564689D01*
X65505368Y-100544795D01*
X65673082Y-100486109D01*
X65823532Y-100391575D01*
X65838607Y-100376500D01*
X83358427Y-100376500D01*
X83377060Y-100541874D01*
X83432023Y-100698950D01*
X83520564Y-100839862D01*
X83638237Y-100957535D01*
X83779149Y-101046076D01*
X83852158Y-101071623D01*
X83936228Y-101101040D01*
X84101600Y-101119673D01*
X84266972Y-101101040D01*
X84424051Y-101046076D01*
X84564961Y-100957536D01*
X84682636Y-100839861D01*
X84771176Y-100698951D01*
X84826140Y-100541872D01*
X84844773Y-100376500D01*
X84835796Y-100296833D01*
X84844595Y-100234512D01*
X84882444Y-100184219D01*
X84939898Y-100158510D01*
X85002617Y-100163800D01*
X85077028Y-100189838D01*
X85242400Y-100208471D01*
X85407772Y-100189838D01*
X85564851Y-100134874D01*
X85705761Y-100046334D01*
X85823436Y-99928659D01*
X85911976Y-99787749D01*
X85966940Y-99630670D01*
X85985573Y-99465298D01*
X85966940Y-99299926D01*
X85959211Y-99277839D01*
X85911976Y-99142847D01*
X85823435Y-99001935D01*
X85705762Y-98884262D01*
X85564850Y-98795721D01*
X85407774Y-98740758D01*
X85242400Y-98722125D01*
X85077027Y-98740758D01*
X84966086Y-98779578D01*
X84896434Y-98783489D01*
X84835376Y-98749743D01*
X84801631Y-98688685D01*
X84805542Y-98619035D01*
X84826140Y-98560172D01*
X84844773Y-98394800D01*
X84826140Y-98229428D01*
X84771176Y-98072349D01*
X84682636Y-97931439D01*
X84682635Y-97931437D01*
X84564962Y-97813764D01*
X84424050Y-97725223D01*
X84266974Y-97670260D01*
X84101600Y-97651627D01*
X83936225Y-97670260D01*
X83779149Y-97725223D01*
X83638237Y-97813764D01*
X83520564Y-97931437D01*
X83432023Y-98072349D01*
X83377060Y-98229425D01*
X83358427Y-98394799D01*
X83377060Y-98560174D01*
X83432023Y-98717250D01*
X83520564Y-98858162D01*
X83638237Y-98975835D01*
X83729800Y-99033368D01*
X83779149Y-99064376D01*
X83936228Y-99119340D01*
X84101600Y-99137973D01*
X84266972Y-99119340D01*
X84377914Y-99080519D01*
X84447564Y-99076608D01*
X84508622Y-99110353D01*
X84542368Y-99171411D01*
X84538457Y-99241063D01*
X84517860Y-99299925D01*
X84499227Y-99465298D01*
X84508203Y-99544960D01*
X84499404Y-99607285D01*
X84461555Y-99657578D01*
X84404101Y-99683287D01*
X84341380Y-99677996D01*
X84266975Y-99651960D01*
X84101600Y-99633327D01*
X83936225Y-99651960D01*
X83779149Y-99706923D01*
X83638237Y-99795464D01*
X83520564Y-99913137D01*
X83432023Y-100054049D01*
X83377060Y-100211125D01*
X83358427Y-100376500D01*
X65838607Y-100376500D01*
X65949175Y-100265932D01*
X66043709Y-100115482D01*
X66102395Y-99947768D01*
X66122289Y-99771200D01*
X66102395Y-99594632D01*
X66043709Y-99426918D01*
X65949175Y-99276468D01*
X65949174Y-99276467D01*
X65949173Y-99276465D01*
X65823534Y-99150826D01*
X65673081Y-99056290D01*
X65505370Y-98997605D01*
X65328800Y-98977711D01*
X65152229Y-98997605D01*
X64984518Y-99056290D01*
X64834065Y-99150826D01*
X64708426Y-99276465D01*
X64613890Y-99426918D01*
X64555205Y-99594629D01*
X64540553Y-99724676D01*
X64535311Y-99771200D01*
X52548526Y-99771200D01*
X52571140Y-99706572D01*
X52589773Y-99541200D01*
X52571140Y-99375828D01*
X52563989Y-99355391D01*
X52560077Y-99285738D01*
X52593823Y-99224680D01*
X52654881Y-99190935D01*
X52724531Y-99194846D01*
X52807832Y-99223995D01*
X52984400Y-99243889D01*
X53160968Y-99223995D01*
X53328682Y-99165309D01*
X53479132Y-99070775D01*
X53604775Y-98945132D01*
X53699309Y-98794682D01*
X53757995Y-98626968D01*
X53777889Y-98450400D01*
X53757995Y-98273832D01*
X53747398Y-98243549D01*
X53699309Y-98106118D01*
X53672412Y-98063311D01*
X53604775Y-97955668D01*
X53604774Y-97955667D01*
X53604773Y-97955665D01*
X53479134Y-97830026D01*
X53328681Y-97735490D01*
X53160970Y-97676805D01*
X52984400Y-97656911D01*
X52807829Y-97676805D01*
X52717196Y-97708520D01*
X52647543Y-97712432D01*
X52586485Y-97678686D01*
X52552740Y-97617628D01*
X52556651Y-97547976D01*
X52571140Y-97506572D01*
X52589773Y-97341200D01*
X52571140Y-97175828D01*
X52557748Y-97137557D01*
X52516176Y-97018749D01*
X52427635Y-96877837D01*
X52309962Y-96760164D01*
X52169050Y-96671623D01*
X52011974Y-96616660D01*
X51846600Y-96598027D01*
X51681225Y-96616660D01*
X51524149Y-96671623D01*
X51383237Y-96760164D01*
X51265564Y-96877837D01*
X51177023Y-97018749D01*
X51122060Y-97175825D01*
X51103427Y-97341200D01*
X51122060Y-97506574D01*
X51177023Y-97663650D01*
X51265564Y-97804562D01*
X51383237Y-97922235D01*
X51524149Y-98010776D01*
X51636705Y-98050161D01*
X51681228Y-98065740D01*
X51846600Y-98084373D01*
X52011972Y-98065740D01*
X52074565Y-98043837D01*
X52144213Y-98039926D01*
X52205272Y-98073671D01*
X52239018Y-98134729D01*
X52235107Y-98204381D01*
X52216755Y-98256830D01*
X52210805Y-98273833D01*
X52190911Y-98450399D01*
X52210805Y-98626970D01*
X52227769Y-98675449D01*
X52231681Y-98745101D01*
X52197936Y-98806159D01*
X52136878Y-98839905D01*
X52067226Y-98835994D01*
X52011972Y-98816660D01*
X51918773Y-98806159D01*
X51846600Y-98798027D01*
X51846599Y-98798027D01*
X51681225Y-98816660D01*
X51524149Y-98871623D01*
X51383237Y-98960164D01*
X51265564Y-99077837D01*
X51177023Y-99218749D01*
X51122060Y-99375825D01*
X51103427Y-99541200D01*
X50033029Y-99541200D01*
X50033221Y-96113600D01*
X62706511Y-96113600D01*
X62726405Y-96290170D01*
X62785090Y-96457881D01*
X62879626Y-96608334D01*
X63005265Y-96733973D01*
X63005267Y-96733974D01*
X63005268Y-96733975D01*
X63046948Y-96760164D01*
X63155718Y-96828509D01*
X63296688Y-96877837D01*
X63323432Y-96887195D01*
X63500000Y-96907089D01*
X63676568Y-96887195D01*
X63844282Y-96828509D01*
X63994732Y-96733975D01*
X64120375Y-96608332D01*
X64214909Y-96457882D01*
X64273595Y-96290168D01*
X64293489Y-96113600D01*
X64273595Y-95937032D01*
X64214909Y-95769318D01*
X64120375Y-95618868D01*
X64120374Y-95618867D01*
X64120373Y-95618865D01*
X63994734Y-95493226D01*
X63844281Y-95398690D01*
X63676570Y-95340005D01*
X63500000Y-95320111D01*
X63323429Y-95340005D01*
X63155718Y-95398690D01*
X63005265Y-95493226D01*
X62879626Y-95618865D01*
X62785090Y-95769318D01*
X62726405Y-95937029D01*
X62706511Y-96113600D01*
X50033221Y-96113600D01*
X50033286Y-94948300D01*
X51530511Y-94948300D01*
X51533513Y-94974944D01*
X51550405Y-95124870D01*
X51609090Y-95292581D01*
X51703626Y-95443034D01*
X51829265Y-95568673D01*
X51829267Y-95568674D01*
X51829268Y-95568675D01*
X51865740Y-95591592D01*
X51979718Y-95663209D01*
X52094999Y-95703548D01*
X52147432Y-95721895D01*
X52324000Y-95741789D01*
X52500568Y-95721895D01*
X52668282Y-95663209D01*
X52818732Y-95568675D01*
X52944375Y-95443032D01*
X53038909Y-95292582D01*
X53053809Y-95250000D01*
X74847227Y-95250000D01*
X74865860Y-95415374D01*
X74920823Y-95572450D01*
X75009364Y-95713362D01*
X75127037Y-95831035D01*
X75267949Y-95919576D01*
X75373106Y-95956372D01*
X75425028Y-95974540D01*
X75590400Y-95993173D01*
X75755772Y-95974540D01*
X75912851Y-95919576D01*
X76053761Y-95831036D01*
X76171436Y-95713361D01*
X76259976Y-95572451D01*
X76314940Y-95415372D01*
X76333573Y-95250000D01*
X76314940Y-95084628D01*
X76314443Y-95083209D01*
X76259976Y-94927549D01*
X76175307Y-94792799D01*
X80384427Y-94792799D01*
X80403060Y-94958174D01*
X80458023Y-95115250D01*
X80546564Y-95256162D01*
X80664237Y-95373835D01*
X80805149Y-95462376D01*
X80962228Y-95517340D01*
X81127600Y-95535973D01*
X81292972Y-95517340D01*
X81450051Y-95462376D01*
X81590961Y-95373836D01*
X81708636Y-95256161D01*
X81797176Y-95115251D01*
X81852140Y-94958172D01*
X81870773Y-94792800D01*
X81852140Y-94627428D01*
X81797176Y-94470349D01*
X81744427Y-94386400D01*
X81708635Y-94329437D01*
X81590962Y-94211764D01*
X81450050Y-94123223D01*
X81292974Y-94068260D01*
X81127600Y-94049627D01*
X80962225Y-94068260D01*
X80805149Y-94123223D01*
X80664237Y-94211764D01*
X80546564Y-94329437D01*
X80458023Y-94470349D01*
X80403060Y-94627425D01*
X80384427Y-94792799D01*
X76175307Y-94792799D01*
X76171435Y-94786637D01*
X76053762Y-94668964D01*
X75912850Y-94580423D01*
X75755774Y-94525460D01*
X75590400Y-94506827D01*
X75425025Y-94525460D01*
X75267949Y-94580423D01*
X75127037Y-94668964D01*
X75009364Y-94786637D01*
X74920823Y-94927549D01*
X74865860Y-95084625D01*
X74847227Y-95250000D01*
X53053809Y-95250000D01*
X53097595Y-95124868D01*
X53117489Y-94948300D01*
X53097595Y-94771732D01*
X53093947Y-94761308D01*
X53038909Y-94604018D01*
X52965354Y-94486956D01*
X52944375Y-94453568D01*
X52944374Y-94453567D01*
X52944373Y-94453565D01*
X52877208Y-94386400D01*
X65703711Y-94386400D01*
X65723605Y-94562970D01*
X65782290Y-94730681D01*
X65876826Y-94881134D01*
X66002465Y-95006773D01*
X66002467Y-95006774D01*
X66002468Y-95006775D01*
X66080771Y-95055976D01*
X66152918Y-95101309D01*
X66318288Y-95159175D01*
X66320632Y-95159995D01*
X66497200Y-95179889D01*
X66673768Y-95159995D01*
X66841482Y-95101309D01*
X66991932Y-95006775D01*
X67117575Y-94881132D01*
X67212109Y-94730682D01*
X67270795Y-94562968D01*
X67290689Y-94386400D01*
X67270795Y-94209832D01*
X67258503Y-94174705D01*
X67212109Y-94042118D01*
X67134388Y-93918426D01*
X67117575Y-93891668D01*
X67117574Y-93891667D01*
X67117573Y-93891665D01*
X66991934Y-93766026D01*
X66841481Y-93671490D01*
X66673770Y-93612805D01*
X66497200Y-93592911D01*
X66320629Y-93612805D01*
X66152918Y-93671490D01*
X66002465Y-93766026D01*
X65876826Y-93891665D01*
X65782290Y-94042118D01*
X65723605Y-94209829D01*
X65703711Y-94386400D01*
X52877208Y-94386400D01*
X52818734Y-94327926D01*
X52668281Y-94233390D01*
X52500570Y-94174705D01*
X52324000Y-94154811D01*
X52147429Y-94174705D01*
X51979718Y-94233390D01*
X51829265Y-94327926D01*
X51703626Y-94453565D01*
X51609090Y-94604018D01*
X51550405Y-94771729D01*
X51535593Y-94903195D01*
X51530511Y-94948300D01*
X50033286Y-94948300D01*
X50033380Y-93257261D01*
X68102849Y-93257261D01*
X68122743Y-93433832D01*
X68181428Y-93601543D01*
X68275964Y-93751996D01*
X68401603Y-93877635D01*
X68401605Y-93877636D01*
X68401606Y-93877637D01*
X68552056Y-93972171D01*
X68719770Y-94030857D01*
X68896338Y-94050751D01*
X69072906Y-94030857D01*
X69240620Y-93972171D01*
X69391070Y-93877637D01*
X69516713Y-93751994D01*
X69611247Y-93601544D01*
X69669933Y-93433830D01*
X69689827Y-93257262D01*
X69669933Y-93080694D01*
X69611247Y-92912980D01*
X69599824Y-92894800D01*
X70758427Y-92894800D01*
X70777060Y-93060174D01*
X70832023Y-93217250D01*
X70920564Y-93358162D01*
X71038237Y-93475835D01*
X71116465Y-93524989D01*
X71179149Y-93564376D01*
X71336228Y-93619340D01*
X71501600Y-93637973D01*
X71666972Y-93619340D01*
X71824051Y-93564376D01*
X71964961Y-93475836D01*
X72082636Y-93358161D01*
X72171176Y-93217251D01*
X72226140Y-93060172D01*
X72244773Y-92894800D01*
X72758427Y-92894800D01*
X72777060Y-93060174D01*
X72832023Y-93217250D01*
X72920564Y-93358162D01*
X73038237Y-93475835D01*
X73116465Y-93524989D01*
X73179149Y-93564376D01*
X73336228Y-93619340D01*
X73501600Y-93637973D01*
X73666972Y-93619340D01*
X73824051Y-93564376D01*
X73964961Y-93475836D01*
X74082636Y-93358161D01*
X74171176Y-93217251D01*
X74226140Y-93060172D01*
X74244773Y-92894800D01*
X74758427Y-92894800D01*
X74777060Y-93060174D01*
X74832023Y-93217250D01*
X74920564Y-93358162D01*
X75038237Y-93475835D01*
X75116465Y-93524989D01*
X75179149Y-93564376D01*
X75336228Y-93619340D01*
X75501600Y-93637973D01*
X75666972Y-93619340D01*
X75824051Y-93564376D01*
X75964961Y-93475836D01*
X76082636Y-93358161D01*
X76171176Y-93217251D01*
X76226140Y-93060172D01*
X76244773Y-92894800D01*
X76758427Y-92894800D01*
X76777060Y-93060174D01*
X76832023Y-93217250D01*
X76920564Y-93358162D01*
X77038237Y-93475835D01*
X77116465Y-93524989D01*
X77179149Y-93564376D01*
X77336228Y-93619340D01*
X77501600Y-93637973D01*
X77666972Y-93619340D01*
X77824051Y-93564376D01*
X77964961Y-93475836D01*
X78082636Y-93358161D01*
X78171176Y-93217251D01*
X78226140Y-93060172D01*
X78244773Y-92894800D01*
X78758427Y-92894800D01*
X78777060Y-93060174D01*
X78832023Y-93217250D01*
X78920564Y-93358162D01*
X79038237Y-93475835D01*
X79116465Y-93524989D01*
X79179149Y-93564376D01*
X79336228Y-93619340D01*
X79501600Y-93637973D01*
X79666972Y-93619340D01*
X79824051Y-93564376D01*
X79964961Y-93475836D01*
X80082636Y-93358161D01*
X80171176Y-93217251D01*
X80226140Y-93060172D01*
X80244773Y-92894800D01*
X80758427Y-92894800D01*
X80777060Y-93060174D01*
X80832023Y-93217250D01*
X80920564Y-93358162D01*
X81038237Y-93475835D01*
X81116465Y-93524989D01*
X81179149Y-93564376D01*
X81336228Y-93619340D01*
X81501600Y-93637973D01*
X81666972Y-93619340D01*
X81824051Y-93564376D01*
X81964961Y-93475836D01*
X82082636Y-93358161D01*
X82171176Y-93217251D01*
X82226140Y-93060172D01*
X82244773Y-92894800D01*
X82226140Y-92729428D01*
X82171176Y-92572349D01*
X82115453Y-92483667D01*
X82082635Y-92431437D01*
X81964962Y-92313764D01*
X81824050Y-92225223D01*
X81666974Y-92170260D01*
X81501600Y-92151627D01*
X81336225Y-92170260D01*
X81179149Y-92225223D01*
X81038237Y-92313764D01*
X80920564Y-92431437D01*
X80832023Y-92572349D01*
X80777060Y-92729425D01*
X80758427Y-92894800D01*
X80244773Y-92894800D01*
X80226140Y-92729428D01*
X80171176Y-92572349D01*
X80115453Y-92483667D01*
X80082635Y-92431437D01*
X79964962Y-92313764D01*
X79824050Y-92225223D01*
X79666974Y-92170260D01*
X79501600Y-92151627D01*
X79336225Y-92170260D01*
X79179149Y-92225223D01*
X79038237Y-92313764D01*
X78920564Y-92431437D01*
X78832023Y-92572349D01*
X78777060Y-92729425D01*
X78758427Y-92894800D01*
X78244773Y-92894800D01*
X78226140Y-92729428D01*
X78171176Y-92572349D01*
X78115453Y-92483667D01*
X78082635Y-92431437D01*
X77964962Y-92313764D01*
X77824050Y-92225223D01*
X77666974Y-92170260D01*
X77501600Y-92151627D01*
X77336225Y-92170260D01*
X77179149Y-92225223D01*
X77038237Y-92313764D01*
X76920564Y-92431437D01*
X76832023Y-92572349D01*
X76777060Y-92729425D01*
X76758427Y-92894800D01*
X76244773Y-92894800D01*
X76226140Y-92729428D01*
X76171176Y-92572349D01*
X76115453Y-92483667D01*
X76082635Y-92431437D01*
X75964962Y-92313764D01*
X75824050Y-92225223D01*
X75666974Y-92170260D01*
X75501600Y-92151627D01*
X75336225Y-92170260D01*
X75179149Y-92225223D01*
X75038237Y-92313764D01*
X74920564Y-92431437D01*
X74832023Y-92572349D01*
X74777060Y-92729425D01*
X74758427Y-92894800D01*
X74244773Y-92894800D01*
X74226140Y-92729428D01*
X74171176Y-92572349D01*
X74115453Y-92483667D01*
X74082635Y-92431437D01*
X73964962Y-92313764D01*
X73824050Y-92225223D01*
X73666974Y-92170260D01*
X73501600Y-92151627D01*
X73336225Y-92170260D01*
X73179149Y-92225223D01*
X73038237Y-92313764D01*
X72920564Y-92431437D01*
X72832023Y-92572349D01*
X72777060Y-92729425D01*
X72758427Y-92894800D01*
X72244773Y-92894800D01*
X72226140Y-92729428D01*
X72171176Y-92572349D01*
X72115453Y-92483667D01*
X72082635Y-92431437D01*
X71964962Y-92313764D01*
X71824050Y-92225223D01*
X71666974Y-92170260D01*
X71501600Y-92151627D01*
X71336225Y-92170260D01*
X71179149Y-92225223D01*
X71038237Y-92313764D01*
X70920564Y-92431437D01*
X70832023Y-92572349D01*
X70777060Y-92729425D01*
X70758427Y-92894800D01*
X69599824Y-92894800D01*
X69516713Y-92762530D01*
X69516712Y-92762529D01*
X69516711Y-92762527D01*
X69391072Y-92636888D01*
X69240619Y-92542352D01*
X69072908Y-92483667D01*
X68896338Y-92463773D01*
X68719767Y-92483667D01*
X68552056Y-92542352D01*
X68401603Y-92636888D01*
X68275964Y-92762527D01*
X68181428Y-92912980D01*
X68122743Y-93080691D01*
X68102849Y-93257261D01*
X50033380Y-93257261D01*
X50033445Y-92100399D01*
X54273711Y-92100399D01*
X54293605Y-92276970D01*
X54352290Y-92444681D01*
X54446826Y-92595134D01*
X54572465Y-92720773D01*
X54572467Y-92720774D01*
X54572468Y-92720775D01*
X54586239Y-92729428D01*
X54722918Y-92815309D01*
X54857495Y-92862400D01*
X54890632Y-92873995D01*
X55067200Y-92893889D01*
X55243768Y-92873995D01*
X55411482Y-92815309D01*
X55561932Y-92720775D01*
X55687575Y-92595132D01*
X55782109Y-92444682D01*
X55840795Y-92276968D01*
X55860689Y-92100400D01*
X55840795Y-91923832D01*
X55782109Y-91756118D01*
X55687575Y-91605668D01*
X55687574Y-91605667D01*
X55687573Y-91605665D01*
X55561934Y-91480026D01*
X55411481Y-91385490D01*
X55243770Y-91326805D01*
X55067200Y-91306911D01*
X54890629Y-91326805D01*
X54722918Y-91385490D01*
X54572465Y-91480026D01*
X54446826Y-91605665D01*
X54352290Y-91756118D01*
X54293605Y-91923829D01*
X54273711Y-92100399D01*
X50033445Y-92100399D01*
X50033573Y-89814400D01*
X54273711Y-89814400D01*
X54293605Y-89990970D01*
X54352290Y-90158681D01*
X54446826Y-90309134D01*
X54572465Y-90434773D01*
X54722918Y-90529309D01*
X54818260Y-90562671D01*
X54890632Y-90587995D01*
X55067200Y-90607889D01*
X55243768Y-90587995D01*
X55411482Y-90529309D01*
X55476173Y-90488661D01*
X65334249Y-90488661D01*
X65354143Y-90665232D01*
X65412828Y-90832943D01*
X65507364Y-90983396D01*
X65633003Y-91109035D01*
X65633005Y-91109036D01*
X65633006Y-91109037D01*
X65783456Y-91203571D01*
X65951170Y-91262257D01*
X66127738Y-91282151D01*
X66304306Y-91262257D01*
X66472020Y-91203571D01*
X66622470Y-91109037D01*
X66748113Y-90983394D01*
X66842647Y-90832944D01*
X66901333Y-90665230D01*
X66921227Y-90488662D01*
X66901333Y-90312094D01*
X66867787Y-90216227D01*
X66842647Y-90144380D01*
X66842646Y-90144379D01*
X66748113Y-89993930D01*
X66748112Y-89993929D01*
X66748111Y-89993927D01*
X66622472Y-89868288D01*
X66472019Y-89773752D01*
X66304308Y-89715067D01*
X66127738Y-89695173D01*
X65951167Y-89715067D01*
X65783456Y-89773752D01*
X65633003Y-89868288D01*
X65507364Y-89993927D01*
X65412828Y-90144380D01*
X65354143Y-90312091D01*
X65334249Y-90488661D01*
X55476173Y-90488661D01*
X55561932Y-90434775D01*
X55687575Y-90309132D01*
X55782109Y-90158682D01*
X55840795Y-89990968D01*
X55860689Y-89814400D01*
X55840795Y-89637832D01*
X55782109Y-89470118D01*
X55687575Y-89319668D01*
X55687574Y-89319667D01*
X55687573Y-89319665D01*
X55561934Y-89194026D01*
X55411481Y-89099490D01*
X55243770Y-89040805D01*
X55067200Y-89020911D01*
X54890629Y-89040805D01*
X54722918Y-89099490D01*
X54572465Y-89194026D01*
X54446826Y-89319665D01*
X54352290Y-89470118D01*
X54293605Y-89637829D01*
X54273711Y-89814400D01*
X50033573Y-89814400D01*
X50033858Y-84702192D01*
X50931800Y-84702192D01*
X50971366Y-84939297D01*
X50979479Y-84962929D01*
X51049416Y-85166652D01*
X51049417Y-85166655D01*
X51049418Y-85166656D01*
X51163828Y-85378067D01*
X51311475Y-85567764D01*
X51488331Y-85730571D01*
X51689572Y-85862049D01*
X51909709Y-85958610D01*
X52142737Y-86017620D01*
X52322310Y-86032500D01*
X52442285Y-86032500D01*
X52442290Y-86032500D01*
X52621863Y-86017620D01*
X52854891Y-85958610D01*
X53075028Y-85862049D01*
X53276269Y-85730571D01*
X53453125Y-85567764D01*
X53600772Y-85378067D01*
X53715182Y-85166656D01*
X53793234Y-84939297D01*
X53832800Y-84702192D01*
X53832800Y-84461808D01*
X53793234Y-84224703D01*
X53715182Y-83997344D01*
X53600772Y-83785933D01*
X53453125Y-83596236D01*
X53443247Y-83587143D01*
X53276272Y-83433432D01*
X53276269Y-83433429D01*
X53075028Y-83301951D01*
X53075025Y-83301949D01*
X53075024Y-83301949D01*
X52874768Y-83214109D01*
X52854891Y-83205390D01*
X52621863Y-83146380D01*
X52442290Y-83131500D01*
X52322310Y-83131500D01*
X52142737Y-83146380D01*
X51909709Y-83205390D01*
X51909705Y-83205391D01*
X51909704Y-83205392D01*
X51689575Y-83301949D01*
X51689571Y-83301951D01*
X51689572Y-83301951D01*
X51488331Y-83433429D01*
X51488329Y-83433430D01*
X51488327Y-83433432D01*
X51311478Y-83596232D01*
X51163829Y-83785931D01*
X51049416Y-83997347D01*
X50994718Y-84156681D01*
X50971366Y-84224703D01*
X50931800Y-84461808D01*
X50931800Y-84702192D01*
X50033858Y-84702192D01*
X50034126Y-79908400D01*
X51008444Y-79908400D01*
X51027036Y-80132768D01*
X51027036Y-80132771D01*
X51027037Y-80132772D01*
X51082302Y-80351011D01*
X51172739Y-80557190D01*
X51295876Y-80745665D01*
X51295878Y-80745668D01*
X51414661Y-80874700D01*
X51448362Y-80911308D01*
X51611520Y-81038300D01*
X51626024Y-81049589D01*
X51824026Y-81156742D01*
X52036965Y-81229844D01*
X52259031Y-81266900D01*
X52484166Y-81266900D01*
X52484169Y-81266900D01*
X52706235Y-81229844D01*
X52919174Y-81156742D01*
X53117176Y-81049589D01*
X53294840Y-80911306D01*
X53447322Y-80745668D01*
X53536118Y-80609754D01*
X53581630Y-80567857D01*
X53641600Y-80552671D01*
X53701570Y-80567857D01*
X53747081Y-80609754D01*
X53835878Y-80745668D01*
X53969080Y-80890362D01*
X53988362Y-80911308D01*
X54151520Y-81038300D01*
X54166024Y-81049589D01*
X54364026Y-81156742D01*
X54576965Y-81229844D01*
X54799031Y-81266900D01*
X55024166Y-81266900D01*
X55024169Y-81266900D01*
X55246235Y-81229844D01*
X55459174Y-81156742D01*
X55657176Y-81049589D01*
X55834840Y-80911306D01*
X55987322Y-80745668D01*
X56076118Y-80609754D01*
X56121630Y-80567857D01*
X56181600Y-80552671D01*
X56241570Y-80567857D01*
X56287081Y-80609754D01*
X56375878Y-80745668D01*
X56509080Y-80890362D01*
X56528362Y-80911308D01*
X56691520Y-81038300D01*
X56706024Y-81049589D01*
X56904026Y-81156742D01*
X57116965Y-81229844D01*
X57339031Y-81266900D01*
X57564166Y-81266900D01*
X57564169Y-81266900D01*
X57786235Y-81229844D01*
X57999174Y-81156742D01*
X58197176Y-81049589D01*
X58374840Y-80911306D01*
X58527322Y-80745668D01*
X58616118Y-80609754D01*
X58661630Y-80567857D01*
X58721600Y-80552671D01*
X58781570Y-80567857D01*
X58827081Y-80609754D01*
X58915878Y-80745668D01*
X59049080Y-80890362D01*
X59068362Y-80911308D01*
X59231520Y-81038300D01*
X59246024Y-81049589D01*
X59444026Y-81156742D01*
X59656965Y-81229844D01*
X59879031Y-81266900D01*
X60104166Y-81266900D01*
X60104169Y-81266900D01*
X60326235Y-81229844D01*
X60539174Y-81156742D01*
X60737176Y-81049589D01*
X60914840Y-80911306D01*
X61067322Y-80745668D01*
X61156118Y-80609754D01*
X61201630Y-80567857D01*
X61261600Y-80552671D01*
X61321570Y-80567857D01*
X61367081Y-80609754D01*
X61455878Y-80745668D01*
X61589080Y-80890362D01*
X61608362Y-80911308D01*
X61771520Y-81038300D01*
X61786024Y-81049589D01*
X61984026Y-81156742D01*
X62196965Y-81229844D01*
X62419031Y-81266900D01*
X62644166Y-81266900D01*
X62644169Y-81266900D01*
X62866235Y-81229844D01*
X63079174Y-81156742D01*
X63277176Y-81049589D01*
X63454840Y-80911306D01*
X63607322Y-80745668D01*
X63696118Y-80609754D01*
X63741630Y-80567857D01*
X63801600Y-80552671D01*
X63861570Y-80567857D01*
X63907081Y-80609754D01*
X63995878Y-80745668D01*
X64129080Y-80890362D01*
X64148362Y-80911308D01*
X64311520Y-81038300D01*
X64326024Y-81049589D01*
X64524026Y-81156742D01*
X64736965Y-81229844D01*
X64959031Y-81266900D01*
X65184166Y-81266900D01*
X65184169Y-81266900D01*
X65406235Y-81229844D01*
X65619174Y-81156742D01*
X65817176Y-81049589D01*
X65994840Y-80911306D01*
X66147322Y-80745668D01*
X66236118Y-80609754D01*
X66281630Y-80567857D01*
X66341600Y-80552671D01*
X66401570Y-80567857D01*
X66447081Y-80609754D01*
X66535878Y-80745668D01*
X66669080Y-80890362D01*
X66688362Y-80911308D01*
X66851520Y-81038300D01*
X66866024Y-81049589D01*
X67064026Y-81156742D01*
X67276965Y-81229844D01*
X67499031Y-81266900D01*
X67724166Y-81266900D01*
X67724169Y-81266900D01*
X67946235Y-81229844D01*
X68159174Y-81156742D01*
X68357176Y-81049589D01*
X68534840Y-80911306D01*
X68687322Y-80745668D01*
X68776118Y-80609754D01*
X68821631Y-80567858D01*
X68881600Y-80552672D01*
X68941569Y-80567858D01*
X68987081Y-80609754D01*
X69075878Y-80745668D01*
X69194661Y-80874700D01*
X69228362Y-80911308D01*
X69391520Y-81038300D01*
X69406024Y-81049589D01*
X69604026Y-81156742D01*
X69816965Y-81229844D01*
X70039031Y-81266900D01*
X70264166Y-81266900D01*
X70264169Y-81266900D01*
X70486235Y-81229844D01*
X70699174Y-81156742D01*
X70897176Y-81049589D01*
X71074840Y-80911306D01*
X71227322Y-80745668D01*
X71316118Y-80609754D01*
X71361631Y-80567858D01*
X71421600Y-80552672D01*
X71481569Y-80567858D01*
X71527081Y-80609754D01*
X71615878Y-80745668D01*
X71734661Y-80874700D01*
X71768362Y-80911308D01*
X71931520Y-81038300D01*
X71946024Y-81049589D01*
X72144026Y-81156742D01*
X72356965Y-81229844D01*
X72579031Y-81266900D01*
X72804166Y-81266900D01*
X72804169Y-81266900D01*
X73026235Y-81229844D01*
X73239174Y-81156742D01*
X73437176Y-81049589D01*
X73614840Y-80911306D01*
X73767322Y-80745668D01*
X73856118Y-80609754D01*
X73901631Y-80567858D01*
X73961600Y-80552672D01*
X74021569Y-80567858D01*
X74067081Y-80609754D01*
X74155878Y-80745668D01*
X74274661Y-80874700D01*
X74308362Y-80911308D01*
X74471520Y-81038300D01*
X74486024Y-81049589D01*
X74684026Y-81156742D01*
X74896965Y-81229844D01*
X75119031Y-81266900D01*
X75344166Y-81266900D01*
X75344169Y-81266900D01*
X75566235Y-81229844D01*
X75779174Y-81156742D01*
X75977176Y-81049589D01*
X76154840Y-80911306D01*
X76215846Y-80845035D01*
X76269316Y-80810638D01*
X76332777Y-80806727D01*
X76390069Y-80834303D01*
X76426600Y-80886342D01*
X76470709Y-81004603D01*
X76558338Y-81121661D01*
X76675394Y-81209288D01*
X76675395Y-81209288D01*
X76675396Y-81209289D01*
X76812399Y-81260389D01*
X76872962Y-81266900D01*
X78670238Y-81266900D01*
X78730801Y-81260389D01*
X78867804Y-81209289D01*
X78984861Y-81121661D01*
X79072489Y-81004604D01*
X79123589Y-80867601D01*
X79130100Y-80807038D01*
X79130100Y-79009762D01*
X79123589Y-78949199D01*
X79072489Y-78812196D01*
X79072488Y-78812194D01*
X78984861Y-78695138D01*
X78867805Y-78607511D01*
X78799302Y-78581961D01*
X78730801Y-78556411D01*
X78670238Y-78549900D01*
X76872962Y-78549900D01*
X76812399Y-78556411D01*
X76675394Y-78607511D01*
X76558338Y-78695138D01*
X76470709Y-78812196D01*
X76426600Y-78930457D01*
X76390069Y-78982496D01*
X76332778Y-79010072D01*
X76269316Y-79006162D01*
X76215845Y-78971762D01*
X76154840Y-78905494D01*
X76154839Y-78905493D01*
X76154837Y-78905491D01*
X75977178Y-78767212D01*
X75779173Y-78660057D01*
X75594761Y-78596749D01*
X75566235Y-78586956D01*
X75344169Y-78549900D01*
X75119031Y-78549900D01*
X74896965Y-78586956D01*
X74896962Y-78586956D01*
X74896962Y-78586957D01*
X74684026Y-78660057D01*
X74486021Y-78767212D01*
X74308362Y-78905491D01*
X74155878Y-79071131D01*
X74067083Y-79207043D01*
X74021569Y-79248941D01*
X73961600Y-79264127D01*
X73901631Y-79248941D01*
X73856117Y-79207043D01*
X73790726Y-79106955D01*
X73767322Y-79071132D01*
X73614840Y-78905494D01*
X73614839Y-78905493D01*
X73614837Y-78905491D01*
X73437178Y-78767212D01*
X73239173Y-78660057D01*
X73054761Y-78596749D01*
X73026235Y-78586956D01*
X72804169Y-78549900D01*
X72579031Y-78549900D01*
X72356965Y-78586956D01*
X72356962Y-78586956D01*
X72356962Y-78586957D01*
X72144026Y-78660057D01*
X71946021Y-78767212D01*
X71768362Y-78905491D01*
X71615878Y-79071131D01*
X71527083Y-79207043D01*
X71481569Y-79248941D01*
X71421600Y-79264127D01*
X71361631Y-79248941D01*
X71316117Y-79207043D01*
X71250726Y-79106955D01*
X71227322Y-79071132D01*
X71074840Y-78905494D01*
X71074839Y-78905493D01*
X71074837Y-78905491D01*
X70897178Y-78767212D01*
X70699173Y-78660057D01*
X70514761Y-78596749D01*
X70486235Y-78586956D01*
X70264169Y-78549900D01*
X70039031Y-78549900D01*
X69816965Y-78586956D01*
X69816962Y-78586956D01*
X69816962Y-78586957D01*
X69604026Y-78660057D01*
X69406021Y-78767212D01*
X69228362Y-78905491D01*
X69075878Y-79071131D01*
X68987083Y-79207043D01*
X68941569Y-79248941D01*
X68881600Y-79264127D01*
X68821631Y-79248941D01*
X68776117Y-79207043D01*
X68710726Y-79106955D01*
X68687322Y-79071132D01*
X68534840Y-78905494D01*
X68534839Y-78905493D01*
X68534837Y-78905491D01*
X68357178Y-78767212D01*
X68159173Y-78660057D01*
X67974761Y-78596749D01*
X67946235Y-78586956D01*
X67724169Y-78549900D01*
X67499031Y-78549900D01*
X67276965Y-78586956D01*
X67276962Y-78586956D01*
X67276962Y-78586957D01*
X67064026Y-78660057D01*
X66866021Y-78767212D01*
X66688362Y-78905491D01*
X66535878Y-79071131D01*
X66447083Y-79207043D01*
X66401569Y-79248941D01*
X66341600Y-79264127D01*
X66281631Y-79248941D01*
X66236117Y-79207043D01*
X66170726Y-79106955D01*
X66147322Y-79071132D01*
X65994840Y-78905494D01*
X65994839Y-78905493D01*
X65994837Y-78905491D01*
X65817178Y-78767212D01*
X65619173Y-78660057D01*
X65434761Y-78596749D01*
X65406235Y-78586956D01*
X65184169Y-78549900D01*
X64959031Y-78549900D01*
X64736965Y-78586956D01*
X64736962Y-78586956D01*
X64736962Y-78586957D01*
X64524026Y-78660057D01*
X64326021Y-78767212D01*
X64148362Y-78905491D01*
X63995878Y-79071131D01*
X63907083Y-79207043D01*
X63861569Y-79248941D01*
X63801600Y-79264127D01*
X63741631Y-79248941D01*
X63696117Y-79207043D01*
X63630726Y-79106955D01*
X63607322Y-79071132D01*
X63454840Y-78905494D01*
X63454839Y-78905493D01*
X63454837Y-78905491D01*
X63277178Y-78767212D01*
X63079173Y-78660057D01*
X62894761Y-78596749D01*
X62866235Y-78586956D01*
X62644169Y-78549900D01*
X62419031Y-78549900D01*
X62196965Y-78586956D01*
X62196962Y-78586956D01*
X62196962Y-78586957D01*
X61984026Y-78660057D01*
X61786021Y-78767212D01*
X61608362Y-78905491D01*
X61455878Y-79071131D01*
X61367083Y-79207043D01*
X61321569Y-79248941D01*
X61261600Y-79264127D01*
X61201631Y-79248941D01*
X61156117Y-79207043D01*
X61090726Y-79106955D01*
X61067322Y-79071132D01*
X60914840Y-78905494D01*
X60914839Y-78905493D01*
X60914837Y-78905491D01*
X60737178Y-78767212D01*
X60539173Y-78660057D01*
X60354761Y-78596749D01*
X60326235Y-78586956D01*
X60104169Y-78549900D01*
X59879031Y-78549900D01*
X59656965Y-78586956D01*
X59656962Y-78586956D01*
X59656962Y-78586957D01*
X59444026Y-78660057D01*
X59246021Y-78767212D01*
X59068362Y-78905491D01*
X58915878Y-79071131D01*
X58827083Y-79207043D01*
X58781569Y-79248941D01*
X58721600Y-79264127D01*
X58661631Y-79248941D01*
X58616117Y-79207043D01*
X58550726Y-79106955D01*
X58527322Y-79071132D01*
X58374840Y-78905494D01*
X58374839Y-78905493D01*
X58374837Y-78905491D01*
X58197178Y-78767212D01*
X57999173Y-78660057D01*
X57814761Y-78596749D01*
X57786235Y-78586956D01*
X57564169Y-78549900D01*
X57339031Y-78549900D01*
X57116965Y-78586956D01*
X57116962Y-78586956D01*
X57116962Y-78586957D01*
X56904026Y-78660057D01*
X56706021Y-78767212D01*
X56528362Y-78905491D01*
X56375878Y-79071131D01*
X56287083Y-79207043D01*
X56241569Y-79248941D01*
X56181600Y-79264127D01*
X56121631Y-79248941D01*
X56076117Y-79207043D01*
X56010726Y-79106955D01*
X55987322Y-79071132D01*
X55834840Y-78905494D01*
X55834839Y-78905493D01*
X55834837Y-78905491D01*
X55657178Y-78767212D01*
X55459173Y-78660057D01*
X55274761Y-78596749D01*
X55246235Y-78586956D01*
X55024169Y-78549900D01*
X54799031Y-78549900D01*
X54576965Y-78586956D01*
X54576962Y-78586956D01*
X54576962Y-78586957D01*
X54364026Y-78660057D01*
X54166021Y-78767212D01*
X53988362Y-78905491D01*
X53835878Y-79071131D01*
X53747083Y-79207043D01*
X53701569Y-79248941D01*
X53641600Y-79264127D01*
X53581631Y-79248941D01*
X53536117Y-79207043D01*
X53470726Y-79106955D01*
X53447322Y-79071132D01*
X53294840Y-78905494D01*
X53294839Y-78905493D01*
X53294837Y-78905491D01*
X53117178Y-78767212D01*
X52919173Y-78660057D01*
X52734761Y-78596749D01*
X52706235Y-78586956D01*
X52484169Y-78549900D01*
X52259031Y-78549900D01*
X52036965Y-78586956D01*
X52036962Y-78586956D01*
X52036962Y-78586957D01*
X51824026Y-78660057D01*
X51626021Y-78767212D01*
X51448362Y-78905491D01*
X51295878Y-79071131D01*
X51172739Y-79259609D01*
X51082302Y-79465788D01*
X51027037Y-79684027D01*
X51027036Y-79684032D01*
X51008444Y-79908400D01*
X50034126Y-79908400D01*
X50034541Y-72491599D01*
X53206911Y-72491599D01*
X53226805Y-72668170D01*
X53285490Y-72835881D01*
X53380026Y-72986334D01*
X53505665Y-73111973D01*
X53505667Y-73111974D01*
X53505668Y-73111975D01*
X53656118Y-73206509D01*
X53823832Y-73265195D01*
X54000400Y-73285089D01*
X54176968Y-73265195D01*
X54344682Y-73206509D01*
X54495132Y-73111975D01*
X54620775Y-72986332D01*
X54715309Y-72835882D01*
X54773995Y-72668168D01*
X54793889Y-72491600D01*
X54773995Y-72315032D01*
X54715309Y-72147318D01*
X54620775Y-71996868D01*
X54620774Y-71996867D01*
X54620773Y-71996865D01*
X54495134Y-71871226D01*
X54344681Y-71776690D01*
X54176970Y-71718005D01*
X54000400Y-71698111D01*
X53823829Y-71718005D01*
X53656118Y-71776690D01*
X53505665Y-71871226D01*
X53380026Y-71996865D01*
X53285490Y-72147318D01*
X53226805Y-72315029D01*
X53206911Y-72491599D01*
X50034541Y-72491599D01*
X50034596Y-71509300D01*
X58936444Y-71509300D01*
X58955036Y-71733668D01*
X58955036Y-71733671D01*
X58955037Y-71733672D01*
X59010302Y-71951911D01*
X59100739Y-72158090D01*
X59203344Y-72315138D01*
X59223878Y-72346568D01*
X59299951Y-72429205D01*
X59376362Y-72512208D01*
X59554021Y-72650487D01*
X59554024Y-72650489D01*
X59752026Y-72757642D01*
X59964965Y-72830744D01*
X60187031Y-72867800D01*
X60412166Y-72867800D01*
X60412169Y-72867800D01*
X60634235Y-72830744D01*
X60847174Y-72757642D01*
X61045176Y-72650489D01*
X61222840Y-72512206D01*
X61375322Y-72346568D01*
X61464118Y-72210654D01*
X61509631Y-72168758D01*
X61569600Y-72153572D01*
X61629569Y-72168758D01*
X61675081Y-72210654D01*
X61763878Y-72346568D01*
X61839951Y-72429205D01*
X61916362Y-72512208D01*
X62094021Y-72650487D01*
X62094024Y-72650489D01*
X62292026Y-72757642D01*
X62504965Y-72830744D01*
X62727031Y-72867800D01*
X62952166Y-72867800D01*
X62952169Y-72867800D01*
X63174235Y-72830744D01*
X63387174Y-72757642D01*
X63585176Y-72650489D01*
X63762840Y-72512206D01*
X63915322Y-72346568D01*
X64004118Y-72210654D01*
X64049631Y-72168758D01*
X64109600Y-72153572D01*
X64169569Y-72168758D01*
X64215081Y-72210654D01*
X64303878Y-72346568D01*
X64379951Y-72429205D01*
X64456362Y-72512208D01*
X64634021Y-72650487D01*
X64634024Y-72650489D01*
X64832026Y-72757642D01*
X65044965Y-72830744D01*
X65267031Y-72867800D01*
X65492166Y-72867800D01*
X65492169Y-72867800D01*
X65714235Y-72830744D01*
X65927174Y-72757642D01*
X66125176Y-72650489D01*
X66302840Y-72512206D01*
X66455322Y-72346568D01*
X66544118Y-72210654D01*
X66589631Y-72168758D01*
X66649600Y-72153572D01*
X66709569Y-72168758D01*
X66755081Y-72210654D01*
X66843878Y-72346568D01*
X66919951Y-72429205D01*
X66996362Y-72512208D01*
X67174021Y-72650487D01*
X67174024Y-72650489D01*
X67372026Y-72757642D01*
X67584965Y-72830744D01*
X67807031Y-72867800D01*
X68032166Y-72867800D01*
X68032169Y-72867800D01*
X68254235Y-72830744D01*
X68467174Y-72757642D01*
X68665176Y-72650489D01*
X68842840Y-72512206D01*
X68995322Y-72346568D01*
X69084118Y-72210654D01*
X69129631Y-72168758D01*
X69189600Y-72153572D01*
X69249569Y-72168758D01*
X69295081Y-72210654D01*
X69383878Y-72346568D01*
X69459951Y-72429205D01*
X69536362Y-72512208D01*
X69714021Y-72650487D01*
X69714024Y-72650489D01*
X69912026Y-72757642D01*
X70124965Y-72830744D01*
X70347031Y-72867800D01*
X70572166Y-72867800D01*
X70572169Y-72867800D01*
X70794235Y-72830744D01*
X71007174Y-72757642D01*
X71205176Y-72650489D01*
X71382840Y-72512206D01*
X71535322Y-72346568D01*
X71624118Y-72210654D01*
X71669631Y-72168758D01*
X71729600Y-72153572D01*
X71789569Y-72168758D01*
X71835081Y-72210654D01*
X71923878Y-72346568D01*
X71999951Y-72429205D01*
X72076362Y-72512208D01*
X72254021Y-72650487D01*
X72254024Y-72650489D01*
X72452026Y-72757642D01*
X72664965Y-72830744D01*
X72887031Y-72867800D01*
X73112166Y-72867800D01*
X73112169Y-72867800D01*
X73334235Y-72830744D01*
X73547174Y-72757642D01*
X73745176Y-72650489D01*
X73922840Y-72512206D01*
X74075322Y-72346568D01*
X74164118Y-72210654D01*
X74209631Y-72168758D01*
X74269600Y-72153572D01*
X74329569Y-72168758D01*
X74375081Y-72210654D01*
X74463878Y-72346568D01*
X74539951Y-72429205D01*
X74616362Y-72512208D01*
X74794021Y-72650487D01*
X74794024Y-72650489D01*
X74992026Y-72757642D01*
X75204965Y-72830744D01*
X75427031Y-72867800D01*
X75652166Y-72867800D01*
X75652169Y-72867800D01*
X75874235Y-72830744D01*
X76087174Y-72757642D01*
X76285176Y-72650489D01*
X76462840Y-72512206D01*
X76615322Y-72346568D01*
X76704118Y-72210654D01*
X76749631Y-72168758D01*
X76809600Y-72153572D01*
X76869569Y-72168758D01*
X76915081Y-72210654D01*
X77003878Y-72346568D01*
X77079951Y-72429205D01*
X77156362Y-72512208D01*
X77334021Y-72650487D01*
X77334024Y-72650489D01*
X77532026Y-72757642D01*
X77744965Y-72830744D01*
X77967031Y-72867800D01*
X78192166Y-72867800D01*
X78192169Y-72867800D01*
X78414235Y-72830744D01*
X78627174Y-72757642D01*
X78825176Y-72650489D01*
X79002840Y-72512206D01*
X79155322Y-72346568D01*
X79244118Y-72210654D01*
X79289631Y-72168758D01*
X79349600Y-72153572D01*
X79409569Y-72168758D01*
X79455081Y-72210654D01*
X79543878Y-72346568D01*
X79619951Y-72429205D01*
X79696362Y-72512208D01*
X79874021Y-72650487D01*
X79874024Y-72650489D01*
X80072026Y-72757642D01*
X80284965Y-72830744D01*
X80507031Y-72867800D01*
X80732166Y-72867800D01*
X80732169Y-72867800D01*
X80954235Y-72830744D01*
X81167174Y-72757642D01*
X81365176Y-72650489D01*
X81542840Y-72512206D01*
X81695322Y-72346568D01*
X81784118Y-72210654D01*
X81829631Y-72168758D01*
X81889600Y-72153572D01*
X81949569Y-72168758D01*
X81995081Y-72210654D01*
X82083878Y-72346568D01*
X82159951Y-72429205D01*
X82236362Y-72512208D01*
X82414021Y-72650487D01*
X82414024Y-72650489D01*
X82612026Y-72757642D01*
X82824965Y-72830744D01*
X83047031Y-72867800D01*
X83272166Y-72867800D01*
X83272169Y-72867800D01*
X83494235Y-72830744D01*
X83707174Y-72757642D01*
X83905176Y-72650489D01*
X84082840Y-72512206D01*
X84235322Y-72346568D01*
X84324118Y-72210654D01*
X84369631Y-72168758D01*
X84429600Y-72153572D01*
X84489569Y-72168758D01*
X84535081Y-72210654D01*
X84623878Y-72346568D01*
X84699951Y-72429205D01*
X84776362Y-72512208D01*
X84954021Y-72650487D01*
X84954024Y-72650489D01*
X85152026Y-72757642D01*
X85364965Y-72830744D01*
X85587031Y-72867800D01*
X85812166Y-72867800D01*
X85812169Y-72867800D01*
X86034235Y-72830744D01*
X86247174Y-72757642D01*
X86445176Y-72650489D01*
X86622840Y-72512206D01*
X86775322Y-72346568D01*
X86864118Y-72210654D01*
X86909631Y-72168758D01*
X86969600Y-72153572D01*
X87029569Y-72168758D01*
X87075081Y-72210654D01*
X87163878Y-72346568D01*
X87239951Y-72429205D01*
X87316362Y-72512208D01*
X87494021Y-72650487D01*
X87494024Y-72650489D01*
X87692026Y-72757642D01*
X87904965Y-72830744D01*
X88127031Y-72867800D01*
X88352166Y-72867800D01*
X88352169Y-72867800D01*
X88574235Y-72830744D01*
X88787174Y-72757642D01*
X88985176Y-72650489D01*
X89162840Y-72512206D01*
X89315322Y-72346568D01*
X89404118Y-72210654D01*
X89449631Y-72168758D01*
X89509600Y-72153572D01*
X89569569Y-72168758D01*
X89615081Y-72210654D01*
X89703878Y-72346568D01*
X89779951Y-72429205D01*
X89856362Y-72512208D01*
X90034021Y-72650487D01*
X90034024Y-72650489D01*
X90232026Y-72757642D01*
X90444965Y-72830744D01*
X90667031Y-72867800D01*
X90892166Y-72867800D01*
X90892169Y-72867800D01*
X91114235Y-72830744D01*
X91327174Y-72757642D01*
X91525176Y-72650489D01*
X91702840Y-72512206D01*
X91855322Y-72346568D01*
X91944118Y-72210654D01*
X91989631Y-72168758D01*
X92049600Y-72153572D01*
X92109569Y-72168758D01*
X92155081Y-72210654D01*
X92243878Y-72346568D01*
X92319951Y-72429205D01*
X92396362Y-72512208D01*
X92574021Y-72650487D01*
X92574024Y-72650489D01*
X92772026Y-72757642D01*
X92984965Y-72830744D01*
X93207031Y-72867800D01*
X93432166Y-72867800D01*
X93432169Y-72867800D01*
X93654235Y-72830744D01*
X93867174Y-72757642D01*
X94065176Y-72650489D01*
X94242840Y-72512206D01*
X94395322Y-72346568D01*
X94484118Y-72210654D01*
X94529631Y-72168758D01*
X94589600Y-72153572D01*
X94649569Y-72168758D01*
X94695081Y-72210654D01*
X94783878Y-72346568D01*
X94859951Y-72429205D01*
X94936362Y-72512208D01*
X95114021Y-72650487D01*
X95114024Y-72650489D01*
X95312026Y-72757642D01*
X95524965Y-72830744D01*
X95747031Y-72867800D01*
X95972166Y-72867800D01*
X95972169Y-72867800D01*
X96194235Y-72830744D01*
X96407174Y-72757642D01*
X96605176Y-72650489D01*
X96782840Y-72512206D01*
X96935322Y-72346568D01*
X97024118Y-72210654D01*
X97069631Y-72168758D01*
X97129600Y-72153572D01*
X97189569Y-72168758D01*
X97235081Y-72210654D01*
X97323878Y-72346568D01*
X97399951Y-72429205D01*
X97476362Y-72512208D01*
X97654021Y-72650487D01*
X97654024Y-72650489D01*
X97852026Y-72757642D01*
X98064965Y-72830744D01*
X98287031Y-72867800D01*
X98512166Y-72867800D01*
X98512169Y-72867800D01*
X98734235Y-72830744D01*
X98947174Y-72757642D01*
X99145176Y-72650489D01*
X99322840Y-72512206D01*
X99475322Y-72346568D01*
X99564118Y-72210654D01*
X99609631Y-72168758D01*
X99669600Y-72153572D01*
X99729569Y-72168758D01*
X99775081Y-72210654D01*
X99863878Y-72346568D01*
X99939951Y-72429205D01*
X100016362Y-72512208D01*
X100194021Y-72650487D01*
X100194024Y-72650489D01*
X100392026Y-72757642D01*
X100604965Y-72830744D01*
X100827031Y-72867800D01*
X101052166Y-72867800D01*
X101052169Y-72867800D01*
X101274235Y-72830744D01*
X101487174Y-72757642D01*
X101685176Y-72650489D01*
X101862840Y-72512206D01*
X102015322Y-72346568D01*
X102138460Y-72158091D01*
X102228896Y-71951916D01*
X102284164Y-71733668D01*
X102302756Y-71509300D01*
X102284164Y-71284932D01*
X102228896Y-71066684D01*
X102138460Y-70860509D01*
X102015322Y-70672032D01*
X101862840Y-70506394D01*
X101862839Y-70506393D01*
X101862837Y-70506391D01*
X101772103Y-70435769D01*
X101733795Y-70386235D01*
X101724063Y-70324376D01*
X101745311Y-70265472D01*
X101792288Y-70224073D01*
X101875821Y-70181511D01*
X102028320Y-70058020D01*
X102151811Y-69905521D01*
X102240898Y-69730679D01*
X102291686Y-69541136D01*
X102298100Y-69459637D01*
X102298099Y-68519800D01*
X111737054Y-68519800D01*
X111756416Y-68815223D01*
X111814176Y-69105600D01*
X111909338Y-69385941D01*
X112040286Y-69651475D01*
X112204764Y-69897635D01*
X112399972Y-70120227D01*
X112622564Y-70315435D01*
X112868724Y-70479913D01*
X112868727Y-70479915D01*
X112990018Y-70539729D01*
X113134258Y-70610861D01*
X113414599Y-70706023D01*
X113414601Y-70706023D01*
X113414603Y-70706024D01*
X113704974Y-70763783D01*
X114000400Y-70783146D01*
X114295826Y-70763783D01*
X114586197Y-70706024D01*
X114686335Y-70672032D01*
X114866541Y-70610861D01*
X114873533Y-70607412D01*
X115132073Y-70479915D01*
X115378238Y-70315433D01*
X115600827Y-70120227D01*
X115796033Y-69897638D01*
X115960515Y-69651473D01*
X116091459Y-69385945D01*
X116091458Y-69385945D01*
X116091461Y-69385941D01*
X116186623Y-69105600D01*
X116213735Y-68969300D01*
X116244383Y-68815226D01*
X116263746Y-68519800D01*
X123777054Y-68519800D01*
X123796416Y-68815223D01*
X123854176Y-69105600D01*
X123949338Y-69385941D01*
X124080286Y-69651475D01*
X124244764Y-69897635D01*
X124439972Y-70120227D01*
X124662564Y-70315435D01*
X124908724Y-70479913D01*
X124908727Y-70479915D01*
X125030018Y-70539729D01*
X125174258Y-70610861D01*
X125454599Y-70706023D01*
X125454601Y-70706023D01*
X125454603Y-70706024D01*
X125744974Y-70763783D01*
X126040400Y-70783146D01*
X126335826Y-70763783D01*
X126626197Y-70706024D01*
X126726335Y-70672032D01*
X126906541Y-70610861D01*
X126913533Y-70607412D01*
X127172073Y-70479915D01*
X127418238Y-70315433D01*
X127640827Y-70120227D01*
X127836033Y-69897638D01*
X128000515Y-69651473D01*
X128131459Y-69385945D01*
X128131458Y-69385945D01*
X128131461Y-69385941D01*
X128226623Y-69105600D01*
X128253735Y-68969300D01*
X128284383Y-68815226D01*
X128303746Y-68519800D01*
X128284383Y-68224374D01*
X128226624Y-67934003D01*
X128216441Y-67904004D01*
X128131461Y-67653658D01*
X128037868Y-67463871D01*
X128000515Y-67388127D01*
X127974693Y-67349481D01*
X127836035Y-67141964D01*
X127640827Y-66919372D01*
X127418235Y-66724164D01*
X127172075Y-66559686D01*
X126906541Y-66428738D01*
X126626200Y-66333576D01*
X126335823Y-66275816D01*
X126062682Y-66257914D01*
X126040400Y-66256454D01*
X126040399Y-66256454D01*
X125744976Y-66275816D01*
X125454599Y-66333576D01*
X125174258Y-66428738D01*
X124908724Y-66559686D01*
X124662564Y-66724164D01*
X124439972Y-66919372D01*
X124244764Y-67141964D01*
X124080286Y-67388124D01*
X123949338Y-67653658D01*
X123854176Y-67933999D01*
X123796416Y-68224376D01*
X123777054Y-68519800D01*
X116263746Y-68519800D01*
X116244383Y-68224374D01*
X116186624Y-67934003D01*
X116176441Y-67904004D01*
X116091461Y-67653658D01*
X115997868Y-67463871D01*
X115960515Y-67388127D01*
X115934693Y-67349481D01*
X115796035Y-67141964D01*
X115600827Y-66919372D01*
X115378235Y-66724164D01*
X115132075Y-66559686D01*
X114866541Y-66428738D01*
X114586200Y-66333576D01*
X114295823Y-66275816D01*
X114022682Y-66257914D01*
X114000400Y-66256454D01*
X114000399Y-66256454D01*
X113704976Y-66275816D01*
X113414599Y-66333576D01*
X113134258Y-66428738D01*
X112868724Y-66559686D01*
X112622564Y-66724164D01*
X112399972Y-66919372D01*
X112204764Y-67141964D01*
X112040286Y-67388124D01*
X111909338Y-67653658D01*
X111814176Y-67933999D01*
X111756416Y-68224376D01*
X111737054Y-68519800D01*
X102298099Y-68519800D01*
X102298099Y-68478964D01*
X102291686Y-68397464D01*
X102240898Y-68207921D01*
X102151811Y-68033079D01*
X102151808Y-68033075D01*
X102028320Y-67880579D01*
X101875824Y-67757091D01*
X101875822Y-67757090D01*
X101875821Y-67757089D01*
X101700979Y-67668002D01*
X101511436Y-67617214D01*
X101429937Y-67610800D01*
X101429931Y-67610800D01*
X100449268Y-67610800D01*
X100367763Y-67617214D01*
X100178221Y-67668002D01*
X100003375Y-67757091D01*
X99850879Y-67880579D01*
X99727391Y-68033075D01*
X99727388Y-68033079D01*
X99727389Y-68033079D01*
X99691580Y-68103359D01*
X99687378Y-68111605D01*
X99643817Y-68160021D01*
X99581901Y-68180219D01*
X99518171Y-68166802D01*
X99485118Y-68137204D01*
X99482393Y-68139714D01*
X99475324Y-68132035D01*
X99475322Y-68132032D01*
X99322840Y-67966394D01*
X99322839Y-67966393D01*
X99322837Y-67966391D01*
X99145178Y-67828112D01*
X98947173Y-67720957D01*
X98792918Y-67668002D01*
X98734235Y-67647856D01*
X98512169Y-67610800D01*
X98287031Y-67610800D01*
X98064965Y-67647856D01*
X98064962Y-67647856D01*
X98064962Y-67647857D01*
X97852026Y-67720957D01*
X97654021Y-67828112D01*
X97476362Y-67966391D01*
X97323878Y-68132031D01*
X97235083Y-68267943D01*
X97189569Y-68309841D01*
X97129600Y-68325027D01*
X97069631Y-68309841D01*
X97024117Y-68267943D01*
X96953608Y-68160021D01*
X96935322Y-68132032D01*
X96782840Y-67966394D01*
X96782839Y-67966393D01*
X96782837Y-67966391D01*
X96605178Y-67828112D01*
X96407173Y-67720957D01*
X96252918Y-67668002D01*
X96194235Y-67647856D01*
X95972169Y-67610800D01*
X95747031Y-67610800D01*
X95524965Y-67647856D01*
X95524962Y-67647856D01*
X95524962Y-67647857D01*
X95312026Y-67720957D01*
X95114021Y-67828112D01*
X94936362Y-67966391D01*
X94783878Y-68132031D01*
X94695083Y-68267943D01*
X94649569Y-68309841D01*
X94589600Y-68325027D01*
X94529631Y-68309841D01*
X94484117Y-68267943D01*
X94413608Y-68160021D01*
X94395322Y-68132032D01*
X94242840Y-67966394D01*
X94242839Y-67966393D01*
X94242837Y-67966391D01*
X94065178Y-67828112D01*
X93867173Y-67720957D01*
X93712918Y-67668002D01*
X93654235Y-67647856D01*
X93432169Y-67610800D01*
X93207031Y-67610800D01*
X92984965Y-67647856D01*
X92984962Y-67647856D01*
X92984962Y-67647857D01*
X92772026Y-67720957D01*
X92574021Y-67828112D01*
X92396362Y-67966391D01*
X92243878Y-68132031D01*
X92155083Y-68267943D01*
X92109569Y-68309841D01*
X92049600Y-68325027D01*
X91989631Y-68309841D01*
X91944117Y-68267943D01*
X91873608Y-68160021D01*
X91855322Y-68132032D01*
X91702840Y-67966394D01*
X91702839Y-67966393D01*
X91702837Y-67966391D01*
X91525178Y-67828112D01*
X91327173Y-67720957D01*
X91172918Y-67668002D01*
X91114235Y-67647856D01*
X90892169Y-67610800D01*
X90667031Y-67610800D01*
X90444965Y-67647856D01*
X90444962Y-67647856D01*
X90444962Y-67647857D01*
X90232026Y-67720957D01*
X90034021Y-67828112D01*
X89856362Y-67966391D01*
X89703878Y-68132031D01*
X89615083Y-68267943D01*
X89569569Y-68309841D01*
X89509600Y-68325027D01*
X89449631Y-68309841D01*
X89404117Y-68267943D01*
X89333608Y-68160021D01*
X89315322Y-68132032D01*
X89162840Y-67966394D01*
X89162839Y-67966393D01*
X89162837Y-67966391D01*
X88985178Y-67828112D01*
X88787173Y-67720957D01*
X88632918Y-67668002D01*
X88574235Y-67647856D01*
X88352169Y-67610800D01*
X88127031Y-67610800D01*
X87904965Y-67647856D01*
X87904962Y-67647856D01*
X87904962Y-67647857D01*
X87692026Y-67720957D01*
X87494021Y-67828112D01*
X87316362Y-67966391D01*
X87163878Y-68132031D01*
X87075083Y-68267943D01*
X87029569Y-68309841D01*
X86969600Y-68325027D01*
X86909631Y-68309841D01*
X86864117Y-68267943D01*
X86793608Y-68160021D01*
X86775322Y-68132032D01*
X86622840Y-67966394D01*
X86622839Y-67966393D01*
X86622837Y-67966391D01*
X86445178Y-67828112D01*
X86247173Y-67720957D01*
X86092918Y-67668002D01*
X86034235Y-67647856D01*
X85812169Y-67610800D01*
X85587031Y-67610800D01*
X85364965Y-67647856D01*
X85364962Y-67647856D01*
X85364962Y-67647857D01*
X85152026Y-67720957D01*
X84954021Y-67828112D01*
X84776362Y-67966391D01*
X84623878Y-68132031D01*
X84535083Y-68267943D01*
X84489569Y-68309841D01*
X84429600Y-68325027D01*
X84369631Y-68309841D01*
X84324117Y-68267943D01*
X84253608Y-68160021D01*
X84235322Y-68132032D01*
X84082840Y-67966394D01*
X84082839Y-67966393D01*
X84082837Y-67966391D01*
X83905178Y-67828112D01*
X83707173Y-67720957D01*
X83552918Y-67668002D01*
X83494235Y-67647856D01*
X83272169Y-67610800D01*
X83047031Y-67610800D01*
X82824965Y-67647856D01*
X82824962Y-67647856D01*
X82824962Y-67647857D01*
X82612026Y-67720957D01*
X82414021Y-67828112D01*
X82236362Y-67966391D01*
X82083878Y-68132031D01*
X81995083Y-68267943D01*
X81949569Y-68309841D01*
X81889600Y-68325027D01*
X81829631Y-68309841D01*
X81784117Y-68267943D01*
X81713608Y-68160021D01*
X81695322Y-68132032D01*
X81542840Y-67966394D01*
X81542839Y-67966393D01*
X81542837Y-67966391D01*
X81365178Y-67828112D01*
X81167173Y-67720957D01*
X81012918Y-67668002D01*
X80954235Y-67647856D01*
X80732169Y-67610800D01*
X80507031Y-67610800D01*
X80284965Y-67647856D01*
X80284962Y-67647856D01*
X80284962Y-67647857D01*
X80072026Y-67720957D01*
X79874021Y-67828112D01*
X79696362Y-67966391D01*
X79543878Y-68132031D01*
X79455083Y-68267943D01*
X79409569Y-68309841D01*
X79349600Y-68325027D01*
X79289631Y-68309841D01*
X79244117Y-68267943D01*
X79173608Y-68160021D01*
X79155322Y-68132032D01*
X79002840Y-67966394D01*
X79002839Y-67966393D01*
X79002837Y-67966391D01*
X78825178Y-67828112D01*
X78627173Y-67720957D01*
X78472918Y-67668002D01*
X78414235Y-67647856D01*
X78192169Y-67610800D01*
X77967031Y-67610800D01*
X77744965Y-67647856D01*
X77744962Y-67647856D01*
X77744962Y-67647857D01*
X77532026Y-67720957D01*
X77334021Y-67828112D01*
X77156362Y-67966391D01*
X77003878Y-68132031D01*
X76915083Y-68267943D01*
X76869569Y-68309841D01*
X76809600Y-68325027D01*
X76749631Y-68309841D01*
X76704117Y-68267943D01*
X76633608Y-68160021D01*
X76615322Y-68132032D01*
X76462840Y-67966394D01*
X76462839Y-67966393D01*
X76462837Y-67966391D01*
X76285178Y-67828112D01*
X76087173Y-67720957D01*
X75932918Y-67668002D01*
X75874235Y-67647856D01*
X75652169Y-67610800D01*
X75427031Y-67610800D01*
X75204965Y-67647856D01*
X75204962Y-67647856D01*
X75204962Y-67647857D01*
X74992026Y-67720957D01*
X74794021Y-67828112D01*
X74616362Y-67966391D01*
X74463878Y-68132031D01*
X74375083Y-68267943D01*
X74329569Y-68309841D01*
X74269600Y-68325027D01*
X74209631Y-68309841D01*
X74164117Y-68267943D01*
X74093608Y-68160021D01*
X74075322Y-68132032D01*
X73922840Y-67966394D01*
X73922839Y-67966393D01*
X73922837Y-67966391D01*
X73745178Y-67828112D01*
X73547173Y-67720957D01*
X73392918Y-67668002D01*
X73334235Y-67647856D01*
X73112169Y-67610800D01*
X72887031Y-67610800D01*
X72664965Y-67647856D01*
X72664962Y-67647856D01*
X72664962Y-67647857D01*
X72452026Y-67720957D01*
X72254021Y-67828112D01*
X72076362Y-67966391D01*
X71923878Y-68132031D01*
X71835083Y-68267943D01*
X71789569Y-68309841D01*
X71729600Y-68325027D01*
X71669631Y-68309841D01*
X71624117Y-68267943D01*
X71553608Y-68160021D01*
X71535322Y-68132032D01*
X71382840Y-67966394D01*
X71382839Y-67966393D01*
X71382837Y-67966391D01*
X71205178Y-67828112D01*
X71007173Y-67720957D01*
X70852918Y-67668002D01*
X70794235Y-67647856D01*
X70572169Y-67610800D01*
X70347031Y-67610800D01*
X70124965Y-67647856D01*
X70124962Y-67647856D01*
X70124962Y-67647857D01*
X69912026Y-67720957D01*
X69714021Y-67828112D01*
X69536362Y-67966391D01*
X69383878Y-68132031D01*
X69295083Y-68267943D01*
X69249569Y-68309841D01*
X69189600Y-68325027D01*
X69129631Y-68309841D01*
X69084117Y-68267943D01*
X69013608Y-68160021D01*
X68995322Y-68132032D01*
X68842840Y-67966394D01*
X68842839Y-67966393D01*
X68842837Y-67966391D01*
X68665178Y-67828112D01*
X68467173Y-67720957D01*
X68312918Y-67668002D01*
X68254235Y-67647856D01*
X68032169Y-67610800D01*
X67807031Y-67610800D01*
X67584965Y-67647856D01*
X67584962Y-67647856D01*
X67584962Y-67647857D01*
X67372026Y-67720957D01*
X67174021Y-67828112D01*
X66996362Y-67966391D01*
X66843878Y-68132031D01*
X66755083Y-68267943D01*
X66709569Y-68309841D01*
X66649600Y-68325027D01*
X66589631Y-68309841D01*
X66544117Y-68267943D01*
X66473608Y-68160021D01*
X66455322Y-68132032D01*
X66302840Y-67966394D01*
X66302839Y-67966393D01*
X66302837Y-67966391D01*
X66125178Y-67828112D01*
X65927173Y-67720957D01*
X65772918Y-67668002D01*
X65714235Y-67647856D01*
X65492169Y-67610800D01*
X65267031Y-67610800D01*
X65044965Y-67647856D01*
X65044962Y-67647856D01*
X65044962Y-67647857D01*
X64832026Y-67720957D01*
X64634021Y-67828112D01*
X64456362Y-67966391D01*
X64303878Y-68132031D01*
X64215083Y-68267943D01*
X64169569Y-68309841D01*
X64109600Y-68325027D01*
X64049631Y-68309841D01*
X64004117Y-68267943D01*
X63933608Y-68160021D01*
X63915322Y-68132032D01*
X63762840Y-67966394D01*
X63762839Y-67966393D01*
X63762837Y-67966391D01*
X63585178Y-67828112D01*
X63387173Y-67720957D01*
X63232918Y-67668002D01*
X63174235Y-67647856D01*
X62952169Y-67610800D01*
X62727031Y-67610800D01*
X62504965Y-67647856D01*
X62504962Y-67647856D01*
X62504962Y-67647857D01*
X62292026Y-67720957D01*
X62094021Y-67828112D01*
X61916362Y-67966391D01*
X61763878Y-68132031D01*
X61675083Y-68267943D01*
X61629569Y-68309841D01*
X61569600Y-68325027D01*
X61509631Y-68309841D01*
X61464117Y-68267943D01*
X61393608Y-68160021D01*
X61375322Y-68132032D01*
X61222840Y-67966394D01*
X61222839Y-67966393D01*
X61222837Y-67966391D01*
X61045178Y-67828112D01*
X60847173Y-67720957D01*
X60692918Y-67668002D01*
X60634235Y-67647856D01*
X60412169Y-67610800D01*
X60187031Y-67610800D01*
X59964965Y-67647856D01*
X59964962Y-67647856D01*
X59964962Y-67647857D01*
X59752026Y-67720957D01*
X59554021Y-67828112D01*
X59376362Y-67966391D01*
X59223878Y-68132031D01*
X59100739Y-68320509D01*
X59010302Y-68526688D01*
X58955037Y-68744927D01*
X58955036Y-68744932D01*
X58936444Y-68969300D01*
X58955036Y-69193668D01*
X58955036Y-69193671D01*
X58955037Y-69193672D01*
X59010302Y-69411911D01*
X59100739Y-69618090D01*
X59223878Y-69806568D01*
X59376362Y-69972208D01*
X59554018Y-70110485D01*
X59554020Y-70110486D01*
X59554024Y-70110489D01*
X59587282Y-70128487D01*
X59635552Y-70174803D01*
X59653311Y-70239300D01*
X59635552Y-70303797D01*
X59587282Y-70350112D01*
X59562394Y-70363581D01*
X59554018Y-70368114D01*
X59376362Y-70506391D01*
X59223878Y-70672031D01*
X59100739Y-70860509D01*
X59010302Y-71066688D01*
X58968997Y-71229800D01*
X58955036Y-71284932D01*
X58936444Y-71509300D01*
X50034596Y-71509300D01*
X50034847Y-67005199D01*
X109798111Y-67005199D01*
X109818005Y-67181770D01*
X109876690Y-67349481D01*
X109971226Y-67499934D01*
X110096865Y-67625573D01*
X110096867Y-67625574D01*
X110096868Y-67625575D01*
X110247318Y-67720109D01*
X110415032Y-67778795D01*
X110591600Y-67798689D01*
X110768168Y-67778795D01*
X110935882Y-67720109D01*
X111086332Y-67625575D01*
X111211975Y-67499932D01*
X111306509Y-67349482D01*
X111365195Y-67181768D01*
X111385089Y-67005200D01*
X111365195Y-66828632D01*
X111360014Y-66813827D01*
X111306509Y-66660918D01*
X111211973Y-66510465D01*
X111086334Y-66384826D01*
X110935881Y-66290290D01*
X110768170Y-66231605D01*
X110591600Y-66211711D01*
X110415029Y-66231605D01*
X110247318Y-66290290D01*
X110096865Y-66384826D01*
X109971226Y-66510465D01*
X109876690Y-66660918D01*
X109818005Y-66828629D01*
X109798111Y-67005199D01*
X50034847Y-67005199D01*
X50035012Y-64058800D01*
X51011644Y-64058800D01*
X51030236Y-64283168D01*
X51030236Y-64283171D01*
X51030237Y-64283172D01*
X51085502Y-64501411D01*
X51175939Y-64707590D01*
X51299078Y-64896068D01*
X51451562Y-65061708D01*
X51455147Y-65064498D01*
X51629224Y-65199989D01*
X51827226Y-65307142D01*
X52040165Y-65380244D01*
X52262231Y-65417300D01*
X52487366Y-65417300D01*
X52487369Y-65417300D01*
X52709435Y-65380244D01*
X52922374Y-65307142D01*
X53120376Y-65199989D01*
X53298040Y-65061706D01*
X53450522Y-64896068D01*
X53573660Y-64707591D01*
X53613133Y-64617600D01*
X107522855Y-64617600D01*
X107570577Y-64806051D01*
X107660980Y-65012148D01*
X107784078Y-65200562D01*
X107936496Y-65366133D01*
X108114097Y-65504366D01*
X108312031Y-65611483D01*
X108524885Y-65684555D01*
X108605400Y-65697991D01*
X108605400Y-64617600D01*
X107522855Y-64617600D01*
X53613133Y-64617600D01*
X53664096Y-64501416D01*
X53719364Y-64283168D01*
X53737956Y-64058800D01*
X53719364Y-63834432D01*
X53664096Y-63616184D01*
X53573660Y-63410009D01*
X53450522Y-63221532D01*
X53307323Y-63065978D01*
X53278087Y-63012375D01*
X53277484Y-62951319D01*
X53305659Y-62897148D01*
X53355988Y-62862587D01*
X53471004Y-62819689D01*
X53588061Y-62732061D01*
X53595414Y-62722238D01*
X107500900Y-62722238D01*
X107507411Y-62782801D01*
X107521169Y-62819688D01*
X107558511Y-62919805D01*
X107646138Y-63036861D01*
X107763194Y-63124488D01*
X107763195Y-63124488D01*
X107763196Y-63124489D01*
X107878714Y-63167575D01*
X107929046Y-63202137D01*
X107957221Y-63256307D01*
X107956619Y-63317363D01*
X107927382Y-63370967D01*
X107784076Y-63526640D01*
X107660980Y-63715051D01*
X107570577Y-63921148D01*
X107522855Y-64109599D01*
X107522856Y-64109600D01*
X108987400Y-64109600D01*
X109050400Y-64126481D01*
X109096519Y-64172600D01*
X109113400Y-64235600D01*
X109113400Y-65697991D01*
X109193914Y-65684555D01*
X109406768Y-65611483D01*
X109604702Y-65504366D01*
X109782303Y-65366133D01*
X109934723Y-65200560D01*
X110023617Y-65064499D01*
X110069130Y-65022600D01*
X110129100Y-65007414D01*
X110189069Y-65022600D01*
X110234583Y-65064498D01*
X110323678Y-65200868D01*
X110476162Y-65366508D01*
X110653821Y-65504787D01*
X110653824Y-65504789D01*
X110851826Y-65611942D01*
X111064765Y-65685044D01*
X111286831Y-65722100D01*
X111511966Y-65722100D01*
X111511969Y-65722100D01*
X111734035Y-65685044D01*
X111946974Y-65611942D01*
X112144976Y-65504789D01*
X112322640Y-65366506D01*
X112475122Y-65200868D01*
X112598260Y-65012391D01*
X112688696Y-64806216D01*
X112743964Y-64587968D01*
X112762556Y-64363600D01*
X112743964Y-64139232D01*
X112688696Y-63920984D01*
X112598260Y-63714809D01*
X112475122Y-63526332D01*
X112322640Y-63360694D01*
X112322639Y-63360693D01*
X112322637Y-63360691D01*
X112144978Y-63222412D01*
X112111717Y-63204412D01*
X112063446Y-63158095D01*
X112045688Y-63093597D01*
X112063449Y-63029099D01*
X112111717Y-62982787D01*
X112144976Y-62964789D01*
X112322640Y-62826506D01*
X112475122Y-62660868D01*
X112598260Y-62472391D01*
X112688696Y-62266216D01*
X112743964Y-62047968D01*
X112762556Y-61823600D01*
X112743964Y-61599232D01*
X112688696Y-61380984D01*
X112598260Y-61174809D01*
X112475122Y-60986332D01*
X112322640Y-60820694D01*
X112322639Y-60820693D01*
X112322637Y-60820691D01*
X112144978Y-60682412D01*
X111946973Y-60575257D01*
X111883885Y-60553599D01*
X141392341Y-60553599D01*
X141412937Y-60789009D01*
X141474096Y-61017262D01*
X141573965Y-61231429D01*
X141709507Y-61425004D01*
X141876595Y-61592092D01*
X141876598Y-61592094D01*
X141876599Y-61592095D01*
X142070171Y-61727635D01*
X142284337Y-61827503D01*
X142512592Y-61888663D01*
X142689034Y-61904100D01*
X142806960Y-61904100D01*
X142806966Y-61904100D01*
X142983408Y-61888663D01*
X143211663Y-61827503D01*
X143425829Y-61727635D01*
X143619401Y-61592095D01*
X143786495Y-61425001D01*
X143922035Y-61231430D01*
X144021903Y-61017263D01*
X144083063Y-60789008D01*
X144103659Y-60553600D01*
X144083063Y-60318192D01*
X144021903Y-60089937D01*
X143922035Y-59875771D01*
X143786495Y-59682199D01*
X143786494Y-59682198D01*
X143786492Y-59682195D01*
X143619404Y-59515107D01*
X143425829Y-59379565D01*
X143211662Y-59279696D01*
X142983409Y-59218537D01*
X142958202Y-59216331D01*
X142806966Y-59203100D01*
X142689034Y-59203100D01*
X142556702Y-59214677D01*
X142512590Y-59218537D01*
X142284337Y-59279696D01*
X142070170Y-59379565D01*
X141876595Y-59515107D01*
X141709507Y-59682195D01*
X141573965Y-59875769D01*
X141474096Y-60089936D01*
X141412937Y-60318190D01*
X141392341Y-60553599D01*
X111883885Y-60553599D01*
X111793910Y-60522711D01*
X111734035Y-60502156D01*
X111511969Y-60465100D01*
X111286831Y-60465100D01*
X111064765Y-60502156D01*
X111064762Y-60502156D01*
X111064762Y-60502157D01*
X110851826Y-60575257D01*
X110653821Y-60682412D01*
X110476158Y-60820694D01*
X110415154Y-60886962D01*
X110361682Y-60921362D01*
X110298220Y-60925272D01*
X110240930Y-60897696D01*
X110204398Y-60845656D01*
X110195088Y-60820694D01*
X110160289Y-60727396D01*
X110160288Y-60727394D01*
X110072661Y-60610338D01*
X109955605Y-60522711D01*
X109887102Y-60497161D01*
X109818601Y-60471611D01*
X109758038Y-60465100D01*
X107960762Y-60465100D01*
X107900199Y-60471611D01*
X107763194Y-60522711D01*
X107646138Y-60610338D01*
X107558511Y-60727394D01*
X107535530Y-60789009D01*
X107507411Y-60864399D01*
X107500900Y-60924962D01*
X107500900Y-62722238D01*
X53595414Y-62722238D01*
X53675689Y-62615004D01*
X53726789Y-62478001D01*
X53733300Y-62417438D01*
X53733300Y-60620162D01*
X53726789Y-60559599D01*
X53675689Y-60422596D01*
X53662449Y-60404909D01*
X53588061Y-60305538D01*
X53471005Y-60217911D01*
X53382054Y-60184734D01*
X53334001Y-60166811D01*
X53273438Y-60160300D01*
X51476162Y-60160300D01*
X51415599Y-60166811D01*
X51278594Y-60217911D01*
X51161538Y-60305538D01*
X51073911Y-60422594D01*
X51022811Y-60559599D01*
X51016300Y-60620162D01*
X51016300Y-62417438D01*
X51022811Y-62478000D01*
X51073911Y-62615005D01*
X51161538Y-62732061D01*
X51278594Y-62819688D01*
X51278595Y-62819688D01*
X51278596Y-62819689D01*
X51393609Y-62862587D01*
X51443940Y-62897148D01*
X51472115Y-62951319D01*
X51471512Y-63012374D01*
X51442275Y-63065978D01*
X51299081Y-63221528D01*
X51299079Y-63221530D01*
X51299078Y-63221532D01*
X51264742Y-63274085D01*
X51175939Y-63410009D01*
X51085502Y-63616188D01*
X51036644Y-63809128D01*
X51030236Y-63834432D01*
X51011644Y-64058800D01*
X50035012Y-64058800D01*
X50035256Y-59690000D01*
X112846111Y-59690000D01*
X112866005Y-59866570D01*
X112924690Y-60034281D01*
X113019226Y-60184734D01*
X113144865Y-60310373D01*
X113295318Y-60404909D01*
X113345858Y-60422594D01*
X113463032Y-60463595D01*
X113639600Y-60483489D01*
X113816168Y-60463595D01*
X113983882Y-60404909D01*
X114134332Y-60310375D01*
X114259975Y-60184732D01*
X114354509Y-60034282D01*
X114413195Y-59866568D01*
X114433089Y-59690000D01*
X114413195Y-59513432D01*
X114354509Y-59345718D01*
X114259975Y-59195268D01*
X114259974Y-59195267D01*
X114259973Y-59195265D01*
X114134334Y-59069626D01*
X113983881Y-58975090D01*
X113816170Y-58916405D01*
X113639600Y-58896511D01*
X113463029Y-58916405D01*
X113295318Y-58975090D01*
X113144865Y-59069626D01*
X113019226Y-59195265D01*
X112924690Y-59345718D01*
X112866005Y-59513429D01*
X112846111Y-59690000D01*
X50035256Y-59690000D01*
X50035296Y-58982560D01*
X50035300Y-58982530D01*
X50035300Y-58934187D01*
X50035907Y-58921838D01*
X50038401Y-58896511D01*
X50048777Y-58791157D01*
X50053592Y-58766947D01*
X50089907Y-58647234D01*
X50099358Y-58624419D01*
X50158327Y-58514094D01*
X50172043Y-58493566D01*
X50251407Y-58396861D01*
X50268861Y-58379407D01*
X50365566Y-58300043D01*
X50386094Y-58286327D01*
X50496420Y-58227357D01*
X50519234Y-58217907D01*
X50638947Y-58181592D01*
X50663157Y-58176777D01*
X50774381Y-58165823D01*
X50793838Y-58163907D01*
X50806187Y-58163300D01*
X50839882Y-58163300D01*
X144389712Y-58163300D01*
X144405353Y-58164275D01*
G37*
%TD.AperFunction*%
%TD*%
M02*
