%TF.GenerationSoftware,KiCad,Pcbnew,7.0.1*%
%TF.CreationDate,2023-04-16T22:16:48+10:00*%
%TF.ProjectId,XCopy Standalone,58436f70-7920-4537-9461-6e64616c6f6e,rev?*%
%TF.SameCoordinates,Original*%
%TF.FileFunction,Copper,L2,Inr*%
%TF.FilePolarity,Positive*%
%FSLAX46Y46*%
G04 Gerber Fmt 4.6, Leading zero omitted, Abs format (unit mm)*
G04 Created by KiCad (PCBNEW 7.0.1) date 2023-04-16 22:16:48*
%MOMM*%
%LPD*%
G01*
G04 APERTURE LIST*
G04 Aperture macros list*
%AMRoundRect*
0 Rectangle with rounded corners*
0 $1 Rounding radius*
0 $2 $3 $4 $5 $6 $7 $8 $9 X,Y pos of 4 corners*
0 Add a 4 corners polygon primitive as box body*
4,1,4,$2,$3,$4,$5,$6,$7,$8,$9,$2,$3,0*
0 Add four circle primitives for the rounded corners*
1,1,$1+$1,$2,$3*
1,1,$1+$1,$4,$5*
1,1,$1+$1,$6,$7*
1,1,$1+$1,$8,$9*
0 Add four rect primitives between the rounded corners*
20,1,$1+$1,$2,$3,$4,$5,0*
20,1,$1+$1,$4,$5,$6,$7,0*
20,1,$1+$1,$6,$7,$8,$9,0*
20,1,$1+$1,$8,$9,$2,$3,0*%
G04 Aperture macros list end*
%TA.AperFunction,ComponentPad*%
%ADD10O,1.700000X1.700000*%
%TD*%
%TA.AperFunction,ComponentPad*%
%ADD11R,1.700000X1.700000*%
%TD*%
%TA.AperFunction,ComponentPad*%
%ADD12RoundRect,0.425000X0.425000X-0.425000X0.425000X0.425000X-0.425000X0.425000X-0.425000X-0.425000X0*%
%TD*%
%TA.AperFunction,ComponentPad*%
%ADD13C,1.700000*%
%TD*%
%TA.AperFunction,ComponentPad*%
%ADD14R,1.600000X1.600000*%
%TD*%
%TA.AperFunction,ComponentPad*%
%ADD15C,1.600000*%
%TD*%
%TA.AperFunction,ComponentPad*%
%ADD16C,3.500000*%
%TD*%
%TA.AperFunction,ViaPad*%
%ADD17C,0.460000*%
%TD*%
%TA.AperFunction,ViaPad*%
%ADD18C,0.560000*%
%TD*%
G04 APERTURE END LIST*
D10*
%TO.N,GND*%
%TO.C,U6*%
X104342300Y-90652000D03*
%TO.N,+3V3*%
X104342300Y-93192000D03*
%TO.N,SCK*%
X104342300Y-95732000D03*
%TO.N,MOSI*%
X104342300Y-98272000D03*
%TO.N,TFT_RESET*%
X104342300Y-100812000D03*
%TO.N,TFT_DC*%
X104342300Y-103352000D03*
%TO.N,TFT_CS*%
X104342300Y-105892000D03*
D11*
%TO.N,+3V3*%
X104342300Y-108432000D03*
%TD*%
D12*
%TO.N,GND*%
%TO.C,J1*%
X100939600Y-68969300D03*
D13*
%TO.N,DENSITY*%
X100939600Y-71509300D03*
%TO.N,GND*%
X98399600Y-68969300D03*
%TO.N,unconnected-(J1-Pin_4-Pad4)*%
X98399600Y-71509300D03*
%TO.N,GND*%
X95859600Y-68969300D03*
%TO.N,unconnected-(J1-Pin_6-Pad6)*%
X95859600Y-71509300D03*
%TO.N,GND*%
X93319600Y-68969300D03*
%TO.N,INDEX*%
X93319600Y-71509300D03*
%TO.N,GND*%
X90779600Y-68969300D03*
%TO.N,unconnected-(J1-Pin_10-Pad10)*%
X90779600Y-71509300D03*
%TO.N,GND*%
X88239600Y-68969300D03*
%TO.N,DRIVE_SELECT*%
X88239600Y-71509300D03*
%TO.N,GND*%
X85699600Y-68969300D03*
%TO.N,unconnected-(J1-Pin_14-Pad14)*%
X85699600Y-71509300D03*
%TO.N,GND*%
X83159600Y-68969300D03*
%TO.N,MOTOR*%
X83159600Y-71509300D03*
%TO.N,GND*%
X80619600Y-68969300D03*
%TO.N,DIRECTION*%
X80619600Y-71509300D03*
%TO.N,GND*%
X78079600Y-68969300D03*
%TO.N,STEP*%
X78079600Y-71509300D03*
%TO.N,GND*%
X75539600Y-68969300D03*
%TO.N,WRITE_DATA*%
X75539600Y-71509300D03*
%TO.N,GND*%
X72999600Y-68969300D03*
%TO.N,WRITE_ENABLE*%
X72999600Y-71509300D03*
%TO.N,GND*%
X70459600Y-68969300D03*
%TO.N,TRACK_0*%
X70459600Y-71509300D03*
%TO.N,GND*%
X67919600Y-68969300D03*
%TO.N,WRITE_PROTECT*%
X67919600Y-71509300D03*
%TO.N,GND*%
X65379600Y-68969300D03*
%TO.N,READ_DATA*%
X65379600Y-71509300D03*
%TO.N,GND*%
X62839600Y-68969300D03*
%TO.N,HEAD_SELECT*%
X62839600Y-71509300D03*
%TO.N,GND*%
X60299600Y-68969300D03*
%TO.N,DISK_CHANGE*%
X60299600Y-71509300D03*
%TD*%
D11*
%TO.N,VBUS*%
%TO.C,J3*%
X52374800Y-61518800D03*
D10*
%TO.N,GND*%
X52374800Y-64058800D03*
%TD*%
D14*
%TO.N,GND*%
%TO.C,U1*%
X108251600Y-82346800D03*
D15*
%TO.N,RX*%
X108251600Y-84886800D03*
%TO.N,TX*%
X108251600Y-87426800D03*
%TO.N,SD_CD*%
X108251600Y-89966800D03*
%TO.N,DISK_CHANGE*%
X108251600Y-92506800D03*
%TO.N,HEAD_SELECT*%
X108251600Y-95046800D03*
%TO.N,READ_DATA*%
X108251600Y-97586800D03*
%TO.N,WRITE_PROTECT*%
X108251600Y-100126800D03*
%TO.N,TRACK_0*%
X108251600Y-102666800D03*
%TO.N,WRITE_ENABLE*%
X108251600Y-105206800D03*
%TO.N,WRITE_DATA*%
X108251600Y-107746800D03*
%TO.N,TFT_CS*%
X108251600Y-110286800D03*
%TO.N,MOSI*%
X108251600Y-112826800D03*
%TO.N,MISO*%
X108251600Y-115366800D03*
%TO.N,BAT_+*%
X110791600Y-115366800D03*
%TO.N,unconnected-(U1-3.3V-Pad16)*%
X113331600Y-115366800D03*
%TO.N,BAT_-*%
X115871600Y-115366800D03*
%TO.N,unconnected-(U1-Program-Pad18)*%
X118411600Y-115366800D03*
%TO.N,AUDIO_INP*%
X120951600Y-115366800D03*
%TO.N,SCK*%
X123491600Y-115366800D03*
%TO.N,DENSITY*%
X123491600Y-112826800D03*
%TO.N,INDEX*%
X123491600Y-110286800D03*
%TO.N,DRIVE_SELECT*%
X123491600Y-107746800D03*
%TO.N,MOTOR*%
X123491600Y-105206800D03*
%TO.N,DIRECTION*%
X123491600Y-102666800D03*
%TO.N,STEP*%
X123491600Y-100126800D03*
%TO.N,TFT_DC*%
X123491600Y-97586800D03*
%TO.N,TFT_RESET*%
X123491600Y-95046800D03*
%TO.N,SD_CS*%
X123491600Y-92506800D03*
%TO.N,FLASH_CS*%
X123491600Y-89966800D03*
%TO.N,+3.3V*%
X123491600Y-87426800D03*
%TO.N,unconnected-(U1-AGND-Pad32)*%
X123491600Y-84886800D03*
%TO.N,VBUS*%
X123491600Y-82346800D03*
%TO.N,unconnected-(U1-VUSB-Pad34)*%
X120951600Y-84886800D03*
%TO.N,unconnected-(U1-AREF-Pad35)*%
X120951600Y-89966800D03*
%TO.N,unconnected-(U1-A10-Pad36)*%
X120951600Y-92506800D03*
%TO.N,unconnected-(U1-A11-Pad37)*%
X120951600Y-95046800D03*
%TO.N,TEENSY_RESET*%
X115641600Y-88696800D03*
%TO.N,TEENSYUSB_D-*%
X115641600Y-83616800D03*
%TO.N,TEENSYUSB_D+*%
X117771600Y-83616800D03*
%TO.N,unconnected-(U1-A13-Pad41)*%
X118411600Y-97586800D03*
%TO.N,unconnected-(U1-3.3V-Pad42)*%
X118411600Y-100126800D03*
%TO.N,JOY_PUSH*%
X118411600Y-102666800D03*
%TO.N,JOY_RIGHT*%
X118411600Y-105206800D03*
%TO.N,JOY_LEFT*%
X118411600Y-107746800D03*
%TO.N,JOY_DOWN*%
X118411600Y-110286800D03*
%TO.N,JOY_UP*%
X118411600Y-112826800D03*
%TO.N,TEENSY_RESET*%
X115871600Y-112826800D03*
%TO.N,SD_WP*%
X115871600Y-110286800D03*
%TO.N,ESP_PROG*%
X115871600Y-107746800D03*
%TO.N,ESP_RESET*%
X115871600Y-105206800D03*
%TO.N,BUSY*%
X115871600Y-102666800D03*
%TO.N,GND*%
X115871600Y-100126800D03*
%TO.N,unconnected-(U1-A12-Pad54)*%
X115871600Y-97586800D03*
%TD*%
D11*
%TO.N,VBUS*%
%TO.C,J4*%
X118770400Y-73229800D03*
D13*
%TO.N,TEENSYUSB_D-*%
X121270400Y-73229800D03*
%TO.N,TEENSYUSB_D+*%
X121270400Y-71229800D03*
%TO.N,GND*%
X118770400Y-71229800D03*
D16*
%TO.N,unconnected-(J4-Shield-Pad5)*%
X114000400Y-68519800D03*
X126040400Y-68519800D03*
%TD*%
D11*
%TO.N,/ESP8266/PH1_ADC*%
%TO.C,J2*%
X77771600Y-79908400D03*
D10*
%TO.N,/ESP8266/PH2_CS0*%
X75231600Y-79908400D03*
%TO.N,/ESP8266/PH3_MISO*%
X72691600Y-79908400D03*
%TO.N,/ESP8266/PH4_GPIO9*%
X70151600Y-79908400D03*
%TO.N,/ESP8266/PH5_GPIO10*%
X67611600Y-79908400D03*
%TO.N,/ESP8266/PH6_MOSI*%
X65071600Y-79908400D03*
%TO.N,/ESP8266/PH7_SCLK*%
X62531600Y-79908400D03*
%TO.N,/ESP8266/PH8_GPIO5*%
X59991600Y-79908400D03*
%TO.N,/ESP8266/PH9_GPIO12*%
X57451600Y-79908400D03*
%TO.N,/ESP8266/PH10_GPIO14*%
X54911600Y-79908400D03*
%TO.N,/ESP8266/PH11_GPIO16*%
X52371600Y-79908400D03*
%TD*%
D11*
%TO.N,GND*%
%TO.C,J5*%
X108859400Y-61823600D03*
D10*
%TO.N,VBUS*%
X111399400Y-61823600D03*
%TO.N,+3.3V*%
X108859400Y-64363600D03*
%TO.N,+3V3*%
X111399400Y-64363600D03*
%TD*%
D17*
%TO.N,BAT_+*%
X136448800Y-63119200D03*
%TO.N,BAT_-*%
X136448800Y-78919200D03*
D18*
%TO.N,GND*%
X129540000Y-87426800D03*
X52476400Y-109372400D03*
X64617600Y-102616000D03*
X110591600Y-67005200D03*
X66127738Y-90488662D03*
X52984400Y-98450400D03*
X117094000Y-75210400D03*
X88544400Y-102819200D03*
X55067200Y-92100400D03*
X54000400Y-72491600D03*
X52324000Y-94948300D03*
X57912000Y-110845600D03*
X133451600Y-90728800D03*
X96672400Y-91033200D03*
X142900400Y-101396800D03*
X112318800Y-72948800D03*
X141376400Y-91846400D03*
X66040000Y-110845600D03*
X135788400Y-106121200D03*
X92075000Y-100253800D03*
X68896338Y-93257262D03*
X55067200Y-89814400D03*
X137668000Y-97078800D03*
X91541600Y-94538800D03*
X66497200Y-94386400D03*
X63500000Y-96113600D03*
X142900400Y-82499200D03*
X65328800Y-99771200D03*
X133451600Y-92862400D03*
X129540000Y-82346800D03*
X105156000Y-73834700D03*
X88819900Y-92731500D03*
X132689600Y-114198400D03*
X63804800Y-107086400D03*
X93014800Y-94945200D03*
X136194800Y-100939600D03*
X136147786Y-110134400D03*
X130022600Y-98856800D03*
%TO.N,VBUS*%
X90573200Y-92809700D03*
X90598600Y-96290300D03*
X113639600Y-59690000D03*
X108762800Y-73202800D03*
%TO.N,+3V3*%
X107442000Y-75222299D03*
X86744900Y-92629900D03*
X76962000Y-89408000D03*
X80960462Y-89422738D03*
X84785200Y-89408000D03*
X73241260Y-89420340D03*
%TO.N,+3.3V*%
X50901600Y-89814400D03*
X52984400Y-100634800D03*
X128778000Y-89966800D03*
X128625600Y-100888800D03*
X59029600Y-110134400D03*
X138785600Y-92202000D03*
X107137200Y-64363600D03*
X137515600Y-95046800D03*
X66192400Y-113030000D03*
D17*
%TO.N,BUSY*%
X70990528Y-105618633D03*
%TO.N,SCK*%
X51846600Y-99541200D03*
X138328400Y-104292400D03*
X105820900Y-102158800D03*
X136093200Y-97586800D03*
%TO.N,TEENSYUSB_D-*%
X120172466Y-80290288D03*
%TO.N,TEENSYUSB_D+*%
X120674512Y-80792334D03*
%TO.N,SD_CS*%
X113280800Y-88595200D03*
%TO.N,MOSI*%
X51846600Y-101741200D03*
X116176400Y-94386400D03*
X101881700Y-100377000D03*
%TO.N,MISO*%
X118716400Y-95300800D03*
X51846600Y-97341200D03*
%TO.N,SD_WP*%
X110996785Y-78382415D03*
%TO.N,ESP_RESET*%
X113131600Y-105206800D03*
X98501200Y-108407200D03*
%TO.N,ESP_PROG*%
X71996582Y-105321383D03*
%TO.N,JOY_LEFT*%
X87972804Y-99261315D03*
X106326600Y-100610550D03*
%TO.N,TEENSY_RESET*%
X124460000Y-88696800D03*
%TO.N,TFT_DC*%
X110998000Y-100888800D03*
%TO.N,/ESP8266/PH1_ADC*%
X81127600Y-94792800D03*
%TO.N,/ESP8266/PH2_CS0*%
X81501600Y-92894800D03*
%TO.N,/ESP8266/PH3_MISO*%
X79501600Y-92894800D03*
%TO.N,/ESP8266/PH4_GPIO9*%
X77501600Y-92894800D03*
%TO.N,/ESP8266/PH5_GPIO10*%
X75501600Y-92894800D03*
%TO.N,/ESP8266/PH6_MOSI*%
X73501600Y-92894800D03*
%TO.N,/ESP8266/PH7_SCLK*%
X71501600Y-92894800D03*
%TO.N,/ESP8266/PH11_GPIO16*%
X85242400Y-99465298D03*
%TO.N,/ESP8266/PH10_GPIO14*%
X84101600Y-100376500D03*
%TO.N,/ESP8266/PH9_GPIO12*%
X84101600Y-98394800D03*
%TO.N,/ESP8266/PH8_GPIO5*%
X75590400Y-95250000D03*
%TD*%
%TA.AperFunction,Conductor*%
%TO.N,GND*%
G36*
X144405353Y-58164275D02*
G01*
X144532875Y-58180244D01*
X144556944Y-58185696D01*
X144664678Y-58221509D01*
X144675102Y-58224974D01*
X144697663Y-58235024D01*
X144805885Y-58296596D01*
X144826049Y-58310854D01*
X144920178Y-58392356D01*
X144937174Y-58410274D01*
X145013593Y-58508571D01*
X145026769Y-58529464D01*
X145082541Y-58640779D01*
X145091388Y-58663841D01*
X145124372Y-58783896D01*
X145128550Y-58808239D01*
X145137926Y-58938636D01*
X145138206Y-58950999D01*
X145136840Y-59002702D01*
X145138300Y-59010580D01*
X145138300Y-84974250D01*
X145124924Y-85030746D01*
X145087636Y-85075247D01*
X145034354Y-85098305D01*
X144976388Y-85095024D01*
X144941632Y-85075055D01*
X144941542Y-85075220D01*
X144783571Y-84988374D01*
X144783568Y-84988373D01*
X144624377Y-84947500D01*
X144501275Y-84947500D01*
X144501272Y-84947500D01*
X144379144Y-84962928D01*
X144350548Y-84974250D01*
X144226329Y-85023432D01*
X144226327Y-85023433D01*
X144226328Y-85023433D01*
X144093362Y-85120037D01*
X143988599Y-85246674D01*
X143918620Y-85395386D01*
X143887823Y-85556830D01*
X143898143Y-85720859D01*
X143948932Y-85877172D01*
X144036997Y-86015939D01*
X144156808Y-86128449D01*
X144300828Y-86207625D01*
X144300832Y-86207627D01*
X144460023Y-86248500D01*
X144583125Y-86248500D01*
X144583128Y-86248500D01*
X144644191Y-86240785D01*
X144705258Y-86233071D01*
X144858071Y-86172568D01*
X144938241Y-86114321D01*
X145002414Y-86090646D01*
X145069503Y-86103991D01*
X145119733Y-86150423D01*
X145138300Y-86216258D01*
X145138300Y-91273450D01*
X145124924Y-91329946D01*
X145087636Y-91374447D01*
X145034354Y-91397505D01*
X144976388Y-91394224D01*
X144941632Y-91374255D01*
X144941542Y-91374420D01*
X144783571Y-91287574D01*
X144783568Y-91287573D01*
X144624377Y-91246700D01*
X144501275Y-91246700D01*
X144501272Y-91246700D01*
X144379144Y-91262128D01*
X144352907Y-91272516D01*
X144226329Y-91322632D01*
X144226327Y-91322633D01*
X144226328Y-91322633D01*
X144093362Y-91419237D01*
X143988599Y-91545874D01*
X143918620Y-91694586D01*
X143887823Y-91856030D01*
X143898143Y-92020059D01*
X143948932Y-92176372D01*
X144036997Y-92315139D01*
X144156808Y-92427649D01*
X144237060Y-92471768D01*
X144300832Y-92506827D01*
X144460023Y-92547700D01*
X144583125Y-92547700D01*
X144583128Y-92547700D01*
X144644191Y-92539985D01*
X144705258Y-92532271D01*
X144858071Y-92471768D01*
X144938241Y-92413521D01*
X145002414Y-92389846D01*
X145069503Y-92403191D01*
X145119733Y-92449623D01*
X145138300Y-92515458D01*
X145138300Y-97674250D01*
X145124924Y-97730746D01*
X145087636Y-97775247D01*
X145034354Y-97798305D01*
X144976388Y-97795024D01*
X144941632Y-97775055D01*
X144941542Y-97775220D01*
X144783571Y-97688374D01*
X144783568Y-97688373D01*
X144624377Y-97647500D01*
X144501275Y-97647500D01*
X144501272Y-97647500D01*
X144379144Y-97662928D01*
X144377318Y-97663651D01*
X144226329Y-97723432D01*
X144226327Y-97723433D01*
X144226328Y-97723433D01*
X144093362Y-97820037D01*
X143988599Y-97946674D01*
X143918620Y-98095386D01*
X143887823Y-98256830D01*
X143898143Y-98420859D01*
X143948932Y-98577172D01*
X144036997Y-98715939D01*
X144156808Y-98828449D01*
X144300828Y-98907625D01*
X144300832Y-98907627D01*
X144460023Y-98948500D01*
X144583125Y-98948500D01*
X144583128Y-98948500D01*
X144644191Y-98940785D01*
X144705258Y-98933071D01*
X144858071Y-98872568D01*
X144938241Y-98814321D01*
X145002414Y-98790646D01*
X145069503Y-98803991D01*
X145119733Y-98850423D01*
X145138300Y-98916258D01*
X145138300Y-116081358D01*
X145138119Y-116082274D01*
X145138283Y-116140144D01*
X145137712Y-116152497D01*
X145124628Y-116289285D01*
X145119877Y-116313525D01*
X145082153Y-116439155D01*
X145072763Y-116462004D01*
X145011250Y-116577863D01*
X144997585Y-116598439D01*
X144930787Y-116680297D01*
X144914657Y-116700063D01*
X144897238Y-116717578D01*
X144796066Y-116801078D01*
X144775566Y-116814858D01*
X144660056Y-116877011D01*
X144637261Y-116886527D01*
X144511845Y-116924949D01*
X144487630Y-116929835D01*
X144351106Y-116943659D01*
X144338413Y-116944300D01*
X84747600Y-116944300D01*
X84684600Y-116927419D01*
X84638481Y-116881300D01*
X84621600Y-116818300D01*
X84621600Y-114622192D01*
X101851800Y-114622192D01*
X101891366Y-114859297D01*
X101891367Y-114859299D01*
X101969416Y-115086652D01*
X101969417Y-115086655D01*
X101969418Y-115086656D01*
X102083828Y-115298067D01*
X102231475Y-115487764D01*
X102408331Y-115650571D01*
X102609572Y-115782049D01*
X102829709Y-115878610D01*
X103062737Y-115937620D01*
X103242310Y-115952500D01*
X103362285Y-115952500D01*
X103362290Y-115952500D01*
X103541863Y-115937620D01*
X103774891Y-115878610D01*
X103995028Y-115782049D01*
X104196269Y-115650571D01*
X104373125Y-115487764D01*
X104520772Y-115298067D01*
X104635182Y-115086656D01*
X104713234Y-114859297D01*
X104752800Y-114622192D01*
X104752800Y-114381808D01*
X104713234Y-114144703D01*
X104635182Y-113917344D01*
X104520772Y-113705933D01*
X104373125Y-113516236D01*
X104337618Y-113483550D01*
X104196272Y-113353432D01*
X104196269Y-113353429D01*
X103995028Y-113221951D01*
X103995025Y-113221949D01*
X103995024Y-113221949D01*
X103833960Y-113151300D01*
X103774891Y-113125390D01*
X103541863Y-113066380D01*
X103362290Y-113051500D01*
X103242310Y-113051500D01*
X103062737Y-113066380D01*
X102829709Y-113125390D01*
X102829705Y-113125391D01*
X102829704Y-113125392D01*
X102609575Y-113221949D01*
X102609571Y-113221951D01*
X102609572Y-113221951D01*
X102408331Y-113353429D01*
X102408329Y-113353430D01*
X102408327Y-113353432D01*
X102231478Y-113516232D01*
X102083829Y-113705931D01*
X101969416Y-113917347D01*
X101920072Y-114061084D01*
X101891366Y-114144703D01*
X101851800Y-114381808D01*
X101851800Y-114622192D01*
X84621600Y-114622192D01*
X84621600Y-109694800D01*
X68381600Y-109694800D01*
X68381600Y-116818300D01*
X68364719Y-116881300D01*
X68318600Y-116927419D01*
X68255600Y-116944300D01*
X50808645Y-116944300D01*
X50795089Y-116943569D01*
X50662753Y-116929248D01*
X50638574Y-116924196D01*
X50516855Y-116885989D01*
X50494125Y-116876316D01*
X50382200Y-116815096D01*
X50361795Y-116801175D01*
X50328071Y-116772949D01*
X50263961Y-116719291D01*
X50246669Y-116701661D01*
X50166692Y-116602263D01*
X50153172Y-116581601D01*
X50094118Y-116468499D01*
X50084889Y-116445590D01*
X50080842Y-116431769D01*
X50049042Y-116323156D01*
X50044460Y-116298892D01*
X50032636Y-116165585D01*
X50032150Y-116153268D01*
X50032478Y-116119569D01*
X50032477Y-116119566D01*
X50032694Y-116097247D01*
X50032103Y-116094199D01*
X50032107Y-116023548D01*
X50032185Y-114622192D01*
X50931800Y-114622192D01*
X50971366Y-114859297D01*
X50971367Y-114859299D01*
X51049416Y-115086652D01*
X51049417Y-115086655D01*
X51049418Y-115086656D01*
X51163828Y-115298067D01*
X51311475Y-115487764D01*
X51488331Y-115650571D01*
X51689572Y-115782049D01*
X51909709Y-115878610D01*
X52142737Y-115937620D01*
X52322310Y-115952500D01*
X52442285Y-115952500D01*
X52442290Y-115952500D01*
X52621863Y-115937620D01*
X52854891Y-115878610D01*
X53075028Y-115782049D01*
X53276269Y-115650571D01*
X53453125Y-115487764D01*
X53600772Y-115298067D01*
X53715182Y-115086656D01*
X53793234Y-114859297D01*
X53832800Y-114622192D01*
X53832800Y-114381808D01*
X53793234Y-114144703D01*
X53715182Y-113917344D01*
X53600772Y-113705933D01*
X53453125Y-113516236D01*
X53417618Y-113483550D01*
X53276272Y-113353432D01*
X53276269Y-113353429D01*
X53075028Y-113221951D01*
X53075025Y-113221949D01*
X53075024Y-113221949D01*
X52913960Y-113151300D01*
X52854891Y-113125390D01*
X52621863Y-113066380D01*
X52442290Y-113051500D01*
X52322310Y-113051500D01*
X52142737Y-113066380D01*
X51909709Y-113125390D01*
X51909705Y-113125391D01*
X51909704Y-113125392D01*
X51689575Y-113221949D01*
X51689571Y-113221951D01*
X51689572Y-113221951D01*
X51488331Y-113353429D01*
X51488329Y-113353430D01*
X51488327Y-113353432D01*
X51311478Y-113516232D01*
X51163829Y-113705931D01*
X51049416Y-113917347D01*
X51000072Y-114061084D01*
X50971366Y-114144703D01*
X50931800Y-114381808D01*
X50931800Y-114622192D01*
X50032185Y-114622192D01*
X50032274Y-113029999D01*
X65398911Y-113029999D01*
X65418805Y-113206570D01*
X65477490Y-113374281D01*
X65572026Y-113524734D01*
X65697665Y-113650373D01*
X65697667Y-113650374D01*
X65697668Y-113650375D01*
X65848118Y-113744909D01*
X66015832Y-113803595D01*
X66192400Y-113823489D01*
X66368968Y-113803595D01*
X66536682Y-113744909D01*
X66687132Y-113650375D01*
X66812775Y-113524732D01*
X66907309Y-113374282D01*
X66965995Y-113206568D01*
X66985889Y-113030000D01*
X66965995Y-112853432D01*
X66907309Y-112685718D01*
X66812775Y-112535268D01*
X66812774Y-112535267D01*
X66812773Y-112535265D01*
X66687134Y-112409626D01*
X66536681Y-112315090D01*
X66368970Y-112256405D01*
X66192400Y-112236511D01*
X66015829Y-112256405D01*
X65848118Y-112315090D01*
X65697665Y-112409626D01*
X65572026Y-112535265D01*
X65477490Y-112685718D01*
X65418805Y-112853429D01*
X65398911Y-113029999D01*
X50032274Y-113029999D01*
X50032436Y-110134400D01*
X58236111Y-110134400D01*
X58256005Y-110310970D01*
X58314690Y-110478681D01*
X58409226Y-110629134D01*
X58534865Y-110754773D01*
X58534867Y-110754774D01*
X58534868Y-110754775D01*
X58685318Y-110849309D01*
X58853032Y-110907995D01*
X59029600Y-110927889D01*
X59206168Y-110907995D01*
X59373882Y-110849309D01*
X59524332Y-110754775D01*
X59649975Y-110629132D01*
X59744509Y-110478682D01*
X59803195Y-110310968D01*
X59823089Y-110134400D01*
X59803195Y-109957832D01*
X59744509Y-109790118D01*
X59649975Y-109639668D01*
X59649974Y-109639667D01*
X59649973Y-109639665D01*
X59524334Y-109514026D01*
X59373881Y-109419490D01*
X59206170Y-109360805D01*
X59029600Y-109340911D01*
X58853029Y-109360805D01*
X58685318Y-109419490D01*
X58534865Y-109514026D01*
X58409226Y-109639665D01*
X58314690Y-109790118D01*
X58256005Y-109957829D01*
X58236111Y-110134400D01*
X50032436Y-110134400D01*
X50032532Y-108407200D01*
X97758027Y-108407200D01*
X97776660Y-108572574D01*
X97831623Y-108729650D01*
X97920164Y-108870562D01*
X98037837Y-108988235D01*
X98178748Y-109076775D01*
X98178749Y-109076776D01*
X98335828Y-109131740D01*
X98501200Y-109150373D01*
X98666572Y-109131740D01*
X98823651Y-109076776D01*
X98964561Y-108988236D01*
X99082236Y-108870561D01*
X99170776Y-108729651D01*
X99225740Y-108572572D01*
X99244373Y-108407200D01*
X99225740Y-108241828D01*
X99209288Y-108194812D01*
X99170776Y-108084749D01*
X99082235Y-107943837D01*
X98964562Y-107826164D01*
X98823650Y-107737623D01*
X98666574Y-107682660D01*
X98501200Y-107664027D01*
X98335825Y-107682660D01*
X98178749Y-107737623D01*
X98037837Y-107826164D01*
X97920164Y-107943837D01*
X97831623Y-108084749D01*
X97776660Y-108241825D01*
X97758027Y-108407200D01*
X50032532Y-108407200D01*
X50032688Y-105618633D01*
X70247355Y-105618633D01*
X70251570Y-105656043D01*
X70265988Y-105784007D01*
X70320951Y-105941083D01*
X70409492Y-106081995D01*
X70527165Y-106199668D01*
X70527167Y-106199669D01*
X70668077Y-106288209D01*
X70825156Y-106343173D01*
X70990528Y-106361806D01*
X71155900Y-106343173D01*
X71312979Y-106288209D01*
X71453889Y-106199669D01*
X71571564Y-106081994D01*
X71583482Y-106063025D01*
X71623131Y-106023375D01*
X71676061Y-106004853D01*
X71731781Y-106011131D01*
X71831210Y-106045923D01*
X71996582Y-106064556D01*
X72161954Y-106045923D01*
X72319033Y-105990959D01*
X72459943Y-105902419D01*
X72470362Y-105892000D01*
X102979144Y-105892000D01*
X102997736Y-106116368D01*
X102997736Y-106116371D01*
X102997737Y-106116372D01*
X103053002Y-106334611D01*
X103053003Y-106334614D01*
X103053004Y-106334616D01*
X103057262Y-106344323D01*
X103143439Y-106540790D01*
X103266578Y-106729268D01*
X103409775Y-106884820D01*
X103439012Y-106938424D01*
X103439615Y-106999480D01*
X103411441Y-107053650D01*
X103361108Y-107088213D01*
X103335272Y-107097849D01*
X103246093Y-107131111D01*
X103129038Y-107218738D01*
X103041411Y-107335794D01*
X102990311Y-107472798D01*
X102990311Y-107472799D01*
X102983800Y-107533362D01*
X102983800Y-109330638D01*
X102990311Y-109391201D01*
X103000863Y-109419491D01*
X103041411Y-109528205D01*
X103129038Y-109645261D01*
X103246094Y-109732888D01*
X103246095Y-109732888D01*
X103246096Y-109732889D01*
X103383099Y-109783989D01*
X103443662Y-109790500D01*
X105240938Y-109790500D01*
X105301501Y-109783989D01*
X105438504Y-109732889D01*
X105555561Y-109645261D01*
X105643189Y-109528204D01*
X105694289Y-109391201D01*
X105700800Y-109330638D01*
X105700800Y-107533362D01*
X105694289Y-107472799D01*
X105643189Y-107335796D01*
X105614563Y-107297556D01*
X105555561Y-107218738D01*
X105438505Y-107131111D01*
X105376970Y-107108159D01*
X105323491Y-107088213D01*
X105273158Y-107053650D01*
X105244984Y-106999480D01*
X105245587Y-106938424D01*
X105274822Y-106884822D01*
X105418022Y-106729268D01*
X105541160Y-106540791D01*
X105631596Y-106334616D01*
X105686864Y-106116368D01*
X105705456Y-105892000D01*
X105686864Y-105667632D01*
X105631596Y-105449384D01*
X105541160Y-105243209D01*
X105418022Y-105054732D01*
X105265540Y-104889094D01*
X105265539Y-104889093D01*
X105265537Y-104889091D01*
X105087878Y-104750812D01*
X105054617Y-104732812D01*
X105006346Y-104686495D01*
X104988588Y-104621997D01*
X105006349Y-104557499D01*
X105054617Y-104511187D01*
X105087876Y-104493189D01*
X105265540Y-104354906D01*
X105418022Y-104189268D01*
X105541160Y-104000791D01*
X105631596Y-103794616D01*
X105686864Y-103576368D01*
X105705456Y-103352000D01*
X105686864Y-103127632D01*
X105668807Y-103056326D01*
X105668407Y-102996089D01*
X105696016Y-102942550D01*
X105745324Y-102907946D01*
X105805059Y-102900188D01*
X105820900Y-102901973D01*
X105986272Y-102883340D01*
X106143351Y-102828376D01*
X106284261Y-102739836D01*
X106401936Y-102622161D01*
X106490476Y-102481251D01*
X106545440Y-102324172D01*
X106564073Y-102158800D01*
X106545440Y-101993428D01*
X106490476Y-101836349D01*
X106401936Y-101695439D01*
X106401935Y-101695437D01*
X106274223Y-101567725D01*
X106276282Y-101565665D01*
X106250695Y-101538901D01*
X106234317Y-101479547D01*
X106248020Y-101419518D01*
X106288531Y-101373151D01*
X106346173Y-101351517D01*
X106491972Y-101335090D01*
X106649051Y-101280126D01*
X106789961Y-101191586D01*
X106907636Y-101073911D01*
X106996176Y-100933001D01*
X106996177Y-100932997D01*
X107000424Y-100926239D01*
X107044792Y-100883765D01*
X107103969Y-100867314D01*
X107163893Y-100880795D01*
X107210324Y-100921004D01*
X107245404Y-100971103D01*
X107407296Y-101132995D01*
X107407299Y-101132997D01*
X107407300Y-101132998D01*
X107594851Y-101264323D01*
X107628741Y-101280126D01*
X107634057Y-101282605D01*
X107687074Y-101329100D01*
X107706807Y-101396800D01*
X107687074Y-101464500D01*
X107634057Y-101510995D01*
X107594850Y-101529277D01*
X107407296Y-101660604D01*
X107245404Y-101822496D01*
X107114077Y-102010049D01*
X107017315Y-102217556D01*
X106958057Y-102438712D01*
X106938102Y-102666800D01*
X106958057Y-102894887D01*
X107017315Y-103116043D01*
X107114077Y-103323550D01*
X107245404Y-103511103D01*
X107407296Y-103672995D01*
X107407299Y-103672997D01*
X107407300Y-103672998D01*
X107594851Y-103804323D01*
X107629959Y-103820694D01*
X107634057Y-103822605D01*
X107687074Y-103869100D01*
X107706807Y-103936800D01*
X107687074Y-104004500D01*
X107634057Y-104050995D01*
X107594850Y-104069277D01*
X107407296Y-104200604D01*
X107245404Y-104362496D01*
X107114077Y-104550049D01*
X107017315Y-104757556D01*
X106958057Y-104978712D01*
X106938102Y-105206800D01*
X106958057Y-105434887D01*
X107017315Y-105656043D01*
X107114077Y-105863550D01*
X107245404Y-106051103D01*
X107407296Y-106212995D01*
X107407299Y-106212997D01*
X107407300Y-106212998D01*
X107594851Y-106344323D01*
X107629959Y-106360694D01*
X107634057Y-106362605D01*
X107687074Y-106409100D01*
X107706807Y-106476800D01*
X107687074Y-106544500D01*
X107634057Y-106590995D01*
X107594850Y-106609277D01*
X107407296Y-106740604D01*
X107245404Y-106902496D01*
X107114077Y-107090049D01*
X107017315Y-107297556D01*
X106958057Y-107518712D01*
X106938102Y-107746800D01*
X106958057Y-107974887D01*
X107017315Y-108196043D01*
X107114077Y-108403550D01*
X107245404Y-108591103D01*
X107407296Y-108752995D01*
X107407299Y-108752997D01*
X107407300Y-108752998D01*
X107594851Y-108884323D01*
X107629959Y-108900694D01*
X107634057Y-108902605D01*
X107687074Y-108949100D01*
X107706807Y-109016800D01*
X107687074Y-109084500D01*
X107634057Y-109130995D01*
X107594850Y-109149277D01*
X107407296Y-109280604D01*
X107245404Y-109442496D01*
X107114077Y-109630049D01*
X107017315Y-109837556D01*
X106958057Y-110058712D01*
X106938102Y-110286800D01*
X106958057Y-110514887D01*
X107017315Y-110736043D01*
X107114077Y-110943550D01*
X107245404Y-111131103D01*
X107407296Y-111292995D01*
X107407299Y-111292997D01*
X107407300Y-111292998D01*
X107594851Y-111424323D01*
X107634057Y-111442605D01*
X107687073Y-111489098D01*
X107706807Y-111556797D01*
X107687075Y-111624497D01*
X107634059Y-111670993D01*
X107594851Y-111689276D01*
X107407296Y-111820604D01*
X107245404Y-111982496D01*
X107114077Y-112170049D01*
X107017315Y-112377556D01*
X106958057Y-112598712D01*
X106938102Y-112826800D01*
X106958057Y-113054887D01*
X107017315Y-113276043D01*
X107114077Y-113483550D01*
X107245404Y-113671103D01*
X107407296Y-113832995D01*
X107407299Y-113832997D01*
X107407300Y-113832998D01*
X107594851Y-113964323D01*
X107629959Y-113980694D01*
X107634057Y-113982605D01*
X107687074Y-114029100D01*
X107706807Y-114096800D01*
X107687074Y-114164500D01*
X107634057Y-114210995D01*
X107594850Y-114229277D01*
X107407296Y-114360604D01*
X107245404Y-114522496D01*
X107114077Y-114710049D01*
X107017315Y-114917556D01*
X106958057Y-115138712D01*
X106938102Y-115366800D01*
X106958057Y-115594887D01*
X107017315Y-115816043D01*
X107114077Y-116023550D01*
X107245404Y-116211103D01*
X107407296Y-116372995D01*
X107594849Y-116504322D01*
X107802356Y-116601084D01*
X107830877Y-116608726D01*
X108023513Y-116660343D01*
X108251600Y-116680298D01*
X108479687Y-116660343D01*
X108700843Y-116601084D01*
X108908349Y-116504323D01*
X109095900Y-116372998D01*
X109257798Y-116211100D01*
X109389123Y-116023549D01*
X109407404Y-115984343D01*
X109453900Y-115931325D01*
X109521600Y-115911592D01*
X109589300Y-115931325D01*
X109635795Y-115984343D01*
X109654076Y-116023548D01*
X109785404Y-116211103D01*
X109947296Y-116372995D01*
X110134849Y-116504322D01*
X110342356Y-116601084D01*
X110370877Y-116608726D01*
X110563513Y-116660343D01*
X110791600Y-116680298D01*
X111019687Y-116660343D01*
X111240843Y-116601084D01*
X111448349Y-116504323D01*
X111635900Y-116372998D01*
X111797798Y-116211100D01*
X111929123Y-116023549D01*
X111947404Y-115984343D01*
X111993900Y-115931325D01*
X112061600Y-115911592D01*
X112129300Y-115931325D01*
X112175795Y-115984343D01*
X112194076Y-116023548D01*
X112325404Y-116211103D01*
X112487296Y-116372995D01*
X112674849Y-116504322D01*
X112882356Y-116601084D01*
X112910877Y-116608726D01*
X113103513Y-116660343D01*
X113331600Y-116680298D01*
X113559687Y-116660343D01*
X113780843Y-116601084D01*
X113988349Y-116504323D01*
X114175900Y-116372998D01*
X114337798Y-116211100D01*
X114469123Y-116023549D01*
X114487404Y-115984343D01*
X114533900Y-115931325D01*
X114601600Y-115911592D01*
X114669300Y-115931325D01*
X114715795Y-115984343D01*
X114734076Y-116023548D01*
X114865404Y-116211103D01*
X115027296Y-116372995D01*
X115214849Y-116504322D01*
X115422356Y-116601084D01*
X115450877Y-116608726D01*
X115643513Y-116660343D01*
X115871600Y-116680298D01*
X116099687Y-116660343D01*
X116320843Y-116601084D01*
X116528349Y-116504323D01*
X116715900Y-116372998D01*
X116877798Y-116211100D01*
X117009123Y-116023549D01*
X117027404Y-115984343D01*
X117073900Y-115931325D01*
X117141600Y-115911592D01*
X117209300Y-115931325D01*
X117255795Y-115984343D01*
X117274076Y-116023548D01*
X117405404Y-116211103D01*
X117567296Y-116372995D01*
X117754849Y-116504322D01*
X117962356Y-116601084D01*
X117990877Y-116608726D01*
X118183513Y-116660343D01*
X118411600Y-116680298D01*
X118639687Y-116660343D01*
X118860843Y-116601084D01*
X119068349Y-116504323D01*
X119255900Y-116372998D01*
X119417798Y-116211100D01*
X119549123Y-116023549D01*
X119567404Y-115984343D01*
X119613900Y-115931325D01*
X119681600Y-115911592D01*
X119749300Y-115931325D01*
X119795795Y-115984343D01*
X119814076Y-116023548D01*
X119945404Y-116211103D01*
X120107296Y-116372995D01*
X120294849Y-116504322D01*
X120502356Y-116601084D01*
X120530877Y-116608726D01*
X120723513Y-116660343D01*
X120951600Y-116680298D01*
X121179687Y-116660343D01*
X121400843Y-116601084D01*
X121608349Y-116504323D01*
X121795900Y-116372998D01*
X121957798Y-116211100D01*
X122089123Y-116023549D01*
X122107404Y-115984343D01*
X122153900Y-115931325D01*
X122221600Y-115911592D01*
X122289300Y-115931325D01*
X122335795Y-115984343D01*
X122354076Y-116023548D01*
X122485404Y-116211103D01*
X122647296Y-116372995D01*
X122834849Y-116504322D01*
X123042356Y-116601084D01*
X123070877Y-116608726D01*
X123263513Y-116660343D01*
X123491600Y-116680298D01*
X123719687Y-116660343D01*
X123940843Y-116601084D01*
X124148349Y-116504323D01*
X124335900Y-116372998D01*
X124497798Y-116211100D01*
X124629123Y-116023549D01*
X124725884Y-115816043D01*
X124785143Y-115594887D01*
X124805098Y-115366800D01*
X124785143Y-115138713D01*
X124741762Y-114976814D01*
X124725884Y-114917556D01*
X124629122Y-114710049D01*
X124497795Y-114522496D01*
X124477098Y-114501799D01*
X141392141Y-114501799D01*
X141412737Y-114737209D01*
X141473896Y-114965462D01*
X141573765Y-115179629D01*
X141709307Y-115373204D01*
X141876395Y-115540292D01*
X141876398Y-115540294D01*
X141876399Y-115540295D01*
X142069971Y-115675835D01*
X142284137Y-115775703D01*
X142512392Y-115836863D01*
X142688834Y-115852300D01*
X142806760Y-115852300D01*
X142806766Y-115852300D01*
X142983208Y-115836863D01*
X143211463Y-115775703D01*
X143425629Y-115675835D01*
X143619201Y-115540295D01*
X143786295Y-115373201D01*
X143921835Y-115179630D01*
X144021703Y-114965463D01*
X144082863Y-114737208D01*
X144103459Y-114501800D01*
X144082863Y-114266392D01*
X144021703Y-114038137D01*
X143921835Y-113823971D01*
X143786295Y-113630399D01*
X143786294Y-113630398D01*
X143786292Y-113630395D01*
X143619204Y-113463307D01*
X143425629Y-113327765D01*
X143211462Y-113227896D01*
X142983209Y-113166737D01*
X142958001Y-113164531D01*
X142806766Y-113151300D01*
X142688834Y-113151300D01*
X142556502Y-113162877D01*
X142512390Y-113166737D01*
X142284137Y-113227896D01*
X142069970Y-113327765D01*
X141876395Y-113463307D01*
X141709307Y-113630395D01*
X141573765Y-113823969D01*
X141473896Y-114038136D01*
X141412737Y-114266390D01*
X141392141Y-114501799D01*
X124477098Y-114501799D01*
X124335903Y-114360604D01*
X124148348Y-114229276D01*
X124109143Y-114210995D01*
X124056125Y-114164500D01*
X124036392Y-114096800D01*
X124056125Y-114029100D01*
X124109143Y-113982605D01*
X124113763Y-113980450D01*
X124148349Y-113964323D01*
X124335900Y-113832998D01*
X124497798Y-113671100D01*
X124629123Y-113483549D01*
X124725884Y-113276043D01*
X124785143Y-113054887D01*
X124805098Y-112826800D01*
X124785143Y-112598713D01*
X124725884Y-112377557D01*
X124723761Y-112373005D01*
X124629122Y-112170049D01*
X124534139Y-112034400D01*
X133433193Y-112034400D01*
X133452759Y-112208057D01*
X133510478Y-112373006D01*
X133533488Y-112409626D01*
X133603455Y-112520979D01*
X133727020Y-112644544D01*
X133727022Y-112644545D01*
X133727024Y-112644547D01*
X133874994Y-112737522D01*
X134039943Y-112795241D01*
X134170048Y-112809900D01*
X134257150Y-112809900D01*
X134257152Y-112809900D01*
X134387257Y-112795241D01*
X134552206Y-112737522D01*
X134700176Y-112644547D01*
X134823747Y-112520976D01*
X134916722Y-112373006D01*
X134974441Y-112208057D01*
X134994007Y-112034400D01*
X134974441Y-111860743D01*
X134916722Y-111695794D01*
X134823747Y-111547824D01*
X134823745Y-111547822D01*
X134823744Y-111547820D01*
X134700179Y-111424255D01*
X134700176Y-111424253D01*
X134552206Y-111331278D01*
X134387257Y-111273559D01*
X134257152Y-111258900D01*
X134170048Y-111258900D01*
X134083311Y-111268672D01*
X134039942Y-111273559D01*
X133874994Y-111331278D01*
X133727020Y-111424255D01*
X133603455Y-111547820D01*
X133510478Y-111695794D01*
X133452759Y-111860742D01*
X133439040Y-111982500D01*
X133433193Y-112034400D01*
X124534139Y-112034400D01*
X124497795Y-111982496D01*
X124335903Y-111820604D01*
X124148348Y-111689276D01*
X124109143Y-111670995D01*
X124056125Y-111624500D01*
X124036392Y-111556800D01*
X124056125Y-111489100D01*
X124109143Y-111442605D01*
X124113763Y-111440450D01*
X124148349Y-111424323D01*
X124335900Y-111292998D01*
X124497798Y-111131100D01*
X124629123Y-110943549D01*
X124725884Y-110736043D01*
X124785143Y-110514887D01*
X124805098Y-110286800D01*
X124785143Y-110058713D01*
X124725884Y-109837557D01*
X124677076Y-109732888D01*
X124629122Y-109630049D01*
X124497795Y-109442496D01*
X124335903Y-109280604D01*
X124148348Y-109149276D01*
X124109143Y-109130995D01*
X124056125Y-109084500D01*
X124036392Y-109016800D01*
X124056125Y-108949100D01*
X124109143Y-108902605D01*
X124113763Y-108900450D01*
X124148349Y-108884323D01*
X124335900Y-108752998D01*
X124497798Y-108591100D01*
X124629123Y-108403549D01*
X124725884Y-108196043D01*
X124726214Y-108194812D01*
X133584372Y-108194812D01*
X133594295Y-108352535D01*
X133643133Y-108502843D01*
X133727812Y-108636275D01*
X133727813Y-108636276D01*
X133727814Y-108636277D01*
X133843018Y-108744462D01*
X133981508Y-108820597D01*
X133981510Y-108820597D01*
X133981511Y-108820598D01*
X134134579Y-108859900D01*
X134134581Y-108859900D01*
X134252947Y-108859900D01*
X134252950Y-108859900D01*
X134370392Y-108845064D01*
X134517332Y-108786886D01*
X134645187Y-108693994D01*
X134745924Y-108572223D01*
X134813214Y-108429226D01*
X134842827Y-108273988D01*
X134832904Y-108116262D01*
X134784067Y-107965959D01*
X134784066Y-107965958D01*
X134784066Y-107965956D01*
X134699387Y-107832524D01*
X134584183Y-107724339D01*
X134584182Y-107724338D01*
X134445692Y-107648203D01*
X134445691Y-107648202D01*
X134445688Y-107648201D01*
X134292621Y-107608900D01*
X134292619Y-107608900D01*
X134174250Y-107608900D01*
X134086168Y-107620026D01*
X134056807Y-107623736D01*
X133909867Y-107681914D01*
X133782012Y-107774805D01*
X133681276Y-107896576D01*
X133613985Y-108039575D01*
X133584372Y-108194812D01*
X124726214Y-108194812D01*
X124785143Y-107974887D01*
X124805098Y-107746800D01*
X124785143Y-107518713D01*
X124725884Y-107297557D01*
X124689130Y-107218738D01*
X124629122Y-107090049D01*
X124497795Y-106902496D01*
X124335903Y-106740604D01*
X124148348Y-106609276D01*
X124109143Y-106590995D01*
X124056125Y-106544500D01*
X124036392Y-106476800D01*
X124056125Y-106409100D01*
X124109143Y-106362605D01*
X124113763Y-106360450D01*
X124148349Y-106344323D01*
X124335900Y-106212998D01*
X124497798Y-106051100D01*
X124629123Y-105863549D01*
X124725884Y-105656043D01*
X124785143Y-105434887D01*
X124805098Y-105206800D01*
X124785143Y-104978713D01*
X124725884Y-104757557D01*
X124722738Y-104750811D01*
X124641340Y-104576251D01*
X124629123Y-104550051D01*
X124620141Y-104537224D01*
X124497795Y-104362496D01*
X124427698Y-104292399D01*
X137585227Y-104292399D01*
X137603860Y-104457774D01*
X137658823Y-104614850D01*
X137747364Y-104755762D01*
X137865037Y-104873435D01*
X137897914Y-104894093D01*
X138005949Y-104961976D01*
X138163028Y-105016940D01*
X138328400Y-105035573D01*
X138493772Y-105016940D01*
X138650851Y-104961976D01*
X138791761Y-104873436D01*
X138909436Y-104755761D01*
X138997976Y-104614851D01*
X139052940Y-104457772D01*
X139071573Y-104292400D01*
X139052940Y-104127028D01*
X138997976Y-103969949D01*
X138909436Y-103829039D01*
X138909435Y-103829037D01*
X138791762Y-103711364D01*
X138650850Y-103622823D01*
X138493774Y-103567860D01*
X138328400Y-103549227D01*
X138163025Y-103567860D01*
X138005949Y-103622823D01*
X137865037Y-103711364D01*
X137747364Y-103829037D01*
X137658823Y-103969949D01*
X137603860Y-104127025D01*
X137585227Y-104292399D01*
X124427698Y-104292399D01*
X124335903Y-104200604D01*
X124148348Y-104069276D01*
X124109143Y-104050995D01*
X124056125Y-104004500D01*
X124036392Y-103936800D01*
X124056125Y-103869100D01*
X124109143Y-103822605D01*
X124113763Y-103820450D01*
X124148349Y-103804323D01*
X124335900Y-103672998D01*
X124497798Y-103511100D01*
X124629123Y-103323549D01*
X124725884Y-103116043D01*
X124785143Y-102894887D01*
X124805098Y-102666800D01*
X124785143Y-102438713D01*
X124725884Y-102217557D01*
X124722738Y-102210811D01*
X124629122Y-102010049D01*
X124497795Y-101822496D01*
X124335903Y-101660604D01*
X124148348Y-101529276D01*
X124109143Y-101510995D01*
X124056125Y-101464500D01*
X124036392Y-101396800D01*
X124056125Y-101329100D01*
X124109143Y-101282605D01*
X124114459Y-101280126D01*
X124148349Y-101264323D01*
X124335900Y-101132998D01*
X124497798Y-100971100D01*
X124555425Y-100888800D01*
X127832111Y-100888800D01*
X127852005Y-101065370D01*
X127910690Y-101233081D01*
X128005226Y-101383534D01*
X128130865Y-101509173D01*
X128281318Y-101603709D01*
X128362088Y-101631972D01*
X128449032Y-101662395D01*
X128625600Y-101682289D01*
X128802168Y-101662395D01*
X128969882Y-101603709D01*
X129120332Y-101509175D01*
X129245975Y-101383532D01*
X129340509Y-101233082D01*
X129399195Y-101065368D01*
X129419089Y-100888800D01*
X129399195Y-100712232D01*
X129340509Y-100544518D01*
X129245975Y-100394068D01*
X129245974Y-100394067D01*
X129245973Y-100394065D01*
X129120334Y-100268426D01*
X128969881Y-100173890D01*
X128802170Y-100115205D01*
X128625600Y-100095311D01*
X128449029Y-100115205D01*
X128281318Y-100173890D01*
X128130865Y-100268426D01*
X128005226Y-100394065D01*
X127910690Y-100544518D01*
X127852005Y-100712229D01*
X127832111Y-100888800D01*
X124555425Y-100888800D01*
X124629123Y-100783549D01*
X124725884Y-100576043D01*
X124785143Y-100354887D01*
X124805098Y-100126800D01*
X124785143Y-99898713D01*
X124733658Y-99706570D01*
X124725884Y-99677556D01*
X124632597Y-99477502D01*
X124629123Y-99470051D01*
X124625794Y-99465297D01*
X124497795Y-99282496D01*
X124335903Y-99120604D01*
X124148348Y-98989276D01*
X124109143Y-98970995D01*
X124056125Y-98924500D01*
X124036392Y-98856800D01*
X124056125Y-98789100D01*
X124109143Y-98742605D01*
X124113763Y-98740450D01*
X124148349Y-98724323D01*
X124335900Y-98592998D01*
X124497798Y-98431100D01*
X124629123Y-98243549D01*
X124725884Y-98036043D01*
X124785143Y-97814887D01*
X124805098Y-97586800D01*
X124805098Y-97586799D01*
X135350027Y-97586799D01*
X135368660Y-97752174D01*
X135423623Y-97909250D01*
X135512164Y-98050162D01*
X135629837Y-98167835D01*
X135629839Y-98167836D01*
X135770749Y-98256376D01*
X135927828Y-98311340D01*
X136093200Y-98329973D01*
X136258572Y-98311340D01*
X136414354Y-98256830D01*
X142087823Y-98256830D01*
X142098143Y-98420859D01*
X142148932Y-98577172D01*
X142236997Y-98715939D01*
X142356808Y-98828449D01*
X142500828Y-98907625D01*
X142500832Y-98907627D01*
X142660023Y-98948500D01*
X142783125Y-98948500D01*
X142783128Y-98948500D01*
X142844191Y-98940785D01*
X142905258Y-98933071D01*
X143058071Y-98872568D01*
X143191037Y-98775963D01*
X143295800Y-98649326D01*
X143365779Y-98500613D01*
X143396576Y-98339170D01*
X143386256Y-98175140D01*
X143335468Y-98018829D01*
X143330357Y-98010776D01*
X143247402Y-97880060D01*
X143127591Y-97767550D01*
X142983571Y-97688374D01*
X142983568Y-97688373D01*
X142824377Y-97647500D01*
X142701275Y-97647500D01*
X142701272Y-97647500D01*
X142579144Y-97662928D01*
X142577318Y-97663651D01*
X142426329Y-97723432D01*
X142426327Y-97723433D01*
X142426328Y-97723433D01*
X142293362Y-97820037D01*
X142188599Y-97946674D01*
X142118620Y-98095386D01*
X142087823Y-98256830D01*
X136414354Y-98256830D01*
X136415651Y-98256376D01*
X136556561Y-98167836D01*
X136674236Y-98050161D01*
X136762776Y-97909251D01*
X136817740Y-97752172D01*
X136836373Y-97586800D01*
X136817740Y-97421428D01*
X136762776Y-97264349D01*
X136707154Y-97175828D01*
X136674235Y-97123437D01*
X136556562Y-97005764D01*
X136415650Y-96917223D01*
X136258574Y-96862260D01*
X136093200Y-96843627D01*
X135927825Y-96862260D01*
X135770749Y-96917223D01*
X135629837Y-97005764D01*
X135512164Y-97123437D01*
X135423623Y-97264349D01*
X135368660Y-97421425D01*
X135350027Y-97586799D01*
X124805098Y-97586799D01*
X124785143Y-97358713D01*
X124725884Y-97137557D01*
X124722739Y-97130813D01*
X124629122Y-96930049D01*
X124527579Y-96785032D01*
X124497798Y-96742500D01*
X124497797Y-96742499D01*
X124497795Y-96742496D01*
X124335903Y-96580604D01*
X124148348Y-96449276D01*
X124109143Y-96430995D01*
X124056125Y-96384500D01*
X124036392Y-96316800D01*
X124056125Y-96249100D01*
X124109143Y-96202605D01*
X124113763Y-96200450D01*
X124148349Y-96184323D01*
X124335900Y-96052998D01*
X124497798Y-95891100D01*
X124629123Y-95703549D01*
X124725884Y-95496043D01*
X124785143Y-95274887D01*
X124805098Y-95046800D01*
X124805098Y-95046799D01*
X136722111Y-95046799D01*
X136742005Y-95223370D01*
X136800690Y-95391081D01*
X136895226Y-95541534D01*
X137020865Y-95667173D01*
X137020867Y-95667174D01*
X137020868Y-95667175D01*
X137171318Y-95761709D01*
X137339032Y-95820395D01*
X137515600Y-95840289D01*
X137692168Y-95820395D01*
X137859882Y-95761709D01*
X138010332Y-95667175D01*
X138135975Y-95541532D01*
X138230509Y-95391082D01*
X138289195Y-95223368D01*
X138309089Y-95046800D01*
X138289195Y-94870232D01*
X138277719Y-94837437D01*
X138230509Y-94702518D01*
X138151176Y-94576260D01*
X138135975Y-94552068D01*
X138135974Y-94552067D01*
X138135973Y-94552065D01*
X138010334Y-94426426D01*
X137859881Y-94331890D01*
X137692170Y-94273205D01*
X137515600Y-94253311D01*
X137339029Y-94273205D01*
X137171318Y-94331890D01*
X137020865Y-94426426D01*
X136895226Y-94552065D01*
X136800690Y-94702518D01*
X136742005Y-94870229D01*
X136722111Y-95046799D01*
X124805098Y-95046799D01*
X124785143Y-94818713D01*
X124725884Y-94597557D01*
X124722739Y-94590813D01*
X124629122Y-94390049D01*
X124497795Y-94202496D01*
X124335903Y-94040604D01*
X124148348Y-93909276D01*
X124109143Y-93890995D01*
X124056125Y-93844500D01*
X124036392Y-93776800D01*
X124056125Y-93709100D01*
X124109143Y-93662605D01*
X124113763Y-93660450D01*
X124148349Y-93644323D01*
X124335900Y-93512998D01*
X124497798Y-93351100D01*
X124629123Y-93163549D01*
X124725884Y-92956043D01*
X124785143Y-92734887D01*
X124805098Y-92506800D01*
X124785143Y-92278713D01*
X124764588Y-92202000D01*
X137992111Y-92202000D01*
X138012005Y-92378570D01*
X138070690Y-92546281D01*
X138165226Y-92696734D01*
X138290865Y-92822373D01*
X138290867Y-92822374D01*
X138290868Y-92822375D01*
X138441318Y-92916909D01*
X138609032Y-92975595D01*
X138785600Y-92995489D01*
X138962168Y-92975595D01*
X139129882Y-92916909D01*
X139280332Y-92822375D01*
X139405975Y-92696732D01*
X139500509Y-92546282D01*
X139559195Y-92378568D01*
X139579089Y-92202000D01*
X139559195Y-92025432D01*
X139500509Y-91857718D01*
X139499448Y-91856030D01*
X142087823Y-91856030D01*
X142098143Y-92020059D01*
X142148932Y-92176372D01*
X142236997Y-92315139D01*
X142356808Y-92427649D01*
X142437060Y-92471768D01*
X142500832Y-92506827D01*
X142660023Y-92547700D01*
X142783125Y-92547700D01*
X142783128Y-92547700D01*
X142844191Y-92539985D01*
X142905258Y-92532271D01*
X143058071Y-92471768D01*
X143191037Y-92375163D01*
X143295800Y-92248526D01*
X143365779Y-92099813D01*
X143396576Y-91938370D01*
X143386256Y-91774340D01*
X143335468Y-91618029D01*
X143247402Y-91479260D01*
X143127593Y-91366752D01*
X143127591Y-91366750D01*
X142983571Y-91287574D01*
X142983568Y-91287573D01*
X142824377Y-91246700D01*
X142701275Y-91246700D01*
X142701272Y-91246700D01*
X142579144Y-91262128D01*
X142552907Y-91272516D01*
X142426329Y-91322632D01*
X142426327Y-91322633D01*
X142426328Y-91322633D01*
X142293362Y-91419237D01*
X142188599Y-91545874D01*
X142118620Y-91694586D01*
X142087823Y-91856030D01*
X139499448Y-91856030D01*
X139405975Y-91707268D01*
X139405974Y-91707267D01*
X139405973Y-91707265D01*
X139280334Y-91581626D01*
X139129881Y-91487090D01*
X138962170Y-91428405D01*
X138785600Y-91408511D01*
X138609029Y-91428405D01*
X138441318Y-91487090D01*
X138290865Y-91581626D01*
X138165226Y-91707265D01*
X138070690Y-91857718D01*
X138012005Y-92025429D01*
X137992111Y-92202000D01*
X124764588Y-92202000D01*
X124725884Y-92057557D01*
X124722739Y-92050813D01*
X124632465Y-91857218D01*
X124629123Y-91850051D01*
X124601710Y-91810902D01*
X124497795Y-91662496D01*
X124335903Y-91500604D01*
X124148348Y-91369276D01*
X124109143Y-91350995D01*
X124056125Y-91304500D01*
X124036392Y-91236800D01*
X124056125Y-91169100D01*
X124109143Y-91122605D01*
X124113763Y-91120450D01*
X124148349Y-91104323D01*
X124335900Y-90972998D01*
X124497798Y-90811100D01*
X124629123Y-90623549D01*
X124725884Y-90416043D01*
X124785143Y-90194887D01*
X124805098Y-89966800D01*
X127984511Y-89966800D01*
X127989412Y-90010297D01*
X128004405Y-90143370D01*
X128063090Y-90311081D01*
X128157626Y-90461534D01*
X128283265Y-90587173D01*
X128283267Y-90587174D01*
X128283268Y-90587175D01*
X128433718Y-90681709D01*
X128601432Y-90740395D01*
X128778000Y-90760289D01*
X128954568Y-90740395D01*
X129122282Y-90681709D01*
X129272732Y-90587175D01*
X129398375Y-90461532D01*
X129492909Y-90311082D01*
X129551595Y-90143368D01*
X129571489Y-89966800D01*
X129551595Y-89790232D01*
X129492909Y-89622518D01*
X129398375Y-89472068D01*
X129398374Y-89472067D01*
X129398373Y-89472065D01*
X129272734Y-89346426D01*
X129122281Y-89251890D01*
X128954570Y-89193205D01*
X128778000Y-89173311D01*
X128601429Y-89193205D01*
X128433718Y-89251890D01*
X128283265Y-89346426D01*
X128157626Y-89472065D01*
X128063090Y-89622518D01*
X128004405Y-89790229D01*
X127991729Y-89902734D01*
X127984511Y-89966800D01*
X124805098Y-89966800D01*
X124785143Y-89738713D01*
X124775572Y-89702995D01*
X124743840Y-89584570D01*
X124725884Y-89517557D01*
X124725882Y-89517554D01*
X124723432Y-89508408D01*
X124720789Y-89455466D01*
X124740155Y-89406121D01*
X124778102Y-89369109D01*
X124872093Y-89310050D01*
X124923361Y-89277836D01*
X125041036Y-89160161D01*
X125129576Y-89019251D01*
X125184540Y-88862172D01*
X125203173Y-88696800D01*
X125184540Y-88531428D01*
X125129576Y-88374349D01*
X125049907Y-88247557D01*
X125041035Y-88233437D01*
X124923362Y-88115764D01*
X124778102Y-88024491D01*
X124740155Y-87987479D01*
X124720789Y-87938134D01*
X124723432Y-87885192D01*
X124785142Y-87654891D01*
X124785142Y-87654890D01*
X124785143Y-87654887D01*
X124805098Y-87426800D01*
X124785143Y-87198713D01*
X124725884Y-86977557D01*
X124629123Y-86770051D01*
X124497798Y-86582500D01*
X124497797Y-86582499D01*
X124497795Y-86582496D01*
X124335903Y-86420604D01*
X124148348Y-86289276D01*
X124109143Y-86270995D01*
X124056125Y-86224500D01*
X124036392Y-86156800D01*
X124056125Y-86089100D01*
X124109143Y-86042605D01*
X124130813Y-86032500D01*
X124148349Y-86024323D01*
X124335900Y-85892998D01*
X124497798Y-85731100D01*
X124619824Y-85556830D01*
X142087823Y-85556830D01*
X142098143Y-85720859D01*
X142148932Y-85877172D01*
X142236997Y-86015939D01*
X142356808Y-86128449D01*
X142500828Y-86207625D01*
X142500832Y-86207627D01*
X142660023Y-86248500D01*
X142783125Y-86248500D01*
X142783128Y-86248500D01*
X142844191Y-86240785D01*
X142905258Y-86233071D01*
X143058071Y-86172568D01*
X143191037Y-86075963D01*
X143295800Y-85949326D01*
X143365779Y-85800613D01*
X143396576Y-85639170D01*
X143392083Y-85567764D01*
X143386256Y-85475140D01*
X143378518Y-85451325D01*
X143335468Y-85318829D01*
X143247402Y-85180060D01*
X143127593Y-85067552D01*
X143127591Y-85067550D01*
X142983571Y-84988374D01*
X142983568Y-84988373D01*
X142824377Y-84947500D01*
X142701275Y-84947500D01*
X142701272Y-84947500D01*
X142579144Y-84962928D01*
X142550548Y-84974250D01*
X142426329Y-85023432D01*
X142426327Y-85023433D01*
X142426328Y-85023433D01*
X142293362Y-85120037D01*
X142188599Y-85246674D01*
X142118620Y-85395386D01*
X142087823Y-85556830D01*
X124619824Y-85556830D01*
X124629123Y-85543549D01*
X124725884Y-85336043D01*
X124785143Y-85114887D01*
X124805098Y-84886800D01*
X124785143Y-84658713D01*
X124732193Y-84461103D01*
X124725884Y-84437556D01*
X124629122Y-84230049D01*
X124497795Y-84042496D01*
X124335903Y-83880604D01*
X124148348Y-83749276D01*
X124109143Y-83730995D01*
X124056125Y-83684500D01*
X124036392Y-83616800D01*
X124056125Y-83549100D01*
X124109143Y-83502605D01*
X124113763Y-83500450D01*
X124148349Y-83484323D01*
X124335900Y-83352998D01*
X124497798Y-83191100D01*
X124629123Y-83003549D01*
X124725884Y-82796043D01*
X124785143Y-82574887D01*
X124805098Y-82346800D01*
X124785143Y-82118713D01*
X124725884Y-81897557D01*
X124629123Y-81690051D01*
X124497798Y-81502500D01*
X124497797Y-81502499D01*
X124497795Y-81502496D01*
X124335903Y-81340604D01*
X124148350Y-81209277D01*
X123940843Y-81112515D01*
X123719687Y-81053257D01*
X123491600Y-81033302D01*
X123263512Y-81053257D01*
X123042356Y-81112515D01*
X122834849Y-81209277D01*
X122647296Y-81340604D01*
X122485404Y-81502496D01*
X122354077Y-81690049D01*
X122257315Y-81897556D01*
X122198057Y-82118712D01*
X122178102Y-82346800D01*
X122198057Y-82574887D01*
X122257315Y-82796043D01*
X122354077Y-83003550D01*
X122485404Y-83191103D01*
X122647296Y-83352995D01*
X122647299Y-83352997D01*
X122647300Y-83352998D01*
X122834851Y-83484323D01*
X122869959Y-83500694D01*
X122874057Y-83502605D01*
X122927074Y-83549100D01*
X122946807Y-83616800D01*
X122927074Y-83684500D01*
X122874057Y-83730995D01*
X122834850Y-83749277D01*
X122647296Y-83880604D01*
X122485404Y-84042496D01*
X122354077Y-84230050D01*
X122335795Y-84269257D01*
X122289300Y-84322274D01*
X122221600Y-84342007D01*
X122153900Y-84322274D01*
X122107405Y-84269257D01*
X122105494Y-84265159D01*
X122089123Y-84230051D01*
X121957798Y-84042500D01*
X121957797Y-84042499D01*
X121957795Y-84042496D01*
X121795903Y-83880604D01*
X121608350Y-83749277D01*
X121400843Y-83652515D01*
X121179687Y-83593257D01*
X120951600Y-83573302D01*
X120723512Y-83593257D01*
X120502356Y-83652515D01*
X120294849Y-83749277D01*
X120107296Y-83880604D01*
X119945404Y-84042496D01*
X119814077Y-84230049D01*
X119717315Y-84437556D01*
X119658057Y-84658712D01*
X119638102Y-84886800D01*
X119658057Y-85114887D01*
X119717315Y-85336043D01*
X119814077Y-85543550D01*
X119945404Y-85731103D01*
X120107296Y-85892995D01*
X120294849Y-86024322D01*
X120502356Y-86121084D01*
X120529843Y-86128449D01*
X120723513Y-86180343D01*
X120951600Y-86200298D01*
X121179687Y-86180343D01*
X121400843Y-86121084D01*
X121608349Y-86024323D01*
X121795900Y-85892998D01*
X121957798Y-85731100D01*
X122089123Y-85543549D01*
X122107404Y-85504343D01*
X122153900Y-85451325D01*
X122221600Y-85431592D01*
X122289300Y-85451325D01*
X122335795Y-85504343D01*
X122354076Y-85543548D01*
X122485404Y-85731103D01*
X122647296Y-85892995D01*
X122647299Y-85892997D01*
X122647300Y-85892998D01*
X122834851Y-86024323D01*
X122874057Y-86042605D01*
X122927073Y-86089098D01*
X122946807Y-86156797D01*
X122927075Y-86224497D01*
X122874059Y-86270993D01*
X122834851Y-86289276D01*
X122647296Y-86420604D01*
X122485404Y-86582496D01*
X122354077Y-86770049D01*
X122257315Y-86977556D01*
X122198057Y-87198712D01*
X122178102Y-87426800D01*
X122198057Y-87654887D01*
X122257315Y-87876043D01*
X122354077Y-88083550D01*
X122485404Y-88271103D01*
X122647296Y-88432995D01*
X122647299Y-88432997D01*
X122647300Y-88432998D01*
X122834851Y-88564323D01*
X122869959Y-88580694D01*
X122874057Y-88582605D01*
X122927074Y-88629100D01*
X122946807Y-88696800D01*
X122927074Y-88764500D01*
X122874057Y-88810995D01*
X122834850Y-88829277D01*
X122647296Y-88960604D01*
X122485404Y-89122496D01*
X122354077Y-89310050D01*
X122335795Y-89349257D01*
X122289300Y-89402274D01*
X122221600Y-89422007D01*
X122153900Y-89402274D01*
X122107405Y-89349257D01*
X122105494Y-89345159D01*
X122089123Y-89310051D01*
X121957798Y-89122500D01*
X121957797Y-89122499D01*
X121957795Y-89122496D01*
X121795903Y-88960604D01*
X121608350Y-88829277D01*
X121400843Y-88732515D01*
X121179687Y-88673257D01*
X120951600Y-88653302D01*
X120723512Y-88673257D01*
X120502356Y-88732515D01*
X120294849Y-88829277D01*
X120107296Y-88960604D01*
X119945404Y-89122496D01*
X119814077Y-89310049D01*
X119717315Y-89517556D01*
X119658057Y-89738712D01*
X119638102Y-89966800D01*
X119658057Y-90194887D01*
X119717315Y-90416043D01*
X119814077Y-90623550D01*
X119945404Y-90811103D01*
X120107296Y-90972995D01*
X120107299Y-90972997D01*
X120107300Y-90972998D01*
X120294851Y-91104323D01*
X120329959Y-91120694D01*
X120334057Y-91122605D01*
X120387074Y-91169100D01*
X120406807Y-91236800D01*
X120387074Y-91304500D01*
X120334057Y-91350995D01*
X120294850Y-91369277D01*
X120107296Y-91500604D01*
X119945404Y-91662496D01*
X119814077Y-91850049D01*
X119717315Y-92057556D01*
X119658057Y-92278712D01*
X119638102Y-92506800D01*
X119658057Y-92734887D01*
X119717315Y-92956043D01*
X119814077Y-93163550D01*
X119945404Y-93351103D01*
X120107296Y-93512995D01*
X120107299Y-93512997D01*
X120107300Y-93512998D01*
X120294851Y-93644323D01*
X120329959Y-93660694D01*
X120334057Y-93662605D01*
X120387074Y-93709100D01*
X120406807Y-93776800D01*
X120387074Y-93844500D01*
X120334057Y-93890995D01*
X120294850Y-93909277D01*
X120107296Y-94040604D01*
X119945404Y-94202496D01*
X119814077Y-94390049D01*
X119717315Y-94597556D01*
X119658055Y-94818717D01*
X119643500Y-94985085D01*
X119619731Y-95048418D01*
X119566632Y-95090331D01*
X119499510Y-95098742D01*
X119437712Y-95071227D01*
X119399052Y-95015719D01*
X119385976Y-94978349D01*
X119305179Y-94849762D01*
X119297435Y-94837437D01*
X119179762Y-94719764D01*
X119038850Y-94631223D01*
X118881774Y-94576260D01*
X118716400Y-94557627D01*
X118551025Y-94576260D01*
X118393949Y-94631223D01*
X118253037Y-94719764D01*
X118135364Y-94837437D01*
X118046823Y-94978349D01*
X117991860Y-95135425D01*
X117973227Y-95300799D01*
X117991860Y-95466174D01*
X118046823Y-95623250D01*
X118135364Y-95764162D01*
X118253037Y-95881835D01*
X118355184Y-95946018D01*
X118393949Y-95970376D01*
X118551028Y-96025340D01*
X118716400Y-96043973D01*
X118881772Y-96025340D01*
X119038851Y-95970376D01*
X119179761Y-95881836D01*
X119297436Y-95764161D01*
X119385976Y-95623251D01*
X119440940Y-95466172D01*
X119445824Y-95422821D01*
X119471934Y-95359111D01*
X119527640Y-95318638D01*
X119596304Y-95313492D01*
X119657420Y-95345209D01*
X119692737Y-95404319D01*
X119717313Y-95496038D01*
X119814077Y-95703550D01*
X119945404Y-95891103D01*
X120107296Y-96052995D01*
X120294849Y-96184322D01*
X120502356Y-96281084D01*
X120536751Y-96290300D01*
X120723513Y-96340343D01*
X120951600Y-96360298D01*
X121179687Y-96340343D01*
X121400843Y-96281084D01*
X121608349Y-96184323D01*
X121795900Y-96052998D01*
X121957798Y-95891100D01*
X122089123Y-95703549D01*
X122107404Y-95664343D01*
X122153900Y-95611325D01*
X122221600Y-95591592D01*
X122289300Y-95611325D01*
X122335795Y-95664343D01*
X122354076Y-95703548D01*
X122485404Y-95891103D01*
X122647296Y-96052995D01*
X122647299Y-96052997D01*
X122647300Y-96052998D01*
X122834851Y-96184323D01*
X122874057Y-96202605D01*
X122927073Y-96249098D01*
X122946807Y-96316797D01*
X122927075Y-96384497D01*
X122874059Y-96430993D01*
X122834851Y-96449276D01*
X122647296Y-96580604D01*
X122485404Y-96742496D01*
X122354077Y-96930049D01*
X122257315Y-97137556D01*
X122198057Y-97358712D01*
X122178102Y-97586800D01*
X122198057Y-97814887D01*
X122257315Y-98036043D01*
X122354077Y-98243550D01*
X122485404Y-98431103D01*
X122647296Y-98592995D01*
X122647299Y-98592997D01*
X122647300Y-98592998D01*
X122834851Y-98724323D01*
X122874057Y-98742605D01*
X122927073Y-98789098D01*
X122946807Y-98856797D01*
X122927075Y-98924497D01*
X122874059Y-98970993D01*
X122834851Y-98989276D01*
X122647296Y-99120604D01*
X122485404Y-99282496D01*
X122354077Y-99470049D01*
X122257315Y-99677556D01*
X122198057Y-99898712D01*
X122178102Y-100126800D01*
X122198057Y-100354887D01*
X122257315Y-100576043D01*
X122354077Y-100783550D01*
X122485404Y-100971103D01*
X122647296Y-101132995D01*
X122647299Y-101132997D01*
X122647300Y-101132998D01*
X122834851Y-101264323D01*
X122868741Y-101280126D01*
X122874057Y-101282605D01*
X122927074Y-101329100D01*
X122946807Y-101396800D01*
X122927074Y-101464500D01*
X122874057Y-101510995D01*
X122834850Y-101529277D01*
X122647296Y-101660604D01*
X122485404Y-101822496D01*
X122354077Y-102010049D01*
X122257315Y-102217556D01*
X122198057Y-102438712D01*
X122178102Y-102666800D01*
X122198057Y-102894887D01*
X122257315Y-103116043D01*
X122354077Y-103323550D01*
X122485404Y-103511103D01*
X122647296Y-103672995D01*
X122647299Y-103672997D01*
X122647300Y-103672998D01*
X122834851Y-103804323D01*
X122869959Y-103820694D01*
X122874057Y-103822605D01*
X122927074Y-103869100D01*
X122946807Y-103936800D01*
X122927074Y-104004500D01*
X122874057Y-104050995D01*
X122834850Y-104069277D01*
X122647296Y-104200604D01*
X122485404Y-104362496D01*
X122354077Y-104550049D01*
X122257315Y-104757556D01*
X122198057Y-104978712D01*
X122178102Y-105206800D01*
X122198057Y-105434887D01*
X122257315Y-105656043D01*
X122354077Y-105863550D01*
X122485404Y-106051103D01*
X122647296Y-106212995D01*
X122647299Y-106212997D01*
X122647300Y-106212998D01*
X122834851Y-106344323D01*
X122869959Y-106360694D01*
X122874057Y-106362605D01*
X122927074Y-106409100D01*
X122946807Y-106476800D01*
X122927074Y-106544500D01*
X122874057Y-106590995D01*
X122834850Y-106609277D01*
X122647296Y-106740604D01*
X122485404Y-106902496D01*
X122354077Y-107090049D01*
X122257315Y-107297556D01*
X122198057Y-107518712D01*
X122178102Y-107746800D01*
X122198057Y-107974887D01*
X122257315Y-108196043D01*
X122354077Y-108403550D01*
X122485404Y-108591103D01*
X122647296Y-108752995D01*
X122647299Y-108752997D01*
X122647300Y-108752998D01*
X122834851Y-108884323D01*
X122869959Y-108900694D01*
X122874057Y-108902605D01*
X122927074Y-108949100D01*
X122946807Y-109016800D01*
X122927074Y-109084500D01*
X122874057Y-109130995D01*
X122834850Y-109149277D01*
X122647296Y-109280604D01*
X122485404Y-109442496D01*
X122354077Y-109630049D01*
X122257315Y-109837556D01*
X122198057Y-110058712D01*
X122178102Y-110286800D01*
X122198057Y-110514887D01*
X122257315Y-110736043D01*
X122354077Y-110943550D01*
X122485404Y-111131103D01*
X122647296Y-111292995D01*
X122647299Y-111292997D01*
X122647300Y-111292998D01*
X122834851Y-111424323D01*
X122874057Y-111442605D01*
X122927073Y-111489098D01*
X122946807Y-111556797D01*
X122927075Y-111624497D01*
X122874059Y-111670993D01*
X122834851Y-111689276D01*
X122647296Y-111820604D01*
X122485404Y-111982496D01*
X122354077Y-112170049D01*
X122257315Y-112377556D01*
X122198057Y-112598712D01*
X122178102Y-112826800D01*
X122198057Y-113054887D01*
X122257315Y-113276043D01*
X122354077Y-113483550D01*
X122485404Y-113671103D01*
X122647296Y-113832995D01*
X122647299Y-113832997D01*
X122647300Y-113832998D01*
X122834851Y-113964323D01*
X122869959Y-113980694D01*
X122874057Y-113982605D01*
X122927074Y-114029100D01*
X122946807Y-114096800D01*
X122927074Y-114164500D01*
X122874057Y-114210995D01*
X122834850Y-114229277D01*
X122647296Y-114360604D01*
X122485404Y-114522496D01*
X122354077Y-114710050D01*
X122335795Y-114749257D01*
X122289300Y-114802274D01*
X122221600Y-114822007D01*
X122153900Y-114802274D01*
X122107405Y-114749257D01*
X122101786Y-114737208D01*
X122089123Y-114710051D01*
X121957798Y-114522500D01*
X121957797Y-114522499D01*
X121957795Y-114522496D01*
X121795903Y-114360604D01*
X121608350Y-114229277D01*
X121400843Y-114132515D01*
X121179687Y-114073257D01*
X120951600Y-114053302D01*
X120723512Y-114073257D01*
X120502356Y-114132515D01*
X120294849Y-114229277D01*
X120107296Y-114360604D01*
X119945404Y-114522496D01*
X119814077Y-114710050D01*
X119795795Y-114749257D01*
X119749300Y-114802274D01*
X119681600Y-114822007D01*
X119613900Y-114802274D01*
X119567405Y-114749257D01*
X119561786Y-114737208D01*
X119549123Y-114710051D01*
X119417798Y-114522500D01*
X119417797Y-114522499D01*
X119417795Y-114522496D01*
X119255903Y-114360604D01*
X119068348Y-114229276D01*
X119029143Y-114210995D01*
X118976125Y-114164500D01*
X118956392Y-114096800D01*
X118976125Y-114029100D01*
X119029143Y-113982605D01*
X119033763Y-113980450D01*
X119068349Y-113964323D01*
X119255900Y-113832998D01*
X119417798Y-113671100D01*
X119549123Y-113483549D01*
X119645884Y-113276043D01*
X119705143Y-113054887D01*
X119725098Y-112826800D01*
X119705143Y-112598713D01*
X119645884Y-112377557D01*
X119643761Y-112373005D01*
X119549122Y-112170049D01*
X119417795Y-111982496D01*
X119255903Y-111820604D01*
X119068348Y-111689276D01*
X119029143Y-111670995D01*
X118976125Y-111624500D01*
X118956392Y-111556800D01*
X118976125Y-111489100D01*
X119029143Y-111442605D01*
X119033763Y-111440450D01*
X119068349Y-111424323D01*
X119255900Y-111292998D01*
X119417798Y-111131100D01*
X119549123Y-110943549D01*
X119645884Y-110736043D01*
X119705143Y-110514887D01*
X119725098Y-110286800D01*
X119705143Y-110058713D01*
X119645884Y-109837557D01*
X119597076Y-109732888D01*
X119549122Y-109630049D01*
X119417795Y-109442496D01*
X119255903Y-109280604D01*
X119068348Y-109149276D01*
X119029143Y-109130995D01*
X118976125Y-109084500D01*
X118956392Y-109016800D01*
X118976125Y-108949100D01*
X119029143Y-108902605D01*
X119033763Y-108900450D01*
X119068349Y-108884323D01*
X119255900Y-108752998D01*
X119417798Y-108591100D01*
X119549123Y-108403549D01*
X119645884Y-108196043D01*
X119705143Y-107974887D01*
X119725098Y-107746800D01*
X119705143Y-107518713D01*
X119645884Y-107297557D01*
X119609130Y-107218738D01*
X119549122Y-107090049D01*
X119417795Y-106902496D01*
X119255903Y-106740604D01*
X119068348Y-106609276D01*
X119029143Y-106590995D01*
X118976125Y-106544500D01*
X118956392Y-106476800D01*
X118976125Y-106409100D01*
X119029143Y-106362605D01*
X119033763Y-106360450D01*
X119068349Y-106344323D01*
X119255900Y-106212998D01*
X119417798Y-106051100D01*
X119549123Y-105863549D01*
X119645884Y-105656043D01*
X119705143Y-105434887D01*
X119725098Y-105206800D01*
X119705143Y-104978713D01*
X119645884Y-104757557D01*
X119642738Y-104750811D01*
X119561340Y-104576251D01*
X119549123Y-104550051D01*
X119540141Y-104537224D01*
X119417795Y-104362496D01*
X119255903Y-104200604D01*
X119068348Y-104069276D01*
X119029143Y-104050995D01*
X118976125Y-104004500D01*
X118956392Y-103936800D01*
X118976125Y-103869100D01*
X119029143Y-103822605D01*
X119033763Y-103820450D01*
X119068349Y-103804323D01*
X119255900Y-103672998D01*
X119417798Y-103511100D01*
X119549123Y-103323549D01*
X119645884Y-103116043D01*
X119705143Y-102894887D01*
X119725098Y-102666800D01*
X119705143Y-102438713D01*
X119645884Y-102217557D01*
X119642738Y-102210811D01*
X119549122Y-102010049D01*
X119417795Y-101822496D01*
X119255903Y-101660604D01*
X119068348Y-101529276D01*
X119029143Y-101510995D01*
X118976125Y-101464500D01*
X118956392Y-101396800D01*
X118976125Y-101329100D01*
X119029143Y-101282605D01*
X119034459Y-101280126D01*
X119068349Y-101264323D01*
X119255900Y-101132998D01*
X119417798Y-100971100D01*
X119549123Y-100783549D01*
X119645884Y-100576043D01*
X119705143Y-100354887D01*
X119725098Y-100126800D01*
X119705143Y-99898713D01*
X119653658Y-99706570D01*
X119645884Y-99677556D01*
X119552597Y-99477502D01*
X119549123Y-99470051D01*
X119545794Y-99465297D01*
X119417795Y-99282496D01*
X119255903Y-99120604D01*
X119068348Y-98989276D01*
X119029143Y-98970995D01*
X118976125Y-98924500D01*
X118956392Y-98856800D01*
X118976125Y-98789100D01*
X119029143Y-98742605D01*
X119033763Y-98740450D01*
X119068349Y-98724323D01*
X119255900Y-98592998D01*
X119417798Y-98431100D01*
X119549123Y-98243549D01*
X119645884Y-98036043D01*
X119705143Y-97814887D01*
X119725098Y-97586800D01*
X119705143Y-97358713D01*
X119645884Y-97137557D01*
X119642739Y-97130813D01*
X119549122Y-96930049D01*
X119447579Y-96785032D01*
X119417798Y-96742500D01*
X119417797Y-96742499D01*
X119417795Y-96742496D01*
X119255903Y-96580604D01*
X119068350Y-96449277D01*
X118860843Y-96352515D01*
X118639687Y-96293257D01*
X118411600Y-96273302D01*
X118183512Y-96293257D01*
X117962356Y-96352515D01*
X117754849Y-96449277D01*
X117567296Y-96580604D01*
X117405404Y-96742496D01*
X117274077Y-96930050D01*
X117255795Y-96969257D01*
X117209300Y-97022274D01*
X117141600Y-97042007D01*
X117073900Y-97022274D01*
X117027405Y-96969257D01*
X117025494Y-96965159D01*
X117009123Y-96930051D01*
X116877798Y-96742500D01*
X116877797Y-96742499D01*
X116877795Y-96742496D01*
X116715903Y-96580604D01*
X116528350Y-96449277D01*
X116320843Y-96352515D01*
X116099687Y-96293257D01*
X115871600Y-96273302D01*
X115643512Y-96293257D01*
X115422356Y-96352515D01*
X115214849Y-96449277D01*
X115027296Y-96580604D01*
X114865404Y-96742496D01*
X114734077Y-96930049D01*
X114637315Y-97137556D01*
X114578057Y-97358712D01*
X114558102Y-97586800D01*
X114578057Y-97814887D01*
X114637315Y-98036043D01*
X114734077Y-98243550D01*
X114865404Y-98431103D01*
X115027296Y-98592995D01*
X115027299Y-98592997D01*
X115027300Y-98592998D01*
X115214851Y-98724323D01*
X115250096Y-98740758D01*
X115254649Y-98742881D01*
X115307666Y-98789376D01*
X115327399Y-98857075D01*
X115307667Y-98924775D01*
X115254650Y-98971270D01*
X115215102Y-98989711D01*
X115143709Y-99039700D01*
X115871599Y-99767590D01*
X115871600Y-99767590D01*
X116599488Y-99039699D01*
X116528097Y-98989712D01*
X116488550Y-98971271D01*
X116435533Y-98924775D01*
X116415800Y-98857075D01*
X116435533Y-98789376D01*
X116488551Y-98742881D01*
X116493104Y-98740758D01*
X116528349Y-98724323D01*
X116715900Y-98592998D01*
X116877798Y-98431100D01*
X117009123Y-98243549D01*
X117027404Y-98204343D01*
X117073900Y-98151325D01*
X117141600Y-98131592D01*
X117209300Y-98151325D01*
X117255795Y-98204343D01*
X117274076Y-98243548D01*
X117405404Y-98431103D01*
X117567296Y-98592995D01*
X117567299Y-98592997D01*
X117567300Y-98592998D01*
X117754851Y-98724323D01*
X117794057Y-98742605D01*
X117847073Y-98789098D01*
X117866807Y-98856797D01*
X117847075Y-98924497D01*
X117794059Y-98970993D01*
X117754851Y-98989276D01*
X117567296Y-99120604D01*
X117405404Y-99282496D01*
X117274077Y-99470050D01*
X117255519Y-99509849D01*
X117209024Y-99562866D01*
X117141324Y-99582599D01*
X117073624Y-99562866D01*
X117027129Y-99509849D01*
X117008685Y-99470297D01*
X116958700Y-99398910D01*
X116958698Y-99398910D01*
X116230810Y-100126800D01*
X116230810Y-100126801D01*
X116958697Y-100854688D01*
X116958699Y-100854688D01*
X117008688Y-100783297D01*
X117027129Y-100743751D01*
X117073624Y-100690733D01*
X117141324Y-100671000D01*
X117209024Y-100690733D01*
X117255519Y-100743751D01*
X117274076Y-100783548D01*
X117405404Y-100971103D01*
X117567296Y-101132995D01*
X117567299Y-101132997D01*
X117567300Y-101132998D01*
X117754851Y-101264323D01*
X117788741Y-101280126D01*
X117794057Y-101282605D01*
X117847074Y-101329100D01*
X117866807Y-101396800D01*
X117847074Y-101464500D01*
X117794057Y-101510995D01*
X117754850Y-101529277D01*
X117567296Y-101660604D01*
X117405404Y-101822496D01*
X117274077Y-102010050D01*
X117255795Y-102049257D01*
X117209300Y-102102274D01*
X117141600Y-102122007D01*
X117073900Y-102102274D01*
X117027405Y-102049257D01*
X117025494Y-102045159D01*
X117009123Y-102010051D01*
X116877798Y-101822500D01*
X116877797Y-101822499D01*
X116877795Y-101822496D01*
X116715903Y-101660604D01*
X116528348Y-101529276D01*
X116488551Y-101510719D01*
X116435533Y-101464224D01*
X116415800Y-101396524D01*
X116435533Y-101328824D01*
X116488551Y-101282329D01*
X116528097Y-101263888D01*
X116599488Y-101213899D01*
X116599488Y-101213897D01*
X115871601Y-100486010D01*
X115871600Y-100486010D01*
X115143710Y-101213898D01*
X115143710Y-101213900D01*
X115215097Y-101263885D01*
X115254649Y-101282329D01*
X115307666Y-101328824D01*
X115327399Y-101396524D01*
X115307666Y-101464224D01*
X115254649Y-101510719D01*
X115214850Y-101529277D01*
X115027296Y-101660604D01*
X114865404Y-101822496D01*
X114734077Y-102010049D01*
X114637315Y-102217556D01*
X114578057Y-102438712D01*
X114558102Y-102666800D01*
X114578057Y-102894887D01*
X114637315Y-103116043D01*
X114734077Y-103323550D01*
X114865404Y-103511103D01*
X115027296Y-103672995D01*
X115027299Y-103672997D01*
X115027300Y-103672998D01*
X115214851Y-103804323D01*
X115249959Y-103820694D01*
X115254057Y-103822605D01*
X115307074Y-103869100D01*
X115326807Y-103936800D01*
X115307074Y-104004500D01*
X115254057Y-104050995D01*
X115214850Y-104069277D01*
X115027296Y-104200604D01*
X114865404Y-104362496D01*
X114734077Y-104550049D01*
X114637315Y-104757556D01*
X114578057Y-104978712D01*
X114558102Y-105206800D01*
X114578057Y-105434887D01*
X114637315Y-105656043D01*
X114734077Y-105863550D01*
X114865404Y-106051103D01*
X115027296Y-106212995D01*
X115027299Y-106212997D01*
X115027300Y-106212998D01*
X115214851Y-106344323D01*
X115249959Y-106360694D01*
X115254057Y-106362605D01*
X115307074Y-106409100D01*
X115326807Y-106476800D01*
X115307074Y-106544500D01*
X115254057Y-106590995D01*
X115214850Y-106609277D01*
X115027296Y-106740604D01*
X114865404Y-106902496D01*
X114734077Y-107090049D01*
X114637315Y-107297556D01*
X114578057Y-107518712D01*
X114558102Y-107746800D01*
X114578057Y-107974887D01*
X114637315Y-108196043D01*
X114734077Y-108403550D01*
X114865404Y-108591103D01*
X115027296Y-108752995D01*
X115027299Y-108752997D01*
X115027300Y-108752998D01*
X115214851Y-108884323D01*
X115249959Y-108900694D01*
X115254057Y-108902605D01*
X115307074Y-108949100D01*
X115326807Y-109016800D01*
X115307074Y-109084500D01*
X115254057Y-109130995D01*
X115214850Y-109149277D01*
X115027296Y-109280604D01*
X114865404Y-109442496D01*
X114734077Y-109630049D01*
X114637315Y-109837556D01*
X114578057Y-110058712D01*
X114558102Y-110286800D01*
X114578057Y-110514887D01*
X114637315Y-110736043D01*
X114734077Y-110943550D01*
X114865404Y-111131103D01*
X115027296Y-111292995D01*
X115027299Y-111292997D01*
X115027300Y-111292998D01*
X115214851Y-111424323D01*
X115254057Y-111442605D01*
X115307073Y-111489098D01*
X115326807Y-111556797D01*
X115307075Y-111624497D01*
X115254059Y-111670993D01*
X115214851Y-111689276D01*
X115027296Y-111820604D01*
X114865404Y-111982496D01*
X114734077Y-112170049D01*
X114637315Y-112377556D01*
X114578057Y-112598712D01*
X114558102Y-112826800D01*
X114578057Y-113054887D01*
X114637315Y-113276043D01*
X114734077Y-113483550D01*
X114865404Y-113671103D01*
X115027296Y-113832995D01*
X115027299Y-113832997D01*
X115027300Y-113832998D01*
X115214851Y-113964323D01*
X115249959Y-113980694D01*
X115254057Y-113982605D01*
X115307074Y-114029100D01*
X115326807Y-114096800D01*
X115307074Y-114164500D01*
X115254057Y-114210995D01*
X115214850Y-114229277D01*
X115027296Y-114360604D01*
X114865404Y-114522496D01*
X114734077Y-114710050D01*
X114715795Y-114749257D01*
X114669300Y-114802274D01*
X114601600Y-114822007D01*
X114533900Y-114802274D01*
X114487405Y-114749257D01*
X114481786Y-114737208D01*
X114469123Y-114710051D01*
X114337798Y-114522500D01*
X114337797Y-114522499D01*
X114337795Y-114522496D01*
X114175903Y-114360604D01*
X113988350Y-114229277D01*
X113780843Y-114132515D01*
X113559687Y-114073257D01*
X113331600Y-114053302D01*
X113103512Y-114073257D01*
X112882356Y-114132515D01*
X112674849Y-114229277D01*
X112487296Y-114360604D01*
X112325404Y-114522496D01*
X112194077Y-114710050D01*
X112175795Y-114749257D01*
X112129300Y-114802274D01*
X112061600Y-114822007D01*
X111993900Y-114802274D01*
X111947405Y-114749257D01*
X111941786Y-114737208D01*
X111929123Y-114710051D01*
X111797798Y-114522500D01*
X111797797Y-114522499D01*
X111797795Y-114522496D01*
X111635903Y-114360604D01*
X111448350Y-114229277D01*
X111240843Y-114132515D01*
X111019687Y-114073257D01*
X110791600Y-114053302D01*
X110563512Y-114073257D01*
X110342356Y-114132515D01*
X110134849Y-114229277D01*
X109947296Y-114360604D01*
X109785404Y-114522496D01*
X109654077Y-114710050D01*
X109635795Y-114749257D01*
X109589300Y-114802274D01*
X109521600Y-114822007D01*
X109453900Y-114802274D01*
X109407405Y-114749257D01*
X109401786Y-114737208D01*
X109389123Y-114710051D01*
X109257798Y-114522500D01*
X109257797Y-114522499D01*
X109257795Y-114522496D01*
X109095903Y-114360604D01*
X108908348Y-114229276D01*
X108869143Y-114210995D01*
X108816125Y-114164500D01*
X108796392Y-114096800D01*
X108816125Y-114029100D01*
X108869143Y-113982605D01*
X108873763Y-113980450D01*
X108908349Y-113964323D01*
X109095900Y-113832998D01*
X109257798Y-113671100D01*
X109389123Y-113483549D01*
X109485884Y-113276043D01*
X109545143Y-113054887D01*
X109565098Y-112826800D01*
X109545143Y-112598713D01*
X109485884Y-112377557D01*
X109483761Y-112373005D01*
X109389122Y-112170049D01*
X109257795Y-111982496D01*
X109095903Y-111820604D01*
X108908348Y-111689276D01*
X108869143Y-111670995D01*
X108816125Y-111624500D01*
X108796392Y-111556800D01*
X108816125Y-111489100D01*
X108869143Y-111442605D01*
X108873763Y-111440450D01*
X108908349Y-111424323D01*
X109095900Y-111292998D01*
X109257798Y-111131100D01*
X109389123Y-110943549D01*
X109485884Y-110736043D01*
X109545143Y-110514887D01*
X109565098Y-110286800D01*
X109545143Y-110058713D01*
X109485884Y-109837557D01*
X109437076Y-109732888D01*
X109389122Y-109630049D01*
X109257795Y-109442496D01*
X109095903Y-109280604D01*
X108908348Y-109149276D01*
X108869143Y-109130995D01*
X108816125Y-109084500D01*
X108796392Y-109016800D01*
X108816125Y-108949100D01*
X108869143Y-108902605D01*
X108873763Y-108900450D01*
X108908349Y-108884323D01*
X109095900Y-108752998D01*
X109257798Y-108591100D01*
X109389123Y-108403549D01*
X109485884Y-108196043D01*
X109545143Y-107974887D01*
X109565098Y-107746800D01*
X109545143Y-107518713D01*
X109485884Y-107297557D01*
X109449130Y-107218738D01*
X109389122Y-107090049D01*
X109257795Y-106902496D01*
X109095903Y-106740604D01*
X108908348Y-106609276D01*
X108869143Y-106590995D01*
X108816125Y-106544500D01*
X108796392Y-106476800D01*
X108816125Y-106409100D01*
X108869143Y-106362605D01*
X108873763Y-106360450D01*
X108908349Y-106344323D01*
X109095900Y-106212998D01*
X109257798Y-106051100D01*
X109389123Y-105863549D01*
X109485884Y-105656043D01*
X109545143Y-105434887D01*
X109565098Y-105206800D01*
X109565098Y-105206799D01*
X112388427Y-105206799D01*
X112407060Y-105372174D01*
X112462023Y-105529250D01*
X112550564Y-105670162D01*
X112668237Y-105787835D01*
X112668239Y-105787836D01*
X112809149Y-105876376D01*
X112966228Y-105931340D01*
X113131600Y-105949973D01*
X113296972Y-105931340D01*
X113454051Y-105876376D01*
X113594961Y-105787836D01*
X113712636Y-105670161D01*
X113801176Y-105529251D01*
X113856140Y-105372172D01*
X113874773Y-105206800D01*
X113856140Y-105041428D01*
X113854799Y-105037597D01*
X113801176Y-104884349D01*
X113712635Y-104743437D01*
X113594962Y-104625764D01*
X113454050Y-104537223D01*
X113296974Y-104482260D01*
X113131600Y-104463627D01*
X112966225Y-104482260D01*
X112809149Y-104537223D01*
X112668237Y-104625764D01*
X112550564Y-104743437D01*
X112462023Y-104884349D01*
X112407060Y-105041425D01*
X112388427Y-105206799D01*
X109565098Y-105206799D01*
X109545143Y-104978713D01*
X109485884Y-104757557D01*
X109482738Y-104750811D01*
X109401340Y-104576251D01*
X109389123Y-104550051D01*
X109380141Y-104537224D01*
X109257795Y-104362496D01*
X109095903Y-104200604D01*
X108908348Y-104069276D01*
X108869143Y-104050995D01*
X108816125Y-104004500D01*
X108796392Y-103936800D01*
X108816125Y-103869100D01*
X108869143Y-103822605D01*
X108873763Y-103820450D01*
X108908349Y-103804323D01*
X109095900Y-103672998D01*
X109257798Y-103511100D01*
X109389123Y-103323549D01*
X109485884Y-103116043D01*
X109545143Y-102894887D01*
X109565098Y-102666800D01*
X109545143Y-102438713D01*
X109485884Y-102217557D01*
X109482738Y-102210811D01*
X109389122Y-102010049D01*
X109257795Y-101822496D01*
X109095903Y-101660604D01*
X108908348Y-101529276D01*
X108869143Y-101510995D01*
X108816125Y-101464500D01*
X108796392Y-101396800D01*
X108816125Y-101329100D01*
X108869143Y-101282605D01*
X108874459Y-101280126D01*
X108908349Y-101264323D01*
X109095900Y-101132998D01*
X109257798Y-100971100D01*
X109315425Y-100888800D01*
X110254827Y-100888800D01*
X110273460Y-101054174D01*
X110328423Y-101211250D01*
X110416964Y-101352162D01*
X110534637Y-101469835D01*
X110600143Y-101510995D01*
X110675549Y-101558376D01*
X110832628Y-101613340D01*
X110998000Y-101631973D01*
X111163372Y-101613340D01*
X111320451Y-101558376D01*
X111461361Y-101469836D01*
X111579036Y-101352161D01*
X111667576Y-101211251D01*
X111722540Y-101054172D01*
X111741173Y-100888800D01*
X111722540Y-100723428D01*
X111667576Y-100566349D01*
X111652196Y-100541872D01*
X111579035Y-100425437D01*
X111461362Y-100307764D01*
X111320450Y-100219223D01*
X111163374Y-100164260D01*
X110998000Y-100145627D01*
X110832625Y-100164260D01*
X110675549Y-100219223D01*
X110534637Y-100307764D01*
X110416964Y-100425437D01*
X110328423Y-100566349D01*
X110273460Y-100723425D01*
X110254827Y-100888800D01*
X109315425Y-100888800D01*
X109389123Y-100783549D01*
X109485884Y-100576043D01*
X109545143Y-100354887D01*
X109565098Y-100126800D01*
X109565098Y-100126799D01*
X114558604Y-100126799D01*
X114578551Y-100354799D01*
X114637786Y-100575870D01*
X114734512Y-100783297D01*
X114784500Y-100854687D01*
X115512390Y-100126800D01*
X115512390Y-100126799D01*
X114784500Y-99398909D01*
X114734513Y-99470299D01*
X114637786Y-99677729D01*
X114578551Y-99898800D01*
X114558604Y-100126799D01*
X109565098Y-100126799D01*
X109545143Y-99898713D01*
X109493658Y-99706570D01*
X109485884Y-99677556D01*
X109392597Y-99477502D01*
X109389123Y-99470051D01*
X109385794Y-99465297D01*
X109257795Y-99282496D01*
X109095903Y-99120604D01*
X108908348Y-98989276D01*
X108869143Y-98970995D01*
X108816125Y-98924500D01*
X108796392Y-98856800D01*
X108816125Y-98789100D01*
X108869143Y-98742605D01*
X108873763Y-98740450D01*
X108908349Y-98724323D01*
X109095900Y-98592998D01*
X109257798Y-98431100D01*
X109389123Y-98243549D01*
X109485884Y-98036043D01*
X109545143Y-97814887D01*
X109565098Y-97586800D01*
X109545143Y-97358713D01*
X109485884Y-97137557D01*
X109482739Y-97130813D01*
X109389122Y-96930049D01*
X109287579Y-96785032D01*
X109257798Y-96742500D01*
X109257797Y-96742499D01*
X109257795Y-96742496D01*
X109095903Y-96580604D01*
X108908348Y-96449276D01*
X108869143Y-96430995D01*
X108816125Y-96384500D01*
X108796392Y-96316800D01*
X108816125Y-96249100D01*
X108869143Y-96202605D01*
X108873763Y-96200450D01*
X108908349Y-96184323D01*
X109095900Y-96052998D01*
X109257798Y-95891100D01*
X109389123Y-95703549D01*
X109485884Y-95496043D01*
X109545143Y-95274887D01*
X109565098Y-95046800D01*
X109545143Y-94818713D01*
X109485884Y-94597557D01*
X109482739Y-94590813D01*
X109389122Y-94390049D01*
X109386566Y-94386399D01*
X115433227Y-94386399D01*
X115451860Y-94551774D01*
X115506823Y-94708850D01*
X115595364Y-94849762D01*
X115713037Y-94967435D01*
X115853949Y-95055976D01*
X115952130Y-95090331D01*
X116011028Y-95110940D01*
X116176400Y-95129573D01*
X116341772Y-95110940D01*
X116498851Y-95055976D01*
X116639761Y-94967436D01*
X116757436Y-94849761D01*
X116845976Y-94708851D01*
X116900940Y-94551772D01*
X116919573Y-94386400D01*
X116900940Y-94221028D01*
X116845976Y-94063949D01*
X116757436Y-93923039D01*
X116757435Y-93923037D01*
X116639762Y-93805364D01*
X116498850Y-93716823D01*
X116341774Y-93661860D01*
X116176400Y-93643227D01*
X116011025Y-93661860D01*
X115853949Y-93716823D01*
X115713037Y-93805364D01*
X115595364Y-93923037D01*
X115506823Y-94063949D01*
X115451860Y-94221025D01*
X115433227Y-94386399D01*
X109386566Y-94386399D01*
X109257795Y-94202496D01*
X109095903Y-94040604D01*
X108908348Y-93909276D01*
X108869143Y-93890995D01*
X108816125Y-93844500D01*
X108796392Y-93776800D01*
X108816125Y-93709100D01*
X108869143Y-93662605D01*
X108873763Y-93660450D01*
X108908349Y-93644323D01*
X109095900Y-93512998D01*
X109257798Y-93351100D01*
X109389123Y-93163549D01*
X109485884Y-92956043D01*
X109545143Y-92734887D01*
X109565098Y-92506800D01*
X109545143Y-92278713D01*
X109485884Y-92057557D01*
X109482739Y-92050813D01*
X109392465Y-91857218D01*
X109389123Y-91850051D01*
X109361710Y-91810902D01*
X109257795Y-91662496D01*
X109095903Y-91500604D01*
X108908348Y-91369276D01*
X108869143Y-91350995D01*
X108816125Y-91304500D01*
X108796392Y-91236800D01*
X108816125Y-91169100D01*
X108869143Y-91122605D01*
X108873763Y-91120450D01*
X108908349Y-91104323D01*
X109095900Y-90972998D01*
X109257798Y-90811100D01*
X109389123Y-90623549D01*
X109485884Y-90416043D01*
X109545143Y-90194887D01*
X109565098Y-89966800D01*
X109545143Y-89738713D01*
X109492193Y-89541103D01*
X109485884Y-89517556D01*
X109389122Y-89310049D01*
X109257795Y-89122496D01*
X109095903Y-88960604D01*
X108908348Y-88829276D01*
X108869143Y-88810995D01*
X108816125Y-88764500D01*
X108796392Y-88696800D01*
X108816125Y-88629100D01*
X108854782Y-88595199D01*
X112537627Y-88595199D01*
X112556260Y-88760574D01*
X112611223Y-88917650D01*
X112699764Y-89058562D01*
X112817437Y-89176235D01*
X112958349Y-89264776D01*
X113087732Y-89310049D01*
X113115428Y-89319740D01*
X113280800Y-89338373D01*
X113446172Y-89319740D01*
X113603251Y-89264776D01*
X113744161Y-89176236D01*
X113861836Y-89058561D01*
X113950376Y-88917651D01*
X114005340Y-88760572D01*
X114012525Y-88696800D01*
X114328102Y-88696800D01*
X114348057Y-88924887D01*
X114407315Y-89146043D01*
X114504077Y-89353550D01*
X114635404Y-89541103D01*
X114797296Y-89702995D01*
X114984849Y-89834322D01*
X115192356Y-89931084D01*
X115251615Y-89946962D01*
X115413513Y-89990343D01*
X115641600Y-90010298D01*
X115869687Y-89990343D01*
X116090843Y-89931084D01*
X116298349Y-89834323D01*
X116485900Y-89702998D01*
X116647798Y-89541100D01*
X116779123Y-89353549D01*
X116875884Y-89146043D01*
X116935143Y-88924887D01*
X116955098Y-88696800D01*
X116935143Y-88468713D01*
X116882193Y-88271103D01*
X116875884Y-88247556D01*
X116779122Y-88040049D01*
X116647795Y-87852496D01*
X116485903Y-87690604D01*
X116298350Y-87559277D01*
X116090843Y-87462515D01*
X115869687Y-87403257D01*
X115641600Y-87383302D01*
X115413512Y-87403257D01*
X115192356Y-87462515D01*
X114984849Y-87559277D01*
X114797296Y-87690604D01*
X114635404Y-87852496D01*
X114504077Y-88040049D01*
X114407315Y-88247556D01*
X114348057Y-88468712D01*
X114328102Y-88696800D01*
X114012525Y-88696800D01*
X114023973Y-88595200D01*
X114005340Y-88429828D01*
X113950376Y-88272749D01*
X113861836Y-88131839D01*
X113861835Y-88131837D01*
X113744162Y-88014164D01*
X113603250Y-87925623D01*
X113446174Y-87870660D01*
X113280800Y-87852027D01*
X113115425Y-87870660D01*
X112958349Y-87925623D01*
X112817437Y-88014164D01*
X112699764Y-88131837D01*
X112611223Y-88272749D01*
X112556260Y-88429825D01*
X112537627Y-88595199D01*
X108854782Y-88595199D01*
X108869143Y-88582605D01*
X108873763Y-88580450D01*
X108908349Y-88564323D01*
X109095900Y-88432998D01*
X109257798Y-88271100D01*
X109389123Y-88083549D01*
X109485884Y-87876043D01*
X109545143Y-87654887D01*
X109565098Y-87426800D01*
X109545143Y-87198713D01*
X109485884Y-86977557D01*
X109389123Y-86770051D01*
X109257798Y-86582500D01*
X109257797Y-86582499D01*
X109257795Y-86582496D01*
X109095903Y-86420604D01*
X108908348Y-86289276D01*
X108869143Y-86270995D01*
X108816125Y-86224500D01*
X108796392Y-86156800D01*
X108816125Y-86089100D01*
X108869143Y-86042605D01*
X108890813Y-86032500D01*
X108908349Y-86024323D01*
X109095900Y-85892998D01*
X109257798Y-85731100D01*
X109389123Y-85543549D01*
X109485884Y-85336043D01*
X109545143Y-85114887D01*
X109565098Y-84886800D01*
X109545143Y-84658713D01*
X109492193Y-84461103D01*
X109485884Y-84437556D01*
X109389122Y-84230049D01*
X109257795Y-84042496D01*
X109095903Y-83880604D01*
X109091974Y-83877853D01*
X109052205Y-83832288D01*
X109038249Y-83773440D01*
X109053322Y-83714869D01*
X109093951Y-83670068D01*
X109150775Y-83649361D01*
X109160693Y-83648294D01*
X109245133Y-83616800D01*
X114328102Y-83616800D01*
X114348057Y-83844887D01*
X114407315Y-84066043D01*
X114504077Y-84273550D01*
X114635404Y-84461103D01*
X114797296Y-84622995D01*
X114984849Y-84754322D01*
X115192356Y-84851084D01*
X115251615Y-84866962D01*
X115413513Y-84910343D01*
X115641600Y-84930298D01*
X115869687Y-84910343D01*
X116090843Y-84851084D01*
X116298349Y-84754323D01*
X116485900Y-84622998D01*
X116538049Y-84570849D01*
X116617505Y-84491394D01*
X116673989Y-84458782D01*
X116739211Y-84458782D01*
X116795695Y-84491394D01*
X116927296Y-84622995D01*
X117114849Y-84754322D01*
X117322356Y-84851084D01*
X117381615Y-84866962D01*
X117543513Y-84910343D01*
X117771600Y-84930298D01*
X117999687Y-84910343D01*
X118220843Y-84851084D01*
X118428349Y-84754323D01*
X118615900Y-84622998D01*
X118777798Y-84461100D01*
X118909123Y-84273549D01*
X119005884Y-84066043D01*
X119065143Y-83844887D01*
X119085098Y-83616800D01*
X119065143Y-83388713D01*
X119012193Y-83191103D01*
X119005884Y-83167556D01*
X118909122Y-82960049D01*
X118777795Y-82772496D01*
X118615903Y-82610604D01*
X118428350Y-82479277D01*
X118220843Y-82382515D01*
X117999687Y-82323257D01*
X117771600Y-82303302D01*
X117543512Y-82323257D01*
X117322356Y-82382515D01*
X117114849Y-82479277D01*
X116927296Y-82610604D01*
X116795695Y-82742206D01*
X116739211Y-82774818D01*
X116673989Y-82774818D01*
X116617505Y-82742206D01*
X116485903Y-82610604D01*
X116298350Y-82479277D01*
X116090843Y-82382515D01*
X115869687Y-82323257D01*
X115641600Y-82303302D01*
X115413512Y-82323257D01*
X115192356Y-82382515D01*
X114984849Y-82479277D01*
X114797296Y-82610604D01*
X114635404Y-82772496D01*
X114504077Y-82960049D01*
X114407315Y-83167556D01*
X114348057Y-83388712D01*
X114328102Y-83616800D01*
X109245133Y-83616800D01*
X109297562Y-83597245D01*
X109414504Y-83509704D01*
X109502045Y-83392762D01*
X109553094Y-83255893D01*
X109559600Y-83195389D01*
X109559600Y-82600800D01*
X106943600Y-82600800D01*
X106943600Y-83195389D01*
X106950105Y-83255893D01*
X107001154Y-83392762D01*
X107088695Y-83509704D01*
X107205637Y-83597245D01*
X107342506Y-83648294D01*
X107352424Y-83649361D01*
X107409248Y-83670068D01*
X107449877Y-83714868D01*
X107464950Y-83773438D01*
X107450996Y-83832285D01*
X107411229Y-83877851D01*
X107407295Y-83880605D01*
X107245404Y-84042496D01*
X107114077Y-84230049D01*
X107017315Y-84437556D01*
X106958057Y-84658712D01*
X106938102Y-84886800D01*
X106958057Y-85114887D01*
X107017315Y-85336043D01*
X107114077Y-85543550D01*
X107245404Y-85731103D01*
X107407296Y-85892995D01*
X107407299Y-85892997D01*
X107407300Y-85892998D01*
X107594851Y-86024323D01*
X107634057Y-86042605D01*
X107687073Y-86089098D01*
X107706807Y-86156797D01*
X107687075Y-86224497D01*
X107634059Y-86270993D01*
X107594851Y-86289276D01*
X107407296Y-86420604D01*
X107245404Y-86582496D01*
X107114077Y-86770049D01*
X107017315Y-86977556D01*
X106958057Y-87198712D01*
X106938102Y-87426800D01*
X106958057Y-87654887D01*
X107017315Y-87876043D01*
X107114077Y-88083550D01*
X107245404Y-88271103D01*
X107407296Y-88432995D01*
X107407299Y-88432997D01*
X107407300Y-88432998D01*
X107594851Y-88564323D01*
X107629959Y-88580694D01*
X107634057Y-88582605D01*
X107687074Y-88629100D01*
X107706807Y-88696800D01*
X107687074Y-88764500D01*
X107634057Y-88810995D01*
X107594850Y-88829277D01*
X107407296Y-88960604D01*
X107245404Y-89122496D01*
X107114077Y-89310049D01*
X107017315Y-89517556D01*
X106958057Y-89738712D01*
X106938102Y-89966800D01*
X106958057Y-90194887D01*
X107017315Y-90416043D01*
X107114077Y-90623550D01*
X107245404Y-90811103D01*
X107407296Y-90972995D01*
X107407299Y-90972997D01*
X107407300Y-90972998D01*
X107594851Y-91104323D01*
X107629959Y-91120694D01*
X107634057Y-91122605D01*
X107687074Y-91169100D01*
X107706807Y-91236800D01*
X107687074Y-91304500D01*
X107634057Y-91350995D01*
X107594850Y-91369277D01*
X107407296Y-91500604D01*
X107245404Y-91662496D01*
X107114077Y-91850049D01*
X107017315Y-92057556D01*
X106958057Y-92278712D01*
X106938102Y-92506800D01*
X106958057Y-92734887D01*
X107017315Y-92956043D01*
X107114077Y-93163550D01*
X107245404Y-93351103D01*
X107407296Y-93512995D01*
X107407299Y-93512997D01*
X107407300Y-93512998D01*
X107594851Y-93644323D01*
X107629959Y-93660694D01*
X107634057Y-93662605D01*
X107687074Y-93709100D01*
X107706807Y-93776800D01*
X107687074Y-93844500D01*
X107634057Y-93890995D01*
X107594850Y-93909277D01*
X107407296Y-94040604D01*
X107245404Y-94202496D01*
X107114077Y-94390049D01*
X107017315Y-94597556D01*
X106958057Y-94818712D01*
X106938102Y-95046800D01*
X106958057Y-95274887D01*
X107017315Y-95496043D01*
X107114077Y-95703550D01*
X107245404Y-95891103D01*
X107407296Y-96052995D01*
X107407299Y-96052997D01*
X107407300Y-96052998D01*
X107594851Y-96184323D01*
X107634057Y-96202605D01*
X107687073Y-96249098D01*
X107706807Y-96316797D01*
X107687075Y-96384497D01*
X107634059Y-96430993D01*
X107594851Y-96449276D01*
X107407296Y-96580604D01*
X107245404Y-96742496D01*
X107114077Y-96930049D01*
X107017315Y-97137556D01*
X106958057Y-97358712D01*
X106938102Y-97586800D01*
X106958057Y-97814887D01*
X107017315Y-98036043D01*
X107114077Y-98243550D01*
X107245404Y-98431103D01*
X107407296Y-98592995D01*
X107407299Y-98592997D01*
X107407300Y-98592998D01*
X107594851Y-98724323D01*
X107634057Y-98742605D01*
X107687073Y-98789098D01*
X107706807Y-98856797D01*
X107687075Y-98924497D01*
X107634059Y-98970993D01*
X107594851Y-98989276D01*
X107407296Y-99120604D01*
X107245404Y-99282496D01*
X107114077Y-99470049D01*
X107017315Y-99677556D01*
X106958055Y-99898718D01*
X106956420Y-99917412D01*
X106935005Y-99977408D01*
X106886980Y-100019261D01*
X106824619Y-100032272D01*
X106763864Y-100013116D01*
X106649050Y-99940973D01*
X106491974Y-99886010D01*
X106326600Y-99867377D01*
X106161225Y-99886010D01*
X106004149Y-99940973D01*
X105863237Y-100029514D01*
X105745564Y-100147187D01*
X105744841Y-100148339D01*
X105736350Y-100156401D01*
X105735525Y-100157227D01*
X105735503Y-100157205D01*
X105699590Y-100191309D01*
X105639270Y-100207296D01*
X105578677Y-100192379D01*
X105532672Y-100150217D01*
X105443955Y-100014426D01*
X105418022Y-99974732D01*
X105265540Y-99809094D01*
X105265539Y-99809093D01*
X105265537Y-99809091D01*
X105087879Y-99670813D01*
X105087877Y-99670812D01*
X105087876Y-99670811D01*
X105054617Y-99652812D01*
X105006347Y-99606498D01*
X104988588Y-99542000D01*
X105006347Y-99477502D01*
X105054617Y-99431187D01*
X105087876Y-99413189D01*
X105265540Y-99274906D01*
X105418022Y-99109268D01*
X105541160Y-98920791D01*
X105631596Y-98714616D01*
X105686864Y-98496368D01*
X105705456Y-98272000D01*
X105686864Y-98047632D01*
X105631596Y-97829384D01*
X105541160Y-97623209D01*
X105418022Y-97434732D01*
X105265540Y-97269094D01*
X105265539Y-97269093D01*
X105265537Y-97269091D01*
X105087879Y-97130813D01*
X105087877Y-97130812D01*
X105087876Y-97130811D01*
X105054617Y-97112812D01*
X105006347Y-97066498D01*
X104988588Y-97002000D01*
X105006347Y-96937502D01*
X105054617Y-96891187D01*
X105087876Y-96873189D01*
X105265540Y-96734906D01*
X105418022Y-96569268D01*
X105541160Y-96380791D01*
X105631596Y-96174616D01*
X105686864Y-95956368D01*
X105705456Y-95732000D01*
X105686864Y-95507632D01*
X105631596Y-95289384D01*
X105541160Y-95083209D01*
X105418022Y-94894732D01*
X105265540Y-94729094D01*
X105265539Y-94729093D01*
X105265537Y-94729091D01*
X105087879Y-94590813D01*
X105087877Y-94590812D01*
X105087876Y-94590811D01*
X105054617Y-94572812D01*
X105006347Y-94526498D01*
X104988588Y-94462000D01*
X105006347Y-94397502D01*
X105054617Y-94351187D01*
X105087876Y-94333189D01*
X105265540Y-94194906D01*
X105418022Y-94029268D01*
X105541160Y-93840791D01*
X105631596Y-93634616D01*
X105686864Y-93416368D01*
X105705456Y-93192000D01*
X105686864Y-92967632D01*
X105631596Y-92749384D01*
X105541160Y-92543209D01*
X105418022Y-92354732D01*
X105265540Y-92189094D01*
X105265539Y-92189093D01*
X105265537Y-92189091D01*
X105144381Y-92094791D01*
X105087876Y-92050811D01*
X105054092Y-92032528D01*
X105005821Y-91986212D01*
X104988062Y-91921715D01*
X105005821Y-91857217D01*
X105054093Y-91810901D01*
X105087600Y-91792768D01*
X105265203Y-91654533D01*
X105417621Y-91488962D01*
X105540719Y-91300548D01*
X105631122Y-91094451D01*
X105678844Y-90906000D01*
X103005755Y-90906000D01*
X103053477Y-91094451D01*
X103143880Y-91300548D01*
X103266978Y-91488962D01*
X103419396Y-91654533D01*
X103597002Y-91792769D01*
X103630507Y-91810902D01*
X103678778Y-91857218D01*
X103696537Y-91921715D01*
X103678778Y-91986212D01*
X103630507Y-92032528D01*
X103596723Y-92050811D01*
X103419062Y-92189091D01*
X103266578Y-92354731D01*
X103143439Y-92543209D01*
X103053002Y-92749388D01*
X102997737Y-92967627D01*
X102997736Y-92967632D01*
X102979144Y-93192000D01*
X102997736Y-93416368D01*
X102997736Y-93416371D01*
X102997737Y-93416372D01*
X103053002Y-93634611D01*
X103053003Y-93634614D01*
X103053004Y-93634616D01*
X103057262Y-93644323D01*
X103143439Y-93840790D01*
X103143440Y-93840791D01*
X103266578Y-94029268D01*
X103353071Y-94123224D01*
X103419062Y-94194908D01*
X103596718Y-94333185D01*
X103596720Y-94333186D01*
X103596724Y-94333189D01*
X103629982Y-94351187D01*
X103678252Y-94397503D01*
X103696011Y-94462000D01*
X103678252Y-94526497D01*
X103629982Y-94572812D01*
X103615918Y-94580424D01*
X103596718Y-94590814D01*
X103419062Y-94729091D01*
X103266578Y-94894731D01*
X103143439Y-95083209D01*
X103053002Y-95289388D01*
X103000476Y-95496811D01*
X102997736Y-95507632D01*
X102979144Y-95732000D01*
X102997736Y-95956368D01*
X102997736Y-95956371D01*
X102997737Y-95956372D01*
X103053002Y-96174611D01*
X103053003Y-96174614D01*
X103053004Y-96174616D01*
X103057262Y-96184323D01*
X103143439Y-96380790D01*
X103266578Y-96569268D01*
X103419062Y-96734908D01*
X103596718Y-96873185D01*
X103596720Y-96873186D01*
X103596724Y-96873189D01*
X103629982Y-96891187D01*
X103678252Y-96937503D01*
X103696011Y-97002000D01*
X103678252Y-97066497D01*
X103629982Y-97112812D01*
X103605094Y-97126281D01*
X103596718Y-97130814D01*
X103419062Y-97269091D01*
X103266578Y-97434731D01*
X103143439Y-97623209D01*
X103053002Y-97829388D01*
X102997737Y-98047627D01*
X102997736Y-98047632D01*
X102979144Y-98272000D01*
X102997736Y-98496368D01*
X102997736Y-98496371D01*
X102997737Y-98496372D01*
X103053002Y-98714611D01*
X103053003Y-98714614D01*
X103053004Y-98714616D01*
X103057262Y-98724323D01*
X103143439Y-98920790D01*
X103188468Y-98989712D01*
X103266578Y-99109268D01*
X103406548Y-99261315D01*
X103419062Y-99274908D01*
X103451201Y-99299923D01*
X103596724Y-99413189D01*
X103629982Y-99431187D01*
X103678251Y-99477500D01*
X103696011Y-99541997D01*
X103678253Y-99606494D01*
X103629983Y-99652811D01*
X103596723Y-99670810D01*
X103419062Y-99809091D01*
X103266578Y-99974731D01*
X103143439Y-100163209D01*
X103053002Y-100369388D01*
X102997737Y-100587627D01*
X102997736Y-100587632D01*
X102979144Y-100812000D01*
X102997736Y-101036368D01*
X102997736Y-101036371D01*
X102997737Y-101036372D01*
X103053002Y-101254611D01*
X103053003Y-101254614D01*
X103053004Y-101254616D01*
X103064194Y-101280126D01*
X103143439Y-101460790D01*
X103266578Y-101649268D01*
X103419062Y-101814908D01*
X103596718Y-101953185D01*
X103596720Y-101953186D01*
X103596724Y-101953189D01*
X103629982Y-101971187D01*
X103678252Y-102017503D01*
X103696011Y-102082000D01*
X103678252Y-102146497D01*
X103629982Y-102192812D01*
X103608273Y-102204561D01*
X103596718Y-102210814D01*
X103419062Y-102349091D01*
X103266578Y-102514731D01*
X103143439Y-102703209D01*
X103053002Y-102909388D01*
X102997737Y-103127627D01*
X102997736Y-103127632D01*
X102979144Y-103352000D01*
X102997736Y-103576368D01*
X102997736Y-103576371D01*
X102997737Y-103576372D01*
X103053002Y-103794611D01*
X103053003Y-103794614D01*
X103053004Y-103794616D01*
X103057262Y-103804323D01*
X103143439Y-104000790D01*
X103266578Y-104189268D01*
X103419062Y-104354908D01*
X103520911Y-104434181D01*
X103596724Y-104493189D01*
X103629982Y-104511187D01*
X103678251Y-104557500D01*
X103696011Y-104621997D01*
X103678253Y-104686494D01*
X103629983Y-104732811D01*
X103596723Y-104750810D01*
X103419062Y-104889091D01*
X103266578Y-105054731D01*
X103143439Y-105243209D01*
X103053002Y-105449388D01*
X102997737Y-105667627D01*
X102997736Y-105667632D01*
X102979144Y-105892000D01*
X72470362Y-105892000D01*
X72577618Y-105784744D01*
X72666158Y-105643834D01*
X72721122Y-105486755D01*
X72739755Y-105321383D01*
X72721122Y-105156011D01*
X72666158Y-104998932D01*
X72597140Y-104889091D01*
X72577617Y-104858020D01*
X72459944Y-104740347D01*
X72319032Y-104651806D01*
X72161956Y-104596843D01*
X71996582Y-104578210D01*
X71831207Y-104596843D01*
X71674131Y-104651806D01*
X71533219Y-104740347D01*
X71415546Y-104858020D01*
X71403626Y-104876991D01*
X71363975Y-104916641D01*
X71311047Y-104935161D01*
X71255326Y-104928883D01*
X71155900Y-104894093D01*
X70990528Y-104875460D01*
X70825153Y-104894093D01*
X70668077Y-104949056D01*
X70527165Y-105037597D01*
X70409492Y-105155270D01*
X70320951Y-105296182D01*
X70265988Y-105453258D01*
X70265988Y-105453261D01*
X70247355Y-105618633D01*
X50032688Y-105618633D01*
X50032905Y-101741200D01*
X51103427Y-101741200D01*
X51122060Y-101906574D01*
X51177023Y-102063650D01*
X51265564Y-102204562D01*
X51383237Y-102322235D01*
X51383239Y-102322236D01*
X51524149Y-102410776D01*
X51681228Y-102465740D01*
X51846600Y-102484373D01*
X52011972Y-102465740D01*
X52169051Y-102410776D01*
X52309961Y-102322236D01*
X52427636Y-102204561D01*
X52516176Y-102063651D01*
X52571140Y-101906572D01*
X52589773Y-101741200D01*
X52571140Y-101575828D01*
X52557767Y-101537612D01*
X52553856Y-101467962D01*
X52587601Y-101406904D01*
X52648660Y-101373158D01*
X52718310Y-101377069D01*
X52807832Y-101408395D01*
X52984400Y-101428289D01*
X53160968Y-101408395D01*
X53328682Y-101349709D01*
X53479132Y-101255175D01*
X53604775Y-101129532D01*
X53699309Y-100979082D01*
X53757995Y-100811368D01*
X53777889Y-100634800D01*
X53757995Y-100458232D01*
X53746519Y-100425437D01*
X53729395Y-100376500D01*
X83358427Y-100376500D01*
X83377060Y-100541874D01*
X83432023Y-100698950D01*
X83520564Y-100839862D01*
X83638237Y-100957535D01*
X83779149Y-101046076D01*
X83852158Y-101071623D01*
X83936228Y-101101040D01*
X84101600Y-101119673D01*
X84266972Y-101101040D01*
X84424051Y-101046076D01*
X84564961Y-100957536D01*
X84682636Y-100839861D01*
X84771176Y-100698951D01*
X84826140Y-100541872D01*
X84844717Y-100377000D01*
X101138527Y-100377000D01*
X101157160Y-100542374D01*
X101212123Y-100699450D01*
X101300664Y-100840362D01*
X101418337Y-100958035D01*
X101451833Y-100979082D01*
X101559249Y-101046576D01*
X101716328Y-101101540D01*
X101881700Y-101120173D01*
X102047072Y-101101540D01*
X102204151Y-101046576D01*
X102345061Y-100958036D01*
X102462736Y-100840361D01*
X102551276Y-100699451D01*
X102606240Y-100542372D01*
X102624873Y-100377000D01*
X102606240Y-100211628D01*
X102584751Y-100150217D01*
X102551276Y-100054549D01*
X102462735Y-99913637D01*
X102345062Y-99795964D01*
X102204150Y-99707423D01*
X102047074Y-99652460D01*
X101881700Y-99633827D01*
X101716325Y-99652460D01*
X101559249Y-99707423D01*
X101418337Y-99795964D01*
X101300664Y-99913637D01*
X101212123Y-100054549D01*
X101157160Y-100211625D01*
X101138527Y-100377000D01*
X84844717Y-100377000D01*
X84844773Y-100376500D01*
X84835796Y-100296833D01*
X84844595Y-100234512D01*
X84882444Y-100184219D01*
X84939898Y-100158510D01*
X85002617Y-100163800D01*
X85077028Y-100189838D01*
X85242400Y-100208471D01*
X85407772Y-100189838D01*
X85564851Y-100134874D01*
X85705761Y-100046334D01*
X85823436Y-99928659D01*
X85911976Y-99787749D01*
X85966940Y-99630670D01*
X85985573Y-99465298D01*
X85966940Y-99299926D01*
X85953430Y-99261315D01*
X87229631Y-99261315D01*
X87248264Y-99426689D01*
X87303227Y-99583765D01*
X87391768Y-99724677D01*
X87509441Y-99842350D01*
X87622897Y-99913639D01*
X87650353Y-99930891D01*
X87807432Y-99985855D01*
X87972804Y-100004488D01*
X88138176Y-99985855D01*
X88295255Y-99930891D01*
X88436165Y-99842351D01*
X88553840Y-99724676D01*
X88642380Y-99583766D01*
X88697344Y-99426687D01*
X88715977Y-99261315D01*
X88697344Y-99095943D01*
X88691008Y-99077837D01*
X88642380Y-98938864D01*
X88553839Y-98797952D01*
X88436166Y-98680279D01*
X88295254Y-98591738D01*
X88138178Y-98536775D01*
X87972804Y-98518142D01*
X87807429Y-98536775D01*
X87650353Y-98591738D01*
X87509441Y-98680279D01*
X87391768Y-98797952D01*
X87303227Y-98938864D01*
X87248264Y-99095940D01*
X87229631Y-99261315D01*
X85953430Y-99261315D01*
X85911976Y-99142847D01*
X85898000Y-99120604D01*
X85823435Y-99001935D01*
X85705762Y-98884262D01*
X85564850Y-98795721D01*
X85407774Y-98740758D01*
X85242400Y-98722125D01*
X85077027Y-98740758D01*
X84966086Y-98779578D01*
X84896434Y-98783489D01*
X84835376Y-98749743D01*
X84801631Y-98688685D01*
X84805542Y-98619035D01*
X84826140Y-98560172D01*
X84844773Y-98394800D01*
X84826140Y-98229428D01*
X84771176Y-98072349D01*
X84682636Y-97931439D01*
X84682635Y-97931437D01*
X84564962Y-97813764D01*
X84424050Y-97725223D01*
X84266974Y-97670260D01*
X84101600Y-97651627D01*
X83936225Y-97670260D01*
X83779149Y-97725223D01*
X83638237Y-97813764D01*
X83520564Y-97931437D01*
X83432023Y-98072349D01*
X83377060Y-98229425D01*
X83358427Y-98394799D01*
X83377060Y-98560174D01*
X83432023Y-98717250D01*
X83520564Y-98858162D01*
X83638237Y-98975835D01*
X83779149Y-99064376D01*
X83936228Y-99119340D01*
X84101600Y-99137973D01*
X84266972Y-99119340D01*
X84377914Y-99080519D01*
X84447564Y-99076608D01*
X84508622Y-99110353D01*
X84542368Y-99171411D01*
X84538457Y-99241063D01*
X84517860Y-99299925D01*
X84499227Y-99465298D01*
X84508203Y-99544960D01*
X84499404Y-99607285D01*
X84461555Y-99657578D01*
X84404101Y-99683287D01*
X84341380Y-99677996D01*
X84266975Y-99651960D01*
X84101600Y-99633327D01*
X83936225Y-99651960D01*
X83779149Y-99706923D01*
X83638237Y-99795464D01*
X83520564Y-99913137D01*
X83432023Y-100054049D01*
X83377060Y-100211125D01*
X83358427Y-100376500D01*
X53729395Y-100376500D01*
X53699309Y-100290518D01*
X53647017Y-100207296D01*
X53604775Y-100140068D01*
X53604774Y-100140067D01*
X53604773Y-100140065D01*
X53479134Y-100014426D01*
X53328681Y-99919890D01*
X53160970Y-99861205D01*
X52984400Y-99841311D01*
X52807829Y-99861205D01*
X52723416Y-99890743D01*
X52653763Y-99894655D01*
X52592705Y-99860909D01*
X52558960Y-99799850D01*
X52562871Y-99730201D01*
X52571140Y-99706572D01*
X52589773Y-99541200D01*
X52571140Y-99375828D01*
X52516176Y-99218749D01*
X52516175Y-99218748D01*
X52427635Y-99077837D01*
X52309962Y-98960164D01*
X52169050Y-98871623D01*
X52011974Y-98816660D01*
X51899532Y-98803991D01*
X51846600Y-98798027D01*
X51846599Y-98798027D01*
X51681225Y-98816660D01*
X51524149Y-98871623D01*
X51383237Y-98960164D01*
X51265564Y-99077837D01*
X51177023Y-99218749D01*
X51122060Y-99375825D01*
X51103427Y-99541200D01*
X51122060Y-99706574D01*
X51177023Y-99863650D01*
X51265564Y-100004562D01*
X51383237Y-100122235D01*
X51494870Y-100192379D01*
X51524149Y-100210776D01*
X51681228Y-100265740D01*
X51846600Y-100284373D01*
X52011972Y-100265740D01*
X52068343Y-100246014D01*
X52137994Y-100242103D01*
X52199052Y-100275848D01*
X52232798Y-100336906D01*
X52228886Y-100406559D01*
X52210805Y-100458229D01*
X52190911Y-100634800D01*
X52210805Y-100811368D01*
X52233990Y-100877627D01*
X52237901Y-100947279D01*
X52204155Y-101008337D01*
X52143098Y-101042082D01*
X52073445Y-101038170D01*
X52011974Y-101016660D01*
X51846600Y-100998027D01*
X51681225Y-101016660D01*
X51524149Y-101071623D01*
X51383237Y-101160164D01*
X51265564Y-101277837D01*
X51177023Y-101418749D01*
X51122060Y-101575825D01*
X51103427Y-101741200D01*
X50032905Y-101741200D01*
X50033151Y-97341200D01*
X51103427Y-97341200D01*
X51122060Y-97506574D01*
X51177023Y-97663650D01*
X51265564Y-97804562D01*
X51383237Y-97922235D01*
X51524149Y-98010776D01*
X51636705Y-98050161D01*
X51681228Y-98065740D01*
X51846600Y-98084373D01*
X52011972Y-98065740D01*
X52169051Y-98010776D01*
X52309961Y-97922236D01*
X52427636Y-97804561D01*
X52516176Y-97663651D01*
X52571140Y-97506572D01*
X52589773Y-97341200D01*
X52571140Y-97175828D01*
X52557748Y-97137557D01*
X52516176Y-97018749D01*
X52427635Y-96877837D01*
X52309962Y-96760164D01*
X52169050Y-96671623D01*
X52011974Y-96616660D01*
X51846600Y-96598027D01*
X51681225Y-96616660D01*
X51524149Y-96671623D01*
X51383237Y-96760164D01*
X51265564Y-96877837D01*
X51177023Y-97018749D01*
X51122060Y-97175825D01*
X51103427Y-97341200D01*
X50033151Y-97341200D01*
X50033210Y-96290299D01*
X89805111Y-96290299D01*
X89825005Y-96466870D01*
X89883690Y-96634581D01*
X89978226Y-96785034D01*
X90103865Y-96910673D01*
X90103867Y-96910674D01*
X90103868Y-96910675D01*
X90254318Y-97005209D01*
X90422032Y-97063895D01*
X90598600Y-97083789D01*
X90775168Y-97063895D01*
X90942882Y-97005209D01*
X91093332Y-96910675D01*
X91218975Y-96785032D01*
X91313509Y-96634582D01*
X91372195Y-96466868D01*
X91392089Y-96290300D01*
X91372195Y-96113732D01*
X91313509Y-95946018D01*
X91218975Y-95795568D01*
X91218974Y-95795567D01*
X91218973Y-95795565D01*
X91093334Y-95669926D01*
X90942881Y-95575390D01*
X90775170Y-95516705D01*
X90598600Y-95496811D01*
X90422029Y-95516705D01*
X90254318Y-95575390D01*
X90103865Y-95669926D01*
X89978226Y-95795565D01*
X89883690Y-95946018D01*
X89825005Y-96113729D01*
X89805111Y-96290299D01*
X50033210Y-96290299D01*
X50033268Y-95250000D01*
X74847227Y-95250000D01*
X74865860Y-95415374D01*
X74920823Y-95572450D01*
X75009364Y-95713362D01*
X75127037Y-95831035D01*
X75267949Y-95919576D01*
X75373106Y-95956372D01*
X75425028Y-95974540D01*
X75590400Y-95993173D01*
X75755772Y-95974540D01*
X75912851Y-95919576D01*
X76053761Y-95831036D01*
X76171436Y-95713361D01*
X76259976Y-95572451D01*
X76314940Y-95415372D01*
X76333573Y-95250000D01*
X76314940Y-95084628D01*
X76314443Y-95083209D01*
X76259976Y-94927549D01*
X76175307Y-94792799D01*
X80384427Y-94792799D01*
X80403060Y-94958174D01*
X80458023Y-95115250D01*
X80546564Y-95256162D01*
X80664237Y-95373835D01*
X80712752Y-95404319D01*
X80805149Y-95462376D01*
X80962228Y-95517340D01*
X81127600Y-95535973D01*
X81292972Y-95517340D01*
X81450051Y-95462376D01*
X81590961Y-95373836D01*
X81708636Y-95256161D01*
X81797176Y-95115251D01*
X81852140Y-94958172D01*
X81870773Y-94792800D01*
X81852140Y-94627428D01*
X81825769Y-94552065D01*
X81797176Y-94470349D01*
X81708635Y-94329437D01*
X81590962Y-94211764D01*
X81450050Y-94123223D01*
X81292974Y-94068260D01*
X81127600Y-94049627D01*
X80962225Y-94068260D01*
X80805149Y-94123223D01*
X80664237Y-94211764D01*
X80546564Y-94329437D01*
X80458023Y-94470349D01*
X80403060Y-94627425D01*
X80384427Y-94792799D01*
X76175307Y-94792799D01*
X76171435Y-94786637D01*
X76053762Y-94668964D01*
X75912850Y-94580423D01*
X75755774Y-94525460D01*
X75590400Y-94506827D01*
X75425025Y-94525460D01*
X75267949Y-94580423D01*
X75127037Y-94668964D01*
X75009364Y-94786637D01*
X74920823Y-94927549D01*
X74865860Y-95084625D01*
X74847227Y-95250000D01*
X50033268Y-95250000D01*
X50033400Y-92894800D01*
X70758427Y-92894800D01*
X70777060Y-93060174D01*
X70832023Y-93217250D01*
X70920564Y-93358162D01*
X71038237Y-93475835D01*
X71115860Y-93524609D01*
X71179149Y-93564376D01*
X71336228Y-93619340D01*
X71501600Y-93637973D01*
X71666972Y-93619340D01*
X71824051Y-93564376D01*
X71964961Y-93475836D01*
X72082636Y-93358161D01*
X72171176Y-93217251D01*
X72226140Y-93060172D01*
X72244773Y-92894800D01*
X72758427Y-92894800D01*
X72777060Y-93060174D01*
X72832023Y-93217250D01*
X72920564Y-93358162D01*
X73038237Y-93475835D01*
X73115860Y-93524609D01*
X73179149Y-93564376D01*
X73336228Y-93619340D01*
X73501600Y-93637973D01*
X73666972Y-93619340D01*
X73824051Y-93564376D01*
X73964961Y-93475836D01*
X74082636Y-93358161D01*
X74171176Y-93217251D01*
X74226140Y-93060172D01*
X74244773Y-92894800D01*
X74758427Y-92894800D01*
X74777060Y-93060174D01*
X74832023Y-93217250D01*
X74920564Y-93358162D01*
X75038237Y-93475835D01*
X75115860Y-93524609D01*
X75179149Y-93564376D01*
X75336228Y-93619340D01*
X75501600Y-93637973D01*
X75666972Y-93619340D01*
X75824051Y-93564376D01*
X75964961Y-93475836D01*
X76082636Y-93358161D01*
X76171176Y-93217251D01*
X76226140Y-93060172D01*
X76244773Y-92894800D01*
X76758427Y-92894800D01*
X76777060Y-93060174D01*
X76832023Y-93217250D01*
X76920564Y-93358162D01*
X77038237Y-93475835D01*
X77115860Y-93524609D01*
X77179149Y-93564376D01*
X77336228Y-93619340D01*
X77501600Y-93637973D01*
X77666972Y-93619340D01*
X77824051Y-93564376D01*
X77964961Y-93475836D01*
X78082636Y-93358161D01*
X78171176Y-93217251D01*
X78226140Y-93060172D01*
X78244773Y-92894800D01*
X78758427Y-92894800D01*
X78777060Y-93060174D01*
X78832023Y-93217250D01*
X78920564Y-93358162D01*
X79038237Y-93475835D01*
X79115860Y-93524609D01*
X79179149Y-93564376D01*
X79336228Y-93619340D01*
X79501600Y-93637973D01*
X79666972Y-93619340D01*
X79824051Y-93564376D01*
X79964961Y-93475836D01*
X80082636Y-93358161D01*
X80171176Y-93217251D01*
X80226140Y-93060172D01*
X80244773Y-92894800D01*
X80758427Y-92894800D01*
X80777060Y-93060174D01*
X80832023Y-93217250D01*
X80920564Y-93358162D01*
X81038237Y-93475835D01*
X81115860Y-93524609D01*
X81179149Y-93564376D01*
X81336228Y-93619340D01*
X81501600Y-93637973D01*
X81666972Y-93619340D01*
X81824051Y-93564376D01*
X81964961Y-93475836D01*
X82082636Y-93358161D01*
X82171176Y-93217251D01*
X82226140Y-93060172D01*
X82244773Y-92894800D01*
X82226140Y-92729428D01*
X82191314Y-92629900D01*
X85951411Y-92629900D01*
X85971305Y-92806470D01*
X86029990Y-92974181D01*
X86124526Y-93124634D01*
X86250165Y-93250273D01*
X86250167Y-93250274D01*
X86250168Y-93250275D01*
X86400618Y-93344809D01*
X86568332Y-93403495D01*
X86744900Y-93423389D01*
X86921468Y-93403495D01*
X87089182Y-93344809D01*
X87239632Y-93250275D01*
X87365275Y-93124632D01*
X87459809Y-92974182D01*
X87517364Y-92809700D01*
X89779711Y-92809700D01*
X89799605Y-92986270D01*
X89858290Y-93153981D01*
X89952826Y-93304434D01*
X90078465Y-93430073D01*
X90078467Y-93430074D01*
X90078468Y-93430075D01*
X90228918Y-93524609D01*
X90396632Y-93583295D01*
X90573200Y-93603189D01*
X90749768Y-93583295D01*
X90917482Y-93524609D01*
X91067932Y-93430075D01*
X91193575Y-93304432D01*
X91288109Y-93153982D01*
X91346795Y-92986268D01*
X91366689Y-92809700D01*
X91346795Y-92633132D01*
X91288109Y-92465418D01*
X91193575Y-92314968D01*
X91193574Y-92314967D01*
X91193573Y-92314965D01*
X91067934Y-92189326D01*
X90917481Y-92094790D01*
X90749770Y-92036105D01*
X90573200Y-92016211D01*
X90396629Y-92036105D01*
X90228918Y-92094790D01*
X90078465Y-92189326D01*
X89952826Y-92314965D01*
X89858290Y-92465418D01*
X89799605Y-92633129D01*
X89779711Y-92809700D01*
X87517364Y-92809700D01*
X87518495Y-92806468D01*
X87538389Y-92629900D01*
X87518495Y-92453332D01*
X87492334Y-92378570D01*
X87459809Y-92285618D01*
X87391165Y-92176372D01*
X87365275Y-92135168D01*
X87365274Y-92135167D01*
X87365273Y-92135165D01*
X87239634Y-92009526D01*
X87089181Y-91914990D01*
X86921470Y-91856305D01*
X86744900Y-91836411D01*
X86568329Y-91856305D01*
X86400618Y-91914990D01*
X86250165Y-92009526D01*
X86124526Y-92135165D01*
X86029990Y-92285618D01*
X85971305Y-92453329D01*
X85951411Y-92629900D01*
X82191314Y-92629900D01*
X82171176Y-92572349D01*
X82129989Y-92506800D01*
X82082635Y-92431437D01*
X81964962Y-92313764D01*
X81824050Y-92225223D01*
X81666974Y-92170260D01*
X81501600Y-92151627D01*
X81336225Y-92170260D01*
X81179149Y-92225223D01*
X81038237Y-92313764D01*
X80920564Y-92431437D01*
X80832023Y-92572349D01*
X80777060Y-92729425D01*
X80758427Y-92894800D01*
X80244773Y-92894800D01*
X80226140Y-92729428D01*
X80171176Y-92572349D01*
X80129989Y-92506800D01*
X80082635Y-92431437D01*
X79964962Y-92313764D01*
X79824050Y-92225223D01*
X79666974Y-92170260D01*
X79501600Y-92151627D01*
X79336225Y-92170260D01*
X79179149Y-92225223D01*
X79038237Y-92313764D01*
X78920564Y-92431437D01*
X78832023Y-92572349D01*
X78777060Y-92729425D01*
X78758427Y-92894800D01*
X78244773Y-92894800D01*
X78226140Y-92729428D01*
X78171176Y-92572349D01*
X78129989Y-92506800D01*
X78082635Y-92431437D01*
X77964962Y-92313764D01*
X77824050Y-92225223D01*
X77666974Y-92170260D01*
X77501600Y-92151627D01*
X77336225Y-92170260D01*
X77179149Y-92225223D01*
X77038237Y-92313764D01*
X76920564Y-92431437D01*
X76832023Y-92572349D01*
X76777060Y-92729425D01*
X76758427Y-92894800D01*
X76244773Y-92894800D01*
X76226140Y-92729428D01*
X76171176Y-92572349D01*
X76129989Y-92506800D01*
X76082635Y-92431437D01*
X75964962Y-92313764D01*
X75824050Y-92225223D01*
X75666974Y-92170260D01*
X75501600Y-92151627D01*
X75336225Y-92170260D01*
X75179149Y-92225223D01*
X75038237Y-92313764D01*
X74920564Y-92431437D01*
X74832023Y-92572349D01*
X74777060Y-92729425D01*
X74758427Y-92894800D01*
X74244773Y-92894800D01*
X74226140Y-92729428D01*
X74171176Y-92572349D01*
X74129989Y-92506800D01*
X74082635Y-92431437D01*
X73964962Y-92313764D01*
X73824050Y-92225223D01*
X73666974Y-92170260D01*
X73501600Y-92151627D01*
X73336225Y-92170260D01*
X73179149Y-92225223D01*
X73038237Y-92313764D01*
X72920564Y-92431437D01*
X72832023Y-92572349D01*
X72777060Y-92729425D01*
X72758427Y-92894800D01*
X72244773Y-92894800D01*
X72226140Y-92729428D01*
X72171176Y-92572349D01*
X72129989Y-92506800D01*
X72082635Y-92431437D01*
X71964962Y-92313764D01*
X71824050Y-92225223D01*
X71666974Y-92170260D01*
X71501600Y-92151627D01*
X71336225Y-92170260D01*
X71179149Y-92225223D01*
X71038237Y-92313764D01*
X70920564Y-92431437D01*
X70832023Y-92572349D01*
X70777060Y-92729425D01*
X70758427Y-92894800D01*
X50033400Y-92894800D01*
X50033542Y-90352294D01*
X50049957Y-90290116D01*
X50094920Y-90244136D01*
X50156717Y-90226335D01*
X50219250Y-90241348D01*
X50266229Y-90285266D01*
X50281227Y-90309135D01*
X50406865Y-90434773D01*
X50557318Y-90529309D01*
X50722688Y-90587175D01*
X50725032Y-90587995D01*
X50901600Y-90607889D01*
X51078168Y-90587995D01*
X51245882Y-90529309D01*
X51396332Y-90434775D01*
X51433108Y-90397999D01*
X103005755Y-90397999D01*
X103005756Y-90398000D01*
X104088300Y-90398000D01*
X104088300Y-89317609D01*
X104596300Y-89317609D01*
X104596300Y-90398000D01*
X105678844Y-90398000D01*
X105678844Y-90397999D01*
X105631122Y-90209548D01*
X105540719Y-90003451D01*
X105417621Y-89815037D01*
X105265203Y-89649466D01*
X105087602Y-89511233D01*
X104889668Y-89404116D01*
X104676814Y-89331044D01*
X104596300Y-89317609D01*
X104088300Y-89317609D01*
X104007785Y-89331044D01*
X103794931Y-89404116D01*
X103596997Y-89511233D01*
X103419396Y-89649466D01*
X103266978Y-89815037D01*
X103143880Y-90003451D01*
X103053477Y-90209548D01*
X103005755Y-90397999D01*
X51433108Y-90397999D01*
X51521975Y-90309132D01*
X51616509Y-90158682D01*
X51675195Y-89990968D01*
X51695089Y-89814400D01*
X51675195Y-89637832D01*
X51616509Y-89470118D01*
X51585231Y-89420340D01*
X72447771Y-89420340D01*
X72467665Y-89596910D01*
X72526350Y-89764621D01*
X72620886Y-89915074D01*
X72746525Y-90040713D01*
X72746527Y-90040714D01*
X72746528Y-90040715D01*
X72877339Y-90122909D01*
X72896978Y-90135249D01*
X73029426Y-90181595D01*
X73064692Y-90193935D01*
X73241260Y-90213829D01*
X73417828Y-90193935D01*
X73585542Y-90135249D01*
X73735992Y-90040715D01*
X73861635Y-89915072D01*
X73956169Y-89764622D01*
X74014855Y-89596908D01*
X74034749Y-89420340D01*
X74033359Y-89408000D01*
X76168511Y-89408000D01*
X76188405Y-89584570D01*
X76247090Y-89752281D01*
X76341626Y-89902734D01*
X76467265Y-90028373D01*
X76467267Y-90028374D01*
X76467268Y-90028375D01*
X76617718Y-90122909D01*
X76785432Y-90181595D01*
X76962000Y-90201489D01*
X77138568Y-90181595D01*
X77306282Y-90122909D01*
X77456732Y-90028375D01*
X77582375Y-89902732D01*
X77676909Y-89752282D01*
X77735595Y-89584568D01*
X77753828Y-89422738D01*
X80166973Y-89422738D01*
X80186867Y-89599308D01*
X80245552Y-89767019D01*
X80340088Y-89917472D01*
X80465727Y-90043111D01*
X80616180Y-90137647D01*
X80779761Y-90194887D01*
X80783894Y-90196333D01*
X80960462Y-90216227D01*
X81137030Y-90196333D01*
X81304744Y-90137647D01*
X81455194Y-90043113D01*
X81580837Y-89917470D01*
X81675371Y-89767020D01*
X81734057Y-89599306D01*
X81753951Y-89422738D01*
X81752290Y-89408000D01*
X83991711Y-89408000D01*
X84011605Y-89584570D01*
X84070290Y-89752281D01*
X84164826Y-89902734D01*
X84290465Y-90028373D01*
X84290467Y-90028374D01*
X84290468Y-90028375D01*
X84440918Y-90122909D01*
X84608632Y-90181595D01*
X84785200Y-90201489D01*
X84961768Y-90181595D01*
X85129482Y-90122909D01*
X85279932Y-90028375D01*
X85405575Y-89902732D01*
X85500109Y-89752282D01*
X85558795Y-89584568D01*
X85578689Y-89408000D01*
X85558795Y-89231432D01*
X85500109Y-89063718D01*
X85405575Y-88913268D01*
X85405574Y-88913267D01*
X85405573Y-88913265D01*
X85279934Y-88787626D01*
X85129481Y-88693090D01*
X84961770Y-88634405D01*
X84785200Y-88614511D01*
X84608629Y-88634405D01*
X84440918Y-88693090D01*
X84290465Y-88787626D01*
X84164826Y-88913265D01*
X84070290Y-89063718D01*
X84011605Y-89231429D01*
X83991711Y-89408000D01*
X81752290Y-89408000D01*
X81734057Y-89246170D01*
X81675371Y-89078456D01*
X81580837Y-88928006D01*
X81580836Y-88928005D01*
X81580835Y-88928003D01*
X81455196Y-88802364D01*
X81304743Y-88707828D01*
X81137032Y-88649143D01*
X80960462Y-88629249D01*
X80783891Y-88649143D01*
X80616180Y-88707828D01*
X80465727Y-88802364D01*
X80340088Y-88928003D01*
X80245552Y-89078456D01*
X80186867Y-89246167D01*
X80166973Y-89422738D01*
X77753828Y-89422738D01*
X77755489Y-89408000D01*
X77735595Y-89231432D01*
X77676909Y-89063718D01*
X77582375Y-88913268D01*
X77582374Y-88913267D01*
X77582373Y-88913265D01*
X77456734Y-88787626D01*
X77306281Y-88693090D01*
X77138570Y-88634405D01*
X76962000Y-88614511D01*
X76785429Y-88634405D01*
X76617718Y-88693090D01*
X76467265Y-88787626D01*
X76341626Y-88913265D01*
X76247090Y-89063718D01*
X76188405Y-89231429D01*
X76168511Y-89408000D01*
X74033359Y-89408000D01*
X74014855Y-89243772D01*
X73990199Y-89173311D01*
X73956169Y-89076058D01*
X73861633Y-88925605D01*
X73735994Y-88799966D01*
X73585541Y-88705430D01*
X73417830Y-88646745D01*
X73241260Y-88626851D01*
X73064689Y-88646745D01*
X72896978Y-88705430D01*
X72746525Y-88799966D01*
X72620886Y-88925605D01*
X72526350Y-89076058D01*
X72467665Y-89243769D01*
X72447771Y-89420340D01*
X51585231Y-89420340D01*
X51521975Y-89319668D01*
X51521974Y-89319667D01*
X51521973Y-89319665D01*
X51396334Y-89194026D01*
X51245881Y-89099490D01*
X51078170Y-89040805D01*
X50901600Y-89020911D01*
X50725029Y-89040805D01*
X50557318Y-89099490D01*
X50406865Y-89194026D01*
X50281224Y-89319667D01*
X50266288Y-89343438D01*
X50219307Y-89387357D01*
X50156771Y-89402369D01*
X50094972Y-89384563D01*
X50050012Y-89338578D01*
X50033602Y-89276396D01*
X50033858Y-84702192D01*
X50931800Y-84702192D01*
X50971366Y-84939297D01*
X50979479Y-84962929D01*
X51049416Y-85166652D01*
X51049417Y-85166655D01*
X51049418Y-85166656D01*
X51163828Y-85378067D01*
X51311475Y-85567764D01*
X51488331Y-85730571D01*
X51689572Y-85862049D01*
X51909709Y-85958610D01*
X52142737Y-86017620D01*
X52322310Y-86032500D01*
X52442285Y-86032500D01*
X52442290Y-86032500D01*
X52621863Y-86017620D01*
X52854891Y-85958610D01*
X53075028Y-85862049D01*
X53276269Y-85730571D01*
X53453125Y-85567764D01*
X53600772Y-85378067D01*
X53715182Y-85166656D01*
X53793234Y-84939297D01*
X53832800Y-84702192D01*
X101851800Y-84702192D01*
X101891366Y-84939297D01*
X101899479Y-84962929D01*
X101969416Y-85166652D01*
X101969417Y-85166655D01*
X101969418Y-85166656D01*
X102083828Y-85378067D01*
X102231475Y-85567764D01*
X102408331Y-85730571D01*
X102609572Y-85862049D01*
X102829709Y-85958610D01*
X103062737Y-86017620D01*
X103242310Y-86032500D01*
X103362285Y-86032500D01*
X103362290Y-86032500D01*
X103541863Y-86017620D01*
X103774891Y-85958610D01*
X103995028Y-85862049D01*
X104196269Y-85730571D01*
X104373125Y-85567764D01*
X104520772Y-85378067D01*
X104635182Y-85166656D01*
X104713234Y-84939297D01*
X104752800Y-84702192D01*
X104752800Y-84461808D01*
X104713234Y-84224703D01*
X104635182Y-83997344D01*
X104520772Y-83785933D01*
X104373125Y-83596236D01*
X104356665Y-83581084D01*
X104196272Y-83433432D01*
X104196269Y-83433429D01*
X103995028Y-83301951D01*
X103995025Y-83301949D01*
X103995024Y-83301949D01*
X103884959Y-83253670D01*
X103774891Y-83205390D01*
X103541863Y-83146380D01*
X103362290Y-83131500D01*
X103242310Y-83131500D01*
X103062737Y-83146380D01*
X102829709Y-83205390D01*
X102829705Y-83205391D01*
X102829704Y-83205392D01*
X102609575Y-83301949D01*
X102609571Y-83301951D01*
X102609572Y-83301951D01*
X102408331Y-83433429D01*
X102408329Y-83433430D01*
X102408327Y-83433432D01*
X102231478Y-83596232D01*
X102083829Y-83785931D01*
X101969416Y-83997347D01*
X101891367Y-84224700D01*
X101891366Y-84224703D01*
X101851800Y-84461808D01*
X101851800Y-84702192D01*
X53832800Y-84702192D01*
X53832800Y-84461808D01*
X53793234Y-84224703D01*
X53715182Y-83997344D01*
X53600772Y-83785933D01*
X53453125Y-83596236D01*
X53436665Y-83581084D01*
X53276272Y-83433432D01*
X53276269Y-83433429D01*
X53075028Y-83301951D01*
X53075025Y-83301949D01*
X53075024Y-83301949D01*
X52964959Y-83253670D01*
X52854891Y-83205390D01*
X52621863Y-83146380D01*
X52442290Y-83131500D01*
X52322310Y-83131500D01*
X52142737Y-83146380D01*
X51909709Y-83205390D01*
X51909705Y-83205391D01*
X51909704Y-83205392D01*
X51689575Y-83301949D01*
X51689571Y-83301951D01*
X51689572Y-83301951D01*
X51488331Y-83433429D01*
X51488329Y-83433430D01*
X51488327Y-83433432D01*
X51311478Y-83596232D01*
X51163829Y-83785931D01*
X51049416Y-83997347D01*
X50971367Y-84224700D01*
X50971366Y-84224703D01*
X50931800Y-84461808D01*
X50931800Y-84702192D01*
X50033858Y-84702192D01*
X50034004Y-82092800D01*
X106943600Y-82092800D01*
X107997600Y-82092800D01*
X107997600Y-81038800D01*
X108505600Y-81038800D01*
X108505600Y-82092800D01*
X109559600Y-82092800D01*
X109559600Y-81498211D01*
X109553094Y-81437706D01*
X109502045Y-81300837D01*
X109414504Y-81183895D01*
X109297562Y-81096354D01*
X109160693Y-81045305D01*
X109100189Y-81038800D01*
X108505600Y-81038800D01*
X107997600Y-81038800D01*
X107403011Y-81038800D01*
X107342506Y-81045305D01*
X107205637Y-81096354D01*
X107088695Y-81183895D01*
X107001154Y-81300837D01*
X106950105Y-81437706D01*
X106943600Y-81498211D01*
X106943600Y-82092800D01*
X50034004Y-82092800D01*
X50034126Y-79908400D01*
X51008444Y-79908400D01*
X51027036Y-80132768D01*
X51027036Y-80132771D01*
X51027037Y-80132772D01*
X51082302Y-80351011D01*
X51172739Y-80557190D01*
X51295876Y-80745665D01*
X51295878Y-80745668D01*
X51408125Y-80867600D01*
X51448362Y-80911308D01*
X51612162Y-81038800D01*
X51626024Y-81049589D01*
X51824026Y-81156742D01*
X52036965Y-81229844D01*
X52259031Y-81266900D01*
X52484166Y-81266900D01*
X52484169Y-81266900D01*
X52706235Y-81229844D01*
X52919174Y-81156742D01*
X53117176Y-81049589D01*
X53294840Y-80911306D01*
X53447322Y-80745668D01*
X53536118Y-80609754D01*
X53581630Y-80567857D01*
X53641600Y-80552671D01*
X53701570Y-80567857D01*
X53747081Y-80609754D01*
X53835878Y-80745668D01*
X53951553Y-80871323D01*
X53988362Y-80911308D01*
X54152162Y-81038800D01*
X54166024Y-81049589D01*
X54364026Y-81156742D01*
X54576965Y-81229844D01*
X54799031Y-81266900D01*
X55024166Y-81266900D01*
X55024169Y-81266900D01*
X55246235Y-81229844D01*
X55459174Y-81156742D01*
X55657176Y-81049589D01*
X55834840Y-80911306D01*
X55987322Y-80745668D01*
X56076118Y-80609754D01*
X56121630Y-80567857D01*
X56181600Y-80552671D01*
X56241570Y-80567857D01*
X56287081Y-80609754D01*
X56375878Y-80745668D01*
X56491553Y-80871323D01*
X56528362Y-80911308D01*
X56692162Y-81038800D01*
X56706024Y-81049589D01*
X56904026Y-81156742D01*
X57116965Y-81229844D01*
X57339031Y-81266900D01*
X57564166Y-81266900D01*
X57564169Y-81266900D01*
X57786235Y-81229844D01*
X57999174Y-81156742D01*
X58197176Y-81049589D01*
X58374840Y-80911306D01*
X58527322Y-80745668D01*
X58616118Y-80609754D01*
X58661630Y-80567857D01*
X58721600Y-80552671D01*
X58781570Y-80567857D01*
X58827081Y-80609754D01*
X58915878Y-80745668D01*
X59031553Y-80871323D01*
X59068362Y-80911308D01*
X59232162Y-81038800D01*
X59246024Y-81049589D01*
X59444026Y-81156742D01*
X59656965Y-81229844D01*
X59879031Y-81266900D01*
X60104166Y-81266900D01*
X60104169Y-81266900D01*
X60326235Y-81229844D01*
X60539174Y-81156742D01*
X60737176Y-81049589D01*
X60914840Y-80911306D01*
X61067322Y-80745668D01*
X61156118Y-80609754D01*
X61201630Y-80567857D01*
X61261600Y-80552671D01*
X61321570Y-80567857D01*
X61367081Y-80609754D01*
X61455878Y-80745668D01*
X61571553Y-80871323D01*
X61608362Y-80911308D01*
X61772162Y-81038800D01*
X61786024Y-81049589D01*
X61984026Y-81156742D01*
X62196965Y-81229844D01*
X62419031Y-81266900D01*
X62644166Y-81266900D01*
X62644169Y-81266900D01*
X62866235Y-81229844D01*
X63079174Y-81156742D01*
X63277176Y-81049589D01*
X63454840Y-80911306D01*
X63607322Y-80745668D01*
X63696118Y-80609754D01*
X63741630Y-80567857D01*
X63801600Y-80552671D01*
X63861570Y-80567857D01*
X63907081Y-80609754D01*
X63995878Y-80745668D01*
X64111553Y-80871323D01*
X64148362Y-80911308D01*
X64312162Y-81038800D01*
X64326024Y-81049589D01*
X64524026Y-81156742D01*
X64736965Y-81229844D01*
X64959031Y-81266900D01*
X65184166Y-81266900D01*
X65184169Y-81266900D01*
X65406235Y-81229844D01*
X65619174Y-81156742D01*
X65817176Y-81049589D01*
X65994840Y-80911306D01*
X66147322Y-80745668D01*
X66236118Y-80609754D01*
X66281630Y-80567857D01*
X66341600Y-80552671D01*
X66401570Y-80567857D01*
X66447081Y-80609754D01*
X66535878Y-80745668D01*
X66651553Y-80871323D01*
X66688362Y-80911308D01*
X66852162Y-81038800D01*
X66866024Y-81049589D01*
X67064026Y-81156742D01*
X67276965Y-81229844D01*
X67499031Y-81266900D01*
X67724166Y-81266900D01*
X67724169Y-81266900D01*
X67946235Y-81229844D01*
X68159174Y-81156742D01*
X68357176Y-81049589D01*
X68534840Y-80911306D01*
X68687322Y-80745668D01*
X68776118Y-80609754D01*
X68821631Y-80567858D01*
X68881600Y-80552672D01*
X68941569Y-80567858D01*
X68987081Y-80609754D01*
X69075878Y-80745668D01*
X69188125Y-80867600D01*
X69228362Y-80911308D01*
X69392162Y-81038800D01*
X69406024Y-81049589D01*
X69604026Y-81156742D01*
X69816965Y-81229844D01*
X70039031Y-81266900D01*
X70264166Y-81266900D01*
X70264169Y-81266900D01*
X70486235Y-81229844D01*
X70699174Y-81156742D01*
X70897176Y-81049589D01*
X71074840Y-80911306D01*
X71227322Y-80745668D01*
X71316118Y-80609754D01*
X71361631Y-80567858D01*
X71421600Y-80552672D01*
X71481569Y-80567858D01*
X71527081Y-80609754D01*
X71615878Y-80745668D01*
X71728125Y-80867600D01*
X71768362Y-80911308D01*
X71932162Y-81038800D01*
X71946024Y-81049589D01*
X72144026Y-81156742D01*
X72356965Y-81229844D01*
X72579031Y-81266900D01*
X72804166Y-81266900D01*
X72804169Y-81266900D01*
X73026235Y-81229844D01*
X73239174Y-81156742D01*
X73437176Y-81049589D01*
X73614840Y-80911306D01*
X73767322Y-80745668D01*
X73856118Y-80609754D01*
X73901631Y-80567858D01*
X73961600Y-80552672D01*
X74021569Y-80567858D01*
X74067081Y-80609754D01*
X74155878Y-80745668D01*
X74268125Y-80867600D01*
X74308362Y-80911308D01*
X74472162Y-81038800D01*
X74486024Y-81049589D01*
X74684026Y-81156742D01*
X74896965Y-81229844D01*
X75119031Y-81266900D01*
X75344166Y-81266900D01*
X75344169Y-81266900D01*
X75566235Y-81229844D01*
X75779174Y-81156742D01*
X75977176Y-81049589D01*
X76154840Y-80911306D01*
X76215846Y-80845035D01*
X76269316Y-80810638D01*
X76332777Y-80806727D01*
X76390069Y-80834303D01*
X76426600Y-80886342D01*
X76470709Y-81004603D01*
X76558338Y-81121661D01*
X76675394Y-81209288D01*
X76675395Y-81209288D01*
X76675396Y-81209289D01*
X76812399Y-81260389D01*
X76872962Y-81266900D01*
X78670238Y-81266900D01*
X78730801Y-81260389D01*
X78867804Y-81209289D01*
X78984861Y-81121661D01*
X79072489Y-81004604D01*
X79123589Y-80867601D01*
X79130100Y-80807038D01*
X79130100Y-80290288D01*
X119429293Y-80290288D01*
X119447926Y-80455662D01*
X119502889Y-80612738D01*
X119591430Y-80753650D01*
X119709103Y-80871323D01*
X119709105Y-80871324D01*
X119850015Y-80959864D01*
X119907504Y-80979980D01*
X119954984Y-81009813D01*
X119984818Y-81057293D01*
X120004936Y-81114786D01*
X120093476Y-81255696D01*
X120211149Y-81373369D01*
X120211151Y-81373370D01*
X120352061Y-81461910D01*
X120509140Y-81516874D01*
X120674512Y-81535507D01*
X120839884Y-81516874D01*
X120996963Y-81461910D01*
X121137873Y-81373370D01*
X121255548Y-81255695D01*
X121344088Y-81114785D01*
X121399052Y-80957706D01*
X121417685Y-80792334D01*
X121399052Y-80626962D01*
X121344088Y-80469883D01*
X121335151Y-80455660D01*
X121255547Y-80328971D01*
X121137874Y-80211298D01*
X120996964Y-80122758D01*
X120939471Y-80102640D01*
X120891991Y-80072806D01*
X120862158Y-80025326D01*
X120842042Y-79967837D01*
X120753502Y-79826927D01*
X120753501Y-79826925D01*
X120635828Y-79709252D01*
X120494916Y-79620711D01*
X120337840Y-79565748D01*
X120172466Y-79547115D01*
X120007091Y-79565748D01*
X119850015Y-79620711D01*
X119709103Y-79709252D01*
X119591430Y-79826925D01*
X119502889Y-79967837D01*
X119447926Y-80124913D01*
X119429293Y-80290288D01*
X79130100Y-80290288D01*
X79130100Y-79009762D01*
X79123589Y-78949199D01*
X79072489Y-78812196D01*
X79072488Y-78812194D01*
X78984861Y-78695138D01*
X78867805Y-78607511D01*
X78799302Y-78581961D01*
X78730801Y-78556411D01*
X78670238Y-78549900D01*
X76872962Y-78549900D01*
X76812399Y-78556411D01*
X76675394Y-78607511D01*
X76558338Y-78695138D01*
X76470709Y-78812196D01*
X76426600Y-78930457D01*
X76390069Y-78982496D01*
X76332778Y-79010072D01*
X76269316Y-79006162D01*
X76215845Y-78971762D01*
X76154840Y-78905494D01*
X76154839Y-78905493D01*
X76154837Y-78905491D01*
X75977178Y-78767212D01*
X75779173Y-78660057D01*
X75594761Y-78596749D01*
X75566235Y-78586956D01*
X75344169Y-78549900D01*
X75119031Y-78549900D01*
X74896965Y-78586956D01*
X74896962Y-78586956D01*
X74896962Y-78586957D01*
X74684026Y-78660057D01*
X74486021Y-78767212D01*
X74308362Y-78905491D01*
X74155878Y-79071131D01*
X74067083Y-79207043D01*
X74021569Y-79248941D01*
X73961600Y-79264127D01*
X73901631Y-79248941D01*
X73856117Y-79207043D01*
X73790726Y-79106955D01*
X73767322Y-79071132D01*
X73614840Y-78905494D01*
X73614839Y-78905493D01*
X73614837Y-78905491D01*
X73437178Y-78767212D01*
X73239173Y-78660057D01*
X73054761Y-78596749D01*
X73026235Y-78586956D01*
X72804169Y-78549900D01*
X72579031Y-78549900D01*
X72356965Y-78586956D01*
X72356962Y-78586956D01*
X72356962Y-78586957D01*
X72144026Y-78660057D01*
X71946021Y-78767212D01*
X71768362Y-78905491D01*
X71615878Y-79071131D01*
X71527083Y-79207043D01*
X71481569Y-79248941D01*
X71421600Y-79264127D01*
X71361631Y-79248941D01*
X71316117Y-79207043D01*
X71250726Y-79106955D01*
X71227322Y-79071132D01*
X71074840Y-78905494D01*
X71074839Y-78905493D01*
X71074837Y-78905491D01*
X70897178Y-78767212D01*
X70699173Y-78660057D01*
X70514761Y-78596749D01*
X70486235Y-78586956D01*
X70264169Y-78549900D01*
X70039031Y-78549900D01*
X69816965Y-78586956D01*
X69816962Y-78586956D01*
X69816962Y-78586957D01*
X69604026Y-78660057D01*
X69406021Y-78767212D01*
X69228362Y-78905491D01*
X69075878Y-79071131D01*
X68987083Y-79207043D01*
X68941569Y-79248941D01*
X68881600Y-79264127D01*
X68821631Y-79248941D01*
X68776117Y-79207043D01*
X68710726Y-79106955D01*
X68687322Y-79071132D01*
X68534840Y-78905494D01*
X68534839Y-78905493D01*
X68534837Y-78905491D01*
X68357178Y-78767212D01*
X68159173Y-78660057D01*
X67974761Y-78596749D01*
X67946235Y-78586956D01*
X67724169Y-78549900D01*
X67499031Y-78549900D01*
X67276965Y-78586956D01*
X67276962Y-78586956D01*
X67276962Y-78586957D01*
X67064026Y-78660057D01*
X66866021Y-78767212D01*
X66688362Y-78905491D01*
X66535878Y-79071131D01*
X66447083Y-79207043D01*
X66401569Y-79248941D01*
X66341600Y-79264127D01*
X66281631Y-79248941D01*
X66236117Y-79207043D01*
X66170726Y-79106955D01*
X66147322Y-79071132D01*
X65994840Y-78905494D01*
X65994839Y-78905493D01*
X65994837Y-78905491D01*
X65817178Y-78767212D01*
X65619173Y-78660057D01*
X65434761Y-78596749D01*
X65406235Y-78586956D01*
X65184169Y-78549900D01*
X64959031Y-78549900D01*
X64736965Y-78586956D01*
X64736962Y-78586956D01*
X64736962Y-78586957D01*
X64524026Y-78660057D01*
X64326021Y-78767212D01*
X64148362Y-78905491D01*
X63995878Y-79071131D01*
X63907083Y-79207043D01*
X63861569Y-79248941D01*
X63801600Y-79264127D01*
X63741631Y-79248941D01*
X63696117Y-79207043D01*
X63630726Y-79106955D01*
X63607322Y-79071132D01*
X63454840Y-78905494D01*
X63454839Y-78905493D01*
X63454837Y-78905491D01*
X63277178Y-78767212D01*
X63079173Y-78660057D01*
X62894761Y-78596749D01*
X62866235Y-78586956D01*
X62644169Y-78549900D01*
X62419031Y-78549900D01*
X62196965Y-78586956D01*
X62196962Y-78586956D01*
X62196962Y-78586957D01*
X61984026Y-78660057D01*
X61786021Y-78767212D01*
X61608362Y-78905491D01*
X61455878Y-79071131D01*
X61367083Y-79207043D01*
X61321569Y-79248941D01*
X61261600Y-79264127D01*
X61201631Y-79248941D01*
X61156117Y-79207043D01*
X61090726Y-79106955D01*
X61067322Y-79071132D01*
X60914840Y-78905494D01*
X60914839Y-78905493D01*
X60914837Y-78905491D01*
X60737178Y-78767212D01*
X60539173Y-78660057D01*
X60354761Y-78596749D01*
X60326235Y-78586956D01*
X60104169Y-78549900D01*
X59879031Y-78549900D01*
X59656965Y-78586956D01*
X59656962Y-78586956D01*
X59656962Y-78586957D01*
X59444026Y-78660057D01*
X59246021Y-78767212D01*
X59068362Y-78905491D01*
X58915878Y-79071131D01*
X58827083Y-79207043D01*
X58781569Y-79248941D01*
X58721600Y-79264127D01*
X58661631Y-79248941D01*
X58616117Y-79207043D01*
X58550726Y-79106955D01*
X58527322Y-79071132D01*
X58374840Y-78905494D01*
X58374839Y-78905493D01*
X58374837Y-78905491D01*
X58197178Y-78767212D01*
X57999173Y-78660057D01*
X57814761Y-78596749D01*
X57786235Y-78586956D01*
X57564169Y-78549900D01*
X57339031Y-78549900D01*
X57116965Y-78586956D01*
X57116962Y-78586956D01*
X57116962Y-78586957D01*
X56904026Y-78660057D01*
X56706021Y-78767212D01*
X56528362Y-78905491D01*
X56375878Y-79071131D01*
X56287083Y-79207043D01*
X56241569Y-79248941D01*
X56181600Y-79264127D01*
X56121631Y-79248941D01*
X56076117Y-79207043D01*
X56010726Y-79106955D01*
X55987322Y-79071132D01*
X55834840Y-78905494D01*
X55834839Y-78905493D01*
X55834837Y-78905491D01*
X55657178Y-78767212D01*
X55459173Y-78660057D01*
X55274761Y-78596749D01*
X55246235Y-78586956D01*
X55024169Y-78549900D01*
X54799031Y-78549900D01*
X54576965Y-78586956D01*
X54576962Y-78586956D01*
X54576962Y-78586957D01*
X54364026Y-78660057D01*
X54166021Y-78767212D01*
X53988362Y-78905491D01*
X53835878Y-79071131D01*
X53747083Y-79207043D01*
X53701569Y-79248941D01*
X53641600Y-79264127D01*
X53581631Y-79248941D01*
X53536117Y-79207043D01*
X53470726Y-79106955D01*
X53447322Y-79071132D01*
X53294840Y-78905494D01*
X53294839Y-78905493D01*
X53294837Y-78905491D01*
X53117178Y-78767212D01*
X52919173Y-78660057D01*
X52734761Y-78596749D01*
X52706235Y-78586956D01*
X52484169Y-78549900D01*
X52259031Y-78549900D01*
X52036965Y-78586956D01*
X52036962Y-78586956D01*
X52036962Y-78586957D01*
X51824026Y-78660057D01*
X51626021Y-78767212D01*
X51448362Y-78905491D01*
X51295878Y-79071131D01*
X51172739Y-79259609D01*
X51082302Y-79465788D01*
X51027037Y-79684027D01*
X51027036Y-79684032D01*
X51008444Y-79908400D01*
X50034126Y-79908400D01*
X50034211Y-78382414D01*
X110253612Y-78382414D01*
X110272245Y-78547789D01*
X110327208Y-78704865D01*
X110415749Y-78845777D01*
X110533422Y-78963450D01*
X110674333Y-79051990D01*
X110674334Y-79051991D01*
X110831413Y-79106955D01*
X110996785Y-79125588D01*
X111162157Y-79106955D01*
X111319236Y-79051991D01*
X111460146Y-78963451D01*
X111504397Y-78919200D01*
X135705627Y-78919200D01*
X135724260Y-79084574D01*
X135779223Y-79241650D01*
X135867764Y-79382562D01*
X135985437Y-79500235D01*
X136126349Y-79588776D01*
X136217614Y-79620711D01*
X136283428Y-79643740D01*
X136448800Y-79662373D01*
X136614172Y-79643740D01*
X136771251Y-79588776D01*
X136912161Y-79500236D01*
X137029836Y-79382561D01*
X137118376Y-79241651D01*
X137173340Y-79084572D01*
X137191973Y-78919200D01*
X137173340Y-78753828D01*
X137118376Y-78596749D01*
X137029836Y-78455839D01*
X137029835Y-78455837D01*
X136912162Y-78338164D01*
X136771250Y-78249623D01*
X136614174Y-78194660D01*
X136448800Y-78176027D01*
X136283425Y-78194660D01*
X136126349Y-78249623D01*
X135985437Y-78338164D01*
X135867764Y-78455837D01*
X135779223Y-78596749D01*
X135724260Y-78753825D01*
X135705627Y-78919200D01*
X111504397Y-78919200D01*
X111577821Y-78845776D01*
X111666361Y-78704866D01*
X111721325Y-78547787D01*
X111739958Y-78382415D01*
X111721325Y-78217043D01*
X111666361Y-78059964D01*
X111577821Y-77919054D01*
X111577820Y-77919052D01*
X111460147Y-77801379D01*
X111319235Y-77712838D01*
X111162159Y-77657875D01*
X110996785Y-77639242D01*
X110831410Y-77657875D01*
X110674334Y-77712838D01*
X110533422Y-77801379D01*
X110415749Y-77919052D01*
X110327208Y-78059964D01*
X110272245Y-78217040D01*
X110253612Y-78382414D01*
X50034211Y-78382414D01*
X50034388Y-75222298D01*
X106648511Y-75222298D01*
X106668405Y-75398869D01*
X106727090Y-75566580D01*
X106821626Y-75717033D01*
X106947265Y-75842672D01*
X106947267Y-75842673D01*
X106947268Y-75842674D01*
X107097718Y-75937208D01*
X107265432Y-75995894D01*
X107442000Y-76015788D01*
X107618568Y-75995894D01*
X107786282Y-75937208D01*
X107936732Y-75842674D01*
X108062375Y-75717031D01*
X108156909Y-75566581D01*
X108215595Y-75398867D01*
X108235489Y-75222299D01*
X108215595Y-75045731D01*
X108156909Y-74878017D01*
X108090849Y-74772883D01*
X135594539Y-74772883D01*
X135604555Y-74957607D01*
X135654045Y-75135858D01*
X135740699Y-75299303D01*
X135825269Y-75398867D01*
X135860463Y-75440300D01*
X136007736Y-75552254D01*
X136175633Y-75629932D01*
X136311135Y-75659757D01*
X136356302Y-75669700D01*
X136356303Y-75669700D01*
X136494913Y-75669700D01*
X136494916Y-75669700D01*
X136598260Y-75658460D01*
X136632710Y-75654714D01*
X136721795Y-75624697D01*
X136808019Y-75595645D01*
X136808021Y-75595644D01*
X136966536Y-75500270D01*
X137100841Y-75373049D01*
X137204658Y-75219930D01*
X137273131Y-75048075D01*
X137303060Y-74865517D01*
X137293045Y-74680793D01*
X137243554Y-74502541D01*
X137156900Y-74339096D01*
X137145780Y-74326004D01*
X137037138Y-74198101D01*
X137036163Y-74197360D01*
X136889864Y-74086146D01*
X136721967Y-74008468D01*
X136721963Y-74008467D01*
X136541298Y-73968700D01*
X136541297Y-73968700D01*
X136402687Y-73968700D01*
X136402684Y-73968700D01*
X136264890Y-73983685D01*
X136089580Y-74042754D01*
X135931062Y-74138131D01*
X135796759Y-74265350D01*
X135692941Y-74418470D01*
X135624469Y-74590324D01*
X135594539Y-74772883D01*
X108090849Y-74772883D01*
X108062375Y-74727567D01*
X108062374Y-74727566D01*
X108062373Y-74727564D01*
X107936734Y-74601925D01*
X107786281Y-74507389D01*
X107618570Y-74448704D01*
X107442000Y-74428810D01*
X107265429Y-74448704D01*
X107097718Y-74507389D01*
X106947265Y-74601925D01*
X106821626Y-74727564D01*
X106727090Y-74878017D01*
X106668405Y-75045728D01*
X106648511Y-75222298D01*
X50034388Y-75222298D01*
X50034501Y-73202800D01*
X107969311Y-73202800D01*
X107989205Y-73379370D01*
X108047890Y-73547081D01*
X108142426Y-73697534D01*
X108268065Y-73823173D01*
X108268067Y-73823174D01*
X108268068Y-73823175D01*
X108418518Y-73917709D01*
X108586232Y-73976395D01*
X108762800Y-73996289D01*
X108939368Y-73976395D01*
X109107082Y-73917709D01*
X109257532Y-73823175D01*
X109383175Y-73697532D01*
X109477709Y-73547082D01*
X109536395Y-73379368D01*
X109556289Y-73202800D01*
X109536395Y-73026232D01*
X109477709Y-72858518D01*
X109383175Y-72708068D01*
X109383174Y-72708067D01*
X109383173Y-72708065D01*
X109257534Y-72582426D01*
X109107081Y-72487890D01*
X108939370Y-72429205D01*
X108762800Y-72409311D01*
X108586229Y-72429205D01*
X108418518Y-72487890D01*
X108268065Y-72582426D01*
X108142426Y-72708065D01*
X108047890Y-72858518D01*
X107989205Y-73026229D01*
X107969311Y-73202800D01*
X50034501Y-73202800D01*
X50034596Y-71509300D01*
X58936444Y-71509300D01*
X58955036Y-71733668D01*
X58955036Y-71733671D01*
X58955037Y-71733672D01*
X59010302Y-71951911D01*
X59100739Y-72158090D01*
X59135082Y-72210656D01*
X59223878Y-72346568D01*
X59299951Y-72429205D01*
X59376362Y-72512208D01*
X59554021Y-72650487D01*
X59554024Y-72650489D01*
X59752026Y-72757642D01*
X59964965Y-72830744D01*
X60187031Y-72867800D01*
X60412166Y-72867800D01*
X60412169Y-72867800D01*
X60634235Y-72830744D01*
X60847174Y-72757642D01*
X61045176Y-72650489D01*
X61222840Y-72512206D01*
X61375322Y-72346568D01*
X61464118Y-72210654D01*
X61509631Y-72168758D01*
X61569600Y-72153572D01*
X61629569Y-72168758D01*
X61675081Y-72210654D01*
X61763878Y-72346568D01*
X61839951Y-72429205D01*
X61916362Y-72512208D01*
X62094021Y-72650487D01*
X62094024Y-72650489D01*
X62292026Y-72757642D01*
X62504965Y-72830744D01*
X62727031Y-72867800D01*
X62952166Y-72867800D01*
X62952169Y-72867800D01*
X63174235Y-72830744D01*
X63387174Y-72757642D01*
X63585176Y-72650489D01*
X63762840Y-72512206D01*
X63915322Y-72346568D01*
X64004118Y-72210654D01*
X64049631Y-72168758D01*
X64109600Y-72153572D01*
X64169569Y-72168758D01*
X64215081Y-72210654D01*
X64303878Y-72346568D01*
X64379951Y-72429205D01*
X64456362Y-72512208D01*
X64634021Y-72650487D01*
X64634024Y-72650489D01*
X64832026Y-72757642D01*
X65044965Y-72830744D01*
X65267031Y-72867800D01*
X65492166Y-72867800D01*
X65492169Y-72867800D01*
X65714235Y-72830744D01*
X65927174Y-72757642D01*
X66125176Y-72650489D01*
X66302840Y-72512206D01*
X66455322Y-72346568D01*
X66544118Y-72210654D01*
X66589631Y-72168758D01*
X66649600Y-72153572D01*
X66709569Y-72168758D01*
X66755081Y-72210654D01*
X66843878Y-72346568D01*
X66919951Y-72429205D01*
X66996362Y-72512208D01*
X67174021Y-72650487D01*
X67174024Y-72650489D01*
X67372026Y-72757642D01*
X67584965Y-72830744D01*
X67807031Y-72867800D01*
X68032166Y-72867800D01*
X68032169Y-72867800D01*
X68254235Y-72830744D01*
X68467174Y-72757642D01*
X68665176Y-72650489D01*
X68842840Y-72512206D01*
X68995322Y-72346568D01*
X69084118Y-72210654D01*
X69129631Y-72168758D01*
X69189600Y-72153572D01*
X69249569Y-72168758D01*
X69295081Y-72210654D01*
X69383878Y-72346568D01*
X69459951Y-72429205D01*
X69536362Y-72512208D01*
X69714021Y-72650487D01*
X69714024Y-72650489D01*
X69912026Y-72757642D01*
X70124965Y-72830744D01*
X70347031Y-72867800D01*
X70572166Y-72867800D01*
X70572169Y-72867800D01*
X70794235Y-72830744D01*
X71007174Y-72757642D01*
X71205176Y-72650489D01*
X71382840Y-72512206D01*
X71535322Y-72346568D01*
X71624118Y-72210654D01*
X71669631Y-72168758D01*
X71729600Y-72153572D01*
X71789569Y-72168758D01*
X71835081Y-72210654D01*
X71923878Y-72346568D01*
X71999951Y-72429205D01*
X72076362Y-72512208D01*
X72254021Y-72650487D01*
X72254024Y-72650489D01*
X72452026Y-72757642D01*
X72664965Y-72830744D01*
X72887031Y-72867800D01*
X73112166Y-72867800D01*
X73112169Y-72867800D01*
X73334235Y-72830744D01*
X73547174Y-72757642D01*
X73745176Y-72650489D01*
X73922840Y-72512206D01*
X74075322Y-72346568D01*
X74164118Y-72210654D01*
X74209631Y-72168758D01*
X74269600Y-72153572D01*
X74329569Y-72168758D01*
X74375081Y-72210654D01*
X74463878Y-72346568D01*
X74539951Y-72429205D01*
X74616362Y-72512208D01*
X74794021Y-72650487D01*
X74794024Y-72650489D01*
X74992026Y-72757642D01*
X75204965Y-72830744D01*
X75427031Y-72867800D01*
X75652166Y-72867800D01*
X75652169Y-72867800D01*
X75874235Y-72830744D01*
X76087174Y-72757642D01*
X76285176Y-72650489D01*
X76462840Y-72512206D01*
X76615322Y-72346568D01*
X76704118Y-72210654D01*
X76749631Y-72168758D01*
X76809600Y-72153572D01*
X76869569Y-72168758D01*
X76915081Y-72210654D01*
X77003878Y-72346568D01*
X77079951Y-72429205D01*
X77156362Y-72512208D01*
X77334021Y-72650487D01*
X77334024Y-72650489D01*
X77532026Y-72757642D01*
X77744965Y-72830744D01*
X77967031Y-72867800D01*
X78192166Y-72867800D01*
X78192169Y-72867800D01*
X78414235Y-72830744D01*
X78627174Y-72757642D01*
X78825176Y-72650489D01*
X79002840Y-72512206D01*
X79155322Y-72346568D01*
X79244118Y-72210654D01*
X79289631Y-72168758D01*
X79349600Y-72153572D01*
X79409569Y-72168758D01*
X79455081Y-72210654D01*
X79543878Y-72346568D01*
X79619951Y-72429205D01*
X79696362Y-72512208D01*
X79874021Y-72650487D01*
X79874024Y-72650489D01*
X80072026Y-72757642D01*
X80284965Y-72830744D01*
X80507031Y-72867800D01*
X80732166Y-72867800D01*
X80732169Y-72867800D01*
X80954235Y-72830744D01*
X81167174Y-72757642D01*
X81365176Y-72650489D01*
X81542840Y-72512206D01*
X81695322Y-72346568D01*
X81784118Y-72210654D01*
X81829631Y-72168758D01*
X81889600Y-72153572D01*
X81949569Y-72168758D01*
X81995081Y-72210654D01*
X82083878Y-72346568D01*
X82159951Y-72429205D01*
X82236362Y-72512208D01*
X82414021Y-72650487D01*
X82414024Y-72650489D01*
X82612026Y-72757642D01*
X82824965Y-72830744D01*
X83047031Y-72867800D01*
X83272166Y-72867800D01*
X83272169Y-72867800D01*
X83494235Y-72830744D01*
X83707174Y-72757642D01*
X83905176Y-72650489D01*
X84082840Y-72512206D01*
X84235322Y-72346568D01*
X84324118Y-72210654D01*
X84369631Y-72168758D01*
X84429600Y-72153572D01*
X84489569Y-72168758D01*
X84535081Y-72210654D01*
X84623878Y-72346568D01*
X84699951Y-72429205D01*
X84776362Y-72512208D01*
X84954021Y-72650487D01*
X84954024Y-72650489D01*
X85152026Y-72757642D01*
X85364965Y-72830744D01*
X85587031Y-72867800D01*
X85812166Y-72867800D01*
X85812169Y-72867800D01*
X86034235Y-72830744D01*
X86247174Y-72757642D01*
X86445176Y-72650489D01*
X86622840Y-72512206D01*
X86775322Y-72346568D01*
X86864118Y-72210654D01*
X86909631Y-72168758D01*
X86969600Y-72153572D01*
X87029569Y-72168758D01*
X87075081Y-72210654D01*
X87163878Y-72346568D01*
X87239951Y-72429205D01*
X87316362Y-72512208D01*
X87494021Y-72650487D01*
X87494024Y-72650489D01*
X87692026Y-72757642D01*
X87904965Y-72830744D01*
X88127031Y-72867800D01*
X88352166Y-72867800D01*
X88352169Y-72867800D01*
X88574235Y-72830744D01*
X88787174Y-72757642D01*
X88985176Y-72650489D01*
X89162840Y-72512206D01*
X89315322Y-72346568D01*
X89404118Y-72210654D01*
X89449631Y-72168758D01*
X89509600Y-72153572D01*
X89569569Y-72168758D01*
X89615081Y-72210654D01*
X89703878Y-72346568D01*
X89779951Y-72429205D01*
X89856362Y-72512208D01*
X90034021Y-72650487D01*
X90034024Y-72650489D01*
X90232026Y-72757642D01*
X90444965Y-72830744D01*
X90667031Y-72867800D01*
X90892166Y-72867800D01*
X90892169Y-72867800D01*
X91114235Y-72830744D01*
X91327174Y-72757642D01*
X91525176Y-72650489D01*
X91702840Y-72512206D01*
X91855322Y-72346568D01*
X91944118Y-72210654D01*
X91989631Y-72168758D01*
X92049600Y-72153572D01*
X92109569Y-72168758D01*
X92155081Y-72210654D01*
X92243878Y-72346568D01*
X92319951Y-72429205D01*
X92396362Y-72512208D01*
X92574021Y-72650487D01*
X92574024Y-72650489D01*
X92772026Y-72757642D01*
X92984965Y-72830744D01*
X93207031Y-72867800D01*
X93432166Y-72867800D01*
X93432169Y-72867800D01*
X93654235Y-72830744D01*
X93867174Y-72757642D01*
X94065176Y-72650489D01*
X94242840Y-72512206D01*
X94395322Y-72346568D01*
X94484118Y-72210654D01*
X94529631Y-72168758D01*
X94589600Y-72153572D01*
X94649569Y-72168758D01*
X94695081Y-72210654D01*
X94783878Y-72346568D01*
X94859951Y-72429205D01*
X94936362Y-72512208D01*
X95114021Y-72650487D01*
X95114024Y-72650489D01*
X95312026Y-72757642D01*
X95524965Y-72830744D01*
X95747031Y-72867800D01*
X95972166Y-72867800D01*
X95972169Y-72867800D01*
X96194235Y-72830744D01*
X96407174Y-72757642D01*
X96605176Y-72650489D01*
X96782840Y-72512206D01*
X96935322Y-72346568D01*
X97024118Y-72210654D01*
X97069631Y-72168758D01*
X97129600Y-72153572D01*
X97189569Y-72168758D01*
X97235081Y-72210654D01*
X97323878Y-72346568D01*
X97399951Y-72429205D01*
X97476362Y-72512208D01*
X97654021Y-72650487D01*
X97654024Y-72650489D01*
X97852026Y-72757642D01*
X98064965Y-72830744D01*
X98287031Y-72867800D01*
X98512166Y-72867800D01*
X98512169Y-72867800D01*
X98734235Y-72830744D01*
X98947174Y-72757642D01*
X99145176Y-72650489D01*
X99322840Y-72512206D01*
X99475322Y-72346568D01*
X99564118Y-72210654D01*
X99609631Y-72168758D01*
X99669600Y-72153572D01*
X99729569Y-72168758D01*
X99775081Y-72210654D01*
X99863878Y-72346568D01*
X99939951Y-72429205D01*
X100016362Y-72512208D01*
X100194021Y-72650487D01*
X100194024Y-72650489D01*
X100392026Y-72757642D01*
X100604965Y-72830744D01*
X100827031Y-72867800D01*
X101052166Y-72867800D01*
X101052169Y-72867800D01*
X101274235Y-72830744D01*
X101487174Y-72757642D01*
X101685176Y-72650489D01*
X101862840Y-72512206D01*
X102015322Y-72346568D01*
X102138460Y-72158091D01*
X102228896Y-71951916D01*
X102284164Y-71733668D01*
X102302756Y-71509300D01*
X102284164Y-71284932D01*
X102270202Y-71229799D01*
X117407746Y-71229799D01*
X117426331Y-71454083D01*
X117481580Y-71672257D01*
X117575198Y-71885685D01*
X117584984Y-71950709D01*
X117560679Y-72011808D01*
X117469511Y-72133594D01*
X117418411Y-72270599D01*
X117411900Y-72331162D01*
X117411900Y-74128438D01*
X117418411Y-74189000D01*
X117469511Y-74326005D01*
X117557138Y-74443061D01*
X117674194Y-74530688D01*
X117674195Y-74530688D01*
X117674196Y-74530689D01*
X117811199Y-74581789D01*
X117871762Y-74588300D01*
X119669038Y-74588300D01*
X119729601Y-74581789D01*
X119866604Y-74530689D01*
X119983661Y-74443061D01*
X120071289Y-74326004D01*
X120103865Y-74238663D01*
X120140395Y-74186626D01*
X120197686Y-74159049D01*
X120261149Y-74162959D01*
X120314621Y-74197360D01*
X120347159Y-74232706D01*
X120467029Y-74326005D01*
X120524824Y-74370989D01*
X120722826Y-74478142D01*
X120935765Y-74551244D01*
X121157831Y-74588300D01*
X121382966Y-74588300D01*
X121382969Y-74588300D01*
X121605035Y-74551244D01*
X121817974Y-74478142D01*
X122015976Y-74370989D01*
X122193640Y-74232706D01*
X122346122Y-74067068D01*
X122469260Y-73878591D01*
X122559696Y-73672416D01*
X122614964Y-73454168D01*
X122633556Y-73229800D01*
X122614964Y-73005432D01*
X122559696Y-72787184D01*
X122469260Y-72581009D01*
X122346122Y-72392532D01*
X122274872Y-72315135D01*
X122245431Y-72260731D01*
X122245431Y-72198869D01*
X122274872Y-72144464D01*
X122346122Y-72067068D01*
X122469260Y-71878591D01*
X122559696Y-71672416D01*
X122614964Y-71454168D01*
X122633556Y-71229800D01*
X122614964Y-71005432D01*
X122559696Y-70787184D01*
X122469260Y-70581009D01*
X122346122Y-70392532D01*
X122193640Y-70226894D01*
X122193639Y-70226893D01*
X122193637Y-70226891D01*
X122015978Y-70088612D01*
X121817973Y-69981457D01*
X121673827Y-69931972D01*
X121605035Y-69908356D01*
X121382969Y-69871300D01*
X121157831Y-69871300D01*
X120935765Y-69908356D01*
X120935762Y-69908356D01*
X120935762Y-69908357D01*
X120722826Y-69981457D01*
X120524821Y-70088612D01*
X120347162Y-70226891D01*
X120194678Y-70392531D01*
X120125583Y-70498290D01*
X120080069Y-70540188D01*
X120020100Y-70555374D01*
X119960131Y-70540188D01*
X119914618Y-70498290D01*
X119893477Y-70465932D01*
X119893475Y-70465932D01*
X118859494Y-71499914D01*
X118803010Y-71532526D01*
X118737788Y-71532526D01*
X118681304Y-71499914D01*
X117647322Y-70465932D01*
X117571980Y-70581251D01*
X117481580Y-70787343D01*
X117426331Y-71005516D01*
X117407746Y-71229799D01*
X102270202Y-71229799D01*
X102228896Y-71066684D01*
X102138460Y-70860509D01*
X102015322Y-70672032D01*
X101862840Y-70506394D01*
X101862839Y-70506393D01*
X101862837Y-70506391D01*
X101771667Y-70435430D01*
X101733359Y-70385896D01*
X101723627Y-70324037D01*
X101744876Y-70265132D01*
X101791857Y-70223731D01*
X101875548Y-70181089D01*
X102027963Y-70057663D01*
X102151391Y-69905246D01*
X102240426Y-69730501D01*
X102291188Y-69541057D01*
X102297600Y-69459592D01*
X102297600Y-69223300D01*
X100811600Y-69223300D01*
X100748600Y-69206419D01*
X100702481Y-69160300D01*
X100685600Y-69097300D01*
X100685600Y-67611301D01*
X100449308Y-67611301D01*
X100367843Y-67617711D01*
X100178398Y-67668473D01*
X100003653Y-67757508D01*
X99851236Y-67880936D01*
X99727809Y-68033352D01*
X99673492Y-68139957D01*
X99642261Y-68179238D01*
X99598175Y-68203214D01*
X99548228Y-68208082D01*
X99522676Y-68205432D01*
X98758810Y-68969300D01*
X98758810Y-68969301D01*
X99522675Y-69733166D01*
X99548228Y-69730517D01*
X99598175Y-69735385D01*
X99642261Y-69759361D01*
X99673492Y-69798642D01*
X99727809Y-69905247D01*
X99851236Y-70057663D01*
X100003653Y-70181091D01*
X100087343Y-70223732D01*
X100134323Y-70265132D01*
X100155572Y-70324037D01*
X100145840Y-70385895D01*
X100107533Y-70435430D01*
X100016360Y-70506393D01*
X99863878Y-70672031D01*
X99775083Y-70807943D01*
X99729569Y-70849841D01*
X99669600Y-70865027D01*
X99609631Y-70849841D01*
X99564117Y-70807943D01*
X99475321Y-70672031D01*
X99322840Y-70506394D01*
X99322839Y-70506393D01*
X99322837Y-70506391D01*
X99216241Y-70423424D01*
X99145176Y-70368111D01*
X99111392Y-70349828D01*
X99063121Y-70303512D01*
X99045362Y-70239015D01*
X99063121Y-70174517D01*
X99111393Y-70128201D01*
X99144903Y-70110065D01*
X99165288Y-70094199D01*
X99165289Y-70094198D01*
X98399601Y-69328510D01*
X98399600Y-69328510D01*
X97633909Y-70094199D01*
X97654297Y-70110067D01*
X97687806Y-70128201D01*
X97736078Y-70174517D01*
X97753837Y-70239014D01*
X97736078Y-70303512D01*
X97687807Y-70349828D01*
X97654023Y-70368111D01*
X97476362Y-70506391D01*
X97323878Y-70672031D01*
X97235083Y-70807943D01*
X97189569Y-70849841D01*
X97129600Y-70865027D01*
X97069631Y-70849841D01*
X97024117Y-70807943D01*
X96935321Y-70672031D01*
X96782840Y-70506394D01*
X96782839Y-70506393D01*
X96782837Y-70506391D01*
X96676241Y-70423424D01*
X96605176Y-70368111D01*
X96571392Y-70349828D01*
X96523121Y-70303512D01*
X96505362Y-70239015D01*
X96523121Y-70174517D01*
X96571393Y-70128201D01*
X96604903Y-70110065D01*
X96625288Y-70094199D01*
X96625289Y-70094198D01*
X95859601Y-69328510D01*
X95859600Y-69328510D01*
X95093910Y-70094199D01*
X95114297Y-70110067D01*
X95147806Y-70128201D01*
X95196078Y-70174517D01*
X95213837Y-70239014D01*
X95196078Y-70303512D01*
X95147807Y-70349828D01*
X95114023Y-70368111D01*
X94936362Y-70506391D01*
X94783878Y-70672031D01*
X94695083Y-70807943D01*
X94649569Y-70849841D01*
X94589600Y-70865027D01*
X94529631Y-70849841D01*
X94484117Y-70807943D01*
X94395321Y-70672031D01*
X94242840Y-70506394D01*
X94242839Y-70506393D01*
X94242837Y-70506391D01*
X94136241Y-70423424D01*
X94065176Y-70368111D01*
X94031392Y-70349828D01*
X93983121Y-70303512D01*
X93965362Y-70239015D01*
X93983121Y-70174517D01*
X94031393Y-70128201D01*
X94064903Y-70110065D01*
X94085288Y-70094199D01*
X94085289Y-70094198D01*
X93319601Y-69328510D01*
X93319600Y-69328510D01*
X92553910Y-70094199D01*
X92574297Y-70110067D01*
X92607806Y-70128201D01*
X92656078Y-70174517D01*
X92673837Y-70239014D01*
X92656078Y-70303512D01*
X92607807Y-70349828D01*
X92574023Y-70368111D01*
X92396362Y-70506391D01*
X92243878Y-70672031D01*
X92155083Y-70807943D01*
X92109569Y-70849841D01*
X92049600Y-70865027D01*
X91989631Y-70849841D01*
X91944117Y-70807943D01*
X91855321Y-70672031D01*
X91702840Y-70506394D01*
X91702839Y-70506393D01*
X91702837Y-70506391D01*
X91596241Y-70423424D01*
X91525176Y-70368111D01*
X91491392Y-70349828D01*
X91443121Y-70303512D01*
X91425362Y-70239015D01*
X91443121Y-70174517D01*
X91491393Y-70128201D01*
X91524903Y-70110065D01*
X91545288Y-70094199D01*
X91545289Y-70094198D01*
X90779601Y-69328510D01*
X90779600Y-69328510D01*
X90013909Y-70094199D01*
X90034297Y-70110067D01*
X90067806Y-70128201D01*
X90116078Y-70174517D01*
X90133837Y-70239014D01*
X90116078Y-70303512D01*
X90067807Y-70349828D01*
X90034023Y-70368111D01*
X89856362Y-70506391D01*
X89703878Y-70672031D01*
X89615083Y-70807943D01*
X89569569Y-70849841D01*
X89509600Y-70865027D01*
X89449631Y-70849841D01*
X89404117Y-70807943D01*
X89315321Y-70672031D01*
X89162840Y-70506394D01*
X89162839Y-70506393D01*
X89162837Y-70506391D01*
X89056241Y-70423424D01*
X88985176Y-70368111D01*
X88951392Y-70349828D01*
X88903121Y-70303512D01*
X88885362Y-70239015D01*
X88903121Y-70174517D01*
X88951393Y-70128201D01*
X88984903Y-70110065D01*
X89005288Y-70094199D01*
X89005289Y-70094198D01*
X88239601Y-69328510D01*
X88239600Y-69328510D01*
X87473910Y-70094199D01*
X87494297Y-70110067D01*
X87527806Y-70128201D01*
X87576078Y-70174517D01*
X87593837Y-70239014D01*
X87576078Y-70303512D01*
X87527807Y-70349828D01*
X87494023Y-70368111D01*
X87316362Y-70506391D01*
X87163878Y-70672031D01*
X87075083Y-70807943D01*
X87029569Y-70849841D01*
X86969600Y-70865027D01*
X86909631Y-70849841D01*
X86864117Y-70807943D01*
X86775321Y-70672031D01*
X86622840Y-70506394D01*
X86622839Y-70506393D01*
X86622837Y-70506391D01*
X86516241Y-70423424D01*
X86445176Y-70368111D01*
X86411392Y-70349828D01*
X86363121Y-70303512D01*
X86345362Y-70239015D01*
X86363121Y-70174517D01*
X86411393Y-70128201D01*
X86444903Y-70110065D01*
X86465288Y-70094199D01*
X86465289Y-70094198D01*
X85699601Y-69328510D01*
X85699600Y-69328510D01*
X84933909Y-70094199D01*
X84954297Y-70110067D01*
X84987806Y-70128201D01*
X85036078Y-70174517D01*
X85053837Y-70239014D01*
X85036078Y-70303512D01*
X84987807Y-70349828D01*
X84954023Y-70368111D01*
X84776362Y-70506391D01*
X84623878Y-70672031D01*
X84535083Y-70807943D01*
X84489569Y-70849841D01*
X84429600Y-70865027D01*
X84369631Y-70849841D01*
X84324117Y-70807943D01*
X84235321Y-70672031D01*
X84082840Y-70506394D01*
X84082839Y-70506393D01*
X84082837Y-70506391D01*
X83976241Y-70423424D01*
X83905176Y-70368111D01*
X83871392Y-70349828D01*
X83823121Y-70303512D01*
X83805362Y-70239015D01*
X83823121Y-70174517D01*
X83871393Y-70128201D01*
X83904903Y-70110065D01*
X83925288Y-70094199D01*
X83925289Y-70094198D01*
X83159601Y-69328510D01*
X83159600Y-69328510D01*
X82393910Y-70094199D01*
X82414297Y-70110067D01*
X82447806Y-70128201D01*
X82496078Y-70174517D01*
X82513837Y-70239014D01*
X82496078Y-70303512D01*
X82447807Y-70349828D01*
X82414023Y-70368111D01*
X82236362Y-70506391D01*
X82083878Y-70672031D01*
X81995083Y-70807943D01*
X81949569Y-70849841D01*
X81889600Y-70865027D01*
X81829631Y-70849841D01*
X81784117Y-70807943D01*
X81695321Y-70672031D01*
X81542840Y-70506394D01*
X81542839Y-70506393D01*
X81542837Y-70506391D01*
X81436241Y-70423424D01*
X81365176Y-70368111D01*
X81331392Y-70349828D01*
X81283121Y-70303512D01*
X81265362Y-70239015D01*
X81283121Y-70174517D01*
X81331393Y-70128201D01*
X81364903Y-70110065D01*
X81385288Y-70094199D01*
X81385289Y-70094198D01*
X80619601Y-69328510D01*
X80619600Y-69328510D01*
X79853909Y-70094199D01*
X79874297Y-70110067D01*
X79907806Y-70128201D01*
X79956078Y-70174517D01*
X79973837Y-70239014D01*
X79956078Y-70303512D01*
X79907807Y-70349828D01*
X79874023Y-70368111D01*
X79696362Y-70506391D01*
X79543878Y-70672031D01*
X79455083Y-70807943D01*
X79409569Y-70849841D01*
X79349600Y-70865027D01*
X79289631Y-70849841D01*
X79244117Y-70807943D01*
X79155321Y-70672031D01*
X79002840Y-70506394D01*
X79002839Y-70506393D01*
X79002837Y-70506391D01*
X78896241Y-70423424D01*
X78825176Y-70368111D01*
X78791392Y-70349828D01*
X78743121Y-70303512D01*
X78725362Y-70239015D01*
X78743121Y-70174517D01*
X78791393Y-70128201D01*
X78824903Y-70110065D01*
X78845288Y-70094199D01*
X78845289Y-70094198D01*
X78079601Y-69328510D01*
X78079600Y-69328510D01*
X77313909Y-70094199D01*
X77334297Y-70110067D01*
X77367806Y-70128201D01*
X77416078Y-70174517D01*
X77433837Y-70239014D01*
X77416078Y-70303512D01*
X77367807Y-70349828D01*
X77334023Y-70368111D01*
X77156362Y-70506391D01*
X77003878Y-70672031D01*
X76915083Y-70807943D01*
X76869569Y-70849841D01*
X76809600Y-70865027D01*
X76749631Y-70849841D01*
X76704117Y-70807943D01*
X76615321Y-70672031D01*
X76462840Y-70506394D01*
X76462839Y-70506393D01*
X76462837Y-70506391D01*
X76356241Y-70423424D01*
X76285176Y-70368111D01*
X76251392Y-70349828D01*
X76203121Y-70303512D01*
X76185362Y-70239015D01*
X76203121Y-70174517D01*
X76251393Y-70128201D01*
X76284903Y-70110065D01*
X76305288Y-70094199D01*
X76305289Y-70094198D01*
X75539601Y-69328510D01*
X75539600Y-69328510D01*
X74773909Y-70094199D01*
X74794297Y-70110067D01*
X74827806Y-70128201D01*
X74876078Y-70174517D01*
X74893837Y-70239014D01*
X74876078Y-70303512D01*
X74827807Y-70349828D01*
X74794023Y-70368111D01*
X74616362Y-70506391D01*
X74463878Y-70672031D01*
X74375083Y-70807943D01*
X74329569Y-70849841D01*
X74269600Y-70865027D01*
X74209631Y-70849841D01*
X74164117Y-70807943D01*
X74075321Y-70672031D01*
X73922840Y-70506394D01*
X73922839Y-70506393D01*
X73922837Y-70506391D01*
X73816241Y-70423424D01*
X73745176Y-70368111D01*
X73711392Y-70349828D01*
X73663121Y-70303512D01*
X73645362Y-70239015D01*
X73663121Y-70174517D01*
X73711393Y-70128201D01*
X73744903Y-70110065D01*
X73765288Y-70094199D01*
X73765289Y-70094198D01*
X72999601Y-69328510D01*
X72999600Y-69328510D01*
X72233909Y-70094199D01*
X72254297Y-70110067D01*
X72287806Y-70128201D01*
X72336078Y-70174517D01*
X72353837Y-70239014D01*
X72336078Y-70303512D01*
X72287807Y-70349828D01*
X72254023Y-70368111D01*
X72076362Y-70506391D01*
X71923878Y-70672031D01*
X71835083Y-70807943D01*
X71789569Y-70849841D01*
X71729600Y-70865027D01*
X71669631Y-70849841D01*
X71624117Y-70807943D01*
X71535321Y-70672031D01*
X71382840Y-70506394D01*
X71382839Y-70506393D01*
X71382837Y-70506391D01*
X71276241Y-70423424D01*
X71205176Y-70368111D01*
X71171392Y-70349828D01*
X71123121Y-70303512D01*
X71105362Y-70239015D01*
X71123121Y-70174517D01*
X71171393Y-70128201D01*
X71204903Y-70110065D01*
X71225288Y-70094199D01*
X71225289Y-70094198D01*
X70459601Y-69328510D01*
X70459600Y-69328510D01*
X69693909Y-70094199D01*
X69714297Y-70110067D01*
X69747806Y-70128201D01*
X69796078Y-70174517D01*
X69813837Y-70239014D01*
X69796078Y-70303512D01*
X69747807Y-70349828D01*
X69714023Y-70368111D01*
X69536362Y-70506391D01*
X69383878Y-70672031D01*
X69295083Y-70807943D01*
X69249569Y-70849841D01*
X69189600Y-70865027D01*
X69129631Y-70849841D01*
X69084117Y-70807943D01*
X68995321Y-70672031D01*
X68842840Y-70506394D01*
X68842839Y-70506393D01*
X68842837Y-70506391D01*
X68736241Y-70423424D01*
X68665176Y-70368111D01*
X68631392Y-70349828D01*
X68583121Y-70303512D01*
X68565362Y-70239015D01*
X68583121Y-70174517D01*
X68631393Y-70128201D01*
X68664903Y-70110065D01*
X68685288Y-70094199D01*
X68685289Y-70094198D01*
X67919601Y-69328510D01*
X67919600Y-69328510D01*
X67153910Y-70094199D01*
X67174297Y-70110067D01*
X67207806Y-70128201D01*
X67256078Y-70174517D01*
X67273837Y-70239014D01*
X67256078Y-70303512D01*
X67207807Y-70349828D01*
X67174023Y-70368111D01*
X66996362Y-70506391D01*
X66843878Y-70672031D01*
X66755083Y-70807943D01*
X66709569Y-70849841D01*
X66649600Y-70865027D01*
X66589631Y-70849841D01*
X66544117Y-70807943D01*
X66455321Y-70672031D01*
X66302840Y-70506394D01*
X66302839Y-70506393D01*
X66302837Y-70506391D01*
X66196241Y-70423424D01*
X66125176Y-70368111D01*
X66091392Y-70349828D01*
X66043121Y-70303512D01*
X66025362Y-70239015D01*
X66043121Y-70174517D01*
X66091393Y-70128201D01*
X66124903Y-70110065D01*
X66145288Y-70094199D01*
X66145289Y-70094198D01*
X65379601Y-69328510D01*
X65379600Y-69328510D01*
X64613910Y-70094199D01*
X64634297Y-70110067D01*
X64667806Y-70128201D01*
X64716078Y-70174517D01*
X64733837Y-70239014D01*
X64716078Y-70303512D01*
X64667807Y-70349828D01*
X64634023Y-70368111D01*
X64456362Y-70506391D01*
X64303878Y-70672031D01*
X64215083Y-70807943D01*
X64169569Y-70849841D01*
X64109600Y-70865027D01*
X64049631Y-70849841D01*
X64004117Y-70807943D01*
X63915321Y-70672031D01*
X63762840Y-70506394D01*
X63762839Y-70506393D01*
X63762837Y-70506391D01*
X63656241Y-70423424D01*
X63585176Y-70368111D01*
X63551392Y-70349828D01*
X63503121Y-70303512D01*
X63485362Y-70239015D01*
X63503121Y-70174517D01*
X63551393Y-70128201D01*
X63584903Y-70110065D01*
X63605288Y-70094199D01*
X63605289Y-70094198D01*
X62839601Y-69328510D01*
X62839600Y-69328510D01*
X62073910Y-70094199D01*
X62094297Y-70110067D01*
X62127806Y-70128201D01*
X62176078Y-70174517D01*
X62193837Y-70239014D01*
X62176078Y-70303512D01*
X62127807Y-70349828D01*
X62094023Y-70368111D01*
X61916362Y-70506391D01*
X61763878Y-70672031D01*
X61675083Y-70807943D01*
X61629569Y-70849841D01*
X61569600Y-70865027D01*
X61509631Y-70849841D01*
X61464117Y-70807943D01*
X61375321Y-70672031D01*
X61222840Y-70506394D01*
X61222839Y-70506393D01*
X61222837Y-70506391D01*
X61116241Y-70423424D01*
X61045176Y-70368111D01*
X61011392Y-70349828D01*
X60963121Y-70303512D01*
X60945362Y-70239015D01*
X60963121Y-70174517D01*
X61011393Y-70128201D01*
X61044903Y-70110065D01*
X61065288Y-70094199D01*
X61065289Y-70094198D01*
X60299601Y-69328510D01*
X60299600Y-69328510D01*
X59533910Y-70094199D01*
X59554297Y-70110067D01*
X59587806Y-70128201D01*
X59636078Y-70174517D01*
X59653837Y-70239014D01*
X59636078Y-70303512D01*
X59587807Y-70349828D01*
X59554023Y-70368111D01*
X59376362Y-70506391D01*
X59223878Y-70672031D01*
X59100739Y-70860509D01*
X59010302Y-71066688D01*
X58968997Y-71229800D01*
X58955036Y-71284932D01*
X58936444Y-71509300D01*
X50034596Y-71509300D01*
X50034738Y-68969300D01*
X58936946Y-68969300D01*
X58955531Y-69193583D01*
X59010780Y-69411756D01*
X59101180Y-69617848D01*
X59176522Y-69733166D01*
X59940389Y-68969301D01*
X60658810Y-68969301D01*
X61422676Y-69733167D01*
X61464116Y-69669739D01*
X61509630Y-69627841D01*
X61569599Y-69612655D01*
X61629568Y-69627841D01*
X61675082Y-69669739D01*
X61716522Y-69733166D01*
X62480389Y-68969301D01*
X63198810Y-68969301D01*
X63962676Y-69733167D01*
X64004116Y-69669739D01*
X64049630Y-69627841D01*
X64109599Y-69612655D01*
X64169568Y-69627841D01*
X64215082Y-69669739D01*
X64256522Y-69733166D01*
X65020389Y-68969301D01*
X65738810Y-68969301D01*
X66502676Y-69733167D01*
X66544116Y-69669739D01*
X66589630Y-69627841D01*
X66649599Y-69612655D01*
X66709568Y-69627841D01*
X66755082Y-69669739D01*
X66796522Y-69733166D01*
X67560389Y-68969301D01*
X68278810Y-68969301D01*
X69042676Y-69733167D01*
X69084116Y-69669739D01*
X69129630Y-69627841D01*
X69189599Y-69612655D01*
X69249568Y-69627841D01*
X69295082Y-69669739D01*
X69336522Y-69733166D01*
X70100389Y-68969301D01*
X70818810Y-68969301D01*
X71582676Y-69733167D01*
X71624116Y-69669739D01*
X71669630Y-69627841D01*
X71729599Y-69612655D01*
X71789568Y-69627841D01*
X71835082Y-69669739D01*
X71876522Y-69733166D01*
X72640389Y-68969301D01*
X73358810Y-68969301D01*
X74122676Y-69733167D01*
X74164116Y-69669739D01*
X74209630Y-69627841D01*
X74269599Y-69612655D01*
X74329568Y-69627841D01*
X74375082Y-69669739D01*
X74416522Y-69733166D01*
X75180389Y-68969301D01*
X75898810Y-68969301D01*
X76662676Y-69733167D01*
X76704116Y-69669739D01*
X76749630Y-69627841D01*
X76809599Y-69612655D01*
X76869568Y-69627841D01*
X76915082Y-69669739D01*
X76956522Y-69733166D01*
X77720389Y-68969301D01*
X78438810Y-68969301D01*
X79202676Y-69733167D01*
X79244116Y-69669739D01*
X79289630Y-69627841D01*
X79349599Y-69612655D01*
X79409568Y-69627841D01*
X79455082Y-69669739D01*
X79496522Y-69733166D01*
X80260389Y-68969301D01*
X80978810Y-68969301D01*
X81742676Y-69733167D01*
X81784116Y-69669739D01*
X81829630Y-69627841D01*
X81889599Y-69612655D01*
X81949568Y-69627841D01*
X81995082Y-69669739D01*
X82036522Y-69733166D01*
X82800389Y-68969301D01*
X83518810Y-68969301D01*
X84282676Y-69733167D01*
X84324116Y-69669739D01*
X84369630Y-69627841D01*
X84429599Y-69612655D01*
X84489568Y-69627841D01*
X84535082Y-69669739D01*
X84576522Y-69733166D01*
X85340389Y-68969301D01*
X86058810Y-68969301D01*
X86822676Y-69733167D01*
X86864116Y-69669739D01*
X86909630Y-69627841D01*
X86969599Y-69612655D01*
X87029568Y-69627841D01*
X87075082Y-69669739D01*
X87116522Y-69733166D01*
X87880389Y-68969301D01*
X88598810Y-68969301D01*
X89362676Y-69733167D01*
X89404116Y-69669739D01*
X89449630Y-69627841D01*
X89509599Y-69612655D01*
X89569568Y-69627841D01*
X89615082Y-69669739D01*
X89656522Y-69733166D01*
X90420389Y-68969301D01*
X91138810Y-68969301D01*
X91902676Y-69733167D01*
X91944116Y-69669739D01*
X91989630Y-69627841D01*
X92049599Y-69612655D01*
X92109568Y-69627841D01*
X92155082Y-69669739D01*
X92196522Y-69733166D01*
X92960389Y-68969301D01*
X93678810Y-68969301D01*
X94442676Y-69733167D01*
X94484116Y-69669739D01*
X94529630Y-69627841D01*
X94589599Y-69612655D01*
X94649568Y-69627841D01*
X94695082Y-69669739D01*
X94736522Y-69733166D01*
X95500389Y-68969301D01*
X96218810Y-68969301D01*
X96982676Y-69733167D01*
X97024116Y-69669739D01*
X97069630Y-69627841D01*
X97129599Y-69612655D01*
X97189568Y-69627841D01*
X97235082Y-69669739D01*
X97276522Y-69733166D01*
X98040390Y-68969300D01*
X97276521Y-68205432D01*
X97235082Y-68268860D01*
X97189568Y-68310758D01*
X97129599Y-68325944D01*
X97069630Y-68310758D01*
X97024116Y-68268860D01*
X96982676Y-68205432D01*
X96218810Y-68969300D01*
X96218810Y-68969301D01*
X95500389Y-68969301D01*
X95500390Y-68969300D01*
X94736521Y-68205432D01*
X94695082Y-68268860D01*
X94649568Y-68310758D01*
X94589599Y-68325944D01*
X94529630Y-68310758D01*
X94484116Y-68268860D01*
X94442676Y-68205432D01*
X93678810Y-68969300D01*
X93678810Y-68969301D01*
X92960389Y-68969301D01*
X92960390Y-68969300D01*
X92196521Y-68205432D01*
X92155082Y-68268860D01*
X92109568Y-68310758D01*
X92049599Y-68325944D01*
X91989630Y-68310758D01*
X91944116Y-68268860D01*
X91902676Y-68205432D01*
X91138810Y-68969300D01*
X91138810Y-68969301D01*
X90420389Y-68969301D01*
X90420390Y-68969300D01*
X89656521Y-68205432D01*
X89615082Y-68268860D01*
X89569568Y-68310758D01*
X89509599Y-68325944D01*
X89449630Y-68310758D01*
X89404116Y-68268860D01*
X89362676Y-68205432D01*
X88598810Y-68969300D01*
X88598810Y-68969301D01*
X87880389Y-68969301D01*
X87880390Y-68969300D01*
X87116521Y-68205432D01*
X87075082Y-68268860D01*
X87029568Y-68310758D01*
X86969599Y-68325944D01*
X86909630Y-68310758D01*
X86864116Y-68268860D01*
X86822676Y-68205432D01*
X86058810Y-68969300D01*
X86058810Y-68969301D01*
X85340389Y-68969301D01*
X85340390Y-68969300D01*
X84576521Y-68205432D01*
X84535082Y-68268860D01*
X84489568Y-68310758D01*
X84429599Y-68325944D01*
X84369630Y-68310758D01*
X84324116Y-68268860D01*
X84282676Y-68205432D01*
X83518810Y-68969300D01*
X83518810Y-68969301D01*
X82800389Y-68969301D01*
X82800390Y-68969300D01*
X82036521Y-68205432D01*
X81995082Y-68268860D01*
X81949568Y-68310758D01*
X81889599Y-68325944D01*
X81829630Y-68310758D01*
X81784116Y-68268860D01*
X81742676Y-68205432D01*
X80978810Y-68969300D01*
X80978810Y-68969301D01*
X80260389Y-68969301D01*
X80260390Y-68969300D01*
X79496521Y-68205432D01*
X79455082Y-68268860D01*
X79409568Y-68310758D01*
X79349599Y-68325944D01*
X79289630Y-68310758D01*
X79244116Y-68268860D01*
X79202676Y-68205432D01*
X78438810Y-68969300D01*
X78438810Y-68969301D01*
X77720389Y-68969301D01*
X77720390Y-68969300D01*
X76956521Y-68205432D01*
X76915082Y-68268860D01*
X76869568Y-68310758D01*
X76809599Y-68325944D01*
X76749630Y-68310758D01*
X76704116Y-68268860D01*
X76662676Y-68205432D01*
X75898810Y-68969300D01*
X75898810Y-68969301D01*
X75180389Y-68969301D01*
X75180390Y-68969300D01*
X74416521Y-68205432D01*
X74375082Y-68268860D01*
X74329568Y-68310758D01*
X74269599Y-68325944D01*
X74209630Y-68310758D01*
X74164116Y-68268860D01*
X74122676Y-68205432D01*
X73358810Y-68969300D01*
X73358810Y-68969301D01*
X72640389Y-68969301D01*
X72640390Y-68969300D01*
X71876521Y-68205432D01*
X71835082Y-68268860D01*
X71789568Y-68310758D01*
X71729599Y-68325944D01*
X71669630Y-68310758D01*
X71624116Y-68268860D01*
X71582676Y-68205432D01*
X70818810Y-68969300D01*
X70818810Y-68969301D01*
X70100389Y-68969301D01*
X70100390Y-68969300D01*
X69336521Y-68205432D01*
X69295082Y-68268860D01*
X69249568Y-68310758D01*
X69189599Y-68325944D01*
X69129630Y-68310758D01*
X69084116Y-68268860D01*
X69042676Y-68205432D01*
X68278810Y-68969300D01*
X68278810Y-68969301D01*
X67560389Y-68969301D01*
X67560390Y-68969300D01*
X66796521Y-68205432D01*
X66755082Y-68268860D01*
X66709568Y-68310758D01*
X66649599Y-68325944D01*
X66589630Y-68310758D01*
X66544116Y-68268860D01*
X66502676Y-68205432D01*
X65738810Y-68969300D01*
X65738810Y-68969301D01*
X65020389Y-68969301D01*
X65020390Y-68969300D01*
X64256521Y-68205432D01*
X64215082Y-68268860D01*
X64169568Y-68310758D01*
X64109599Y-68325944D01*
X64049630Y-68310758D01*
X64004116Y-68268860D01*
X63962676Y-68205432D01*
X63198810Y-68969300D01*
X63198810Y-68969301D01*
X62480389Y-68969301D01*
X62480390Y-68969300D01*
X61716521Y-68205432D01*
X61675082Y-68268860D01*
X61629568Y-68310758D01*
X61569599Y-68325944D01*
X61509630Y-68310758D01*
X61464116Y-68268860D01*
X61422676Y-68205432D01*
X60658810Y-68969300D01*
X60658810Y-68969301D01*
X59940389Y-68969301D01*
X59940390Y-68969300D01*
X59176522Y-68205433D01*
X59101180Y-68320751D01*
X59010780Y-68526843D01*
X58955531Y-68745016D01*
X58936946Y-68969300D01*
X50034738Y-68969300D01*
X50034801Y-67844401D01*
X59533910Y-67844401D01*
X60299599Y-68610090D01*
X60299600Y-68610090D01*
X61065288Y-67844401D01*
X62073910Y-67844401D01*
X62839599Y-68610090D01*
X62839600Y-68610090D01*
X63605288Y-67844401D01*
X64613910Y-67844401D01*
X65379599Y-68610090D01*
X65379600Y-68610090D01*
X66145288Y-67844401D01*
X67153910Y-67844401D01*
X67919599Y-68610090D01*
X67919600Y-68610090D01*
X68685288Y-67844401D01*
X69693910Y-67844401D01*
X70459599Y-68610090D01*
X70459600Y-68610090D01*
X71225288Y-67844401D01*
X72233910Y-67844401D01*
X72999599Y-68610090D01*
X72999600Y-68610090D01*
X73765288Y-67844401D01*
X74773910Y-67844401D01*
X75539599Y-68610090D01*
X75539600Y-68610090D01*
X76305288Y-67844401D01*
X77313910Y-67844401D01*
X78079599Y-68610090D01*
X78079600Y-68610090D01*
X78845288Y-67844401D01*
X79853910Y-67844401D01*
X80619599Y-68610090D01*
X80619600Y-68610090D01*
X81385288Y-67844401D01*
X82393910Y-67844401D01*
X83159599Y-68610090D01*
X83159600Y-68610090D01*
X83925288Y-67844401D01*
X84933910Y-67844401D01*
X85699599Y-68610090D01*
X85699600Y-68610090D01*
X86465288Y-67844401D01*
X87473910Y-67844401D01*
X88239599Y-68610090D01*
X88239600Y-68610090D01*
X89005288Y-67844401D01*
X90013910Y-67844401D01*
X90779599Y-68610090D01*
X90779600Y-68610090D01*
X91545288Y-67844401D01*
X92553910Y-67844401D01*
X93319599Y-68610090D01*
X93319600Y-68610090D01*
X94085288Y-67844401D01*
X95093910Y-67844401D01*
X95859599Y-68610090D01*
X95859600Y-68610090D01*
X96625288Y-67844401D01*
X97633910Y-67844401D01*
X98399599Y-68610090D01*
X98399600Y-68610090D01*
X99165289Y-67844400D01*
X99165288Y-67844399D01*
X99144902Y-67828532D01*
X98946971Y-67721417D01*
X98734108Y-67648342D01*
X98512130Y-67611300D01*
X101193600Y-67611300D01*
X101193600Y-68715300D01*
X102297599Y-68715300D01*
X102297599Y-68519800D01*
X111737054Y-68519800D01*
X111756416Y-68815223D01*
X111814176Y-69105600D01*
X111909338Y-69385941D01*
X112040286Y-69651475D01*
X112204764Y-69897635D01*
X112399972Y-70120227D01*
X112622564Y-70315435D01*
X112802150Y-70435430D01*
X112868727Y-70479915D01*
X113001491Y-70545387D01*
X113134258Y-70610861D01*
X113414599Y-70706023D01*
X113414601Y-70706023D01*
X113414603Y-70706024D01*
X113704974Y-70763783D01*
X114000400Y-70783146D01*
X114295826Y-70763783D01*
X114586197Y-70706024D01*
X114686335Y-70672032D01*
X114866541Y-70610861D01*
X114926584Y-70581251D01*
X115132073Y-70479915D01*
X115378238Y-70315433D01*
X115600827Y-70120227D01*
X115614268Y-70104901D01*
X118004710Y-70104901D01*
X118770399Y-70870590D01*
X118770400Y-70870590D01*
X119536089Y-70104900D01*
X119536088Y-70104899D01*
X119515702Y-70089032D01*
X119317771Y-69981917D01*
X119104908Y-69908842D01*
X118882930Y-69871800D01*
X118657870Y-69871800D01*
X118435891Y-69908842D01*
X118223028Y-69981917D01*
X118025100Y-70089031D01*
X118004710Y-70104899D01*
X118004710Y-70104901D01*
X115614268Y-70104901D01*
X115796033Y-69897638D01*
X115960515Y-69651473D01*
X116091459Y-69385945D01*
X116091458Y-69385945D01*
X116091461Y-69385941D01*
X116186623Y-69105600D01*
X116213735Y-68969300D01*
X116244383Y-68815226D01*
X116263746Y-68519800D01*
X123777054Y-68519800D01*
X123796416Y-68815223D01*
X123854176Y-69105600D01*
X123949338Y-69385941D01*
X124080286Y-69651475D01*
X124244764Y-69897635D01*
X124439972Y-70120227D01*
X124662564Y-70315435D01*
X124842150Y-70435430D01*
X124908727Y-70479915D01*
X125041491Y-70545387D01*
X125174258Y-70610861D01*
X125454599Y-70706023D01*
X125454601Y-70706023D01*
X125454603Y-70706024D01*
X125744974Y-70763783D01*
X126040400Y-70783146D01*
X126335826Y-70763783D01*
X126626197Y-70706024D01*
X126726335Y-70672032D01*
X126906541Y-70610861D01*
X126966584Y-70581251D01*
X127172073Y-70479915D01*
X127418238Y-70315433D01*
X127640827Y-70120227D01*
X127836033Y-69897638D01*
X128000515Y-69651473D01*
X128131459Y-69385945D01*
X128131458Y-69385945D01*
X128131461Y-69385941D01*
X128226623Y-69105600D01*
X128253735Y-68969300D01*
X128284383Y-68815226D01*
X128303746Y-68519800D01*
X128284383Y-68224374D01*
X128226624Y-67934003D01*
X128216441Y-67904004D01*
X128131461Y-67653658D01*
X128037868Y-67463871D01*
X128000515Y-67388127D01*
X127986792Y-67367589D01*
X135494624Y-67367589D01*
X135523896Y-67558671D01*
X135591037Y-67739956D01*
X135693288Y-67904004D01*
X135826478Y-68044120D01*
X135985140Y-68154552D01*
X135985141Y-68154552D01*
X135985142Y-68154553D01*
X136162788Y-68230787D01*
X136352144Y-68269700D01*
X136497002Y-68269700D01*
X136497006Y-68269700D01*
X136641121Y-68255045D01*
X136825568Y-68197174D01*
X136994591Y-68103359D01*
X137141268Y-67977440D01*
X137259596Y-67824573D01*
X137344730Y-67651016D01*
X137393185Y-67463874D01*
X137402976Y-67270810D01*
X137373703Y-67079726D01*
X137306564Y-66898447D01*
X137306562Y-66898443D01*
X137204311Y-66734395D01*
X137071121Y-66594279D01*
X136912459Y-66483847D01*
X136734810Y-66407612D01*
X136545456Y-66368700D01*
X136400594Y-66368700D01*
X136285302Y-66380423D01*
X136256478Y-66383355D01*
X136072031Y-66441226D01*
X135995243Y-66483847D01*
X135903009Y-66535041D01*
X135903007Y-66535041D01*
X135903006Y-66535043D01*
X135874302Y-66559685D01*
X135756332Y-66660960D01*
X135707406Y-66724167D01*
X135638001Y-66813830D01*
X135552870Y-66987382D01*
X135504414Y-67174528D01*
X135494624Y-67367589D01*
X127986792Y-67367589D01*
X127836035Y-67141964D01*
X127640827Y-66919372D01*
X127418235Y-66724164D01*
X127172075Y-66559686D01*
X126906541Y-66428738D01*
X126626200Y-66333576D01*
X126335823Y-66275816D01*
X126062682Y-66257914D01*
X126040400Y-66256454D01*
X126040399Y-66256454D01*
X125744976Y-66275816D01*
X125454599Y-66333576D01*
X125174258Y-66428738D01*
X124908724Y-66559686D01*
X124662564Y-66724164D01*
X124439972Y-66919372D01*
X124244764Y-67141964D01*
X124080286Y-67388124D01*
X123949338Y-67653658D01*
X123854176Y-67933999D01*
X123796416Y-68224376D01*
X123777054Y-68519800D01*
X116263746Y-68519800D01*
X116244383Y-68224374D01*
X116186624Y-67934003D01*
X116176441Y-67904004D01*
X116091461Y-67653658D01*
X115997868Y-67463871D01*
X115960515Y-67388127D01*
X115946792Y-67367589D01*
X115796035Y-67141964D01*
X115600827Y-66919372D01*
X115378235Y-66724164D01*
X115132075Y-66559686D01*
X114866541Y-66428738D01*
X114586200Y-66333576D01*
X114295823Y-66275816D01*
X114022682Y-66257914D01*
X114000400Y-66256454D01*
X114000399Y-66256454D01*
X113704976Y-66275816D01*
X113414599Y-66333576D01*
X113134258Y-66428738D01*
X112868724Y-66559686D01*
X112622564Y-66724164D01*
X112399972Y-66919372D01*
X112204764Y-67141964D01*
X112040286Y-67388124D01*
X111909338Y-67653658D01*
X111814176Y-67933999D01*
X111756416Y-68224376D01*
X111737054Y-68519800D01*
X102297599Y-68519800D01*
X102297599Y-68479008D01*
X102291188Y-68397543D01*
X102240426Y-68208098D01*
X102151391Y-68033353D01*
X102027963Y-67880936D01*
X101875546Y-67757508D01*
X101700801Y-67668473D01*
X101511357Y-67617711D01*
X101429892Y-67611300D01*
X101193600Y-67611300D01*
X98512130Y-67611300D01*
X98287070Y-67611300D01*
X98065091Y-67648342D01*
X97852228Y-67721417D01*
X97654300Y-67828531D01*
X97633910Y-67844399D01*
X97633910Y-67844401D01*
X96625288Y-67844401D01*
X96625289Y-67844400D01*
X96625288Y-67844399D01*
X96604902Y-67828532D01*
X96406971Y-67721417D01*
X96194108Y-67648342D01*
X95972130Y-67611300D01*
X95747070Y-67611300D01*
X95525091Y-67648342D01*
X95312228Y-67721417D01*
X95114300Y-67828531D01*
X95093910Y-67844399D01*
X95093910Y-67844401D01*
X94085288Y-67844401D01*
X94085289Y-67844400D01*
X94085288Y-67844399D01*
X94064902Y-67828532D01*
X93866971Y-67721417D01*
X93654108Y-67648342D01*
X93432130Y-67611300D01*
X93207070Y-67611300D01*
X92985091Y-67648342D01*
X92772228Y-67721417D01*
X92574300Y-67828531D01*
X92553910Y-67844399D01*
X92553910Y-67844401D01*
X91545288Y-67844401D01*
X91545289Y-67844400D01*
X91545288Y-67844399D01*
X91524902Y-67828532D01*
X91326971Y-67721417D01*
X91114108Y-67648342D01*
X90892130Y-67611300D01*
X90667070Y-67611300D01*
X90445091Y-67648342D01*
X90232228Y-67721417D01*
X90034300Y-67828531D01*
X90013910Y-67844399D01*
X90013910Y-67844401D01*
X89005288Y-67844401D01*
X89005289Y-67844400D01*
X89005288Y-67844399D01*
X88984902Y-67828532D01*
X88786971Y-67721417D01*
X88574108Y-67648342D01*
X88352130Y-67611300D01*
X88127070Y-67611300D01*
X87905091Y-67648342D01*
X87692228Y-67721417D01*
X87494300Y-67828531D01*
X87473910Y-67844399D01*
X87473910Y-67844401D01*
X86465288Y-67844401D01*
X86465289Y-67844400D01*
X86465288Y-67844399D01*
X86444902Y-67828532D01*
X86246971Y-67721417D01*
X86034108Y-67648342D01*
X85812130Y-67611300D01*
X85587070Y-67611300D01*
X85365091Y-67648342D01*
X85152228Y-67721417D01*
X84954300Y-67828531D01*
X84933910Y-67844399D01*
X84933910Y-67844401D01*
X83925288Y-67844401D01*
X83925289Y-67844400D01*
X83925288Y-67844399D01*
X83904902Y-67828532D01*
X83706971Y-67721417D01*
X83494108Y-67648342D01*
X83272130Y-67611300D01*
X83047070Y-67611300D01*
X82825091Y-67648342D01*
X82612228Y-67721417D01*
X82414300Y-67828531D01*
X82393910Y-67844399D01*
X82393910Y-67844401D01*
X81385288Y-67844401D01*
X81385289Y-67844400D01*
X81385288Y-67844399D01*
X81364902Y-67828532D01*
X81166971Y-67721417D01*
X80954108Y-67648342D01*
X80732130Y-67611300D01*
X80507070Y-67611300D01*
X80285091Y-67648342D01*
X80072228Y-67721417D01*
X79874300Y-67828531D01*
X79853910Y-67844399D01*
X79853910Y-67844401D01*
X78845288Y-67844401D01*
X78845289Y-67844400D01*
X78845288Y-67844399D01*
X78824902Y-67828532D01*
X78626971Y-67721417D01*
X78414108Y-67648342D01*
X78192130Y-67611300D01*
X77967070Y-67611300D01*
X77745091Y-67648342D01*
X77532228Y-67721417D01*
X77334300Y-67828531D01*
X77313910Y-67844399D01*
X77313910Y-67844401D01*
X76305288Y-67844401D01*
X76305289Y-67844400D01*
X76305288Y-67844399D01*
X76284902Y-67828532D01*
X76086971Y-67721417D01*
X75874108Y-67648342D01*
X75652130Y-67611300D01*
X75427070Y-67611300D01*
X75205091Y-67648342D01*
X74992228Y-67721417D01*
X74794300Y-67828531D01*
X74773910Y-67844399D01*
X74773910Y-67844401D01*
X73765288Y-67844401D01*
X73765289Y-67844400D01*
X73765288Y-67844399D01*
X73744902Y-67828532D01*
X73546971Y-67721417D01*
X73334108Y-67648342D01*
X73112130Y-67611300D01*
X72887070Y-67611300D01*
X72665091Y-67648342D01*
X72452228Y-67721417D01*
X72254300Y-67828531D01*
X72233910Y-67844399D01*
X72233910Y-67844401D01*
X71225288Y-67844401D01*
X71225289Y-67844400D01*
X71225288Y-67844399D01*
X71204902Y-67828532D01*
X71006971Y-67721417D01*
X70794108Y-67648342D01*
X70572130Y-67611300D01*
X70347070Y-67611300D01*
X70125091Y-67648342D01*
X69912228Y-67721417D01*
X69714300Y-67828531D01*
X69693910Y-67844399D01*
X69693910Y-67844401D01*
X68685288Y-67844401D01*
X68685289Y-67844400D01*
X68685288Y-67844399D01*
X68664902Y-67828532D01*
X68466971Y-67721417D01*
X68254108Y-67648342D01*
X68032130Y-67611300D01*
X67807070Y-67611300D01*
X67585091Y-67648342D01*
X67372228Y-67721417D01*
X67174300Y-67828531D01*
X67153910Y-67844399D01*
X67153910Y-67844401D01*
X66145288Y-67844401D01*
X66145289Y-67844400D01*
X66145288Y-67844399D01*
X66124902Y-67828532D01*
X65926971Y-67721417D01*
X65714108Y-67648342D01*
X65492130Y-67611300D01*
X65267070Y-67611300D01*
X65045091Y-67648342D01*
X64832228Y-67721417D01*
X64634300Y-67828531D01*
X64613910Y-67844399D01*
X64613910Y-67844401D01*
X63605288Y-67844401D01*
X63605289Y-67844400D01*
X63605288Y-67844399D01*
X63584902Y-67828532D01*
X63386971Y-67721417D01*
X63174108Y-67648342D01*
X62952130Y-67611300D01*
X62727070Y-67611300D01*
X62505091Y-67648342D01*
X62292228Y-67721417D01*
X62094300Y-67828531D01*
X62073910Y-67844399D01*
X62073910Y-67844401D01*
X61065288Y-67844401D01*
X61065289Y-67844400D01*
X61065288Y-67844399D01*
X61044902Y-67828532D01*
X60846971Y-67721417D01*
X60634108Y-67648342D01*
X60412130Y-67611300D01*
X60187070Y-67611300D01*
X59965091Y-67648342D01*
X59752228Y-67721417D01*
X59554300Y-67828531D01*
X59533910Y-67844399D01*
X59533910Y-67844401D01*
X50034801Y-67844401D01*
X50034998Y-64312800D01*
X51038255Y-64312800D01*
X51085977Y-64501251D01*
X51176380Y-64707348D01*
X51299478Y-64895762D01*
X51451896Y-65061333D01*
X51629497Y-65199566D01*
X51827431Y-65306683D01*
X52040285Y-65379755D01*
X52120800Y-65393191D01*
X52120800Y-64312800D01*
X52628800Y-64312800D01*
X52628800Y-65393191D01*
X52709314Y-65379755D01*
X52922168Y-65306683D01*
X53120102Y-65199566D01*
X53297703Y-65061333D01*
X53450121Y-64895762D01*
X53573219Y-64707348D01*
X53663622Y-64501251D01*
X53698480Y-64363599D01*
X106343711Y-64363599D01*
X106363605Y-64540170D01*
X106422290Y-64707881D01*
X106516826Y-64858334D01*
X106642465Y-64983973D01*
X106642467Y-64983974D01*
X106642468Y-64983975D01*
X106792918Y-65078509D01*
X106960632Y-65137195D01*
X107137200Y-65157089D01*
X107313768Y-65137195D01*
X107481482Y-65078509D01*
X107534242Y-65045357D01*
X107595818Y-65026164D01*
X107658830Y-65039960D01*
X107706756Y-65083130D01*
X107783678Y-65200868D01*
X107881089Y-65306683D01*
X107936162Y-65366508D01*
X108113821Y-65504787D01*
X108113824Y-65504789D01*
X108311826Y-65611942D01*
X108524765Y-65685044D01*
X108746831Y-65722100D01*
X108971966Y-65722100D01*
X108971969Y-65722100D01*
X109194035Y-65685044D01*
X109406974Y-65611942D01*
X109604976Y-65504789D01*
X109782640Y-65366506D01*
X109935122Y-65200868D01*
X110023918Y-65064954D01*
X110069431Y-65023058D01*
X110129400Y-65007872D01*
X110189369Y-65023058D01*
X110234881Y-65064954D01*
X110295075Y-65157088D01*
X110323678Y-65200868D01*
X110476162Y-65366508D01*
X110653821Y-65504787D01*
X110653824Y-65504789D01*
X110851826Y-65611942D01*
X111064765Y-65685044D01*
X111286831Y-65722100D01*
X111511966Y-65722100D01*
X111511969Y-65722100D01*
X111734035Y-65685044D01*
X111946974Y-65611942D01*
X112144976Y-65504789D01*
X112322640Y-65366506D01*
X112475122Y-65200868D01*
X112598260Y-65012391D01*
X112688696Y-64806216D01*
X112743964Y-64587968D01*
X112762556Y-64363600D01*
X112743964Y-64139232D01*
X112688696Y-63920984D01*
X112598260Y-63714809D01*
X112475122Y-63526332D01*
X112322640Y-63360694D01*
X112322639Y-63360693D01*
X112322637Y-63360691D01*
X112144978Y-63222412D01*
X112111717Y-63204412D01*
X112063446Y-63158095D01*
X112052737Y-63119199D01*
X135705627Y-63119199D01*
X135724260Y-63284574D01*
X135779223Y-63441650D01*
X135867764Y-63582562D01*
X135985437Y-63700235D01*
X136015822Y-63719327D01*
X136126349Y-63788776D01*
X136283428Y-63843740D01*
X136448800Y-63862373D01*
X136614172Y-63843740D01*
X136771251Y-63788776D01*
X136912161Y-63700236D01*
X137029836Y-63582561D01*
X137118376Y-63441651D01*
X137173340Y-63284572D01*
X137191973Y-63119200D01*
X137173340Y-62953828D01*
X137118376Y-62796749D01*
X137029836Y-62655839D01*
X137029835Y-62655837D01*
X136912162Y-62538164D01*
X136771250Y-62449623D01*
X136614174Y-62394660D01*
X136448800Y-62376027D01*
X136283425Y-62394660D01*
X136126349Y-62449623D01*
X135985437Y-62538164D01*
X135867764Y-62655837D01*
X135779223Y-62796749D01*
X135724260Y-62953825D01*
X135705627Y-63119199D01*
X112052737Y-63119199D01*
X112045688Y-63093597D01*
X112063449Y-63029099D01*
X112111717Y-62982787D01*
X112144976Y-62964789D01*
X112322640Y-62826506D01*
X112475122Y-62660868D01*
X112598260Y-62472391D01*
X112688696Y-62266216D01*
X112743964Y-62047968D01*
X112762556Y-61823600D01*
X112743964Y-61599232D01*
X112688696Y-61380984D01*
X112598260Y-61174809D01*
X112475122Y-60986332D01*
X112322640Y-60820694D01*
X112322639Y-60820693D01*
X112322637Y-60820691D01*
X112144978Y-60682412D01*
X111946973Y-60575257D01*
X111883885Y-60553599D01*
X141392341Y-60553599D01*
X141412937Y-60789009D01*
X141474096Y-61017262D01*
X141573965Y-61231429D01*
X141709507Y-61425004D01*
X141876595Y-61592092D01*
X141876598Y-61592094D01*
X141876599Y-61592095D01*
X142070171Y-61727635D01*
X142284337Y-61827503D01*
X142512592Y-61888663D01*
X142689034Y-61904100D01*
X142806960Y-61904100D01*
X142806966Y-61904100D01*
X142983408Y-61888663D01*
X143211663Y-61827503D01*
X143425829Y-61727635D01*
X143619401Y-61592095D01*
X143786495Y-61425001D01*
X143922035Y-61231430D01*
X144021903Y-61017263D01*
X144083063Y-60789008D01*
X144103659Y-60553600D01*
X144083063Y-60318192D01*
X144021903Y-60089937D01*
X143922035Y-59875771D01*
X143786495Y-59682199D01*
X143786494Y-59682198D01*
X143786492Y-59682195D01*
X143619404Y-59515107D01*
X143425829Y-59379565D01*
X143211662Y-59279696D01*
X142983409Y-59218537D01*
X142958202Y-59216331D01*
X142806966Y-59203100D01*
X142689034Y-59203100D01*
X142556702Y-59214677D01*
X142512590Y-59218537D01*
X142284337Y-59279696D01*
X142070170Y-59379565D01*
X141876595Y-59515107D01*
X141709507Y-59682195D01*
X141573965Y-59875769D01*
X141474096Y-60089936D01*
X141412937Y-60318190D01*
X141392341Y-60553599D01*
X111883885Y-60553599D01*
X111795200Y-60523154D01*
X111734035Y-60502156D01*
X111511969Y-60465100D01*
X111286831Y-60465100D01*
X111064765Y-60502156D01*
X111064762Y-60502156D01*
X111064762Y-60502157D01*
X110851826Y-60575257D01*
X110653821Y-60682412D01*
X110476162Y-60820691D01*
X110414775Y-60887375D01*
X110361302Y-60921775D01*
X110297840Y-60925685D01*
X110240550Y-60898109D01*
X110204018Y-60846069D01*
X110159845Y-60727637D01*
X110072304Y-60610695D01*
X109955362Y-60523154D01*
X109818493Y-60472105D01*
X109757989Y-60465600D01*
X109113400Y-60465600D01*
X109113400Y-61951600D01*
X109096519Y-62014600D01*
X109050400Y-62060719D01*
X108987400Y-62077600D01*
X107501400Y-62077600D01*
X107501400Y-62722189D01*
X107507905Y-62782693D01*
X107558954Y-62919562D01*
X107646495Y-63036504D01*
X107763437Y-63124045D01*
X107878572Y-63166988D01*
X107928906Y-63201552D01*
X107957081Y-63255722D01*
X107956478Y-63316778D01*
X107927241Y-63370382D01*
X107783678Y-63526331D01*
X107706757Y-63644068D01*
X107658830Y-63687238D01*
X107595820Y-63701034D01*
X107534239Y-63681840D01*
X107481480Y-63648690D01*
X107313770Y-63590005D01*
X107137200Y-63570111D01*
X106960629Y-63590005D01*
X106792918Y-63648690D01*
X106642465Y-63743226D01*
X106516826Y-63868865D01*
X106422290Y-64019318D01*
X106363605Y-64187029D01*
X106343711Y-64363599D01*
X53698480Y-64363599D01*
X53711344Y-64312800D01*
X52628800Y-64312800D01*
X52120800Y-64312800D01*
X51038255Y-64312800D01*
X50034998Y-64312800D01*
X50035104Y-62417438D01*
X51016300Y-62417438D01*
X51022811Y-62478000D01*
X51073911Y-62615005D01*
X51161538Y-62732061D01*
X51278594Y-62819688D01*
X51278595Y-62819688D01*
X51278596Y-62819689D01*
X51394114Y-62862775D01*
X51444446Y-62897337D01*
X51472621Y-62951507D01*
X51472019Y-63012563D01*
X51442782Y-63066167D01*
X51299476Y-63221840D01*
X51176380Y-63410251D01*
X51085977Y-63616348D01*
X51038255Y-63804799D01*
X51038256Y-63804800D01*
X53711344Y-63804800D01*
X53711344Y-63804799D01*
X53663622Y-63616348D01*
X53573219Y-63410251D01*
X53450121Y-63221837D01*
X53306818Y-63066167D01*
X53277580Y-63012563D01*
X53276978Y-62951507D01*
X53305153Y-62897337D01*
X53355483Y-62862776D01*
X53471004Y-62819689D01*
X53588061Y-62732061D01*
X53675689Y-62615004D01*
X53726789Y-62478001D01*
X53733300Y-62417438D01*
X53733300Y-61569600D01*
X107501400Y-61569600D01*
X108605400Y-61569600D01*
X108605400Y-60465600D01*
X107960811Y-60465600D01*
X107900306Y-60472105D01*
X107763437Y-60523154D01*
X107646495Y-60610695D01*
X107558954Y-60727637D01*
X107507905Y-60864506D01*
X107501400Y-60925011D01*
X107501400Y-61569600D01*
X53733300Y-61569600D01*
X53733300Y-60620162D01*
X53726789Y-60559599D01*
X53675689Y-60422596D01*
X53662449Y-60404909D01*
X53588061Y-60305538D01*
X53471005Y-60217911D01*
X53382054Y-60184734D01*
X53334001Y-60166811D01*
X53273438Y-60160300D01*
X51476162Y-60160300D01*
X51415599Y-60166811D01*
X51278594Y-60217911D01*
X51161538Y-60305538D01*
X51073911Y-60422594D01*
X51022811Y-60559599D01*
X51016300Y-60620162D01*
X51016300Y-62417438D01*
X50035104Y-62417438D01*
X50035256Y-59690000D01*
X112846111Y-59690000D01*
X112866005Y-59866570D01*
X112924690Y-60034281D01*
X113019226Y-60184734D01*
X113144865Y-60310373D01*
X113295318Y-60404909D01*
X113345858Y-60422594D01*
X113463032Y-60463595D01*
X113639600Y-60483489D01*
X113816168Y-60463595D01*
X113983882Y-60404909D01*
X114134332Y-60310375D01*
X114259975Y-60184732D01*
X114354509Y-60034282D01*
X114413195Y-59866568D01*
X114433089Y-59690000D01*
X114413195Y-59513432D01*
X114354509Y-59345718D01*
X114259975Y-59195268D01*
X114259974Y-59195267D01*
X114259973Y-59195265D01*
X114134334Y-59069626D01*
X113983881Y-58975090D01*
X113816170Y-58916405D01*
X113639600Y-58896511D01*
X113463029Y-58916405D01*
X113295318Y-58975090D01*
X113144865Y-59069626D01*
X113019226Y-59195265D01*
X112924690Y-59345718D01*
X112866005Y-59513429D01*
X112846111Y-59690000D01*
X50035256Y-59690000D01*
X50035296Y-58982560D01*
X50035300Y-58982530D01*
X50035300Y-58934187D01*
X50035907Y-58921838D01*
X50038401Y-58896511D01*
X50048777Y-58791157D01*
X50053592Y-58766947D01*
X50089907Y-58647234D01*
X50099358Y-58624419D01*
X50158327Y-58514094D01*
X50172043Y-58493566D01*
X50251407Y-58396861D01*
X50268861Y-58379407D01*
X50365566Y-58300043D01*
X50386094Y-58286327D01*
X50496420Y-58227357D01*
X50519234Y-58217907D01*
X50638947Y-58181592D01*
X50663157Y-58176777D01*
X50774381Y-58165823D01*
X50793838Y-58163907D01*
X50806187Y-58163300D01*
X50839882Y-58163300D01*
X144389712Y-58163300D01*
X144405353Y-58164275D01*
G37*
%TD.AperFunction*%
%TD*%
M02*
