%TF.GenerationSoftware,KiCad,Pcbnew,7.0.1*%
%TF.CreationDate,2023-04-16T22:16:48+10:00*%
%TF.ProjectId,XCopy Standalone,58436f70-7920-4537-9461-6e64616c6f6e,rev?*%
%TF.SameCoordinates,Original*%
%TF.FileFunction,Soldermask,Top*%
%TF.FilePolarity,Negative*%
%FSLAX46Y46*%
G04 Gerber Fmt 4.6, Leading zero omitted, Abs format (unit mm)*
G04 Created by KiCad (PCBNEW 7.0.1) date 2023-04-16 22:16:48*
%MOMM*%
%LPD*%
G01*
G04 APERTURE LIST*
G04 Aperture macros list*
%AMRoundRect*
0 Rectangle with rounded corners*
0 $1 Rounding radius*
0 $2 $3 $4 $5 $6 $7 $8 $9 X,Y pos of 4 corners*
0 Add a 4 corners polygon primitive as box body*
4,1,4,$2,$3,$4,$5,$6,$7,$8,$9,$2,$3,0*
0 Add four circle primitives for the rounded corners*
1,1,$1+$1,$2,$3*
1,1,$1+$1,$4,$5*
1,1,$1+$1,$6,$7*
1,1,$1+$1,$8,$9*
0 Add four rect primitives between the rounded corners*
20,1,$1+$1,$2,$3,$4,$5,0*
20,1,$1+$1,$4,$5,$6,$7,0*
20,1,$1+$1,$6,$7,$8,$9,0*
20,1,$1+$1,$8,$9,$2,$3,0*%
G04 Aperture macros list end*
%ADD10C,0.800000*%
%ADD11R,1.050000X1.400000*%
%ADD12RoundRect,0.237500X0.237500X-0.300000X0.237500X0.300000X-0.237500X0.300000X-0.237500X-0.300000X0*%
%ADD13RoundRect,0.237500X-0.250000X-0.237500X0.250000X-0.237500X0.250000X0.237500X-0.250000X0.237500X0*%
%ADD14RoundRect,0.237500X0.300000X0.237500X-0.300000X0.237500X-0.300000X-0.237500X0.300000X-0.237500X0*%
%ADD15RoundRect,0.237500X-0.287500X-0.237500X0.287500X-0.237500X0.287500X0.237500X-0.287500X0.237500X0*%
%ADD16C,2.400000*%
%ADD17O,1.700000X1.700000*%
%ADD18R,1.700000X1.700000*%
%ADD19RoundRect,0.150000X-0.650000X-0.150000X0.650000X-0.150000X0.650000X0.150000X-0.650000X0.150000X0*%
%ADD20RoundRect,0.425000X0.425000X-0.425000X0.425000X0.425000X-0.425000X0.425000X-0.425000X-0.425000X0*%
%ADD21C,1.700000*%
%ADD22RoundRect,0.237500X-0.237500X0.300000X-0.237500X-0.300000X0.237500X-0.300000X0.237500X0.300000X0*%
%ADD23RoundRect,0.237500X-0.300000X-0.237500X0.300000X-0.237500X0.300000X0.237500X-0.300000X0.237500X0*%
%ADD24RoundRect,0.237500X0.250000X0.237500X-0.250000X0.237500X-0.250000X-0.237500X0.250000X-0.237500X0*%
%ADD25R,2.500000X1.000000*%
%ADD26R,1.000000X1.800000*%
%ADD27RoundRect,0.250000X-0.337500X-0.475000X0.337500X-0.475000X0.337500X0.475000X-0.337500X0.475000X0*%
%ADD28RoundRect,0.237500X0.237500X-0.250000X0.237500X0.250000X-0.237500X0.250000X-0.237500X-0.250000X0*%
%ADD29R,1.600000X1.600000*%
%ADD30C,1.600000*%
%ADD31RoundRect,0.250000X-0.550000X1.500000X-0.550000X-1.500000X0.550000X-1.500000X0.550000X1.500000X0*%
%ADD32C,3.500000*%
%ADD33C,2.200000*%
%ADD34RoundRect,0.237500X-0.237500X0.250000X-0.237500X-0.250000X0.237500X-0.250000X0.237500X0.250000X0*%
%ADD35RoundRect,0.250000X0.350000X0.450000X-0.350000X0.450000X-0.350000X-0.450000X0.350000X-0.450000X0*%
%ADD36C,0.750000*%
%ADD37C,1.050000*%
%ADD38R,1.350000X1.000000*%
%ADD39R,2.000000X1.800000*%
%ADD40RoundRect,0.150000X0.675000X0.150000X-0.675000X0.150000X-0.675000X-0.150000X0.675000X-0.150000X0*%
%ADD41R,1.240000X0.800000*%
%ADD42R,1.200000X1.160000*%
%ADD43R,2.500000X0.950000*%
%ADD44R,2.200000X1.150000*%
%ADD45R,1.150000X1.500000*%
%ADD46R,1.250000X1.160000*%
%ADD47R,1.500000X2.000000*%
%ADD48R,3.800000X2.000000*%
%ADD49R,1.200000X1.200000*%
%ADD50R,1.600000X1.500000*%
%ADD51R,2.000000X2.500000*%
%ADD52C,1.400000*%
%ADD53C,1.200000*%
%ADD54R,2.600000X3.600000*%
G04 APERTURE END LIST*
D10*
%TO.C,SW2*%
X142742200Y-91897200D03*
X144542200Y-91897200D03*
D11*
X142922200Y-93697200D03*
X142922200Y-90097200D03*
X144362200Y-93697200D03*
X144362200Y-90097200D03*
%TD*%
D12*
%TO.C,C12*%
X90598600Y-96290300D03*
X90598600Y-94565300D03*
%TD*%
D13*
%TO.C,R11*%
X60145900Y-110134400D03*
X61970900Y-110134400D03*
%TD*%
D14*
%TO.C,C5*%
X118800100Y-76456700D03*
X117075100Y-76456700D03*
%TD*%
D15*
%TO.C,D3*%
X60228400Y-114096800D03*
X61978400Y-114096800D03*
%TD*%
D14*
%TO.C,C16*%
X88540100Y-101904800D03*
X86815100Y-101904800D03*
%TD*%
D16*
%TO.C,U6*%
X103302300Y-114502000D03*
X103302300Y-84582000D03*
X52382300Y-114502000D03*
X52382300Y-84582000D03*
D17*
X104342300Y-90652000D03*
X104342300Y-93192000D03*
X104342300Y-95732000D03*
X104342300Y-98272000D03*
X104342300Y-100812000D03*
X104342300Y-103352000D03*
X104342300Y-105892000D03*
D18*
X104342300Y-108432000D03*
%TD*%
D19*
%TO.C,U4*%
X128893200Y-95046800D03*
X128893200Y-96316800D03*
X128893200Y-97586800D03*
X128893200Y-98856800D03*
X136093200Y-98856800D03*
X136093200Y-97586800D03*
X136093200Y-96316800D03*
X136093200Y-95046800D03*
%TD*%
D14*
%TO.C,C11*%
X136321250Y-90728800D03*
X134596250Y-90728800D03*
%TD*%
D10*
%TO.C,SW4*%
X142742200Y-85598000D03*
X144542200Y-85598000D03*
D11*
X142922200Y-87398000D03*
X142922200Y-83798000D03*
X144362200Y-87398000D03*
X144362200Y-83798000D03*
%TD*%
D13*
%TO.C,R6*%
X56081900Y-111912400D03*
X57906900Y-111912400D03*
%TD*%
D20*
%TO.C,J1*%
X100939600Y-68969300D03*
D21*
X100939600Y-71509300D03*
X98399600Y-68969300D03*
X98399600Y-71509300D03*
X95859600Y-68969300D03*
X95859600Y-71509300D03*
X93319600Y-68969300D03*
X93319600Y-71509300D03*
X90779600Y-68969300D03*
X90779600Y-71509300D03*
X88239600Y-68969300D03*
X88239600Y-71509300D03*
X85699600Y-68969300D03*
X85699600Y-71509300D03*
X83159600Y-68969300D03*
X83159600Y-71509300D03*
X80619600Y-68969300D03*
X80619600Y-71509300D03*
X78079600Y-68969300D03*
X78079600Y-71509300D03*
X75539600Y-68969300D03*
X75539600Y-71509300D03*
X72999600Y-68969300D03*
X72999600Y-71509300D03*
X70459600Y-68969300D03*
X70459600Y-71509300D03*
X67919600Y-68969300D03*
X67919600Y-71509300D03*
X65379600Y-68969300D03*
X65379600Y-71509300D03*
X62839600Y-68969300D03*
X62839600Y-71509300D03*
X60299600Y-68969300D03*
X60299600Y-71509300D03*
%TD*%
D12*
%TO.C,C6*%
X112318800Y-75843300D03*
X112318800Y-74118300D03*
%TD*%
D22*
%TO.C,C13*%
X99361600Y-91008900D03*
X99361600Y-92733900D03*
%TD*%
D23*
%TO.C,C7*%
X107544700Y-67005200D03*
X109269700Y-67005200D03*
%TD*%
D24*
%TO.C,R3*%
X76601300Y-90525600D03*
X74776300Y-90525600D03*
%TD*%
D25*
%TO.C,U2*%
X84101600Y-108394800D03*
X84101600Y-106394800D03*
X84101600Y-104394800D03*
X84101600Y-102394800D03*
X84101600Y-100394800D03*
X84101600Y-98394800D03*
X84101600Y-96394800D03*
X84101600Y-94394800D03*
D26*
X81501600Y-92894800D03*
X79501600Y-92894800D03*
X77501600Y-92894800D03*
X75501600Y-92894800D03*
X73501600Y-92894800D03*
X71501600Y-92894800D03*
D25*
X68901600Y-94394800D03*
X68901600Y-96394800D03*
X68901600Y-98394800D03*
X68901600Y-100394800D03*
X68901600Y-102394800D03*
X68901600Y-104394800D03*
X68901600Y-106394800D03*
X68901600Y-108394800D03*
%TD*%
D27*
%TO.C,C3*%
X86744900Y-94030800D03*
X88819900Y-94030800D03*
%TD*%
D14*
%TO.C,C15*%
X88540100Y-100253800D03*
X86815100Y-100253800D03*
%TD*%
D18*
%TO.C,J3*%
X52374800Y-61518800D03*
D17*
X52374800Y-64058800D03*
%TD*%
D24*
%TO.C,R2*%
X80970100Y-90525600D03*
X79145100Y-90525600D03*
%TD*%
D28*
%TO.C,R17*%
X90573200Y-92809700D03*
X90573200Y-90984700D03*
%TD*%
D14*
%TO.C,C1*%
X128418100Y-82346800D03*
X126693100Y-82346800D03*
%TD*%
D12*
%TO.C,C14*%
X97710600Y-92733900D03*
X97710600Y-91008900D03*
%TD*%
D24*
%TO.C,R5*%
X69032100Y-90525600D03*
X67207100Y-90525600D03*
%TD*%
D29*
%TO.C,U1*%
X108251600Y-82346800D03*
D30*
X108251600Y-84886800D03*
X108251600Y-87426800D03*
X108251600Y-89966800D03*
X108251600Y-92506800D03*
X108251600Y-95046800D03*
X108251600Y-97586800D03*
X108251600Y-100126800D03*
X108251600Y-102666800D03*
X108251600Y-105206800D03*
X108251600Y-107746800D03*
X108251600Y-110286800D03*
X108251600Y-112826800D03*
X108251600Y-115366800D03*
X110791600Y-115366800D03*
X113331600Y-115366800D03*
X115871600Y-115366800D03*
X118411600Y-115366800D03*
X120951600Y-115366800D03*
X123491600Y-115366800D03*
X123491600Y-112826800D03*
X123491600Y-110286800D03*
X123491600Y-107746800D03*
X123491600Y-105206800D03*
X123491600Y-102666800D03*
X123491600Y-100126800D03*
X123491600Y-97586800D03*
X123491600Y-95046800D03*
X123491600Y-92506800D03*
X123491600Y-89966800D03*
X123491600Y-87426800D03*
X123491600Y-84886800D03*
X123491600Y-82346800D03*
X120951600Y-84886800D03*
X120951600Y-89966800D03*
X120951600Y-92506800D03*
X120951600Y-95046800D03*
X115641600Y-88696800D03*
X115641600Y-83616800D03*
X117771600Y-83616800D03*
X118411600Y-97586800D03*
X118411600Y-100126800D03*
X118411600Y-102666800D03*
X118411600Y-105206800D03*
X118411600Y-107746800D03*
X118411600Y-110286800D03*
X118411600Y-112826800D03*
X115871600Y-112826800D03*
X115871600Y-110286800D03*
X115871600Y-107746800D03*
X115871600Y-105206800D03*
X115871600Y-102666800D03*
X115871600Y-100126800D03*
X115871600Y-97586800D03*
%TD*%
D28*
%TO.C,R13*%
X138785600Y-98905700D03*
X138785600Y-97080700D03*
%TD*%
D13*
%TO.C,R7*%
X64209900Y-111912400D03*
X66034900Y-111912400D03*
%TD*%
D22*
%TO.C,C17*%
X101647600Y-91441100D03*
X101647600Y-93166100D03*
%TD*%
D31*
%TO.C,C4*%
X54000400Y-69385200D03*
X54000400Y-74785200D03*
%TD*%
D10*
%TO.C,SW3*%
X142742200Y-98298000D03*
X144542200Y-98298000D03*
D11*
X142922200Y-100098000D03*
X142922200Y-96498000D03*
X144362200Y-100098000D03*
X144362200Y-96498000D03*
%TD*%
D18*
%TO.C,J4*%
X118770400Y-73229800D03*
D21*
X121270400Y-73229800D03*
X121270400Y-71229800D03*
X118770400Y-71229800D03*
D32*
X114000400Y-68519800D03*
X126040400Y-68519800D03*
%TD*%
D28*
%TO.C,R16*%
X66443200Y-101598100D03*
X66443200Y-99773100D03*
%TD*%
D14*
%TO.C,C10*%
X136321250Y-92887800D03*
X134596250Y-92887800D03*
%TD*%
D24*
%TO.C,R1*%
X84780100Y-90525600D03*
X82955100Y-90525600D03*
%TD*%
D23*
%TO.C,C9*%
X52017100Y-89814400D03*
X53742100Y-89814400D03*
%TD*%
%TO.C,C8*%
X52017100Y-92100400D03*
X53742100Y-92100400D03*
%TD*%
D14*
%TO.C,C2*%
X128418100Y-87426800D03*
X126693100Y-87426800D03*
%TD*%
D33*
%TO.C,H1*%
X142748000Y-60553600D03*
%TD*%
D34*
%TO.C,R8*%
X128794800Y-91060900D03*
X128794800Y-92885900D03*
%TD*%
D18*
%TO.C,J2*%
X77771600Y-79908400D03*
D17*
X75231600Y-79908400D03*
X72691600Y-79908400D03*
X70151600Y-79908400D03*
X67611600Y-79908400D03*
X65071600Y-79908400D03*
X62531600Y-79908400D03*
X59991600Y-79908400D03*
X57451600Y-79908400D03*
X54911600Y-79908400D03*
X52371600Y-79908400D03*
%TD*%
D18*
%TO.C,J5*%
X108859400Y-61823600D03*
D17*
X111399400Y-61823600D03*
X108859400Y-64363600D03*
X111399400Y-64363600D03*
%TD*%
D13*
%TO.C,R14*%
X60145900Y-111912400D03*
X61970900Y-111912400D03*
%TD*%
D35*
%TO.C,FB2*%
X88820600Y-98348800D03*
X86820600Y-98348800D03*
%TD*%
D36*
%TO.C,SW1*%
X134213600Y-108234400D03*
D37*
X134213600Y-112034400D03*
D38*
X130638600Y-108734400D03*
X130638600Y-110134400D03*
X130638600Y-111534400D03*
X137788600Y-108734400D03*
X137788600Y-110134400D03*
X137788600Y-111534400D03*
D39*
X134213600Y-106084400D03*
X134213600Y-114184400D03*
%TD*%
D34*
%TO.C,R10*%
X138785600Y-93321500D03*
X138785600Y-95146500D03*
%TD*%
D40*
%TO.C,U5*%
X96144600Y-101879400D03*
X96144600Y-100609400D03*
X96144600Y-99339400D03*
X96144600Y-98069400D03*
X90894600Y-98069400D03*
X90894600Y-99339400D03*
X90894600Y-100609400D03*
X90894600Y-101879400D03*
%TD*%
D13*
%TO.C,R9*%
X129848600Y-100914200D03*
X131673600Y-100914200D03*
%TD*%
%TO.C,R12*%
X133301100Y-100939600D03*
X135126100Y-100939600D03*
%TD*%
D33*
%TO.C,H2*%
X142747800Y-114501800D03*
%TD*%
D34*
%TO.C,R19*%
X97710600Y-94514900D03*
X97710600Y-96339900D03*
%TD*%
D24*
%TO.C,R4*%
X72791300Y-90525600D03*
X70966300Y-90525600D03*
%TD*%
D35*
%TO.C,FB1*%
X88820600Y-96316800D03*
X86820600Y-96316800D03*
%TD*%
D28*
%TO.C,R15*%
X66494000Y-97330900D03*
X66494000Y-95505900D03*
%TD*%
D41*
%TO.C,J6*%
X51846600Y-103941200D03*
X51846600Y-102841200D03*
X51846600Y-101741200D03*
X51846600Y-100641200D03*
X51846600Y-99541200D03*
X51846600Y-98441200D03*
X51846600Y-97341200D03*
X51846600Y-96241200D03*
D42*
X63476600Y-94301200D03*
D43*
X52476600Y-108286200D03*
D44*
X52326600Y-93896200D03*
D45*
X64601600Y-96101200D03*
X64601600Y-103881200D03*
D44*
X63806600Y-108186200D03*
D46*
X54476600Y-94301200D03*
%TD*%
D47*
%TO.C,U3*%
X105142000Y-75387600D03*
X107442000Y-75387600D03*
D48*
X107442000Y-69087600D03*
D47*
X109742000Y-75387600D03*
%TD*%
D49*
%TO.C,RV1*%
X93027600Y-96084800D03*
D50*
X94027600Y-92834800D03*
D49*
X95027600Y-96084800D03*
%TD*%
D15*
%TO.C,D1*%
X56164400Y-114096800D03*
X57914400Y-114096800D03*
%TD*%
D34*
%TO.C,R18*%
X99361600Y-94514900D03*
X99361600Y-96339900D03*
%TD*%
D15*
%TO.C,D2*%
X64292400Y-114096800D03*
X66042400Y-114096800D03*
%TD*%
D51*
%TO.C,LS1*%
X98711600Y-114255800D03*
X87311600Y-114255800D03*
X98711600Y-105555800D03*
X87311600Y-105555800D03*
%TD*%
D52*
%TO.C,BT1*%
X136448800Y-67319200D03*
D53*
X136448800Y-74819200D03*
D54*
X136448800Y-63119200D03*
X136448800Y-78919200D03*
%TD*%
M02*
